#N canvas 50 108 1255 639 10;
#X obj 1139 47 r elem-to-GEM-0;
#X obj 1139 75 r exp-to-GEM-0;
#X obj 1139 103 r elem-to-GEM-0;
#X obj 1139 131 r exp-to-GEM-0;
#X obj 1139 159 r elem-to-GEM-0;
#X obj 1139 187 r exp-to-GEM-0;
#X msg 1098 270 destroy;
#X obj 173 17 Gem;
#X msg 17 532 draw point;
#X obj 97 368 rotateXYZ;
#X floatatom 117 314 5 0 0 0 - - -, f 5;
#X obj 97 549 scopeXYZ~ 2048;
#X floatatom 137 332 5 0 0 0 - - -, f 5;
#X floatatom 157 350 5 0 0 0 - - -, f 5;
#X obj 97 212 translateXYZ;
#X floatatom 124 158 5 0 0 0 - - -, f 5;
#X floatatom 151 176 5 0 0 0 - - -, f 5;
#X floatatom 178 194 5 0 0 0 - - -, f 5;
#X obj 1098 242 inlet;
#X obj 217 297 unpack f f f;
#X obj 194 141 unpack f f f;
#X obj 97 110 gemhead;
#X msg 217 269 -27 27 0;
#X obj 19 59 t b b b;
#X obj 192 522 *~;
#X floatatom 257 508 5 0 0 0 - - -, f 5;
#X obj 194 76 t b b b;
#X obj 240 428 unpack f f f;
#X obj 357 368 rotateXYZ;
#X floatatom 377 314 5 0 0 0 - - -, f 5;
#X obj 357 549 scopeXYZ~ 2048;
#X floatatom 397 332 5 0 0 0 - - -, f 5;
#X floatatom 417 350 5 0 0 0 - - -, f 5;
#X obj 357 212 translateXYZ;
#X floatatom 384 158 5 0 0 0 - - -, f 5;
#X floatatom 411 176 5 0 0 0 - - -, f 5;
#X floatatom 438 194 5 0 0 0 - - -, f 5;
#X obj 388 445 osc~ 30;
#X obj 477 297 unpack f f f;
#X obj 421 466 osc~ 30;
#X obj 454 141 unpack f f f;
#X obj 357 110 gemhead;
#X obj 452 522 *~;
#X floatatom 517 508 5 0 0 0 - - -, f 5;
#X obj 454 76 t b b b;
#X msg 500 400 0 0.28 3.25;
#X obj 500 428 unpack f f f;
#X msg 477 269 30 180 40;
#X obj 596 368 rotateXYZ;
#X floatatom 616 314 5 0 0 0 - - -, f 5;
#X obj 596 549 scopeXYZ~ 2048;
#X floatatom 636 332 5 0 0 0 - - -, f 5;
#X floatatom 656 350 5 0 0 0 - - -, f 5;
#X obj 596 212 translateXYZ;
#X floatatom 623 158 5 0 0 0 - - -, f 5;
#X floatatom 650 176 5 0 0 0 - - -, f 5;
#X floatatom 677 194 5 0 0 0 - - -, f 5;
#X obj 627 445 osc~ 30;
#X obj 716 297 unpack f f f;
#X obj 660 466 osc~ 30;
#X obj 693 141 unpack f f f;
#X obj 596 110 gemhead;
#X obj 691 522 *~;
#X floatatom 756 508 5 0 0 0 - - -, f 5;
#X obj 693 76 t b b b;
#X msg 739 400 0 0.28 3.25;
#X obj 739 428 unpack f f f;
#X msg 716 269 -30 -25 90;
#X obj 19 29 r init-loadbang;
#X obj 128 445 osc~ 30;
#X obj 161 466 osc~ 30;
#X msg 240 400 0 0.28 3.25;
#X msg 761 95;
#X obj 897 545 pix_record;
#X msg 1098 354 codeclist;
#X msg 1150 483 file /home/joshua/Desktop/Github_Repos/Statfeed_PD_Controller/Statfeed_PD_Controller_GEM-Center/whatever3.mp4
;
#X obj 1098 436 bng 15 250 50 0 empty empty empty 0 -6 0 8 -258699
-1 -1;
#N canvas 0 50 450 300 savepanel 0;
#X obj 114 62 inlet;
#X obj 114 254 outlet;
#X obj 114 199 t b a;
#X obj 114 125 savepanel;
#X msg 114 162 set file \$1;
#X connect 0 0 3 0;
#X connect 2 0 1 0;
#X connect 2 1 1 0;
#X connect 3 0 4 0;
#X connect 4 0 2 0;
#X restore 1098 462 pd savepanel;
#X msg 1098 408 record \$1;
#X obj 1098 382 tgl 15 0 empty empty empty 0 -6 0 8 -262144 -1 -1 0
1;
#X obj 1098 518 t a;
#X floatatom 930 577 5 0 0 0 - - -, f 5;
#X obj 842 28 openpanel;
#X obj 842 10 bng 15 250 50 0 empty empty empty 17 7 0 10 -262144 -1
-1;
#X obj 687 8 table track1;
#X obj 687 28 table track2;
#X obj 687 48 table track3;
#X obj 916 432 dac~;
#X obj 283 34 bng 15 250 50 0 empty empty empty 17 7 0 10 -262144 -1
-1;
#X msg 194 114 -2 -1.4 0;
#X msg 454 113 0 2 0;
#X msg 693 113 2 -1.4 0;
#X obj 889 178 readsf~ 3;
#X obj 949 128 tgl 15 0 empty empty empty 17 7 0 10 -262144 -1 -1 0
1;
#X msg 889 122 open \$1;
#X obj 931 339 *~ 0.333;
#X floatatom 461 33 5 0 0 0 - - -, f 5;
#X floatatom 480 18 5 0 0 0 - - -, f 5;
#X floatatom 499 33 5 0 0 0 - - -, f 5;
#X obj 461 48 packer;
#X floatatom 481 223 5 0 0 0 - - -, f 5;
#X floatatom 500 208 5 0 0 0 - - -, f 5;
#X floatatom 519 223 5 0 0 0 - - -, f 5;
#X obj 481 238 packer;
#X msg 392 42 0 -2 0;
#X msg 401 250 -32 180 45;
#X floatatom 271 93 5 0 0 0 - - -, f 5;
#X floatatom 290 78 5 0 0 0 - - -, f 5;
#X floatatom 309 93 5 0 0 0 - - -, f 5;
#X obj 271 108 packer;
#X floatatom 237 230 5 0 0 0 - - -, f 5;
#X floatatom 256 215 5 0 0 0 - - -, f 5;
#X floatatom 275 230 5 0 0 0 - - -, f 5;
#X obj 237 245 packer;
#X msg 141 252 32 25 75;
#X msg 164 94 -2 2 0;
#X msg 608 80 2 2 0;
#X floatatom 751 223 5 0 0 0 - - -, f 5;
#X floatatom 770 208 5 0 0 0 - - -, f 5;
#X floatatom 789 223 5 0 0 0 - - -, f 5;
#X obj 751 238 packer;
#X msg 769 180 28 -24 5;
#X msg 983 194 0;
#X obj 969 574 print;
#X obj 897 489 pix_texture;
#X obj 897 517 pix_rectangle;
#X msg 1098 326 codec 20;
#X obj 957 451 pix_video;
#N canvas 175 325 853 379 gemwin 1;
#X obj 67 117 outlet;
#X obj 67 10 inlet;
#X obj 67 41 route create;
#X msg 67 90 set destroy;
#X msg 203 62 set create;
#X msg 172 227 destroy \, reset;
#X obj 322 300 outlet;
#X msg 22 162 dimen 683 384 \, create \, 1;
#X obj 56 246 gemwin;
#X msg 232 162 dimen 1366 768 \, create \, 1;
#X connect 1 0 2 0;
#X connect 2 0 3 0;
#X connect 2 0 9 0;
#X connect 2 1 4 0;
#X connect 2 1 5 0;
#X connect 3 0 0 0;
#X connect 4 0 0 0;
#X connect 5 0 8 0;
#X connect 8 0 6 0;
#X connect 9 0 8 0;
#X restore 1098 298 pd gemwin;
#X connect 6 0 128 0;
#X connect 8 0 11 0;
#X connect 8 0 30 0;
#X connect 8 0 50 0;
#X connect 9 0 11 0;
#X connect 10 0 9 1;
#X connect 12 0 9 2;
#X connect 13 0 9 3;
#X connect 14 0 9 0;
#X connect 15 0 14 1;
#X connect 16 0 14 2;
#X connect 17 0 14 3;
#X connect 18 0 6 0;
#X connect 19 0 10 0;
#X connect 19 1 12 0;
#X connect 19 2 13 0;
#X connect 20 0 15 0;
#X connect 20 1 16 0;
#X connect 20 2 17 0;
#X connect 21 0 14 0;
#X connect 22 0 19 0;
#X connect 23 0 26 0;
#X connect 23 0 8 0;
#X connect 23 1 44 0;
#X connect 23 2 64 0;
#X connect 24 0 11 3;
#X connect 25 0 24 1;
#X connect 26 0 89 0;
#X connect 26 1 22 0;
#X connect 26 2 71 0;
#X connect 27 0 69 1;
#X connect 27 1 70 1;
#X connect 27 2 25 0;
#X connect 28 0 30 0;
#X connect 29 0 28 1;
#X connect 31 0 28 2;
#X connect 32 0 28 3;
#X connect 33 0 28 0;
#X connect 34 0 33 1;
#X connect 35 0 33 2;
#X connect 36 0 33 3;
#X connect 37 0 30 1;
#X connect 38 0 29 0;
#X connect 38 1 31 0;
#X connect 38 2 32 0;
#X connect 39 0 30 2;
#X connect 40 0 34 0;
#X connect 40 1 35 0;
#X connect 40 2 36 0;
#X connect 41 0 33 0;
#X connect 42 0 30 3;
#X connect 43 0 42 1;
#X connect 44 0 90 0;
#X connect 44 1 47 0;
#X connect 44 2 45 0;
#X connect 45 0 46 0;
#X connect 46 0 37 1;
#X connect 46 1 39 1;
#X connect 46 2 43 0;
#X connect 47 0 38 0;
#X connect 48 0 50 0;
#X connect 49 0 48 1;
#X connect 51 0 48 2;
#X connect 52 0 48 3;
#X connect 53 0 48 0;
#X connect 54 0 53 1;
#X connect 55 0 53 2;
#X connect 56 0 53 3;
#X connect 57 0 50 1;
#X connect 58 0 49 0;
#X connect 58 1 51 0;
#X connect 58 2 52 0;
#X connect 59 0 50 2;
#X connect 60 0 54 0;
#X connect 60 1 55 0;
#X connect 60 2 56 0;
#X connect 61 0 53 0;
#X connect 62 0 50 3;
#X connect 63 0 62 1;
#X connect 64 0 91 0;
#X connect 64 1 67 0;
#X connect 64 2 65 0;
#X connect 65 0 66 0;
#X connect 66 0 57 1;
#X connect 66 1 59 1;
#X connect 66 2 63 0;
#X connect 67 0 58 0;
#X connect 68 0 23 0;
#X connect 69 0 11 1;
#X connect 70 0 11 2;
#X connect 71 0 27 0;
#X connect 72 0 60 0;
#X connect 73 0 123 0;
#X connect 73 1 81 0;
#X connect 73 2 123 0;
#X connect 74 0 80 0;
#X connect 75 0 80 0;
#X connect 76 0 77 0;
#X connect 77 0 75 0;
#X connect 78 0 80 0;
#X connect 79 0 78 0;
#X connect 80 0 73 0;
#X connect 82 0 94 0;
#X connect 83 0 82 0;
#X connect 88 0 23 0;
#X connect 89 0 20 0;
#X connect 90 0 40 0;
#X connect 91 0 60 0;
#X connect 92 0 24 0;
#X connect 92 0 95 0;
#X connect 92 1 42 0;
#X connect 92 1 95 0;
#X connect 92 2 62 0;
#X connect 92 2 95 0;
#X connect 92 3 122 0;
#X connect 93 0 92 0;
#X connect 94 0 92 0;
#X connect 95 0 87 0;
#X connect 95 0 87 1;
#X connect 96 0 99 0;
#X connect 97 0 99 1;
#X connect 98 0 99 2;
#X connect 99 0 40 0;
#X connect 100 0 103 0;
#X connect 101 0 103 1;
#X connect 102 0 103 2;
#X connect 103 0 38 0;
#X connect 104 0 40 0;
#X connect 105 0 38 0;
#X connect 106 0 109 0;
#X connect 107 0 109 1;
#X connect 108 0 109 2;
#X connect 109 0 20 0;
#X connect 110 0 113 0;
#X connect 111 0 113 1;
#X connect 112 0 113 2;
#X connect 113 0 19 0;
#X connect 114 0 19 0;
#X connect 115 0 20 0;
#X connect 116 0 60 0;
#X connect 117 0 120 0;
#X connect 118 0 120 1;
#X connect 119 0 120 2;
#X connect 120 0 58 0;
#X connect 121 0 58 0;
#X connect 122 0 93 0;
#X connect 124 0 125 0;
#X connect 125 0 73 0;
#X connect 126 0 80 0;
#X connect 127 0 124 0;
#X connect 128 0 6 0;
#X connect 128 1 127 0;
