#N canvas 134 159 1099 727 10;
#X obj 1280 57 r elem-to-GEM-0;
#X obj 1280 85 r exp-to-GEM-0;
#X obj 1280 113 r elem-to-GEM-0;
#X obj 1280 141 r exp-to-GEM-0;
#X obj 1280 169 r elem-to-GEM-0;
#X obj 1280 197 r exp-to-GEM-0;
#X msg 1098 270 destroy;
#X obj 1456 109 Gem;
#X msg 14 491 draw point;
#X obj 97 347 rotateXYZ, f 15;
#X floatatom 117 253 5 0 0 0 - - -, f 5;
#X obj 97 509 scopeXYZ~ 2048;
#X floatatom 151 253 5 0 0 0 - - -, f 5;
#X floatatom 186 253 5 0 0 0 - - -, f 5;
#X obj 97 171 translateXYZ, f 16;
#X obj 1098 242 inlet;
#X obj 117 232 unpack f f f;
#X obj 97 10 gemhead;
#X obj 177 490 *~;
#X floatatom 192 453 5 0 0 0 - - -, f 5;
#X obj 112 447 osc~ 30;
#X obj 138 468 osc~ 30;
#X obj 1318 705 pix_record;
#X msg 1098 354 codeclist;
#X msg 1150 483 file /home/joshua/Desktop/Github_Repos/Statfeed_PD_Controller/Statfeed_PD_Controller_GEM-Center/whatever3.mp4
;
#X obj 1098 436 bng 15 250 50 0 empty empty empty 0 -6 0 8 -258699
-1 -1;
#N canvas 0 50 450 300 savepanel 0;
#X obj 114 62 inlet;
#X obj 114 254 outlet;
#X obj 114 199 t b a;
#X obj 114 125 savepanel;
#X msg 114 162 set file \$1;
#X connect 0 0 3 0;
#X connect 2 0 1 0;
#X connect 2 1 1 0;
#X connect 3 0 4 0;
#X connect 4 0 2 0;
#X restore 1098 462 pd savepanel;
#X msg 1098 408 record \$1;
#X obj 1098 382 tgl 15 0 empty empty empty 0 -6 0 8 -262144 -1 -1 0
1;
#X obj 1098 518 t a;
#X floatatom 1351 737 5 0 0 0 - - -, f 5;
#X obj 877 78 openpanel;
#X obj 877 60 bng 15 250 50 0 empty empty empty 17 7 0 10 -262144 -1
-1;
#X obj 1088 60 table track1;
#X obj 1088 80 table track2;
#X obj 1088 100 table track3;
#X obj 878 521 dac~;
#X obj 877 473 readsf~ 3;
#X obj 877 283 tgl 25 0 empty empty empty 17 7 0 10 -262144 -1 -1 0
1;
#X msg 877 107 open \$1;
#X obj 878 492 *~ 0.333;
#X msg 928 285 0;
#X obj 1390 734 print;
#X obj 1318 649 pix_texture;
#X obj 1318 677 pix_rectangle;
#X msg 1098 326 codec 20;
#X obj 1378 611 pix_video;
#N canvas 128 325 853 379 gemwin 0;
#X obj 67 117 outlet;
#X obj 67 10 inlet;
#X obj 67 41 route create;
#X msg 67 90 set destroy;
#X msg 203 62 set create;
#X msg 172 227 destroy \, reset;
#X obj 322 300 outlet;
#X msg 22 162 dimen 683 384 \, create \, 1;
#X obj 56 246 gemwin;
#X msg 232 162 dimen 1366 768 \, create \, 1;
#X connect 1 0 2 0;
#X connect 2 0 3 0;
#X connect 2 0 9 0;
#X connect 2 1 4 0;
#X connect 2 1 5 0;
#X connect 3 0 0 0;
#X connect 4 0 0 0;
#X connect 5 0 8 0;
#X connect 8 0 6 0;
#X connect 9 0 8 0;
#X restore 1098 298 pd gemwin;
#X obj 124 35 r translator1;
#X obj 117 203 r rotator1;
#X obj 124 147 line;
#X obj 193 148 line;
#X floatatom 124 85 5 0 0 0 - - -, f 5;
#X floatatom 158 85 5 0 0 0 - - -, f 5;
#X floatatom 193 85 5 0 0 0 - - -, f 5;
#X obj 124 64 unpack f f f;
#X obj 124 129 pack;
#X obj 124 111 r speed;
#X obj 159 130 pack;
#X obj 160 111 r speed;
#X obj 193 130 pack;
#X obj 194 111 r speed;
#X obj 159 148 line;
#X obj 117 317 line;
#X obj 186 318 line;
#X obj 117 299 pack;
#X obj 117 281 r speed;
#X obj 152 300 pack;
#X obj 153 281 r speed;
#X obj 186 300 pack;
#X obj 187 281 r speed;
#X obj 152 318 line;
#X obj 317 347 rotateXYZ, f 15;
#X floatatom 337 253 5 0 0 0 - - -, f 5;
#X obj 317 509 scopeXYZ~ 2048;
#X floatatom 371 253 5 0 0 0 - - -, f 5;
#X floatatom 406 253 5 0 0 0 - - -, f 5;
#X obj 317 171 translateXYZ, f 16;
#X obj 337 232 unpack f f f;
#X obj 317 10 gemhead;
#X obj 397 490 *~;
#X floatatom 411 453 5 0 0 0 - - -, f 5;
#X obj 345 453 osc~ 30;
#X obj 371 472 osc~ 30;
#X obj 344 147 line;
#X obj 413 148 line;
#X floatatom 344 85 5 0 0 0 - - -, f 5;
#X floatatom 378 85 5 0 0 0 - - -, f 5;
#X floatatom 413 85 5 0 0 0 - - -, f 5;
#X obj 344 64 unpack f f f;
#X obj 344 129 pack;
#X obj 344 111 r speed;
#X obj 379 130 pack;
#X obj 380 111 r speed;
#X obj 413 130 pack;
#X obj 414 111 r speed;
#X obj 379 148 line;
#X obj 337 317 line;
#X obj 406 318 line;
#X obj 337 299 pack;
#X obj 337 281 r speed;
#X obj 372 300 pack;
#X obj 373 281 r speed;
#X obj 406 300 pack;
#X obj 407 281 r speed;
#X obj 372 318 line;
#X obj 537 347 rotateXYZ, f 15;
#X floatatom 557 253 5 0 0 0 - - -, f 5;
#X obj 537 509 scopeXYZ~ 2048;
#X floatatom 591 253 5 0 0 0 - - -, f 5;
#X floatatom 626 253 5 0 0 0 - - -, f 5;
#X obj 537 171 translateXYZ, f 16;
#X obj 557 232 unpack f f f;
#X obj 537 10 gemhead;
#X obj 617 490 *~;
#X floatatom 631 453 5 0 0 0 - - -, f 5;
#X obj 565 451 osc~ 30;
#X obj 591 470 osc~ 30;
#X obj 564 147 line;
#X obj 633 148 line;
#X floatatom 564 85 5 0 0 0 - - -, f 5;
#X floatatom 598 85 5 0 0 0 - - -, f 5;
#X floatatom 633 85 5 0 0 0 - - -, f 5;
#X obj 564 64 unpack f f f;
#X obj 564 129 pack;
#X obj 564 111 r speed;
#X obj 599 130 pack;
#X obj 600 111 r speed;
#X obj 633 130 pack;
#X obj 634 111 r speed;
#X obj 599 148 line;
#X obj 557 317 line;
#X obj 626 318 line;
#X obj 557 299 pack;
#X obj 557 281 r speed;
#X obj 592 300 pack;
#X obj 593 281 r speed;
#X obj 626 300 pack;
#X obj 627 281 r speed;
#X obj 592 318 line;
#X obj 344 35 r translator2;
#X obj 337 203 r rotator2;
#X obj 564 35 r translator3;
#X obj 557 203 r rotator3;
#X obj 703 360 loadbang;
#X obj 765 238 s speed;
#X floatatom 765 210 5 0 0 0 - - -, f 5;
#X msg 765 181 0;
#X obj 799 473 noise~;
#X msg 384 378 0 0.25 3.25;
#X msg 604 378 0 0.24 3.25;
#X msg 163 378 0 0.3 3.25;
#X floatatom 26 68 5 0 0 0 - - -, f 5;
#X obj 26 85 * -1;
#X floatatom 15 237 5 0 0 0 - - -, f 5;
#X obj 15 254 * -1;
#X floatatom 773 436 5 0 0 0 - - -, f 5;
#X text 770 418 Amplitude;
#X floatatom 15 287 5 0 0 0 - - -, f 5;
#X floatatom 26 123 5 0 0 0 - - -, f 5;
#X floatatom 700 62 5 0 0 0 - - -, f 5;
#X msg 164 432 0;
#X obj 109 413 r phase1;
#X obj 164 413 t b f;
#X msg 384 435 0;
#X obj 384 416 t b f;
#X msg 604 432 0;
#X obj 604 413 t b f;
#X obj 329 416 r phase2;
#X obj 549 413 r phase3;
#X obj 169 725 unpack f f f f f f f;
#X obj 169 769 pack f f f;
#X obj 244 769 pack f f f;
#X obj 317 743 s phase1;
#X obj 169 689 r toring1;
#X obj 429 725 unpack f f f f f f f;
#X obj 429 769 pack f f f;
#X obj 504 769 pack f f f;
#X obj 577 743 s phase2;
#X obj 429 689 r toring2;
#X obj 689 725 unpack f f f f f f f;
#X obj 689 769 pack f f f;
#X obj 764 769 pack f f f;
#X obj 689 689 r toring3;
#X obj 837 743 s phase3;
#X obj 960 721 trader;
#X obj 993 652 bng 15 250 50 0 empty empty empty 17 7 0 10 -262144
-1 -1;
#X obj 960 614 hradio 15 1 0 3 empty empty empty 0 -8 0 10 -262144
-1 -1 2;
#X obj 524 809 s rotator2;
#X obj 169 809 s translator1;
#X obj 264 809 s rotator1;
#X obj 429 809 s translator2;
#X obj 689 809 s translator3;
#X obj 784 809 s rotator3;
#X obj 264 416 bng 15 250 50 0 empty empty empty 17 7 0 10 -262144
-1 -1;
#X connect 6 0 47 0;
#X connect 8 0 11 0;
#X connect 8 0 74 0;
#X connect 8 0 108 0;
#X connect 9 0 11 0;
#X connect 10 0 63 0;
#X connect 12 0 71 0;
#X connect 13 0 64 1;
#X connect 14 0 9 0;
#X connect 15 0 6 0;
#X connect 16 0 10 0;
#X connect 16 1 12 0;
#X connect 16 2 13 0;
#X connect 17 0 14 0;
#X connect 18 0 11 3;
#X connect 19 0 18 1;
#X connect 20 0 11 1;
#X connect 21 0 11 2;
#X connect 22 0 42 0;
#X connect 22 1 30 0;
#X connect 22 2 42 0;
#X connect 23 0 29 0;
#X connect 24 0 29 0;
#X connect 25 0 26 0;
#X connect 26 0 24 0;
#X connect 27 0 29 0;
#X connect 28 0 27 0;
#X connect 29 0 22 0;
#X connect 31 0 39 0;
#X connect 32 0 31 0;
#X connect 37 0 18 0;
#X connect 37 0 40 0;
#X connect 37 1 40 0;
#X connect 37 1 80 0;
#X connect 37 2 40 0;
#X connect 37 2 114 0;
#X connect 37 3 41 0;
#X connect 38 0 37 0;
#X connect 39 0 37 0;
#X connect 40 0 36 0;
#X connect 40 0 36 1;
#X connect 41 0 38 0;
#X connect 43 0 44 0;
#X connect 44 0 22 0;
#X connect 45 0 29 0;
#X connect 46 0 43 0;
#X connect 47 0 6 0;
#X connect 47 1 46 0;
#X connect 48 0 55 0;
#X connect 49 0 16 0;
#X connect 50 0 14 1;
#X connect 51 0 14 3;
#X connect 52 0 56 0;
#X connect 53 0 58 0;
#X connect 54 0 60 0;
#X connect 55 0 52 0;
#X connect 55 1 53 0;
#X connect 55 2 54 0;
#X connect 56 0 50 0;
#X connect 57 0 56 1;
#X connect 58 0 62 0;
#X connect 59 0 58 1;
#X connect 60 0 51 0;
#X connect 61 0 60 1;
#X connect 62 0 14 2;
#X connect 63 0 9 1;
#X connect 64 0 9 3;
#X connect 65 0 63 0;
#X connect 66 0 65 1;
#X connect 67 0 71 0;
#X connect 68 0 67 1;
#X connect 69 0 64 0;
#X connect 70 0 69 1;
#X connect 71 0 9 2;
#X connect 72 0 74 0;
#X connect 73 0 97 0;
#X connect 75 0 105 0;
#X connect 76 0 98 1;
#X connect 77 0 72 0;
#X connect 78 0 73 0;
#X connect 78 1 75 0;
#X connect 78 2 76 0;
#X connect 79 0 77 0;
#X connect 80 0 74 3;
#X connect 81 0 80 1;
#X connect 82 0 74 1;
#X connect 83 0 74 2;
#X connect 84 0 77 1;
#X connect 85 0 77 3;
#X connect 86 0 90 0;
#X connect 87 0 92 0;
#X connect 88 0 94 0;
#X connect 89 0 86 0;
#X connect 89 1 87 0;
#X connect 89 2 88 0;
#X connect 90 0 84 0;
#X connect 91 0 90 1;
#X connect 92 0 96 0;
#X connect 93 0 92 1;
#X connect 94 0 85 0;
#X connect 95 0 94 1;
#X connect 96 0 77 2;
#X connect 97 0 72 1;
#X connect 98 0 72 3;
#X connect 99 0 97 0;
#X connect 100 0 99 1;
#X connect 101 0 105 0;
#X connect 102 0 101 1;
#X connect 103 0 98 0;
#X connect 104 0 103 1;
#X connect 105 0 72 2;
#X connect 106 0 108 0;
#X connect 107 0 131 0;
#X connect 109 0 139 0;
#X connect 110 0 132 1;
#X connect 111 0 106 0;
#X connect 112 0 107 0;
#X connect 112 1 109 0;
#X connect 112 2 110 0;
#X connect 113 0 111 0;
#X connect 114 0 108 3;
#X connect 115 0 114 1;
#X connect 116 0 108 1;
#X connect 117 0 108 2;
#X connect 118 0 111 1;
#X connect 119 0 111 3;
#X connect 120 0 124 0;
#X connect 121 0 126 0;
#X connect 122 0 128 0;
#X connect 123 0 120 0;
#X connect 123 1 121 0;
#X connect 123 2 122 0;
#X connect 124 0 118 0;
#X connect 125 0 124 1;
#X connect 126 0 130 0;
#X connect 127 0 126 1;
#X connect 128 0 119 0;
#X connect 129 0 128 1;
#X connect 130 0 111 2;
#X connect 131 0 106 1;
#X connect 132 0 106 3;
#X connect 133 0 131 0;
#X connect 134 0 133 1;
#X connect 135 0 139 0;
#X connect 136 0 135 1;
#X connect 137 0 132 0;
#X connect 138 0 137 1;
#X connect 139 0 106 2;
#X connect 140 0 89 0;
#X connect 141 0 78 0;
#X connect 142 0 123 0;
#X connect 143 0 112 0;
#X connect 144 0 151 0;
#X connect 144 0 149 0;
#X connect 144 0 150 0;
#X connect 144 0 147 0;
#X connect 146 0 145 0;
#X connect 147 0 146 0;
#X connect 148 0 80 0;
#X connect 148 0 18 0;
#X connect 148 0 114 0;
#X connect 152 0 153 0;
#X connect 152 0 52 0;
#X connect 153 0 120 0;
#X connect 154 0 155 0;
#X connect 154 0 12 0;
#X connect 155 0 109 0;
#X connect 156 0 19 0;
#X connect 156 0 81 0;
#X connect 156 0 115 0;
#X connect 158 0 10 0;
#X connect 158 0 107 0;
#X connect 159 0 53 0;
#X connect 159 0 121 0;
#X connect 160 0 54 0;
#X connect 160 0 122 0;
#X connect 161 0 20 1;
#X connect 162 0 163 0;
#X connect 163 0 161 0;
#X connect 163 1 21 1;
#X connect 164 0 82 1;
#X connect 165 0 164 0;
#X connect 165 1 83 1;
#X connect 166 0 116 1;
#X connect 167 0 166 0;
#X connect 167 1 117 1;
#X connect 168 0 165 0;
#X connect 169 0 167 0;
#X connect 170 0 171 0;
#X connect 170 1 171 1;
#X connect 170 2 171 2;
#X connect 170 3 172 0;
#X connect 170 4 172 1;
#X connect 170 5 172 2;
#X connect 170 6 173 0;
#X connect 171 0 189 0;
#X connect 172 0 190 0;
#X connect 174 0 170 0;
#X connect 175 0 176 0;
#X connect 175 1 176 1;
#X connect 175 2 176 2;
#X connect 175 3 177 0;
#X connect 175 4 177 1;
#X connect 175 5 177 2;
#X connect 175 6 178 0;
#X connect 176 0 191 0;
#X connect 177 0 188 0;
#X connect 179 0 175 0;
#X connect 180 0 181 0;
#X connect 180 1 181 1;
#X connect 180 2 181 2;
#X connect 180 3 182 0;
#X connect 180 4 182 1;
#X connect 180 5 182 2;
#X connect 180 6 184 0;
#X connect 181 0 192 0;
#X connect 182 0 193 0;
#X connect 183 0 180 0;
#X connect 186 0 185 1;
#X connect 187 0 185 0;
#X connect 194 0 163 0;
