#N canvas 67 108 673 964 10;
#X obj 1280 57 r elem-to-GEM-0;
#X obj 1280 85 r exp-to-GEM-0;
#X obj 1280 113 r elem-to-GEM-0;
#X obj 1280 141 r exp-to-GEM-0;
#X obj 1280 169 r elem-to-GEM-0;
#X obj 1280 197 r exp-to-GEM-0;
#X msg 1098 270 destroy;
#X obj 1456 109 Gem;
#X msg 14 611 draw point;
#X obj 97 407 rotateXYZ, f 15;
#X floatatom 117 313 5 0 0 0 - - -, f 5;
#X obj 97 629 scopeXYZ~ 2048;
#X floatatom 151 313 5 0 0 0 - - -, f 5;
#X floatatom 186 313 5 0 0 0 - - -, f 5;
#X obj 97 181 translateXYZ, f 16;
#X obj 1098 242 inlet;
#X obj 117 292 unpack f f f;
#X obj 97 10 gemhead;
#X obj 177 602 *~;
#X floatatom 208 566 5 0 0 0 - - -, f 5;
#X obj 164 507 unpack f f f;
#X obj 125 538 osc~ 30;
#X obj 151 566 osc~ 30;
#X msg 164 478 0 0.28 3.25;
#X obj 1318 705 pix_record;
#X msg 1098 354 codeclist;
#X msg 1150 483 file /home/joshua/Desktop/Github_Repos/Statfeed_PD_Controller/Statfeed_PD_Controller_GEM-Center/whatever3.mp4
;
#X obj 1098 436 bng 15 250 50 0 empty empty empty 0 -6 0 8 -258699
-1 -1;
#N canvas 0 50 450 300 savepanel 0;
#X obj 114 62 inlet;
#X obj 114 254 outlet;
#X obj 114 199 t b a;
#X obj 114 125 savepanel;
#X msg 114 162 set file \$1;
#X connect 0 0 3 0;
#X connect 2 0 1 0;
#X connect 2 1 1 0;
#X connect 3 0 4 0;
#X connect 4 0 2 0;
#X restore 1098 462 pd savepanel;
#X msg 1098 408 record \$1;
#X obj 1098 382 tgl 15 0 empty empty empty 0 -6 0 8 -262144 -1 -1 0
1;
#X obj 1098 518 t a;
#X floatatom 1351 737 5 0 0 0 - - -, f 5;
#X obj 877 88 openpanel;
#X obj 877 70 bng 15 250 50 0 empty empty empty 17 7 0 10 -262144 -1
-1;
#X obj 1088 60 table track1;
#X obj 1088 80 table track2;
#X obj 1088 100 table track3;
#X obj 870 605 dac~;
#X obj 877 473 readsf~ 3;
#X obj 877 213 tgl 25 0 empty empty empty 17 7 0 10 -262144 -1 -1 0
1;
#X msg 877 117 open \$1;
#X obj 878 571 *~ 0.333;
#X msg 928 195 0;
#X obj 1390 734 print;
#X obj 1318 649 pix_texture;
#X obj 1318 677 pix_rectangle;
#X msg 1098 326 codec 20;
#X obj 1378 611 pix_video;
#N canvas 128 325 853 379 gemwin 0;
#X obj 67 117 outlet;
#X obj 67 10 inlet;
#X obj 67 41 route create;
#X msg 67 90 set destroy;
#X msg 203 62 set create;
#X msg 172 227 destroy \, reset;
#X obj 322 300 outlet;
#X msg 22 162 dimen 683 384 \, create \, 1;
#X obj 56 246 gemwin;
#X msg 232 162 dimen 1366 768 \, create \, 1;
#X connect 1 0 2 0;
#X connect 2 0 3 0;
#X connect 2 0 9 0;
#X connect 2 1 4 0;
#X connect 2 1 5 0;
#X connect 3 0 0 0;
#X connect 4 0 0 0;
#X connect 5 0 8 0;
#X connect 8 0 6 0;
#X connect 9 0 8 0;
#X restore 1098 298 pd gemwin;
#X obj 531 691 sel 0 1 2 3 4 5 6;
#X text 646 691 Arrangements;
#X obj 121 709 t b b;
#X obj 76 748 t b b b;
#X obj 174 748 t b b b;
#X msg 193 835 0 -2 0;
#X msg 76 894 32 25 75;
#X msg 115 776 28 -24 5;
#X obj 174 923 s translator1;
#X obj 193 864 s translator2;
#X obj 213 806 s translator3;
#X obj 531 664 hradio 15 1 0 8 empty empty empty 0 -8 0 10 -262144
-1 -1 0;
#X obj 381 709 t b b;
#X obj 336 748 t b b b;
#X obj 434 748 t b b b;
#X obj 434 923 s translator1;
#X obj 453 864 s translator2;
#X obj 473 806 s translator3;
#X msg 213 777 2 2 0;
#X msg 434 893 -2 -1.4 0;
#X msg 453 835 0 2 0;
#X msg 473 777 2 -1.4 0;
#X msg 336 894 -27 27 0;
#X msg 355 834 30 180 40;
#X msg 375 776 -30 -25 90;
#X obj 124 45 r translator1;
#X obj 76 923 s rotator1;
#X obj 95 863 s rotator2;
#X obj 115 805 s rotator3;
#X obj 336 923 s rotator1;
#X obj 355 863 s rotator2;
#X obj 375 805 s rotator3;
#X obj 117 263 r rotator1;
#X obj 124 157 line;
#X obj 193 158 line;
#X floatatom 124 95 5 0 0 0 - - -, f 5;
#X floatatom 158 95 5 0 0 0 - - -, f 5;
#X floatatom 193 95 5 0 0 0 - - -, f 5;
#X obj 124 74 unpack f f f;
#X obj 124 139 pack;
#X obj 124 121 r speed;
#X obj 159 140 pack;
#X obj 160 121 r speed;
#X obj 193 140 pack;
#X obj 194 121 r speed;
#X obj 159 158 line;
#X obj 117 377 line;
#X obj 186 378 line;
#X obj 117 359 pack;
#X obj 117 341 r speed;
#X obj 152 360 pack;
#X obj 153 341 r speed;
#X obj 186 360 pack;
#X obj 187 341 r speed;
#X obj 152 378 line;
#X obj 317 407 rotateXYZ, f 15;
#X floatatom 337 313 5 0 0 0 - - -, f 5;
#X obj 317 629 scopeXYZ~ 2048;
#X floatatom 371 313 5 0 0 0 - - -, f 5;
#X floatatom 406 313 5 0 0 0 - - -, f 5;
#X obj 317 181 translateXYZ, f 16;
#X obj 337 292 unpack f f f;
#X obj 317 10 gemhead;
#X obj 397 602 *~;
#X floatatom 428 566 5 0 0 0 - - -, f 5;
#X obj 384 507 unpack f f f;
#X obj 345 538 osc~ 30;
#X obj 371 566 osc~ 30;
#X msg 384 478 0 0.28 3.25;
#X obj 344 157 line;
#X obj 413 158 line;
#X floatatom 344 95 5 0 0 0 - - -, f 5;
#X floatatom 378 95 5 0 0 0 - - -, f 5;
#X floatatom 413 95 5 0 0 0 - - -, f 5;
#X obj 344 74 unpack f f f;
#X obj 344 139 pack;
#X obj 344 121 r speed;
#X obj 379 140 pack;
#X obj 380 121 r speed;
#X obj 413 140 pack;
#X obj 414 121 r speed;
#X obj 379 158 line;
#X obj 337 377 line;
#X obj 406 378 line;
#X obj 337 359 pack;
#X obj 337 341 r speed;
#X obj 372 360 pack;
#X obj 373 341 r speed;
#X obj 406 360 pack;
#X obj 407 341 r speed;
#X obj 372 378 line;
#X obj 537 407 rotateXYZ, f 15;
#X floatatom 557 313 5 0 0 0 - - -, f 5;
#X obj 537 629 scopeXYZ~ 2048;
#X floatatom 591 313 5 0 0 0 - - -, f 5;
#X floatatom 626 313 5 0 0 0 - - -, f 5;
#X obj 537 181 translateXYZ, f 16;
#X obj 557 292 unpack f f f;
#X obj 537 10 gemhead;
#X obj 617 602 *~;
#X floatatom 648 566 5 0 0 0 - - -, f 5;
#X obj 604 507 unpack f f f;
#X obj 565 538 osc~ 30;
#X obj 591 566 osc~ 30;
#X msg 604 478 0 0.28 3.25;
#X obj 564 157 line;
#X obj 633 158 line;
#X floatatom 564 95 5 0 0 0 - - -, f 5;
#X floatatom 598 95 5 0 0 0 - - -, f 5;
#X floatatom 633 95 5 0 0 0 - - -, f 5;
#X obj 564 74 unpack f f f;
#X obj 564 139 pack;
#X obj 564 121 r speed;
#X obj 599 140 pack;
#X obj 600 121 r speed;
#X obj 633 140 pack;
#X obj 634 121 r speed;
#X obj 599 158 line;
#X obj 557 377 line;
#X obj 626 378 line;
#X obj 557 359 pack;
#X obj 557 341 r speed;
#X obj 592 360 pack;
#X obj 593 341 r speed;
#X obj 626 360 pack;
#X obj 627 341 r speed;
#X obj 592 378 line;
#X obj 344 45 r translator2;
#X obj 337 263 r rotator2;
#X obj 564 45 r translator3;
#X obj 557 263 r rotator3;
#X obj 703 460 loadbang;
#X obj 755 634 s speed;
#X floatatom 755 606 5 0 0 0 - - -, f 5;
#X msg 755 577 0;
#X msg 174 893 -2 2 0;
#X msg 95 834 -30 182 45;
#X connect 6 0 49 0;
#X connect 8 0 11 0;
#X connect 8 0 107 0;
#X connect 8 0 143 0;
#X connect 9 0 11 0;
#X connect 10 0 96 0;
#X connect 12 0 104 0;
#X connect 13 0 97 1;
#X connect 14 0 9 0;
#X connect 15 0 6 0;
#X connect 16 0 10 0;
#X connect 16 1 12 0;
#X connect 16 2 13 0;
#X connect 17 0 14 0;
#X connect 18 0 11 3;
#X connect 19 0 18 1;
#X connect 20 0 21 1;
#X connect 20 1 22 1;
#X connect 20 2 19 0;
#X connect 21 0 11 1;
#X connect 22 0 11 2;
#X connect 23 0 20 0;
#X connect 24 0 44 0;
#X connect 24 1 32 0;
#X connect 24 2 44 0;
#X connect 25 0 31 0;
#X connect 26 0 31 0;
#X connect 27 0 28 0;
#X connect 28 0 26 0;
#X connect 29 0 31 0;
#X connect 30 0 29 0;
#X connect 31 0 24 0;
#X connect 33 0 41 0;
#X connect 34 0 33 0;
#X connect 39 0 18 0;
#X connect 39 0 42 0;
#X connect 39 1 42 0;
#X connect 39 1 113 0;
#X connect 39 2 42 0;
#X connect 39 2 149 0;
#X connect 39 3 43 0;
#X connect 40 0 39 0;
#X connect 41 0 39 0;
#X connect 42 0 38 0;
#X connect 42 0 38 1;
#X connect 43 0 40 0;
#X connect 45 0 46 0;
#X connect 46 0 24 0;
#X connect 47 0 31 0;
#X connect 48 0 45 0;
#X connect 49 0 6 0;
#X connect 49 1 48 0;
#X connect 50 0 52 0;
#X connect 50 1 62 0;
#X connect 52 0 53 0;
#X connect 52 1 54 0;
#X connect 53 0 56 0;
#X connect 53 1 186 0;
#X connect 53 2 57 0;
#X connect 54 0 185 0;
#X connect 54 1 55 0;
#X connect 54 2 68 0;
#X connect 55 0 59 0;
#X connect 56 0 76 0;
#X connect 57 0 78 0;
#X connect 61 0 50 0;
#X connect 62 0 63 0;
#X connect 62 1 64 0;
#X connect 63 0 72 0;
#X connect 63 1 73 0;
#X connect 63 2 74 0;
#X connect 64 0 69 0;
#X connect 64 1 70 0;
#X connect 64 2 71 0;
#X connect 68 0 60 0;
#X connect 69 0 65 0;
#X connect 70 0 66 0;
#X connect 71 0 67 0;
#X connect 72 0 79 0;
#X connect 73 0 80 0;
#X connect 74 0 81 0;
#X connect 75 0 88 0;
#X connect 82 0 16 0;
#X connect 83 0 14 1;
#X connect 84 0 14 3;
#X connect 85 0 89 0;
#X connect 86 0 91 0;
#X connect 87 0 93 0;
#X connect 88 0 85 0;
#X connect 88 1 86 0;
#X connect 88 2 87 0;
#X connect 89 0 83 0;
#X connect 90 0 89 1;
#X connect 91 0 95 0;
#X connect 92 0 91 1;
#X connect 93 0 84 0;
#X connect 94 0 93 1;
#X connect 95 0 14 2;
#X connect 96 0 9 1;
#X connect 97 0 9 3;
#X connect 98 0 96 0;
#X connect 99 0 98 1;
#X connect 100 0 104 0;
#X connect 101 0 100 1;
#X connect 102 0 97 0;
#X connect 103 0 102 1;
#X connect 104 0 9 2;
#X connect 105 0 107 0;
#X connect 106 0 132 0;
#X connect 108 0 140 0;
#X connect 109 0 133 1;
#X connect 110 0 105 0;
#X connect 111 0 106 0;
#X connect 111 1 108 0;
#X connect 111 2 109 0;
#X connect 112 0 110 0;
#X connect 113 0 107 3;
#X connect 114 0 113 1;
#X connect 115 0 116 1;
#X connect 115 1 117 1;
#X connect 115 2 114 0;
#X connect 116 0 107 1;
#X connect 117 0 107 2;
#X connect 118 0 115 0;
#X connect 119 0 110 1;
#X connect 120 0 110 3;
#X connect 121 0 125 0;
#X connect 122 0 127 0;
#X connect 123 0 129 0;
#X connect 124 0 121 0;
#X connect 124 1 122 0;
#X connect 124 2 123 0;
#X connect 125 0 119 0;
#X connect 126 0 125 1;
#X connect 127 0 131 0;
#X connect 128 0 127 1;
#X connect 129 0 120 0;
#X connect 130 0 129 1;
#X connect 131 0 110 2;
#X connect 132 0 105 1;
#X connect 133 0 105 3;
#X connect 134 0 132 0;
#X connect 135 0 134 1;
#X connect 136 0 140 0;
#X connect 137 0 136 1;
#X connect 138 0 133 0;
#X connect 139 0 138 1;
#X connect 140 0 105 2;
#X connect 141 0 143 0;
#X connect 142 0 168 0;
#X connect 144 0 176 0;
#X connect 145 0 169 1;
#X connect 146 0 141 0;
#X connect 147 0 142 0;
#X connect 147 1 144 0;
#X connect 147 2 145 0;
#X connect 148 0 146 0;
#X connect 149 0 143 3;
#X connect 150 0 149 1;
#X connect 151 0 152 1;
#X connect 151 1 153 1;
#X connect 151 2 150 0;
#X connect 152 0 143 1;
#X connect 153 0 143 2;
#X connect 154 0 151 0;
#X connect 155 0 146 1;
#X connect 156 0 146 3;
#X connect 157 0 161 0;
#X connect 158 0 163 0;
#X connect 159 0 165 0;
#X connect 160 0 157 0;
#X connect 160 1 158 0;
#X connect 160 2 159 0;
#X connect 161 0 155 0;
#X connect 162 0 161 1;
#X connect 163 0 167 0;
#X connect 164 0 163 1;
#X connect 165 0 156 0;
#X connect 166 0 165 1;
#X connect 167 0 146 2;
#X connect 168 0 141 1;
#X connect 169 0 141 3;
#X connect 170 0 168 0;
#X connect 171 0 170 1;
#X connect 172 0 176 0;
#X connect 173 0 172 1;
#X connect 174 0 169 0;
#X connect 175 0 174 1;
#X connect 176 0 141 2;
#X connect 177 0 124 0;
#X connect 178 0 111 0;
#X connect 179 0 160 0;
#X connect 180 0 147 0;
#X connect 181 0 23 0;
#X connect 181 0 118 0;
#X connect 181 0 154 0;
#X connect 181 0 184 0;
#X connect 183 0 182 0;
#X connect 184 0 183 0;
#X connect 185 0 58 0;
#X connect 186 0 77 0;
