#N canvas 286 236 727 349 10;
#X obj 61 61 ctlin;
#X floatatom 61 118 5 0 0 0 - - -, f 5;
#X floatatom 93 82 5 0 0 0 - - -, f 5;
#X obj 61 169 s;
#X floatatom 77 99 5 0 0 0 - - -, f 5;
#X msg 77 137 symbol ctl-\$1;
#X obj 223 33 r ctl-41;
#X obj 297 33 r ctl-42;
#X obj 367 33 r ctl-43;
#X obj 437 33 r ctl-44;
#X obj 507 33 r ctl-45;
#X obj 592 33 r ctl-46;
#X obj 216 174 r ctl-58;
#X obj 296 174 r ctl-59;
#X obj 375 174 r ctl-60;
#X obj 454 174 r ctl-61;
#X obj 533 174 r ctl-62;
#X obj 223 79 s playbutton;
#X obj 297 58 s stopbutton;
#X obj 368 79 s rewindbutton;
#X obj 437 58 s fastforwardbutton;
#X obj 507 79 s recordbutton;
#X obj 592 58 s cyclebutton;
#X obj 216 195 s trackbackbutton;
#X obj 296 216 s trackforwardbutton;
#X obj 375 195 s setbutton;
#X obj 454 216 s markerbackbutton;
#X obj 533 195 s markerforwardbutton;
#X connect 0 0 1 0;
#X connect 0 1 4 0;
#X connect 0 2 2 0;
#X connect 1 0 3 0;
#X connect 4 0 5 0;
#X connect 5 0 3 1;
#X connect 6 0 17 0;
#X connect 7 0 18 0;
#X connect 8 0 19 0;
#X connect 9 0 20 0;
#X connect 10 0 21 0;
#X connect 11 0 22 0;
#X connect 12 0 23 0;
#X connect 13 0 24 0;
#X connect 14 0 25 0;
#X connect 15 0 26 0;
#X connect 16 0 27 0;
