#N canvas 279 267 727 349 10;
#X obj 61 91 ctlin;
#X floatatom 61 148 5 0 0 0 - - -, f 5;
#X floatatom 93 112 5 0 0 0 - - -, f 5;
#X obj 61 199 s;
#X floatatom 77 129 5 0 0 0 - - -, f 5;
#X msg 77 167 symbol ctl-\$1;
#X obj 223 33 r ctl-41;
#X obj 297 33 r ctl-42;
#X obj 367 33 r ctl-43;
#X obj 437 33 r ctl-44;
#X obj 507 33 r ctl-45;
#X obj 592 33 r ctl-46;
#X obj 216 124 r ctl-58;
#X obj 296 124 r ctl-59;
#X obj 375 124 r ctl-60;
#X obj 454 124 r ctl-61;
#X obj 533 124 r ctl-62;
#X obj 223 79 s playbutton;
#X obj 297 58 s stopbutton;
#X obj 368 79 s rewindbutton;
#X obj 437 58 s fastforwardbutton;
#X obj 507 79 s recordbutton;
#X obj 592 58 s cyclebutton;
#X obj 216 145 s trackbackbutton;
#X obj 296 166 s trackforwardbutton;
#X obj 375 145 s setbutton;
#X obj 454 166 s markerbackbutton;
#X obj 533 145 s markerforwardbutton;
#X obj 596 291 Controller-Side;
#X obj 15 275 Fader 0 16 32 48 64;
#X obj 15 296 Fader 1 17 33 49 65;
#X obj 154 275 Fader 2 18 34 50 66;
#X obj 154 296 Fader 3 19 35 51 67;
#X obj 293 275 Fader 4 20 36 52 68;
#X obj 293 296 Fader 5 21 37 53 69;
#X obj 432 275 Fader 6 22 38 54 70;
#X obj 432 296 Fader 7 23 39 55 71;
#X obj 13 5 loadbang;
#X obj 13 28 s init-loadbang;
#X connect 0 0 1 0;
#X connect 0 1 4 0;
#X connect 0 2 2 0;
#X connect 1 0 3 0;
#X connect 4 0 5 0;
#X connect 5 0 3 1;
#X connect 6 0 17 0;
#X connect 7 0 18 0;
#X connect 8 0 19 0;
#X connect 9 0 20 0;
#X connect 10 0 21 0;
#X connect 11 0 22 0;
#X connect 12 0 23 0;
#X connect 13 0 24 0;
#X connect 14 0 25 0;
#X connect 15 0 26 0;
#X connect 16 0 27 0;
#X connect 37 0 38 0;
