#N canvas 274 185 1007 476 10;
#X obj 13 50 s playbutton;
#X obj 87 29 s stopbutton;
#X obj 158 50 s rewindbutton;
#X obj 227 29 s fastforwardbutton;
#X obj 297 50 s recordbutton;
#X obj 382 29 s cyclebutton;
#X obj 490 23 s trackbackbutton;
#X obj 570 44 s trackforwardbutton;
#X obj 649 23 s setbutton;
#X obj 728 44 s markerbackbutton;
#X obj 807 23 s markerforwardbutton;
#X obj 311 473 t f f;
#X obj 343 574 s;
#X obj 311 549 s;
#X obj 378 474 + 1;
#X obj 378 436 f;
#X msg 396 359 0;
#X obj 410 436 + 2;
#X msg 378 498 symbol ctl-\$1-bypass;
#X msg 329 523 symbol ctl-\$1-bypass;
#X obj 346 364 until;
#X obj 346 386 t b b;
#X obj 314 332 t b f;
#X text 99 133 Crystals;
#X obj 311 425 random;
#X obj 311 448 +;
#X obj 170 305 unpack f f f f;
#X obj 343 549 *;
#X msg 102 151 3 5 5 5;
#X msg 102 173 1 5 5 5;
#X text 177 285 3/1 \, 0-? \, +? \, *?;
#X text 179 132 Snow;
#X msg 172 173 1 10 10 2.5;
#X msg 172 151 3 10 10 3;
#X msg 266 235 3 3 60 3;
#X text 287 253 Need to make this automatically make \; ugen source
NOISE.;
#X obj 295 126 s source-levels;
#X obj 293 149 s low-pass-all;
#X obj 289 172 s volume-all;
#X text 529 119 Which ugens \; elem level \; exp level \; ugen volume
\; ugen low-pass? \; ugen source(s) \;;
#X msg 790 267 \; ctl-\$1-bypass \$2 \; ctl-\$3-bypass \$4;
#X msg 790 205 0 100 1 50;
#X text 408 229 Solved! But fix source-levels receive box;
#X connect 11 0 13 0;
#X connect 11 1 27 0;
#X connect 14 0 18 0;
#X connect 15 0 17 0;
#X connect 15 0 14 0;
#X connect 15 0 19 0;
#X connect 16 0 15 1;
#X connect 17 0 15 1;
#X connect 18 0 12 1;
#X connect 19 0 13 1;
#X connect 20 0 21 0;
#X connect 21 0 24 0;
#X connect 21 1 15 0;
#X connect 22 0 16 0;
#X connect 22 1 20 0;
#X connect 24 0 25 0;
#X connect 25 0 11 0;
#X connect 26 0 22 0;
#X connect 26 1 24 1;
#X connect 26 2 25 1;
#X connect 26 3 27 1;
#X connect 27 0 12 0;
#X connect 28 0 26 0;
#X connect 29 0 26 0;
#X connect 32 0 26 0;
#X connect 33 0 26 0;
#X connect 34 0 26 0;
#X connect 41 0 40 0;
