#N canvas 57 89 461 622 10;
#X obj 167 390 ftom;
#X floatatom 167 429 5 0 0 0 - - -, f 5;
#X floatatom 167 287 5 0 0 0 - - -, f 5;
#X obj 167 251 bng 15 250 50 0 empty empty empty 17 7 0 10 -262144
-1 -1;
#X obj 167 467 % 12;
#X obj 167 506 hradio 20 1 0 12 empty empty empty 0 -8 0 10 -262144
-1 -1 5;
#X text 167 526 C . C# D Eb E. F .F# .G .G# A .Bb .B;
#X obj 96 46 hradio 20 1 0 12 empty empty empty 0 -8 0 10 -262144 -1
-1 5;
#X obj 96 177 mtof;
#X text 96 66 C . C# D .Eb. .E. F .F# .G .G# A .Bb .B;
#X obj 96 216 expr (44100/$f1);
#X obj 96 138 + 36;
#X text 207 288 # OF ELEMENTS;
#X obj 167 325 expr (44100.0/$f1);
#X connect 0 0 1 0;
#X connect 1 0 4 0;
#X connect 2 0 13 0;
#X connect 3 0 2 0;
#X connect 4 0 5 0;
#X connect 7 0 11 0;
#X connect 8 0 10 0;
#X connect 10 0 2 0;
#X connect 11 0 8 0;
#X connect 13 0 0 0;
