#N canvas 821 245 683 489 10;
#X obj 89 373 s fader-0-bypass;
#X obj 208 373 s fader-3-bypass;
#X obj 113 393 s fader-1-bypass;
#X obj 232 393 s fader-4-bypass;
#X obj 138 413 s fader-2-bypass;
#X obj 257 413 s fader-5-bypass;
#X obj 89 352 unpack f f f f f f;
#X obj 89 10 inlet;
#X obj 89 36 hradio 15 1 0 12 empty empty empty 0 -8 0 10 -262144 -1
-1 2;
#X msg 89 331 0 0 0 0 0 0;
#X obj 89 57 sel 0 1 2 3 4 5 6 7 8 9 10 11;
#X msg 105 310 55 54 53 7 7 7;
#X text 231 312 Whistlers;
#X text 271 290 Conch;
#X msg 122 289 223 222 221 34 33 32;
#X text 300 269 Hum;
#X msg 139 268 268 400 162 100 140 65;
#X msg 155 247 300 400 252 170 230 160;
#X connect 6 0 0 0;
#X connect 6 1 2 0;
#X connect 6 2 4 0;
#X connect 6 3 1 0;
#X connect 6 4 3 0;
#X connect 6 5 5 0;
#X connect 7 0 10 0;
#X connect 8 0 10 0;
#X connect 9 0 6 0;
#X connect 10 0 9 0;
#X connect 10 1 11 0;
#X connect 10 2 14 0;
#X connect 10 3 16 0;
#X connect 10 4 17 0;
#X connect 11 0 6 0;
#X connect 14 0 6 0;
#X connect 16 0 6 0;
#X connect 17 0 6 0;
