#N canvas 511 193 908 491 10;
#X obj 89 373 s fader-0-bypass;
#X obj 208 373 s fader-3-bypass;
#X obj 113 393 s fader-1-bypass;
#X obj 232 393 s fader-4-bypass;
#X obj 138 413 s fader-2-bypass;
#X obj 257 413 s fader-5-bypass;
#X obj 89 352 unpack f f f f f f;
#X obj 89 10 inlet;
#X msg 105 310 400 400 400 3 3 3;
#X obj 89 36 hradio 15 1 0 12 empty empty empty 0 -8 0 10 -262144 -1
-1 11;
#X msg 89 331 0 0 0 0 0 0;
#X msg 122 289 400 400 400 4 4 4;
#X msg 139 268 400 400 400 5 5 5;
#X text 231 312 0 Wind;
#X text 250 290 1 Gale;
#X text 267 270 2 Nest;
#X text 281 248 3 Swarm;
#X text 298 227 4 Vent;
#X msg 155 247 400 400 400 6 6 6;
#X msg 172 226 400 400 400 7 7 7;
#X msg 189 205 16 18 22 7 9 9;
#X text 295 206 5 Hiss;
#X obj 89 57 sel 0 1 2 3 4 5 6 7 8 9 10 11;
#X msg 272 100 150 300 400 90 175 225;
#X msg 255 121 100 200 400 50 120 225;
#X msg 239 142 304 305 306 12 12 12;
#X msg 205 184 304 305 306 1 1 1;
#X msg 222 163 304 305 306 9 9 9;
#X text 331 185 5 Pre-Flute;
#X text 348 164 6 Flute;
#X text 387 143 7 Dissonant Flute;
#X text 417 122 8 Pad;
#X text 434 101 9 Pad 2;
#X connect 6 0 0 0;
#X connect 6 1 2 0;
#X connect 6 2 4 0;
#X connect 6 3 1 0;
#X connect 6 4 3 0;
#X connect 6 5 5 0;
#X connect 7 0 22 0;
#X connect 8 0 6 0;
#X connect 9 0 22 0;
#X connect 10 0 6 0;
#X connect 11 0 6 0;
#X connect 12 0 6 0;
#X connect 18 0 6 0;
#X connect 19 0 6 0;
#X connect 20 0 6 0;
#X connect 22 0 10 0;
#X connect 22 1 8 0;
#X connect 22 2 11 0;
#X connect 22 3 12 0;
#X connect 22 4 18 0;
#X connect 22 5 19 0;
#X connect 22 6 20 0;
#X connect 22 7 26 0;
#X connect 22 8 27 0;
#X connect 22 9 25 0;
#X connect 22 10 24 0;
#X connect 22 11 23 0;
#X connect 23 0 6 0;
#X connect 24 0 6 0;
#X connect 25 0 6 0;
#X connect 26 0 6 0;
#X connect 27 0 6 0;
