#N canvas 683 249 683 489 10;
#X obj 89 373 s fader-0-bypass;
#X obj 208 373 s fader-3-bypass;
#X obj 113 393 s fader-1-bypass;
#X obj 232 393 s fader-4-bypass;
#X obj 138 413 s fader-2-bypass;
#X obj 257 413 s fader-5-bypass;
#X obj 89 352 unpack f f f f f f;
#X obj 89 10 inlet;
#X obj 89 36 hradio 15 1 0 12 empty empty empty 0 -8 0 10 -262144 -1
-1 2;
#X obj 89 57 sel 0 1 2 3 4 5 6 7 8 9 10 11;
#X msg 89 310 55 54 53 7 7 7;
#X msg 105 289 223 222 221 34 33 32;
#X msg 122 268 268 400 162 100 140 65;
#X text 195 311 0 WHISTLER;
#X text 253 290 1 CONCH;
#X text 307 248 3 HUM 2;
#X text 284 269 2 HUM;
#X msg 139 247 300 400 252 120 160 100;
#X connect 6 0 0 0;
#X connect 6 1 2 0;
#X connect 6 2 4 0;
#X connect 6 3 1 0;
#X connect 6 4 3 0;
#X connect 6 5 5 0;
#X connect 7 0 9 0;
#X connect 8 0 9 0;
#X connect 9 0 10 0;
#X connect 9 1 11 0;
#X connect 9 2 12 0;
#X connect 9 3 17 0;
#X connect 10 0 6 0;
#X connect 11 0 6 0;
#X connect 12 0 6 0;
#X connect 17 0 6 0;
