#N canvas 152 89 927 991 10;
#X obj 167 390 ftom;
#X floatatom 167 429 5 0 0 0 - - -, f 5;
#X floatatom 167 287 5 0 0 0 - - -, f 5;
#X obj 167 251 bng 15 250 50 0 empty empty empty 17 7 0 10 -262144
-1 -1;
#X obj 167 467 % 12;
#X obj 167 506 hradio 20 1 0 12 empty empty empty 0 -8 0 10 -262144
-1 -1 1;
#X obj 96 46 hradio 20 1 0 12 empty empty empty 0 -8 0 10 -262144 -1
-1 6;
#X obj 96 177 mtof;
#X text 96 66 C . C# D .Eb. .E. F .F# .G .G# A .Bb .B;
#X obj 96 216 expr (44100/$f1);
#X obj 96 138 + 36;
#X text 207 288 # OF ELEMENTS;
#X obj 167 325 expr (44100.0/$f1);
#X floatatom 247 111 5 0 0 0 - - -, f 5;
#X floatatom 475 147 5 0 0 0 - - -, f 5;
#X obj 475 118 notein;
#X obj 475 204 poly 3;
#X obj 464 408 *~;
#X obj 475 233 pack f f f;
#X obj 475 175 pack;
#X obj 464 321 unpack;
#X obj 464 350 mtof;
#X obj 513 425 line;
#X obj 513 396 pack;
#X obj 513 339 t f b;
#X obj 540 368 f 100;
#X obj 479 443 / 127;
#X obj 475 262 route 1 2 3;
#X obj 594 408 *~;
#X obj 594 321 unpack;
#X obj 594 350 mtof;
#X obj 643 425 line;
#X obj 643 396 pack;
#X obj 643 339 t f b;
#X obj 670 368 f 100;
#X obj 609 443 / 127;
#X obj 724 408 *~;
#X obj 724 321 unpack;
#X obj 724 350 mtof;
#X obj 773 425 line;
#X obj 773 396 pack;
#X obj 773 339 t f b;
#X obj 800 368 f 100;
#X obj 739 443 / 127;
#X floatatom 548 151 5 0 0 0 - - -, f 5;
#X obj 464 379 phasor~;
#X obj 594 379 phasor~;
#X obj 724 379 phasor~;
#X obj 600 510 /~ 3;
#X obj 592 545 dac~;
#X text 167 526 C . C# D .Eb. .E. F .F# .G .G# A .Bb .B;
#X connect 0 0 1 0;
#X connect 1 0 4 0;
#X connect 2 0 12 0;
#X connect 3 0 2 0;
#X connect 4 0 5 0;
#X connect 6 0 10 0;
#X connect 7 0 9 0;
#X connect 9 0 2 0;
#X connect 10 0 7 0;
#X connect 12 0 0 0;
#X connect 13 0 9 0;
#X connect 14 0 19 0;
#X connect 14 0 7 0;
#X connect 15 0 14 0;
#X connect 15 1 19 1;
#X connect 15 1 44 0;
#X connect 16 0 18 0;
#X connect 16 1 18 1;
#X connect 16 2 18 2;
#X connect 17 0 48 0;
#X connect 18 0 27 0;
#X connect 19 0 16 0;
#X connect 20 0 21 0;
#X connect 20 1 24 0;
#X connect 21 0 45 0;
#X connect 22 0 26 0;
#X connect 23 0 22 0;
#X connect 24 0 23 0;
#X connect 24 1 25 0;
#X connect 25 0 23 1;
#X connect 26 0 17 1;
#X connect 27 0 20 0;
#X connect 27 1 29 0;
#X connect 27 2 37 0;
#X connect 28 0 48 0;
#X connect 29 0 30 0;
#X connect 29 1 33 0;
#X connect 30 0 46 0;
#X connect 31 0 35 0;
#X connect 32 0 31 0;
#X connect 33 0 32 0;
#X connect 33 1 34 0;
#X connect 34 0 32 1;
#X connect 35 0 28 1;
#X connect 36 0 48 0;
#X connect 37 0 38 0;
#X connect 37 1 41 0;
#X connect 38 0 47 0;
#X connect 39 0 43 0;
#X connect 40 0 39 0;
#X connect 41 0 40 0;
#X connect 41 1 42 0;
#X connect 42 0 40 1;
#X connect 43 0 36 1;
#X connect 45 0 17 0;
#X connect 46 0 28 0;
#X connect 47 0 36 0;
#X connect 48 0 49 0;
#X connect 48 0 49 1;
