#N canvas 202 145 990 591 10;
#X obj 67 58 hradio 15 1 0 8 empty empty empty 0 -8 0 10 -262144 -1
-1 0;
#X obj 67 428 unpack;
#X obj 67 79 sel 0 1 2 3 4 5;
#X obj 67 469 s fader-0-bypass;
#X obj 106 449 s fader-3-bypass;
#X obj 67 509 s fader-1-bypass;
#X obj 106 489 s fader-4-bypass;
#X obj 67 549 s fader-2-bypass;
#X obj 106 529 s fader-5-bypass;
#X msg 67 403 0 0;
#X text 98 403 ALL OFF;
#X obj 84 370 s fader-0-bypass;
#X obj 131 350 s fader-1-bypass;
#X obj 179 330 s fader-2-bypass;
#X obj 84 309 Three-Rand-Gen;
#X obj 204 309 Three-Rand-Gen;
#X msg 84 288 5 10;
#X msg 204 284 10 20;
#X obj 204 370 s fader-3-bypass;
#X obj 251 350 s fader-4-bypass;
#X obj 299 330 s fader-5-bypass;
#X obj 84 267 t b b;
#X text 128 267 GROWN CRYSTALS;
#X obj 67 31 inlet;
#X connect 0 0 2 0;
#X connect 1 0 3 0;
#X connect 1 0 5 0;
#X connect 1 0 7 0;
#X connect 1 1 4 0;
#X connect 1 1 6 0;
#X connect 1 1 8 0;
#X connect 2 0 9 0;
#X connect 2 1 21 0;
#X connect 9 0 1 0;
#X connect 14 0 11 0;
#X connect 14 1 12 0;
#X connect 14 2 13 0;
#X connect 15 0 18 0;
#X connect 15 1 19 0;
#X connect 15 2 20 0;
#X connect 16 0 14 0;
#X connect 17 0 15 0;
#X connect 21 0 16 0;
#X connect 21 1 17 0;
#X connect 23 0 0 0;
