#N canvas 163 481 926 455 10;
#X obj 358 218 statfeed;
#X obj 358 296 textfile;
#X msg 358 257 add \$1;
#X floatatom 380 164 5 0 0 0 - - -, f 5;
#X obj 358 106 random 1000;
#X obj 358 135 / 999;
#X obj 358 80 bng 15 250 50 0 empty empty empty 17 7 0 10 -262144 -1
-1;
#X floatatom 403 188 5 0 0 0 - - -, f 5;
#X msg 161 173 clear;
#X msg 269 107 0.001;
#X msg 183 120 randomize;
#X obj 518 218 statfeed;
#X floatatom 540 164 5 0 0 0 - - -, f 5;
#X floatatom 563 188 5 0 0 0 - - -, f 5;
#X obj 628 218 statfeed;
#X floatatom 650 164 5 0 0 0 - - -, f 5;
#X floatatom 673 188 5 0 0 0 - - -, f 5;
#X obj 613 272 f;
#X obj 613 314 /;
#X obj 613 95 bng 15 250 50 0 empty empty empty 17 7 0 10 -262144 -1
-1;
#X floatatom 707 315 5 0 0 0 - - -, f 5;
#X floatatom 481 244 5 0 0 0 - - -, f 5;
#X floatatom 704 259 5 0 0 0 - - -, f 5;
#X msg 639 129 randomize;
#X obj 578 244 /;
#X floatatom 252 292 5 0 0 0 - - -, f 5;
#X msg 87 20 write statfeed_random.txt;
#X msg 137 50 write statfeed_single.txt;
#X msg 496 30 write statfeed_feedback.txt;
#X obj 360 30 until;
#X msg 305 9 50;
#X connect 0 0 2 0;
#X connect 0 0 25 0;
#X connect 2 0 1 0;
#X connect 3 0 0 1;
#X connect 4 0 5 0;
#X connect 5 0 0 0;
#X connect 6 0 4 0;
#X connect 7 0 0 2;
#X connect 8 0 1 0;
#X connect 9 0 0 0;
#X connect 10 0 0 0;
#X connect 11 0 21 0;
#X connect 11 0 24 0;
#X connect 12 0 11 1;
#X connect 12 0 24 1;
#X connect 13 0 11 2;
#X connect 14 0 17 1;
#X connect 14 0 22 0;
#X connect 15 0 14 1;
#X connect 15 0 18 1;
#X connect 16 0 14 2;
#X connect 17 0 18 0;
#X connect 17 0 20 0;
#X connect 18 0 11 0;
#X connect 19 0 17 0;
#X connect 21 0 2 0;
#X connect 23 0 14 0;
#X connect 23 0 11 0;
#X connect 24 0 14 0;
#X connect 26 0 1 0;
#X connect 27 0 1 0;
#X connect 28 0 1 0;
#X connect 29 0 19 0;
#X connect 30 0 29 0;
