#N canvas 41 206 871 476 10;
#X obj 109 32 inlet;
#X obj 109 85 sel zero short medium long verylong;
#X floatatom 156 173 5 0 0 0 - - -, f 5;
#X msg 156 152 set \$1;
#X floatatom 205 221 5 0 0 0 - - -, f 5;
#X msg 205 200 set \$1;
#X floatatom 253 273 5 0 0 0 - - -, f 5;
#X msg 253 252 set \$1;
#X floatatom 302 321 5 0 0 0 - - -, f 5;
#X msg 302 300 set \$1;
#X msg 109 131 0;
#X obj 109 335 outlet;
#X obj 156 131 r gliss-length-short;
#X obj 205 179 r gliss-length-medium;
#X obj 253 231 r gliss-length-long;
#X obj 302 278 r gliss-length-verylong;
#X connect 0 0 1 0;
#X connect 1 0 10 0;
#X connect 1 1 2 0;
#X connect 1 2 4 0;
#X connect 1 3 6 0;
#X connect 1 4 8 0;
#X connect 2 0 11 0;
#X connect 3 0 2 0;
#X connect 4 0 11 0;
#X connect 5 0 4 0;
#X connect 6 0 11 0;
#X connect 7 0 6 0;
#X connect 8 0 11 0;
#X connect 9 0 8 0;
#X connect 10 0 11 0;
#X connect 12 0 3 0;
#X connect 13 0 5 0;
#X connect 14 0 7 0;
#X connect 15 0 9 0;
