#N canvas 677 293 559 396 10;
#X obj 184 235 line;
#X obj 158 116 Gate;
#X obj 44 73 r jump-gliss;
#X obj 184 212 pack;
#X obj 184 140 t f b;
#X floatatom 216 189 5 0 0 0 - - -, f 5;
#X msg 242 164 set \$1;
#X obj 242 140 r gliss-length;
#X obj 44 99 + 1;
#X obj 158 259 outlet;
#X obj 183 63 inlet;
#X connect 0 0 9 0;
#X connect 1 0 9 0;
#X connect 1 1 4 0;
#X connect 2 0 8 0;
#X connect 3 0 0 0;
#X connect 4 0 3 0;
#X connect 4 1 5 0;
#X connect 5 0 3 1;
#X connect 6 0 5 0;
#X connect 7 0 6 0;
#X connect 8 0 1 0;
#X connect 10 0 1 1;
