#N canvas 671 301 559 396 10;
#X obj 184 235 line;
#X obj 184 212 pack;
#X obj 184 140 t f b;
#X floatatom 216 189 5 0 0 0 - - -, f 5;
#X msg 242 164 set \$1;
#X obj 184 342 outlet;
#X obj 184 63 inlet;
#X obj 242 63 inlet;
#X obj 184 300 expr pow($f1 \, $f2);
#X obj 307 258 r gliss-exp;
#X connect 0 0 8 0;
#X connect 1 0 0 0;
#X connect 2 0 1 0;
#X connect 2 1 3 0;
#X connect 3 0 1 1;
#X connect 4 0 3 0;
#X connect 6 0 2 0;
#X connect 7 0 4 0;
#X connect 8 0 5 0;
#X connect 9 0 8 1;
