#N canvas 109 132 971 407 10;
#X obj 403 127 tgl 20 0 empty empty empty 17 7 0 10 -262144 -1 -1 1
1;
#X obj 403 151 tgl 20 0 empty empty empty 17 7 0 10 -262144 -1 -1 1
1;
#X text 431 156 STEREO/MONO;
#X obj 403 175 tgl 20 0 empty empty empty 17 7 0 10 -262144 -1 -1 1
1;
#X obj 403 199 tgl 20 0 empty empty empty 17 7 0 10 -262144 -1 -1 0
1;
#X text 431 181 REVERB;
#X text 432 204 RHYTHM;
#X obj 550 147 s absolute-relative;
#X obj 27 12 r init-loadbang;
#X msg 27 110 0;
#X msg 27 134 1;
#X msg 27 182 0;
#X obj 550 171 s stereo-mono;
#X text 431 132 ABS/REL;
#X obj 403 103 bng 20 250 50 0 empty empty empty 17 7 0 10 -262144
-1 -1;
#X text 432 106 DSP ON/OFF;
#X obj 604 123 tgl 15 0 empty empty empty 17 7 0 10 -262144 -1 -1 1
1;
#X msg 87 106 1;
#X msg 703 138 \; pd dsp \$1;
#X obj 550 195 s reverb-bypass;
#X msg 27 158 1;
#X obj 403 30 r absolute-relative-receive;
#X obj 403 11 r dsp-on-off-receive;
#X obj 403 49 r reverb-bypass-receive;
#X obj 403 68 r rhythm-on-off-receive;
#X connect 0 0 7 0;
#X connect 1 0 12 0;
#X connect 3 0 19 0;
#X connect 8 0 9 0;
#X connect 8 0 10 0;
#X connect 8 0 20 0;
#X connect 8 0 11 0;
#X connect 8 0 17 0;
#X connect 9 0 0 0;
#X connect 10 0 1 0;
#X connect 11 0 4 0;
#X connect 14 0 16 0;
#X connect 16 0 18 0;
#X connect 17 0 16 0;
#X connect 20 0 3 0;
#X connect 21 0 0 0;
#X connect 22 0 14 0;
#X connect 23 0 3 0;
#X connect 24 0 4 0;
#X coords 0 -1 1 1 130 140 2 400 100;
