#N canvas 108 89 1211 687 10;
#X obj 62 579 *~;
#X floatatom 126 471 5 0 0 0 - - -, f 5;
#X msg 126 438 set \$1;
#X obj 95 374 t b f;
#X obj 95 406 s addall-\$1;
#X obj 977 454 t b b b b b;
#X obj 977 429 r addall-\$1;
#X floatatom 926 637 5 0 0 0 - - -, f 5;
#X floatatom 926 509 5 0 0 0 - - -, f 5;
#X obj 926 591 spigot;
#X obj 926 529 t f f;
#X obj 926 665 s attenuation-\$1;
#X obj 107 532 *;
#X obj 112 499 r attenuation-\$1;
#X obj 233 579 *~;
#X floatatom 297 471 5 0 0 0 - - -, f 5;
#X msg 297 438 set \$1;
#X obj 266 374 t b f;
#X obj 266 406 s addall-\$1;
#X obj 278 532 *;
#X obj 278 499 r attenuation-\$1;
#X obj 408 579 *~;
#X floatatom 472 471 5 0 0 0 - - -, f 5;
#X msg 472 438 set \$1;
#X obj 441 374 t b f;
#X obj 441 406 s addall-\$1;
#X obj 453 532 *;
#X obj 453 499 r attenuation-\$1;
#X obj 578 579 *~;
#X floatatom 642 471 5 0 0 0 - - -, f 5;
#X msg 642 438 set \$1;
#X obj 611 374 t b f;
#X obj 611 406 s addall-\$1;
#X obj 623 532 *;
#X obj 623 499 r attenuation-\$1;
#X obj 753 579 *~;
#X floatatom 817 471 5 0 0 0 - - -, f 5;
#X msg 817 438 set \$1;
#X obj 786 374 t b f;
#X obj 786 406 s addall-\$1;
#X obj 798 532 *;
#X obj 798 499 r attenuation-\$1;
#X obj 579 324 sig~;
#X floatatom 579 300 5 0 0 0 - - -, f 5;
#X obj 754 283 noise~;
#X obj 926 485 expr $f1 + $f2 + $f3 + $f4 + $f5;
#X obj 63 283 r~ ugen0;
#X obj 234 283 r~ ugen1;
#X obj 409 283 r~ ugen2;
#X obj 501 225 vsl 50 35 0 1 0 0 empty empty empty 0 -9 0 10 -262144
-1 -1 0 1;
#X obj 551 225 vsl 50 35 0 1 0 0 empty empty empty 0 -9 0 10 -262144
-1 -1 0 1;
#X obj 601 225 vsl 50 35 0 1 0 0 empty empty empty 0 -9 0 10 -262144
-1 -1 0 1;
#X obj 651 225 vsl 50 35 0 1 0 0 empty empty empty 0 -9 0 10 -262144
-1 -1 0 1;
#X obj 701 225 vsl 50 35 0 1 0 0 empty empty empty 0 -9 0 10 -262144
-1 -1 0 1;
#X obj 501 43 unpack 0 1 2 3 4;
#X obj 1009 574 t b f;
#X obj 926 614 expr 1/$f1;
#X obj 959 551 > 0.99;
#X obj 1069 546 < 0.99;
#X obj 1030 620 spigot;
#X obj 516 168 tgl 20 0 empty empty empty 17 7 0 10 -1 -258113 -1 0
1;
#X obj 566 168 tgl 20 0 empty empty empty 17 7 0 10 -1 -258113 -1 0
1;
#X obj 616 168 tgl 20 0 empty empty empty 17 7 0 10 -1 -258113 -1 0
1;
#X obj 666 168 tgl 20 0 empty empty empty 17 7 0 10 -1 -258113 -1 0
1;
#X obj 716 168 tgl 20 0 empty empty empty 17 7 0 10 -1 -258113 -1 0
1;
#X obj 511 141 > 0;
#X obj 561 141 > 0;
#X obj 611 141 > 0;
#X obj 661 141 > 0;
#X obj 711 141 > 0;
#X obj 63 617 throw~ tougen\$3;
#X obj 234 617 throw~ tougen\$3;
#X obj 409 617 throw~ tougen\$3;
#X obj 579 617 throw~ tougen\$3;
#X obj 755 617 throw~ tougen\$3;
#X obj 1056 593 s ugen-\$1-dsp;
#X obj 1056 523 > 0;
#X text 923 386 Below: simply makes sure that the total volume \; of
the combined signals doesn't exceed 1 \;;
#X obj 501 15 r source-levels-\$1;
#X obj 501 68 Glisser;
#X obj 529 90 Glisser;
#X obj 555 111 Glisser;
#X obj 582 68 Glisser;
#X obj 610 90 Glisser;
#X obj 855 51 r gliss-length-sources;
#X connect 0 0 70 0;
#X connect 1 0 12 1;
#X connect 1 0 45 0;
#X connect 2 0 1 0;
#X connect 3 0 4 0;
#X connect 3 1 2 0;
#X connect 5 0 1 0;
#X connect 5 1 15 0;
#X connect 5 2 22 0;
#X connect 5 3 29 0;
#X connect 5 4 36 0;
#X connect 6 0 5 0;
#X connect 7 0 11 0;
#X connect 8 0 10 0;
#X connect 8 0 76 0;
#X connect 9 0 56 0;
#X connect 10 0 9 0;
#X connect 10 0 59 0;
#X connect 10 1 57 0;
#X connect 10 1 58 1;
#X connect 12 0 0 1;
#X connect 13 0 12 0;
#X connect 14 0 71 0;
#X connect 15 0 19 1;
#X connect 15 0 45 1;
#X connect 16 0 15 0;
#X connect 17 0 18 0;
#X connect 17 1 16 0;
#X connect 19 0 14 1;
#X connect 20 0 19 0;
#X connect 21 0 72 0;
#X connect 22 0 26 1;
#X connect 22 0 45 2;
#X connect 23 0 22 0;
#X connect 24 0 25 0;
#X connect 24 1 23 0;
#X connect 26 0 21 1;
#X connect 27 0 26 0;
#X connect 28 0 73 0;
#X connect 29 0 33 1;
#X connect 29 0 45 3;
#X connect 30 0 29 0;
#X connect 31 0 32 0;
#X connect 31 1 30 0;
#X connect 33 0 28 1;
#X connect 34 0 33 0;
#X connect 35 0 74 0;
#X connect 36 0 40 1;
#X connect 36 0 45 4;
#X connect 37 0 36 0;
#X connect 38 0 39 0;
#X connect 38 1 37 0;
#X connect 40 0 35 1;
#X connect 41 0 40 0;
#X connect 42 0 28 0;
#X connect 43 0 42 0;
#X connect 44 0 35 0;
#X connect 45 0 8 0;
#X connect 46 0 0 0;
#X connect 47 0 14 0;
#X connect 48 0 21 0;
#X connect 49 0 3 0;
#X connect 50 0 17 0;
#X connect 51 0 24 0;
#X connect 52 0 31 0;
#X connect 53 0 38 0;
#X connect 54 0 79 0;
#X connect 54 1 80 0;
#X connect 54 2 81 0;
#X connect 54 3 82 0;
#X connect 54 4 83 0;
#X connect 55 0 7 0;
#X connect 55 1 9 1;
#X connect 56 0 7 0;
#X connect 57 0 55 0;
#X connect 58 0 59 1;
#X connect 59 0 7 0;
#X connect 65 0 60 0;
#X connect 66 0 61 0;
#X connect 67 0 62 0;
#X connect 68 0 63 0;
#X connect 69 0 64 0;
#X connect 76 0 75 0;
#X connect 78 0 54 0;
#X connect 79 0 65 0;
#X connect 79 0 49 0;
#X connect 80 0 66 0;
#X connect 80 0 50 0;
#X connect 81 0 67 0;
#X connect 81 0 51 0;
#X connect 82 0 68 0;
#X connect 82 0 52 0;
#X connect 83 0 69 0;
#X connect 83 0 53 0;
#X connect 84 0 79 1;
#X connect 84 0 82 1;
#X connect 84 0 83 1;
#X connect 84 0 80 1;
#X connect 84 0 81 1;
#X coords 0 -1 1 1 252 42 2 500 222;
