#N canvas 164 130 1511 749 10;
#X obj 62 361 statfeed;
#X floatatom 84 307 5 0 0 0 - - -, f 5;
#X obj 62 206 random 1000;
#X obj 62 235 / 999;
#X obj 82 180 bng 15 250 50 0 empty empty empty 17 7 0 10 -262144 -1
-1;
#X floatatom 107 331 5 0 0 0 - - -, f 5;
#X msg 62 123 randomize;
#X obj 1077 355 statfeed;
#X floatatom 1099 301 5 0 0 0 - - -, f 5;
#X floatatom 1122 325 5 0 0 0 - - -, f 5;
#X obj 1217 343 statfeed;
#X floatatom 1239 287 5 0 0 0 - - -, f 5;
#X floatatom 1262 315 5 0 0 0 - - -, f 5;
#X obj 1172 389 f;
#X obj 1172 476 /;
#X obj 1172 180 bng 15 250 50 0 empty empty empty 17 7 0 10 -262144
-1 -1;
#X floatatom 1172 428 5 0 0 0 - - -, f 5;
#X floatatom 917 373 5 0 0 0 - - -, f 5;
#X floatatom 1217 372 5 0 0 0 - - -, f 5;
#X msg 1217 123 randomize;
#X obj 1077 476 /;
#X obj 1369 162 until;
#X obj 916 96 s exps;
#X obj 793 96 s elems;
#X obj 1218 458 r elems;
#X obj 1099 200 r elems;
#X obj 1122 229 r exps;
#X obj 1239 200 r elems;
#X obj 1262 229 r exps;
#X msg 917 511 7 4 0 1 2 6 5 3 7 4 0 1 2 6 5 3 7 4 0 1 2 6 5 3 7 4
0 1 2 6 5 3;
#X msg 973 482 set;
#X msg 917 482 add2 \$1;
#X obj 1343 30 bng 30 250 50 0 empty empty empty 17 7 0 10 -262144
-1 -1;
#X obj 1369 105 t b b b;
#X obj 492 351 statfeed;
#X floatatom 514 297 5 0 0 0 - - -, f 5;
#X floatatom 537 321 5 0 0 0 - - -, f 5;
#X msg 492 123 randomize;
#X msg 492 211 0.001;
#X obj 502 180 bng 15 250 50 0 empty empty empty 17 7 0 10 -262144
-1 -1;
#X text 529 210 epsilon;
#X obj 514 240 r elems;
#X obj 537 269 r exps;
#X obj 84 261 r elems;
#X obj 107 286 r exps;
#X obj 1388 432 t a;
#X obj 1011 450 t b b;
#X obj 1039 641 textfile;
#X msg 1039 592 clear;
#X msg 492 511 0 2 4 1 3 5 6 0 7 1 2 3 0 4 1 2 3 5 0 4 2 1 6 3 5 0
7 1 2 3 0 4;
#X msg 548 482 set;
#X msg 492 482 add2 \$1;
#X obj 586 450 t b b;
#X obj 614 641 textfile;
#X msg 614 592 clear;
#X msg 62 511 8 1 3 7 5 6 2 4 1 3 8 5 7 6 2 1 4 3 8 7 5 6 2 8 1 4 3
7 5 1 6 2;
#X msg 118 482 set;
#X msg 62 482 add2 \$1;
#X obj 156 450 t b b;
#X obj 183 641 textfile;
#X msg 183 592 clear;
#X floatatom 62 395 5 0 0 0 - - -, f 5;
#X obj 1034 96 s iterations;
#X obj 1342 81 t b b;
#X obj 1342 594 t b b b;
#X obj 246 612 f;
#X obj 279 612 r iterations;
#X obj 677 612 f;
#X obj 710 612 r iterations;
#X obj 1102 612 f;
#X obj 1135 612 r iterations;
#X obj 1131 13 loadbang;
#X obj 916 60 nbx 5 25 -1e+37 1e+37 0 0 empty empty empty 0 -8 0 20
-262144 -1 -1 7 256;
#X obj 793 60 nbx 5 25 -1e+37 1e+37 0 0 empty empty empty 0 -8 0 20
-262144 -1 -1 8 256;
#X msg 246 641 write /home/joshua/Desktop/statfeed_random_sequence_\$1.txt
;
#X obj 1095 16 bng 15 250 50 0 empty empty empty 17 7 0 10 -262144
-1 -1;
#X msg 677 641 write /home/joshua/Desktop/statfeed_single_sequence_\$1.txt
;
#X msg 1102 641 write /home/joshua/Desktop/statfeed_feedback_sequence_\$1.txt
;
#X msg 793 31 22;
#X msg 916 31 11;
#X obj 1036 60 nbx 5 25 -1e+37 1e+37 0 0 empty empty empty 0 -8 0 20
-262144 -1 -1 32 256;
#X obj 1369 133 f;
#X obj 1384 81 r iterations;
#X obj 1036 31 * 4;
#X obj 1342 514 bng 30 250 50 0 empty empty empty 17 7 0 10 -262144
-1 -1;
#X obj 78 442 + 1;
#X connect 0 0 61 0;
#X connect 1 0 0 1;
#X connect 2 0 3 0;
#X connect 3 0 0 0;
#X connect 4 0 2 0;
#X connect 5 0 0 2;
#X connect 6 0 0 0;
#X connect 7 0 17 0;
#X connect 7 0 20 0;
#X connect 8 0 7 1;
#X connect 9 0 7 2;
#X connect 10 0 18 0;
#X connect 11 0 10 1;
#X connect 12 0 10 2;
#X connect 13 0 16 0;
#X connect 14 0 7 0;
#X connect 15 0 13 0;
#X connect 16 0 14 0;
#X connect 17 0 31 0;
#X connect 18 0 13 1;
#X connect 19 0 10 0;
#X connect 19 0 7 0;
#X connect 20 0 10 0;
#X connect 21 0 15 0;
#X connect 21 0 39 0;
#X connect 21 0 4 0;
#X connect 24 0 14 1;
#X connect 24 0 20 1;
#X connect 25 0 8 0;
#X connect 26 0 9 0;
#X connect 27 0 11 0;
#X connect 28 0 12 0;
#X connect 30 0 29 0;
#X connect 31 0 29 0;
#X connect 31 0 47 0;
#X connect 32 0 63 0;
#X connect 33 0 81 0;
#X connect 33 1 45 0;
#X connect 33 2 19 0;
#X connect 33 2 37 0;
#X connect 33 2 6 0;
#X connect 34 0 51 0;
#X connect 35 0 34 1;
#X connect 36 0 34 2;
#X connect 37 0 34 0;
#X connect 38 0 34 0;
#X connect 39 0 38 0;
#X connect 41 0 35 0;
#X connect 42 0 36 0;
#X connect 43 0 1 0;
#X connect 44 0 5 0;
#X connect 45 0 46 0;
#X connect 45 0 52 0;
#X connect 45 0 58 0;
#X connect 46 0 30 0;
#X connect 46 1 48 0;
#X connect 48 0 47 0;
#X connect 50 0 49 0;
#X connect 51 0 49 0;
#X connect 51 0 53 0;
#X connect 52 0 50 0;
#X connect 52 1 54 0;
#X connect 54 0 53 0;
#X connect 56 0 55 0;
#X connect 57 0 55 0;
#X connect 57 0 59 0;
#X connect 58 0 56 0;
#X connect 58 1 60 0;
#X connect 60 0 59 0;
#X connect 61 0 85 0;
#X connect 63 1 33 0;
#X connect 64 0 65 0;
#X connect 64 1 67 0;
#X connect 64 2 69 0;
#X connect 65 0 74 0;
#X connect 66 0 65 1;
#X connect 67 0 76 0;
#X connect 68 0 67 1;
#X connect 69 0 77 0;
#X connect 70 0 69 1;
#X connect 71 0 75 0;
#X connect 72 0 22 0;
#X connect 73 0 23 0;
#X connect 73 0 83 0;
#X connect 74 0 59 0;
#X connect 75 0 79 0;
#X connect 75 0 78 0;
#X connect 76 0 53 0;
#X connect 77 0 47 0;
#X connect 78 0 73 0;
#X connect 79 0 72 0;
#X connect 80 0 62 0;
#X connect 81 0 21 0;
#X connect 82 0 81 1;
#X connect 83 0 80 0;
#X connect 84 0 64 0;
#X connect 85 0 57 0;
