#N canvas 146 104 1220 651 10;
#X obj 480 618 s walker-fader-onoff-1;
#X obj 549 555 s walker-fader-onoff-4;
#X obj 458 639 s walker-fader-onoff-0;
#X obj 526 576 s walker-fader-onoff-3;
#X obj 503 597 s walker-fader-onoff-2;
#X obj 572 534 s walker-fader-onoff-5;
#X obj 33 53 vradio 13 1 0 7 empty empty empty 0 -8 0 10 -262144 -1
-1 0;
#X obj 35 194 nbx 5 20 -1e+37 1e+37 0 0 empty empty empty 0 -8 0 15
-262144 -1 -1 1250 256;
#X text 114 200 RATE;
#X obj 35 219 nbx 5 20 -1e+37 1e+37 0 0 empty empty empty 0 -8 0 15
-262144 -1 -1 30 256;
#X text 114 225 LEAP;
#X obj 275 352 s walker-rate;
#X obj 166 239 s walker-leap;
#X text 41 31 WALKER PRESETS;
#X obj 220 -3 r init-loadbang;
#X msg 220 202 30;
#X msg 460 64 0;
#X obj 614 81 f;
#X obj 650 81 + 1;
#X obj 614 109 % 10;
#X msg 460 126 set \$1;
#X obj 460 87 t f b;
#X msg 526 91 1;
#X obj 460 42 r walker-preset-zero;
#X obj 614 42 r walker-preset-increment;
#X floatatom 460 150 5 0 0 0 - - -, f 5;
#X msg 650 14 1;
#X obj -135 177 r walker-rate-receive;
#X obj -135 202 r walker-leap-receive;
#X obj 458 456 unpack f f f f f f f;
#X text 47 52 0 ALL OFF \; 1 ALL WALK \; 2 ELEM \, SLOW \; 3 EXP SLOW
\; 4 0&2 EXP SLOW \; 5 1 ELEM SLOW \; 6 1 EXP SLOW \;;
#X msg 458 433 0 0 0 0 0 0 0;
#X msg 474 412 1 1 1 1 1 1 7;
#X msg 491 391 1 1 1 0 0 0 7;
#X msg 540 328 0 1 0 0 0 0 7;
#X msg 557 307 0 0 0 0 1 0 7;
#X obj 458 211 sel 0 1 2 3 4 5 6;
#X msg 220 177 1250;
#X obj 595 512 s to_gliss_presets;
#X msg 524 349 0 0 0 1 0 1 7;
#X obj 33 3 r walker-preset-bypass;
#X obj 678 133 r walker-preset-confirm;
#X msg 507 370 0 0 0 1 1 1 2;
#X obj 307 324 s gliss-length-receive;
#X obj 275 214 t f f;
#X connect 6 0 36 0;
#X connect 7 0 44 0;
#X connect 9 0 12 0;
#X connect 14 0 37 0;
#X connect 14 0 15 0;
#X connect 14 0 26 0;
#X connect 15 0 9 0;
#X connect 16 0 21 0;
#X connect 16 0 6 0;
#X connect 17 0 18 0;
#X connect 17 0 19 0;
#X connect 18 0 17 1;
#X connect 19 0 20 0;
#X connect 20 0 6 0;
#X connect 20 0 25 0;
#X connect 21 0 20 0;
#X connect 21 1 22 0;
#X connect 22 0 17 1;
#X connect 23 0 16 0;
#X connect 24 0 17 0;
#X connect 25 0 6 0;
#X connect 26 0 18 0;
#X connect 27 0 7 0;
#X connect 28 0 9 0;
#X connect 29 0 2 0;
#X connect 29 1 0 0;
#X connect 29 2 4 0;
#X connect 29 3 3 0;
#X connect 29 4 1 0;
#X connect 29 5 5 0;
#X connect 29 6 38 0;
#X connect 31 0 29 0;
#X connect 32 0 29 0;
#X connect 33 0 29 0;
#X connect 34 0 29 0;
#X connect 35 0 29 0;
#X connect 36 0 31 0;
#X connect 36 1 32 0;
#X connect 36 2 33 0;
#X connect 36 3 42 0;
#X connect 36 4 39 0;
#X connect 36 5 34 0;
#X connect 36 6 35 0;
#X connect 37 0 7 0;
#X connect 39 0 29 0;
#X connect 40 0 6 0;
#X connect 41 0 25 0;
#X connect 42 0 29 0;
#X connect 44 0 11 0;
#X connect 44 1 43 0;
#X coords 0 -1 1 1 130 260 2 30 30;
