#N canvas 502 101 636 550 10;
#X obj 291 455 s gliss-length-exps;
#X obj 251 493 s gliss-length-elems;
#X obj 332 418 s gliss-length-sources;
#X obj 480 485 s gliss-length-vols;
#X floatatom 291 436 5 0 0 0 - - -, f 5;
#X floatatom 251 475 5 0 0 0 - - -, f 5;
#X floatatom 332 401 5 0 0 0 - - -, f 5;
#X text 45 23 GLISS PRESETS:;
#X obj 39 40 vradio 13 1 0 9 empty empty empty 0 -8 0 10 -262144 -1
-1 0;
#X obj 251 367 unpack f f f;
#X obj 251 157 sel 0 1 2 3 4 5 6 7;
#X msg 251 336 0 0 0;
#X msg 267 315 350 350 350;
#X msg 283 294 750 750 750;
#X msg 299 273 4000 4000 4000;
#X msg 316 252 0 0 4000;
#X msg 332 231 0 4000 4000;
#X msg 348 210 4000 4000 0;
#X text 277 67 A way to set "short" and \; "long" times in main screen
\; and have them translate here \; instead of pre-set times?;
#X msg 364 189 0 4000 0;
#X obj 258 23 r to-gliss-presets;
#X text 53 39 0 ALL ZERO \; 1 ALL SHORT \; 2 ALL MEDIUM \; 3 ALL HIGH
\; 4 SOURCE HIGH \; 5 SOURCE/EXP HIGH \; 6 ELEM/EXP HIGH \; 7 EXP HIGH
\; 8 EL SH \, EX/S LONG;
#X obj 478 157 sel 8 9 10;
#X msg 478 331 350 4000 4000;
#X obj 26 283 sel long short;
#X obj 44 357 bng 15 250 50 0 empty empty empty 17 7 0 10 -262144 -1
-1;
#X obj 109 349 bng 15 250 50 0 empty empty empty 17 7 0 10 -262144
-1 -1;
#X msg 77 216 symbol short;
#X obj 67 425 unpack s s;
#X msg 70 389 hello bye;
#X obj 67 536 bng 15 250 50 0 empty empty empty 17 7 0 10 -262144 -1
-1;
#X obj 70 498 sel hello bye;
#X obj 135 535 bng 15 250 50 0 empty empty empty 17 7 0 10 -262144
-1 -1;
#X obj 115 462 sel bye;
#X obj 186 525 bng 15 250 50 0 empty empty empty 17 7 0 10 -262144
-1 -1;
#X connect 4 0 0 0;
#X connect 5 0 1 0;
#X connect 6 0 2 0;
#X connect 8 0 10 0;
#X connect 8 0 22 0;
#X connect 9 0 5 0;
#X connect 9 1 4 0;
#X connect 9 2 6 0;
#X connect 10 0 11 0;
#X connect 10 1 12 0;
#X connect 10 2 13 0;
#X connect 10 3 14 0;
#X connect 10 4 15 0;
#X connect 10 5 16 0;
#X connect 10 6 17 0;
#X connect 10 7 19 0;
#X connect 11 0 9 0;
#X connect 12 0 9 0;
#X connect 13 0 9 0;
#X connect 14 0 9 0;
#X connect 15 0 9 0;
#X connect 16 0 9 0;
#X connect 19 0 9 0;
#X connect 20 0 8 0;
#X connect 22 0 23 0;
#X connect 23 0 9 0;
#X connect 24 0 25 0;
#X connect 24 1 26 0;
#X connect 27 0 24 0;
#X connect 28 0 31 0;
#X connect 28 1 33 0;
#X connect 29 0 28 0;
#X connect 31 0 30 0;
#X connect 33 0 32 0;
#X connect 33 1 34 0;
#X coords 0 -1 1 1 150 140 2 35 23;
