#N canvas 182 109 1061 636 10;
#X obj 530 576 s gliss-length-exps;
#X obj 499 614 s gliss-length-elems;
#X obj 562 537 s gliss-length-sources;
#X floatatom 530 557 5 0 0 0 - - -, f 5;
#X floatatom 499 596 5 0 0 0 - - -, f 5;
#X floatatom 562 520 5 0 0 0 - - -, f 5;
#X text 143 23 GLISS PRESETS:;
#X obj 137 40 vradio 13 1 0 10 empty empty empty 0 -8 0 10 -262144
-1 -1 8;
#X obj 499 166 sel 0 1 2 3 4 5 6 7;
#X obj 726 166 sel 8 9 10;
#X obj 499 454 Gliss-Length-Converter;
#X obj 530 433 Gliss-Length-Converter;
#X obj 562 412 Gliss-Length-Converter;
#X obj 137 184 nbx 1 20 -1e+37 1e+37 0 0 empty empty empty 0 -8 0 16
-262144 -1 -1 1 256;
#X text 167 188 GLISS EXP;
#X msg 81 167 1;
#X obj 137 256 nbx 4 20 -1e+37 1e+37 0 0 empty empty empty 0 -8 0 16
-262144 -1 -1 850 256;
#X text 209 261 LONG;
#X msg 81 191 100;
#X obj 137 280 nbx 4 20 -1e+37 1e+37 0 0 empty empty empty 0 -8 0 16
-262144 -1 -1 2100 256;
#X text 209 285 V. LONG;
#X msg 81 263 2100;
#X obj 81 2 r init-loadbang;
#X obj 293 252 s gliss-length-medium;
#X obj 293 276 s gliss-length-long;
#X obj 293 300 s gliss-length-verylong;
#X obj 499 367 unpack s s s s;
#X floatatom 594 480 5 0 0 0 - - -, f 5;
#X obj 594 497 s gliss-length-vols;
#X msg 612 189 zero long zero zero;
#X msg 564 252 zero zero long zero;
#X msg 547 273 long long long zero;
#X msg 531 294 medium medium medium zero;
#X msg 515 315 short short short zero;
#X msg 499 336 zero zero zero zero;
#X msg 726 350 short verylong verylong zero;
#X obj 594 391 Gliss-Length-Converter;
#X msg 748 329 verylong verylong verylong verylong;
#X text 151 40 0 E/EX/S/V = 0 \; 1 ALL SHORT \; 2 ALL MEDIUM \; 3 ALL
LONG \; 4 0/0/VL/0 \; 5 0/L/L/0 \; 6 L/L/0/0 \; 7 0/L/0/0 \; 8 0/VL/VL/0
\; 9 ALL VERY LONG;
#X obj 137 208 nbx 4 20 -1e+37 1e+37 0 0 empty empty empty 0 -8 0 16
-262144 -1 -1 100 256;
#X text 209 213 SHORT;
#X obj 137 232 nbx 4 20 -1e+37 1e+37 0 0 empty empty empty 0 -8 0 16
-262144 -1 -1 300 256;
#X text 209 237 MEDIUM;
#X msg 81 215 300;
#X msg 81 239 850;
#X obj 293 228 s gliss-length-short;
#X obj 326 204 s gliss-exp;
#X msg 596 210 long long zero zero;
#X msg 580 231 zero long long zero;
#X obj 815 222 bng 15 250 50 0 empty empty empty 17 7 0 10 -262144
-1 -1;
#X obj 356 23 r to_gliss_presets;
#X connect 3 0 0 0;
#X connect 4 0 1 0;
#X connect 5 0 2 0;
#X connect 7 0 8 0;
#X connect 7 0 9 0;
#X connect 8 0 34 0;
#X connect 8 1 33 0;
#X connect 8 2 32 0;
#X connect 8 3 31 0;
#X connect 8 4 30 0;
#X connect 8 5 48 0;
#X connect 8 6 47 0;
#X connect 8 7 29 0;
#X connect 9 0 35 0;
#X connect 9 1 37 0;
#X connect 9 1 49 0;
#X connect 10 0 4 0;
#X connect 11 0 3 0;
#X connect 12 0 5 0;
#X connect 13 0 46 0;
#X connect 15 0 13 0;
#X connect 16 0 24 0;
#X connect 18 0 39 0;
#X connect 19 0 25 0;
#X connect 21 0 19 0;
#X connect 22 0 15 0;
#X connect 22 0 18 0;
#X connect 22 0 21 0;
#X connect 22 0 43 0;
#X connect 22 0 44 0;
#X connect 26 0 10 0;
#X connect 26 1 11 0;
#X connect 26 2 12 0;
#X connect 26 3 36 0;
#X connect 27 0 28 0;
#X connect 29 0 26 0;
#X connect 30 0 26 0;
#X connect 31 0 26 0;
#X connect 32 0 26 0;
#X connect 33 0 26 0;
#X connect 34 0 26 0;
#X connect 35 0 26 0;
#X connect 36 0 27 0;
#X connect 37 0 26 0;
#X connect 39 0 45 0;
#X connect 41 0 23 0;
#X connect 43 0 41 0;
#X connect 44 0 16 0;
#X connect 48 0 26 0;
#X connect 50 0 7 0;
#X coords 0 -1 1 1 130 280 2 135 23;
