#N canvas 605 215 951 423 10;
#X obj 250 4 hradio 15 1 0 20 empty empty empty 0 -8 0 10 -262144 -1
-1 0;
#X text 989 357 2 ALL SIG \; 3 ALL SELF;
#X text 989 418 6 ONE SELF \; 7 PAIR;
#X text 989 448 8 PAIR & NOISE \; 9 PAIR & SIG \;;
#X text 989 478 10 PAIR & SELF \; 11 DAISY CHAIN;
#X text 989 388 4 ONE NOISE \; 5 ONE SIG;
#X text 989 328 0 ALL OFF \; 1 ALL NOISE;
#X text 989 509 12 DC & NOISE \; 13 DC & SIG;
#X text 989 538 14 DC & SELF \; 15 DC & HALF S;
#X text 989 567 16 ORGY;
#X obj 308 645 r to_sourcerer;
#X obj 308 687 Sourcerer;
#X msg 250 551 0 0 0 0 0 0 0 0 0 0 0;
#X msg 48 568 \; to_sourcerer \$1 \; fader-0-bypass \$2 \; fader-1-bypass
\$3 \; fader-2-bypass \$4 \; fader-3-bypass \$5 \; fader-4-bypass \$6
\; fader-5-bypass \$7 \; ugen0-external-vol \$8 \; ugen1-external-vol
\$9 \; ugen2-external-vol \$10 \; stereo-mono \$11;
#X msg 434 281;
#X msg 452 260;
#X msg 470 239;
#X msg 489 218;
#X msg 507 197;
#X msg 526 176;
#X msg 544 155;
#X msg 562 134;
#X msg 581 113;
#X msg 599 92;
#X obj 250 41 sel 0 1 2 3 4 5 6 7 8 9 10 11 12 13 14 15 16 17 18 19
;
#X text 405 552 0 - ALL OFF;
#X msg 268 530 1 6 7 5 0 0 0 1 1 1 1;
#X msg 286 509 1 6 7 5 26 33 22 1 1 1 1;
#X text 467 510 2 - CRYSTALS;
#X msg 305 488 1 31 24 18 185 150 115 1 1 1 1;
#X text 424 531 1 - SNOW;
#X text 523 489 3 - HALOS;
#X text 707 155 Add separate controls to \; gliss objects for \; sources
\, elems \, and exps. \; congrol them from the big \; message box here.
;
#X msg 323 467 1 360 721 478 999 999 999 1 1 1 1;
#X text 561 467 4 - REEDS;
#X text 582 447 5 - MONICA;
#X msg 342 446 1 159 133 201 355 387 402 1 1 1 1;
#X msg 360 425 1 20 12 13 16 10 10 1 1 1 1;
#X text 559 426 6 - SLEET;
#X text 365 408 SOURCE: NOISE;
#X text 576 345 7 - WIND;
#X msg 378 344 2 400 400 400 3 3 3 1 1 1 1;
#X msg 397 323 1 16 18 22 7 9 9 1 1 1 1;
#X text 574 324 8 - SERPENTINE;
#X msg 415 302;
#X text 493 301 NEXT BUILD THE FLUTES!;
#X text 598 241 SOURCE: SIG;
#X connect 0 0 24 0;
#X connect 10 0 11 0;
#X connect 12 0 13 0;
#X connect 24 0 12 0;
#X connect 24 1 26 0;
#X connect 24 2 27 0;
#X connect 24 3 29 0;
#X connect 24 4 33 0;
#X connect 24 5 36 0;
#X connect 24 6 37 0;
#X connect 24 7 41 0;
#X connect 24 8 42 0;
#X connect 24 9 44 0;
#X connect 24 10 14 0;
#X connect 24 11 15 0;
#X connect 24 12 16 0;
#X connect 24 13 17 0;
#X connect 24 14 18 0;
#X connect 24 15 19 0;
#X connect 24 16 20 0;
#X connect 24 17 21 0;
#X connect 24 18 22 0;
#X connect 24 19 23 0;
#X connect 26 0 13 0;
#X connect 27 0 13 0;
#X connect 29 0 13 0;
#X connect 33 0 13 0;
#X connect 36 0 13 0;
#X connect 37 0 13 0;
#X connect 41 0 13 0;
#X connect 42 0 13 0;
#X coords 0 -1 1 1 325 18 1 250 3;
