#N canvas 84 173 1227 465 10;
#X obj 122 307 inlet;
#X text 34 370 0 ALL OFF \; 1 ALL NOISE \; 2 ALL SIG \; 3 ALL SELF
\;;
#X text 134 378 4 ONE NOISE \; 5 ONE SIG \; 6 ONE SELF;
#X text 235 373 7 PAIR \; 8 PAIR & NOISE \; 9 PAIR & SIG \; 10 PAIR
& SELF;
#X text 357 363 11 DAISY CHAIN \; 12 DAISY CHAIN & NOISE \; 13 DAISY
CHAIN & SIG \; 14 DAISY CHAIN & SELF \; 15 DAISY CHAIN & HALF SELF
\; 16 ORGY;
#X obj 171 308 hradio 15 1 0 17 empty empty empty 0 -8 0 10 -262144
-1 -1 0;
#X text 896 278 Other \; - gliss \; - stereo \; - absolute/relative
(but also button) \; - reverb \;;
#X obj 122 344 Source-Presets;
#X obj 567 345 Elem-Exp-Presets;
#X obj 726 328 Volume-Presets;
#X obj 567 289 hradio 15 1 0 8 empty empty empty 0 -8 0 10 -262144
-1 -1 0;
#X text 717 355 Volumes \; 1 All Down \; 2 All Up \; 3 One Up \, Two
Down \; 4 One Up \, Two Mid \; 5 Two Up \, One Down \;;
#X obj 726 291 hradio 15 1 0 8 empty empty empty 0 -8 0 10 -262144
-1 -1 0;
#X connect 0 0 7 0;
#X connect 5 0 7 0;
#X connect 10 0 8 0;
#X connect 12 0 9 0;
