#N canvas 51 81 1142 687 10;
#X obj 304 116 vradio 13 1 0 24 empty empty empty 0 -8 0 10 -262144
-1 -1 21;
#X text 310 100 GLOBAL PRESETS;
#X obj 304 56 r to_global_presets;
#N canvas 84 85 1154 467 global-preset-subpatch 0;
#X obj 266 11 inlet;
#X msg 266 559 0 0 0 0 0 0 0 0 0 0 0;
#X obj 266 49 sel 0 1 2 3 4 5 6 7 8 9 10 11 12 13 14 15 16 17 18 19
;
#X msg 284 538 1 6 7 5 0 0 0 1 1 1 1;
#X msg 302 517 1 6 7 5 26 33 22 1 1 1 1;
#X text 483 518 2 - CRYSTALS;
#X msg 321 496 1 31 24 18 185 150 115 1 1 1 1;
#X text 539 497 3 - HALOS;
#X text 577 475 4 - REEDS;
#X text 598 455 5 - MONICA;
#X msg 358 454 1 159 133 201 355 387 402 1 1 1 1;
#X msg 376 433 1 20 12 13 16 10 10 1 1 1 1;
#X text 575 434 6 - SLEET;
#X text 392 415 SOURCE: NOISE;
#X msg 413 376 2 400 400 400 3 3 3 1 1 1 1;
#X text 562 212 SOURCE: SIG;
#X msg 394 396 2 16 18 22 7 9 9 1 1 1 1;
#X msg 531 356 2 400 400 400 9.5 9.3 9.5 1 1 1 1;
#X msg 593 292 2 351 355 353 9 9 9 1 1 1 1;
#X msg 576 314 2 353 353 353 8.94 8.97 8.94 1 1 1 1;
#X msg 550 336 2 353 353 353 9.94 9.97 9.94 1 1 1 1;
#X text 836 315 11 - RAYS;
#X text 771 356 9 - GONG 1;
#X msg 505 270 2 100 150 175 50 90 110 1 1 1 1;
#X msg 523 249 2 150 250 299 95 150 189 1 1 1 1;
#X msg 542 228 2 400 600 500 244 359 279 1 1 1 1;
#X msg 560 194 3 54 55 53 7 7 7 1 1 1 1;
#X text 568 177 SOURCE: SELF;
#X msg 578 158 7 200 0 601 100 0 100 1 0 1 1;
#X text 788 159 17 - HUM;
#X text 740 195 16 - WHISTLE;
#X text 81 213 2 ALL SIG \; 3 ALL SELF;
#X text 80 266 6 ONE SELF \; 7 PAIR;
#X text 80 292 8 PAIR & NOISE \; 9 PAIR & SIG \;;
#X text 73 318 10 PAIR & SELF \; 11 DAISY CHAIN;
#X text 80 240 4 ONE NOISE \; 5 ONE SIG;
#X text 81 186 0 ALL OFF \; 1 ALL NOISE;
#X text 73 344 12 DAISY CHAIN REVERSE;
#X text 73 412 17 ORGY;
#X text 73 358 13 DC & 0.1 NOISE \; 14 DC & 0.5 SIG;
#X text 73 385 15 DC & SELF \; 16 DC & 0.5 SELF;
#X text 420 561 0 - ALL OFF;
#X text 439 540 1 - SNOW;
#X text 729 271 13 - CHORD 1;
#X text 780 229 15 - CHORD 3;
#X text 754 250 14 - CHORD 2;
#X text 588 142 SOURCE: PAIR;
#X text 621 83 SOURCE: DAISY;
#X msg 597 122 11 400 400 400 25 25 25 1 1 1 1;
#X msg 615 101 11 400 80 400 40 70 40 1 1 1 1;
#X text 822 123 18 - BACKGROUND;
#X text 832 102 19 - SIREN;
#X text 11 164 FOR REFERENCE \, SOURCE PRESETS:;
#X msg 64 576 \; to_source_presets \$1 \; fader-0-bypass \$2 \; fader-1-bypass
\$3 \; fader-2-bypass \$4 \; fader-3-bypass \$5 \; fader-4-bypass \$6
\; fader-5-bypass \$7 \; ugen0-external-vol \$8 \; ugen1-external-vol
\$9 \; ugen2-external-vol \$10 \; stereo-mono \$11;
#X text 571 397 7 - SERPENTINE;
#X text 611 377 8 - WIND;
#X text 789 293 12 - FLUTES;
#X text 813 338 10 - GONG 2;
#X obj 431 356 t b b;
#X obj 450 336 t b b;
#X obj 468 313 t b b;
#X obj 486 292 t b b;
#X obj 536 292 del 80;
#X obj 518 313 del 80;
#X obj 500 336 del 80;
#X obj 481 356 del 80;
#X msg 339 475 1 401 799 537 999 999 999 1 1 1 1;
#X connect 0 0 2 0;
#X connect 1 0 53 0;
#X connect 2 0 1 0;
#X connect 2 1 3 0;
#X connect 2 2 4 0;
#X connect 2 3 6 0;
#X connect 2 4 66 0;
#X connect 2 5 10 0;
#X connect 2 6 11 0;
#X connect 2 7 16 0;
#X connect 2 8 14 0;
#X connect 2 9 58 0;
#X connect 2 10 59 0;
#X connect 2 11 60 0;
#X connect 2 12 61 0;
#X connect 2 13 23 0;
#X connect 2 14 24 0;
#X connect 2 15 25 0;
#X connect 2 16 26 0;
#X connect 2 17 28 0;
#X connect 2 18 48 0;
#X connect 2 19 49 0;
#X connect 3 0 53 0;
#X connect 4 0 53 0;
#X connect 6 0 53 0;
#X connect 10 0 53 0;
#X connect 11 0 53 0;
#X connect 14 0 53 0;
#X connect 16 0 53 0;
#X connect 17 0 53 0;
#X connect 18 0 53 0;
#X connect 19 0 53 0;
#X connect 20 0 53 0;
#X connect 23 0 53 0;
#X connect 24 0 53 0;
#X connect 25 0 53 0;
#X connect 26 0 53 0;
#X connect 28 0 53 0;
#X connect 48 0 53 0;
#X connect 49 0 53 0;
#X connect 58 0 65 0;
#X connect 58 1 14 0;
#X connect 59 0 64 0;
#X connect 59 1 14 0;
#X connect 60 0 63 0;
#X connect 60 1 14 0;
#X connect 61 0 62 0;
#X connect 61 1 14 0;
#X connect 62 0 18 0;
#X connect 63 0 19 0;
#X connect 64 0 20 0;
#X connect 65 0 17 0;
#X connect 66 0 53 0;
#X restore 327 560 pd global-preset-subpatch;
#N canvas 140 186 1142 488 preset-subpatch-2 0;
#X obj 266 11 inlet;
#X text 81 213 2 ALL SIG \; 3 ALL SELF;
#X text 80 266 6 ONE SELF \; 7 PAIR;
#X text 80 292 8 PAIR & NOISE \; 9 PAIR & SIG \;;
#X text 73 318 10 PAIR & SELF \; 11 DAISY CHAIN;
#X text 80 240 4 ONE NOISE \; 5 ONE SIG;
#X text 81 186 0 ALL OFF \; 1 ALL NOISE;
#X text 73 344 12 DAISY CHAIN REVERSE;
#X text 73 412 17 ORGY;
#X text 73 358 13 DC & 0.1 NOISE \; 14 DC & 0.5 SIG;
#X text 73 385 15 DC & SELF \; 16 DC & 0.5 SELF;
#X text 11 164 FOR REFERENCE \, SOURCE PRESETS:;
#X msg 64 576 \; to_source_presets \$1 \; fader-0-bypass \$2 \; fader-1-bypass
\$3 \; fader-2-bypass \$4 \; fader-3-bypass \$5 \; fader-4-bypass \$6
\; fader-5-bypass \$7 \; ugen0-external-vol \$8 \; ugen1-external-vol
\$9 \; ugen2-external-vol \$10 \; stereo-mono \$11;
#X text 493 561 0 - SALT;
#X msg 266 559 15 200 400 300 70 90 80 1 1 1 1;
#X text 541 538 1 - GRINDER;
#X text 492 518 2 - KETTLE;
#X msg 302 517 11 20 39 19 1 25 2 1 1 1 1;
#X text 552 497 3 - STATIC;
#X msg 321 496 11 400 400 400 100 7 100 1 1 1 1;
#X obj 266 49 sel 20 21 22 23;
#X msg 284 538 8 594 20 601 50 10 50 1 0.6 1 1;
#X connect 0 0 20 0;
#X connect 14 0 12 0;
#X connect 17 0 12 0;
#X connect 19 0 12 0;
#X connect 20 0 14 0;
#X connect 20 1 21 0;
#X connect 20 2 17 0;
#X connect 20 3 19 0;
#X connect 21 0 12 0;
#X restore 304 588 pd preset-subpatch-2;
#X text 317 116 0 ALL OFF \; 1 SNOW \; 2 CRYSTALS \; 3 HALOS \; 4 REEDS
\; 5 MONICA \; 6 SLEET \; 7 SERPENTINE \; 8 WIND \; 9 GONG 1 \; 10
GONG 2 \; 11 RAYS \; 12 FLUTES \; 13 CHORD 1 \; 14 CHORD 2 \; 15 CHORD
3 \; 16 WHISTLE \; 17 HUM \; 18 BACKGROUND \; 19 SIREN \; 20 SALT \;
21 GRINDER \; 22 KETTLE \; 23 STATIC \;;
#X obj 419 116 vradio 13 1 0 24 empty empty empty 0 -8 0 10 -262144
-1 -1 0;
#X text 435 220 WIND 2;
#N canvas 41 161 1154 601 global-preset-secondary 0;
#X obj 266 11 inlet;
#X msg 266 559 0 0 0 0 0 0 0 0 0 0 0;
#X obj 266 49 sel 0 1 2 3 4 5 6 7 8 9 10 11 12 13 14 15 16 17 18 19
;
#X text 602 495 3 - HALOS;
#X text 577 475 4 - REEDS;
#X text 598 455 5 - MONICA;
#X msg 358 454 1 159 133 201 355 387 402 1 1 1 1;
#X msg 376 433 1 20 12 13 16 10 10 1 1 1 1;
#X text 575 434 6 - SLEET;
#X text 392 415 SOURCE: NOISE;
#X text 562 212 SOURCE: SIG;
#X msg 394 396 2 16 18 22 7 9 9 1 1 1 1;
#X msg 531 356 2 400 400 400 9.5 9.3 9.5 1 1 1 1;
#X msg 593 292 2 351 355 353 9 9 9 1 1 1 1;
#X msg 576 314 2 353 353 353 8.94 8.97 8.94 1 1 1 1;
#X msg 550 336 2 353 353 353 9.94 9.97 9.94 1 1 1 1;
#X text 836 315 11 - RAYS;
#X text 771 356 9 - GONG 1;
#X msg 505 270 2 100 150 175 50 90 110 1 1 1 1;
#X msg 523 249 2 150 250 299 95 150 189 1 1 1 1;
#X msg 560 194 3 54 55 53 7 7 7 1 1 1 1;
#X text 568 177 SOURCE: SELF;
#X text 788 159 17 - HUM;
#X text 740 195 16 - WHISTLE;
#X text 81 213 2 ALL SIG \; 3 ALL SELF;
#X text 80 266 6 ONE SELF \; 7 PAIR;
#X text 80 292 8 PAIR & NOISE \; 9 PAIR & SIG \;;
#X text 73 318 10 PAIR & SELF \; 11 DAISY CHAIN;
#X text 80 240 4 ONE NOISE \; 5 ONE SIG;
#X text 81 186 0 ALL OFF \; 1 ALL NOISE;
#X text 73 344 12 DAISY CHAIN REVERSE;
#X text 73 412 17 ORGY;
#X text 73 358 13 DC & 0.1 NOISE \; 14 DC & 0.5 SIG;
#X text 73 385 15 DC & SELF \; 16 DC & 0.5 SELF;
#X text 420 561 0 - ALL OFF;
#X text 729 271 13 - CHORD 1;
#X text 754 250 14 - CHORD 2;
#X text 588 142 SOURCE: PAIR;
#X text 621 83 SOURCE: DAISY;
#X msg 597 122 11 400 400 400 25 25 25 1 1 1 1;
#X text 822 123 18 - BACKGROUND;
#X text 902 102 19 - SIREN;
#X text 11 164 FOR REFERENCE \, SOURCE PRESETS:;
#X text 571 397 7 - SERPENTINE;
#X text 789 293 12 - FLUTES;
#X text 813 338 10 - GONG 2;
#X obj 431 356 t b b;
#X obj 450 336 t b b;
#X obj 468 313 t b b;
#X obj 486 292 t b b;
#X obj 536 292 del 80;
#X obj 518 313 del 80;
#X obj 500 336 del 80;
#X obj 481 356 del 80;
#X msg 339 475 1 401 799 537 999 999 999 1 1 1 1;
#X text 689 377 8 - WIND 2 -----------------------------------------
\;;
#X text 568 538 1 - BLIZZARD ------------------------------- \;;
#X msg 413 376 2 400 200 300 5 4 5 1 1 1 1 150 15 3 0;
#X msg 284 538 1 100 50 80 10 10 10 1 1 1 1 200 30 1 0;
#X msg 302 517 1 6 7 5 26 33 22 1 1 1 1 1000 30 3 0;
#X msg 321 496 1 31 24 18 185 150 115 1 1 1 1 0 0 0 6;
#X text 583 518 2 - IGNITION ----------------------------;
#X msg 66 575 \; to_source_presets \$1 \; fader-0-bypass \$2 \; fader-1-bypass
\$3 \; fader-2-bypass \$4 \; fader-3-bypass \$5 \; fader-4-bypass \$6
\; fader-5-bypass \$7 \; ugen0-external-vol \$8 \; ugen1-external-vol
\$9 \; ugen2-external-vol \$10 \; stereo-mono \$11 \; walker-rate-receive
\$12 \; walker-leap-receive \$13 \; rhythm-presets-receive \$15 \;
walker-preset-bypass \$14 \;;
#X msg 542 228 14 400 600 500 244 359 279 1 1 1 1;
#X text 780 229 15 - CHORD 3 2-------------------;
#X msg 578 158 7 200 0 601 100 0 100 1 0 1 1;
#X msg 615 101 17 400 80 400 40 70 40 1 1 1 1 0 0 0 0;
#X connect 0 0 2 0;
#X connect 1 0 62 0;
#X connect 2 0 1 0;
#X connect 2 1 58 0;
#X connect 2 2 59 0;
#X connect 2 3 60 0;
#X connect 2 4 54 0;
#X connect 2 5 6 0;
#X connect 2 6 7 0;
#X connect 2 7 11 0;
#X connect 2 8 57 0;
#X connect 2 9 46 0;
#X connect 2 10 47 0;
#X connect 2 11 48 0;
#X connect 2 12 49 0;
#X connect 2 13 18 0;
#X connect 2 14 19 0;
#X connect 2 15 63 0;
#X connect 2 16 20 0;
#X connect 2 17 65 0;
#X connect 2 18 39 0;
#X connect 2 19 66 0;
#X connect 6 0 62 0;
#X connect 7 0 62 0;
#X connect 11 0 62 0;
#X connect 12 0 62 0;
#X connect 13 0 62 0;
#X connect 14 0 62 0;
#X connect 15 0 62 0;
#X connect 18 0 62 0;
#X connect 19 0 62 0;
#X connect 20 0 62 0;
#X connect 39 0 62 0;
#X connect 46 0 53 0;
#X connect 46 1 57 0;
#X connect 47 0 52 0;
#X connect 47 1 57 0;
#X connect 48 0 51 0;
#X connect 48 1 57 0;
#X connect 49 0 50 0;
#X connect 49 1 57 0;
#X connect 50 0 13 0;
#X connect 51 0 14 0;
#X connect 52 0 15 0;
#X connect 53 0 12 0;
#X connect 54 0 62 0;
#X connect 57 0 62 0;
#X connect 58 0 62 0;
#X connect 59 0 62 0;
#X connect 60 0 62 0;
#X connect 63 0 62 0;
#X connect 65 0 62 0;
#X connect 66 0 62 0;
#X restore 419 496 pd global-preset-secondary;
#X text 434 128 BLIZZARD;
#X text 434 141 IGNITION;
#X obj 451 468 s walker-preset-zero;
#X obj 419 440 t f b;
#X obj 350 532 s walker-preset-zero;
#X obj 304 504 t f f b;
#X text 433 310 CHORD3 2;
#X text 434 154 SERAPHIM;
#X text 433 362 SCREECH;
#X obj 419 79 r to_secondary_globals;
#X obj 612 27 sel 1;
#X msg 612 48 0;
#X obj 612 323 s to_global_presets;
#X obj 655 48 sel 1;
#X msg 655 69 1;
#X obj 698 69 sel 1;
#X obj 741 90 sel 1;
#X obj 612 5 r mbutton-0;
#X obj 655 27 r mbutton-1;
#X obj 698 48 r mbutton-2;
#X obj 741 69 r mbutton-3;
#X msg 698 90 2;
#X msg 741 111 4;
#X obj 784 112 sel 1;
#X obj 827 133 sel 1;
#X obj 870 154 sel 1;
#X obj 913 175 sel 1;
#X obj 784 90 r mbutton-4;
#X obj 827 112 r mbutton-5;
#X obj 870 133 r mbutton-6;
#X obj 913 154 r mbutton-7;
#X msg 784 133 6;
#X msg 827 154 8;
#X msg 870 175 10;
#X msg 913 196 11;
#X obj 612 137 sel 1;
#X obj 655 158 sel 1;
#X obj 698 179 sel 1;
#X obj 741 200 sel 1;
#X obj 784 222 sel 1;
#X obj 827 243 sel 1;
#X obj 870 264 sel 1;
#X obj 913 285 sel 1;
#X obj 612 115 r rbutton-0;
#X obj 655 137 r rbutton-1;
#X obj 698 158 r rbutton-2;
#X obj 741 179 r rbutton-3;
#X obj 784 200 r rbutton-4;
#X obj 827 222 r rbutton-5;
#X obj 870 243 r rbutton-6;
#X obj 913 264 r rbutton-7;
#X msg 612 158 15;
#X msg 655 179 16;
#X msg 698 200 17;
#X msg 741 221 18;
#X msg 784 243 19;
#X msg 827 264 20;
#X msg 870 285 21;
#X msg 913 306 23;
#X obj 612 387 sel 1;
#X msg 612 408 0;
#X obj 655 408 sel 1;
#X msg 655 429 1;
#X obj 698 429 sel 1;
#X obj 741 450 sel 1;
#X msg 698 450 2;
#X msg 741 471 4;
#X obj 784 472 sel 1;
#X obj 827 493 sel 1;
#X obj 870 514 sel 1;
#X obj 913 535 sel 1;
#X msg 784 493 6;
#X msg 827 514 8;
#X msg 870 535 10;
#X msg 913 556 11;
#X obj 612 497 sel 1;
#X obj 655 518 sel 1;
#X obj 698 539 sel 1;
#X obj 741 560 sel 1;
#X obj 784 582 sel 1;
#X obj 827 603 sel 1;
#X obj 870 624 sel 1;
#X obj 913 645 sel 1;
#X msg 612 518 15;
#X msg 655 539 16;
#X msg 698 560 17;
#X msg 741 581 18;
#X msg 784 603 19;
#X msg 827 624 20;
#X msg 870 645 21;
#X msg 913 666 23;
#X obj 612 365 r mbutton-0-mux;
#X obj 655 387 r mbutton-1-mux;
#X obj 698 408 r mbutton-2-mux;
#X obj 741 429 r mbutton-3-mux;
#X obj 784 450 r mbutton-4-mux;
#X obj 827 472 r mbutton-5-mux;
#X obj 870 493 r mbutton-6-mux;
#X obj 913 514 r mbutton-7-mux;
#X obj 612 475 r rbutton-0-mux;
#X obj 655 497 r rbutton-1-mux;
#X obj 698 518 r rbutton-2-mux;
#X obj 741 539 r rbutton-3-mux;
#X obj 784 560 r rbutton-4-mux;
#X obj 827 582 r rbutton-5-mux;
#X obj 870 603 r rbutton-6-mux;
#X obj 913 624 r rbutton-7-mux;
#X obj 612 683 s to_secondary_globals;
#X connect 0 0 14 0;
#X connect 2 0 0 0;
#X connect 6 0 12 0;
#X connect 12 0 8 0;
#X connect 12 1 11 0;
#X connect 14 0 4 0;
#X connect 14 1 3 0;
#X connect 14 2 13 0;
#X connect 18 0 6 0;
#X connect 19 0 20 0;
#X connect 20 0 21 0;
#X connect 22 0 23 0;
#X connect 23 0 21 0;
#X connect 24 0 30 0;
#X connect 25 0 31 0;
#X connect 26 0 19 0;
#X connect 27 0 22 0;
#X connect 28 0 24 0;
#X connect 29 0 25 0;
#X connect 30 0 21 0;
#X connect 31 0 21 0;
#X connect 32 0 40 0;
#X connect 33 0 41 0;
#X connect 34 0 42 0;
#X connect 35 0 43 0;
#X connect 36 0 32 0;
#X connect 37 0 33 0;
#X connect 38 0 34 0;
#X connect 39 0 35 0;
#X connect 40 0 21 0;
#X connect 41 0 21 0;
#X connect 42 0 21 0;
#X connect 43 0 21 0;
#X connect 44 0 60 0;
#X connect 45 0 61 0;
#X connect 46 0 62 0;
#X connect 47 0 63 0;
#X connect 48 0 64 0;
#X connect 49 0 65 0;
#X connect 50 0 66 0;
#X connect 51 0 67 0;
#X connect 52 0 44 0;
#X connect 53 0 45 0;
#X connect 54 0 46 0;
#X connect 55 0 47 0;
#X connect 56 0 48 0;
#X connect 57 0 49 0;
#X connect 58 0 50 0;
#X connect 59 0 51 0;
#X connect 60 0 21 0;
#X connect 61 0 21 0;
#X connect 62 0 21 0;
#X connect 63 0 21 0;
#X connect 64 0 21 0;
#X connect 65 0 21 0;
#X connect 66 0 21 0;
#X connect 67 0 21 0;
#X connect 68 0 69 0;
#X connect 69 0 116 0;
#X connect 70 0 71 0;
#X connect 71 0 116 0;
#X connect 72 0 74 0;
#X connect 73 0 75 0;
#X connect 74 0 116 0;
#X connect 75 0 116 0;
#X connect 76 0 80 0;
#X connect 77 0 81 0;
#X connect 78 0 82 0;
#X connect 79 0 83 0;
#X connect 80 0 116 0;
#X connect 81 0 116 0;
#X connect 82 0 116 0;
#X connect 83 0 116 0;
#X connect 84 0 92 0;
#X connect 85 0 93 0;
#X connect 86 0 94 0;
#X connect 87 0 95 0;
#X connect 88 0 96 0;
#X connect 89 0 97 0;
#X connect 90 0 98 0;
#X connect 91 0 99 0;
#X connect 92 0 116 0;
#X connect 93 0 116 0;
#X connect 94 0 116 0;
#X connect 95 0 116 0;
#X connect 96 0 116 0;
#X connect 97 0 116 0;
#X connect 98 0 116 0;
#X connect 99 0 116 0;
#X connect 100 0 68 0;
#X connect 101 0 70 0;
#X connect 102 0 72 0;
#X connect 103 0 73 0;
#X connect 104 0 76 0;
#X connect 105 0 77 0;
#X connect 106 0 78 0;
#X connect 107 0 79 0;
#X connect 108 0 84 0;
#X connect 109 0 85 0;
#X connect 110 0 86 0;
#X connect 111 0 87 0;
#X connect 112 0 88 0;
#X connect 113 0 89 0;
#X connect 114 0 90 0;
#X connect 115 0 91 0;
#X coords 0 -1 1 1 260 330 2 300 100;
