#N canvas 146 129 1061 636 10;
#X obj 530 606 s gliss-length-exps;
#X obj 499 644 s gliss-length-elems;
#X obj 562 567 s gliss-length-sources;
#X floatatom 530 587 5 0 0 0 - - -, f 5;
#X floatatom 499 626 5 0 0 0 - - -, f 5;
#X floatatom 562 550 5 0 0 0 - - -, f 5;
#X text 143 23 GLISS PRESETS:;
#X obj 137 43 vradio 13 1 0 9 empty empty empty 0 -8 0 10 -262144 -1
-1 7;
#X obj 499 484 Gliss-Length-Converter;
#X obj 530 463 Gliss-Length-Converter;
#X obj 562 442 Gliss-Length-Converter;
#X obj 137 239 nbx 4 20 -1e+37 1e+37 0 0 empty empty empty 0 -8 0 16
-262144 -1 -1 1250 256;
#X text 228 244 LONG;
#X obj 137 261 nbx 4 20 -1e+37 1e+37 0 0 empty empty empty 0 -8 0 16
-262144 -1 -1 3500 256;
#X text 207 266 V. LONG;
#X obj 81 2 r init-loadbang;
#X obj 293 237 s gliss-length-medium;
#X obj 293 259 s gliss-length-long;
#X obj 293 281 s gliss-length-verylong;
#X obj 499 397 unpack s s s s;
#X floatatom 594 510 5 0 0 0 - - -, f 5;
#X obj 594 527 s gliss-length-vols;
#X msg 499 366 zero zero zero zero;
#X obj 594 421 Gliss-Length-Converter;
#X obj 137 193 nbx 3 20 -1e+37 1e+37 0 0 empty empty empty 0 -8 0 16
-262144 -1 -1 300 256;
#X text 221 198 SHORT;
#X obj 137 217 nbx 4 20 -1e+37 1e+37 0 0 empty empty empty 0 -8 0 16
-262144 -1 -1 750 256;
#X text 214 221 MEDIUM;
#X obj 293 213 s gliss-length-short;
#X obj 356 26 r to_gliss_presets;
#X msg 81 244 3500;
#X msg 81 222 1250;
#X msg 81 200 750;
#X msg 81 176 300;
#X obj 499 160 sel 0 1 2 3 4 5 6 7;
#X obj 137 171 nbx 3 20 -1e+37 1e+37 0 0 empty empty empty 0 -8 0 16
-262144 -1 -1 80 256;
#X text 200 175 V. SHORT;
#X msg 293 191 s gliss-length-veryshort;
#X msg 81 154 80;
#X msg 515 345 zero short zero zero;
#X msg 531 324 zero long zero zero;
#X msg 547 303 zero verylong zero zero;
#X msg 564 282 zero zero verylong zero;
#X msg 580 261 verylong verylong zero zero;
#X msg 596 240 medium medium medium medium;
#X msg 612 219 long long long long;
#X msg 629 198 verylong verylong verylong verylong;
#X text 151 43 0 E/EX/S/V = 0 \; 1 0/S/0/0 \; 2 0/L/0/0 \; 3 0/VL/0/0
\; 4 0/0/VL/0 \; 5 VL/VL/0/0 \; 6 ALL MEDIUM \; 7 ALL LONG \; 8 ALL
V. LONG \;;
#X connect 3 0 0 0;
#X connect 4 0 1 0;
#X connect 5 0 2 0;
#X connect 7 0 34 0;
#X connect 8 0 4 0;
#X connect 9 0 3 0;
#X connect 10 0 5 0;
#X connect 11 0 17 0;
#X connect 13 0 18 0;
#X connect 15 0 33 0;
#X connect 15 0 30 0;
#X connect 15 0 32 0;
#X connect 15 0 31 0;
#X connect 15 0 38 0;
#X connect 19 0 8 0;
#X connect 19 1 9 0;
#X connect 19 2 10 0;
#X connect 19 3 23 0;
#X connect 20 0 21 0;
#X connect 22 0 19 0;
#X connect 23 0 20 0;
#X connect 24 0 28 0;
#X connect 26 0 16 0;
#X connect 29 0 7 0;
#X connect 30 0 13 0;
#X connect 31 0 11 0;
#X connect 32 0 26 0;
#X connect 33 0 24 0;
#X connect 34 0 22 0;
#X connect 34 1 39 0;
#X connect 34 2 40 0;
#X connect 34 3 41 0;
#X connect 34 4 42 0;
#X connect 34 5 43 0;
#X connect 34 6 44 0;
#X connect 34 7 45 0;
#X connect 34 8 46 0;
#X connect 35 0 37 0;
#X connect 38 0 35 0;
#X connect 39 0 19 0;
#X connect 40 0 19 0;
#X connect 41 0 19 0;
#X connect 42 0 19 0;
#X connect 43 0 19 0;
#X connect 44 0 19 0;
#X connect 45 0 19 0;
#X connect 46 0 19 0;
#X coords 0 -1 1 1 130 260 2 135 23;
