#N canvas 165 405 1227 465 10;
#X text 840 101 Other \; - gliss \; - stereo \; - absolute/relative
(but also button) \; - reverb \;;
#X obj 101 313 Source-Presets;
#X obj 228 313 Elem-Exp-Presets;
#X obj 848 282 Volume-Presets;
#X text 839 309 Volumes \; 1 All Down \; 2 All Up \; 3 One Up \, Two
Down \; 4 One Up \, Two Mid \; 5 Two Up \, One Down \;;
#X obj 848 245 hradio 15 1 0 8 empty empty empty 0 -8 0 10 -262144
-1 -1 0;
#X obj 101 31 vradio 15 1 0 17 empty empty empty 0 -8 0 10 -262144
-1 -1 3;
#X text 117 61 2 ALL SIG \; 3 ALL SELF;
#X text 117 122 6 ONE SELF \; 7 PAIR;
#X text 117 152 8 PAIR & NOISE \; 9 PAIR & SIG \;;
#X text 117 182 10 PAIR & SELF \; 11 DAISY CHAIN;
#X text 117 92 4 ONE NOISE \; 5 ONE SIG;
#X text 117 32 0 ALL OFF \; 1 ALL NOISE;
#X text 117 213 12 DC & NOISE \; 13 DC & SIG;
#X text 117 242 14 DC & SELF \; 15 DC & HALF S;
#X text 117 271 16 ORGY;
#X obj 228 31 vradio 15 1 0 16 empty empty empty 0 -8 0 10 -262144
-1 -1 13;
#X text 246 46 0 TINY CRYSTALS;
#X text 246 61 1 MEDIUM CRYSTALS;
#X text 246 76 2 BIG CRYSTALS;
#X text 246 91 3 HIGH ORGAN;
#X text 246 106 4 MEDIUM ORGAN;
#X text 246 121 5 LOW ORGAN;
#X text 246 181 7 SNOW;
#X text 246 196 8 SLEET;
#X text 246 211 9 DRIZZLE;
#X text 246 152 7 CUT CRYSTALS 2;
#X text 246 137 6 CUT CRYSTALS 1;
#X text 246 166 8 CUT CRYSTALS 2;
#X text 266 8 NOISE:;
#X text 449 15 SIG:;
#X text 392 46 0 Wind;
#X text 392 61 1 Gale;
#X text 392 77 2 Nest;
#X text 392 91 3 Swarm;
#X text 392 106 4 Vent;
#X obj 373 313 Elem-Exp-Presets-Sig;
#X text 392 122 5 Hiss;
#X obj 373 31 vradio 15 1 0 16 empty empty empty 0 -8 0 10 -262144
-1 -1 8;
#X text 391 138 5 Pre-Flute;
#X text 394 155 6 Flute;
#X text 391 171 7 Dissonant Flute;
#X text 392 185 8 Pad;
#X text 393 197 9 Pad 2;
#X text 550 12 SELF;
#X text 542 61 1 Gale;
#X text 542 77 2 Nest;
#X text 542 91 3 Swarm;
#X text 542 106 4 Vent;
#X text 542 122 5 Hiss;
#X obj 523 31 vradio 15 1 0 16 empty empty empty 0 -8 0 10 -262144
-1 -1 1;
#X text 541 138 5 Pre-Flute;
#X text 544 155 6 Flute;
#X text 541 171 7 Dissonant Flute;
#X text 542 185 8 Pad;
#X text 543 197 9 Pad 2;
#X text 542 46 1 Whistlers;
#X obj 523 313 Elem-Exp-Presets-Self;
#X connect 5 0 3 0;
#X connect 6 0 1 0;
#X connect 16 0 2 0;
#X connect 38 0 36 0;
#X connect 50 0 57 0;
#X coords 0 -1 1 1 600 270 2 100 30;
