#N canvas 41 129 1246 635 10;
#X obj 18 19 vradio 13 1 0 20 empty empty empty 0 -8 0 10 -262144 -1
-1 8;
#X text 24 3 GLOBAL PRESETS;
#X obj 345 2 r to_global_presets;
#N canvas 78 174 1154 580 global-preset-subpatch 1;
#X obj 266 11 inlet;
#X msg 266 559 0 0 0 0 0 0 0 0 0 0 0;
#X obj 266 49 sel 0 1 2 3 4 5 6 7 8 9 10 11 12 13 14 15 16 17 18 19
;
#X msg 284 538 1 6 7 5 0 0 0 1 1 1 1;
#X msg 302 517 1 6 7 5 26 33 22 1 1 1 1;
#X text 483 518 2 - CRYSTALS;
#X msg 321 496 1 31 24 18 185 150 115 1 1 1 1;
#X text 539 497 3 - HALOS;
#X msg 339 475 1 360 721 478 999 999 999 1 1 1 1;
#X text 577 475 4 - REEDS;
#X text 598 455 5 - MONICA;
#X msg 358 454 1 159 133 201 355 387 402 1 1 1 1;
#X msg 376 433 1 20 12 13 16 10 10 1 1 1 1;
#X text 575 434 6 - SLEET;
#X text 392 415 SOURCE: NOISE;
#X msg 413 376 2 400 400 400 3 3 3 1 1 1 1;
#X text 562 212 SOURCE: SIG;
#X msg 394 396 2 16 18 22 7 9 9 1 1 1 1;
#X msg 531 356 2 400 400 400 9.5 9.3 9.5 1 1 1 1;
#X msg 593 292 2 351 355 353 9 9 9 1 1 1 1;
#X msg 576 314 2 353 353 353 8.94 8.97 8.94 1 1 1 1;
#X msg 550 336 2 353 353 353 9.94 9.97 9.94 1 1 1 1;
#X text 836 315 11 - RAYS;
#X text 771 356 9 - GONG 1;
#X msg 505 270 2 100 150 175 50 90 110 1 1 1 1;
#X msg 523 249 2 150 250 299 95 150 189 1 1 1 1;
#X msg 542 228 2 400 600 500 244 359 279 1 1 1 1;
#X msg 560 194 3 54 55 53 7 7 7 1 1 1 1;
#X text 568 177 SOURCE: SELF;
#X msg 578 158 7 200 0 601 100 0 100 1 0 1 1;
#X text 788 159 17 - HUM;
#X text 740 195 16 - WHISTLE;
#X text 81 213 2 ALL SIG \; 3 ALL SELF;
#X text 80 266 6 ONE SELF \; 7 PAIR;
#X text 80 292 8 PAIR & NOISE \; 9 PAIR & SIG \;;
#X text 73 318 10 PAIR & SELF \; 11 DAISY CHAIN;
#X text 80 240 4 ONE NOISE \; 5 ONE SIG;
#X text 81 186 0 ALL OFF \; 1 ALL NOISE;
#X text 73 344 12 DAISY CHAIN REVERSE;
#X text 73 412 17 ORGY;
#X text 73 358 13 DC & 0.1 NOISE \; 14 DC & 0.5 SIG;
#X text 73 385 15 DC & SELF \; 16 DC & 0.5 SELF;
#X text 420 561 0 - ALL OFF;
#X text 439 540 1 - SNOW;
#X text 729 271 13 - CHORD 1;
#X text 780 229 15 - CHORD 3;
#X text 754 250 14 - CHORD 2;
#X text 588 142 SOURCE: PAIR;
#X text 621 83 SOURCE: DAISY;
#X msg 597 122 11 400 400 400 25 25 25 1 1 1 1;
#X msg 615 101 11 400 80 400 40 70 40 1 1 1 1;
#X text 822 123 18 - BACKGROUND;
#X text 832 102 19 - SIREN;
#X text 11 164 FOR REFERENCE \, SOURCE PRESETS:;
#X msg 64 576 \; to_source_presets \$1 \; fader-0-bypass \$2 \; fader-1-bypass
\$3 \; fader-2-bypass \$4 \; fader-3-bypass \$5 \; fader-4-bypass \$6
\; fader-5-bypass \$7 \; ugen0-external-vol \$8 \; ugen1-external-vol
\$9 \; ugen2-external-vol \$10 \; stereo-mono \$11;
#X text 571 397 7 - SERPENTINE;
#X text 611 377 8 - WIND;
#X text 789 293 12 - FLUTES;
#X text 813 338 10 - GONG 2;
#X obj 431 356 t b b;
#X obj 450 336 t b b;
#X obj 468 313 t b b;
#X obj 486 292 t b b;
#X obj 536 292 del 80;
#X obj 518 313 del 80;
#X obj 500 336 del 80;
#X obj 481 356 del 80;
#X connect 0 0 2 0;
#X connect 1 0 54 0;
#X connect 2 0 1 0;
#X connect 2 1 3 0;
#X connect 2 2 4 0;
#X connect 2 3 6 0;
#X connect 2 4 8 0;
#X connect 2 5 11 0;
#X connect 2 6 12 0;
#X connect 2 7 17 0;
#X connect 2 8 15 0;
#X connect 2 9 59 0;
#X connect 2 10 60 0;
#X connect 2 11 61 0;
#X connect 2 12 62 0;
#X connect 2 13 24 0;
#X connect 2 14 25 0;
#X connect 2 15 26 0;
#X connect 2 16 27 0;
#X connect 2 17 29 0;
#X connect 2 18 49 0;
#X connect 2 19 50 0;
#X connect 3 0 54 0;
#X connect 4 0 54 0;
#X connect 6 0 54 0;
#X connect 8 0 54 0;
#X connect 11 0 54 0;
#X connect 12 0 54 0;
#X connect 15 0 54 0;
#X connect 17 0 54 0;
#X connect 18 0 54 0;
#X connect 19 0 54 0;
#X connect 20 0 54 0;
#X connect 21 0 54 0;
#X connect 24 0 54 0;
#X connect 25 0 54 0;
#X connect 26 0 54 0;
#X connect 27 0 54 0;
#X connect 29 0 54 0;
#X connect 49 0 54 0;
#X connect 50 0 54 0;
#X connect 59 0 66 0;
#X connect 59 1 15 0;
#X connect 60 0 65 0;
#X connect 60 1 15 0;
#X connect 61 0 64 0;
#X connect 61 1 15 0;
#X connect 62 0 63 0;
#X connect 62 1 15 0;
#X connect 63 0 19 0;
#X connect 64 0 20 0;
#X connect 65 0 21 0;
#X connect 66 0 18 0;
#X restore 18 321 pd global-preset-subpatch;
#X text 31 19 0 ALL OFF \; 1 SNOW \; 2 CRYSTALS \; 3 HALOS \; 4 REEDS
\; 5 MONICA \; 6 SLEET \; 7 SERPENTINE \; 8 WIND \; 9 GONG 1 \; 10
GONG 2 \; 11 RAYS \; 12 FLUTES \; 13 CHORD 1 \; 14 CHORD 2 \; 15 CHORD
3 \; 16 WHISTLE \; 17 HUM \; 18 BACKGROUND \; 19 SIREN;
#N canvas 156 180 1142 558 preset-subpatch-2 0;
#X obj 266 11 inlet;
#X msg 266 559 0 0 0 0 0 0 0 0 0 0 0;
#X msg 284 538 1 6 7 5 0 0 0 1 1 1 1;
#X msg 302 517 1 6 7 5 26 33 22 1 1 1 1;
#X text 483 518 2 - CRYSTALS;
#X msg 321 496 1 31 24 18 185 150 115 1 1 1 1;
#X text 539 497 3 - HALOS;
#X msg 339 475 1 360 721 478 999 999 999 1 1 1 1;
#X text 577 475 4 - REEDS;
#X text 598 455 5 - MONICA;
#X msg 358 454 1 159 133 201 355 387 402 1 1 1 1;
#X msg 376 433 1 20 12 13 16 10 10 1 1 1 1;
#X text 575 434 6 - SLEET;
#X text 392 415 SOURCE: NOISE;
#X text 592 397 7 - WIND;
#X msg 394 396 2 400 400 400 3 3 3 1 1 1 1;
#X text 590 376 8 - SERPENTINE;
#X text 562 212 SOURCE: SIG;
#X msg 413 375 2 16 18 22 7 9 9 1 1 1 1;
#X msg 431 354 2 400 400 400 9.5 9.3 9.5 1 1 1 1;
#X msg 450 333 2 351 355 353 9 9 9 1 1 1 1;
#X msg 468 312 2 353 353 353 8.94 8.97 8.94 1 1 1 1;
#X msg 486 291 2 353 353 353 9.94 9.97 9.94 1 1 1 1;
#X text 646 334 10 - FLUTES;
#X text 728 313 11 - RAYS;
#X text 671 354 9 - GONG 1;
#X text 749 293 12 - GONG 2;
#X msg 505 270 2 100 150 175 50 90 110 1 1 1 1;
#X msg 523 249 2 150 250 299 95 150 189 1 1 1 1;
#X msg 542 228 2 400 600 500 244 359 279 1 1 1 1;
#X msg 560 194 3 54 55 53 7 7 7 1 1 1 1;
#X text 568 177 SOURCE: SELF;
#X msg 578 158 7 200 0 601 100 0 100 1 0 1 1;
#X text 788 159 17 - HUM;
#X text 740 195 16 - WHISTLE;
#X text 81 213 2 ALL SIG \; 3 ALL SELF;
#X text 80 266 6 ONE SELF \; 7 PAIR;
#X text 80 292 8 PAIR & NOISE \; 9 PAIR & SIG \;;
#X text 73 318 10 PAIR & SELF \; 11 DAISY CHAIN;
#X text 80 240 4 ONE NOISE \; 5 ONE SIG;
#X text 81 186 0 ALL OFF \; 1 ALL NOISE;
#X text 73 344 12 DAISY CHAIN REVERSE;
#X text 73 412 17 ORGY;
#X text 73 358 13 DC & 0.1 NOISE \; 14 DC & 0.5 SIG;
#X text 73 385 15 DC & SELF \; 16 DC & 0.5 SELF;
#X text 420 561 0 - ALL OFF;
#X text 439 540 1 - SNOW;
#X text 729 271 13 - CHORD 1;
#X text 780 229 15 - CHORD 3;
#X text 754 250 14 - CHORD 2;
#X text 588 142 SOURCE: PAIR;
#X text 621 83 SOURCE: DAISY;
#X msg 597 122 11 400 400 400 25 25 25 1 1 1 1;
#X msg 615 101 11 400 80 400 40 70 40 1 1 1 1;
#X text 822 123 18 - BACKGROUND;
#X text 832 102 19 - SIREN;
#X text 11 164 FOR REFERENCE \, SOURCE PRESETS:;
#X msg 64 576 \; to_source_presets \$1 \; fader-0-bypass \$2 \; fader-1-bypass
\$3 \; fader-2-bypass \$4 \; fader-3-bypass \$5 \; fader-4-bypass \$6
\; fader-5-bypass \$7 \; ugen0-external-vol \$8 \; ugen1-external-vol
\$9 \; ugen2-external-vol \$10 \; stereo-mono \$11;
#X obj 266 49 sel 0 1 2 3 4 5 6 7 8 9 10 11 12 13 14 15 16 17 18 19
;
#X connect 0 0 58 0;
#X connect 1 0 57 0;
#X connect 2 0 57 0;
#X connect 3 0 57 0;
#X connect 5 0 57 0;
#X connect 7 0 57 0;
#X connect 10 0 57 0;
#X connect 11 0 57 0;
#X connect 15 0 57 0;
#X connect 18 0 57 0;
#X connect 19 0 57 0;
#X connect 20 0 57 0;
#X connect 21 0 57 0;
#X connect 22 0 57 0;
#X connect 27 0 57 0;
#X connect 28 0 57 0;
#X connect 29 0 57 0;
#X connect 30 0 57 0;
#X connect 32 0 57 0;
#X connect 52 0 57 0;
#X connect 53 0 57 0;
#X connect 58 0 1 0;
#X connect 58 1 2 0;
#X connect 58 2 3 0;
#X connect 58 3 5 0;
#X connect 58 4 7 0;
#X connect 58 5 10 0;
#X connect 58 6 11 0;
#X connect 58 7 15 0;
#X connect 58 8 18 0;
#X connect 58 9 19 0;
#X connect 58 10 20 0;
#X connect 58 11 21 0;
#X connect 58 12 22 0;
#X connect 58 13 27 0;
#X connect 58 14 28 0;
#X connect 58 15 29 0;
#X connect 58 16 30 0;
#X connect 58 17 32 0;
#X connect 58 18 52 0;
#X connect 58 19 53 0;
#X restore 210 323 pd preset-subpatch-2;
#X connect 0 0 3 0;
#X connect 2 0 0 0;
#X coords 0 -1 1 1 260 280 2 15 4;
