#N canvas 80 202 1066 519 10;
#X text 853 11 Other \; - gliss \; - stereo \; - absolute/relative
(but also button) \; - reverb \;;
#X obj 101 313 Source-Presets;
#X obj 228 313 Elem-Exp-Presets;
#X obj 864 128 Volume-Presets;
#X text 855 155 Volumes \; 1 All Down \; 2 All Up \; 3 One Up \, Two
Down \; 4 One Up \, Two Mid \; 5 Two Up \, One Down \;;
#X obj 864 91 hradio 15 1 0 8 empty empty empty 0 -8 0 10 -262144 -1
-1 0;
#X obj 101 31 vradio 15 1 0 17 empty empty empty 0 -8 0 10 -262144
-1 -1 2;
#X text 117 61 2 ALL SIG \; 3 ALL SELF;
#X text 117 122 6 ONE SELF \; 7 PAIR;
#X text 117 152 8 PAIR & NOISE \; 9 PAIR & SIG \;;
#X text 117 182 10 PAIR & SELF \; 11 DAISY CHAIN;
#X text 117 92 4 ONE NOISE \; 5 ONE SIG;
#X text 117 32 0 ALL OFF \; 1 ALL NOISE;
#X text 117 213 12 DC & NOISE \; 13 DC & SIG;
#X text 117 242 14 DC & SELF \; 15 DC & HALF S;
#X text 117 271 16 ORGY;
#X obj 228 31 vradio 15 1 0 13 empty empty empty 0 -8 0 10 -262144
-1 -1 8;
#X text 228 13 NOISE:;
#X text 371 13 SIG:;
#X obj 373 370 Elem-Exp-Presets-Sig;
#X obj 373 31 vradio 15 1 0 10 empty empty empty 0 -8 0 10 -262144
-1 -1 6;
#X obj 483 31 vradio 15 1 0 4 empty empty empty 0 -8 0 10 -262144 -1
-1 3;
#X obj 483 343 Elem-Exp-Presets-Self;
#X text 245 46 1 TINY CRYSTALS;
#X text 245 32 0 ALL ZERO;
#X text 245 61 2 MEDIUM CRYSTALS;
#X text 246 76 3 BIG CRYSTALS;
#X text 246 91 4 HIGH ORGAN;
#X text 246 106 5 MEDIUM ORGAN;
#X text 246 121 6 LOW ORGAN;
#X text 246 137 7 CUT CRYSTALS 1;
#X text 246 152 8 CUT CRYSTALS 2;
#X text 246 166 9 CUT CRYSTALS 2;
#X text 246 181 10 SNOW;
#X text 246 196 11 SLEET;
#X text 246 211 12 DRIZZLE;
#X text 99 13 SOURCE PRESETS:;
#X text 480 13 SELF:;
#X text 391 31 0 WIND;
#X text 391 47 1 GALE;
#X text 391 62 2 NEST;
#X text 391 77 3 SWARM;
#X text 391 92 4 VENT;
#X text 391 107 5 HISS;
#X text 501 31 0 WHISTLER;
#X text 501 46 1 CONCH;
#X text 501 75 3 HUM 2;
#X text 501 60 2 HUM;
#X text 391 122 6 FLUTE;
#X text 391 136 7 DISS FLUTE;
#X text 391 151 8 PAD;
#X text 391 166 9 PAD;
#X connect 5 0 3 0;
#X connect 6 0 1 0;
#X connect 16 0 2 0;
#X connect 20 0 19 0;
#X connect 21 0 22 0;
#X coords 0 -1 1 1 600 270 2 100 30;
