#N canvas 58 225 1066 519 10;
#X text 853 11 Other \; - gliss \; - stereo \; - absolute/relative
(but also button) \; - reverb \;;
#X obj 101 313 Source-Presets;
#X obj 864 128 Volume-Presets;
#X text 855 155 Volumes \; 1 All Down \; 2 All Up \; 3 One Up \, Two
Down \; 4 One Up \, Two Mid \; 5 Two Up \, One Down \;;
#X obj 864 91 hradio 15 1 0 8 empty empty empty 0 -8 0 10 -262144 -1
-1 0;
#X obj 101 31 vradio 15 1 0 17 empty empty empty 0 -8 0 10 -262144
-1 -1 2;
#X text 117 61 2 ALL SIG \; 3 ALL SELF;
#X text 117 122 6 ONE SELF \; 7 PAIR;
#X text 117 152 8 PAIR & NOISE \; 9 PAIR & SIG \;;
#X text 117 182 10 PAIR & SELF \; 11 DAISY CHAIN;
#X text 117 92 4 ONE NOISE \; 5 ONE SIG;
#X text 117 32 0 ALL OFF \; 1 ALL NOISE;
#X text 117 213 12 DC & NOISE \; 13 DC & SIG;
#X text 117 242 14 DC & SELF \; 15 DC & HALF S;
#X text 117 271 16 ORGY;
#X text 261 13 SIG:;
#X obj 263 370 Elem-Exp-Presets-Sig;
#X obj 263 31 vradio 15 1 0 10 empty empty empty 0 -8 0 10 -262144
-1 -1 0;
#X obj 373 31 vradio 15 1 0 4 empty empty empty 0 -8 0 10 -262144 -1
-1 3;
#X obj 373 343 Elem-Exp-Presets-Self;
#X text 99 13 SOURCE PRESETS:;
#X text 370 13 SELF:;
#X text 281 31 0 WIND;
#X text 281 47 1 GALE;
#X text 281 62 2 NEST;
#X text 281 77 3 SWARM;
#X text 281 92 4 VENT;
#X text 281 107 5 HISS;
#X text 391 31 0 WHISTLER;
#X text 391 46 1 CONCH;
#X text 391 75 3 HUM 2;
#X text 391 60 2 HUM;
#X text 281 122 6 FLUTE;
#X text 281 136 7 DISS FLUTE;
#X text 281 151 8 PAD;
#X text 281 166 9 PAD;
#X connect 4 0 2 0;
#X connect 5 0 1 0;
#X connect 17 0 16 0;
#X connect 18 0 19 0;
#X coords 0 -1 1 1 600 270 2 100 30;
