#N canvas 158 113 1061 636 10;
#X obj 530 576 s gliss-length-exps;
#X obj 499 614 s gliss-length-elems;
#X obj 562 537 s gliss-length-sources;
#X floatatom 530 557 5 0 0 0 - - -, f 5;
#X floatatom 499 596 5 0 0 0 - - -, f 5;
#X floatatom 562 520 5 0 0 0 - - -, f 5;
#X text 143 23 GLISS PRESETS:;
#X obj 137 37 vradio 13 1 0 9 empty empty empty 0 -8 0 10 -262144 -1
-1 7;
#X obj 499 454 Gliss-Length-Converter;
#X obj 530 433 Gliss-Length-Converter;
#X obj 562 412 Gliss-Length-Converter;
#X obj 137 163 nbx 1 20 -1e+37 1e+37 0 0 empty empty empty 0 -8 0 16
-262144 -1 -1 3 256;
#X text 167 167 GLISS EXP;
#X obj 137 231 nbx 4 20 -1e+37 1e+37 0 0 empty empty empty 0 -8 0 16
-262144 -1 -1 1250 256;
#X text 209 236 LONG;
#X obj 137 253 nbx 4 20 -1e+37 1e+37 0 0 empty empty empty 0 -8 0 16
-262144 -1 -1 3500 256;
#X text 209 258 V. LONG;
#X obj 81 2 r init-loadbang;
#X obj 293 229 s gliss-length-medium;
#X obj 293 251 s gliss-length-long;
#X obj 293 273 s gliss-length-verylong;
#X obj 499 367 unpack s s s s;
#X floatatom 594 480 5 0 0 0 - - -, f 5;
#X obj 594 497 s gliss-length-vols;
#X msg 499 336 zero zero zero zero;
#X obj 594 391 Gliss-Length-Converter;
#X msg 565 252 verylong verylong verylong verylong;
#X obj 137 185 nbx 4 20 -1e+37 1e+37 0 0 empty empty empty 0 -8 0 16
-262144 -1 -1 100 256;
#X text 209 190 SHORT;
#X obj 137 209 nbx 4 20 -1e+37 1e+37 0 0 empty empty empty 0 -8 0 16
-262144 -1 -1 750 256;
#X text 209 214 MEDIUM;
#X obj 293 205 s gliss-length-short;
#X obj 326 183 s gliss-exp;
#X obj 356 20 r to_gliss_presets;
#X msg 581 231 zero verylong zero zero;
#X msg 598 210 zero zero verylong zero;
#X msg 515 315 short short short short;
#X msg 532 294 medium medium medium medium;
#X msg 548 273 long long long long;
#X text 151 37 0 E/EX/S/V = 0 \; 1 ALL SHORT \; 2 ALL MEDIUM \; 3 ALL
LONG \; 4 ALL V. LONG \; 5 0/VL/0/0 \; 6 0/0/VL/0 \; 7 0/VL/VL/0 \;
8 0/M/M/0;
#X msg 81 146 3;
#X msg 81 236 3500;
#X msg 81 214 1250;
#X msg 81 192 750;
#X msg 81 168 300;
#X msg 615 189 zero verylong verylong zero;
#X obj 499 154 sel 0 1 2 3 4 5 6 7;
#X msg 642 168 zero medium medium zero;
#X connect 3 0 0 0;
#X connect 4 0 1 0;
#X connect 5 0 2 0;
#X connect 7 0 46 0;
#X connect 8 0 4 0;
#X connect 9 0 3 0;
#X connect 10 0 5 0;
#X connect 11 0 32 0;
#X connect 13 0 19 0;
#X connect 15 0 20 0;
#X connect 17 0 40 0;
#X connect 17 0 44 0;
#X connect 17 0 41 0;
#X connect 17 0 43 0;
#X connect 17 0 42 0;
#X connect 21 0 8 0;
#X connect 21 1 9 0;
#X connect 21 2 10 0;
#X connect 21 3 25 0;
#X connect 22 0 23 0;
#X connect 24 0 21 0;
#X connect 25 0 22 0;
#X connect 26 0 21 0;
#X connect 27 0 31 0;
#X connect 29 0 18 0;
#X connect 33 0 7 0;
#X connect 34 0 21 0;
#X connect 35 0 21 0;
#X connect 36 0 21 0;
#X connect 37 0 21 0;
#X connect 38 0 21 0;
#X connect 40 0 11 0;
#X connect 41 0 15 0;
#X connect 42 0 13 0;
#X connect 43 0 29 0;
#X connect 44 0 27 0;
#X connect 45 0 21 0;
#X connect 46 0 24 0;
#X connect 46 1 36 0;
#X connect 46 2 37 0;
#X connect 46 3 38 0;
#X connect 46 4 26 0;
#X connect 46 5 34 0;
#X connect 46 6 35 0;
#X connect 46 7 45 0;
#X connect 46 8 47 0;
#X connect 47 0 21 0;
#X coords 0 -1 1 1 130 260 2 135 23;
