#N canvas 148 109 809 651 10;
#X obj 482 534 s walker-fader-onoff-1;
#X obj 556 471 s walker-fader-onoff-4;
#X obj 458 555 s walker-fader-onoff-0;
#X obj 531 492 s walker-fader-onoff-3;
#X obj 507 513 s walker-fader-onoff-2;
#X obj 581 450 s walker-fader-onoff-5;
#X obj 33 47 vradio 13 1 0 10 empty empty empty 0 -8 0 10 -262144 -1
-1 0;
#X text 47 46 0 ALL OFF \; 1 ALL WALK \; 2 ELEM WALK \; 3 EXP WALK
\; 4 0&2 WALK \; 5 0&2 ELEM \; 6 0&2 EXP \; 7 1 WALK \; 8 1 ELEM \;
9 1 EXP \;;
#X obj 458 177 sel 0 1 2 3 4 5 6 7 8 9;
#X obj 458 422 unpack f f f f f f;
#X msg 458 399 0 0 0 0 0 0;
#X msg 473 378 1 1 1 1 1 1;
#X msg 489 357 1 1 1 0 0 0;
#X msg 505 336 0 0 0 1 1 1;
#X msg 521 315 1 0 1 1 0 1;
#X msg 568 252 0 1 0 0 1 0;
#X msg 584 231 0 1 0 0 0 0;
#X msg 600 210 0 0 0 0 1 0;
#X obj 35 181 nbx 5 20 -1e+37 1e+37 0 0 empty empty empty 0 -8 0 15
-262144 -1 -1 630 256;
#X text 114 187 RATE;
#X obj 35 206 nbx 5 20 -1e+37 1e+37 0 0 empty empty empty 0 -8 0 15
-262144 -1 -1 3 256;
#X text 114 212 LEAP;
#X obj 276 201 s walker-rate;
#X obj 276 226 s walker-leap;
#X text 41 31 WALKER PRESETS;
#X obj 238 27 r init-loadbang;
#X msg 238 63 350;
#X msg 238 88 30;
#X msg 537 294 1 0 1 0 0 0;
#X msg 552 273 0 0 0 1 0 1;
#X connect 6 0 8 0;
#X connect 8 0 10 0;
#X connect 8 1 11 0;
#X connect 8 2 12 0;
#X connect 8 3 13 0;
#X connect 8 4 14 0;
#X connect 8 5 28 0;
#X connect 8 6 29 0;
#X connect 8 7 15 0;
#X connect 8 8 16 0;
#X connect 8 9 17 0;
#X connect 9 0 2 0;
#X connect 9 1 0 0;
#X connect 9 2 4 0;
#X connect 9 3 3 0;
#X connect 9 4 1 0;
#X connect 9 5 5 0;
#X connect 10 0 9 0;
#X connect 11 0 9 0;
#X connect 12 0 9 0;
#X connect 13 0 9 0;
#X connect 14 0 9 0;
#X connect 15 0 9 0;
#X connect 16 0 9 0;
#X connect 17 0 9 0;
#X connect 18 0 22 0;
#X connect 20 0 23 0;
#X connect 25 0 26 0;
#X connect 25 0 27 0;
#X connect 26 0 18 0;
#X connect 27 0 20 0;
#X connect 28 0 9 0;
#X connect 29 0 9 0;
#X coords 0 -1 1 1 130 260 2 30 30;
