#N canvas 41 101 1283 687 10;
#X text 480 100 GLOBAL PRESETS;
#X obj 464 56 r to_global_presets;
#X obj 594 126 vradio 13 1 0 21 empty empty empty 0 -8 0 10 -262144
-1 -1 0;
#X text 610 230 WIND 2;
#N canvas 173 143 1154 601 global-preset-secondary 0;
#X obj 266 11 inlet;
#X msg 266 559 0 0 0 0 0 0 0 0 0 0 0;
#X obj 266 49 sel 0 1 2 3 4 5 6 7 8 9 10 11 12 13 14 15 16 17 18 19
;
#X text 602 495 3 - HALOS;
#X text 577 475 4 - REEDS;
#X text 598 455 5 - MONICA;
#X msg 358 454 1 159 133 201 355 387 402 1 1 1 1;
#X msg 376 433 1 20 12 13 16 10 10 1 1 1 1;
#X text 575 434 6 - SLEET;
#X text 392 415 SOURCE: NOISE;
#X text 562 212 SOURCE: SIG;
#X msg 394 396 2 16 18 22 7 9 9 1 1 1 1;
#X msg 531 356 2 400 400 400 9.5 9.3 9.5 1 1 1 1;
#X msg 593 292 2 351 355 353 9 9 9 1 1 1 1;
#X msg 576 314 2 353 353 353 8.94 8.97 8.94 1 1 1 1;
#X msg 550 336 2 353 353 353 9.94 9.97 9.94 1 1 1 1;
#X text 836 315 11 - RAYS;
#X text 771 356 9 - GONG 1;
#X msg 505 270 2 100 150 175 50 90 110 1 1 1 1;
#X msg 523 249 2 150 250 299 95 150 189 1 1 1 1;
#X msg 560 194 3 54 55 53 7 7 7 1 1 1 1;
#X text 568 177 SOURCE: SELF;
#X text 788 159 17 - HUM;
#X text 740 195 16 - WHISTLE;
#X text 81 213 2 ALL SIG \; 3 ALL SELF;
#X text 80 266 6 ONE SELF \; 7 PAIR;
#X text 80 292 8 PAIR & NOISE \; 9 PAIR & SIG \;;
#X text 73 318 10 PAIR & SELF \; 11 DAISY CHAIN;
#X text 80 240 4 ONE NOISE \; 5 ONE SIG;
#X text 81 186 0 ALL OFF \; 1 ALL NOISE;
#X text 73 344 12 DAISY CHAIN REVERSE;
#X text 73 412 17 ORGY;
#X text 73 358 13 DC & 0.1 NOISE \; 14 DC & 0.5 SIG;
#X text 73 385 15 DC & SELF \; 16 DC & 0.5 SELF;
#X text 420 561 0 - ALL OFF;
#X text 729 271 13 - CHORD 1;
#X text 754 250 14 - CHORD 2;
#X text 588 142 SOURCE: PAIR;
#X text 621 83 SOURCE: DAISY;
#X msg 597 122 11 400 400 400 25 25 25 1 1 1 1;
#X text 822 123 18 - BACKGROUND;
#X text 11 164 FOR REFERENCE \, SOURCE PRESETS:;
#X text 571 397 7 - SERPENTINE;
#X text 789 293 12 - FLUTES;
#X text 813 338 10 - GONG 2;
#X obj 431 356 t b b;
#X obj 450 336 t b b;
#X obj 468 313 t b b;
#X obj 486 292 t b b;
#X obj 536 292 del 80;
#X obj 518 313 del 80;
#X obj 500 336 del 80;
#X obj 481 356 del 80;
#X msg 339 475 1 401 799 537 999 999 999 1 1 1 1;
#X text 689 377 8 - WIND 2 -----------------------------------------
\;;
#X text 568 538 1 - BLIZZARD ------------------------------- \;;
#X msg 413 376 2 400 200 300 5 4 5 1 1 1 1 150 15 3 0;
#X msg 284 538 1 100 50 80 10 10 10 1 1 1 1 200 30 1 0;
#X msg 302 517 1 6 7 5 26 33 22 1 1 1 1 1000 30 3 0;
#X msg 321 496 1 31 24 18 185 150 115 1 1 1 1 0 0 0 6;
#X text 583 518 2 - IGNITION ----------------------------;
#X msg 66 575 \; to_source_presets \$1 \; fader-0-bypass \$2 \; fader-1-bypass
\$3 \; fader-2-bypass \$4 \; fader-3-bypass \$5 \; fader-4-bypass \$6
\; fader-5-bypass \$7 \; ugen0-external-vol \$8 \; ugen1-external-vol
\$9 \; ugen2-external-vol \$10 \; stereo-mono \$11 \; walker-rate-receive
\$12 \; walker-leap-receive \$13 \; rhythm-presets-receive \$15 \;
walker-preset-bypass \$14 \;;
#X msg 542 228 14 400 600 500 244 359 279 1 1 1 1;
#X text 780 229 15 - CHORD 3 2-------------------;
#X msg 578 158 7 200 0 601 100 0 100 1 0 1 1;
#X msg 615 101 17 400 80 400 40 70 40 1 1 1 1 0 0 0 0;
#X text 901 104 19 - SCREECH----------------;
#X connect 0 0 2 0;
#X connect 1 0 61 0;
#X connect 2 0 1 0;
#X connect 2 1 57 0;
#X connect 2 2 58 0;
#X connect 2 3 59 0;
#X connect 2 4 53 0;
#X connect 2 5 6 0;
#X connect 2 6 7 0;
#X connect 2 7 11 0;
#X connect 2 8 56 0;
#X connect 2 9 45 0;
#X connect 2 10 46 0;
#X connect 2 11 47 0;
#X connect 2 12 48 0;
#X connect 2 13 18 0;
#X connect 2 14 19 0;
#X connect 2 15 62 0;
#X connect 2 16 20 0;
#X connect 2 17 64 0;
#X connect 2 18 39 0;
#X connect 2 19 65 0;
#X connect 6 0 61 0;
#X connect 7 0 61 0;
#X connect 11 0 61 0;
#X connect 12 0 61 0;
#X connect 13 0 61 0;
#X connect 14 0 61 0;
#X connect 15 0 61 0;
#X connect 18 0 61 0;
#X connect 19 0 61 0;
#X connect 20 0 61 0;
#X connect 39 0 61 0;
#X connect 45 0 52 0;
#X connect 45 1 56 0;
#X connect 46 0 51 0;
#X connect 46 1 56 0;
#X connect 47 0 50 0;
#X connect 47 1 56 0;
#X connect 48 0 49 0;
#X connect 48 1 56 0;
#X connect 49 0 13 0;
#X connect 50 0 14 0;
#X connect 51 0 15 0;
#X connect 52 0 12 0;
#X connect 53 0 61 0;
#X connect 56 0 61 0;
#X connect 57 0 61 0;
#X connect 58 0 61 0;
#X connect 59 0 61 0;
#X connect 62 0 61 0;
#X connect 64 0 61 0;
#X connect 65 0 61 0;
#X restore 594 626 pd global-preset-secondary;
#X text 609 138 BLIZZARD;
#X text 609 151 IGNITION;
#X text 608 320 CHORD3 2;
#X text 609 164 SERAPHIM;
#X text 608 372 SCREECH;
#X obj 594 79 r to_secondary_globals;
#X obj 24 166 sel 1;
#X obj 24 582 s to_global_presets;
#X obj 67 187 sel 1;
#X obj 110 208 sel 1;
#X obj 153 229 sel 1;
#X obj 24 144 r mbutton-0;
#X obj 67 166 r mbutton-1;
#X obj 110 187 r mbutton-2;
#X obj 153 208 r mbutton-3;
#X obj 196 251 sel 1;
#X obj 239 272 sel 1;
#X obj 282 293 sel 1;
#X obj 325 314 sel 1;
#X obj 196 229 r mbutton-4;
#X obj 239 251 r mbutton-5;
#X obj 282 272 r mbutton-6;
#X obj 325 293 r mbutton-7;
#X obj 24 276 sel 1;
#X obj 67 297 sel 1;
#X obj 110 318 sel 1;
#X obj 153 339 sel 1;
#X obj 196 361 sel 1;
#X obj 239 382 sel 1;
#X obj 282 403 sel 1;
#X obj 325 424 sel 1;
#X obj 24 254 r rbutton-0;
#X obj 67 276 r rbutton-1;
#X obj 110 297 r rbutton-2;
#X obj 153 318 r rbutton-3;
#X obj 196 339 r rbutton-4;
#X obj 239 361 r rbutton-5;
#X obj 282 382 r rbutton-6;
#X obj 325 403 r rbutton-7;
#X msg 325 445 23;
#X obj 828 195 sel 1;
#X obj 871 216 sel 1;
#X obj 914 237 sel 1;
#X obj 957 258 sel 1;
#X obj 1000 280 sel 1;
#X obj 1043 301 sel 1;
#X obj 1086 322 sel 1;
#X obj 1129 343 sel 1;
#X obj 828 305 sel 1;
#X obj 871 326 sel 1;
#X obj 914 347 sel 1;
#X obj 957 368 sel 1;
#X obj 1000 390 sel 1;
#X obj 1043 411 sel 1;
#X obj 1086 432 sel 1;
#X obj 1129 453 sel 1;
#X obj 828 173 r mbutton-0-mux;
#X obj 871 195 r mbutton-1-mux;
#X obj 914 216 r mbutton-2-mux;
#X obj 957 237 r mbutton-3-mux;
#X obj 1000 258 r mbutton-4-mux;
#X obj 1043 280 r mbutton-5-mux;
#X obj 1086 301 r mbutton-6-mux;
#X obj 1129 322 r mbutton-7-mux;
#X obj 828 283 r rbutton-0-mux;
#X obj 871 305 r rbutton-1-mux;
#X obj 914 326 r rbutton-2-mux;
#X obj 957 347 r rbutton-3-mux;
#X obj 1000 368 r rbutton-4-mux;
#X obj 1043 390 r rbutton-5-mux;
#X obj 1086 411 r rbutton-6-mux;
#X obj 1129 432 r rbutton-7-mux;
#X obj 788 582 s to_secondary_globals;
#X obj 464 126 vradio 13 1 0 22 empty empty empty 0 -8 0 10 -262144
-1 -1 21;
#X obj 960 481 sel 1;
#X obj 1003 502 sel 1;
#X obj 1046 523 sel 1;
#X obj 1089 544 sel 1;
#X obj 831 418 sel 1;
#X obj 874 439 sel 1;
#X obj 917 460 sel 1;
#X obj 788 397 sel 1;
#X obj 788 375 r sbutton-0-mux;
#X obj 831 397 r sbutton-1-mux;
#X obj 874 418 r sbutton-2-mux;
#X obj 917 439 r sbutton-3-mux;
#X obj 960 460 r sbutton-4-mux;
#X obj 1003 481 r sbutton-5-mux;
#X obj 1046 502 r sbutton-6-mux;
#X obj 1089 523 r sbutton-7-mux;
#X msg -263 939 0 0 0 0 0 0 0 0 0 0 0;
#X msg -245 918 1 6 7 5 0 0 0 1 1 1 1;
#X msg -227 897 1 6 7 5 26 33 22 1 1 1 1;
#X obj -98 736 t b b;
#X obj 464 626 Global_Presets;
#X text 490 125 0 ALL OFF \; 1 WHITE \; 2 HALOGEN \; 3 REEDS \; 4 SERPENTINE
\; 5 WIND \; 6 GONG \; 7 RAYS \; 8 FLUTES \; 9 FLOUTS \; 10 CHORD \;
11 CHORD 2 \; 12 WHISTLE \; 13 HUM \; 14 HUM2 \; 15 BACKGROUND \; 16
SIREN \; 17 SIREN 2 \; 18 SALT \; 19 GRIND \; 20 KETTLE \; 21 STATIC
\;;
#X obj 24 396 sel 1;
#X msg 24 417 0;
#X obj 67 417 sel 1;
#X msg 67 438 1;
#X obj 110 438 sel 1;
#X obj 153 459 sel 1;
#X msg 110 459 2;
#X obj 196 481 sel 1;
#X obj 239 502 sel 1;
#X obj 282 523 sel 1;
#X obj 325 544 sel 1;
#X msg 153 480 3;
#X msg 196 502 4;
#X msg 239 523 5;
#X msg 282 544 6;
#X msg 325 565 7;
#X obj 24 374 r sbutton-0;
#X obj 67 396 r sbutton-1;
#X obj 110 417 r sbutton-2;
#X obj 153 438 r sbutton-3;
#X obj 196 459 r sbutton-4;
#X obj 239 481 r sbutton-5;
#X obj 282 502 r sbutton-6;
#X obj 325 523 r sbutton-7;
#X msg 24 187 8;
#X msg 67 208 9;
#X msg 110 229 10;
#X msg 153 250 11;
#X msg 196 272 12;
#X msg 239 293 13;
#X msg 282 314 14;
#X msg 325 335 15;
#X msg 24 297 16;
#X msg 67 318 17;
#X msg 110 339 18;
#X msg 153 360 19;
#X msg 196 382 20;
#X msg 239 403 21;
#X msg 282 424 22;
#X msg 788 418 0;
#X msg 831 439 1;
#X msg 874 461 2;
#X msg 917 481 3;
#X msg 960 502 4;
#X msg 1003 523 5;
#X msg 1046 544 6;
#X msg 1089 565 7;
#X msg 828 216 8;
#X msg 872 237 9;
#X msg 914 258 10;
#X msg 957 279 11;
#X msg 1000 301 12;
#X msg 1043 322 13;
#X msg 1086 343 14;
#X msg 1129 364 15;
#X msg 828 326 16;
#X msg 871 347 17;
#X msg 914 368 18;
#X msg 958 389 19;
#X msg 1000 411 20;
#X msg 1043 432 21;
#X msg 1086 453 22;
#X msg 1129 474 23;
#X connect 1 0 78 0;
#X connect 2 0 4 0;
#X connect 10 0 2 0;
#X connect 11 0 125 0;
#X connect 13 0 126 0;
#X connect 14 0 127 0;
#X connect 15 0 128 0;
#X connect 16 0 11 0;
#X connect 17 0 13 0;
#X connect 18 0 14 0;
#X connect 19 0 15 0;
#X connect 20 0 129 0;
#X connect 21 0 130 0;
#X connect 22 0 131 0;
#X connect 23 0 132 0;
#X connect 24 0 20 0;
#X connect 25 0 21 0;
#X connect 26 0 22 0;
#X connect 27 0 23 0;
#X connect 28 0 133 0;
#X connect 29 0 134 0;
#X connect 30 0 135 0;
#X connect 31 0 136 0;
#X connect 32 0 137 0;
#X connect 33 0 138 0;
#X connect 34 0 139 0;
#X connect 35 0 44 0;
#X connect 36 0 28 0;
#X connect 37 0 29 0;
#X connect 38 0 30 0;
#X connect 39 0 31 0;
#X connect 40 0 32 0;
#X connect 41 0 33 0;
#X connect 42 0 34 0;
#X connect 43 0 35 0;
#X connect 44 0 12 0;
#X connect 45 0 148 0;
#X connect 46 0 149 0;
#X connect 47 0 150 0;
#X connect 48 0 151 0;
#X connect 49 0 152 0;
#X connect 50 0 153 0;
#X connect 51 0 154 0;
#X connect 52 0 155 0;
#X connect 53 0 156 0;
#X connect 54 0 157 0;
#X connect 55 0 158 0;
#X connect 56 0 159 0;
#X connect 57 0 160 0;
#X connect 58 0 161 0;
#X connect 59 0 162 0;
#X connect 60 0 163 0;
#X connect 61 0 45 0;
#X connect 62 0 46 0;
#X connect 63 0 47 0;
#X connect 64 0 48 0;
#X connect 65 0 49 0;
#X connect 66 0 50 0;
#X connect 67 0 51 0;
#X connect 68 0 52 0;
#X connect 69 0 53 0;
#X connect 70 0 54 0;
#X connect 71 0 55 0;
#X connect 72 0 56 0;
#X connect 73 0 57 0;
#X connect 74 0 58 0;
#X connect 75 0 59 0;
#X connect 76 0 60 0;
#X connect 78 0 99 0;
#X connect 79 0 144 0;
#X connect 80 0 145 0;
#X connect 81 0 146 0;
#X connect 82 0 147 0;
#X connect 83 0 141 0;
#X connect 84 0 142 0;
#X connect 85 0 143 0;
#X connect 86 0 140 0;
#X connect 87 0 86 0;
#X connect 88 0 83 0;
#X connect 89 0 84 0;
#X connect 90 0 85 0;
#X connect 91 0 79 0;
#X connect 92 0 80 0;
#X connect 93 0 81 0;
#X connect 94 0 82 0;
#X connect 101 0 102 0;
#X connect 102 0 12 0;
#X connect 103 0 104 0;
#X connect 104 0 12 0;
#X connect 105 0 107 0;
#X connect 106 0 112 0;
#X connect 107 0 12 0;
#X connect 108 0 113 0;
#X connect 109 0 114 0;
#X connect 110 0 115 0;
#X connect 111 0 116 0;
#X connect 112 0 12 0;
#X connect 113 0 12 0;
#X connect 114 0 12 0;
#X connect 115 0 12 0;
#X connect 116 0 12 0;
#X connect 117 0 101 0;
#X connect 118 0 103 0;
#X connect 119 0 105 0;
#X connect 120 0 106 0;
#X connect 121 0 108 0;
#X connect 122 0 109 0;
#X connect 123 0 110 0;
#X connect 124 0 111 0;
#X connect 125 0 12 0;
#X connect 126 0 12 0;
#X connect 127 0 12 0;
#X connect 128 0 12 0;
#X connect 129 0 12 0;
#X connect 130 0 12 0;
#X connect 131 0 12 0;
#X connect 132 0 12 0;
#X connect 133 0 12 0;
#X connect 134 0 12 0;
#X connect 135 0 12 0;
#X connect 136 0 12 0;
#X connect 137 0 12 0;
#X connect 138 0 12 0;
#X connect 139 0 12 0;
#X connect 140 0 77 0;
#X connect 141 0 77 0;
#X connect 142 0 77 0;
#X connect 143 0 77 0;
#X connect 144 0 77 0;
#X connect 145 0 77 0;
#X connect 146 0 77 0;
#X connect 147 0 77 0;
#X connect 148 0 77 0;
#X connect 149 0 77 0;
#X connect 150 0 77 0;
#X connect 151 0 77 0;
#X connect 152 0 77 0;
#X connect 153 0 77 0;
#X connect 154 0 77 0;
#X connect 155 0 77 0;
#X connect 156 0 77 0;
#X connect 157 0 77 0;
#X connect 158 0 77 0;
#X connect 159 0 77 0;
#X connect 160 0 77 0;
#X connect 161 0 77 0;
#X connect 162 0 77 0;
#X connect 163 0 77 0;
#X coords 0 -1 1 1 260 330 2 460 100;
