#N canvas 41 149 866 570 10;
#X obj 571 19 inlet;
#X obj 519 181 >;
#X obj 519 203 t b f;
#X obj 551 239 + 1;
#X obj 551 300 Gate;
#X obj 519 265 random 2;
#X obj 576 326 * -1;
#X floatatom 553 374 5 0 0 0 - - -, f 5;
#X obj 401 74 r walker-rate;
#X obj 341 59 inlet;
#X msg 428 145 set \$1;
#X floatatom 428 167 5 0 0 0 - - -, f 5;
#X obj 341 150 metro 250;
#X obj 624 248 r walker-leap;
#X obj 341 128 tgl 15 0 empty empty empty 17 7 0 10 -262144 -1 -1 0
1;
#X obj 553 396 +;
#X floatatom 502 509 5 0 0 0 - - -, f 5;
#X obj 553 427 t f f;
#X obj 546 471 spigot;
#X obj 585 448 > 0;
#X obj 502 540 outlet;
#X obj 799 121 Gate;
#X obj 175 15 r init-loadbang;
#X obj 517 84 + 1;
#X msg 175 38 0;
#X connect 0 0 21 1;
#X connect 0 0 1 1;
#X connect 0 0 15 1;
#X connect 1 0 2 0;
#X connect 2 0 5 0;
#X connect 2 1 3 0;
#X connect 3 0 4 0;
#X connect 4 0 7 0;
#X connect 4 1 6 0;
#X connect 5 0 4 1;
#X connect 6 0 7 0;
#X connect 7 0 15 0;
#X connect 8 0 12 1;
#X connect 9 0 14 0;
#X connect 10 0 11 0;
#X connect 11 0 1 0;
#X connect 12 0 11 0;
#X connect 13 0 5 1;
#X connect 14 0 12 0;
#X connect 14 0 23 0;
#X connect 15 0 17 0;
#X connect 16 0 10 0;
#X connect 16 0 20 0;
#X connect 17 0 18 0;
#X connect 17 1 19 0;
#X connect 18 0 16 0;
#X connect 19 0 18 1;
#X connect 21 0 16 0;
#X connect 22 0 24 0;
#X connect 23 0 21 0;
#X connect 24 0 14 0;
