#N canvas 78 101 1126 663 10;
#N canvas 0 50 450 250 (subpatch) 0;
#X array array1 8 float 3;
#A 0 0 1 3 2 6 7 5 62;
#X coords 0 20 8 0 200 140 2 0 0;
#X restore 310 205 graph;
#N canvas 41 85 450 250 (subpatch) 0;
#X array array2 10 float 3;
#A 0 49 0 4 1 25 36 16 3721 15625 15129;
#X coords 0 500 10 0 200 140 1 0 0;
#X restore 304 -121 graph;
#N canvas 0 50 450 250 (subpatch) 0;
#X array array3 10 float 3;
#A 0 49 49 53 54 79 115 131 3852 75229 90358;
#X coords 0 2000 10 0 200 140 1 0 0;
#X restore 525 -121 graph;
#N canvas 576 250 536 503 update 0;
#X obj 170 203 t f b;
#X obj 170 271 f;
#X obj 206 271 + 1;
#X msg 241 236 0;
#X msg 170 150 set \$1;
#X floatatom 170 178 5 0 0 0 - - -, f 5;
#X obj 202 390 f;
#X obj 170 389 +;
#X obj 170 358 t f b;
#X floatatom 170 465 5 0 0 0 - - -, f 5;
#X obj 330 203 t f b;
#X obj 330 271 f;
#X obj 366 271 + 1;
#X msg 401 236 0;
#X msg 330 150 set \$1;
#X floatatom 330 178 5 0 0 0 - - -, f 5;
#X obj 170 300 t f f;
#X obj 330 300 t f f;
#X obj 330 363 /;
#X obj 170 94 t f f;
#X obj 73 35 inlet;
#X obj 170 36 inlet;
#X obj 170 332 tabread array2;
#X obj 181 414 tabwrite array3;
#X obj 330 335 tabread array3;
#X obj 330 403 tabwrite array4;
#X obj 170 236 until;
#X obj 330 236 until;
#X obj 73 71 t b b;
#X floatatom 170 74 5 0 0 0 - - -, f 5;
#X connect 0 0 26 0;
#X connect 0 1 3 0;
#X connect 1 0 2 0;
#X connect 1 0 16 0;
#X connect 2 0 1 1;
#X connect 3 0 1 1;
#X connect 3 0 6 1;
#X connect 4 0 5 0;
#X connect 5 0 0 0;
#X connect 6 0 7 1;
#X connect 7 0 6 1;
#X connect 7 0 9 0;
#X connect 7 0 23 0;
#X connect 8 0 7 0;
#X connect 8 1 6 0;
#X connect 9 0 18 1;
#X connect 10 0 27 0;
#X connect 10 1 13 0;
#X connect 11 0 12 0;
#X connect 11 0 17 0;
#X connect 12 0 11 1;
#X connect 13 0 11 1;
#X connect 14 0 15 0;
#X connect 15 0 10 0;
#X connect 16 0 22 0;
#X connect 16 1 23 1;
#X connect 17 0 24 0;
#X connect 17 1 25 1;
#X connect 18 0 25 0;
#X connect 19 0 4 0;
#X connect 19 1 14 0;
#X connect 20 0 28 0;
#X connect 21 0 29 0;
#X connect 22 0 8 0;
#X connect 24 0 18 0;
#X connect 26 0 1 0;
#X connect 27 0 11 0;
#X connect 28 0 15 0;
#X connect 28 1 5 0;
#X connect 29 0 19 0;
#X restore 285 625 pd update;
#N canvas 500 244 510 420 exponentiate 0;
#X obj 186 20 inlet;
#X obj 186 142 until 10;
#X obj 236 20 inlet;
#X msg 236 45 set \$1;
#X floatatom 186 73 5 0 0 0 - - -, f 5;
#X obj 186 181 f;
#X obj 217 180 + 1;
#X msg 252 142 0;
#X obj 186 112 t f b;
#X obj 193 218 t f f;
#X obj 190 287 expr pow($f1 \, $f2);
#X obj 313 20 inlet;
#X obj 190 259 tabread array1;
#X obj 190 315 tabwrite array2;
#X connect 0 0 4 0;
#X connect 1 0 5 0;
#X connect 2 0 3 0;
#X connect 3 0 4 0;
#X connect 4 0 8 0;
#X connect 5 0 6 0;
#X connect 5 0 9 0;
#X connect 6 0 5 1;
#X connect 7 0 5 1;
#X connect 8 0 1 0;
#X connect 8 1 7 0;
#X connect 9 0 12 0;
#X connect 9 1 13 1;
#X connect 10 0 13 0;
#X connect 11 0 10 1;
#X connect 12 0 10 0;
#X restore 22 635 pd exponentiate;
#N canvas 0 50 450 250 (subpatch) 0;
#X array array4 10 float 3;
#A 0 0.0127207 0.0127207 0.0137591 0.0140187 0.0205088 0.0298546 0.0340083
1 0.832566 1;
#X coords 0 1 10 0 200 140 1 0 0;
#X restore 746 -121 graph;
#N canvas 647 101 669 609 findindex 0;
#X floatatom 280 346 5 0 0 0 - - -, f 5;
#X obj 163 278 f;
#X msg 211 249 0;
#X obj 149 44 t b b f;
#X obj 163 302 t f f;
#X floatatom 213 484 5 0 0 0 - - -, f 5;
#X obj 199 278 + 1;
#X msg 260 172 set \$1;
#X floatatom 149 189 5 0 0 0 - - -, f 5;
#X msg 213 446 set \$1;
#X obj 149 23 inlet;
#X obj 260 26 inlet;
#X obj 163 328 tabread array4;
#X obj 163 232 until;
#X obj 163 390 t f f;
#X obj 164 419 sel 0;
#X obj 213 565 outlet;
#X obj 213 520 spigot;
#X obj 155 453 t b b;
#X msg 155 503 1;
#X obj 155 483 del 10;
#X obj 163 360 <;
#X connect 0 0 21 1;
#X connect 1 0 4 0;
#X connect 1 0 6 0;
#X connect 2 0 1 1;
#X connect 3 0 8 0;
#X connect 3 1 2 0;
#X connect 3 2 0 0;
#X connect 4 0 12 0;
#X connect 4 1 9 0;
#X connect 5 0 17 0;
#X connect 6 0 1 1;
#X connect 7 0 8 0;
#X connect 8 0 13 0;
#X connect 9 0 5 0;
#X connect 10 0 3 0;
#X connect 11 0 7 0;
#X connect 12 0 21 0;
#X connect 13 0 1 0;
#X connect 14 0 17 1;
#X connect 14 1 15 0;
#X connect 15 0 18 0;
#X connect 17 0 16 0;
#X connect 18 0 20 0;
#X connect 18 1 5 0;
#X connect 19 0 17 1;
#X connect 20 0 19 0;
#X connect 21 0 14 0;
#X restore 666 571 pd findindex;
#N canvas 692 277 450 488 increment 0;
#X obj 88 103 t f b;
#X msg 206 83 set \$1;
#X floatatom 206 158 5 0 0 0 - - -, f 5;
#X obj 206 184 until 10;
#X obj 206 212 f;
#X obj 242 212 + 1;
#X obj 206 271 tabread array1;
#X obj 206 299 + 1;
#X obj 206 327 tabwrite array1;
#X obj 206 240 t f f;
#X obj 206 51 inlet;
#X obj 88 156 t b f;
#X msg 67 188 0;
#X obj 88 50 inlet;
#X obj 67 216 tabwrite array1;
#X obj 226 120 t b b;
#X msg 280 184 0;
#X connect 0 0 11 0;
#X connect 0 1 15 0;
#X connect 1 0 2 0;
#X connect 2 0 3 0;
#X connect 3 0 4 0;
#X connect 4 0 5 0;
#X connect 4 0 9 0;
#X connect 5 0 4 1;
#X connect 6 0 7 0;
#X connect 7 0 8 0;
#X connect 9 0 6 0;
#X connect 9 1 8 1;
#X connect 10 0 1 0;
#X connect 11 0 12 0;
#X connect 11 1 14 1;
#X connect 12 0 14 0;
#X connect 13 0 0 0;
#X connect 15 0 2 0;
#X connect 15 1 16 0;
#X connect 16 0 4 1;
#X restore 666 644 pd increment;
#X obj 345 604 r numelems;
#X obj 747 623 r numelems;
#X obj 747 550 r numelems;
#X obj 285 583 r bangupdate;
#X obj 491 574 s bangexponentiate;
#X obj 468 595 s bangupdate;
#X floatatom -81 509 5 0 0 0 - - -, f 5;
#X obj -81 527 s numelems;
#X obj 73 593 r numelems;
#X obj 22 572 r bangexponentiate;
#X obj -81 467 loadbang;
#X obj 445 616 s floatnext;
#X obj 666 530 r floatnext;
#N canvas 488 147 863 617 drivers 0;
#X obj 185 324 random 999;
#X obj 185 352 / 1000;
#X msg 264 268 set \$1;
#X floatatom 359 285 5 0 0 0 - - -, f 5;
#X obj 359 353 /;
#X obj 377 302 r numelems;
#X obj 377 330 - 1;
#X obj 391 406 == 0;
#X obj 359 519 +;
#X obj 359 571 outlet;
#X floatatom 541 404 5 0 0 0 - - -, f 5;
#X obj 571 347 /;
#X obj 589 304 r numelems;
#X msg 571 375 set \$1;
#X obj 541 537 +;
#X obj 541 425 t f f;
#X obj 359 380 t f f;
#X obj 185 192 spigot;
#X obj 359 114 metro 250;
#X obj 359 192 spigot;
#X obj 391 434 sel 1;
#X floatatom 391 490 5 0 0 0 - - -, f 5;
#X msg 431 462 set \$1;
#X text 427 331 epsilon;
#X text 262 222 single value;
#X obj 541 192 spigot;
#X obj 571 261 r rhythmoutput;
#X obj 573 446 == 0;
#X msg 673 485 set \$1;
#X floatatom 559 502 5 0 0 0 - - -, f 5;
#X obj 44 51 sel 0 1 2 3;
#X msg 44 147 0 0 0;
#X obj 44 175 unpack f f f;
#X msg 62 126 1 0 0;
#X msg 81 105 0 1 0;
#X msg 99 84 0 0 1;
#X obj 359 58 tgl 15 0 empty empty empty 17 7 0 10 -262144 -1 -1 1
1;
#X obj 431 350 r rhythmepsilon;
#X obj 264 241 r rhythmsinglevalue;
#X obj 359 23 r rhythmstartstop;
#X obj 419 54 r rhythmrate;
#X obj 44 23 r rhythmmode;
#X obj 673 409 r rhythmepsilon;
#X obj 589 326 - 1;
#X msg 596 520 0;
#X obj 573 474 sel 1 0;
#X connect 0 0 1 0;
#X connect 1 0 9 0;
#X connect 2 0 3 0;
#X connect 3 0 4 0;
#X connect 4 0 16 0;
#X connect 5 0 6 0;
#X connect 6 0 4 1;
#X connect 7 0 20 0;
#X connect 8 0 9 0;
#X connect 10 0 15 0;
#X connect 11 0 13 0;
#X connect 12 0 43 0;
#X connect 13 0 10 0;
#X connect 14 0 9 0;
#X connect 15 0 14 0;
#X connect 15 1 27 0;
#X connect 16 0 8 0;
#X connect 16 1 7 0;
#X connect 17 0 0 0;
#X connect 18 0 17 0;
#X connect 18 0 19 0;
#X connect 18 0 25 0;
#X connect 19 0 3 0;
#X connect 20 0 21 0;
#X connect 21 0 8 1;
#X connect 22 0 21 0;
#X connect 25 0 10 0;
#X connect 26 0 11 0;
#X connect 27 0 45 0;
#X connect 28 0 29 0;
#X connect 29 0 14 1;
#X connect 30 0 31 0;
#X connect 30 1 33 0;
#X connect 30 2 34 0;
#X connect 30 3 35 0;
#X connect 31 0 32 0;
#X connect 32 0 17 1;
#X connect 32 1 19 1;
#X connect 32 2 25 1;
#X connect 33 0 32 0;
#X connect 34 0 32 0;
#X connect 35 0 32 0;
#X connect 36 0 18 0;
#X connect 37 0 22 0;
#X connect 38 0 2 0;
#X connect 39 0 36 0;
#X connect 40 0 18 1;
#X connect 41 0 30 0;
#X connect 42 0 28 0;
#X connect 43 0 11 1;
#X connect 44 0 14 1;
#X connect 45 0 29 0;
#X connect 45 1 44 0;
#X restore 445 518 pd drivers;
#X msg -81 488 8;
#X obj 674 598 s rhythmoutput;
#X obj 28 233 s rhythmstartstop;
#X obj 183 213 tgl 20 0 empty empty empty 17 7 0 10 -262144 -1 -1 1
1;
#X obj 240 213 nbx 3 20 -1e+37 1e+37 0 0 empty empty empty 0 -8 0 15
-262144 -1 -1 112 256;
#X obj 531 233 s rhythmrate;
#X obj 240 249 nbx 3 20 -1e+37 1e+37 0 0 empty empty empty 0 -8 0 15
-262144 -1 -1 0 256;
#X obj 240 285 nbx 3 20 -1e+37 1e+37 0 0 empty empty empty 0 -8 0 15
-262144 -1 -1 0.01 256;
#X obj 720 269 s rhythmsinglevalue;
#X obj 531 305 s rhythmepsilon;
#X obj 28 296 s rhythmmode;
#X text 158 200 Start/Stop;
#X text 249 200 Rate;
#X text 232 234 Single Val;
#X text 238 270 Epsilon;
#X obj 161 317 nbx 3 20 -1e+37 1e+37 0 0 empty empty empty 0 -8 0 15
-262144 -1 -1 2 256;
#X text 172 302 Exp;
#X obj 124 614 r rhythmexponent;
#X obj 28 337 s rhythmexponent;
#X obj 187 436 r rhythmoutput;
#X obj 162 484 Gate;
#N canvas 175 140 840 620 rhythmtriage 1;
#X obj 365 49 inlet;
#X obj 365 77 sel 0 1 2 3 4 5 6 7;
#X msg 365 565 \; rhythm-vol-0 \$1;
#X msg 365 544 0;
#X msg 387 523 1;
#X msg 405 440 0;
#X msg 427 419 1;
#X msg 405 461 \; rhythm-vol-1 \$1;
#X msg 446 336 0;
#X msg 468 314 1;
#X msg 446 357 \; rhythm-vol-2 \$1;
#X msg 413 182 1 1 1;
#X msg 430 161 0 0 0;
#X msg 462 119 1 0 1;
#X msg 478 98 0 0 0;
#X obj 365 266 unpack f f f;
#X obj 44 19 inlet;
#X obj 44 45 sel 0 1 2 3 4 5 6 7;
#X msg 44 213 0;
#X msg 60 190 4;
#X msg 76 171 5;
#X msg 92 150 10;
#X msg 109 129 11;
#X msg 125 108 13;
#X msg 141 87 14;
#X msg 157 66 15;
#X obj 44 301 s to_global_presets;
#X obj 606 49 inlet;
#X obj 629 133 == 1;
#X obj 652 161 == 2;
#X obj 606 161 == 0;
#X obj 606 77 t f f f;
#X msg 606 214 3;
#X obj 654 183 loadbang;
#X obj 446 294 sel 0 1;
#X obj 405 398 sel 0 1;
#X obj 365 502 sel 0 1;
#X msg 365 245 1 0 0;
#X msg 381 224 0 1 0;
#X msg 397 203 0 0 1;
#X obj 191 128 inlet;
#X obj 191 154 sel 0 1 2 3 4 5 6 7;
#X msg 191 322 0;
#X obj 191 410 s to_global_presets;
#X msg 207 299 1;
#X msg 223 280 2;
#X msg 239 259 3;
#X msg 256 238 6;
#X msg 272 217 7;
#X msg 288 196 18;
#X msg 304 175 22;
#X text 648 214 To reset all ugen \; output levels to 1;
#X msg 446 140 0 0 0;
#X connect 0 0 1 0;
#X connect 1 0 37 0;
#X connect 1 1 38 0;
#X connect 1 2 39 0;
#X connect 1 3 11 0;
#X connect 1 4 12 0;
#X connect 1 5 52 0;
#X connect 1 6 13 0;
#X connect 1 7 14 0;
#X connect 3 0 2 0;
#X connect 4 0 2 0;
#X connect 5 0 7 0;
#X connect 6 0 7 0;
#X connect 8 0 10 0;
#X connect 9 0 10 0;
#X connect 11 0 15 0;
#X connect 12 0 15 0;
#X connect 13 0 15 0;
#X connect 14 0 15 0;
#X connect 15 0 36 0;
#X connect 15 1 35 0;
#X connect 15 2 34 0;
#X connect 16 0 17 0;
#X connect 17 0 18 0;
#X connect 17 1 19 0;
#X connect 17 2 20 0;
#X connect 17 3 21 0;
#X connect 17 4 22 0;
#X connect 17 5 23 0;
#X connect 17 6 24 0;
#X connect 17 7 25 0;
#X connect 18 0 26 0;
#X connect 19 0 26 0;
#X connect 20 0 26 0;
#X connect 21 0 26 0;
#X connect 22 0 26 0;
#X connect 23 0 26 0;
#X connect 24 0 26 0;
#X connect 25 0 26 0;
#X connect 27 0 31 0;
#X connect 29 0 32 0;
#X connect 30 0 32 0;
#X connect 31 0 30 0;
#X connect 31 1 28 0;
#X connect 31 2 29 0;
#X connect 32 0 1 0;
#X connect 33 0 32 0;
#X connect 34 0 8 0;
#X connect 34 1 9 0;
#X connect 35 0 5 0;
#X connect 35 1 6 0;
#X connect 36 0 3 0;
#X connect 36 1 4 0;
#X connect 37 0 15 0;
#X connect 38 0 15 0;
#X connect 39 0 15 0;
#X connect 40 0 41 0;
#X connect 41 0 42 0;
#X connect 41 1 44 0;
#X connect 41 2 45 0;
#X connect 41 3 46 0;
#X connect 41 4 47 0;
#X connect 41 5 48 0;
#X connect 41 6 49 0;
#X connect 41 7 50 0;
#X connect 42 0 43 0;
#X connect 44 0 43 0;
#X connect 45 0 43 0;
#X connect 46 0 43 0;
#X connect 47 0 43 0;
#X connect 48 0 43 0;
#X connect 49 0 43 0;
#X connect 50 0 43 0;
#X connect 52 0 15 0;
#X restore 162 537 pd rhythmtriage;
#X obj 273 330 tgl 15 0 empty empty empty 17 7 0 10 -262144 -1 -1 1
1;
#X text 264 313 Vols.;
#X obj 230 486 Gate;
#X obj -172 300 r rhythmexponent-receive;
#X obj -172 196 r rhythmstartstop-receive;
#X obj -172 227 r rhythmmode-receive;
#X obj -172 331 r rhythmpreset-receive;
#X obj 720 196 r rhythmrate-receive;
#X obj 720 232 r rhythmsinglevalue-receive;
#X obj 531 268 r rhythmepsilon-receive;
#X msg -27 56 \; rhythmmode-receive \$1 \; rhythmexponent-receive \$2
\; rhythmpreset-receive \$3 \; rhythmrate-receive \$4 \; rhythmsinglevalue-receive
\$5 \; rhythmepsilon-receive \$6 \;;
#X obj 720 313 r rhythmvolume-receive;
#X msg -27 -89 1 12 1 175 0 0.01 0;
#X msg -19 -68 2 2 1 175 0 0.001 0;
#X obj 232 461 t f f;
#X msg 26 -22;
#X obj 161 244 vradio 13 1 0 4 empty empty empty 0 -8 0 10 -262144
-1 -1 2;
#X text 176 242 Off \; Rand \; Sing \; Feed;
#X obj 161 348 vradio 13 1 0 3 empty empty empty 0 -8 0 10 -262144
-1 -1 0;
#X text 175 347 Off \; Tones \; Noises \;;
#X obj 445 546 t f b b;
#X connect 6 0 7 0;
#X connect 6 0 23 0;
#X connect 8 0 3 1;
#X connect 9 0 7 1;
#X connect 10 0 6 1;
#X connect 11 0 3 0;
#X connect 14 0 15 0;
#X connect 16 0 4 1;
#X connect 17 0 4 0;
#X connect 18 0 22 0;
#X connect 20 0 6 0;
#X connect 21 0 64 0;
#X connect 22 0 14 0;
#X connect 25 0 24 0;
#X connect 26 0 27 0;
#X connect 28 0 30 0;
#X connect 29 0 31 0;
#X connect 37 0 40 0;
#X connect 39 0 4 2;
#X connect 41 0 42 1;
#X connect 41 0 46 1;
#X connect 42 0 43 0;
#X connect 42 1 43 1;
#X connect 44 0 58 0;
#X connect 46 0 43 2;
#X connect 47 0 37 0;
#X connect 48 0 25 0;
#X connect 49 0 60 0;
#X connect 50 0 62 0;
#X connect 51 0 26 0;
#X connect 52 0 28 0;
#X connect 53 0 29 0;
#X connect 55 0 44 0;
#X connect 56 0 54 0;
#X connect 57 0 54 0;
#X connect 58 0 46 0;
#X connect 58 1 43 3;
#X connect 60 0 32 0;
#X connect 62 0 42 0;
#X connect 64 0 19 0;
#X connect 64 1 13 0;
#X connect 64 2 12 0;
#X coords 0 -1 1 1 360 200 2 155 200;
