#N canvas 126 100 1237 660 10;
#N canvas 0 50 450 250 (subpatch) 0;
#X array array1 10 float 3;
#A 0 7 6 0 5 4 1 2 3 126 124;
#X coords 0 50 10 0 200 140 1 0 0;
#X restore 133 31 graph;
#N canvas 41 85 450 250 (subpatch) 0;
#X array array2 10 float 3;
#A 0 1296 625 2401 256 81 0 1 16 15625 15129;
#X coords 0 500 10 0 200 140 1 0 0;
#X restore 354 31 graph;
#N canvas 0 50 450 250 (subpatch) 0;
#X array array3 10 float 3;
#A 0 1296 1921 4322 4578 4659 4659 4660 4676 75229 90358;
#X coords 0 2000 10 0 200 140 1 0 0;
#X restore 575 31 graph;
#N canvas 582 242 536 503 update 0;
#X obj 170 203 t f b;
#X obj 170 271 f;
#X obj 206 271 + 1;
#X msg 241 236 0;
#X msg 170 150 set \$1;
#X floatatom 170 178 5 0 0 0 - - -, f 5;
#X obj 202 390 f;
#X obj 170 389 +;
#X obj 170 358 t f b;
#X floatatom 170 465 5 0 0 0 - - -, f 5;
#X obj 330 203 t f b;
#X obj 330 271 f;
#X obj 366 271 + 1;
#X msg 401 236 0;
#X msg 330 150 set \$1;
#X floatatom 330 178 5 0 0 0 - - -, f 5;
#X obj 170 300 t f f;
#X obj 330 300 t f f;
#X obj 330 363 /;
#X obj 170 94 t f f;
#X obj 73 35 inlet;
#X obj 170 36 inlet;
#X obj 170 332 tabread array2;
#X obj 181 414 tabwrite array3;
#X obj 330 335 tabread array3;
#X obj 330 403 tabwrite array4;
#X obj 170 236 until;
#X obj 330 236 until;
#X obj 73 71 t b b;
#X floatatom 170 74 5 0 0 0 - - -, f 5;
#X connect 0 0 26 0;
#X connect 0 1 3 0;
#X connect 1 0 2 0;
#X connect 1 0 16 0;
#X connect 2 0 1 1;
#X connect 3 0 1 1;
#X connect 3 0 6 1;
#X connect 4 0 5 0;
#X connect 5 0 0 0;
#X connect 6 0 7 1;
#X connect 7 0 6 1;
#X connect 7 0 9 0;
#X connect 7 0 23 0;
#X connect 8 0 7 0;
#X connect 8 1 6 0;
#X connect 9 0 18 1;
#X connect 10 0 27 0;
#X connect 10 1 13 0;
#X connect 11 0 12 0;
#X connect 11 0 17 0;
#X connect 12 0 11 1;
#X connect 13 0 11 1;
#X connect 14 0 15 0;
#X connect 15 0 10 0;
#X connect 16 0 22 0;
#X connect 16 1 23 1;
#X connect 17 0 24 0;
#X connect 17 1 25 1;
#X connect 18 0 25 0;
#X connect 19 0 4 0;
#X connect 19 1 14 0;
#X connect 20 0 28 0;
#X connect 21 0 29 0;
#X connect 22 0 8 0;
#X connect 24 0 18 0;
#X connect 26 0 1 0;
#X connect 27 0 11 0;
#X connect 28 0 15 0;
#X connect 28 1 5 0;
#X connect 29 0 19 0;
#X restore 325 585 pd update;
#N canvas 512 228 510 420 exponentiate 0;
#X obj 186 20 inlet;
#X obj 186 142 until 10;
#X obj 236 20 inlet;
#X msg 236 45 set \$1;
#X floatatom 186 73 5 0 0 0 - - -, f 5;
#X obj 186 181 f;
#X obj 217 180 + 1;
#X msg 252 142 0;
#X obj 186 112 t f b;
#X obj 193 218 t f f;
#X obj 190 287 expr pow($f1 \, $f2);
#X obj 313 20 inlet;
#X obj 190 259 tabread array1;
#X obj 190 315 tabwrite array2;
#X connect 0 0 4 0;
#X connect 1 0 5 0;
#X connect 2 0 3 0;
#X connect 3 0 4 0;
#X connect 4 0 8 0;
#X connect 5 0 6 0;
#X connect 5 0 9 0;
#X connect 6 0 5 1;
#X connect 7 0 5 1;
#X connect 8 0 1 0;
#X connect 8 1 7 0;
#X connect 9 0 12 0;
#X connect 9 1 13 1;
#X connect 10 0 13 0;
#X connect 11 0 10 1;
#X connect 12 0 10 0;
#X restore 132 585 pd exponentiate;
#X floatatom 234 567 5 0 0 0 - - -, f 5;
#X obj 234 525 loadbang;
#X msg 234 546 2;
#N canvas 0 50 450 250 (subpatch) 0;
#X array array4 10 float 3;
#A 0 0.27716 0.410821 0.924294 0.979042 0.996364 0.996364 0.996578
1 0.832566 1;
#X coords 0 1 10 0 200 140 1 0 0;
#X restore 796 31 graph;
#N canvas 513 142 669 609 findindex 0;
#X floatatom 280 346 5 0 0 0 - - -, f 5;
#X obj 163 278 f;
#X msg 211 249 0;
#X obj 149 130 t b b f;
#X obj 163 302 t f f;
#X floatatom 213 484 5 0 0 0 - - -, f 5;
#X obj 199 278 + 1;
#X msg 260 160 set \$1;
#X floatatom 149 189 5 0 0 0 - - -, f 5;
#X msg 213 446 set \$1;
#X obj 149 23 inlet;
#X obj 260 26 inlet;
#X obj 163 328 tabread array4;
#X obj 163 232 until;
#X obj 163 390 t f f;
#X obj 164 419 sel 0;
#X obj 213 565 outlet;
#X obj 213 520 spigot;
#X obj 155 453 t b b;
#X msg 155 503 1;
#X obj 155 483 del 10;
#X obj 163 360 <;
#X connect 0 0 21 1;
#X connect 1 0 4 0;
#X connect 1 0 6 0;
#X connect 2 0 1 1;
#X connect 3 0 8 0;
#X connect 3 1 2 0;
#X connect 3 2 0 0;
#X connect 4 0 12 0;
#X connect 4 1 9 0;
#X connect 5 0 17 0;
#X connect 6 0 1 1;
#X connect 7 0 8 0;
#X connect 8 0 13 0;
#X connect 9 0 5 0;
#X connect 10 0 3 0;
#X connect 11 0 7 0;
#X connect 12 0 21 0;
#X connect 13 0 1 0;
#X connect 14 0 17 1;
#X connect 14 1 15 0;
#X connect 15 0 18 0;
#X connect 17 0 16 0;
#X connect 18 0 20 0;
#X connect 18 1 5 0;
#X connect 19 0 17 1;
#X connect 20 0 19 0;
#X connect 21 0 14 0;
#X restore 699 451 pd findindex;
#N canvas 695 273 450 488 increment 0;
#X obj 88 103 t f b;
#X msg 206 83 set \$1;
#X floatatom 206 158 5 0 0 0 - - -, f 5;
#X obj 206 184 until 10;
#X obj 206 212 f;
#X obj 242 212 + 1;
#X obj 206 271 tabread array1;
#X obj 206 299 + 1;
#X obj 206 327 tabwrite array1;
#X obj 206 240 t f f;
#X obj 206 51 inlet;
#X obj 88 156 t b f;
#X msg 67 188 0;
#X obj 88 50 inlet;
#X obj 67 216 tabwrite array1;
#X obj 226 120 t b b;
#X msg 280 184 0;
#X connect 0 0 11 0;
#X connect 0 1 15 0;
#X connect 1 0 2 0;
#X connect 2 0 3 0;
#X connect 3 0 4 0;
#X connect 4 0 5 0;
#X connect 4 0 9 0;
#X connect 5 0 4 1;
#X connect 6 0 7 0;
#X connect 7 0 8 0;
#X connect 9 0 6 0;
#X connect 9 1 8 1;
#X connect 10 0 1 0;
#X connect 11 0 12 0;
#X connect 11 1 14 1;
#X connect 12 0 14 0;
#X connect 13 0 0 0;
#X connect 15 0 2 0;
#X connect 15 1 16 0;
#X connect 16 0 4 1;
#X restore 699 559 pd increment;
#X obj 385 544 r numelems;
#X obj 780 534 r numelems;
#X obj 780 423 r numelems;
#X obj 910 514 print output;
#X obj 325 519 r bangupdate;
#X obj 401 430 s bangexponentiate;
#X obj 378 458 s bangupdate;
#X floatatom 957 242 5 0 0 0 - - -, f 5;
#X obj 957 260 s numelems;
#X obj 183 501 r numelems;
#X obj 132 476 r bangexponentiate;
#X obj 957 200 loadbang;
#X obj 355 486 s floatnext;
#X obj 699 399 r floatnext;
#X obj 355 406 t f b b;
#N canvas 303 340 863 300 drivers 0;
#X obj 75 54 random 999;
#X obj 75 82 / 1000;
#X msg 303 50 set \$1;
#X floatatom 249 75 5 0 0 0 - - -, f 5;
#X obj 249 143 /;
#X obj 267 92 r numelems;
#X obj 267 120 - 1;
#X obj 267 196 == 0;
#X obj 267 224 / 10000;
#X obj 249 247 +;
#X obj 249 271 outlet;
#X obj 75 26 inlet;
#X obj 249 26 inlet;
#X obj 303 23 inlet;
#X obj 431 28 inlet;
#X floatatom 431 134 5 0 0 0 - - -, f 5;
#X obj 512 27 inlet;
#X obj 431 77 /;
#X obj 449 54 r numelems;
#X msg 431 105 set \$1;
#X obj 463 179 == 0;
#X obj 449 204 / 10000;
#X obj 431 227 +;
#X obj 431 155 t f f;
#X obj 249 170 t f f;
#X connect 0 0 1 0;
#X connect 1 0 10 0;
#X connect 2 0 3 0;
#X connect 3 0 4 0;
#X connect 4 0 24 0;
#X connect 5 0 6 0;
#X connect 6 0 4 1;
#X connect 7 0 8 0;
#X connect 8 0 9 1;
#X connect 9 0 10 0;
#X connect 11 0 0 0;
#X connect 12 0 3 0;
#X connect 13 0 2 0;
#X connect 14 0 17 0;
#X connect 15 0 23 0;
#X connect 16 0 15 0;
#X connect 17 0 19 0;
#X connect 18 0 17 1;
#X connect 19 0 15 0;
#X connect 20 0 21 0;
#X connect 21 0 22 1;
#X connect 22 0 10 0;
#X connect 23 0 22 0;
#X connect 23 1 20 0;
#X connect 24 0 9 0;
#X connect 24 1 7 0;
#X restore 355 273 pd drivers;
#X obj 371 250 bng 15 250 50 0 empty empty empty 17 7 0 10 -262144
-1 -1;
#X obj 355 230 bng 15 250 50 0 empty empty empty 17 7 0 10 -262144
-1 -1;
#X floatatom 405 229 5 0 0 0 - - -, f 5;
#X obj 422 248 bng 15 250 50 0 empty empty empty 17 7 0 10 -262144
-1 -1;
#X msg 957 221 8;
#X obj 485 231 metro 100;
#X obj 485 208 tgl 15 0 empty empty empty 17 7 0 10 -262144 -1 -1 0
1;
#X obj 405 202 loadbang;
#X connect 5 0 4 2;
#X connect 6 0 7 0;
#X connect 7 0 5 0;
#X connect 9 0 10 0;
#X connect 9 0 14 0;
#X connect 9 0 26 2;
#X connect 11 0 3 1;
#X connect 12 0 10 1;
#X connect 13 0 9 1;
#X connect 15 0 3 0;
#X connect 18 0 19 0;
#X connect 20 0 4 1;
#X connect 21 0 4 0;
#X connect 22 0 31 0;
#X connect 24 0 9 0;
#X connect 25 0 23 0;
#X connect 25 1 17 0;
#X connect 25 2 16 0;
#X connect 26 0 25 0;
#X connect 27 0 26 1;
#X connect 28 0 26 0;
#X connect 29 0 26 3;
#X connect 30 0 26 4;
#X connect 31 0 18 0;
#X connect 32 0 30 0;
#X connect 33 0 32 0;
#X connect 34 0 29 0;
