#N canvas 67 744 1759 307 10;
#X text 369 66 BigC Freq/Diff: 349 \, 131 or 70;
#X text 369 84 971 freq \, 130 diff. - Amp either 0.4 or 0.1;
#X obj 1103 43 s current_instruction_length;
#X msg 1306 380 reset;
#X obj 898 12 r current_instruction;
#X msg 898 33 set \$1;
#X msg 898 54 variabledistance;
#X text 693 6 expand \; contract \; turn off lin/pol \; horizontal
\; retract (linearlly) \; vertical \; triangle (linearlly) \; then
slow spin;
#X obj 37 137;
#X msg 1306 401 center;
#X msg 1306 422 expand_random;
#X msg 1306 443 stabilize;
#X msg 1103 25 0;
#X msg 1306 506 contract;
#X msg 1306 527 horizontal;
#X msg 1306 548 vertical;
#X msg 1306 568 triangle;
#X msg 1133 25 2000;
#X obj 199 92 s liner_exponent;
#X obj 4 122 GEM-Center_sfgem;
#X msg 1306 464 wind_up_1;
#X msg 1306 485 unwind_1;
#X msg 1463 359 wind_up_1;
#X msg 1463 380 unwind_1;
#X msg 1463 401 expand_simple;
#X msg 199 63 1;
#X msg 1463 422 facial;
#X msg 1463 443 wind_up_simple;
#X msg 1463 464 unwind_simple;
#X msg 1172 25 800;
#X obj 199 34 loadbang;
#X msg 1463 485 scuff;
#X text 883 93 size 1.5 \, distance 1.8.;
#X msg 4 64 rand_swap;
#X msg 1204 25 400;
#X obj 1103 93 s aux_instruction;
#X msg 1103 75 0.2;
#X msg 1201 75 -0.3;
#X msg 1463 506 variablespin;
#X msg 1137 75 0;
#X msg 1463 548 variabletrade;
#X msg 1169 75 1;
#X msg 1463 527 variableswap;
#X msg 1463 569 linpol;
#X msg 1103 4 10000;
#X text 69 65 Delete?;
#X msg 1306 359 random_locations;
#X obj 1306 597 s commander_sfgem;
#X obj 4 93 r commander_sfgem;
#X obj 1463 597 s commander_sfgem;
#X msg 1580 400 mirror_triangle;
#X obj 1580 597 s commander_sfgem;
#X msg 1244 71 3;
#X msg 1580 359 wind_up_3;
#X msg 1580 380 unwind_3;
#X msg 1580 421 variabledistance;
#X msg 1580 442 random_single;
#X msg 1247 21 300;
#X obj 1153 341 sel 0 1 2 3 4 5 6 7 8 9 10;
#X obj 1324 323 - 11;
#X obj 1324 341 sel 0 1 2 3 4 5 6 7 8 9 10;
#X obj 1505 341 sel 0 1 2 3 4;
#X obj 1505 323 - 11;
#X obj 1401 243 statfeed;
#X msg 1423 191 27;
#X floatatom 1457 191 5 0 0 0 - - -, f 5;
#X obj 1401 102 bng 15 250 50 0 empty empty empty 17 7 0 10 -262144
-1 -1;
#X obj 1401 37 tgl 15 0 empty empty empty 17 7 0 10 -262144 -1 -1 1
1;
#X floatatom 1413 287 5 0 0 0 - - -, f 5;
#X obj 1401 129 random 999;
#X obj 1401 158 / 999;
#X obj 1401 73 metro 500;
#X obj 1529 53 random 5;
#X text 1501 101 Add: - size \; - distance \; - size \; - individual
spin \; - mirroring \; - faster disruptor \; \; \; \; most important:
reduce the number \; of total so that a repeating pattern \; can be
detected. \; Then do single-value version \; Maybe also feedback version...
;
#X connect 3 0 47 0;
#X connect 4 0 5 0;
#X connect 5 0 6 0;
#X connect 9 0 47 0;
#X connect 10 0 47 0;
#X connect 11 0 47 0;
#X connect 12 0 2 0;
#X connect 13 0 47 0;
#X connect 14 0 47 0;
#X connect 15 0 47 0;
#X connect 16 0 47 0;
#X connect 17 0 2 0;
#X connect 20 0 47 0;
#X connect 21 0 47 0;
#X connect 22 0 49 0;
#X connect 23 0 49 0;
#X connect 24 0 49 0;
#X connect 25 0 18 0;
#X connect 26 0 49 0;
#X connect 27 0 49 0;
#X connect 28 0 49 0;
#X connect 29 0 2 0;
#X connect 30 0 25 0;
#X connect 31 0 49 0;
#X connect 33 0 19 0;
#X connect 34 0 2 0;
#X connect 36 0 35 0;
#X connect 37 0 35 0;
#X connect 38 0 49 0;
#X connect 39 0 35 0;
#X connect 40 0 49 0;
#X connect 41 0 35 0;
#X connect 42 0 49 0;
#X connect 43 0 49 0;
#X connect 44 0 2 0;
#X connect 46 0 47 0;
#X connect 48 0 19 0;
#X connect 50 0 51 0;
#X connect 52 0 35 0;
#X connect 53 0 51 0;
#X connect 54 0 51 0;
#X connect 55 0 51 0;
#X connect 56 0 51 0;
#X connect 57 0 2 0;
#X connect 58 0 46 0;
#X connect 58 1 16 0;
#X connect 58 2 15 0;
#X connect 58 3 14 0;
#X connect 58 4 13 0;
#X connect 58 5 21 0;
#X connect 58 6 20 0;
#X connect 58 7 11 0;
#X connect 58 8 10 0;
#X connect 58 9 9 0;
#X connect 58 10 3 0;
#X connect 58 11 59 0;
#X connect 59 0 60 0;
#X connect 60 0 43 0;
#X connect 60 1 40 0;
#X connect 60 2 42 0;
#X connect 60 3 38 0;
#X connect 60 4 31 0;
#X connect 60 5 28 0;
#X connect 60 6 27 0;
#X connect 60 7 26 0;
#X connect 60 8 24 0;
#X connect 60 9 23 0;
#X connect 60 10 22 0;
#X connect 60 11 62 0;
#X connect 61 0 56 0;
#X connect 61 1 55 0;
#X connect 61 2 50 0;
#X connect 61 3 54 0;
#X connect 61 4 53 0;
#X connect 62 0 61 0;
#X connect 63 0 68 0;
#X connect 64 0 63 1;
#X connect 65 0 63 2;
#X connect 66 0 69 0;
#X connect 66 0 72 0;
#X connect 67 0 71 0;
#X connect 68 0 58 0;
#X connect 69 0 70 0;
#X connect 70 0 63 0;
#X connect 71 0 66 0;
#X connect 72 0 35 0;
