#N canvas 67 793 1759 285 10;
#X text 369 66 BigC Freq/Diff: 349 \, 131 or 70;
#X text 369 84 971 freq \, 130 diff. - Amp either 0.4 or 0.1;
#X obj 1103 43 s current_instruction_length;
#X msg 1331 77 reset;
#X obj 898 12 r current_instruction;
#X msg 898 33 set \$1;
#X msg 898 54 rese;
#X text 693 6 expand \; contract \; turn off lin/pol \; horizontal
\; retract (linearlly) \; vertical \; triangle (linearlly) \; then
slow spin;
#X obj 37 137;
#X msg 1331 98 center;
#X msg 1331 119 expand_random;
#X msg 1331 140 stabilize;
#X msg 1103 25 0;
#X msg 1331 203 contract;
#X msg 1331 224 horizontal;
#X msg 1331 245 vertical;
#X msg 1331 265 triangle;
#X msg 1133 25 2000;
#X obj 199 92 s liner_exponent;
#X obj 4 122 GEM-Center_sfgem;
#X msg 1331 161 wind_up_1;
#X msg 1331 182 unwind_1;
#X msg 1448 56 wind_up_1;
#X msg 1448 77 unwind_1;
#X msg 1448 98 expand_simple;
#X msg 199 63 1;
#X msg 1448 119 facial;
#X msg 1448 140 wind_up_simple;
#X msg 1448 161 unwind_simple;
#X msg 1172 25 800;
#X obj 199 34 loadbang;
#X msg 1448 182 scuff;
#X text 883 93 size 1.5 \, distance 1.8.;
#X msg 4 64 rand_swap;
#X msg 1204 25 400;
#X obj 1103 93 s aux_instruction;
#X msg 1103 75 0.2;
#X msg 1201 75 -0.3;
#X msg 1448 203 variablespin;
#X msg 1137 75 0;
#X msg 1448 245 variabletrade;
#X msg 1169 75 1;
#X msg 1448 224 variableswap;
#X msg 1448 266 linpol;
#X msg 1565 98 wind_up_3;
#X msg 1103 4 10000;
#X text 69 65 Delete?;
#X msg 1565 56 facial2;
#X msg 1565 77 snap_wind;
#X msg 1331 56 random_locations;
#X obj 1331 294 s commander_sfgem;
#X obj 4 93 r commander_sfgem;
#X obj 1448 294 s commander_sfgem;
#X msg 1565 118 mirror_triangle;
#X obj 1565 294 s commander_sfgem;
#X msg 1565 139 random_locations_2;
#X connect 3 0 50 0;
#X connect 4 0 5 0;
#X connect 5 0 6 0;
#X connect 9 0 50 0;
#X connect 10 0 50 0;
#X connect 11 0 50 0;
#X connect 12 0 2 0;
#X connect 13 0 50 0;
#X connect 14 0 50 0;
#X connect 15 0 50 0;
#X connect 16 0 50 0;
#X connect 17 0 2 0;
#X connect 20 0 50 0;
#X connect 21 0 50 0;
#X connect 22 0 52 0;
#X connect 23 0 52 0;
#X connect 24 0 52 0;
#X connect 25 0 18 0;
#X connect 26 0 52 0;
#X connect 27 0 52 0;
#X connect 28 0 52 0;
#X connect 29 0 2 0;
#X connect 30 0 25 0;
#X connect 31 0 52 0;
#X connect 33 0 19 0;
#X connect 34 0 2 0;
#X connect 36 0 35 0;
#X connect 37 0 35 0;
#X connect 38 0 52 0;
#X connect 39 0 35 0;
#X connect 40 0 52 0;
#X connect 41 0 35 0;
#X connect 42 0 52 0;
#X connect 43 0 52 0;
#X connect 44 0 54 0;
#X connect 45 0 2 0;
#X connect 47 0 54 0;
#X connect 48 0 54 0;
#X connect 49 0 50 0;
#X connect 51 0 19 0;
#X connect 53 0 54 0;
#X connect 55 0 54 0;
