#N canvas 67 777 1759 303 10;
#X text 382 295 BigC Freq/Diff: 349 \, 131 or 70;
#X text 382 313 971 freq \, 130 diff. - Amp either 0.4 or 0.1;
#X obj 199 92 s liner_exponent;
#X obj 4 121 GEM-Center_sfgem;
#X msg 199 63 1;
#X obj 199 34 loadbang;
#X text 883 93 size 1.5 \, distance 1.8.;
#X obj 4 92 r commander_sfgem;
#X msg 446 49 rhythmer_1;
#X obj 639 83 s current_instruction_length;
#X msg 633 45 120000;
#X connect 4 0 2 0;
#X connect 5 0 4 0;
#X connect 7 0 3 0;
#X connect 8 0 3 0;
#X connect 10 0 9 0;
