#N canvas 67 895 1759 185 10;
#X obj 4 21 GEM-Center_sfgem;
#X text 1317 74 BigC Freq/Diff: 349 \, 131 or 70;
#X text 1319 139 971 freq \, 130 diff. - Amp either 0.4 or 0.1;
#X text 1323 94 add everything to instructor \; test textfile reader
;
#X obj 1313 44 s current_instruction_length;
#X msg 881 3 reset;
#X msg 931 3 fadein;
#X msg 987 3 random;
#X msg 1042 3 random_metro;
#X msg 1134 3 blowup;
#X msg 1189 3 expand;
#X msg 1248 3 contract;
#X msg 760 3 big_circle_appear;
#X obj 1372 11 r current_instruction;
#X msg 1569 29 set \$1;
#X msg 1622 17 end;
#X msg 681 3 horizontal;
#X msg 624 3 return;
#X msg 1313 15 3000;
#X connect 5 0 0 0;
#X connect 6 0 0 0;
#X connect 7 0 0 0;
#X connect 8 0 0 0;
#X connect 9 0 0 0;
#X connect 10 0 0 0;
#X connect 11 0 0 0;
#X connect 12 0 0 0;
#X connect 13 0 14 0;
#X connect 14 0 15 0;
#X connect 16 0 0 0;
#X connect 17 0 0 0;
#X connect 18 0 4 0;
