#N canvas 67 668 1657 380 10;
#X text 1496 501 BigC Freq/Diff: 349 \, 131 or 70;
#X text 1494 516 971 freq \, 130 diff. - Amp either 0.4 or 0.1;
#X obj 954 595 s liner_exponent;
#X obj 8 -51 GEM-Center_sfgem;
#X msg 954 567 1;
#X obj 1325 72 s current_instruction_length;
#X obj 1637 370 s new_frame_rate;
#X msg 1325 54 2000;
#X msg 1360 54 15000;
#X obj 1325 25 s aux_instruction;
#X msg 1325 7 5;
#X msg 1358 7 0;
#X msg 1637 341 40;
#X obj 1637 406 instructor_presets;
#X text 1635 389 For easy editing:;
#X text 1473 542 Make sure to press a few keys to seed the [random].
;
#X msg 1398 7 3.5;
#X msg 1439 6 1.5;
#X floatatom 1012 567 5 0 0 0 - - -, f 5;
#X obj 1018 572 r rotate_speed_0;
#X floatatom 1018 601 5 0 0 0 - - -, f 5;
#X obj 907 572 r rotate0;
#X floatatom 907 615 5 0 0 0 - - -, f 5;
#X obj 907 594 unpack f f f;
#X floatatom 941 615 5 0 0 0 - - -, f 5;
#X floatatom 976 615 5 0 0 0 - - -, f 5;
#X obj 919 734 s rotate0;
#X obj 919 711 pack f f f;
#X floatatom 919 669 5 0 0 0 - - -, f 5;
#X obj 919 689 t b f;
#X obj 1018 685 s rotate_speed_0;
#X floatatom 1018 658 5 0 0 0 - - -, f 5;
#X msg 1018 629 set \$1;
#X msg 919 642 set \$1;
#X obj 915 619 s disrupt_onoff;
#X msg 915 590 0;
#X msg 1400 54 5000;
#X text 87 740 Only 1 Wind-Up: should take current SPIN and add an
integer to it. The integer should be the AUX instruction. Then UNWIND
should take its SPIN value as the new aux value...;
#X text 43 519 TIMED:;
#X text 32 383 INSTANTS:;
#X text 102 455 VAR TRADE \; VAR SWAP \; VAR SPIN \; VAR SPIN DIFF
(use AUX as index of possibilities) \; VAR DISTANCE \; VAR DISTANCE
DIFF (use AUX...) \; VAR SIZE \; VAR SIZE DIFF (use AUX) \; -- \; 7
buttons for TRADES \; and 1 for 360 SPIN \; -- \; RAND LOCATIONS (use
AUX to set some kind of limits...) \; MIRRORING (control) \; DISRUPTOR
(control) \; TOGGLE AMP \; SWAP (forward \, back \, cycle) \;;
#X text 96 683 SPECIAL: - Expand Random (slow \, pulsing outward) \;
- Contract Random? - Expand Spiral (3 diff rates \, sizes \, diestances)
\; - Newton's Balls... back and forth \, different timings \; -;
#X text 114 344 RESET \; WINDUP (using spin-additive) \; LINPOL (aux)
\; MIRRORING (aux) \; DISRUPT (use AUX as index of possibilities \,
with 0 = off) \; STAYTIME (aux) \; LINEAR EXPONENT (aux) \; 8...?;
#X text 285 322 PRESETS;
#X text 239 444 TO DO: \; - Put -1 = 999: in Instructor \;;
#X obj 954 539 loadbang;
#X obj 1496 187 s all_spigots_0;
#X obj 1536 217 s all_spigots_1;
#X obj 1556 247 s all_spigots_2;
#X obj 1694 182 tgl 15 0 empty empty empty 17 7 0 10 -262144 -1 -1
0 1;
#X obj 690 450 s ctl-0;
#X floatatom 690 422 5 0 0 0 - - -, f 5;
#X obj 1344 225 s amplitude0;
#X floatatom 1344 205 5 0 0 0 - - -, f 5;
#X obj 1539 311 s toggle_amp;
#X obj 1549 288 tgl 15 0 empty empty empty 17 7 0 10 -262144 -1 -1
0 1;
#X obj 900 468 s rotate0;
#X msg 896 330 0 0 0;
#X obj 901 443 pack f f f;
#X floatatom 904 418 5 0 0 0 - - -, f 5;
#X floatatom 940 400 5 0 0 0 - - -, f 5;
#X floatatom 978 414 5 0 0 0 - - -, f 5;
#X obj 908 386 bng 15 250 50 0 empty empty empty 17 7 0 10 -262144
-1 -1;
#X obj 949 380 bng 15 250 50 0 empty empty empty 17 7 0 10 -262144
-1 -1;
#X obj 895 351 unpack f f f;
#X floatatom 1170 421 5 0 0 0 - - -, f 5;
#X obj 1346 395 s reset_phase0;
#X obj 1355 356 bng 15 250 50 0 empty empty empty 17 7 0 10 -262144
-1 -1;
#X obj 1166 478 s phase_0;
#X floatatom 1344 245 5 0 0 0 - - -, f 5;
#X obj 1344 265 s amplitude1;
#X obj 1402 335 s scope_1_inlet;
#X msg 1398 307 draw points;
#X floatatom 1434 245 5 0 0 0 - - -, f 5;
#X obj 1434 265 s amplitude2;
#X obj 1321 134 s freeze_orbit_0;
#X obj 1457 113 tgl 15 0 empty empty empty 17 7 0 10 -262144 -1 -1
1 1;
#X obj 1454 146 tgl 15 0 empty empty empty 17 7 0 10 -262144 -1 -1
1 1;
#X obj 1453 178 tgl 15 0 empty empty empty 17 7 0 10 -262144 -1 -1
1 1;
#X obj 1321 154 s freeze_orbit_1;
#X obj 1321 174 s freeze_orbit_2;
#X obj 1531 80 tgl 15 0 empty empty empty 17 7 0 10 -262144 -1 -1 1
1;
#X connect 4 0 2 0;
#X connect 7 0 5 0;
#X connect 8 0 5 0;
#X connect 10 0 9 0;
#X connect 11 0 9 0;
#X connect 12 0 6 0;
#X connect 16 0 9 0;
#X connect 17 0 9 0;
#X connect 18 0 2 0;
#X connect 19 0 20 0;
#X connect 20 0 32 0;
#X connect 21 0 23 0;
#X connect 23 0 22 0;
#X connect 23 1 24 0;
#X connect 23 2 25 0;
#X connect 25 0 33 0;
#X connect 27 0 26 0;
#X connect 28 0 29 0;
#X connect 29 0 27 0;
#X connect 29 1 27 2;
#X connect 31 0 30 0;
#X connect 32 0 31 0;
#X connect 33 0 28 0;
#X connect 35 0 34 0;
#X connect 36 0 5 0;
#X connect 45 0 4 0;
#X connect 45 0 35 0;
#X connect 49 0 46 0;
#X connect 49 0 47 0;
#X connect 49 0 48 0;
#X connect 51 0 50 0;
#X connect 53 0 52 0;
#X connect 55 0 54 0;
#X connect 57 0 64 0;
#X connect 58 0 56 0;
#X connect 59 0 58 0;
#X connect 60 0 58 1;
#X connect 60 0 62 0;
#X connect 61 0 58 2;
#X connect 61 0 63 0;
#X connect 62 0 59 0;
#X connect 63 0 60 0;
#X connect 64 0 59 0;
#X connect 64 1 60 0;
#X connect 64 2 61 0;
#X connect 65 0 68 0;
#X connect 67 0 66 0;
#X connect 69 0 70 0;
#X connect 72 0 71 0;
#X connect 73 0 74 0;
#X connect 76 0 75 0;
#X connect 77 0 79 0;
#X connect 78 0 80 0;
#X connect 81 0 76 0;
#X connect 81 0 77 0;
#X connect 81 0 78 0;
