#N canvas 67 873 1759 207 10;
#X obj 4 21 GEM-Center_sfgem;
#X text 1317 74 BigC Freq/Diff: 349 \, 131 or 70;
#X text 1319 139 971 freq \, 130 diff. - Amp either 0.4 or 0.1;
#X text 1323 94 add everything to instructor \; test textfile reader
;
#X obj 1313 44 s current_instruction_length;
#X msg 881 3 reset;
#X msg 931 3 fadein;
#X msg 987 3 random;
#X msg 1042 3 random_metro;
#X msg 1134 3 blowup;
#X msg 1189 3 expand;
#X msg 1248 3 contract;
#X msg 760 3 big_circle_appear;
#X obj 1372 11 r current_instruction;
#X msg 1569 29 set \$1;
#X msg 1622 17 end;
#X msg 681 3 horizontal;
#X msg 624 3 return;
#X text 1594 81 expand \; contract \; turn off lin/pol \; horizontal
\; retract (linearlly) \; vertical \; triangle (linearlly) \; then
slow spin;
#X msg 527 3 expand_random;
#X msg 412 3 expand_stabilize;
#X msg 302 3 polar_to_linear;
#X obj 123 184 r tester0-0;
#X obj 213 184 r tester1-0;
#X obj 883 184 r tester2-0;
#X obj 973 184 r tester3-0;
#X obj 303 184 r tester0-1;
#X obj 393 184 r tester1-1;
#X obj 1053 184 r tester2-1;
#X obj 1143 184 r tester3-1;
#X obj 482 184 r tester0-2;
#X obj 572 184 r tester1-2;
#X obj 1232 184 r tester2-2;
#X obj 1322 184 r tester3-2;
#X floatatom 123 213 5 0 0 0 - - -, f 5;
#X floatatom 212 213 5 0 0 0 - - -, f 5;
#X floatatom 883 213 5 0 0 0 - - -, f 5;
#X floatatom 973 213 5 0 0 0 - - -, f 5;
#X floatatom 303 213 5 0 0 0 - - -, f 5;
#X floatatom 392 213 5 0 0 0 - - -, f 5;
#X floatatom 1053 213 5 0 0 0 - - -, f 5;
#X floatatom 1143 213 5 0 0 0 - - -, f 5;
#X floatatom 483 213 5 0 0 0 - - -, f 5;
#X floatatom 572 213 5 0 0 0 - - -, f 5;
#X floatatom 1233 213 5 0 0 0 - - -, f 5;
#X floatatom 1323 213 5 0 0 0 - - -, f 5;
#X obj 1445 189 r from_trader_switchers;
#X obj 1437 225 bng 15 250 50 0 empty empty empty 17 7 0 10 -262144
-1 -1;
#X msg 1314 15 30000;
#X connect 5 0 0 0;
#X connect 6 0 0 0;
#X connect 7 0 0 0;
#X connect 8 0 0 0;
#X connect 9 0 0 0;
#X connect 10 0 0 0;
#X connect 11 0 0 0;
#X connect 12 0 0 0;
#X connect 13 0 14 0;
#X connect 14 0 15 0;
#X connect 16 0 0 0;
#X connect 17 0 0 0;
#X connect 19 0 0 0;
#X connect 20 0 0 0;
#X connect 21 0 0 0;
#X connect 22 0 34 0;
#X connect 23 0 35 0;
#X connect 24 0 36 0;
#X connect 25 0 37 0;
#X connect 26 0 38 0;
#X connect 27 0 39 0;
#X connect 28 0 40 0;
#X connect 29 0 41 0;
#X connect 30 0 42 0;
#X connect 31 0 43 0;
#X connect 32 0 44 0;
#X connect 33 0 45 0;
#X connect 46 0 47 0;
#X connect 48 0 4 0;
