#N canvas 67 844 1848 231 10;
#X text 1457 152 BigC Freq/Diff: 349 \, 131 or 70;
#X text 1455 167 971 freq \, 130 diff. - Amp either 0.4 or 0.1;
#X obj 1324 179 s liner_exponent;
#X obj 14 30 GEM-Center_sfgem;
#X msg 1324 161 1;
#X obj 1324 143 loadbang;
#X msg 372 311 rhythmer_1;
#X obj 1324 104 s current_instruction_length;
#X obj 1521 58 s new_frame_rate;
#X msg 44 221 reset;
#X msg 44 239 center;
#X msg 202 221 expand_simple;
#X msg 1324 86 2000;
#X msg 202 239 facial;
#X msg 1359 86 15000;
#X obj 1324 47 s aux_instruction;
#X msg 1324 29 5;
#X msg 1357 29 0;
#X msg 1521 29 40;
#X obj 1521 104 instructor_presets;
#X obj 44 466 s instruction_bypass;
#X msg 44 257 expand_random;
#X msg 44 293 random_locations;
#X msg 44 275 stabilize;
#X msg 44 311 wind_up_1;
#X msg 44 329 unwind_1;
#X msg 44 347 contract;
#X msg 44 365 horizontal;
#X msg 44 383 vertical;
#X msg 44 401 triangle;
#X msg 44 419 wind_up_2;
#X msg 44 437 unwind_2;
#X text 1519 87 For easy editing:;
#X text 46 200 OVERTURE;
#X msg 202 257 wind_up_simple;
#X msg 202 275 unwind_simple;
#X msg 202 293 scuff;
#X msg 202 329 variabletrade;
#X msg 202 347 variableswap;
#X msg 202 365 linpol;
#X text 204 199 WINDY;
#X msg 372 221 wind_up_3;
#X msg 372 239 unwind_3;
#X msg 372 257 mirror_triangle;
#X msg 372 275 variabledistance;
#X msg 372 293 random_single;
#X msg 202 311 variablespin;
#X msg 372 329 variablesize;
#X obj 202 448 t a;
#X obj 372 448 t a;
#X text 375 199 ORBIT;
#X text 22 6 Make sure to press a few keys to seed the [random].;
#X connect 4 0 2 0;
#X connect 5 0 4 0;
#X connect 6 0 49 0;
#X connect 9 0 20 0;
#X connect 10 0 20 0;
#X connect 11 0 48 0;
#X connect 12 0 7 0;
#X connect 13 0 48 0;
#X connect 14 0 7 0;
#X connect 16 0 15 0;
#X connect 17 0 15 0;
#X connect 18 0 8 0;
#X connect 21 0 20 0;
#X connect 22 0 20 0;
#X connect 23 0 20 0;
#X connect 24 0 20 0;
#X connect 25 0 20 0;
#X connect 26 0 20 0;
#X connect 27 0 20 0;
#X connect 28 0 20 0;
#X connect 29 0 20 0;
#X connect 30 0 20 0;
#X connect 31 0 20 0;
#X connect 34 0 48 0;
#X connect 35 0 48 0;
#X connect 36 0 48 0;
#X connect 37 0 48 0;
#X connect 38 0 48 0;
#X connect 39 0 48 0;
#X connect 41 0 49 0;
#X connect 42 0 49 0;
#X connect 43 0 49 0;
#X connect 44 0 49 0;
#X connect 45 0 49 0;
#X connect 46 0 48 0;
#X connect 47 0 49 0;
#X connect 48 0 20 0;
#X connect 49 0 20 0;
