#N canvas 41 168 1184 589 10;
#X obj 348 674 dac~;
#X obj 284 38 r~ ugen0;
#X obj 284 91 *~;
#X obj 644 81 *~;
#X obj 457 81 *~;
#X obj 283 251 lop~ 300;
#X obj 23 89 vsl 15 128 0 100 0 0 empty empty empty 0 -9 0 10 -262144
-1 -1 0 1;
#X obj 23 234 * 10;
#X obj 23 63 / 4;
#X obj 23 7 r fadertrim-7;
#X obj 143 89 vsl 15 128 0 1 0 0 empty empty empty 0 -9 0 10 -262144
-1 -1 12700 1;
#X obj 143 7 r fadertrim-6;
#X obj 143 63 / 400;
#X floatatom 143 624 5 0 0 0 - - -, f 5;
#X obj 458 251 lop~ 300;
#X obj 643 251 lop~ 300;
#X obj 282 458 *~;
#X obj 313 458 *~;
#X obj 282 510 throw~ dac-left;
#X obj 320 555 catch~ dac-left;
#X obj 381 577 catch~ dac-right;
#X obj 314 486 throw~ dac-right;
#X obj 321 638 *~;
#X obj 382 638 *~;
#X obj 459 458 *~;
#X obj 490 458 *~;
#X obj 459 510 throw~ dac-left;
#X obj 491 486 throw~ dac-right;
#X obj 642 458 *~;
#X obj 673 458 *~;
#X obj 642 510 throw~ dac-left;
#X obj 674 486 throw~ dac-right;
#X obj 31 345 r sbutton-6;
#X obj 31 368 sel 127;
#X obj 41 438 sel 127;
#X obj 41 415 r mbutton-6;
#X msg 31 391 1;
#X msg 41 469 0;
#X obj 31 499 s stereo-mono;
#X obj 456 37 r~ ugen1;
#X obj 644 37 r~ ugen2;
#X obj 685 418 stereo-lining;
#X floatatom 817 251 5 0 0 0 - - -, f 5;
#X obj 801 129 loadbang;
#X msg 801 197 500;
#X text 806 153 Transition time b/t \; stereo and mono;
#X obj 324 326 sel 0 1;
#X obj 840 309 r stereo-mono;
#X obj 319 418 stereo-lining;
#X obj 497 418 stereo-lining;
#X obj 524 326 sel 0 1;
#X obj 714 326 sel 0 1;
#X obj 17 321 loadbang;
#X obj 34 33 r low-pass-all;
#X obj 155 32 r volume-all;
#X obj 199 63 loadbang;
#X msg 199 90 400;
#X msg 547 373 0.5 0.5;
#X text 174 296 Need to make the amplitude not go above 1 for each
side...;
#X obj 840 342 bng 15 250 50 0 empty empty empty 17 7 0 10 -262144
-1 -1;
#X msg 324 348 0.33 0.33;
#X msg 524 348 0.33 0.33;
#X msg 714 348 0.33 0.33;
#X msg 346 372 0.5 0;
#X msg 737 372 0 0.5;
#X obj 1102 417 switch~;
#X obj 1102 384 > 0;
#X obj 1102 252 r ugen-0-dsp;
#X obj 1102 272 r ugen-1-dsp;
#X obj 1102 292 r ugen-2-dsp;
#X obj 1102 353 expr $f1 + $f2 + $f3;
#X obj 1207 323 t b f;
#X obj 1138 323 t b f;
#X obj 882 204 r stereo-mono-transition-time;
#X obj 302 58 r ugen0-external-vol-2;
#X obj 475 57 r ugen1-external-vol-2;
#X obj 662 57 r ugen2-external-vol-2;
#X obj 284 154 *~;
#X obj 457 154 *~;
#X obj 644 154 *~;
#X obj 475 123 r rhythm-vol-1;
#X obj 302 123 r rhythm-vol-0;
#X obj 662 123 r rhythm-vol-2;
#X obj 321 603 freeverb~;
#X msg 870 628 roomsize \$1;
#X msg 897 588 damping \$1;
#X msg 924 547 width \$1;
#X msg 951 508 wet \$1;
#X msg 979 469 dry \$1;
#X msg 740 657 bypass \$1;
#X obj 177 586 r to_freeverb;
#X obj 850 674 s to_freeverb;
#X floatatom 870 609 5 0 0 0 - - -, f 5;
#X floatatom 897 568 5 0 0 0 - - -, f 5;
#X floatatom 924 529 5 0 0 0 - - -, f 5;
#X floatatom 951 490 5 0 0 0 - - -, f 5;
#X floatatom 979 451 5 0 0 0 - - -, f 5;
#X obj 870 375 loadbang;
#X obj 870 419 unpack f f f f f;
#X obj 740 630 r reverb-bypass;
#X obj 292 176 s~ to-GEM-0;
#X obj 466 176 s~ to-GEM-1;
#X obj 651 176 s~ to-GEM-2;
#X msg 870 398 0.7 0.3 0.75 0.3 0.8;
#X connect 1 0 2 0;
#X connect 2 0 77 0;
#X connect 3 0 79 0;
#X connect 4 0 78 0;
#X connect 5 0 16 0;
#X connect 5 0 17 0;
#X connect 6 0 7 0;
#X connect 7 0 5 1;
#X connect 7 0 14 1;
#X connect 7 0 15 1;
#X connect 8 0 6 0;
#X connect 9 0 8 0;
#X connect 10 0 13 0;
#X connect 11 0 12 0;
#X connect 12 0 10 0;
#X connect 13 0 22 1;
#X connect 13 0 23 1;
#X connect 14 0 24 0;
#X connect 14 0 25 0;
#X connect 15 0 28 0;
#X connect 15 0 29 0;
#X connect 16 0 18 0;
#X connect 17 0 21 0;
#X connect 19 0 83 0;
#X connect 20 0 83 1;
#X connect 22 0 0 0;
#X connect 23 0 0 1;
#X connect 24 0 26 0;
#X connect 25 0 27 0;
#X connect 28 0 30 0;
#X connect 29 0 31 0;
#X connect 32 0 33 0;
#X connect 33 0 36 0;
#X connect 34 0 37 0;
#X connect 35 0 34 0;
#X connect 36 0 38 0;
#X connect 37 0 38 0;
#X connect 39 0 4 0;
#X connect 40 0 3 0;
#X connect 41 0 28 1;
#X connect 41 1 29 1;
#X connect 42 0 41 1;
#X connect 42 0 49 1;
#X connect 42 0 48 1;
#X connect 43 0 44 0;
#X connect 44 0 42 0;
#X connect 46 0 60 0;
#X connect 46 1 63 0;
#X connect 47 0 46 0;
#X connect 47 0 50 0;
#X connect 47 0 51 0;
#X connect 47 0 59 0;
#X connect 48 0 16 1;
#X connect 48 1 17 1;
#X connect 49 0 24 1;
#X connect 49 1 25 1;
#X connect 50 0 61 0;
#X connect 50 1 57 0;
#X connect 51 0 62 0;
#X connect 51 1 64 0;
#X connect 52 0 36 0;
#X connect 53 0 8 0;
#X connect 54 0 12 0;
#X connect 55 0 56 0;
#X connect 56 0 12 0;
#X connect 57 0 49 0;
#X connect 60 0 48 0;
#X connect 61 0 49 0;
#X connect 62 0 41 0;
#X connect 63 0 48 0;
#X connect 64 0 41 0;
#X connect 66 0 65 0;
#X connect 67 0 71 0;
#X connect 68 0 72 0;
#X connect 69 0 70 0;
#X connect 70 0 66 0;
#X connect 71 0 70 0;
#X connect 71 1 70 2;
#X connect 72 0 70 0;
#X connect 72 1 70 1;
#X connect 73 0 42 0;
#X connect 74 0 2 1;
#X connect 75 0 4 1;
#X connect 76 0 3 1;
#X connect 77 0 5 0;
#X connect 77 0 100 0;
#X connect 78 0 14 0;
#X connect 78 0 101 0;
#X connect 79 0 15 0;
#X connect 79 0 102 0;
#X connect 80 0 78 1;
#X connect 81 0 77 1;
#X connect 82 0 79 1;
#X connect 83 0 22 0;
#X connect 83 1 23 0;
#X connect 84 0 91 0;
#X connect 85 0 91 0;
#X connect 86 0 91 0;
#X connect 87 0 91 0;
#X connect 88 0 91 0;
#X connect 89 0 91 0;
#X connect 90 0 83 0;
#X connect 92 0 84 0;
#X connect 93 0 85 0;
#X connect 94 0 86 0;
#X connect 95 0 87 0;
#X connect 96 0 88 0;
#X connect 97 0 103 0;
#X connect 98 0 92 0;
#X connect 98 1 93 0;
#X connect 98 2 94 0;
#X connect 98 3 95 0;
#X connect 98 4 96 0;
#X connect 99 0 89 0;
#X connect 103 0 98 0;
