#N canvas 140 109 1170 641 10;
#X obj 358 619 dac~;
#X obj 284 48 r~ ugen0;
#X obj 284 91 *~;
#X obj 644 81 *~;
#X obj 457 81 *~;
#X obj 283 251 lop~ 300;
#X obj 23 89 vsl 15 128 0 100 0 0 empty empty empty 0 -9 0 10 -262144
-1 -1 0 1;
#X obj 23 234 * 10;
#X obj 23 63 / 4;
#X obj 23 7 r fadertrim-7;
#X obj 143 89 vsl 15 128 0 1 0 0 empty empty empty 0 -9 0 10 -262144
-1 -1 12700 1;
#X obj 143 7 r fadertrim-6;
#X obj 143 63 / 400;
#X floatatom 143 584 5 0 0 0 - - -, f 5;
#X obj 458 251 lop~ 300;
#X obj 643 251 lop~ 300;
#X obj 282 458 *~;
#X obj 313 458 *~;
#X obj 282 510 throw~ dac-left;
#X obj 357 555 catch~ dac-left;
#X obj 381 577 catch~ dac-right;
#X obj 314 486 throw~ dac-right;
#X obj 358 598 *~;
#X obj 382 598 *~;
#X obj 459 458 *~;
#X obj 490 458 *~;
#X obj 459 510 throw~ dac-left;
#X obj 491 486 throw~ dac-right;
#X obj 642 458 *~;
#X obj 673 458 *~;
#X obj 642 510 throw~ dac-left;
#X obj 674 486 throw~ dac-right;
#X obj 31 345 r sbutton-6;
#X obj 31 368 sel 127;
#X obj 41 438 sel 127;
#X obj 41 415 r mbutton-6;
#X msg 31 391 1;
#X msg 41 469 0;
#X obj 31 499 s stereo-mono;
#X obj 456 37 r~ ugen1;
#X obj 644 37 r~ ugen2;
#X obj 685 418 stereo-lining;
#X floatatom 817 251 5 0 0 0 - - -, f 5;
#X obj 801 129 loadbang;
#X msg 801 197 500;
#X text 806 153 Transition time b/t \; stereo and mono;
#X obj 324 326 sel 0 1;
#X obj 840 309 r stereo-mono;
#X obj 319 418 stereo-lining;
#X obj 497 418 stereo-lining;
#X obj 524 326 sel 0 1;
#X obj 714 326 sel 0 1;
#X obj 17 321 loadbang;
#X obj 34 33 r low-pass-all;
#X obj 155 32 r volume-all;
#X obj 199 63 loadbang;
#X msg 199 90 400;
#X msg 547 373 0.5 0.5;
#X text 174 296 Need to make the amplitude not go above 1 for each
side...;
#X obj 840 342 bng 15 250 50 0 empty empty empty 17 7 0 10 -262144
-1 -1;
#X msg 324 348 0.33 0.33;
#X msg 524 348 0.33 0.33;
#X msg 714 348 0.33 0.33;
#X msg 346 372 0.5 0;
#X msg 737 372 0 0.5;
#X obj 902 557 switch~;
#X obj 902 524 > 0;
#X obj 902 392 r ugen-0-dsp;
#X obj 902 412 r ugen-1-dsp;
#X obj 902 432 r ugen-2-dsp;
#X obj 902 493 expr $f1 + $f2 + $f3;
#X obj 1007 463 t b f;
#X obj 938 463 t b f;
#X obj 302 68 r ugen0-external-vol;
#X obj 475 57 r ugen1-external-vol;
#X obj 662 57 r ugen2-external-vol;
#X obj 882 204 r stereo-mono-transition-time;
#X connect 1 0 2 0;
#X connect 2 0 5 0;
#X connect 3 0 15 0;
#X connect 4 0 14 0;
#X connect 5 0 16 0;
#X connect 5 0 17 0;
#X connect 6 0 7 0;
#X connect 7 0 5 1;
#X connect 7 0 14 1;
#X connect 7 0 15 1;
#X connect 8 0 6 0;
#X connect 9 0 8 0;
#X connect 10 0 13 0;
#X connect 11 0 12 0;
#X connect 12 0 10 0;
#X connect 13 0 22 1;
#X connect 13 0 23 1;
#X connect 14 0 24 0;
#X connect 14 0 25 0;
#X connect 15 0 28 0;
#X connect 15 0 29 0;
#X connect 16 0 18 0;
#X connect 17 0 21 0;
#X connect 19 0 22 0;
#X connect 20 0 23 0;
#X connect 22 0 0 0;
#X connect 23 0 0 1;
#X connect 24 0 26 0;
#X connect 25 0 27 0;
#X connect 28 0 30 0;
#X connect 29 0 31 0;
#X connect 32 0 33 0;
#X connect 33 0 36 0;
#X connect 34 0 37 0;
#X connect 35 0 34 0;
#X connect 36 0 38 0;
#X connect 37 0 38 0;
#X connect 39 0 4 0;
#X connect 40 0 3 0;
#X connect 41 0 28 1;
#X connect 41 1 29 1;
#X connect 42 0 41 1;
#X connect 42 0 49 1;
#X connect 42 0 48 1;
#X connect 43 0 44 0;
#X connect 44 0 42 0;
#X connect 46 0 60 0;
#X connect 46 1 63 0;
#X connect 47 0 46 0;
#X connect 47 0 50 0;
#X connect 47 0 51 0;
#X connect 47 0 59 0;
#X connect 48 0 16 1;
#X connect 48 1 17 1;
#X connect 49 0 24 1;
#X connect 49 1 25 1;
#X connect 50 0 61 0;
#X connect 50 1 57 0;
#X connect 51 0 62 0;
#X connect 51 1 64 0;
#X connect 52 0 36 0;
#X connect 53 0 8 0;
#X connect 54 0 12 0;
#X connect 55 0 56 0;
#X connect 56 0 12 0;
#X connect 57 0 49 0;
#X connect 60 0 48 0;
#X connect 61 0 49 0;
#X connect 62 0 41 0;
#X connect 63 0 48 0;
#X connect 64 0 41 0;
#X connect 66 0 65 0;
#X connect 67 0 71 0;
#X connect 68 0 72 0;
#X connect 69 0 70 0;
#X connect 70 0 66 0;
#X connect 71 0 70 0;
#X connect 71 1 70 2;
#X connect 72 0 70 0;
#X connect 72 1 70 1;
#X connect 73 0 2 1;
#X connect 74 0 4 1;
#X connect 75 0 3 1;
#X connect 76 0 42 0;
