#N canvas 120 115 1147 635 10;
#X obj 24 14 hradio 15 1 0 17 empty empty empty 0 -8 0 10 -262144 -1
-1 1;
#X obj 24 491 s source-levels-0;
#X obj 34 511 s source-levels-1;
#X obj 44 531 s source-levels-2;
#X msg 24 465 0 0 0 0 0;
#X obj 264 509 s source-levels-0;
#X obj 274 529 s source-levels-1;
#X obj 294 549 s source-levels-2;
#X msg 264 485 0 0 0 0 0;
#X text 101 466 0 ALL OFF;
#X obj 43 398 s source-levels-0;
#X obj 53 418 s source-levels-1;
#X obj 73 438 s source-levels-2;
#X text 120 373 1 ALL NOISE;
#X msg 43 372 0 0 0 0 1;
#X obj 61 304 s source-levels-0;
#X obj 71 324 s source-levels-1;
#X obj 91 344 s source-levels-2;
#X text 138 279 2 ALL SIG;
#X msg 61 278 0 0 0 1 0;
#X obj 79 214 s source-levels-0;
#X obj 89 234 s source-levels-1;
#X obj 109 254 s source-levels-2;
#X msg 79 149 1 0 0 0 0;
#X msg 79 169 0 1 0 0 0;
#X msg 79 189 0 0 1 0 0;
#X obj 24 62 sel 0 1 2 3;
#X text 157 176 3 ALL SELF;
#X obj 304 291 s source-levels-0;
#X obj 314 311 s source-levels-1;
#X obj 334 331 s source-levels-2;
#X msg 304 267 0 0 0 0 0;
#X obj 284 400 s source-levels-0;
#X obj 294 420 s source-levels-1;
#X obj 314 440 s source-levels-2;
#X msg 284 376 0 0 0 0 0;
#X text 339 476 4 ONE NOISE;
#X msg 284 356 0 0 0 1 0;
#X msg 304 247 0 1 0 0 0;
#X msg 264 465 0 0 0 0 1;
#X obj 264 62 sel 4 5 6;
#X obj 474 62 sel 7 8 9 10;
#X obj 474 547 s source-levels-0;
#X obj 484 567 s source-levels-1;
#X obj 504 587 s source-levels-2;
#X msg 474 482 0 0 1 0 0;
#X msg 474 502 0 0 0 0 0;
#X msg 474 522 1 0 0 0 0;
#X obj 494 417 s source-levels-0;
#X obj 504 437 s source-levels-1;
#X obj 524 457 s source-levels-2;
#X msg 494 352 0 0 1 0 0;
#X msg 494 392 1 0 0 0 0;
#X text 552 509 7 PAIR;
#X msg 494 372 0 0 0 0 1;
#X text 572 379 8 PAIR & NOISE;
#X obj 514 287 s source-levels-0;
#X obj 524 307 s source-levels-1;
#X obj 544 327 s source-levels-2;
#X msg 514 222 0 0 1 0 0;
#X msg 514 262 1 0 0 0 0;
#X text 592 249 9 PAIR & SIG;
#X text 360 368 5 ONE SIG;
#X text 381 258 6 ONE SELF;
#X obj 534 155 s source-levels-0;
#X obj 544 175 s source-levels-1;
#X obj 564 195 s source-levels-2;
#X msg 534 90 0 0 1 0 0;
#X msg 534 130 1 0 0 0 0;
#X msg 514 242 0 0 0 1 0;
#X msg 534 110 0 1 0 0 0;
#X text 114 64 ALL;
#X text 342 62 ONE;
#X text 573 62 PAIRS;
#X obj 735 801 s source-levels-0;
#X obj 745 821 s source-levels-1;
#X obj 765 841 s source-levels-2;
#X msg 735 776 1 0 0 0 0;
#X text 612 117 10 PAIR & SELF;
#X text 813 764 11 DAISY-CHAIN;
#X msg 735 736 0 1 0 0 0;
#X msg 735 756 0 0 1 0 0;
#X obj 759 669 s source-levels-0;
#X obj 769 689 s source-levels-1;
#X obj 789 709 s source-levels-2;
#X obj 783 538 s source-levels-0;
#X obj 793 558 s source-levels-1;
#X obj 813 578 s source-levels-2;
#X obj 807 408 s source-levels-0;
#X obj 817 428 s source-levels-1;
#X obj 837 448 s source-levels-2;
#X text 852 623 12 DAISY-CHAIN & NOISE;
#X text 879 493 13 DAISY-CHAIN & SIG;
#X text 886 362 14 DAISY-CHAIN & SELF;
#X msg 807 343 1 1 0 0 0;
#X msg 807 363 0 1 1 0 0;
#X msg 807 383 1 0 1 0 0;
#X obj 831 275 s source-levels-0;
#X obj 841 295 s source-levels-1;
#X obj 861 315 s source-levels-2;
#X text 918 231 15 DAISY-CHAIN & HALF SELF;
#X obj 855 148 s source-levels-0;
#X obj 865 168 s source-levels-1;
#X obj 885 188 s source-levels-2;
#X obj 735 57 sel 11 12 13 14 15 16;
#X text 933 103 16 ORGY;
#X msg 831 210 0.5 1 0 0 0;
#X msg 831 230 0 0.5 1 0 0;
#X msg 831 250 1 0 0.5 0 0;
#X msg 856 83 1 1 1 0 0;
#X msg 855 103 1 1 1 0 0;
#X msg 855 123 1 1 1 0 0;
#X obj 24 -44 inlet;
#X text 331 -26 0 ALL OFF \; 1 ALL NOISE \; 2 ALL SIG \; 3 ALL SELF
\;;
#X text 431 -18 4 ONE NOISE \; 5 ONE SIG \; 6 ONE SELF;
#X text 533 -26 7 PAIR \; 8 PAIR & NOISE \; 9 PAIR & SIG \; 10 PAIR
& SELF;
#X text 653 -36 11 DAISY CHAIN \; 12 DAISY CHAIN & NOISE \; 13 DAISY
CHAIN & SIG \; 14 DAISY CHAIN & SELF \; 15 DAISY CHAIN & HALF SELF
\; 16 ORGY;
#X msg 759 604 0 1 0 0 0.1;
#X msg 759 624 0 0 1 0 0.1;
#X msg 759 644 1 0 0 0 0.1;
#X msg 783 473 0 1 0 0.1 0;
#X msg 783 493 0 0 1 0.1 0;
#X msg 783 513 1 0 0 0.1 0;
#X connect 0 0 26 0;
#X connect 0 0 40 0;
#X connect 0 0 41 0;
#X connect 0 0 104 0;
#X connect 4 0 1 0;
#X connect 4 0 2 0;
#X connect 4 0 3 0;
#X connect 8 0 5 0;
#X connect 8 0 7 0;
#X connect 14 0 10 0;
#X connect 14 0 11 0;
#X connect 14 0 12 0;
#X connect 19 0 15 0;
#X connect 19 0 16 0;
#X connect 19 0 17 0;
#X connect 23 0 20 0;
#X connect 24 0 21 0;
#X connect 25 0 22 0;
#X connect 26 0 4 0;
#X connect 26 1 14 0;
#X connect 26 2 19 0;
#X connect 26 3 23 0;
#X connect 26 3 24 0;
#X connect 26 3 25 0;
#X connect 31 0 28 0;
#X connect 31 0 30 0;
#X connect 35 0 32 0;
#X connect 35 0 34 0;
#X connect 37 0 33 0;
#X connect 38 0 29 0;
#X connect 39 0 6 0;
#X connect 40 0 39 0;
#X connect 40 0 8 0;
#X connect 40 1 37 0;
#X connect 40 1 35 0;
#X connect 40 2 38 0;
#X connect 40 2 31 0;
#X connect 41 0 45 0;
#X connect 41 0 46 0;
#X connect 41 0 47 0;
#X connect 41 1 51 0;
#X connect 41 1 54 0;
#X connect 41 1 52 0;
#X connect 41 2 59 0;
#X connect 41 2 69 0;
#X connect 41 2 60 0;
#X connect 41 3 67 0;
#X connect 41 3 70 0;
#X connect 41 3 68 0;
#X connect 45 0 42 0;
#X connect 46 0 43 0;
#X connect 47 0 44 0;
#X connect 51 0 48 0;
#X connect 52 0 50 0;
#X connect 54 0 49 0;
#X connect 59 0 56 0;
#X connect 60 0 58 0;
#X connect 67 0 64 0;
#X connect 68 0 66 0;
#X connect 69 0 57 0;
#X connect 70 0 65 0;
#X connect 77 0 76 0;
#X connect 80 0 74 0;
#X connect 81 0 75 0;
#X connect 94 0 88 0;
#X connect 95 0 89 0;
#X connect 96 0 90 0;
#X connect 104 0 80 0;
#X connect 104 0 81 0;
#X connect 104 0 77 0;
#X connect 104 1 117 0;
#X connect 104 1 119 0;
#X connect 104 2 120 0;
#X connect 104 2 121 0;
#X connect 104 2 122 0;
#X connect 104 3 94 0;
#X connect 104 3 95 0;
#X connect 104 3 96 0;
#X connect 104 4 106 0;
#X connect 104 4 107 0;
#X connect 104 4 108 0;
#X connect 104 5 109 0;
#X connect 104 5 110 0;
#X connect 104 5 111 0;
#X connect 106 0 97 0;
#X connect 107 0 98 0;
#X connect 108 0 99 0;
#X connect 109 0 101 0;
#X connect 110 0 102 0;
#X connect 111 0 103 0;
#X connect 112 0 0 0;
#X connect 117 0 82 0;
#X connect 118 0 83 0;
#X connect 119 0 84 0;
#X connect 120 0 85 0;
#X connect 121 0 86 0;
#X connect 122 0 87 0;
