#N canvas 89 198 1243 540 10;
#X obj 346 8 inlet;
#X obj 1032 449 inlet;
#X obj 1032 427 inlet;
#X obj 1032 470 inlet;
#X obj 108 444 s source-levels-0;
#X obj 108 466 s source-levels-1;
#X obj 108 487 s source-levels-2;
#X obj 30 121 bng 15 250 50 0 empty empty empty 17 7 0 10 -262144 -1
-1;
#X text 999 71 2 ALL SIG \; 3 ALL SELF;
#X text 998 124 6 ONE SELF \; 7 PAIR;
#X text 998 150 8 PAIR & NOISE \; 9 PAIR & SIG \;;
#X text 991 176 10 PAIR & SELF \; 11 DAISY CHAIN;
#X text 998 98 4 ONE NOISE \; 5 ONE SIG;
#X text 999 44 0 ALL OFF \; 1 ALL NOISE;
#X obj 13 94 bng 15 250 50 0 empty empty empty 17 7 0 10 -262144 -1
-1;
#X msg 108 109 0 0 0 0 0;
#X msg 108 136 0 0 0 0 1;
#X obj 65 174 bng 15 250 50 0 empty empty empty 17 7 0 10 -262144 -1
-1;
#X obj 48 148 bng 15 250 50 0 empty empty empty 17 7 0 10 -262144 -1
-1;
#X msg 108 163 0 0 0 1 0;
#X msg 108 189 1 0 0 0 0;
#X msg 108 209 0 1 0 0 0;
#X msg 108 229 0 0 1 0 0;
#X obj 83 237 bng 15 250 50 0 empty empty empty 17 7 0 10 -262144 -1
-1;
#X msg 108 252 0 0 0 0 0;
#X msg 108 272 0 0 0 0 1;
#X msg 108 292 0 0 0 0 0;
#X obj 245 106 bng 15 250 50 0 empty empty empty 17 7 0 10 -262144
-1 -1;
#X msg 345 121 0 0 0 0 0;
#X msg 345 161 0 0 0 0 0;
#X obj 13 66 sel 0 1 2 3 4;
#X msg 345 141 0 0 0 1 0;
#X obj 345 444 s source-levels-0;
#X obj 345 466 s source-levels-1;
#X obj 345 487 s source-levels-2;
#X obj 262 169 bng 15 250 50 0 empty empty empty 17 7 0 10 -262144
-1 -1;
#X msg 345 184 0 0 0 0 0;
#X msg 345 224 0 0 0 0 0;
#X msg 345 204 0 1 0 0 0;
#X obj 280 233 bng 15 250 50 0 empty empty empty 17 7 0 10 -262144
-1 -1;
#X obj 297 296 bng 15 250 50 0 empty empty empty 17 7 0 10 -262144
-1 -1;
#X msg 345 268 0 0 0 0 0;
#X msg 345 248 0 0 1 0 0;
#X msg 345 288 1 0 0 0 0;
#X msg 345 311 0 0 1 0 0;
#X msg 345 351 1 0 0 0 0;
#X msg 345 331 0 0 0 0 1;
#X obj 245 66 sel 5 6 7 8 9;
#X obj 315 358 bng 15 250 50 0 empty empty empty 17 7 0 10 -262144
-1 -1;
#X msg 345 373 0 0 1 0 0;
#X msg 345 413 1 0 0 0 0;
#X msg 345 393 0 0 0 1 0;
#X obj 436 67 sel 10 11 12 13 14;
#X obj 436 102 bng 15 250 50 0 empty empty empty 17 7 0 10 -262144
-1 -1;
#X msg 576 117 0 0 1 0 0;
#X msg 576 157 1 0 0 0 0;
#X msg 576 137 0 1 0 0 0;
#X obj 576 444 s source-levels-0;
#X obj 576 466 s source-levels-1;
#X obj 576 487 s source-levels-2;
#X obj 460 165 bng 15 250 50 0 empty empty empty 17 7 0 10 -262144
-1 -1;
#X msg 576 180 0 1 0 0 0;
#X msg 576 200 0 0 1 0 0;
#X msg 576 220 1 0 0 0 0;
#X text 991 202 12 DAISY CHAIN REVERSE;
#X text 991 270 17 ORGY;
#X obj 485 229 bng 15 250 50 0 empty empty empty 17 7 0 10 -262144
-1 -1;
#X msg 576 244 0 0 1 0 0;
#X msg 576 264 1 0 0 0 0;
#X msg 576 284 0 1 0 0 0;
#X obj 509 293 bng 15 250 50 0 empty empty empty 17 7 0 10 -262144
-1 -1;
#X msg 576 308 0 1 0 0 0.1;
#X msg 576 328 0 0 1 0 0.1;
#X msg 576 348 1 0 0 0 0.1;
#X text 991 216 13 DC & 0.1 NOISE \; 14 DC & 0.5 SIG;
#X obj 534 357 bng 15 250 50 0 empty empty empty 17 7 0 10 -262144
-1 -1;
#X msg 576 372 0 1 0 0.5 0;
#X msg 576 392 0 0 1 0.5 0;
#X msg 576 412 1 0 0 0.5 0;
#X obj 697 67 sel 15 16 17;
#X text 991 243 15 DC & SELF \; 16 DC & 0.5 SELF;
#X obj 697 100 bng 15 250 50 0 empty empty empty 17 7 0 10 -262144
-1 -1;
#X obj 813 444 s source-levels-0;
#X obj 813 466 s source-levels-1;
#X obj 813 487 s source-levels-2;
#X msg 813 115 1 1 0 0 0;
#X msg 813 135 0 1 1 0 0;
#X msg 813 155 1 0 1 0 0;
#X obj 724 170 bng 15 250 50 0 empty empty empty 17 7 0 10 -262144
-1 -1;
#X msg 813 185 0.5 1 0 0 0;
#X msg 813 205 0 0.5 1 0 0;
#X msg 813 225 1 0 0.5 0 0;
#X obj 751 240 bng 15 250 50 0 empty empty empty 17 7 0 10 -262144
-1 -1;
#X msg 813 255 1 1 1 0 0;
#X msg 813 275 1 1 1 0 0;
#X msg 813 295 1 1 1 0 0;
#X connect 0 0 30 0;
#X connect 0 0 47 0;
#X connect 0 0 52 0;
#X connect 0 0 79 0;
#X connect 1 0 83 0;
#X connect 2 0 82 0;
#X connect 3 0 84 0;
#X connect 7 0 16 0;
#X connect 14 0 15 0;
#X connect 15 0 4 0;
#X connect 15 0 5 0;
#X connect 15 0 6 0;
#X connect 16 0 4 0;
#X connect 16 0 5 0;
#X connect 16 0 6 0;
#X connect 17 0 20 0;
#X connect 17 0 21 0;
#X connect 17 0 22 0;
#X connect 18 0 19 0;
#X connect 19 0 4 0;
#X connect 19 0 5 0;
#X connect 19 0 6 0;
#X connect 20 0 4 0;
#X connect 21 0 5 0;
#X connect 22 0 6 0;
#X connect 23 0 24 0;
#X connect 23 0 25 0;
#X connect 23 0 26 0;
#X connect 24 0 4 0;
#X connect 25 0 5 0;
#X connect 26 0 6 0;
#X connect 27 0 28 0;
#X connect 27 0 31 0;
#X connect 27 0 29 0;
#X connect 28 0 32 0;
#X connect 29 0 34 0;
#X connect 30 0 14 0;
#X connect 30 1 7 0;
#X connect 30 2 18 0;
#X connect 30 3 17 0;
#X connect 30 4 23 0;
#X connect 31 0 33 0;
#X connect 35 0 36 0;
#X connect 35 0 38 0;
#X connect 35 0 37 0;
#X connect 36 0 32 0;
#X connect 37 0 34 0;
#X connect 38 0 33 0;
#X connect 39 0 42 0;
#X connect 39 0 41 0;
#X connect 39 0 43 0;
#X connect 40 0 44 0;
#X connect 40 0 46 0;
#X connect 40 0 45 0;
#X connect 41 0 33 0;
#X connect 42 0 32 0;
#X connect 43 0 34 0;
#X connect 44 0 32 0;
#X connect 45 0 34 0;
#X connect 46 0 33 0;
#X connect 47 0 27 0;
#X connect 47 1 35 0;
#X connect 47 2 39 0;
#X connect 47 3 40 0;
#X connect 47 4 48 0;
#X connect 48 0 49 0;
#X connect 48 0 51 0;
#X connect 48 0 50 0;
#X connect 49 0 32 0;
#X connect 50 0 34 0;
#X connect 51 0 33 0;
#X connect 52 0 53 0;
#X connect 52 1 60 0;
#X connect 52 2 66 0;
#X connect 52 3 70 0;
#X connect 52 4 75 0;
#X connect 53 0 54 0;
#X connect 53 0 56 0;
#X connect 53 0 55 0;
#X connect 54 0 57 0;
#X connect 55 0 59 0;
#X connect 56 0 58 0;
#X connect 60 0 61 0;
#X connect 60 0 62 0;
#X connect 60 0 63 0;
#X connect 61 0 57 0;
#X connect 62 0 58 0;
#X connect 63 0 59 0;
#X connect 66 0 67 0;
#X connect 66 0 68 0;
#X connect 66 0 69 0;
#X connect 67 0 57 0;
#X connect 68 0 58 0;
#X connect 69 0 59 0;
#X connect 70 0 71 0;
#X connect 70 0 72 0;
#X connect 70 0 73 0;
#X connect 71 0 57 0;
#X connect 72 0 58 0;
#X connect 73 0 59 0;
#X connect 75 0 76 0;
#X connect 75 0 77 0;
#X connect 75 0 78 0;
#X connect 76 0 57 0;
#X connect 77 0 58 0;
#X connect 78 0 59 0;
#X connect 79 0 81 0;
#X connect 79 1 88 0;
#X connect 79 2 92 0;
#X connect 81 0 85 0;
#X connect 81 0 86 0;
#X connect 81 0 87 0;
#X connect 85 0 82 0;
#X connect 86 0 83 0;
#X connect 87 0 84 0;
#X connect 88 0 89 0;
#X connect 88 0 90 0;
#X connect 88 0 91 0;
#X connect 89 0 82 0;
#X connect 90 0 83 0;
#X connect 91 0 84 0;
#X connect 92 0 93 0;
#X connect 92 0 94 0;
#X connect 92 0 95 0;
#X connect 93 0 82 0;
#X connect 94 0 83 0;
#X connect 95 0 84 0;
