#N canvas 122 176 1535 727 10;
#X obj 14 15 cnv 15 1150 640 empty empty empty 20 12 0 14 -191407 -66577
0;
#X obj 22 26 Mixer 0 3 0;
#X obj 22 389 Presets_Source;
#X obj 163 389 Presets-Gliss;
#X obj 864 26 Meta-Controls;
#X obj 304 389 Presets_Walker;
#X obj 314 26 Mixer 1 4 1;
#X obj 601 26 Mixer 2 5 2;
#X obj 445 389 RhythmerSF;
#X obj 864 111 Global_Buttons;
#X obj 864 588 MiscSigContainer;
#X obj 601 68 UGen 2 2 5;
#X obj 22 68 UGen 0 0 3;
#X obj 314 68 UGen 1 1 4;
#X obj 1337 299 ftom;
#X floatatom 1334 243 5 0 0 0 - - -, f 5;
#X floatatom 1349 442 5 0 0 0 - - -, f 5;
#X obj 1203 333 expr (12 * $f1);
#X floatatom 1206 275 5 0 0 0 - - -, f 5;
#X obj 1353 532 phasor~;
#X obj 1365 606 dac~;
#X obj 1199 219 bng 15 250 50 0 empty empty empty 17 7 0 10 -262144
-1 -1;
#X obj 1300 397 +;
#X obj 1353 470 mtof;
#X floatatom 1336 506 5 0 0 0 - - -, f 5;
#X obj 1279 122 expr (44100/$f1);
#X msg 1246 45 800;
#X msg 1376 68 700;
#X msg 1420 74 600;
#X msg 1293 81 500;
#X connect 14 0 22 1;
#X connect 15 0 14 0;
#X connect 16 0 23 0;
#X connect 17 0 22 0;
#X connect 18 0 17 0;
#X connect 19 0 20 0;
#X connect 19 0 20 1;
#X connect 21 0 18 0;
#X connect 22 0 16 0;
#X connect 23 0 24 0;
#X connect 24 0 19 0;
#X connect 25 0 15 0;
#X connect 26 0 25 0;
#X connect 27 0 25 0;
#X connect 28 0 25 0;
#X connect 29 0 25 0;
