#N canvas 67 87 1853 993 10;
#X obj 14 15 cnv 15 1150 640 empty empty empty 20 12 0 14 -191407 -66577
0;
#X obj 22 26 Mixer 0 3 0;
#X obj 22 389 Presets_Source;
#X obj 163 389 Presets-Gliss;
#X obj 864 46 Meta-Controls;
#X obj 304 389 Presets_Walker;
#X obj 314 26 Mixer 1 4 1;
#X obj 601 26 Mixer 2 5 2;
#X obj 445 389 RhythmerSF;
#X obj 864 117 Global_Buttons;
#X obj 864 588 MiscSigContainer;
#X obj 601 68 UGen 2 2 5;
#X obj 22 68 UGen 0 0 3;
#X obj 314 68 UGen 1 1 4;
#X obj 179 663 keyname;
#X obj 179 691 sel 1 2 3 4 5 6;
#X obj 363 726 s elem-exp-multiplier-0;
#X floatatom 363 698 5 0 0 0 - - -, f 5;
#X obj 363 783 s elem-exp-adder-0;
#X floatatom 363 755 5 0 0 0 - - -, f 5;
#X connect 14 0 15 0;
#X connect 17 0 16 0;
#X connect 19 0 18 0;
