#N canvas 72 89 1255 687 10;
#X obj 894 163 Presetter;
#X obj 886 619 Signal_Output;
#X obj 42 12 Mixer 0 3 0;
#X obj 42 379 Presets_Source;
#X obj 183 379 Presets-Gliss;
#X obj 1024 12 Meta-Controls;
#X obj 894 12 Transitions;
#X obj 324 379 Presets_Walker;
#X obj 1034 619 GEM-Center;
#X obj 1034 597 bng 15 250 50 0 empty empty empty 17 7 0 10 -262144
-1 -1;
#X obj 334 12 Mixer 1 4 1;
#X obj 621 12 Mixer 2 5 2;
#X obj 334 58 UGen 1 1 4;
#X obj 42 58 UGen 0 0 3;
#X obj 621 58 UGen 2 2 5;
#X text 941 501 - Source presets should also \; adjust VOLUMES!;
#X obj 886 593 tgl 15 0 empty empty empty 17 7 0 10 -262144 -1 -1 0
1;
#X text 903 589 start/stop \; recording;
#X obj 465 379 RhythmerSF;
#X obj 892 562 Controller_Input_SF;
#X text 154 -76 75 24 \, 152 36 \, 110 33;
#X text 392 641 Nothing goes to gliss_preset_lengths_receive. Walker
should be connected to it... Or will I ever use walker? Maybe not...
;
#X connect 9 0 8 0;
#X connect 16 0 1 0;
