#N canvas 160 150 1597 727 10;
#X obj 14 15 cnv 15 1150 640 empty empty empty 20 12 0 14 -191407 -66577
0;
#X obj 22 26 Mixer 0 3 0;
#X obj 22 389 Presets_Source;
#X obj 163 389 Presets-Gliss;
#X obj 864 26 Meta-Controls;
#X obj 304 389 Presets_Walker;
#X obj 314 26 Mixer 1 4 1;
#X obj 601 26 Mixer 2 5 2;
#X obj 445 389 RhythmerSF;
#X obj 864 111 Global_Buttons;
#X obj 864 588 MiscSigContainer;
#X obj 601 68 UGen 2 2 5;
#X obj 22 68 UGen 0 0 3;
#X obj 314 68 UGen 1 1 4;
#X obj 1275 500 ftom;
#X floatatom 1275 539 5 0 0 0 - - -, f 5;
#X floatatom 1275 397 5 0 0 0 - - -, f 5;
#X obj 1275 361 bng 15 250 50 0 empty empty empty 17 7 0 10 -262144
-1 -1;
#X obj 1275 577 % 12;
#X obj 1275 616 hradio 20 1 0 12 empty empty empty 0 -8 0 10 -262144
-1 -1 5;
#X text 1275 636 C . C# D Eb E. F .F# .G .G# A .Bb .B;
#X obj 1204 156 hradio 20 1 0 12 empty empty empty 0 -8 0 10 -262144
-1 -1 5;
#X obj 1204 287 mtof;
#X obj 1275 435 expr (44100/$f1);
#X text 1204 176 C . C# D .Eb. .E. F .F# .G .G# A .Bb .B;
#X obj 1204 326 expr (44100/$f1);
#X obj 1204 248 + 36;
#X text 1315 398 # OF ELEMENTS;
#X connect 14 0 15 0;
#X connect 15 0 18 0;
#X connect 16 0 23 0;
#X connect 17 0 16 0;
#X connect 18 0 19 0;
#X connect 21 0 26 0;
#X connect 22 0 25 0;
#X connect 23 0 14 0;
#X connect 25 0 16 0;
#X connect 26 0 22 0;
