#N canvas 70 112 1218 648 10;
#X obj 894 163 Presetter;
#X obj 920 598 Controller_Input;
#X obj 1062 599 Signal_Output;
#X obj 42 12 Mixer 0 3 0;
#X obj 42 379 Presets_Source;
#X obj 324 379 Presets-Gliss;
#X obj 334 12 Mixer 1 4 1;
#X obj 621 12 Mixer 2 5 2;
#X obj 1024 12 Meta-Controls;
#X obj 894 12 Transitions;
#X obj 42 58 UGen 0 0 3;
#X text 554 434 FINAL GOALS \; - walker that I like \; - transitions
that I like \; - easy controller presets \; - reverb \; - rhythm \;
;
#X text 521 531 NEXT \; - make Walker preset panel \; - improve Walker
\; - more transitions \; - Walker for volumes? or just let \; rhythm
take care of that?;
#X obj 183 379 Presets_Walker;
#X obj 334 58 UGen 1 1 4;
#X obj 621 58 UGen 2 2 5;
#X text 533 379 For Global Presets \; extra button for each \; for
turning on glisser.;
