#N canvas 174 113 622 655 10;
#X obj 894 162 Presetter;
#X obj 1086 600 Controller_Input;
#X obj 1086 620 Signal_Output;
#X obj 42 12 Mixer 0 3 0;
#X obj 42 379 Presets_Source;
#X obj 324 379 Presets-Gliss;
#X obj 334 12 Mixer 1 4 1;
#X obj 621 12 Mixer 2 5 2;
#X obj 1024 12 Meta-Controls;
#X obj 894 12 Transitions;
#X obj 183 379 Presets_Walker;
#X obj 465 379 Rhythmer;
#X obj 621 58 UGen 2 2 5;
#X text 857 500 TO DO \; - get controller hooked up \; - make Global
Presets one column? \; - make separate glissers for walker? \; - make
a delay or something for walker \; so it doesn't send to all at same
time? \;;
#X obj 334 58 UGen 1 1 4;
#X obj 42 58 UGen 0 0 3;
#N canvas 89 151 1092 530 GEM-Center 1;
#X obj 91 7 r elem-to-GEM-0;
#X obj 211 7 r exp-to-GEM-0;
#X obj 334 7 r elem-to-GEM-0;
#X obj 454 7 r exp-to-GEM-0;
#X obj 577 7 r elem-to-GEM-0;
#X obj 697 7 r exp-to-GEM-0;
#N canvas 41 101 450 300 gemwin 0;
#X obj 67 89 outlet;
#X obj 67 10 inlet;
#X obj 67 41 route create;
#X msg 67 70 set destroy;
#X msg 190 66 set create;
#X msg 132 112 create \, 1;
#X msg 213 112 destroy \, reset;
#X obj 132 135 gemwin;
#X connect 1 0 2 0;
#X connect 2 0 3 0;
#X connect 2 0 5 0;
#X connect 2 1 4 0;
#X connect 2 1 6 0;
#X connect 3 0 0 0;
#X connect 4 0 0 0;
#X connect 5 0 7 0;
#X connect 6 0 7 0;
#X restore 964 96 pd gemwin;
#X msg 963 71 destroy;
#X obj 1068 92 Gem;
#X msg 54 351 draw line;
#X msg 54 330 draw point;
#X obj 154 312 rotateXYZ;
#X floatatom 174 258 5 0 0 0 - - -, f 5;
#X floatatom 54 372 5 0 10 0 - - -, f 5;
#X msg 54 388 width \$1;
#X floatatom 55 409 5 0 100 0 - - -, f 5;
#X msg 55 426 length \$1;
#X obj 154 443 scopeXYZ~ 2048;
#X floatatom 194 276 5 0 0 0 - - -, f 5;
#X floatatom 214 294 5 0 0 0 - - -, f 5;
#X obj 154 156 translateXYZ;
#X floatatom 181 102 5 0 0 0 - - -, f 5;
#X floatatom 208 120 5 0 0 0 - - -, f 5;
#X floatatom 235 138 5 0 0 0 - - -, f 5;
#X msg 374 351 draw line;
#X msg 374 330 draw point;
#X obj 474 312 rotateXYZ;
#X floatatom 494 258 5 0 0 0 - - -, f 5;
#X floatatom 374 372 5 0 10 0 - - -, f 5;
#X msg 374 388 width \$1;
#X floatatom 375 409 5 0 100 0 - - -, f 5;
#X msg 375 426 length \$1;
#X obj 474 443 scopeXYZ~ 2048;
#X floatatom 514 276 5 0 0 0 - - -, f 5;
#X floatatom 534 294 5 0 0 0 - - -, f 5;
#X obj 474 156 translateXYZ;
#X floatatom 501 102 5 0 0 0 - - -, f 5;
#X floatatom 528 120 5 0 0 0 - - -, f 5;
#X floatatom 555 138 5 0 0 0 - - -, f 5;
#X obj 474 35 gemhead;
#X obj 988 25 inlet;
#X obj 249 400 r~ to-GEM-0;
#X obj 185 354 osc~ 30;
#X obj 174 237 unpack f f f;
#X obj 494 237 unpack f f f;
#X obj 569 410 r~ to-GEM-1;
#X obj 505 354 osc~ 30;
#X obj 538 375 osc~ 30;
#X msg 264 348 0;
#X obj 218 375 osc~ 30;
#X msg 494 212 30 180 40;
#X msg 684 351 draw line;
#X msg 684 330 draw point;
#X obj 784 312 rotateXYZ;
#X floatatom 804 258 5 0 0 0 - - -, f 5;
#X floatatom 684 372 5 0 10 0 - - -, f 5;
#X msg 684 388 width \$1;
#X floatatom 685 409 5 0 100 0 - - -, f 5;
#X msg 685 426 length \$1;
#X obj 784 443 scopeXYZ~ 2048;
#X floatatom 824 276 5 0 0 0 - - -, f 5;
#X floatatom 844 294 5 0 0 0 - - -, f 5;
#X obj 784 156 translateXYZ;
#X floatatom 811 102 5 0 0 0 - - -, f 5;
#X floatatom 838 120 5 0 0 0 - - -, f 5;
#X floatatom 865 138 5 0 0 0 - - -, f 5;
#X obj 784 32 gemhead;
#X obj 804 237 unpack f f f;
#X obj 848 375 osc~ 30;
#X obj 181 79 unpack f f f;
#X obj 501 79 unpack f f f;
#X obj 811 79 unpack f f f;
#X obj 879 410 r~ to-GEM-2;
#X obj 815 354 osc~ 30;
#X obj 154 38 gemhead;
#X obj 950 34 bng 15 250 50 0 empty empty empty 17 7 0 10 -262144 -1
-1;
#X msg 501 58 0 2 0;
#X msg 181 58 -2 -2 0;
#X msg 811 57 2 -2 0;
#X obj 264 328 t b b;
#X obj 264 309 bng 15 250 50 0 empty empty empty 17 7 0 10 -262144
-1 -1;
#X msg 296 348 0.28;
#X msg 174 212 -27 27 0;
#X msg 584 350 0;
#X obj 584 330 t b b;
#X obj 584 311 bng 15 250 50 0 empty empty empty 17 7 0 10 -262144
-1 -1;
#X msg 616 350 0.28;
#X msg 884 351 0;
#X obj 884 331 t b b;
#X obj 884 312 bng 15 250 50 0 empty empty empty 17 7 0 10 -262144
-1 -1;
#X msg 916 351 0.28;
#X msg 804 212 -30 -25 90;
#X obj 13 23 loadbang;
#X obj 87 41 t b b b;
#X obj 74 195 t b b b;
#X obj 24 294 t b b b;
#X obj -8 320 t b b b;
#X connect 6 0 7 0;
#X connect 7 0 6 0;
#X connect 9 0 17 0;
#X connect 10 0 17 0;
#X connect 11 0 17 0;
#X connect 12 0 11 1;
#X connect 13 0 14 0;
#X connect 14 0 17 0;
#X connect 15 0 16 0;
#X connect 16 0 17 0;
#X connect 18 0 11 2;
#X connect 19 0 11 3;
#X connect 20 0 11 0;
#X connect 21 0 20 1;
#X connect 22 0 20 2;
#X connect 23 0 20 3;
#X connect 24 0 32 0;
#X connect 25 0 32 0;
#X connect 26 0 32 0;
#X connect 27 0 26 1;
#X connect 28 0 29 0;
#X connect 29 0 32 0;
#X connect 30 0 31 0;
#X connect 31 0 32 0;
#X connect 33 0 26 2;
#X connect 34 0 26 3;
#X connect 35 0 26 0;
#X connect 36 0 35 1;
#X connect 37 0 35 2;
#X connect 38 0 35 3;
#X connect 39 0 35 0;
#X connect 40 0 7 0;
#X connect 41 0 17 3;
#X connect 42 0 17 1;
#X connect 43 0 12 0;
#X connect 43 1 18 0;
#X connect 43 2 19 0;
#X connect 44 0 27 0;
#X connect 44 1 33 0;
#X connect 44 2 34 0;
#X connect 45 0 32 3;
#X connect 46 0 32 1;
#X connect 47 0 32 2;
#X connect 48 0 42 1;
#X connect 49 0 17 2;
#X connect 50 0 44 0;
#X connect 51 0 59 0;
#X connect 52 0 59 0;
#X connect 53 0 59 0;
#X connect 54 0 53 1;
#X connect 55 0 56 0;
#X connect 56 0 59 0;
#X connect 57 0 58 0;
#X connect 58 0 59 0;
#X connect 60 0 53 2;
#X connect 61 0 53 3;
#X connect 62 0 53 0;
#X connect 63 0 62 1;
#X connect 64 0 62 2;
#X connect 65 0 62 3;
#X connect 66 0 62 0;
#X connect 67 0 54 0;
#X connect 67 1 60 0;
#X connect 67 2 61 0;
#X connect 68 0 59 2;
#X connect 69 0 21 0;
#X connect 69 1 22 0;
#X connect 70 0 36 0;
#X connect 70 1 37 0;
#X connect 70 2 38 0;
#X connect 71 0 63 0;
#X connect 71 1 64 0;
#X connect 71 2 65 0;
#X connect 72 0 59 3;
#X connect 73 0 59 1;
#X connect 74 0 20 0;
#X connect 75 0 7 0;
#X connect 76 0 70 0;
#X connect 77 0 69 0;
#X connect 78 0 71 0;
#X connect 79 0 48 0;
#X connect 79 1 81 0;
#X connect 80 0 79 0;
#X connect 81 0 49 1;
#X connect 82 0 43 0;
#X connect 83 0 46 1;
#X connect 84 0 83 0;
#X connect 84 1 86 0;
#X connect 85 0 84 0;
#X connect 86 0 47 1;
#X connect 87 0 73 1;
#X connect 88 0 87 0;
#X connect 88 1 90 0;
#X connect 89 0 88 0;
#X connect 90 0 68 1;
#X connect 91 0 67 0;
#X connect 92 0 93 0;
#X connect 93 0 77 0;
#X connect 93 1 76 0;
#X connect 93 2 78 0;
#X connect 93 2 94 0;
#X connect 94 0 82 0;
#X connect 94 1 50 0;
#X connect 94 2 91 0;
#X connect 94 2 95 0;
#X connect 95 0 80 0;
#X connect 95 1 85 0;
#X connect 95 2 89 0;
#X connect 95 2 96 0;
#X connect 96 0 10 0;
#X connect 96 1 25 0;
#X connect 96 2 52 0;
#X restore 913 612 pd GEM-Center;
#X obj 913 591 bng 15 250 50 0 empty empty empty 17 7 0 10 -262144
-1 -1;
#X connect 17 0 16 0;
