#N canvas 41 53 1325 715 10;
#X obj 894 163 Presetter;
#X obj 894 562 Controller_Input;
#X obj 1006 622 Signal_Output;
#X obj 42 12 Mixer 0 3 0;
#X obj 42 379 Presets_Source;
#X obj 183 379 Presets-Gliss;
#X obj 1024 12 Meta-Controls;
#X obj 894 12 Transitions;
#X obj 324 379 Presets_Walker;
#X obj 465 379 Rhythmer;
#X obj 894 534 GEM-Center;
#X obj 894 512 bng 15 250 50 0 empty empty empty 17 7 0 10 -262144
-1 -1;
#X obj 334 12 Mixer 1 4 1;
#X obj 621 12 Mixer 2 5 2;
#X obj 42 58 UGen 0 0 3;
#X obj 334 58 UGen 1 1 4;
#X obj 621 58 UGen 2 2 5;
#X msg 890 605 open pdtest.wav;
#X msg 1006 601 start;
#X msg 1053 601 stop;
#X connect 11 0 10 0;
#X connect 17 0 2 0;
#X connect 18 0 2 0;
#X connect 19 0 2 0;
