#N canvas 322 101 1150 648 10;
#X obj 695 645 s absolute-relative;
#X obj 695 619 tgl 15 0 empty empty empty 17 7 0 10 -262144 -1 -1 0
1;
#X obj 774 25 Controller-Side;
#X obj 686 690 s jump-gliss;
#X obj 736 613 s gliss-length;
#X obj 686 671 tgl 15 0 empty empty empty 17 7 0 10 -262144 -1 -1 1
1;
#X floatatom 736 589 5 0 0 0 - - -, f 5;
#X obj 686 555 loadbang;
#X msg 686 586 0;
#X obj 193 9 Fader 0 16 32 48 64;
#X obj 822 672 tgl 15 0 empty empty empty 17 7 0 10 -262144 -1 -1 1
1;
#X obj 822 692 s stereo-mono;
#X obj 49 474 Presets;
#X msg 842 650 1;
#X obj 193 30 Fader 1 17 33 49 65;
#X obj 332 9 Fader 2 18 34 50 66;
#X obj 332 30 Fader 3 19 35 51 67;
#X obj 471 9 Fader 4 20 36 52 68;
#X obj 471 30 Fader 5 21 37 53 69;
#X obj 610 9 Fader 6 22 38 54 70;
#X obj 610 30 Fader 7 23 39 55 71;
#X obj 667 496 Presetter;
#X obj 72 9 Controller_Input;
#X obj 856 539 Signal_Output;
#X obj 341 54 Mixer 1 4 1;
#X obj 628 54 Mixer 2 5 2;
#X obj 49 54 Mixer 0 3 0;
#X obj 49 157 UGen 0 0 3;
#X obj 341 157 UGen 1 1 4;
#X obj 628 157 UGen 2 2 5;
#X connect 1 0 0 0;
#X connect 5 0 3 0;
#X connect 6 0 4 0;
#X connect 7 0 8 0;
#X connect 7 0 13 0;
#X connect 8 0 1 0;
#X connect 8 0 5 0;
#X connect 10 0 11 0;
#X connect 13 0 10 0;
