#N canvas 253 165 450 498 10;
#X obj 203 211 random;
#X floatatom 221 191 5 0 0 0 - - -, f 5;
#X text 260 191 WIDTH;
#X obj 203 276 +;
#X floatatom 242 262 5 0 0 0 - - -, f 5;
#X obj 221 233 * 0.5;
#X obj 203 254 -;
#X text 281 263 MIDPOINT;
#X floatatom 203 319 5 0 0 0 - - -, f 5;
#X obj 203 299 int;
#X obj 203 162 unpack;
#X obj 178 338 pack;
#X obj 102 236 f;
#X obj 120 98 t b a;
#X obj 131 236 + 1;
#X obj 152 166 until;
#X msg 152 145 3;
#X obj 120 121 t b b;
#X msg 120 145 0;
#X obj 178 359 route 0 1 2;
#X obj 133 194 t b b;
#X obj 120 28 inlet;
#X obj 178 412 outlet;
#X obj 230 412 outlet;
#X obj 282 412 outlet;
#X connect 0 0 6 0;
#X connect 1 0 0 1;
#X connect 1 0 5 0;
#X connect 3 0 9 0;
#X connect 4 0 3 1;
#X connect 5 0 6 1;
#X connect 6 0 3 0;
#X connect 8 0 11 1;
#X connect 9 0 8 0;
#X connect 10 0 1 0;
#X connect 10 1 4 0;
#X connect 11 0 19 0;
#X connect 12 0 14 0;
#X connect 12 0 11 0;
#X connect 13 0 17 0;
#X connect 13 1 10 0;
#X connect 14 0 12 1;
#X connect 15 0 20 0;
#X connect 16 0 15 0;
#X connect 17 0 18 0;
#X connect 17 1 16 0;
#X connect 18 0 12 1;
#X connect 19 0 22 0;
#X connect 19 1 23 0;
#X connect 19 2 24 0;
#X connect 20 0 12 0;
#X connect 20 1 0 0;
#X connect 21 0 13 0;
