#N canvas 207 93 1150 687 10;
#X obj 375 638 s to_global_presets;
#X obj 608 638 s to_gliss_presets;
#X obj 33 18 vradio 14 1 0 8 empty empty empty 0 -8 0 10 -262144 -1
-1 0;
#N canvas 41 97 450 250 (subpatch) 0;
#X array DELAY 10 float 3;
#A 0 500 400 250 400 1000 100 200 300 300 100;
#X coords 0 10 10 0 200 140 1 0 0;
#X restore 912 25 graph;
#N canvas 41 97 450 250 (subpatch) 0;
#X array GLISS 10 float 3;
#A 0 4 0 0 1 3 3 3 4 5 3;
#X coords 0 10 10 0 200 140 1 0 0;
#X restore 912 348 graph;
#X obj 512 306 Array-Setter-Global;
#X obj 271 306 Array-Setter-Delay;
#X obj 710 306 Array-Setter-Gliss;
#X obj 512 83 sel 0 1 2 3 4 5;
#X obj 271 83 sel 0 1 2 3 4 5;
#X obj 710 83 sel 0 1 2 3 4 5;
#N canvas 41 97 450 250 (subpatch) 0;
#X array GLOBAL 10 float 3;
#A 0 1 2 1 6 8 7 0 0 0 0;
#X coords 0 10 10 0 200 140 1 0 0;
#X restore 912 186 graph;
#X obj 79 252 s array-setter-reset;
#X obj 56 273 s array-setters;
#X obj 512 57 r array-setters;
#X obj 710 57 r array-setters;
#X obj 271 57 r array-setters;
#X obj 251 609 tabread DELAY;
#X obj 375 587 tabread GLOBAL;
#X obj 608 587 tabread GLISS;
#X obj 33 168 t b f b;
#X obj 381 438 f;
#X obj 417 438 + 1;
#X msg 399 416 0;
#X obj 399 395 r array-setter-reset;
#X obj 219 633 del;
#X obj 381 475 t f f;
#X msg 112 553 stop;
#X obj 413 501 s to_presets;
#X obj 219 562 r to_presets;
#X obj 375 562 r to_presets;
#X obj 608 482 r to_presets;
#X obj 219 583 t b f;
#X obj 112 520 sel 1;
#X msg 513 232 1 \, 2 \, 1 \, 6 \, 8 \, 7;
#X obj 112 492 >= 5;
#X msg 271 232 500 \, 400 \, 250 \, 400 \, 1000 \, 100;
#X obj 55 380 sel 0 1 2 3 4 5;
#X msg 55 417 5;
#X msg 710 232 4 \, 0 \, 0 \, 1 \, 3 \, 3;
#X connect 2 0 20 0;
#X connect 8 0 34 0;
#X connect 9 0 36 0;
#X connect 10 0 39 0;
#X connect 14 0 8 0;
#X connect 15 0 10 0;
#X connect 16 0 9 0;
#X connect 17 0 25 1;
#X connect 18 0 0 0;
#X connect 19 0 1 0;
#X connect 20 0 21 0;
#X connect 20 1 13 0;
#X connect 20 1 37 0;
#X connect 20 2 12 0;
#X connect 21 0 22 0;
#X connect 21 0 26 0;
#X connect 22 0 21 1;
#X connect 23 0 21 1;
#X connect 24 0 23 0;
#X connect 25 0 21 0;
#X connect 26 0 35 0;
#X connect 26 1 28 0;
#X connect 27 0 25 0;
#X connect 29 0 32 0;
#X connect 30 0 18 0;
#X connect 31 0 19 0;
#X connect 32 0 25 0;
#X connect 32 1 17 0;
#X connect 33 0 27 0;
#X connect 34 0 5 0;
#X connect 35 0 33 0;
#X connect 36 0 6 0;
#X connect 37 0 38 0;
#X connect 38 0 35 1;
#X connect 39 0 7 0;
#X coords 0 -1 1 1 130 140 2 30 15;
