#N canvas 190 108 1176 660 10;
#X obj 717 619 s to_global_presets;
#X obj 33 33 vradio 14 1 0 8 empty empty empty 0 -8 0 10 -262144 -1
-1 0;
#N canvas 41 97 450 250 (subpatch) 0;
#X array DELAY 10 float 3;
#A 0 500 400 250 400 1000 100 200 300 607.143 971.429;
#X coords 0 1000 10 0 200 140 1 0 0;
#X restore 1062 25 graph;
#N canvas 41 97 450 250 (subpatch) 0;
#X array GLISS 10 float 3;
#A 0 300 0 0 100 300 500 0 3 0 0;
#X coords 0 10 10 0 200 140 1 0 0;
#X restore 1062 508 graph;
#X obj 422 246 Array-Setter-Global;
#X obj 181 246 Array-Setter-Delay;
#X obj 830 246 Array-Setter-Gliss;
#X obj 422 83 sel 0 1 2 3 4 5;
#X obj 181 83 sel 0 1 2 3 4 5;
#X obj 830 83 sel 0 1 2 3 4 5;
#N canvas 41 97 450 250 (subpatch) 0;
#X array GLOBAL 10 float 3;
#A 0 1 4 1 20 8 4 0 0 0 5.07143;
#X coords 0 10 10 0 200 140 1 0 0;
#X restore 1062 186 graph;
#X obj 79 432 s array-setter-reset;
#X obj 88 487 s array-setters;
#X obj 422 57 r array-setters;
#X obj 830 57 r array-setters;
#X obj 181 57 r array-setters;
#X obj 341 578 tabread DELAY;
#X obj 717 591 tabread GLOBAL;
#X obj 496 590 tabread GLISS;
#X obj 33 398 t b f b;
#X obj 359 388 f;
#X obj 395 388 + 1;
#X msg 377 366 0;
#X obj 377 345 r array-setter-reset;
#X obj 309 606 del;
#X obj 359 415 t f f;
#X msg 262 513 stop;
#X obj 309 550 t b f;
#X obj 262 480 sel 1;
#X obj 262 452 >= 5;
#X obj 56 520 sel 0 1 2 3 4 5;
#X msg 56 577 5;
#X text 41 16 TRANSITIONS;
#X msg 496 493 set \$1;
#X floatatom 496 514 5 0 0 0 - - -, f 5;
#X obj 496 532 + 1;
#X obj 56 601 s seqlen;
#X obj 496 471 r seqlen;
#X obj 287 411 r seqlen;
#X text 559 497 Gliss needs extra \; value to reset it \; for the sake
of \; performance.;
#X text 822 270 Gliss gets extra value \; see below.;
#X obj 33 629 s triggernext;
#X obj 359 322 r triggernext;
#X obj 309 628 s triggernext;
#X msg 181 225 500 \, 400 \, 250 \, 400 \, 1000 \, 100;
#X obj 723 519 s globaltabread;
#X obj 783 456 s glisstabread;
#X obj 743 498 s delaytabread;
#X obj 496 562 r glisstabread;
#X obj 309 522 r delaytabread;
#X obj 717 562 r globaltabread;
#X msg 439 204 19 \, 17 \, 18;
#X obj 351 497 del 10;
#X obj 56 461 t f f;
#X msg 73 550 2;
#X text 92 580 Note: N-1;
#X msg 847 204 3 \, 0 \, 0 \, 0;
#X msg 198 204 3000 \, 2500;
#X text 86 225 Transition 1;
#X text 86 204 Transition 2;
#X text 58 35 comment;
#X msg 830 225 300 \, 0 \, 0 \, 100 \, 300 \, 500 \, 0;
#X obj 496 618 s gliss-length-receive;
#X obj 610 83 sel 0 1 2 3 4 5;
#X obj 610 57 r array-setters;
#X msg 627 204 3 \, 0 \, 0 \, 0;
#X obj 610 246 Array-Setter-Gliss-Presets;
#N canvas 41 97 450 250 (subpatch) 0;
#X array GLISS-PRESETS 10 float 3;
#A 0 2 0 0 1 2 2 0 3 0 0;
#X coords 0 10 10 0 200 140 1 0 0;
#X restore 1062 347 graph;
#X obj 723 432 t f f f f;
#X obj 763 477 s glisspresetstabread;
#X obj 889 564 r glisspresetstabread;
#X obj 889 592 tabread GLISS-PRESETS;
#X obj 889 620 s to_gliss_presets;
#X msg 610 225 2 \, 0 \, 0 \, 1 \, 2 \, 2 \, 0;
#X msg 422 225 1 \, 4 \, 1 \, 20 \, 8 \, 5;
#X connect 1 0 19 0;
#X connect 7 0 74 0;
#X connect 7 1 51 0;
#X connect 8 0 44 0;
#X connect 8 1 57 0;
#X connect 9 0 61 0;
#X connect 9 1 56 0;
#X connect 13 0 7 0;
#X connect 14 0 9 0;
#X connect 15 0 8 0;
#X connect 16 0 24 1;
#X connect 17 0 0 0;
#X connect 18 0 62 0;
#X connect 19 0 41 0;
#X connect 19 1 53 0;
#X connect 19 2 11 0;
#X connect 20 0 21 0;
#X connect 20 0 25 0;
#X connect 21 0 20 1;
#X connect 22 0 20 1;
#X connect 23 0 22 0;
#X connect 24 0 43 0;
#X connect 25 0 29 0;
#X connect 25 1 68 0;
#X connect 26 0 24 0;
#X connect 27 0 24 0;
#X connect 27 1 16 0;
#X connect 28 0 26 0;
#X connect 28 0 52 0;
#X connect 29 0 28 0;
#X connect 30 0 31 0;
#X connect 30 1 54 0;
#X connect 31 0 36 0;
#X connect 33 0 34 0;
#X connect 34 0 35 0;
#X connect 35 0 18 0;
#X connect 37 0 33 0;
#X connect 38 0 29 1;
#X connect 42 0 20 0;
#X connect 44 0 5 0;
#X connect 48 0 18 0;
#X connect 49 0 27 0;
#X connect 50 0 17 0;
#X connect 51 0 4 0;
#X connect 52 0 34 0;
#X connect 53 0 30 0;
#X connect 53 1 12 0;
#X connect 54 0 36 0;
#X connect 56 0 6 0;
#X connect 57 0 5 0;
#X connect 61 0 6 0;
#X connect 63 0 73 0;
#X connect 63 1 65 0;
#X connect 64 0 63 0;
#X connect 65 0 66 0;
#X connect 68 0 45 0;
#X connect 68 1 47 0;
#X connect 68 2 69 0;
#X connect 68 3 46 0;
#X connect 70 0 71 0;
#X connect 71 0 72 0;
#X connect 73 0 66 0;
#X connect 74 0 4 0;
#X coords 0 -1 1 1 130 140 2 30 15;
