#N canvas 95 120 1149 642 10;
#X obj 717 619 s to_global_presets;
#X obj 33 33 vradio 14 1 0 3 empty empty empty 0 -8 0 10 -262144 -1
-1 2;
#N canvas 41 97 450 250 (subpatch) 0;
#X array DELAY 10 float 3;
#A 0 13000 0 2700 400 2300 600 3000 2000 0 0;
#X coords 0 1000 10 0 200 140 1 0 0;
#X restore 1062 25 graph;
#N canvas 41 97 450 250 (subpatch) 0;
#X array GLISS 10 float 3;
#A 0 13000 0 0 0 0 0 0 2000 0 0;
#X coords 0 10 10 0 200 140 1 0 0;
#X restore 1062 508 graph;
#X obj 442 166 Array-Setter-Global;
#X obj 181 246 Array-Setter-Delay;
#X obj 830 246 Array-Setter-Gliss;
#X obj 442 3 sel 0 1 2 3 4 5;
#X obj 181 83 sel 0 1 2 3 4 5;
#X obj 830 83 sel 0 1 2 3 4 5;
#N canvas 41 97 450 250 (subpatch) 0;
#X array GLOBAL 10 float 3;
#A 0 18 18 8 7 9 7 8 19 19 5.07143;
#X coords 0 10 10 0 200 140 1 0 0;
#X restore 1062 186 graph;
#X obj 79 372 s array-setter-reset;
#X obj 88 427 s array-setters;
#X obj 442 -23 r array-setters;
#X obj 830 57 r array-setters;
#X obj 181 57 r array-setters;
#X obj 341 578 tabread DELAY;
#X obj 717 591 tabread GLOBAL;
#X obj 496 590 tabread GLISS;
#X obj 33 338 t b f b;
#X obj 359 388 f;
#X obj 395 388 + 1;
#X msg 377 366 0;
#X obj 377 345 r array-setter-reset;
#X obj 309 606 del;
#X obj 359 415 t f f;
#X msg 262 513 stop;
#X obj 309 550 t b f;
#X obj 262 480 sel 1;
#X obj 262 452 >= 5;
#X obj 56 460 sel 0 1 2 3 4 5;
#X text 41 16 TRANSITIONS;
#X msg 496 493 set \$1;
#X floatatom 496 514 5 0 0 0 - - -, f 5;
#X obj 496 532 + 1;
#X obj 56 601 s seqlen;
#X obj 496 471 r seqlen;
#X obj 287 411 r seqlen;
#X text 559 497 Gliss needs extra \; value to reset it \; for the sake
of \; performance.;
#X text 822 270 Gliss gets extra value \; see below.;
#X obj 33 629 s triggernext;
#X obj 359 322 r triggernext;
#X obj 309 628 s triggernext;
#X obj 723 519 s globaltabread;
#X obj 783 456 s glisstabread;
#X obj 743 498 s delaytabread;
#X obj 496 562 r glisstabread;
#X obj 309 522 r delaytabread;
#X obj 717 562 r globaltabread;
#X obj 351 497 del 10;
#X obj 56 401 t f f;
#X text 92 580 Note: N-1;
#X text 86 225 Transition 1;
#X text 86 204 Transition 2;
#X obj 496 618 s gliss-length-receive;
#X obj 610 83 sel 0 1 2 3 4 5;
#X obj 610 57 r array-setters;
#X obj 610 246 Array-Setter-Gliss-Presets;
#N canvas 41 97 450 250 (subpatch) 0;
#X array GLISS-PRESETS 10 float 3;
#A 0 4 0 0 0 0 0 0 4 0 0;
#X coords 0 10 10 0 200 140 1 0 0;
#X restore 1062 347 graph;
#X obj 723 432 t f f f f;
#X obj 763 477 s glisspresetstabread;
#X obj 889 564 r glisspresetstabread;
#X obj 889 592 tabread GLISS-PRESETS;
#X obj 889 620 s to_gliss_presets;
#X floatatom 840 552 5 0 0 0 - - -, f 5;
#X floatatom 648 555 5 0 0 0 - - -, f 5;
#X floatatom 442 540 5 0 0 0 - - -, f 5;
#X obj 90 503 t b b;
#X obj 122 552 s rhythm-presets-receive;
#X msg 122 524 0;
#X msg 644 183 4 \, 0;
#X msg 864 177 13000 \, 0;
#X msg 89 524 1;
#X msg 476 103 18 \, 18;
#X msg 459 124 6 \, 7 \, 8 \, 7 \, 9 \, 7 \, 8 \, 19 \, 19;
#X msg 442 145 1 \, 4 \, 1 \, 20 \, 8 \, 5 \, 5;
#X msg 627 204 0 \, 0 \, 0 \, 0 \, 0 \, 0 \, 0 \, 4 \, 0;
#X msg 610 225 2 \, 0 \, 0 \, 1 \, 2 \, 4 \, 0;
#X msg 847 204 0 \, 0 \, 0 \, 0 \, 0 \, 0 \, 0 \, 2000 \, 0;
#X msg 830 224 1200 \, 0 \, 0 \, 1000 \, 0 \, 4000 \, 0;
#X msg 74 552 8;
#X msg 57 577 6;
#X msg 181 225 1200 \, 400 \, 250 \, 800 \, 1000 \, 4000 \, 0;
#X msg 198 204 2000 \, 600 \, 2700 \, 400 \, 2300 \, 600 \, 3000 \,
2000 \, 0;
#X text 49 33 TO WIND \; TO GRIND \; TO SALT;
#X msg 215 183 13000 \, 13000;
#X connect 1 0 19 0;
#X connect 7 0 75 0;
#X connect 7 1 74 0;
#X connect 7 2 73 0;
#X connect 8 0 82 0;
#X connect 8 1 83 0;
#X connect 8 2 85 0;
#X connect 9 0 79 0;
#X connect 9 1 78 0;
#X connect 9 2 71 0;
#X connect 13 0 7 0;
#X connect 14 0 9 0;
#X connect 15 0 8 0;
#X connect 16 0 24 1;
#X connect 17 0 0 0;
#X connect 18 0 54 0;
#X connect 19 0 40 0;
#X connect 19 1 50 0;
#X connect 19 2 11 0;
#X connect 20 0 21 0;
#X connect 20 0 25 0;
#X connect 21 0 20 1;
#X connect 22 0 20 1;
#X connect 23 0 22 0;
#X connect 24 0 42 0;
#X connect 25 0 29 0;
#X connect 25 1 59 0;
#X connect 26 0 24 0;
#X connect 27 0 24 0;
#X connect 27 1 16 0;
#X connect 28 0 26 0;
#X connect 28 0 49 0;
#X connect 29 0 28 0;
#X connect 30 0 81 0;
#X connect 30 1 80 0;
#X connect 30 2 67 0;
#X connect 32 0 33 0;
#X connect 33 0 34 0;
#X connect 34 0 18 0;
#X connect 36 0 32 0;
#X connect 37 0 29 1;
#X connect 41 0 20 0;
#X connect 46 0 18 0;
#X connect 46 0 66 0;
#X connect 47 0 27 0;
#X connect 48 0 17 0;
#X connect 48 0 65 0;
#X connect 49 0 33 0;
#X connect 50 0 30 0;
#X connect 50 1 12 0;
#X connect 55 0 77 0;
#X connect 55 1 76 0;
#X connect 55 2 70 0;
#X connect 56 0 55 0;
#X connect 59 0 43 0;
#X connect 59 1 45 0;
#X connect 59 2 60 0;
#X connect 59 3 44 0;
#X connect 61 0 62 0;
#X connect 61 0 64 0;
#X connect 62 0 63 0;
#X connect 67 0 72 0;
#X connect 67 1 69 0;
#X connect 69 0 68 0;
#X connect 70 0 57 0;
#X connect 71 0 6 0;
#X connect 72 0 35 0;
#X connect 73 0 4 0;
#X connect 74 0 4 0;
#X connect 75 0 4 0;
#X connect 76 0 57 0;
#X connect 77 0 57 0;
#X connect 78 0 6 0;
#X connect 79 0 6 0;
#X connect 80 0 35 0;
#X connect 81 0 35 0;
#X connect 82 0 5 0;
#X connect 83 0 5 0;
#X connect 85 0 5 0;
#X coords 0 -1 1 1 130 140 2 30 15;
