#N canvas 231 89 1129 660 10;
#X obj 717 619 s to_global_presets;
#X obj 496 618 s to_gliss_presets;
#X obj 33 33 vradio 14 1 0 8 empty empty empty 0 -8 0 10 -262144 -1
-1 0;
#N canvas 41 97 450 250 (subpatch) 0;
#X array DELAY 10 float 3;
#A 0 500 400 250 400 1000 100 200 300 607.143 971.429;
#X coords 0 1000 10 0 200 140 1 0 0;
#X restore 912 25 graph;
#N canvas 41 97 450 250 (subpatch) 0;
#X array GLISS 10 float 3;
#A 0 3 0 0 1 3 5 0 3 0 0;
#X coords 0 10 10 0 200 140 1 0 0;
#X restore 912 348 graph;
#X obj 522 246 Array-Setter-Global;
#X obj 261 246 Array-Setter-Delay;
#X obj 710 246 Array-Setter-Gliss;
#X obj 522 83 sel 0 1 2 3 4 5;
#X obj 261 83 sel 0 1 2 3 4 5;
#X obj 710 83 sel 0 1 2 3 4 5;
#N canvas 41 97 450 250 (subpatch) 0;
#X array GLOBAL 10 float 3;
#A 0 1 2 1 6 7 8 0 0 0 5.07143;
#X coords 0 10 10 0 200 140 1 0 0;
#X restore 912 186 graph;
#X obj 79 432 s array-setter-reset;
#X obj 88 487 s array-setters;
#X obj 522 57 r array-setters;
#X obj 710 57 r array-setters;
#X obj 261 57 r array-setters;
#X obj 341 578 tabread DELAY;
#X obj 717 591 tabread GLOBAL;
#X obj 496 590 tabread GLISS;
#X obj 33 398 t b f b;
#X obj 359 388 f;
#X obj 395 388 + 1;
#X msg 377 366 0;
#X obj 377 345 r array-setter-reset;
#X obj 309 606 del;
#X obj 359 415 t f f;
#X msg 262 513 stop;
#X obj 309 550 t b f;
#X obj 262 480 sel 1;
#X obj 262 452 >= 5;
#X obj 56 520 sel 0 1 2 3 4 5;
#X msg 56 577 5;
#X text 41 16 TRANSITIONS;
#X msg 522 225 1 \, 2 \, 1 \, 6 \, 7 \, 8;
#X msg 496 493 set \$1;
#X floatatom 496 514 5 0 0 0 - - -, f 5;
#X obj 496 532 + 1;
#X obj 56 601 s seqlen;
#X obj 496 471 r seqlen;
#X obj 287 411 r seqlen;
#X text 559 497 Gliss needs extra \; value to reset it \; for the sake
of \; performance.;
#X text 702 270 Gliss gets extra value \; see below.;
#X obj 33 629 s triggernext;
#X obj 359 322 r triggernext;
#X obj 309 628 s triggernext;
#X msg 261 225 500 \, 400 \, 250 \, 400 \, 1000 \, 100;
#X obj 723 432 t f f f;
#X obj 723 499 s globaltabread;
#X obj 769 457 s glisstabread;
#X obj 746 478 s delaytabread;
#X obj 496 562 r glisstabread;
#X obj 309 522 r delaytabread;
#X obj 717 562 r globaltabread;
#X msg 539 204 19 \, 17 \, 18;
#X obj 351 497 del 10;
#X obj 56 461 t f f;
#X msg 73 550 2;
#X text 92 580 Note: N-1;
#X msg 727 204 3 \, 0 \, 0 \, 0;
#X msg 278 204 3000 \, 2500;
#X msg 710 225 3 \, 0 \, 0 \, 1 \, 3 \, 5 \, 0;
#X text 166 225 Transition 1;
#X text 166 204 Transition 2;
#X text 58 35 comment;
#X connect 2 0 20 0;
#X connect 8 0 34 0;
#X connect 8 1 54 0;
#X connect 9 0 46 0;
#X connect 9 1 60 0;
#X connect 10 0 61 0;
#X connect 10 1 59 0;
#X connect 14 0 8 0;
#X connect 15 0 10 0;
#X connect 16 0 9 0;
#X connect 17 0 25 1;
#X connect 18 0 0 0;
#X connect 19 0 1 0;
#X connect 20 0 43 0;
#X connect 20 1 56 0;
#X connect 20 2 12 0;
#X connect 21 0 22 0;
#X connect 21 0 26 0;
#X connect 22 0 21 1;
#X connect 23 0 21 1;
#X connect 24 0 23 0;
#X connect 25 0 45 0;
#X connect 26 0 30 0;
#X connect 26 1 47 0;
#X connect 27 0 25 0;
#X connect 28 0 25 0;
#X connect 28 1 17 0;
#X connect 29 0 27 0;
#X connect 29 0 55 0;
#X connect 30 0 29 0;
#X connect 31 0 32 0;
#X connect 31 1 57 0;
#X connect 32 0 38 0;
#X connect 34 0 5 0;
#X connect 35 0 36 0;
#X connect 36 0 37 0;
#X connect 37 0 19 0;
#X connect 39 0 35 0;
#X connect 40 0 30 1;
#X connect 44 0 21 0;
#X connect 46 0 6 0;
#X connect 47 0 48 0;
#X connect 47 1 50 0;
#X connect 47 2 49 0;
#X connect 51 0 19 0;
#X connect 52 0 28 0;
#X connect 53 0 18 0;
#X connect 54 0 5 0;
#X connect 55 0 36 0;
#X connect 56 0 31 0;
#X connect 56 1 13 0;
#X connect 57 0 38 0;
#X connect 59 0 7 0;
#X connect 60 0 6 0;
#X connect 61 0 7 0;
#X coords 0 -1 1 1 130 140 2 30 15;
