#N canvas 154 140 1012 566 10;
#X obj 223 177 statfeed~;
#X obj 601 -52 r fadertrim-\$2;
#N canvas 65 99 450 250 (subpatch) 0;
#X array \$0-array 125 float 3;
#A 0 -1 -1 -1 -1 -1 -1 -1 -1 -1 -1 -1 -1 -1 -1 -1 -1 -1 -1 -1 -1 -1
-1 -1 -1 -1 -1 -1 -1 -1 -1 -1 -1 -1 -1 -1 -1 -1 -1 -1 -1 -1 -1 -1 -1
-1 -1 -1 -1 -1 -1 -1 -1 -1 -1 -1 -1 -1 -1 -1 -1 -1 -1 -1 -1 -1 -1 -1
-1 -1 -1 -1 -1 -1 -1 -1 -1 -1 -1 -1 -1 -1 -1 -1 -1 -1 -1 -1 -1 -1 -1
-1 -1 -1 -1 -1 -1 -1 -1 -1 -1 -1 -1 -1 -1 -1 -1 -1 -1 -1 -1 -1 -1 -1
-1 -1 -1 -1 -1 -1 -1 -1 -1 -1 -1 -1;
#X coords 0 1 125 -1 250 230 2 0 0;
#X restore 601 159 graph;
#X obj 51 254 tabwrite~ \$0-array;
#X obj 51 196 metro 200;
#X obj 51 160 loadbang;
#X obj 601 101 nbx 3 57 -1e+37 1e+37 0 0 empty empty empty 0 -8 0 30
-1 -262144 -1 0 256;
#X obj 742 101 nbx 3 57 -1e+37 1e+37 0 0 empty empty empty 0 -8 0 30
-1 -262144 -1 0 256;
#X obj 253 88 spigot;
#X obj 742 -52 r fadertrim-\$3;
#X obj 283 144 spigot;
#X obj 714 132 tgl 24 0 empty empty empty 17 7 0 10 -1 -258113 -1 1
1;
#X obj 375 6 switch~;
#X obj 714 103 tgl 24 0 empty empty empty 17 7 0 10 -1 -258113 -1 1
1;
#X obj 223 433 s~ ugen\$1;
#X obj 223 -53 catch~ tougen\$1;
#X msg 437 231 0;
#X obj 437 208 sel 1;
#X obj 223 248 *~;
#X msg 469 231 1;
#X obj 437 184 < 1;
#X floatatom 439 276 5 0 0 0 - - -, f 5;
#X obj 603 389 hsl 246 20 0 1 0 0 empty empty empty -2 -8 0 10 -262144
-1 -1 19300 1;
#X obj 373 -26 r ugen-\$1-dsp;
#X obj 392 40 loadbang;
#X msg 382 76 1;
#X text 433 66 Make a thing so: \; 1 numbers disconnect \; 2;
#X obj 429 332 r ugen\$1-external-vol;
#X msg 429 354 set \$1;
#X obj 627 445 s ugen\$1-external-vol;
#X connect 0 0 3 0;
#X connect 0 0 18 0;
#X connect 1 0 6 0;
#X connect 4 0 3 0;
#X connect 5 0 4 0;
#X connect 6 0 8 0;
#X connect 6 0 20 0;
#X connect 7 0 10 0;
#X connect 8 0 0 1;
#X connect 9 0 7 0;
#X connect 10 0 0 2;
#X connect 15 0 0 0;
#X connect 16 0 18 1;
#X connect 16 0 21 0;
#X connect 17 0 16 0;
#X connect 17 1 19 0;
#X connect 18 0 14 0;
#X connect 19 0 18 1;
#X connect 19 0 21 0;
#X connect 20 0 17 0;
#X connect 22 0 29 0;
#X connect 23 0 12 0;
#X connect 24 0 25 0;
#X connect 25 0 8 1;
#X connect 25 0 10 1;
#X connect 27 0 28 0;
#X connect 28 0 22 0;
#X coords 0 -1 1 1 252 310 2 600 100;
