#N canvas 65 81 613 409 10;
#X obj 270 22 inlet;
#X obj 270 46 hradio 15 1 0 8 empty empty empty 0 -8 0 10 -262144 -1
-1 0;
#X msg 270 230 0 0 0;
#X msg 287 209 1 1 1;
#X msg 305 188 0 1 0;
#X msg 322 167 0.5 1 0.5;
#X msg 340 146 1 0 1;
#X obj 270 265 unpack f f f;
#X obj 270 332 s volume-0;
#X obj 310 311 s volume-1;
#X obj 351 290 s volume-2;
#X obj 270 69 sel 0 1 2 3 4;
#X text 71 138 Volumes \; 1 All Down \; 2 All Up \; 3 One Up \, Two
Down \; 4 One Up \, Two Mid \; 5 Two Up \, One Down \;;
#X connect 0 0 1 0;
#X connect 1 0 11 0;
#X connect 2 0 7 0;
#X connect 3 0 7 0;
#X connect 4 0 7 0;
#X connect 5 0 7 0;
#X connect 6 0 7 0;
#X connect 7 0 8 0;
#X connect 7 1 9 0;
#X connect 7 2 10 0;
#X connect 11 0 2 0;
#X connect 11 1 3 0;
#X connect 11 2 4 0;
#X connect 11 3 5 0;
#X connect 11 4 6 0;
