#N canvas 67 110 1008 610 10;
#X obj 201 251 cnv 15 248 48 empty empty empty 20 12 0 14 -162280 -66577
0;
#X obj 220 254 nbx 2 42 -1e+37 1e+37 0 0 empty empty empty 0 -8 0 25
-262144 -1 -1 0 256;
#X obj 288 254 nbx 3 14 -1e+37 1e+37 0 0 empty empty empty 0 -8 0 10
-262144 -1 -1 0.930711 256;
#X obj 263 229 inlet;
#X obj 288 463 outlet;
#X obj 288 268 nbx 3 14 -1e+37 1e+37 0 0 empty empty empty 0 -8 0 10
-262144 -1 -1 -0.434567 256;
#X obj 339 463 outlet;
#X obj 288 282 nbx 3 14 -1e+37 1e+37 0 0 empty empty empty 0 -8 0 10
-262144 -1 -1 -0.563471 256;
#X obj 390 463 outlet;
#X obj 301 230 inlet;
#X obj 340 230 inlet;
#X obj 227 177 inlet;
#X obj 411 254 nbx 3 14 -1e+37 1e+37 0 0 empty empty empty 0 -8 0 10
-262144 -1 -1 0 256;
#X obj 411 268 nbx 3 14 -1e+37 1e+37 0 0 empty empty empty 0 -8 0 10
-262144 -1 -1 0 256;
#X obj 411 282 nbx 3 14 -1e+37 1e+37 0 0 empty empty empty 0 -8 0 10
-262144 -1 -1 0 256;
#X obj 441 230 inlet;
#X obj 481 230 inlet;
#X obj 521 230 inlet;
#X obj 324 260 nbx 4 30 -1e+37 1e+37 0 0 empty empty empty 0 -8 0 20
-262144 -1 -1 0 256;
#X obj 404 230 inlet;
#X obj 631 294 outlet;
#X obj 677 295 outlet;
#X obj 723 296 outlet;
#X obj 288 58 r fader_or_knob_\$1;
#X obj 288 78 r fader_or_knob_\$2;
#X obj 288 98 r fader_or_knob_\$3;
#X obj 324 118 r fader_or_knob_\$4;
#X obj 220 132 r fader_or_knob_\$5;
#X connect 1 0 2 0;
#X connect 1 0 5 0;
#X connect 1 0 7 0;
#X connect 2 0 4 0;
#X connect 3 0 2 0;
#X connect 5 0 6 0;
#X connect 7 0 8 0;
#X connect 9 0 5 0;
#X connect 10 0 7 0;
#X connect 11 0 1 0;
#X connect 12 0 20 0;
#X connect 13 0 21 0;
#X connect 14 0 22 0;
#X connect 15 0 12 0;
#X connect 16 0 13 0;
#X connect 17 0 14 0;
#X connect 18 0 12 0;
#X connect 18 0 13 0;
#X connect 18 0 14 0;
#X connect 19 0 18 0;
#X connect 23 0 2 0;
#X connect 24 0 5 0;
#X connect 25 0 7 0;
#X connect 26 0 18 0;
#X connect 27 0 1 0;
#X coords 0 -1 1 1 250 50 2 200 250;
