#N canvas 1218 128 676 910 10;
#X obj 196 64 inlet;
#X obj 316 208 +;
#X obj 198 180 atan2;
#X obj 196 151 unpack;
#X obj 196 93 t a a;
#X obj 316 111 unpack;
#X obj 316 169 expr (pow($f1 \, 2));
#X obj 349 140 expr (pow($f1 \, 2));
#X obj 316 230 expr (pow($f1 \, 0.5));
#X msg 196 122 \$2 \$1;
#X obj 198 277 outlet;
#X obj 198 248 pack;
#X connect 0 0 4 0;
#X connect 1 0 8 0;
#X connect 2 0 11 0;
#X connect 3 0 2 0;
#X connect 3 1 2 1;
#X connect 4 0 9 0;
#X connect 4 1 5 0;
#X connect 5 0 6 0;
#X connect 5 1 7 0;
#X connect 6 0 1 0;
#X connect 7 0 1 1;
#X connect 8 0 11 1;
#X connect 9 0 3 0;
#X connect 11 0 10 0;
