#N canvas 16 567 1865 513 10;
#X obj 183 458 Gem;
#X obj 102 458 dac~;
#X obj 30 391 r~ channel0;
#X obj 111 391 r~ channel1;
#X obj 192 391 r~ channel2;
#X obj 192 420 *~ 0.666;
#X obj 30 418 *~ 0.666;
#X obj 111 418 *~ 0.3;
#X obj 289 391 controller_stuff_sfgem;
#X obj 21 141 cnv 15 1625 228 empty empty empty 20 12 0 14 -233017
-66577 0;
#X obj 1411 160 hradio 25 1 0 3 empty empty empty 0 -8 0 10 -262144
-1 -1 0;
#X obj 779 161 bng 25 250 50 0 empty empty empty 17 7 0 10 -262144
-1 -1;
#X obj 870 161 tgl 25 0 empty empty empty 17 7 0 10 -262144 -1 -1 0
1;
#X obj 962 161 tgl 25 0 empty empty empty 17 7 0 10 -262144 -1 -1 0
1;
#X text 865 145 NOISE;
#X obj 717 161 bng 25 250 50 0 empty empty empty 17 7 0 10 -262144
-1 -1;
#X obj 824 161 bng 25 250 50 0 empty empty empty 17 7 0 10 -261234
-1 -1;
#X text 691 191 SIZE;
#X text 32 249 SPIN;
#X obj 289 420 stay_time_translator_rotator_router_sfgem;
#X obj 705 391 load_run_buttons_and_instruction_reader_router_sfgem
;
#X obj 1578 160 tgl 25 0 empty empty empty 17 7 0 10 -262144 -1 -1
0 1;
#X obj 1578 391 s mirror_on_off;
#X obj 1168 161 tgl 25 0 empty empty empty 17 7 0 10 -262144 -1 -1
0 1;
#X obj 916 428 s timer_on_off;
#X obj 962 55 r play_rec;
#X text 242 191 POLAR ADD;
#X text 247 249 CARTESIAN MULT;
#X obj 1507 160 hradio 25 1 0 2 empty empty empty 0 -8 0 10 -262144
-1 -1 1;
#X obj 244 205 polar_add_subpatch;
#X obj 244 263 cartesian_multiplication_subpatch;
#X obj 693 205 size_subpatch;
#X text 692 306 STAYTIME;
#X text 462 306 ROTATION;
#X obj 694 320 staytime_subpatch;
#X obj 461 320 rotation_subpatch;
#X obj 27 263 spin_subpatch 16 17 18;
#X text 465 248 ORBIT;
#X obj 1507 415 s ctrl_or_comp;
#X obj 446 391 presetter_sfgem;
#X obj 1168 101 r record_video;
#X obj 870 57 r noise_onoff;
#X obj 1076 161 tgl 25 0 empty empty empty 17 7 0 10 -262144 -1 -1
0 1;
#X obj 1076 53 r gem_window;
#X obj 1507 77 r control_or_comp_receive;
#X msg 1122 391 \; pd dsp \$1;
#X obj 1122 161 tgl 25 0 empty empty empty 17 7 0 10 -262144 -1 -1
0 1;
#X text 1122 145 DSP;
#X obj 1122 77 r dsp_onoff;
#X obj 916 33 r timer_on_off_receive;
#X obj 1411 391 swapper;
#X obj 1008 158 nbx 3 15 -1e+37 1e+37 0 0 empty empty empty 0 -8 0
14 -262144 -1 -1 0 256;
#X text 1068 144 WINDOW;
#X obj 1008 79 r timer_2pnl;
#X text 1422 143 SWAP;
#X text 1505 143 CTRL/CMP;
#X obj 1578 101 r mirror_on_off_rec;
#X obj 1411 77 r swapper_rec;
#X text 708 144 LABELS;
#X text 770 144 SNDFILE;
#X obj 916 161 tgl 25 0 empty empty empty 17 7 0 10 -262144 -1 -1 0
1;
#X text 909 145 TIMER;
#X text 956 145 SOUND;
#X obj 1008 173 nbx 3 15 -1e+37 1e+37 0 0 empty empty empty 0 -8 0
14 -262144 -1 -1 0 256;
#X obj 1008 101 r timer_offset;
#X obj 1008 428 s timer_offset_to_timer;
#X obj 696 439 s repeat_labels_load;
#X obj 758 415 s repeat_soundfile_load;
#X obj 696 167 bng 15 250 50 0 empty empty empty 17 7 0 10 -262144
-1 -1;
#X obj 758 167 bng 15 250 50 0 empty empty empty 17 7 0 10 -262144
-1 -1;
#X obj 824 101 t b f;
#X text 693 249 PHASE;
#X obj 911 263 y_offset_subpatch;
#X text 910 249 Y-OFFSET;
#X text 908 191 X-OFFSET;
#X obj 910 205 x_offset_subpatch;
#X obj 1149 195 statfeed_for_sfgem;
#X text 1166 145 VID;
#X text 821 144 PLAY;
#X text 1013 141 TIMER;
#X text 1012 187 HEADER;
#X text 27 306 FLIP X;
#X text 242 306 FLIP Y;
#X obj 461 263 orbit_subpatch;
#X obj 27 320 flip_x_subpatch;
#X obj 244 320 flip_y_subpatch;
#X obj 27 205 x_add_subpatch;
#X obj 461 205 y_add_subpatch;
#X obj 694 263 phase_subpatch;
#X obj 1365 161 bng 25 250 50 0 empty empty empty 17 7 0 10 -262144
-1 -1;
#X obj 1365 415 s snapshot;
#X text 27 190 X ADD;
#X text 459 191 Y ADD;
#X obj 530 145 x_y_absolute_subpatch 2 5;
#X obj 911 317 image_subpatch;
#X obj 1030 317 text_subpatch;
#X text 910 304 IMAGE;
#X text 1028 304 TEXT;
#X obj 1297 415 s codec;
#X obj 1214 391 s frame_rate;
#X obj 1214 161 nbx 3 25 -1e+37 1e+37 0 0 empty empty empty 0 -8 0
18 -262144 -1 -1 0 256;
#X obj 1297 161 nbx 2 25 -1e+37 1e+37 0 0 empty empty empty 0 -8 0
18 -262144 -1 -1 0 256;
#X text 1358 145 PHOTO;
#X text 1214 145 FRAMERATE;
#X text 1297 145 CODEC;
#X text 1570 143 MIRROR;
#X obj 96 145 x_y_absolute_subpatch 0 3;
#X obj 312 145 x_y_absolute_subpatch 1 4;
#X connect 2 0 6 0;
#X connect 3 0 7 0;
#X connect 4 0 5 0;
#X connect 5 0 1 1;
#X connect 6 0 1 0;
#X connect 7 0 1 0;
#X connect 7 0 1 1;
#X connect 10 0 50 0;
#X connect 11 0 20 1;
#X connect 12 0 20 4;
#X connect 13 0 20 5;
#X connect 15 0 20 0;
#X connect 16 0 20 3;
#X connect 21 0 22 0;
#X connect 23 0 70 0;
#X connect 25 0 13 0;
#X connect 28 0 38 0;
#X connect 40 0 23 0;
#X connect 41 0 12 0;
#X connect 42 0 20 2;
#X connect 43 0 42 0;
#X connect 44 0 28 0;
#X connect 46 0 45 0;
#X connect 48 0 46 0;
#X connect 49 0 60 0;
#X connect 53 0 51 0;
#X connect 56 0 21 0;
#X connect 57 0 10 0;
#X connect 60 0 24 0;
#X connect 63 0 65 0;
#X connect 64 0 63 0;
#X connect 68 0 66 0;
#X connect 69 0 67 0;
#X connect 70 0 16 0;
#X connect 70 1 20 6;
#X connect 89 0 90 0;
#X connect 100 0 99 0;
#X connect 101 0 98 0;
#X coords 0 -1 1 1 1627 230 1 20 140;
