#N canvas 709 437 987 593 10;
#X obj 316 216 pix_image;
#X obj 316 114 gemhead;
#X obj 48 318 pix_texture;
#X obj 169 336 translateXYZ;
#X floatatom 192 286 5 0 0 0 - - -;
#X floatatom 215 309 5 0 0 0 - - -;
#X floatatom 263 319 5 0 0 0 - - -;
#X obj 169 384 rectangle;
#X obj 402 366 *;
#X obj 429 366 *;
#X obj 456 314 t b f;
#X floatatom 456 176 5 0 0 0 - - -;
#X msg 375 184 open \$1;
#X obj 375 136 unpack s f f f;
#X obj 375 160 symbol;
#X obj 263 240 loadbang;
#X obj 192 135 r image_x;
#X obj 215 159 r image_y;
#X obj 48 234 color;
#X obj 75 186 pack f f f;
#X floatatom 75 82 5 0 0 0 - - -;
#X obj 75 162 t f f f;
#X obj 75 138 line;
#X floatatom 85 110 5 0 0 0 - - -;
#X obj 192 201 line;
#X obj 215 241 line;
#X text 518 249 image \; aux0 = which image \; 1 = x \; 2 = y \; 3
= linespeed \; 4 = size \; 5 = fade-in \; 6 = fade speed \;;
#X obj 402 263 / 175;
#X obj 429 286 / 175;
#X obj 375 22 r image_number;
#X obj 75 53 r image_fade;
#X obj 127 92 r image_fade_speed;
#X obj 250 183 r image_xy_speed;
#X obj 456 220 *;
#X floatatom 550 203 5 0 0 0 - - -;
#X obj 550 164 r image_size;
#X obj 550 40 nbx 2 16 -1e+37 1e+37 0 0 empty empty empty 0 -8 0 14
-262144 -1 -1 0 256;
#X obj 586 40 nbx 2 16 -1e+37 1e+37 0 0 empty empty empty 0 -8 0 14
-262144 -1 -1 0 256;
#X obj 622 40 nbx 2 16 -1e+37 1e+37 0 0 empty empty empty 0 -8 0 14
-262144 -1 -1 0 256;
#X obj 586 56 nbx 5 16 -1e+37 1e+37 0 0 empty empty empty 0 -8 0 14
-262144 -1 -1 0 256;
#X obj 550 56 nbx 2 16 -1e+37 1e+37 0 0 empty empty empty 0 -8 0 14
-262144 -1 -1 0 256;
#X obj 550 71 nbx 2 16 -1e+37 1e+37 0 0 empty empty empty 0 -8 0 14
-262144 -1 -1 0 256;
#X obj 586 71 nbx 5 16 -1e+37 1e+37 0 0 empty empty empty 0 -8 0 14
-262144 -1 -1 0 256;
#X obj 635 156 loadbang;
#X msg 635 185 1;
#X obj 330 240 loadbang;
#X msg 330 268 100;
#X msg 329 291 100;
#X obj 169 360 alpha;
#X obj 252 345 tgl 15 0 empty empty empty 17 7 0 10 -262144 -1 -1 1
1;
#X obj 313 324 loadbang;
#X msg 282 342 1;
#X obj 375 50 image_presets_subpatch;
#X text 227 52 IMAGE NAMES \, DATA;
#X connect 0 0 18 0;
#X connect 1 0 0 0;
#X connect 2 0 3 0;
#X connect 3 0 48 0;
#X connect 4 0 3 1;
#X connect 5 0 3 2;
#X connect 6 0 3 3;
#X connect 8 0 7 1;
#X connect 9 0 7 2;
#X connect 10 0 8 0;
#X connect 10 0 9 0;
#X connect 10 1 9 1;
#X connect 10 1 8 1;
#X connect 11 0 33 0;
#X connect 12 0 0 0;
#X connect 13 0 14 0;
#X connect 13 1 27 0;
#X connect 13 2 28 0;
#X connect 13 3 11 0;
#X connect 14 0 12 0;
#X connect 15 0 6 0;
#X connect 16 0 24 0;
#X connect 16 0 37 0;
#X connect 17 0 25 0;
#X connect 17 0 38 0;
#X connect 18 0 2 0;
#X connect 19 0 18 1;
#X connect 20 0 22 0;
#X connect 21 0 19 0;
#X connect 21 1 19 1;
#X connect 21 2 19 2;
#X connect 22 0 21 0;
#X connect 23 0 22 1;
#X connect 24 0 4 0;
#X connect 25 0 5 0;
#X connect 27 0 8 0;
#X connect 28 0 9 0;
#X connect 29 0 36 0;
#X connect 29 0 52 0;
#X connect 30 0 20 0;
#X connect 30 0 41 0;
#X connect 31 0 23 0;
#X connect 31 0 42 0;
#X connect 32 0 25 1;
#X connect 32 0 24 1;
#X connect 32 0 39 0;
#X connect 33 0 10 0;
#X connect 34 0 33 1;
#X connect 35 0 34 0;
#X connect 35 0 40 0;
#X connect 43 0 44 0;
#X connect 44 0 34 0;
#X connect 45 0 46 0;
#X connect 45 0 47 0;
#X connect 46 0 4 0;
#X connect 47 0 5 0;
#X connect 48 0 7 0;
#X connect 49 0 48 0;
#X connect 50 0 51 0;
#X connect 51 0 49 0;
#X connect 52 0 13 0;
#X coords 0 -1 1 1 108 47 2 550 40;
