#N canvas 35 168 987 593 10;
#X obj 259 212 pix_image;
#X obj 259 129 gemhead;
#X obj 22 298 pix_texture;
#X obj 112 316 translateXYZ;
#X floatatom 135 266 5 0 0 0 - - -, f 5;
#X floatatom 158 289 5 0 0 0 - - -, f 5;
#X floatatom 206 299 5 0 0 0 - - -, f 5;
#X obj 112 347 rectangle;
#X obj 365 329 *;
#X obj 392 329 *;
#X obj 438 311 t b f;
#X floatatom 419 196 5 0 0 0 - - -, f 5;
#X msg 338 194 open \$1;
#X obj 338 136 unpack s f f f;
#X obj 338 165 symbol;
#X obj 206 279 loadbang;
#X obj 135 138 r image_x;
#X obj 175 158 r image_y;
#X obj 22 230 color;
#X obj 49 182 pack f f f;
#X floatatom 75 61 5 0 0 0 - - -, f 5;
#X obj 75 146 t f f f;
#X obj 75 117 line;
#X floatatom 85 89 5 0 0 0 - - -, f 5;
#X obj 135 177 line;
#X obj 158 207 line;
#X text 596 106 image \; aux0 = which image \; 1 = x \; 2 = y \; 3
= linespeed \; 4 = size \; 5 = fade-in \; 6 = fade speed \;;
#X msg 338 97 JVJ.png 136 53 1;
#X obj 365 280 / 175;
#X obj 392 303 / 175;
#X msg 357 75 shadows1.jpg 2000 1554 0.1;
#X obj 338 22 r image_number;
#X obj 338 53 sel 0 1;
#X obj 75 32 r image_fade;
#X obj 127 71 r image_fade_speed;
#X obj 193 179 r image_xy_speed;
#X obj 438 242 *;
#X floatatom 492 203 5 0 0 0 - - -, f 5;
#X obj 492 164 r image_size;
#X obj 550 40 nbx 2 16 -1e+37 1e+37 0 0 empty empty empty 0 -8 0 14
-262144 -1 -1 0 256;
#X obj 586 40 nbx 2 16 -1e+37 1e+37 0 0 empty empty empty 0 -8 0 14
-262144 -1 -1 0 256;
#X obj 622 40 nbx 2 16 -1e+37 1e+37 0 0 empty empty empty 0 -8 0 14
-262144 -1 -1 0 256;
#X obj 586 56 nbx 5 16 -1e+37 1e+37 0 0 empty empty empty 0 -8 0 14
-262144 -1 -1 0 256;
#X obj 550 56 nbx 2 16 -1e+37 1e+37 0 0 empty empty empty 0 -8 0 14
-262144 -1 -1 0 256;
#X obj 550 71 nbx 2 16 -1e+37 1e+37 0 0 empty empty empty 0 -8 0 14
-262144 -1 -1 0 256;
#X obj 586 71 nbx 5 16 -1e+37 1e+37 0 0 empty empty empty 0 -8 0 14
-262144 -1 -1 0 256;
#X obj 536 225 loadbang;
#X msg 547 254 1;
#X obj 656 347 loadbang;
#X msg 625 395 100;
#X msg 666 391 100;
#X connect 0 0 18 0;
#X connect 1 0 0 0;
#X connect 2 0 3 0;
#X connect 3 0 7 0;
#X connect 4 0 3 1;
#X connect 5 0 3 2;
#X connect 6 0 3 3;
#X connect 8 0 7 1;
#X connect 9 0 7 2;
#X connect 10 0 8 0;
#X connect 10 0 9 0;
#X connect 10 1 9 1;
#X connect 10 1 8 1;
#X connect 11 0 36 0;
#X connect 12 0 0 0;
#X connect 13 0 14 0;
#X connect 13 1 28 0;
#X connect 13 2 29 0;
#X connect 13 3 11 0;
#X connect 14 0 12 0;
#X connect 15 0 6 0;
#X connect 16 0 24 0;
#X connect 16 0 40 0;
#X connect 17 0 25 0;
#X connect 17 0 41 0;
#X connect 18 0 2 0;
#X connect 19 0 18 1;
#X connect 20 0 22 0;
#X connect 21 0 19 0;
#X connect 21 1 19 1;
#X connect 21 2 19 2;
#X connect 22 0 21 0;
#X connect 23 0 22 1;
#X connect 24 0 4 0;
#X connect 25 0 5 0;
#X connect 27 0 13 0;
#X connect 28 0 8 0;
#X connect 29 0 9 0;
#X connect 30 0 13 0;
#X connect 31 0 32 0;
#X connect 31 0 39 0;
#X connect 32 0 27 0;
#X connect 32 1 30 0;
#X connect 33 0 20 0;
#X connect 33 0 44 0;
#X connect 34 0 23 0;
#X connect 34 0 45 0;
#X connect 35 0 25 1;
#X connect 35 0 24 1;
#X connect 35 0 42 0;
#X connect 36 0 10 0;
#X connect 37 0 36 1;
#X connect 38 0 37 0;
#X connect 38 0 43 0;
#X connect 46 0 47 0;
#X connect 47 0 37 0;
#X connect 48 0 49 0;
#X connect 48 0 50 0;
#X connect 49 0 4 0;
#X connect 50 0 5 0;
#X coords 0 -1 1 1 108 47 2 550 40;
