#N canvas 193 126 1056 746 10;
#X obj 300 172 textfile;
#X obj 300 122 bng 30 250 50 0 empty empty empty 17 7 0 10 #fcfcfc
#000000 #000000;
#X msg 369 143 rewind;
#X obj 342 104 t b b;
#X obj 268 600 s start-instruction;
#X obj 306 419 -;
#X obj 306 488 abs;
#X obj 279 370 t f f;
#X obj 241 541 sel 1;
#X obj 241 622 s trigger_next_textline;
#X obj 300 75 r trigger_next_textline;
#X obj 418 125 openpanel;
#X floatatom 256 484 5 0 0 0 - - - 0;
#X floatatom 306 517 5 0 0 0 - - - 0;
#X obj 418 48 inlet;
#X obj 342 48 inlet;
#X obj 241 48 inlet;
#X obj 306 545 * 1000;
#X floatatom 241 120 5 0 0 0 - - - 0;
#X obj 306 574 s current_instruction_length;
#X obj 241 512 >=;
#X obj 451 219 s timer_on_off;
#X msg 451 190 0;
#X msg 418 154 read \$1;
#X obj 342 488 s current_instruction;
#X obj 241 570 t b b;
#X obj 363 429 s aux_inst_0;
#X obj 385 400 s aux_inst_1;
#X obj 406 371 s aux_inst_2;
#X obj 427 342 s aux_inst_3;
#X obj 449 429 s aux_inst_4;
#X obj 470 400 s aux_inst_5;
#X obj 491 371 s aux_inst_6;
#X obj 512 342 s aux_inst_7;
#X obj 567 491 s aux_inst_all;
#X obj 300 210 t a b;
#X obj 327 268 s control_or_comp_receive;
#X msg 327 239 1;
#X obj 504 273 r instruction_bypass;
#X obj 550 208 s noise_onoff;
#X obj 342 464 print current instruction;
#X obj 603 146 r repeat_labels_load;
#X msg 533 143 set \$1;
#X msg 533 164 /home/joshua/Desktop/Statfeed - Sampler Video Draft
1/Statfeed-Sampler-Video-Labels-FULL.txt;
#X obj 482 164 symbol;
#X obj 300 301 unpack f f s f f f f f f f f f f, f 43;
#X obj 567 462 pack f f f f f f f f f f;
#X obj 534 429 s aux_inst_8;
#X obj 555 400 s aux_inst_9;
#X connect 0 0 35 0;
#X connect 0 1 22 0;
#X connect 1 0 0 0;
#X connect 2 0 0 0;
#X connect 3 0 1 0;
#X connect 3 1 2 0;
#X connect 5 0 6 0;
#X connect 6 0 13 0;
#X connect 7 0 12 0;
#X connect 7 1 5 0;
#X connect 8 0 25 0;
#X connect 10 0 1 0;
#X connect 11 0 23 0;
#X connect 11 0 42 0;
#X connect 12 0 20 1;
#X connect 13 0 17 0;
#X connect 14 0 11 0;
#X connect 15 0 3 0;
#X connect 16 0 18 0;
#X connect 17 0 19 0;
#X connect 18 0 20 0;
#X connect 20 0 8 0;
#X connect 22 0 21 0;
#X connect 22 0 39 0;
#X connect 23 0 0 0;
#X connect 25 0 9 0;
#X connect 25 1 4 0;
#X connect 35 0 45 0;
#X connect 35 1 37 0;
#X connect 37 0 36 0;
#X connect 38 0 45 0;
#X connect 41 0 43 0;
#X connect 42 0 43 0;
#X connect 43 0 44 0;
#X connect 44 0 23 0;
#X connect 45 0 7 0;
#X connect 45 1 5 1;
#X connect 45 2 24 0;
#X connect 45 2 40 0;
#X connect 45 3 26 0;
#X connect 45 3 46 0;
#X connect 45 4 27 0;
#X connect 45 4 46 1;
#X connect 45 5 28 0;
#X connect 45 5 46 2;
#X connect 45 6 29 0;
#X connect 45 6 46 3;
#X connect 45 7 30 0;
#X connect 45 7 46 4;
#X connect 45 8 31 0;
#X connect 45 8 46 5;
#X connect 45 9 32 0;
#X connect 45 9 46 6;
#X connect 45 10 33 0;
#X connect 45 10 46 7;
#X connect 45 11 46 8;
#X connect 45 11 47 0;
#X connect 45 12 46 9;
#X connect 45 12 48 0;
#X connect 46 0 34 0;
