#N canvas 505 252 450 300 10;
#X obj 150 116 route 999 666;
#X msg 150 138 999;
#X msg 187 138 0;
#X obj 225 138 * -1;
#X obj 150 68 inlet;
#X obj 150 187 outlet;
#X connect 0 0 1 0;
#X connect 0 1 2 0;
#X connect 0 2 3 0;
#X connect 1 0 5 0;
#X connect 2 0 5 0;
#X connect 3 0 5 0;
#X connect 4 0 0 0;
