#N canvas 0 96 1710 843 10;
#X obj 187 223 line;
#X obj 237 550 outlet;
#X obj 169 68 inlet;
#X msg 187 194 0 \, 1 \$1;
#X obj 169 97 unpack;
#X obj 187 165 f;
#X obj 237 517 +;
#X obj 187 471 *;
#X obj 254 453 -;
#X floatatom 237 489 5 0 0 0 - - -;
#X obj 292 435 f;
#X obj 217 134 t b f b, f 13;
#X obj 322 176 r stop_all_liners;
#X msg 322 205 stop;
#X obj 547 365 expr (1 / (1 + pow(2.7182818 \, ($f2 * -$f1))));
#X obj 187 314 expr pow($f1 \, $f2);
#X obj 187 383 spigot;
#X obj 547 291 t f f;
#X obj 547 345 / 1;
#X obj 547 269 * 12;
#X obj 547 321 - 6;
#X obj 337 383 spigot;
#X obj 683 274 inlet;
#X obj 431 365 unpack;
#X obj 458 223 unpack;
#X msg 458 194 1 0;
#X msg 489 194 0 1;
#X obj 187 252 spigot;
#X obj 458 251 spigot;
#X obj 458 165 sel 0 1;
#X obj 431 103 inlet;
#X obj 431 287 sel 0 1;
#X msg 431 335 1 0;
#X msg 462 335 0 1;
#X obj 431 132 t f f;
#X obj 639 85 loadbang;
#X msg 676 114 1;
#X msg 639 114 0;
#X obj 676 296 t f f;
#X obj 551 399 r reset_liner_memory;
#X obj 307 109 inlet;
#X msg 491 417 0;
#X obj 486 103 r liner_function_all;
#X text 284 90 SET LINER MEMORY;
#X text 483 82 EXPONENTIAL OR SIGMOID;
#X text 692 255 EXPONENT;
#X text 588 422 RESET;
#X text 312 417 MEMORY OF PREVIOUS VALUE;
#X connect 0 0 27 0;
#X connect 0 0 28 0;
#X connect 2 0 4 0;
#X connect 3 0 0 0;
#X connect 4 0 11 0;
#X connect 4 1 5 1;
#X connect 5 0 3 0;
#X connect 6 0 1 0;
#X connect 6 0 10 1;
#X connect 7 0 9 0;
#X connect 8 0 7 1;
#X connect 9 0 6 0;
#X connect 10 0 8 1;
#X connect 10 0 6 1;
#X connect 11 0 5 0;
#X connect 11 1 8 0;
#X connect 11 2 10 0;
#X connect 12 0 13 0;
#X connect 13 0 0 0;
#X connect 14 0 21 0;
#X connect 15 0 16 0;
#X connect 16 0 7 0;
#X connect 17 0 20 0;
#X connect 18 0 14 0;
#X connect 19 0 17 0;
#X connect 20 0 18 0;
#X connect 21 0 7 0;
#X connect 22 0 38 0;
#X connect 23 0 16 1;
#X connect 23 1 21 1;
#X connect 24 0 27 1;
#X connect 24 1 28 1;
#X connect 25 0 24 0;
#X connect 26 0 24 0;
#X connect 27 0 15 0;
#X connect 28 0 19 0;
#X connect 29 0 25 0;
#X connect 29 1 26 0;
#X connect 30 0 34 0;
#X connect 31 0 32 0;
#X connect 31 1 33 0;
#X connect 32 0 23 0;
#X connect 33 0 23 0;
#X connect 34 0 31 0;
#X connect 34 1 29 0;
#X connect 35 0 37 0;
#X connect 35 0 36 0;
#X connect 36 0 38 0;
#X connect 37 0 34 0;
#X connect 38 0 15 1;
#X connect 38 1 14 1;
#X connect 39 0 41 0;
#X connect 40 0 10 1;
#X connect 41 0 10 1;
#X connect 41 0 6 1;
#X connect 42 0 34 0;
