#N canvas 97 246 1027 737 10;
#X obj 141 222 pack;
#X obj 182 292 pack;
#X obj 222 358 pack;
#X obj 101 62 r phase_master_set;
#X obj 135 82 r phase_0_set;
#X obj 170 102 r phase_1_set;
#X obj 205 122 r phase_2_set;
#X obj 239 62 r phase_speed_all;
#X obj 274 82 r phase_speed_0;
#X obj 309 102 r phase_speed_1;
#X obj 344 122 r phase_speed_2;
#X obj 141 409 s phase_0;
#X obj 141 449 s phase_3;
#X obj 182 429 s phase_1;
#X obj 182 469 s phase_4;
#X obj 223 449 s phase_2;
#X obj 223 489 s phase_5;
#X obj 263 519 s phase_0_speed_rec;
#X obj 263 539 s phase_3_speed_rec;
#X obj 303 579 s phase_4_speed_rec;
#X obj 303 559 s phase_1_speed_rec;
#X obj 344 599 s phase_2_speed_rec;
#X obj 344 619 s phase_5_speed_rec;
#X obj 101 151 control_numbers_window 999 999 999 999 6;
#X obj 101 554 value phase_master;
#X obj 141 574 value phase_0;
#X obj 182 594 value phase_1;
#X obj 223 614 value phase_2;
#X obj 373 153 value phase_random_max;
#X obj 373 182 value phase_random_min;
#X obj 530 153 value phase_time_random_max;
#X obj 530 182 value phase_time_random_min;
#X obj 141 266 Tarer 0;
#X obj 182 336 Tarer 1;
#X obj 222 402 Tarer 2;
#X obj 732 67 loadbang;
#X obj 732 96 t b b b b;
#X msg 783 135 1000;
#X msg 776 164 100;
#X obj 469 58 del 1;
#X msg 458 79 0.5;
#X msg 722 164 0.4;
#X msg 732 135 0.6;
#X obj 141 246 liner_sfgem;
#X obj 182 316 liner_sfgem;
#X obj 222 382 liner_sfgem;
#X obj 347 437 r phase_liner_exponent;
#X obj 348 470 r phase_liner_function;
#X obj 469 29 r reset_function_values;
#X connect 0 0 43 0;
#X connect 1 0 44 0;
#X connect 2 0 45 0;
#X connect 3 0 23 0;
#X connect 4 0 23 1;
#X connect 5 0 23 2;
#X connect 6 0 23 3;
#X connect 7 0 23 4;
#X connect 8 0 23 5;
#X connect 9 0 23 6;
#X connect 10 0 23 7;
#X connect 23 0 24 0;
#X connect 23 1 25 0;
#X connect 23 1 0 0;
#X connect 23 2 26 0;
#X connect 23 2 1 0;
#X connect 23 3 27 0;
#X connect 23 3 2 0;
#X connect 23 4 17 0;
#X connect 23 4 18 0;
#X connect 23 4 0 1;
#X connect 23 5 20 0;
#X connect 23 5 19 0;
#X connect 23 5 1 1;
#X connect 23 6 22 0;
#X connect 23 6 21 0;
#X connect 23 6 2 1;
#X connect 32 0 11 0;
#X connect 32 0 12 0;
#X connect 33 0 13 0;
#X connect 33 0 14 0;
#X connect 34 0 15 0;
#X connect 34 0 16 0;
#X connect 35 0 36 0;
#X connect 36 0 41 0;
#X connect 36 1 42 0;
#X connect 36 2 38 0;
#X connect 36 3 37 0;
#X connect 37 0 30 0;
#X connect 38 0 31 0;
#X connect 39 0 40 0;
#X connect 40 0 23 0;
#X connect 41 0 29 0;
#X connect 42 0 28 0;
#X connect 43 0 32 0;
#X connect 43 0 32 0;
#X connect 44 0 33 0;
#X connect 45 0 34 0;
#X connect 46 0 43 3;
#X connect 46 0 44 3;
#X connect 46 0 45 3;
#X connect 47 0 43 2;
#X connect 47 0 44 2;
#X connect 47 0 45 2;
#X connect 48 0 39 0;
#X coords 0 -1 1 1 206 44 1 100 150;
