#N canvas 644 177 853 662 10;
#X obj 129 34 inlet;
#X msg 98 160 \$1_liner_function;
#X msg 156 285 \$1_liner_exponent;
#X obj 319 178 symbol;
#X obj 350 303 symbol;
#X obj 265 196 s;
#X obj 335 332 s;
#X obj 129 63 t b a;
#X obj 229 79 r aux_inst_0;
#X obj 214 108 f;
#X obj 284 244 f;
#X obj 299 215 r aux_inst_1;
#X obj 214 137 route 999;
#X obj 284 273 route 999;
#X obj 98 132 symbol;
#X obj 156 256 symbol;
#X connect 0 0 7 0;
#X connect 1 0 3 0;
#X connect 2 0 4 0;
#X connect 3 0 5 1;
#X connect 4 0 6 1;
#X connect 7 0 9 0;
#X connect 7 0 10 0;
#X connect 7 1 14 0;
#X connect 7 1 15 0;
#X connect 8 0 9 1;
#X connect 9 0 12 0;
#X connect 10 0 13 0;
#X connect 11 0 10 1;
#X connect 12 1 5 0;
#X connect 13 1 6 0;
#X connect 14 0 1 0;
#X connect 15 0 2 0;
