#N canvas 875 381 720 464 10;
#X obj 378 211 s;
#X msg 393 182 \$1_fade;
#X obj 108 211 s;
#X obj 168 211 s;
#X obj 228 211 s;
#X obj 35 211 s;
#X obj 318 211 s;
#X msg 123 182 \$1_x;
#X msg 183 182 \$1_y;
#X msg 243 182 \$1_xy_speed;
#X msg 50 182 \$1_number;
#X msg 333 182 \$1_size;
#X msg 454 182 \$1_fade_speed;
#X obj 439 214 s;
#X obj 35 137 f;
#X obj 571 164 symbol;
#X obj 108 137 f;
#X obj 168 137 f;
#X obj 228 137 f;
#X obj 318 137 f;
#X obj 378 137 f;
#X obj 438 137 f;
#X obj 544 55 inlet;
#X obj 50 36 r aux_inst_0;
#X obj 123 56 r aux_inst_1;
#X obj 183 76 r aux_inst_2;
#X obj 243 96 r aux_inst_3;
#X obj 333 56 r aux_inst_4;
#X obj 393 76 r aux_inst_5;
#X obj 453 96 r aux_inst_6;
#X obj 544 119 t b a;
#X connect 1 0 0 1;
#X connect 7 0 2 1;
#X connect 8 0 3 1;
#X connect 9 0 4 1;
#X connect 10 0 5 1;
#X connect 11 0 6 1;
#X connect 12 0 13 1;
#X connect 14 0 5 0;
#X connect 15 0 12 0;
#X connect 15 0 1 0;
#X connect 15 0 11 0;
#X connect 15 0 9 0;
#X connect 15 0 8 0;
#X connect 15 0 7 0;
#X connect 15 0 10 0;
#X connect 16 0 2 0;
#X connect 17 0 3 0;
#X connect 18 0 4 0;
#X connect 19 0 6 0;
#X connect 20 0 0 0;
#X connect 21 0 13 0;
#X connect 22 0 30 0;
#X connect 23 0 14 1;
#X connect 24 0 16 1;
#X connect 25 0 17 1;
#X connect 26 0 18 1;
#X connect 27 0 19 1;
#X connect 28 0 20 1;
#X connect 29 0 21 1;
#X connect 30 0 21 0;
#X connect 30 0 20 0;
#X connect 30 0 19 0;
#X connect 30 0 18 0;
#X connect 30 0 17 0;
#X connect 30 0 16 0;
#X connect 30 0 14 0;
#X connect 30 1 15 0;
