#N canvas 975 655 450 300 10;
#X obj 28 244 s freeze_orbit_0_rec;
#X obj 158 244 s freeze_orbit_1_rec;
#X obj 288 244 s freeze_orbit_2_rec;
#X obj 28 40 inlet;
#X obj 28 205 f;
#X obj 158 205 f;
#X obj 288 205 f;
#X obj 28 70 t b b b;
#X obj 43 161 r aux_inst_0;
#X obj 173 161 r aux_inst_1;
#X obj 303 161 r aux_inst_2;
#X connect 3 0 7 0;
#X connect 4 0 0 0;
#X connect 5 0 1 0;
#X connect 6 0 2 0;
#X connect 7 0 4 0;
#X connect 7 1 5 0;
#X connect 7 2 6 0;
#X connect 8 0 4 1;
#X connect 9 0 5 1;
#X connect 10 0 6 1;
