#N canvas 70 109 869 542 10;
#X obj 240 235 s;
#X msg 288 191 \$1_random_max;
#X msg 288 320 \$1_time_random_max;
#X obj 240 378 s;
#X obj 420 235 s;
#X obj 420 378 s;
#X obj 89 137 t b b b b a;
#X obj 152 173 symbol;
#X obj 240 155 f;
#X obj 420 155 f;
#X obj 240 297 f;
#X obj 420 297 f;
#X obj 152 302 symbol;
#X obj 255 126 r aux_inst_0;
#X obj 435 126 r aux_inst_1;
#X obj 435 266 r aux_inst_3;
#X obj 255 266 r aux_inst_2;
#X obj 89 108 inlet;
#X obj 255 349 symbol;
#X obj 435 350 symbol;
#X obj 472 217 symbol;
#X obj 288 217 symbol;
#X msg 472 191 \$1_random_min;
#X msg 472 320 \$1_time_random_min;
#X connect 1 0 21 0;
#X connect 2 0 18 0;
#X connect 6 0 10 0;
#X connect 6 1 11 0;
#X connect 6 2 8 0;
#X connect 6 3 9 0;
#X connect 6 4 7 0;
#X connect 6 4 12 0;
#X connect 7 0 22 0;
#X connect 7 0 1 0;
#X connect 8 0 0 0;
#X connect 9 0 4 0;
#X connect 10 0 3 0;
#X connect 11 0 5 0;
#X connect 12 0 2 0;
#X connect 12 0 23 0;
#X connect 13 0 8 1;
#X connect 14 0 9 1;
#X connect 15 0 11 1;
#X connect 16 0 10 1;
#X connect 17 0 6 0;
#X connect 18 0 3 1;
#X connect 19 0 5 1;
#X connect 20 0 4 1;
#X connect 21 0 0 1;
#X connect 22 0 20 0;
#X connect 23 0 19 0;
