#N canvas 0 181 1858 479 10;
#X obj 4 8 inlet;
#X obj 1625 47 r aux_inst_0;
#X obj 1712 47 r aux_inst_1;
#X obj 4 65 f;
#X obj 37 65 f;
#X obj 4 45 t b b;
#X obj 4 85 s x_add_random_max;
#X obj 4 105 s x_add_random_min;
#X obj 160 65 f;
#X obj 193 65 f;
#X obj 160 45 t b b;
#X obj 306 65 f;
#X obj 339 65 f;
#X obj 306 45 t b b;
#X obj 473 65 f;
#X obj 506 65 f;
#X obj 473 45 t b b;
#X obj 639 65 f;
#X obj 672 65 f;
#X obj 639 45 t b b;
#X obj 785 65 f;
#X obj 818 65 f;
#X obj 785 45 t b b;
#X obj 932 65 f;
#X obj 965 65 f;
#X obj 932 45 t b b;
#X obj 1078 65 f;
#X obj 1111 65 f;
#X obj 1078 45 t b b;
#X obj 1214 65 f;
#X obj 1247 65 f;
#X obj 1214 45 t b b;
#X obj 160 85 s spin_random_max;
#X obj 160 105 s spin_random_min;
#X obj 306 85 s pol_add_random_max;
#X obj 306 105 s pol_add_random_min;
#X obj 473 85 s cartmult_random_max;
#X obj 473 105 s cartmult_random_min;
#X obj 639 85 s y_add_random_max;
#X obj 639 105 s y_add_random_min;
#X obj 785 85 s orbit_random_max;
#X obj 785 105 s orbit_random_min;
#X obj 932 85 s size_random_max;
#X obj 932 105 s size_random_min;
#X obj 1078 85 s rot_random_max;
#X obj 1214 85 s phase_random_max;
#X obj 1214 105 s phase_random_min;
#X obj 160 8 inlet;
#X obj 306 8 inlet;
#X obj 473 8 inlet;
#X obj 639 8 inlet;
#X obj 785 8 inlet;
#X obj 932 8 inlet;
#X obj 1078 8 inlet;
#X obj 1214 8 inlet;
#X obj 1625 137 r aux_inst_2;
#X obj 1712 137 r aux_inst_3;
#X obj 4 155 f;
#X obj 37 155 f;
#X obj 4 135 t b b;
#X obj 160 155 f;
#X obj 193 155 f;
#X obj 160 135 t b b;
#X obj 306 155 f;
#X obj 339 155 f;
#X obj 306 135 t b b;
#X obj 473 155 f;
#X obj 506 155 f;
#X obj 473 135 t b b;
#X obj 639 155 f;
#X obj 672 155 f;
#X obj 639 135 t b b;
#X obj 785 155 f;
#X obj 818 155 f;
#X obj 785 135 t b b;
#X obj 932 155 f;
#X obj 965 155 f;
#X obj 932 135 t b b;
#X obj 1078 155 f;
#X obj 1111 155 f;
#X obj 1078 135 t b b;
#X obj 1214 155 f;
#X obj 1247 155 f;
#X obj 1214 135 t b b;
#X obj 4 195 s x_add_time_random_min;
#X obj 1214 175 s phase_time_random_max;
#X obj 1214 195 s phase_time_random_min;
#X obj 1078 105 s rot_random_min;
#X obj 1078 175 s rot_time_random_max;
#X obj 1078 195 s rot_time_random_min;
#X obj 932 175 s size_time_random_max;
#X obj 932 195 s size_time_random_min;
#X obj 785 175 s orbit_time_random_max;
#X obj 785 195 s orbit_time_random_min;
#X obj 639 175 s y_add_time_random_max;
#X obj 639 195 s y_add_time_random_min;
#X obj 473 175 s cartmult_time_random_max;
#X obj 473 195 s cartmult_time_random_min;
#X obj 306 175 s pol_add_time_random_max;
#X obj 306 195 s pol_add_time_random_min;
#X obj 160 175 s spin_time_random_max;
#X obj 160 195 s spin_time_random_min;
#X obj 4 175 s x_add_time_random_max;
#X obj 1364 65 f;
#X obj 1397 65 f;
#X obj 1364 45 t b b;
#X obj 1364 8 inlet;
#X obj 1364 155 f;
#X obj 1397 155 f;
#X obj 1364 135 t b b;
#X obj 1534 65 f;
#X obj 1567 65 f;
#X obj 1534 45 t b b;
#X obj 1534 8 inlet;
#X obj 1534 155 f;
#X obj 1567 155 f;
#X obj 1534 135 t b b;
#X obj 1364 85 s x_offset_random_max;
#X obj 1364 105 s x_offset_random_min;
#X obj 1364 175 s x_offset_time_random_max;
#X obj 1364 195 s x_offset_time_random_min;
#X obj 1534 85 s y_offset_random_max;
#X obj 1534 105 s y_offset_random_min;
#X obj 1534 175 s y_offset_time_random_max;
#X obj 1534 195 s y_offset_time_random_min;
#X obj 1754 285 f;
#X obj 1787 285 f;
#X obj 1754 265 t b b;
#X obj 1754 228 inlet;
#X obj 1754 375 f;
#X obj 1787 375 f;
#X obj 1754 355 t b b;
#X obj 1754 305 s y_flip_random_max;
#X obj 1754 325 s y_flip_random_min;
#X obj 1754 395 s y_flip_time_random_max;
#X obj 1754 415 s y_flip_time_random_min;
#X obj 1594 285 f;
#X obj 1627 285 f;
#X obj 1594 265 t b b;
#X obj 1594 228 inlet;
#X obj 1594 375 f;
#X obj 1627 375 f;
#X obj 1594 355 t b b;
#X obj 1594 305 s x_flip_random_max;
#X obj 1594 325 s x_flip_random_min;
#X obj 1594 395 s x_flip_time_random_max;
#X obj 1594 415 s x_flip_time_random_min;
#X text 43 273 Make this use the variables and;
#X obj 251 271 s;
#X text 280 272 ... such a waste of space right now...;
#X obj 794 341 s;
#X msg 842 323 \$1_random_max;
#X msg 1026 323 \$1_random_max;
#X msg 842 422 \$1_time_random_max;
#X msg 1026 422 \$1_time_random_max;
#X obj 794 440 s;
#X obj 974 341 s;
#X obj 974 440 s;
#X obj 643 269 t b b b b a;
#X obj 706 305 symbol;
#X obj 794 287 f;
#X obj 974 287 f;
#X obj 794 399 f;
#X obj 974 399 f;
#X obj 706 404 symbol;
#X obj 809 258 r aux_inst_0;
#X obj 989 258 r aux_inst_1;
#X obj 989 368 r aux_inst_3;
#X obj 809 368 r aux_inst_2;
#X obj 643 240 inlet;
#X connect 0 0 5 0;
#X connect 0 0 59 0;
#X connect 1 0 3 1;
#X connect 1 0 8 1;
#X connect 1 0 11 1;
#X connect 1 0 14 1;
#X connect 1 0 17 1;
#X connect 1 0 20 1;
#X connect 1 0 23 1;
#X connect 1 0 26 1;
#X connect 1 0 29 1;
#X connect 1 0 110 1;
#X connect 1 0 103 1;
#X connect 1 0 136 1;
#X connect 1 0 125 1;
#X connect 2 0 4 1;
#X connect 2 0 9 1;
#X connect 2 0 12 1;
#X connect 2 0 15 1;
#X connect 2 0 18 1;
#X connect 2 0 21 1;
#X connect 2 0 24 1;
#X connect 2 0 27 1;
#X connect 2 0 30 1;
#X connect 2 0 111 1;
#X connect 2 0 104 1;
#X connect 2 0 137 1;
#X connect 2 0 126 1;
#X connect 3 0 6 0;
#X connect 4 0 7 0;
#X connect 5 0 3 0;
#X connect 5 1 4 0;
#X connect 8 0 32 0;
#X connect 9 0 33 0;
#X connect 10 0 8 0;
#X connect 10 1 9 0;
#X connect 11 0 34 0;
#X connect 12 0 35 0;
#X connect 13 0 11 0;
#X connect 13 1 12 0;
#X connect 14 0 36 0;
#X connect 15 0 37 0;
#X connect 16 0 14 0;
#X connect 16 1 15 0;
#X connect 17 0 38 0;
#X connect 18 0 39 0;
#X connect 19 0 17 0;
#X connect 19 1 18 0;
#X connect 20 0 40 0;
#X connect 21 0 41 0;
#X connect 22 0 20 0;
#X connect 22 1 21 0;
#X connect 23 0 42 0;
#X connect 24 0 43 0;
#X connect 25 0 23 0;
#X connect 25 1 24 0;
#X connect 26 0 44 0;
#X connect 27 0 87 0;
#X connect 28 0 26 0;
#X connect 28 1 27 0;
#X connect 29 0 45 0;
#X connect 30 0 46 0;
#X connect 31 0 29 0;
#X connect 31 1 30 0;
#X connect 47 0 10 0;
#X connect 47 0 62 0;
#X connect 48 0 13 0;
#X connect 48 0 65 0;
#X connect 49 0 16 0;
#X connect 49 0 68 0;
#X connect 50 0 19 0;
#X connect 50 0 71 0;
#X connect 51 0 22 0;
#X connect 51 0 74 0;
#X connect 52 0 25 0;
#X connect 52 0 77 0;
#X connect 53 0 28 0;
#X connect 53 0 80 0;
#X connect 54 0 31 0;
#X connect 54 0 83 0;
#X connect 55 0 81 1;
#X connect 55 0 78 1;
#X connect 55 0 75 1;
#X connect 55 0 72 1;
#X connect 55 0 69 1;
#X connect 55 0 66 1;
#X connect 55 0 60 1;
#X connect 55 0 57 1;
#X connect 55 0 63 1;
#X connect 55 0 114 1;
#X connect 55 0 107 1;
#X connect 55 0 140 1;
#X connect 55 0 129 1;
#X connect 56 0 82 1;
#X connect 56 0 79 1;
#X connect 56 0 76 1;
#X connect 56 0 73 1;
#X connect 56 0 70 1;
#X connect 56 0 67 1;
#X connect 56 0 64 1;
#X connect 56 0 61 1;
#X connect 56 0 58 1;
#X connect 56 0 115 1;
#X connect 56 0 108 1;
#X connect 56 0 141 1;
#X connect 56 0 130 1;
#X connect 57 0 102 0;
#X connect 58 0 84 0;
#X connect 59 0 57 0;
#X connect 59 1 58 0;
#X connect 60 0 100 0;
#X connect 61 0 101 0;
#X connect 62 0 60 0;
#X connect 62 1 61 0;
#X connect 63 0 98 0;
#X connect 64 0 99 0;
#X connect 65 0 63 0;
#X connect 65 1 64 0;
#X connect 66 0 96 0;
#X connect 67 0 97 0;
#X connect 68 0 66 0;
#X connect 68 1 67 0;
#X connect 69 0 94 0;
#X connect 70 0 95 0;
#X connect 71 0 69 0;
#X connect 71 1 70 0;
#X connect 72 0 92 0;
#X connect 73 0 93 0;
#X connect 74 0 72 0;
#X connect 74 1 73 0;
#X connect 75 0 90 0;
#X connect 76 0 91 0;
#X connect 77 0 75 0;
#X connect 77 1 76 0;
#X connect 78 0 88 0;
#X connect 79 0 89 0;
#X connect 80 0 78 0;
#X connect 80 1 79 0;
#X connect 81 0 85 0;
#X connect 82 0 86 0;
#X connect 83 0 81 0;
#X connect 83 1 82 0;
#X connect 103 0 117 0;
#X connect 104 0 118 0;
#X connect 105 0 103 0;
#X connect 105 1 104 0;
#X connect 106 0 105 0;
#X connect 106 0 109 0;
#X connect 107 0 119 0;
#X connect 108 0 120 0;
#X connect 109 0 107 0;
#X connect 109 1 108 0;
#X connect 110 0 121 0;
#X connect 111 0 122 0;
#X connect 112 0 110 0;
#X connect 112 1 111 0;
#X connect 113 0 112 0;
#X connect 113 0 116 0;
#X connect 114 0 123 0;
#X connect 115 0 124 0;
#X connect 116 0 114 0;
#X connect 116 1 115 0;
#X connect 125 0 132 0;
#X connect 126 0 133 0;
#X connect 127 0 125 0;
#X connect 127 1 126 0;
#X connect 128 0 127 0;
#X connect 128 0 131 0;
#X connect 129 0 134 0;
#X connect 130 0 135 0;
#X connect 131 0 129 0;
#X connect 131 1 130 0;
#X connect 136 0 143 0;
#X connect 137 0 144 0;
#X connect 138 0 136 0;
#X connect 138 1 137 0;
#X connect 139 0 138 0;
#X connect 139 0 142 0;
#X connect 140 0 145 0;
#X connect 141 0 146 0;
#X connect 142 0 140 0;
#X connect 142 1 141 0;
#X connect 151 0 150 1;
#X connect 152 0 156 1;
#X connect 153 0 155 1;
#X connect 154 0 157 1;
#X connect 158 0 162 0;
#X connect 158 1 163 0;
#X connect 158 2 160 0;
#X connect 158 3 161 0;
#X connect 158 4 159 0;
#X connect 158 4 164 0;
#X connect 159 0 152 0;
#X connect 159 0 151 0;
#X connect 160 0 150 0;
#X connect 161 0 156 0;
#X connect 162 0 155 0;
#X connect 163 0 157 0;
#X connect 164 0 153 0;
#X connect 164 0 154 0;
#X connect 165 0 160 1;
#X connect 166 0 161 1;
#X connect 167 0 163 1;
#X connect 168 0 162 1;
#X connect 169 0 158 0;
