#N canvas 137 121 1601 740 10;
#X obj 24 44 inlet;
#X obj 161 42 r aux_inst_all;
#X obj 934 32 r current_instruction_length;
#X msg 161 91 set \$1 \$2 \$3 \$4;
#X obj 161 150 unpack f f f f;
#X obj 645 150 unpack f f f f;
#X text 679 63 TIMES;
#X msg 161 120 456 999 999 999;
#X msg 645 120 666 999 999 999;
#X obj 961 163 t f f f f;
#X obj 24 102 t b b a;
#X obj 63 462 symbol;
#X msg 63 504 \$1_master_set;
#X obj 204 522 s;
#X msg 63 524 \$1_0_set;
#X obj 204 542 s;
#X msg 63 544 \$1_1_set;
#X obj 204 562 s;
#X msg 63 564 \$1_2_set;
#X obj 204 582 s;
#X msg 596 506 \$1_speed_all;
#X obj 774 524 s;
#X obj 556 480 t a;
#X msg 596 526 \$1_speed_0;
#X obj 153 504 symbol;
#X obj 153 524 symbol;
#X obj 153 544 symbol;
#X obj 153 564 symbol;
#X obj 684 506 symbol;
#X obj 684 526 symbol;
#X obj 684 546 symbol;
#X obj 684 566 symbol;
#X obj 801 544 s;
#X msg 596 546 \$1_speed_1;
#X obj 828 564 s;
#X msg 596 566 \$1_speed_2;
#X msg 645 83 set \$5 \$6 \$7 \$8;
#X obj 450 120 t a;
#X obj 855 584 s;
#X obj 829 120 t a;
#X obj 242 179 route 666 999;
#X obj 215 228 route 666 999;
#X obj 188 277 route 666 999;
#X obj 161 326 route 666 999;
#X obj 726 202 route 666 999 333;
#X obj 699 251 route 666 999 333;
#X obj 672 300 route 666 999 333;
#X obj 645 349 route 666 999 333;
#X text 947 53 999 - do nothing \; 666 - random \; 333 - current instruction
length;
#X obj 1015 238 spigot;
#X msg 923 220 1;
#X msg 1083 118 0;
#X obj 934 100 t b f;
#X obj 995 287 spigot;
#X msg 923 269 1;
#X obj 978 336 spigot;
#X msg 923 318 1;
#X obj 961 385 spigot;
#X msg 923 367 1;
#X obj 161 65 t a a;
#X obj 1015 216 f;
#X obj 995 265 f;
#X obj 978 313 f;
#X obj 961 363 f;
#X obj 1040 120 bng 15 250 50 0 empty empty empty 17 7 0 10 #fcfcfc
#000000 #000000;
#X msg 829 164 \$1_time;
#X obj 726 222 randomer_sfgem;
#X obj 829 142 symbol;
#X obj 161 347 randomer_sfgem;
#X obj 188 297 randomer_sfgem;
#X obj 215 248 randomer_sfgem;
#X obj 242 199 randomer_sfgem;
#X obj 699 271 randomer_sfgem;
#X obj 645 369 randomer_sfgem;
#X obj 672 320 randomer_sfgem;
#X obj 1126 100 loadbang;
#X text 1131 196 From Pulser;
#X obj 1098 295 randomer_sfgem;
#X obj 1098 245 unpack f f f f f f f f s, f 48;
#X obj 1098 486 t f;
#X obj 1133 340 randomer_sfgem;
#X obj 1133 506 t f;
#X obj 1169 385 randomer_sfgem;
#X obj 1204 430 randomer_sfgem;
#X obj 1169 526 t f;
#X obj 1204 546 t f;
#X obj 1240 295 randomer_sfgem;
#X obj 1276 340 randomer_sfgem;
#X obj 1311 385 randomer_sfgem;
#X obj 1347 430 randomer_sfgem;
#X obj 1241 506 t f;
#X obj 1276 526 t f;
#X obj 1311 546 t f;
#X obj 1347 566 t f;
#X obj 1098 274 route 666 999;
#X obj 1133 319 route 666 999;
#X obj 1169 364 route 666 999;
#X obj 1204 409 route 666 999;
#X obj 1240 274 route 666 999;
#X obj 1276 319 route 666 999;
#X obj 1311 364 route 666 999;
#X obj 1347 409 route 666 999;
#X obj 375 504 +;
#X obj 390 319 value;
#X obj 390 290 t b a;
#X msg 470 290 \$1_master;
#X obj 427 290 symbol;
#X obj 340 524 +;
#X obj 390 369 value;
#X obj 390 340 t b a;
#X obj 427 340 symbol;
#X obj 305 544 +;
#X obj 427 398 value;
#X obj 427 369 t b a;
#X obj 464 369 symbol;
#X obj 265 564 +;
#X obj 467 426 value;
#X obj 467 397 t b a;
#X obj 504 397 symbol;
#X msg 470 340 \$1_0;
#X msg 507 369 \$1_1;
#X msg 547 397 \$1_2;
#X obj 530 169 symbol;
#X obj 1419 218 symbol;
#X msg 1472 267 \$1_time;
#X obj 530 198 t a;
#X obj 1098 216 r genericplus_bypass_immediate;
#X connect 0 0 10 0;
#X connect 1 0 59 0;
#X connect 2 0 52 0;
#X connect 3 0 7 0;
#X connect 4 0 43 0;
#X connect 4 1 42 0;
#X connect 4 2 41 0;
#X connect 4 3 40 0;
#X connect 5 0 47 0;
#X connect 5 1 46 0;
#X connect 5 2 45 0;
#X connect 5 3 44 0;
#X connect 7 0 4 0;
#X connect 8 0 5 0;
#X connect 9 0 63 1;
#X connect 9 1 62 1;
#X connect 9 2 61 1;
#X connect 9 3 60 1;
#X connect 10 0 7 0;
#X connect 10 1 8 0;
#X connect 10 1 64 0;
#X connect 10 2 11 0;
#X connect 10 2 37 0;
#X connect 10 2 39 0;
#X connect 11 0 12 0;
#X connect 11 0 14 0;
#X connect 11 0 16 0;
#X connect 11 0 18 0;
#X connect 11 0 22 0;
#X connect 12 0 24 0;
#X connect 14 0 25 0;
#X connect 16 0 26 0;
#X connect 18 0 27 0;
#X connect 20 0 28 0;
#X connect 22 0 20 0;
#X connect 22 0 23 0;
#X connect 22 0 35 0;
#X connect 22 0 33 0;
#X connect 23 0 29 0;
#X connect 24 0 13 1;
#X connect 25 0 15 1;
#X connect 26 0 17 1;
#X connect 27 0 19 1;
#X connect 28 0 21 1;
#X connect 29 0 32 1;
#X connect 30 0 34 1;
#X connect 31 0 38 1;
#X connect 33 0 30 0;
#X connect 35 0 31 0;
#X connect 36 0 8 0;
#X connect 37 0 68 1;
#X connect 37 0 69 1;
#X connect 37 0 70 1;
#X connect 37 0 71 1;
#X connect 37 0 105 0;
#X connect 37 0 119 0;
#X connect 37 0 120 0;
#X connect 37 0 121 0;
#X connect 39 0 67 0;
#X connect 40 0 71 0;
#X connect 40 2 102 0;
#X connect 41 0 70 0;
#X connect 41 2 107 0;
#X connect 42 0 69 0;
#X connect 42 2 111 0;
#X connect 43 0 68 0;
#X connect 43 2 115 0;
#X connect 44 0 66 0;
#X connect 44 2 50 0;
#X connect 44 3 38 0;
#X connect 45 0 72 0;
#X connect 45 2 54 0;
#X connect 45 3 34 0;
#X connect 46 0 74 0;
#X connect 46 2 56 0;
#X connect 46 3 32 0;
#X connect 47 0 73 0;
#X connect 47 2 58 0;
#X connect 47 3 21 0;
#X connect 49 0 38 0;
#X connect 50 0 49 1;
#X connect 51 0 49 1;
#X connect 51 0 53 1;
#X connect 51 0 55 1;
#X connect 51 0 57 1;
#X connect 52 0 51 0;
#X connect 52 1 9 0;
#X connect 53 0 34 0;
#X connect 54 0 53 1;
#X connect 55 0 32 0;
#X connect 56 0 55 1;
#X connect 57 0 21 0;
#X connect 58 0 57 1;
#X connect 59 0 3 0;
#X connect 59 1 36 0;
#X connect 60 0 49 0;
#X connect 61 0 53 0;
#X connect 62 0 55 0;
#X connect 63 0 57 0;
#X connect 64 0 60 0;
#X connect 64 0 61 0;
#X connect 64 0 62 0;
#X connect 64 0 63 0;
#X connect 65 0 66 1;
#X connect 65 0 72 1;
#X connect 65 0 73 1;
#X connect 65 0 74 1;
#X connect 66 0 38 0;
#X connect 67 0 65 0;
#X connect 68 0 115 0;
#X connect 69 0 111 0;
#X connect 70 0 107 0;
#X connect 71 0 102 0;
#X connect 72 0 34 0;
#X connect 73 0 21 0;
#X connect 74 0 32 0;
#X connect 75 0 51 0;
#X connect 77 0 79 0;
#X connect 78 0 94 0;
#X connect 78 1 95 0;
#X connect 78 2 96 0;
#X connect 78 3 97 0;
#X connect 78 4 98 0;
#X connect 78 5 99 0;
#X connect 78 6 100 0;
#X connect 78 7 101 0;
#X connect 78 8 11 0;
#X connect 78 8 77 1;
#X connect 78 8 80 1;
#X connect 78 8 82 1;
#X connect 78 8 83 1;
#X connect 78 8 122 0;
#X connect 78 8 123 0;
#X connect 79 0 102 0;
#X connect 80 0 81 0;
#X connect 81 0 107 0;
#X connect 82 0 84 0;
#X connect 83 0 85 0;
#X connect 84 0 111 0;
#X connect 85 0 115 0;
#X connect 86 0 90 0;
#X connect 87 0 91 0;
#X connect 88 0 92 0;
#X connect 89 0 93 0;
#X connect 90 0 21 0;
#X connect 91 0 32 0;
#X connect 92 0 34 0;
#X connect 93 0 38 0;
#X connect 94 0 77 0;
#X connect 94 2 79 0;
#X connect 95 0 80 0;
#X connect 95 2 81 0;
#X connect 96 0 82 0;
#X connect 96 2 84 0;
#X connect 97 0 83 0;
#X connect 97 2 85 0;
#X connect 98 0 86 0;
#X connect 98 2 90 0;
#X connect 99 0 87 0;
#X connect 99 2 91 0;
#X connect 100 0 88 0;
#X connect 100 2 92 0;
#X connect 101 0 89 0;
#X connect 101 2 93 0;
#X connect 102 0 13 0;
#X connect 103 0 102 1;
#X connect 104 0 103 0;
#X connect 104 1 103 1;
#X connect 105 0 106 0;
#X connect 106 0 104 0;
#X connect 107 0 15 0;
#X connect 108 0 107 1;
#X connect 109 0 108 0;
#X connect 109 1 108 1;
#X connect 110 0 109 0;
#X connect 111 0 17 0;
#X connect 112 0 111 1;
#X connect 113 0 112 0;
#X connect 113 1 112 1;
#X connect 114 0 113 0;
#X connect 115 0 19 0;
#X connect 116 0 115 1;
#X connect 117 0 116 0;
#X connect 117 1 116 1;
#X connect 118 0 117 0;
#X connect 119 0 110 0;
#X connect 120 0 114 0;
#X connect 121 0 118 0;
#X connect 122 0 125 0;
#X connect 123 0 124 0;
#X connect 124 0 86 1;
#X connect 124 0 87 1;
#X connect 124 0 88 1;
#X connect 124 0 89 1;
#X connect 125 0 105 0;
#X connect 125 0 119 0;
#X connect 125 0 120 0;
#X connect 125 0 121 0;
#X connect 126 0 78 0;
