#N canvas 0 112 1407 952 10;
#X obj 31 39 r current_instruction;
#X obj 9 10 r start-instruction;
#X msg 31 142 symbol end;
#X msg 94 121 set symbol;
#X msg 31 121 add2 \$1;
#X obj 31 92 symbol;
#X obj 9 68 bng 15 250 50 0 empty empty empty 17 7 0 10 -262144 -1
-1;
#X obj 31 68 t a b, f 11;
#X msg 31 420 x_add;
#X obj 31 438 preset_sfgem_generic;
#X msg 94 420 spin;
#X msg 157 420 pol_add;
#X msg 283 420 y_add;
#X msg 346 420 orbit;
#X msg 409 420 size;
#X msg 472 420 rot;
#X msg 535 420 phase;
#X msg 31 486 x_add;
#X msg 105 486 spin;
#X msg 175 486 pol_add;
#X msg 323 486 y_add;
#X msg 396 486 orbit;
#X msg 469 486 size;
#X msg 543 486 rot;
#X msg 616 486 phase;
#X obj 326 21 inlet;
#X obj 326 50 t b a;
#X msg 250 486 cart_mult;
#X msg 220 420 cart_mult;
#X obj 224 301 t b b b;
#X obj 127 301 t b b b;
#X obj 417 301 t b b b;
#X obj 320 301 t b b b;
#X obj 31 301 t b b b;
#X msg 40 364 0 0;
#X msg 70 322 0 0;
#X msg 50 343 0 0;
#X msg 166 322 -0.867 0.5;
#X msg 146 343 0 -1;
#X msg 127 364 0.867 0.5;
#X msg 224 364 0.867 -0.5;
#X msg 243 343 0 1;
#X msg 263 322 -0.867 -0.5;
#X msg 320 364 1 0;
#X msg 339 343 0 0;
#X msg 359 322 -1 0;
#X msg 417 364 0 -1;
#X msg 436 343 0 0;
#X msg 456 322 0 1;
#X obj 501 340 s x_y_absolute-2-receive;
#X obj 501 361 s x_y_absolute-1-receive;
#X obj 501 382 s x_y_absolute-0-receive;
#X obj 662 340 s x_y_absolute-5-receive;
#X obj 662 361 s x_y_absolute-4-receive;
#X obj 662 382 s x_y_absolute-3-receive;
#X obj 754 163 r aux_inst_0;
#X obj 118 181 f;
#X obj 118 200 s noise_onoff;
#X obj 206 181 f;
#X obj 294 181 f;
#X obj 206 200 s dsp_onoff;
#X obj 382 181 f;
#X obj 294 200 s staytime;
#X obj 471 181 f;
#X obj 382 200 s swapper_rec;
#X msg 31 629 x_add;
#X msg 110 619 spin;
#X msg 189 619 pol_add;
#X msg 348 619 y_add;
#X msg 427 619 orbit;
#X msg 507 619 size;
#X msg 586 619 rot;
#X msg 663 619 phase;
#X msg 269 619 cart_mult;
#X obj 471 200 s mirror_on_off_rec;
#X obj 498 182 preset_sfgem_freeze_orbit;
#X obj 34 252 s reset_all_tarers;
#X obj 151 252 s reset_liner_memory;
#X obj 31 708 preset_sfgem_pulser;
#X obj 507 663 preset_sfgem_pulser;
#X obj 348 703 preset_sfgem_pulser;
#X obj 110 688 preset_sfgem_pulser;
#X obj 189 668 preset_sfgem_pulser;
#X obj 268 648 preset_sfgem_pulser;
#X obj 427 683 preset_sfgem_pulser;
#X obj 586 643 preset_sfgem_pulser;
#X obj 663 688 preset_sfgem_pulser;
#X obj 515 310 preset_sfgem_absolute_all, f 49;
#X text 813 341 Lower Left;
#X text 813 361 Upper Middle;
#X text 813 381 Lower Right;
#X obj 656 200 s timer_offset;
#X obj 656 181 f;
#X obj 31 181 f;
#X obj 31 200 s gem_window;
#X obj 955 252 preset_sfgem_zero_out;
#X msg 31 859 x_add;
#X msg 118 859 spin;
#X msg 205 859 pol_add;
#X msg 380 859 y_add;
#X msg 468 859 orbit;
#X msg 555 859 size;
#X msg 643 859 rot;
#X msg 730 859 phase;
#X msg 293 859 cart_mult;
#X obj 31 877 preset_sfgem_liner_function;
#X msg 598 420 x_offset;
#X msg 661 420 y_offset;
#X msg 689 486 x_offset;
#X msg 762 486 y_offset;
#X obj 745 668 preset_sfgem_pulser;
#X obj 824 648 preset_sfgem_pulser;
#X msg 745 619 x_offset;
#X msg 824 619 y_offset;
#X msg 1167 859 x_offset;
#X msg 1254 859 y_offset;
#X obj 942 331 f;
#X obj 942 351 f;
#X obj 942 371 f;
#X obj 903 310 t b b b;
#X obj 957 310 r aux_inst_0;
#X obj 1037 310 r aux_inst_1;
#X obj 1117 310 r aux_inst_2;
#X obj 975 331 s x_y_absolute-0-cartpol-rec;
#X obj 975 351 s x_y_absolute-1-cartpol-rec;
#X obj 975 371 s x_y_absolute-2-cartpol-rec;
#X obj 1099 904 s liner_function_all;
#X obj 1073 904 f;
#X obj 1073 924 f;
#X obj 1029 886 t b b;
#X obj 1088 859 r aux_inst_0;
#X obj 1088 881 r aux_inst_1;
#X msg 818 859 absolute-0;
#X msg 904 859 absolute-1;
#X msg 991 859 absolute-2;
#X obj 911 178 preset_sfgem_zero_functions;
#X msg 31 756 x_add;
#X msg 140 756 spin;
#X msg 219 756 pol_add;
#X msg 468 756 y_add;
#X msg 577 756 orbit;
#X msg 687 756 size;
#X msg 796 756 rot;
#X msg 905 756 phase;
#X msg 359 756 cart_mult;
#X msg 1015 756 x_offset;
#X msg 1124 756 y_offset;
#X obj 31 795 preset_sfgem_pulser_plus;
#X obj 140 775 preset_sfgem_pulser_plus;
#X obj 219 795 preset_sfgem_pulser_plus;
#X obj 359 775 preset_sfgem_pulser_plus;
#X obj 468 815 preset_sfgem_pulser_plus;
#X obj 577 795 preset_sfgem_pulser_plus;
#X obj 687 775 preset_sfgem_pulser_plus;
#X obj 796 795 preset_sfgem_pulser_plus;
#X obj 905 815 preset_sfgem_pulser_plus;
#X obj 1015 795 preset_sfgem_pulser_plus;
#X obj 1124 775 preset_sfgem_pulser_plus;
#X msg 724 420 flip_x;
#X msg 796 420 flip_y;
#X obj 31 467 sel x_add_plus spin_plus pol_add_plus cart_mult_plus
y_add_plus orbit_plus size_plus rot_plus phase_plus x_offset_plus y_offset_plus
flip_x_plus flip_y_plus, f 159;
#X msg 835 486 flip_x;
#X msg 908 486 flip_y;
#X obj 31 533 sel x_add_maxmin spin_maxmin pol_add_maxmin cart_mult_maxmin
y_add_maxmin orbit_maxmin size_maxmin rot_maxmin phase_maxmin x_offset_maxmin
y_offset_maxmin clip_x_maxmin flip_y_maxmin, f 183;
#X obj 31 600 sel x_add_pulse spin_pulse pol_add_pulse cart_mult_pulse
y_add_pulse orbit_pulse size_pulse rot_pulse phase_pulse x_offset_pulse
y_offset_pulse flip_x_pulse flip_y_pulse, f 174;
#X obj 911 668 preset_sfgem_pulser;
#X obj 990 648 preset_sfgem_pulser;
#X msg 911 619 flip_x;
#X msg 990 619 flip_y;
#X obj 31 737 sel x_add_pulse_plus spin_pulse_plus pol_add_pulse_plus
cart_mult_pulse_plus y_add_pulse_plus orbit_pulse_plus size_pulse_plus
rot_pulse_plus phase_pulse_plus x_offset_pulse_plus y_offset_pulse_plus
flip_x_pulse_plus flip_y_pulse_plus, f 237;
#X obj 1231 795 preset_sfgem_pulser_plus;
#X obj 1340 777 preset_sfgem_pulser_plus;
#X msg 1231 756 flip_x;
#X msg 1339 756 flip_y;
#X obj 31 840 sel x_add_liner spin_liner pol_add_liner cart_mult_liner
y_add_liner orbit_liner size_liner rot_liner phase_liner absolute-0_liner
absolute-1_liner absolute-2_liner liners_all x_offset_liner y_offset_liner
flip_x_liner flip_y_liner, f 248;
#X msg 1341 859 flip_x;
#X msg 1428 859 flip_y;
#X obj 429 252 s reset_function_times;
#X obj 280 252 s reset_function_values;
#X obj 1516 880 print NOTE (function not found);
#X obj 1087 252 s confirm_absolutes;
#X obj 31 504 preset_sfgem_genericplus;
#X msg 31 552 x_add, f 6;
#X msg 115 552 spin;
#X msg 199 552 pol_add;
#X msg 367 552 y_add;
#X msg 452 552 orbit;
#X msg 536 552 size;
#X msg 620 552 rot;
#X msg 704 552 phase;
#X msg 283 552 cart_mult;
#X msg 789 552 x_offset;
#X msg 873 552 y_offset;
#X msg 957 552 flip_x;
#X msg 1041 552 flip_y;
#X obj 31 570 preset_sfgem_maxmins, f 21;
#X obj 1002 438 preset_sfgem_image_text;
#X obj 31 401 sel x_add spin pol_add cart_mult y_add orbit size rot
phase x_offset y_offset flip_x flip_y image text, f 160;
#X msg 860 420 image;
#X msg 924 420 text;
#X obj 1099 925 s liner_exponent_all;
#X obj 1219 252 s absolute_liner_remember;
#X obj 1544 858 s variable_text;
#X obj 560 252 s reset_absolute_values;
#X obj 692 252 s reset_absolute_times;
#X obj 34 230 sel reset_all_tarers reset_liner_memory reset_function_values
reset_function_times reset_absolute_values reset_absolute_times zero_functions
zero_out confirm_absolutes absolute_liner_remember, f 220;
#X obj 31 281 sel center face triangle horizontal vertical x_y_absolute-0
x_y_absolute-1 x_y_absolute-2 x_y_absolute-all x_y_absolute-cartpol
, f 162;
#X obj 31 163 sel window noise dsp staytime swap mirror freeze_orbit
timer_offset, f 118;
#X text 440 4 reset_all_tarers: the float and minus in every tarer
is set to zero. So any new input is subtracted by zero \, not anything
else. So if I go x_add 5 \, then tare \, then reset_all_tarers \, then
x_add 7 \, I still go to 7 \, but from zero (except if liner_memory
is stil 5 \, there's no difference? \; reset_liner_memory:;
#X obj 953 118 print ZERODFUNCTIONS;
#X connect 0 0 7 0;
#X connect 1 0 6 0;
#X connect 2 0 207 0;
#X connect 3 0 2 0;
#X connect 4 0 2 0;
#X connect 5 0 4 0;
#X connect 6 0 2 0;
#X connect 7 0 5 0;
#X connect 7 1 3 0;
#X connect 8 0 9 0;
#X connect 10 0 9 0;
#X connect 11 0 9 0;
#X connect 12 0 9 0;
#X connect 13 0 9 0;
#X connect 14 0 9 0;
#X connect 15 0 9 0;
#X connect 16 0 9 0;
#X connect 17 0 181 0;
#X connect 18 0 181 0;
#X connect 19 0 181 0;
#X connect 20 0 181 0;
#X connect 21 0 181 0;
#X connect 22 0 181 0;
#X connect 23 0 181 0;
#X connect 24 0 181 0;
#X connect 25 0 26 0;
#X connect 26 0 6 0;
#X connect 26 1 7 0;
#X connect 27 0 181 0;
#X connect 28 0 9 0;
#X connect 29 0 40 0;
#X connect 29 1 41 0;
#X connect 29 2 42 0;
#X connect 30 0 39 0;
#X connect 30 1 38 0;
#X connect 30 2 37 0;
#X connect 31 0 46 0;
#X connect 31 1 47 0;
#X connect 31 2 48 0;
#X connect 32 0 43 0;
#X connect 32 1 44 0;
#X connect 32 2 45 0;
#X connect 33 0 34 0;
#X connect 33 1 36 0;
#X connect 33 2 35 0;
#X connect 34 0 51 0;
#X connect 34 0 54 0;
#X connect 35 0 49 0;
#X connect 35 0 52 0;
#X connect 36 0 50 0;
#X connect 36 0 53 0;
#X connect 37 0 49 0;
#X connect 37 0 52 0;
#X connect 38 0 50 0;
#X connect 38 0 53 0;
#X connect 39 0 51 0;
#X connect 39 0 54 0;
#X connect 40 0 51 0;
#X connect 40 0 54 0;
#X connect 41 0 50 0;
#X connect 41 0 53 0;
#X connect 42 0 49 0;
#X connect 42 0 52 0;
#X connect 43 0 51 0;
#X connect 43 0 54 0;
#X connect 44 0 50 0;
#X connect 44 0 53 0;
#X connect 45 0 49 0;
#X connect 45 0 52 0;
#X connect 46 0 51 0;
#X connect 46 0 54 0;
#X connect 47 0 50 0;
#X connect 47 0 53 0;
#X connect 48 0 49 0;
#X connect 48 0 52 0;
#X connect 55 0 56 1;
#X connect 55 0 58 1;
#X connect 55 0 59 1;
#X connect 55 0 61 1;
#X connect 55 0 63 1;
#X connect 55 0 92 1;
#X connect 55 0 93 1;
#X connect 56 0 57 0;
#X connect 58 0 60 0;
#X connect 59 0 62 0;
#X connect 61 0 64 0;
#X connect 63 0 74 0;
#X connect 65 0 78 0;
#X connect 66 0 81 0;
#X connect 67 0 82 0;
#X connect 68 0 80 0;
#X connect 69 0 84 0;
#X connect 70 0 79 0;
#X connect 71 0 85 0;
#X connect 72 0 86 0;
#X connect 73 0 83 0;
#X connect 92 0 91 0;
#X connect 93 0 94 0;
#X connect 96 0 105 0;
#X connect 97 0 105 0;
#X connect 98 0 105 0;
#X connect 99 0 105 0;
#X connect 100 0 105 0;
#X connect 101 0 105 0;
#X connect 102 0 105 0;
#X connect 103 0 105 0;
#X connect 104 0 105 0;
#X connect 106 0 9 0;
#X connect 107 0 9 0;
#X connect 108 0 181 0;
#X connect 109 0 181 0;
#X connect 112 0 110 0;
#X connect 113 0 111 0;
#X connect 114 0 105 0;
#X connect 115 0 105 0;
#X connect 116 0 123 0;
#X connect 117 0 124 0;
#X connect 118 0 125 0;
#X connect 119 0 118 0;
#X connect 119 1 117 0;
#X connect 119 2 116 0;
#X connect 120 0 116 1;
#X connect 121 0 117 1;
#X connect 122 0 118 1;
#X connect 127 0 126 0;
#X connect 128 0 200 0;
#X connect 129 0 128 0;
#X connect 129 1 127 0;
#X connect 130 0 127 1;
#X connect 131 0 128 1;
#X connect 132 0 105 0;
#X connect 133 0 105 0;
#X connect 134 0 105 0;
#X connect 136 0 147 0;
#X connect 137 0 148 0;
#X connect 138 0 149 0;
#X connect 139 0 151 0;
#X connect 140 0 152 0;
#X connect 141 0 153 0;
#X connect 142 0 154 0;
#X connect 143 0 155 0;
#X connect 144 0 150 0;
#X connect 145 0 156 0;
#X connect 146 0 157 0;
#X connect 158 0 9 0;
#X connect 159 0 9 0;
#X connect 160 0 17 0;
#X connect 160 1 18 0;
#X connect 160 2 19 0;
#X connect 160 3 27 0;
#X connect 160 4 20 0;
#X connect 160 5 21 0;
#X connect 160 6 22 0;
#X connect 160 7 23 0;
#X connect 160 8 24 0;
#X connect 160 9 108 0;
#X connect 160 10 109 0;
#X connect 160 11 161 0;
#X connect 160 12 162 0;
#X connect 160 13 163 0;
#X connect 161 0 181 0;
#X connect 162 0 181 0;
#X connect 163 0 182 0;
#X connect 163 1 183 0;
#X connect 163 2 184 0;
#X connect 163 3 190 0;
#X connect 163 4 185 0;
#X connect 163 5 186 0;
#X connect 163 6 187 0;
#X connect 163 7 188 0;
#X connect 163 8 189 0;
#X connect 163 9 191 0;
#X connect 163 10 192 0;
#X connect 163 11 193 0;
#X connect 163 12 194 0;
#X connect 163 13 164 0;
#X connect 164 0 65 0;
#X connect 164 1 66 0;
#X connect 164 2 67 0;
#X connect 164 3 73 0;
#X connect 164 4 68 0;
#X connect 164 5 69 0;
#X connect 164 6 70 0;
#X connect 164 7 71 0;
#X connect 164 8 72 0;
#X connect 164 9 112 0;
#X connect 164 10 113 0;
#X connect 164 11 167 0;
#X connect 164 12 168 0;
#X connect 164 13 169 0;
#X connect 167 0 165 0;
#X connect 168 0 166 0;
#X connect 169 0 136 0;
#X connect 169 1 137 0;
#X connect 169 2 138 0;
#X connect 169 3 144 0;
#X connect 169 4 139 0;
#X connect 169 5 140 0;
#X connect 169 6 141 0;
#X connect 169 7 142 0;
#X connect 169 8 143 0;
#X connect 169 9 145 0;
#X connect 169 10 146 0;
#X connect 169 11 172 0;
#X connect 169 12 173 0;
#X connect 169 13 174 0;
#X connect 172 0 170 0;
#X connect 173 0 171 0;
#X connect 174 0 96 0;
#X connect 174 1 97 0;
#X connect 174 2 98 0;
#X connect 174 3 104 0;
#X connect 174 4 99 0;
#X connect 174 5 100 0;
#X connect 174 6 101 0;
#X connect 174 7 102 0;
#X connect 174 8 103 0;
#X connect 174 9 132 0;
#X connect 174 10 133 0;
#X connect 174 11 134 0;
#X connect 174 12 129 0;
#X connect 174 13 114 0;
#X connect 174 14 115 0;
#X connect 174 15 175 0;
#X connect 174 16 176 0;
#X connect 174 17 179 0;
#X connect 174 17 202 0;
#X connect 175 0 105 0;
#X connect 176 0 105 0;
#X connect 182 0 195 0;
#X connect 183 0 195 0;
#X connect 184 0 195 0;
#X connect 185 0 195 0;
#X connect 186 0 195 0;
#X connect 187 0 195 0;
#X connect 188 0 195 0;
#X connect 189 0 195 0;
#X connect 190 0 195 0;
#X connect 191 0 195 0;
#X connect 192 0 195 0;
#X connect 193 0 195 0;
#X connect 194 0 195 0;
#X connect 197 0 8 0;
#X connect 197 1 10 0;
#X connect 197 2 11 0;
#X connect 197 3 28 0;
#X connect 197 4 12 0;
#X connect 197 5 13 0;
#X connect 197 6 14 0;
#X connect 197 7 15 0;
#X connect 197 8 16 0;
#X connect 197 9 106 0;
#X connect 197 10 107 0;
#X connect 197 11 158 0;
#X connect 197 12 159 0;
#X connect 197 13 198 0;
#X connect 197 14 199 0;
#X connect 197 15 160 0;
#X connect 198 0 196 0;
#X connect 199 0 196 0;
#X connect 205 0 76 0;
#X connect 205 1 77 0;
#X connect 205 2 178 0;
#X connect 205 3 177 0;
#X connect 205 4 203 0;
#X connect 205 5 204 0;
#X connect 205 6 135 0;
#X connect 205 6 209 0;
#X connect 205 7 95 0;
#X connect 205 8 180 0;
#X connect 205 9 201 0;
#X connect 205 10 206 0;
#X connect 206 0 33 0;
#X connect 206 1 30 0;
#X connect 206 2 29 0;
#X connect 206 3 32 0;
#X connect 206 4 31 0;
#X connect 206 5 87 0;
#X connect 206 6 87 1;
#X connect 206 7 87 2;
#X connect 206 8 87 3;
#X connect 206 9 119 0;
#X connect 206 10 197 0;
#X connect 207 0 93 0;
#X connect 207 1 56 0;
#X connect 207 2 58 0;
#X connect 207 3 59 0;
#X connect 207 4 61 0;
#X connect 207 5 63 0;
#X connect 207 6 75 0;
#X connect 207 7 92 0;
#X connect 207 8 205 0;
