#N canvas 1006 211 802 525 10;
#X obj 136 136 value;
#X msg 195 90 \$1_random_max;
#X msg 181 180 \$1_random_min;
#X obj 158 235 value;
#X obj 195 61 symbol;
#X obj 195 118 symbol;
#X obj 136 112 bng 15 250 50 0 empty empty empty 17 7 0 10 -262144
-1 -1;
#X obj 181 152 symbol;
#X obj 181 209 symbol;
#X obj 158 209 bng 15 250 50 0 empty empty empty 17 7 0 10 -262144
-1 -1;
#X floatatom 102 201 5 0 0 0 - - -;
#X obj 102 146 bng 15 250 50 0 empty empty empty 17 7 0 10 -262144
-1 -1;
#X obj 102 172 random 1000;
#X floatatom 136 257 5 0 0 0 - - -;
#X floatatom 158 278 5 0 0 0 - - -;
#X obj 136 299 -;
#X obj 104 317 *;
#X obj 104 225 / 1000;
#X floatatom 143 357 5 0 0 0 - - -;
#X obj 143 335 +;
#X obj 136 14 inlet;
#X obj 102 72 inlet;
#X obj 136 43 t b b a, f 8;
#X obj 143 378 outlet;
#X connect 0 0 13 0;
#X connect 1 0 5 0;
#X connect 2 0 8 0;
#X connect 3 0 14 0;
#X connect 4 0 1 0;
#X connect 5 0 0 1;
#X connect 6 0 0 0;
#X connect 7 0 2 0;
#X connect 8 0 3 1;
#X connect 9 0 3 0;
#X connect 10 0 17 0;
#X connect 11 0 12 0;
#X connect 12 0 10 0;
#X connect 13 0 15 0;
#X connect 14 0 15 1;
#X connect 14 0 19 1;
#X connect 15 0 16 1;
#X connect 16 0 19 0;
#X connect 17 0 16 0;
#X connect 18 0 23 0;
#X connect 19 0 18 0;
#X connect 20 0 22 0;
#X connect 21 0 11 0;
#X connect 22 0 6 0;
#X connect 22 1 9 0;
#X connect 22 2 4 0;
#X connect 22 2 7 0;
