#N canvas 774 166 882 532 10;
#X msg 32 301 destroy \, reset;
#X obj 220 358 outlet;
#X obj 220 319 gemwin;
#X obj 374 325 pix_record;
#X msg 406 274 record \$1;
#X obj 406 250 tgl 15 1 empty empty empty 0 -6 0 8 -262144 -1 -1 0
1;
#X obj 374 207 pix_snap;
#X msg 347 174 snap;
#X obj 347 87 t b a;
#X obj 476 191 t f b;
#X obj 419 97 loadbang;
#X obj 347 61 gemhead -99;
#X obj 220 162 loadbang;
#X obj 431 354 print;
#X floatatom 402 383 5 0 0 0 - - -, f 5;
#X msg 220 280 frame \$1;
#X obj 261 251 r new_frame_rate;
#X obj 603 76 key;
#X obj 563 30 ctlin;
#X floatatom 563 73 5 0 0 0 - - -, f 5;
#X floatatom 576 52 5 0 0 0 - - -, f 5;
#X obj 563 145 +;
#X obj 563 167 % 1000;
#X obj 563 94 +;
#X obj 563 123 +;
#X obj 603 105 t b f;
#X obj 596 145 f;
#X msg 530 205 seed \$1;
#X obj 503 246 random 10000;
#X obj 476 31 inlet;
#X text 459 11 record video;
#X obj 32 177 inlet;
#X obj 32 206 sel 0 1;
#X msg 714 218 codeclist;
#X msg 419 126 1280 720;
#X msg 220 251 40;
#X msg 51 256 dimen 1280 720 \, create \, 1;
#X obj 220 207 del 500;
#X text 57 61 -99 = render order \, comes after other gemheads;
#X obj 292 367 r snapshot;
#X obj 328 292 bng 15 250 50 0 empty empty empty 17 7 0 10 -262144
-1 -1;
#X msg 503 307 file /home/joshua/Desktop/Statfeeder_SFGEM_video_\$1.mp4
;
#X obj 481 428 pix_write;
#X obj 514 339 random 10000;
#X msg 481 366 file /home/joshua/Desktop/Statfeeder_SFGEM_snapshot_\$1.tiff
;
#X obj 316 416 t b b;
#X obj 682 171 r codec;
#X msg 682 272 codec \$1;
#X obj 714 193 bng 15 250 50 0 empty empty empty 17 7 0 10 -262144
-1 -1;
#X connect 0 0 2 0;
#X connect 2 0 1 0;
#X connect 3 1 14 0;
#X connect 3 2 13 0;
#X connect 4 0 3 0;
#X connect 5 0 4 0;
#X connect 6 0 3 0;
#X connect 7 0 6 0;
#X connect 8 0 7 0;
#X connect 8 1 6 0;
#X connect 9 0 5 0;
#X connect 9 1 28 0;
#X connect 10 0 34 0;
#X connect 11 0 8 0;
#X connect 11 0 42 0;
#X connect 12 0 37 0;
#X connect 15 0 2 0;
#X connect 16 0 15 0;
#X connect 17 0 25 0;
#X connect 18 0 19 0;
#X connect 18 1 20 0;
#X connect 19 0 23 0;
#X connect 20 0 23 1;
#X connect 21 0 26 0;
#X connect 21 0 22 0;
#X connect 22 0 27 0;
#X connect 23 0 24 0;
#X connect 24 0 21 0;
#X connect 25 0 24 0;
#X connect 25 1 24 1;
#X connect 26 0 21 1;
#X connect 27 0 28 0;
#X connect 27 0 43 0;
#X connect 28 0 41 0;
#X connect 29 0 9 0;
#X connect 31 0 32 0;
#X connect 32 0 0 0;
#X connect 32 1 36 0;
#X connect 33 0 3 0;
#X connect 34 0 6 2;
#X connect 35 0 15 0;
#X connect 36 0 2 0;
#X connect 37 0 35 0;
#X connect 39 0 45 0;
#X connect 40 0 3 0;
#X connect 41 0 3 0;
#X connect 43 0 44 0;
#X connect 44 0 42 0;
#X connect 45 0 43 0;
#X connect 45 1 42 0;
#X connect 46 0 47 0;
#X connect 46 0 48 0;
#X connect 47 0 3 0;
#X connect 48 0 33 0;
