#N canvas 0 96 1920 984 10;
#X obj 605 229 statfeed;
#X obj 563 120 metro;
#X floatatom 730 103 5 0 0 0 - - -;
#X floatatom 627 165 5 0 0 0 - - -;
#X text 631 146 elems;
#X obj 276 324 tabread functions;
#X obj 1070 483 table functions;
#X floatatom 293 372 5 0 0 0 - - -;
#X obj 666 830 s generic_bypass_immediate;
#X obj 666 801 pack f f f f f f f f s;
#X obj 730 184 *;
#X floatatom 809 133 5 0 0 0 - - -;
#X obj 666 775 unpack f f f f f f f f s;
#X text 874 617 all 3;
#X text 874 664 2;
#X text 871 705 1 & 3;
#X text 872 641 1;
#X text 874 686 3;
#X msg 761 458 666;
#X obj 761 487 spigot;
#X obj 930 497 spigot;
#X obj 794 390 sel 0 1;
#X msg 794 419 1 0;
#X msg 823 419 0 1;
#X obj 823 469 unpack;
#X obj 930 473 value;
#X obj 977 413 symbol;
#X msg 977 434 \$1_hardcoded;
#X obj 977 455 symbol;
#X obj 472 211 value epsilon;
#X obj 762 200 sel 0 1;
#X msg 798 219 1 0;
#X msg 762 219 0 1;
#X obj 472 187 spigot;
#X obj 563 164 spigot;
#X obj 505 146 unpack;
#X obj 563 211 / 999;
#X obj 563 188 random 1000;
#X floatatom 666 165 5 0 0 0 - - -;
#X text 669 146 exp;
#X obj 605 250 +;
#X floatatom 855 233 5 0 0 0 - - -;
#X obj 605 277 %;
#X floatatom 855 260 5 0 0 0 - - -;
#X text 827 281 selective modulo;
#X text 576 327 necessary modulo;
#X obj 605 306 %, f 4;
#X msg 1102 410 \$1 0;
#X obj 1102 437 unpack;
#X obj 1084 41 unpack f f f f f f f f;
#X msg 1084 19 0 1 2 3 4 5 6 7;
#X msg 1115 389 \$1 1;
#X msg 1128 369 \$1 2;
#X msg 1141 348 \$1 3;
#X msg 1154 327 \$1 4;
#X msg 1167 306 \$1 5;
#X msg 1180 286 \$1 6;
#X msg 1193 265 \$1 7;
#X obj 293 399 sel 0 1 2 3 4 5 6 7 8 9 10;
#X obj 1441 100 value reset_hardcoded;
#X obj 1217 562 tabwrite circle_arrangement;
#X obj 1217 538 unpack;
#X msg 1217 509 \$1 0;
#X msg 1217 489 \$1 1;
#X msg 1217 469 \$1 2;
#X msg 1217 449 \$1 3;
#X msg 1217 429 \$1 4;
#X msg 1217 409 \$1 5;
#X msg 1217 389 \$1 6;
#X msg 1217 369 \$1 7;
#X msg 1217 349 \$1 8;
#X msg 1217 329 \$1 9;
#X msg 1217 309 \$1 10;
#X obj 1316 487 unpack;
#X msg 1316 458 \$1 0;
#X msg 1316 438 \$1 1;
#X msg 1316 418 \$1 2;
#X msg 1316 398 \$1 3;
#X msg 1316 378 \$1 4;
#X msg 1316 358 \$1 5;
#X msg 1316 338 \$1 6;
#X msg 1316 318 \$1 7;
#X msg 1316 298 \$1 8;
#X msg 1316 278 \$1 9;
#X obj 1316 511 tabwrite rand-hard;
#X obj 1441 118 value x_add_hardcoded;
#X obj 1441 136 value y_add_hardcoded;
#X obj 1441 154 value xandy_hardcoded;
#X obj 1441 172 value pol_add_hardcoded;
#X obj 1441 190 value spin_hardcoded;
#X obj 1441 208 value orbit_hardcoded;
#X obj 1441 226 value reverse_hardcoded;
#X obj 1441 244 value reset_rand_hardcoded;
#X msg 293 600 reset;
#X msg 306 578 x_add, f 6;
#X msg 320 556 y_add;
#X msg 334 534 xandy;
#X msg 348 512 pol_add;
#X msg 362 490 spin;
#X msg 376 468 orbit;
#X msg 390 446 reverse;
#X msg 404 424 reset_rand;
#X obj 625 366 tabread circle_arrangement;
#X obj 911 366 r function_name;
#X obj 478 625 s function_name;
#X obj 478 596 symbol;
#X obj 794 366 tabread rand-hard;
#X obj 276 348 t b f f f;
#X obj 1217 584 table circle_arrangement;
#X obj 1316 533 table rand-hard;
#X obj 1070 461 tabwrite functions;
#X obj 911 395 t a b a;
#X obj 716 413 symbol;
#X obj 716 581 s;
#X msg 745 539 circle\$1;
#X obj 745 563 symbol;
#X obj 716 515 pack s f;
#X obj 625 545 random 5;
#X msg 666 616 \$2 999 999 999 999 999 999 999 \$1;
#X msg 666 638 999 \$2 999 999 999 999 999 999 \$1;
#X msg 666 706 999 \$2 999 \$2 999 999 999 999 \$1;
#X msg 666 684 999 999 999 \$2 999 999 999 999 \$1;
#X msg 666 661 999 999 \$2 999 999 999 999 999 \$1;
#X obj 625 521 route 5;
#X obj 597 598 r circle0;
#X obj 597 620 r circle1;
#X obj 597 643 r circle2;
#X obj 597 666 r circle3;
#X obj 597 688 r circle4;
#X obj 908 634 bng 15 250 50 0 empty empty empty 17 7 0 10 -262144
-1 -1;
#X obj 908 656 bng 15 250 50 0 empty empty empty 17 7 0 10 -262144
-1 -1;
#X obj 908 679 bng 15 250 50 0 empty empty empty 17 7 0 10 -262144
-1 -1;
#X obj 909 702 bng 15 250 50 0 empty empty empty 17 7 0 10 -262144
-1 -1;
#X obj 909 724 bng 15 250 50 0 empty empty empty 17 7 0 10 -262144
-1 -1;
#X text 727 84 TEMPO;
#X obj 921 71 cnv 15 488 165 empty empty empty 20 12 0 14 -191407 -66577
0;
#X obj 242 552 t b b;
#X msg 676 752 999 999 666 999 999 999 999 999 y_add;
#X msg 666 729 set \$1 \$2 \$3 \$4 \$5 \$6 \$7 \$8 \$9;
#X obj 917 770 unpack f f f f f f f f s, f 27;
#X obj 923 901 pack f f f f f f f f s, f 25;
#X obj 918 804 invert_sfgem;
#X obj 935 824 invert_sfgem;
#X obj 953 844 invert_sfgem;
#X obj 970 864 invert_sfgem;
#X obj 998 804 invert_sfgem;
#X obj 1015 824 invert_sfgem;
#X obj 1033 844 invert_sfgem;
#X obj 1050 864 invert_sfgem;
#X msg 666 900 0 999 999 999 999 999 999 999 orbit;
#X msg 666 876 set \$1 \$2 \$3 \$4 \$5 \$6 \$7 \$8 \$9;
#X obj 635 737 bng 15 250 50 0 empty empty empty 17 7 0 10 -262144
-1 -1;
#X obj 293 624 bng 15 250 50 0 empty empty empty 17 7 0 10 -262144
-1 -1;
#X msg 404 818 \; x_y_absolute-\$1-receive 0 0 \; x_add_tare_\$1 0
\; y_add_tare_\$1 0 \; pol_add_tare_\$1 0 \; cart_mult_tare_\$1 0 \;
spin_tare_\$1 0 \; orbit_tare_\$1 0 \;;
#X obj 404 794 random 3;
#X obj 404 773 bng 15 250 50 0 empty empty empty 17 7 0 10 -262144
-1 -1;
#X obj 756 150 t b f;
#X msg 478 417 x_offset;
#X msg 540 417 y_offset;
#X obj 1441 262 value x_offset_hardcoded;
#X obj 1441 280 value x_offset_hardcoded;
#X msg 293 645 \; reset_all_tarers bang \; reset_liner_memory bang
\; reset_times bang \; reset_values bang \; size_master_set 2 \; x_y_absolute-0-receive
2 1 \; x_y_absolute-1-receive 0 -2 \; x_y_absolute-2-receive -2 1 \;
;
#X obj 1102 87 vradio 13 1 0 11 empty empty empty 0 -8 0 10 -262144
-1 -1 0;
#X obj 1115 87 vradio 13 1 0 11 empty empty empty 0 -8 0 10 -262144
-1 -1 1;
#X obj 1128 87 vradio 13 1 0 11 empty empty empty 0 -8 0 10 -262144
-1 -1 2;
#X obj 1141 87 vradio 13 1 0 11 empty empty empty 0 -8 0 10 -262144
-1 -1 3;
#X obj 1154 87 vradio 13 1 0 11 empty empty empty 0 -8 0 10 -262144
-1 -1 4;
#X obj 1167 87 vradio 13 1 0 11 empty empty empty 0 -8 0 10 -262144
-1 -1 5;
#X obj 1180 87 vradio 13 1 0 11 empty empty empty 0 -8 0 10 -262144
-1 -1 6;
#X obj 1193 87 vradio 13 1 0 11 empty empty empty 0 -8 0 10 -262144
-1 -1 7;
#X obj 1217 87 hradio 13 1 0 6 empty empty empty 0 -8 0 10 -262144
-1 -1 5;
#X obj 1353 87 nbx 5 13 -1e+37 1e+37 0 0 empty empty empty 0 -8 0 10
-262144 -1 -1 0 256;
#X text 1218 71 A;
#X text 1231 71 0;
#X text 1245 71 1;
#X text 1258 71 2;
#X text 1317 71 R;
#X text 1330 71 H;
#X text 1352 70 H Value;
#X obj 1217 100 hradio 13 1 0 6 empty empty empty 0 -8 0 10 -262144
-1 -1 0;
#X obj 1353 100 nbx 5 13 -1e+37 1e+37 0 0 empty empty empty 0 -8 0
10 -262144 -1 -1 0 256;
#X obj 1217 113 hradio 13 1 0 6 empty empty empty 0 -8 0 10 -262144
-1 -1 5;
#X obj 1353 113 nbx 5 13 -1e+37 1e+37 0 0 empty empty empty 0 -8 0
10 -262144 -1 -1 0 256;
#X obj 1217 126 hradio 13 1 0 6 empty empty empty 0 -8 0 10 -262144
-1 -1 5;
#X obj 1353 126 nbx 5 13 -1e+37 1e+37 0 0 empty empty empty 0 -8 0
10 -262144 -1 -1 0 256;
#X obj 1217 139 hradio 13 1 0 6 empty empty empty 0 -8 0 10 -262144
-1 -1 5;
#X obj 1353 139 nbx 5 13 -1e+37 1e+37 0 0 empty empty empty 0 -8 0
10 -262144 -1 -1 0 256;
#X obj 1217 152 hradio 13 1 0 6 empty empty empty 0 -8 0 10 -262144
-1 -1 5;
#X obj 1353 152 nbx 5 13 -1e+37 1e+37 0 0 empty empty empty 0 -8 0
10 -262144 -1 -1 0 256;
#X obj 1217 165 hradio 13 1 0 6 empty empty empty 0 -8 0 10 -262144
-1 -1 5;
#X obj 1353 165 nbx 5 13 -1e+37 1e+37 0 0 empty empty empty 0 -8 0
10 -262144 -1 -1 0 256;
#X obj 1217 178 hradio 13 1 0 6 empty empty empty 0 -8 0 10 -262144
-1 -1 5;
#X obj 1353 178 nbx 5 13 -1e+37 1e+37 0 0 empty empty empty 0 -8 0
10 -262144 -1 -1 0 256;
#X obj 1217 191 hradio 13 1 0 6 empty empty empty 0 -8 0 10 -262144
-1 -1 5;
#X obj 1353 191 nbx 5 13 -1e+37 1e+37 0 0 empty empty empty 0 -8 0
10 -262144 -1 -1 0 256;
#X obj 1217 204 hradio 13 1 0 6 empty empty empty 0 -8 0 10 -262144
-1 -1 5;
#X obj 1353 204 nbx 5 13 -1e+37 1e+37 0 0 empty empty empty 0 -8 0
10 -262144 -1 -1 0 256;
#X obj 1217 217 hradio 13 1 0 6 empty empty empty 0 -8 0 10 -262144
-1 -1 5;
#X obj 1353 217 nbx 5 13 -1e+37 1e+37 0 0 empty empty empty 0 -8 0
10 -262144 -1 -1 0 256;
#X text 1271 71 &;
#X text 1283 71 R;
#X obj 1316 87 hradio 13 1 0 2 empty empty empty 0 -8 0 10 -262144
-1 -1 1;
#X obj 1316 100 hradio 13 1 0 2 empty empty empty 0 -8 0 10 -262144
-1 -1 1;
#X obj 1316 113 hradio 13 1 0 2 empty empty empty 0 -8 0 10 -262144
-1 -1 1;
#X obj 1316 126 hradio 13 1 0 2 empty empty empty 0 -8 0 10 -262144
-1 -1 1;
#X obj 1316 139 hradio 13 1 0 2 empty empty empty 0 -8 0 10 -262144
-1 -1 0;
#X obj 1316 152 hradio 13 1 0 2 empty empty empty 0 -8 0 10 -262144
-1 -1 0;
#X obj 1316 165 hradio 13 1 0 2 empty empty empty 0 -8 0 10 -262144
-1 -1 0;
#X obj 1316 178 hradio 13 1 0 2 empty empty empty 0 -8 0 10 -262144
-1 -1 0;
#X obj 1316 191 hradio 13 1 0 2 empty empty empty 0 -8 0 10 -262144
-1 -1 0;
#X obj 1316 204 hradio 13 1 0 2 empty empty empty 0 -8 0 10 -262144
-1 -1 0;
#X obj 1316 217 hradio 13 1 0 2 empty empty empty 0 -8 0 10 -262144
-1 -1 0;
#X msg 1316 258 \$1 10;
#X text 1032 85 RESET ALL \; X_ADD \; Y_ADD \; X&Y ADD \; POL_ADD \;
SPIN \; ORBIT \; REVERSE \; RESET RAND \; X OFFSET \; Y OFFSET;
#X obj 1102 74 bng 13 250 50 0 empty empty empty 17 7 0 10 -262144
-1 -1;
#X obj 1115 74 bng 13 250 50 0 empty empty empty 17 7 0 10 -262144
-1 -1;
#X obj 1128 74 bng 13 250 50 0 empty empty empty 17 7 0 10 -262144
-1 -1;
#X obj 1141 74 bng 13 250 50 0 empty empty empty 17 7 0 10 -262144
-1 -1;
#X obj 1154 74 bng 13 250 50 0 empty empty empty 17 7 0 10 -262144
-1 -1;
#X obj 1167 74 bng 13 250 50 0 empty empty empty 17 7 0 10 -262144
-1 -1;
#X obj 1180 74 bng 13 250 50 0 empty empty empty 17 7 0 10 -262144
-1 -1;
#X obj 1193 74 bng 13 250 50 0 empty empty empty 17 7 0 10 -262144
-1 -1;
#X obj 1299 87 bng 13 250 50 0 empty empty empty 17 7 0 10 -262144
-1 -1;
#X obj 1299 100 bng 13 250 50 0 empty empty empty 17 7 0 10 -262144
-1 -1;
#X obj 1299 113 bng 13 250 50 0 empty empty empty 17 7 0 10 -262144
-1 -1;
#X obj 1299 126 bng 13 250 50 0 empty empty empty 17 7 0 10 -262144
-1 -1;
#X obj 1299 139 bng 13 250 50 0 empty empty empty 17 7 0 10 -262144
-1 -1;
#X obj 1299 152 bng 13 250 50 0 empty empty empty 17 7 0 10 -262144
-1 -1;
#X obj 1299 165 bng 13 250 50 0 empty empty empty 17 7 0 10 -262144
-1 -1;
#X obj 1299 178 bng 13 250 50 0 empty empty empty 17 7 0 10 -262144
-1 -1;
#X obj 1260 31 sel 0 1 2 3 4 5 6 7 8 9 10;
#X obj 1299 191 bng 13 250 50 0 empty empty empty 17 7 0 10 -262144
-1 -1;
#X obj 1299 204 bng 13 250 50 0 empty empty empty 17 7 0 10 -262144
-1 -1;
#X obj 1299 217 bng 13 250 50 0 empty empty empty 17 7 0 10 -262144
-1 -1;
#X obj 959 86 nbx 4 17 -1e+37 1e+37 0 0 empty empty empty 0 -8 0 15
-262144 -1 -1 0 256;
#X obj 931 86 tgl 17 0 empty empty empty 17 7 0 10 -262144 -1 -1 0
1;
#X obj 931 183 hradio 17 1 0 2 empty empty empty 0 -8 0 10 -262144
-1 -1 0;
#X obj 977 183 nbx 3 17 -1e+37 1e+37 0 0 empty empty empty 0 -8 0 15
-262144 -1 -1 0 256;
#X obj 931 148 nbx 2 17 -1e+37 1e+37 0 0 empty empty empty 0 -8 0 15
-262144 -1 -1 0 256;
#X obj 985 148 nbx 2 17 -1e+37 1e+37 0 0 empty empty empty 0 -8 0 15
-262144 -1 -1 0 256;
#X text 931 133 ELEMS;
#X text 987 133 EXP;
#X text 922 70 ON/OFF;
#X text 966 70 TEMPO;
#X obj 977 258 value epsilon;
#X obj 930 216 nbx 2 17 -1e+37 1e+37 0 0 empty empty empty 0 -8 0 15
-262144 -1 -1 0 256;
#X obj 984 216 nbx 2 17 -1e+37 1e+37 0 0 empty empty empty 0 -8 0 15
-262144 -1 -1 0 256;
#X text 926 200 OFFSET;
#X text 981 200 MODULO;
#X obj 926 118 hsl 100 15 0 2 0 0 empty empty empty -2 -8 0 10 -262144
-1 -1 0 1;
#X obj 791 56 sel 0 1 2 3 4 5 6 7;
#X text 939 103 TEMPO SCALER;
#X text 921 167 RAND/SING;
#X text 983 167 EPSIL;
#X obj 563 103 tgl 15 0 empty empty empty 17 7 0 10 -262144 -1 -1 0
1;
#X text 837 216 TABLE OFFSET;
#X connect 0 0 40 0;
#X connect 1 0 33 0;
#X connect 1 0 34 0;
#X connect 2 0 1 1;
#X connect 2 0 10 0;
#X connect 3 0 0 1;
#X connect 3 0 46 1;
#X connect 5 0 107 0;
#X connect 7 0 58 0;
#X connect 7 0 230 0;
#X connect 9 0 8 0;
#X connect 10 0 9 4;
#X connect 11 0 156 0;
#X connect 12 0 9 0;
#X connect 12 1 9 1;
#X connect 12 2 9 2;
#X connect 12 3 9 3;
#X connect 12 5 9 5;
#X connect 12 6 9 6;
#X connect 12 7 9 7;
#X connect 12 8 9 8;
#X connect 18 0 19 0;
#X connect 19 0 116 1;
#X connect 20 0 116 1;
#X connect 21 0 22 0;
#X connect 21 1 23 0;
#X connect 22 0 24 0;
#X connect 23 0 24 0;
#X connect 24 0 19 1;
#X connect 24 1 20 1;
#X connect 25 0 20 0;
#X connect 26 0 27 0;
#X connect 27 0 28 0;
#X connect 28 0 25 1;
#X connect 29 0 0 0;
#X connect 30 0 32 0;
#X connect 30 1 31 0;
#X connect 31 0 35 0;
#X connect 32 0 35 0;
#X connect 33 0 29 0;
#X connect 34 0 37 0;
#X connect 35 0 33 1;
#X connect 35 1 34 1;
#X connect 36 0 0 0;
#X connect 37 0 36 0;
#X connect 38 0 0 2;
#X connect 40 0 42 0;
#X connect 41 0 40 1;
#X connect 42 0 46 0;
#X connect 43 0 42 1;
#X connect 46 0 5 0;
#X connect 46 0 250 0;
#X connect 47 0 48 0;
#X connect 48 0 110 0;
#X connect 48 1 110 1;
#X connect 49 0 162 0;
#X connect 49 1 163 0;
#X connect 49 2 164 0;
#X connect 49 3 165 0;
#X connect 49 4 166 0;
#X connect 49 5 167 0;
#X connect 49 6 168 0;
#X connect 49 7 169 0;
#X connect 50 0 49 0;
#X connect 51 0 48 0;
#X connect 52 0 48 0;
#X connect 53 0 48 0;
#X connect 54 0 48 0;
#X connect 55 0 48 0;
#X connect 56 0 48 0;
#X connect 57 0 48 0;
#X connect 58 0 93 0;
#X connect 58 1 94 0;
#X connect 58 2 95 0;
#X connect 58 3 96 0;
#X connect 58 4 97 0;
#X connect 58 5 98 0;
#X connect 58 6 99 0;
#X connect 58 7 100 0;
#X connect 58 8 101 0;
#X connect 58 9 157 0;
#X connect 58 10 158 0;
#X connect 61 0 60 0;
#X connect 61 1 60 1;
#X connect 62 0 61 0;
#X connect 63 0 61 0;
#X connect 64 0 61 0;
#X connect 65 0 61 0;
#X connect 66 0 61 0;
#X connect 67 0 61 0;
#X connect 68 0 61 0;
#X connect 69 0 61 0;
#X connect 70 0 61 0;
#X connect 71 0 61 0;
#X connect 72 0 61 0;
#X connect 73 0 84 0;
#X connect 73 1 84 1;
#X connect 74 0 73 0;
#X connect 75 0 73 0;
#X connect 76 0 73 0;
#X connect 77 0 73 0;
#X connect 78 0 73 0;
#X connect 79 0 73 0;
#X connect 80 0 73 0;
#X connect 81 0 73 0;
#X connect 82 0 73 0;
#X connect 83 0 73 0;
#X connect 93 0 152 0;
#X connect 94 0 105 0;
#X connect 95 0 105 0;
#X connect 96 0 136 0;
#X connect 97 0 105 0;
#X connect 98 0 105 0;
#X connect 99 0 105 0;
#X connect 100 0 151 0;
#X connect 101 0 155 0;
#X connect 102 0 123 0;
#X connect 103 0 111 0;
#X connect 105 0 104 0;
#X connect 106 0 21 0;
#X connect 107 1 7 0;
#X connect 107 2 102 0;
#X connect 107 3 106 0;
#X connect 111 0 112 0;
#X connect 111 1 25 0;
#X connect 111 1 18 0;
#X connect 111 2 26 0;
#X connect 112 0 116 0;
#X connect 114 0 115 0;
#X connect 115 0 113 1;
#X connect 116 0 113 0;
#X connect 117 0 114 0;
#X connect 118 0 138 0;
#X connect 118 0 12 0;
#X connect 118 0 129 0;
#X connect 119 0 138 0;
#X connect 119 0 12 0;
#X connect 119 0 130 0;
#X connect 120 0 138 0;
#X connect 120 0 12 0;
#X connect 120 0 133 0;
#X connect 121 0 138 0;
#X connect 121 0 12 0;
#X connect 121 0 132 0;
#X connect 122 0 138 0;
#X connect 122 0 12 0;
#X connect 122 0 131 0;
#X connect 123 0 117 0;
#X connect 123 1 114 0;
#X connect 124 0 118 0;
#X connect 125 0 119 0;
#X connect 126 0 122 0;
#X connect 127 0 121 0;
#X connect 128 0 120 0;
#X connect 136 0 95 0;
#X connect 136 1 94 0;
#X connect 137 0 139 0;
#X connect 138 0 137 0;
#X connect 139 0 141 0;
#X connect 139 1 142 0;
#X connect 139 2 143 0;
#X connect 139 3 144 0;
#X connect 139 4 145 0;
#X connect 139 5 146 0;
#X connect 139 6 147 0;
#X connect 139 7 148 0;
#X connect 139 8 140 8;
#X connect 140 0 150 0;
#X connect 141 0 140 0;
#X connect 142 0 140 1;
#X connect 143 0 140 2;
#X connect 144 0 140 3;
#X connect 145 0 140 4;
#X connect 146 0 140 5;
#X connect 147 0 140 6;
#X connect 148 0 140 7;
#X connect 150 0 149 0;
#X connect 151 0 137 0;
#X connect 152 0 161 0;
#X connect 154 0 153 0;
#X connect 155 0 154 0;
#X connect 156 0 10 0;
#X connect 156 1 10 1;
#X connect 157 0 105 0;
#X connect 158 0 105 0;
#X connect 162 0 47 0;
#X connect 163 0 51 0;
#X connect 164 0 52 0;
#X connect 165 0 53 0;
#X connect 166 0 54 0;
#X connect 167 0 55 0;
#X connect 168 0 56 0;
#X connect 169 0 57 0;
#X connect 170 0 62 0;
#X connect 171 0 59 0;
#X connect 179 0 63 0;
#X connect 180 0 85 0;
#X connect 181 0 64 0;
#X connect 182 0 86 0;
#X connect 183 0 65 0;
#X connect 184 0 87 0;
#X connect 185 0 66 0;
#X connect 186 0 88 0;
#X connect 187 0 67 0;
#X connect 188 0 89 0;
#X connect 189 0 68 0;
#X connect 190 0 90 0;
#X connect 191 0 69 0;
#X connect 192 0 91 0;
#X connect 193 0 70 0;
#X connect 194 0 92 0;
#X connect 195 0 71 0;
#X connect 196 0 159 0;
#X connect 197 0 72 0;
#X connect 198 0 160 0;
#X connect 201 0 74 0;
#X connect 202 0 75 0;
#X connect 203 0 76 0;
#X connect 204 0 77 0;
#X connect 205 0 78 0;
#X connect 206 0 79 0;
#X connect 207 0 80 0;
#X connect 208 0 81 0;
#X connect 209 0 82 0;
#X connect 210 0 83 0;
#X connect 211 0 212 0;
#X connect 212 0 73 0;
#X connect 230 0 222 0;
#X connect 230 1 223 0;
#X connect 230 2 224 0;
#X connect 230 3 225 0;
#X connect 230 4 226 0;
#X connect 230 5 227 0;
#X connect 230 6 228 0;
#X connect 230 7 229 0;
#X connect 230 8 231 0;
#X connect 230 9 232 0;
#X connect 230 10 233 0;
#X connect 234 0 2 0;
#X connect 235 0 254 0;
#X connect 236 0 30 0;
#X connect 237 0 244 0;
#X connect 238 0 3 0;
#X connect 239 0 38 0;
#X connect 245 0 41 0;
#X connect 246 0 43 0;
#X connect 249 0 11 0;
#X connect 250 0 214 0;
#X connect 250 1 215 0;
#X connect 250 2 216 0;
#X connect 250 3 217 0;
#X connect 250 4 218 0;
#X connect 250 5 219 0;
#X connect 250 6 220 0;
#X connect 250 7 221 0;
#X connect 254 0 1 0;
#X coords 0 -1 1 1 490 167 2 920 70;
