#N canvas 67 90 1100 476 10;
#X obj 14 217 gemhead;
#X obj 184 217 gemhead;
#X obj 354 217 gemhead;
#X msg 531 257 draw point;
#X obj 519 228 loadbang;
#X obj 600 109 / 400;
#X obj 600 138 * 20000;
#X msg 612 257 length \$1;
#X obj 656 91 loadbang;
#X msg 656 120 0.4;
#X text 588 41 STAY-TIME OF POINTS;
#X floatatom 600 227 5 0 0 0 - - -, f 5;
#X obj 600 167 s stay_2pnl;
#X obj 600 198 r stay;
#X obj 797 241 s mirror0;
#X obj 868 241 s mirror1;
#X obj 937 241 s mirror2;
#X obj 783 320 s mirror3;
#X obj 854 320 s mirror4;
#X obj 923 320 s mirror5;
#X obj 837 167 loadbang;
#X msg 876 203 1;
#X obj 706 128 r mirror_on_off;
#X obj 706 168 sel 0 1;
#X msg 706 232 0;
#X msg 725 302 -1;
#X obj 600 60 r fillin;
#X obj 20 247 functions 0 1 2;
#X obj 190 246 functions 1 2 0;
#X obj 360 246 functions 2 0 1;
#X obj 354 275 translate_rotate_scope 2 5;
#X obj 14 275 translate_rotate_scope 0 3;
#X obj 184 275 translate_rotate_scope 1 4;
#X connect 0 0 31 0;
#X connect 1 0 32 0;
#X connect 2 0 30 0;
#X connect 3 0 31 1;
#X connect 3 0 32 1;
#X connect 3 0 30 1;
#X connect 4 0 3 0;
#X connect 5 0 6 0;
#X connect 6 0 12 0;
#X connect 7 0 31 1;
#X connect 7 0 32 1;
#X connect 7 0 30 1;
#X connect 8 0 9 0;
#X connect 9 0 6 0;
#X connect 11 0 7 0;
#X connect 13 0 11 0;
#X connect 20 0 21 0;
#X connect 20 0 24 0;
#X connect 21 0 14 0;
#X connect 21 0 15 0;
#X connect 21 0 16 0;
#X connect 22 0 23 0;
#X connect 23 0 24 0;
#X connect 23 1 25 0;
#X connect 24 0 17 0;
#X connect 24 0 18 0;
#X connect 24 0 19 0;
#X connect 25 0 18 0;
#X connect 25 0 19 0;
#X connect 25 0 17 0;
#X connect 26 0 5 0;
