#N canvas 67 246 751 637 10;
#X obj 113 387 -;
#X obj 128 353 f;
#X obj 143 240 inlet;
#X obj 113 444 outlet;
#X floatatom 143 269 5 0 0 0 - - -;
#X floatatom 113 416 5 0 0 0 - - -;
#X obj 186 268 inlet;
#X obj 180 303 r reset_all_tarers;
#X msg 180 335 0;
#X connect 0 0 5 0;
#X connect 1 0 0 1;
#X connect 2 0 4 0;
#X connect 4 0 1 1;
#X connect 4 0 0 0;
#X connect 5 0 3 0;
#X connect 6 0 1 0;
#X connect 7 0 8 0;
#X connect 8 0 1 1;
#X connect 8 0 0 1;
