#N canvas -1 26 1920 984 10;
#X obj 203 728 scopeXYZ~ 2048;
#X obj 369 598 *~;
#X obj 370 530 r~ channel\$1;
#X obj 229 514 r frequency\$1;
#X obj 384 559 r amplitude\$1;
#X obj 229 674 *~;
#X obj 257 674 *~;
#X obj 350 376 loadbang;
#X floatatom 267 547 5 0 0 0 - - - 0;
#X msg 409 403 0.5;
#X obj 296 576 * 0.5;
#X obj 229 583 osc~ 30;
#X obj 257 604 osc~ 30;
#X obj 409 376 r reset_phase\$1;
#X obj 257 445 r phase_\$1;
#X msg 409 448 0;
#X text 324 409 REMOVE?;
#X obj 126 465 metro 100;
#X obj 126 439 tgl 15 0 empty empty empty 17 7 0 10 #fcfcfc #000000
#000000 0 1;
#X obj 126 381 loadbang;
#X msg 126 410 1;
#X obj 242 483 f;
#X text 388 639 Even out distribution of pixels in circle.;
#X obj 31 317 translateXYZ, f 16;
#X obj 31 43 inlet;
#X obj 62 211 *;
#X obj 95 211 *;
#X obj 110 182 r mirror\$1;
#X obj 62 270 +;
#X obj 95 270 +;
#X msg 193 230 10000;
#X msg 231 229 0;
#X obj 193 206 sel 0 -1 1;
#X obj 125 252 t b f;
#X obj 230 252 t b f;
#X obj 203 335 rotateXYZ, f 36;
#X obj 62 101 unpack;
#X obj 416 276 r rot_\$1;
#X obj 286 264 loadbang;
#X msg 306 287 0;
#X obj 62 72 r x_y_absolute-\$1-input;
#X obj 62 145 +;
#X obj 95 145 +;
#X obj 142 127 t b f;
#X obj 182 127 t b f;
#X obj 227 109 r x_offset_\$1;
#X obj 327 109 r y_offset_\$1;
#X obj 274 165 r flip_x_\$1;
#X obj 345 165 r flip_y_\$1;
#X text 287 246 REMOVE?;
#X obj 633 693 scopeXYZ~ 2048;
#X obj 481 335 translateXYZ, f 16;
#X obj 512 229 *;
#X obj 545 229 *;
#X obj 512 288 +;
#X obj 545 288 +;
#X msg 643 248 10000;
#X msg 681 247 0;
#X obj 643 224 sel 0 -1 1;
#X obj 575 270 t b f;
#X obj 680 270 t b f;
#X obj 633 353 rotateXYZ, f 46;
#X obj 512 119 unpack;
#X obj 754 282 loadbang;
#X msg 754 305 0;
#X obj 512 163 +;
#X obj 545 163 +;
#X obj 592 145 t b f;
#X obj 632 145 t b f;
#X obj 724 183 r flip_x_\$1;
#X text 755 264 REMOVE?;
#X obj 512 311 * -1;
#X obj 545 311 * -1;
#X obj 512 90 r x_y_absolute-\$2-input;
#X obj 906 274 r rot_\$1;
#X obj 815 183 r flip_y_\$1;
#X obj 777 127 r y_offset_\$1;
#X obj 677 127 r x_offset_\$1;
#X obj 560 200 r mirror\$2;
#X obj 545 483 inlet;
#X obj 370 657 expr~ (pow($v1 \, 0.5));
#X connect 1 0 80 0;
#X connect 2 0 1 0;
#X connect 3 0 11 0;
#X connect 4 0 1 1;
#X connect 5 0 50 1;
#X connect 5 0 0 1;
#X connect 6 0 50 2;
#X connect 6 0 0 2;
#X connect 7 0 9 0;
#X connect 8 0 10 0;
#X connect 8 0 11 1;
#X connect 9 0 8 0;
#X connect 9 0 15 0;
#X connect 10 0 12 1;
#X connect 11 0 5 0;
#X connect 12 0 6 0;
#X connect 13 0 9 0;
#X connect 14 0 21 1;
#X connect 15 0 0 3;
#X connect 15 0 50 3;
#X connect 15 0 51 3;
#X connect 15 0 23 3;
#X connect 17 0 21 0;
#X connect 18 0 17 0;
#X connect 19 0 20 0;
#X connect 20 0 18 0;
#X connect 21 0 8 0;
#X connect 23 0 35 0;
#X connect 24 0 23 0;
#X connect 24 0 51 0;
#X connect 25 0 28 0;
#X connect 26 0 29 0;
#X connect 27 0 25 1;
#X connect 27 0 26 1;
#X connect 27 0 32 0;
#X connect 28 0 23 1;
#X connect 29 0 23 2;
#X connect 30 0 33 0;
#X connect 31 0 34 0;
#X connect 32 0 30 0;
#X connect 32 1 31 0;
#X connect 32 2 31 0;
#X connect 33 0 29 0;
#X connect 33 0 28 0;
#X connect 33 1 29 1;
#X connect 33 1 28 1;
#X connect 34 0 29 0;
#X connect 34 0 28 0;
#X connect 34 1 29 1;
#X connect 34 1 28 1;
#X connect 35 0 0 0;
#X connect 36 0 41 0;
#X connect 36 1 42 0;
#X connect 37 0 35 3;
#X connect 38 0 39 0;
#X connect 39 0 35 1;
#X connect 39 0 35 2;
#X connect 40 0 36 0;
#X connect 41 0 25 0;
#X connect 42 0 26 0;
#X connect 43 0 41 0;
#X connect 43 1 41 1;
#X connect 44 0 42 0;
#X connect 44 1 42 1;
#X connect 45 0 43 0;
#X connect 46 0 44 0;
#X connect 47 0 35 1;
#X connect 48 0 35 2;
#X connect 51 0 61 0;
#X connect 52 0 54 0;
#X connect 53 0 55 0;
#X connect 54 0 71 0;
#X connect 55 0 72 0;
#X connect 56 0 59 0;
#X connect 57 0 60 0;
#X connect 58 0 56 0;
#X connect 58 1 57 0;
#X connect 58 2 57 0;
#X connect 59 0 55 0;
#X connect 59 0 54 0;
#X connect 59 1 55 1;
#X connect 59 1 54 1;
#X connect 60 0 55 0;
#X connect 60 0 54 0;
#X connect 60 1 55 1;
#X connect 60 1 54 1;
#X connect 61 0 50 0;
#X connect 62 0 65 0;
#X connect 62 1 66 0;
#X connect 63 0 64 0;
#X connect 64 0 61 1;
#X connect 64 0 61 2;
#X connect 65 0 52 0;
#X connect 66 0 53 0;
#X connect 67 0 65 0;
#X connect 67 1 65 1;
#X connect 68 0 66 0;
#X connect 68 1 66 1;
#X connect 69 0 61 1;
#X connect 71 0 51 1;
#X connect 72 0 51 2;
#X connect 73 0 62 0;
#X connect 74 0 61 3;
#X connect 75 0 61 2;
#X connect 76 0 68 0;
#X connect 77 0 67 0;
#X connect 78 0 52 1;
#X connect 78 0 53 1;
#X connect 78 0 58 0;
#X connect 79 0 0 0;
#X connect 79 0 50 0;
#X connect 80 0 6 1;
#X connect 80 0 5 1;
