#N canvas 0 96 888 678 10;
#X obj 166 434 s x_add_1;
#X obj 199 474 s x_add_2;
#X obj 232 232 s x_add_0_speed_rec;
#X obj 265 276 s x_add_1_speed_rec;
#X obj 298 342 s x_add_2_speed_rec;
#X obj 133 394 s x_add_0;
#X obj 133 414 s x_add_3;
#X obj 166 454 s x_add_4;
#X obj 199 494 s x_add_5;
#X obj 232 252 s x_add_3_speed_rec;
#X obj 265 296 s x_add_4_speed_rec;
#X obj 298 362 s x_add_5_speed_rec;
#X obj 101 62 r x_add_master_set;
#X obj 129 82 r x_add_0_set;
#X obj 157 102 r x_add_1_set;
#X obj 185 122 r x_add_2_set;
#X obj 213 62 r x_add_speed_all;
#X obj 241 82 r x_add_speed_0;
#X obj 269 102 r x_add_speed_1;
#X obj 298 122 r x_add_speed_2;
#X obj 101 151 control_numbers_window 999 999 999 999 20;
#X obj 101 517 value x_add_master;
#X obj 133 537 value x_add_0;
#X obj 166 557 value x_add_1;
#X obj 200 577 value x_add_2;
#X obj 133 223 pack;
#X obj 166 293 pack;
#X obj 199 363 pack;
#X obj 440 249 r x_add_tare_0;
#X obj 440 319 r x_add_tare_1;
#X obj 303 504 value x_add_random_max;
#X obj 303 533 value x_add_random_min;
#X obj 440 389 r x_add_tare_2;
#X obj 450 504 value x_add_time_random_max;
#X obj 450 533 value x_add_time_random_min;
#X obj 631 418 loadbang;
#X obj 631 447 t b b b b;
#X msg 682 486 1000;
#X msg 665 515 100;
#X obj 133 267 Tarer 0;
#X obj 166 337 Tarer 1;
#X obj 199 407 Tarer 2;
#X msg 648 486 5;
#X msg 631 515 -5;
#X obj 133 247 liner_sfgem;
#X obj 166 317 liner_sfgem;
#X obj 199 387 liner_sfgem;
#X obj 695 229 r x_add_liner_exponent;
#X obj 548 229 r x_add_liner_function;
#X floatatom 695 300 5 0 0 0 - - -;
#X floatatom 695 370 5 0 0 0 - - -;
#X floatatom 548 300 5 0 0 0 - - -;
#X floatatom 548 370 5 0 0 0 - - -;
#X connect 12 0 20 0;
#X connect 13 0 20 1;
#X connect 14 0 20 2;
#X connect 15 0 20 3;
#X connect 16 0 20 4;
#X connect 17 0 20 5;
#X connect 18 0 20 6;
#X connect 19 0 20 7;
#X connect 20 0 21 0;
#X connect 20 1 25 0;
#X connect 20 2 26 0;
#X connect 20 3 27 0;
#X connect 20 4 2 0;
#X connect 20 4 9 0;
#X connect 20 4 25 1;
#X connect 20 5 3 0;
#X connect 20 5 10 0;
#X connect 20 5 26 1;
#X connect 20 6 4 0;
#X connect 20 6 11 0;
#X connect 20 6 27 1;
#X connect 25 0 44 0;
#X connect 26 0 45 0;
#X connect 27 0 46 0;
#X connect 28 0 39 1;
#X connect 29 0 40 1;
#X connect 32 0 41 1;
#X connect 35 0 36 0;
#X connect 36 0 43 0;
#X connect 36 1 42 0;
#X connect 36 2 38 0;
#X connect 36 3 37 0;
#X connect 37 0 33 0;
#X connect 38 0 34 0;
#X connect 39 0 5 0;
#X connect 39 0 6 0;
#X connect 39 0 22 0;
#X connect 40 0 0 0;
#X connect 40 0 7 0;
#X connect 40 0 23 0;
#X connect 41 0 1 0;
#X connect 41 0 8 0;
#X connect 41 0 24 0;
#X connect 42 0 30 0;
#X connect 43 0 31 0;
#X connect 44 0 39 0;
#X connect 44 0 39 0;
#X connect 45 0 40 0;
#X connect 45 0 40 0;
#X connect 46 0 41 0;
#X connect 46 0 41 0;
#X connect 47 0 44 3;
#X connect 47 0 49 0;
#X connect 48 0 44 2;
#X connect 48 0 51 0;
#X connect 49 0 45 3;
#X connect 49 0 50 0;
#X connect 50 0 46 3;
#X connect 51 0 45 2;
#X connect 51 0 52 0;
#X connect 52 0 46 2;
#X coords 0 -1 1 1 206 44 2 100 150;
