#N canvas 0 96 1920 984 10;
#X obj 301 201 cnv 15 135 47 empty empty empty 20 12 0 14 -162280 -66577
0;
#X obj 303 203 nbx 2 22 -1e+37 1e+37 0 0 empty empty empty 0 -8 0 20
-262144 -1 -1 0 256;
#X obj 352 203 nbx 4 22 -1e+37 1e+37 0 0 empty empty empty 0 -8 0 20
-262144 -1 -1 0 256;
#X obj 303 226 nbx 5 20 -1e+37 1e+37 0 0 empty empty empty 0 -8 0 18
-262144 -1 -1 0 256;
#X obj 414 226 tgl 20 0 empty empty empty 17 7 0 10 -262144 -1 -1 0
1;
#X obj 414 159 r x_y_absolute-\$1-cartpol-rec;
#X obj 458 190 loadbang;
#X obj 332 581 s x_y_absolute-\$1-out;
#X obj 555 208 r x_y_absolute-\$1-time-receive;
#X obj 319 128 unpack;
#X obj 282 86 r x_y_absolute-\$1-input;
#X msg 303 172 set \$1;
#X msg 352 172 set \$1;
#X obj 146 255 r x_y_absolute-\$1-receive;
#X obj 380 330 pack;
#X obj 282 330 pack;
#X obj 332 502 pack;
#X obj 380 455 t b f;
#X obj 547 312 unpack;
#X obj 679 330 pack;
#X obj 598 330 pack;
#X obj 598 484 pack;
#X obj 679 437 t b f;
#X obj 547 273 convert-to-polar;
#X obj 757 128 convert-to-polar;
#X obj 757 341 unpack;
#X obj 332 531 spigot;
#X obj 383 531 spigot;
#X obj 474 455 sel 0 1;
#X msg 474 484 1 0;
#X obj 365 502 unpack;
#X msg 503 484 0 1;
#X obj 225 312 unpack;
#X msg 225 68 0 0;
#X obj 282 110 t a;
#X obj 225 92 t a a;
#X msg 517 208 0;
#X obj 768 390 r absolute-\$1_liner_function;
#X obj 951 390 r absolute-\$1_liner_exponent;
#X obj 282 408 liner_sfgem;
#X obj 380 408 liner_sfgem;
#X obj 598 408 liner_sfgem;
#X obj 679 408 liner_sfgem;
#X obj 332 473 f;
#X obj 605 461 f;
#X obj 225 44 r reset_absolute_values;
#X obj 517 184 r reset_absolute_times;
#X obj 700 359 f;
#X obj 619 359 f;
#X obj 401 359 f;
#X obj 303 359 f;
#X obj 808 315 r absolute_liner_remember;
#X obj 808 344 bng 15 250 50 0 empty empty empty 17 7 0 10 -262144
-1 -1;
#X obj 598 513 convert-to-cartesian;
#X obj 383 560 s x_y_absolute-\$2-out;
#X obj 757 443 t f;
#X obj 200 341 unpack;
#X connect 3 0 14 1;
#X connect 3 0 15 1;
#X connect 3 0 20 1;
#X connect 3 0 19 1;
#X connect 4 0 28 0;
#X connect 5 0 4 0;
#X connect 6 0 36 0;
#X connect 8 0 3 0;
#X connect 9 0 11 0;
#X connect 9 1 12 0;
#X connect 10 0 34 0;
#X connect 11 0 1 0;
#X connect 12 0 2 0;
#X connect 13 0 23 0;
#X connect 13 0 32 0;
#X connect 14 0 40 0;
#X connect 15 0 39 0;
#X connect 16 0 26 0;
#X connect 17 0 43 0;
#X connect 17 1 16 1;
#X connect 18 0 20 0;
#X connect 18 1 19 0;
#X connect 19 0 42 0;
#X connect 20 0 41 0;
#X connect 21 0 53 0;
#X connect 22 0 44 0;
#X connect 22 1 21 1;
#X connect 23 0 18 0;
#X connect 24 0 25 0;
#X connect 25 0 41 1;
#X connect 25 0 48 1;
#X connect 25 0 55 0;
#X connect 25 1 42 1;
#X connect 25 1 47 1;
#X connect 26 0 7 0;
#X connect 26 0 54 0;
#X connect 27 0 7 0;
#X connect 27 0 54 0;
#X connect 28 0 29 0;
#X connect 28 1 31 0;
#X connect 29 0 30 0;
#X connect 30 0 26 1;
#X connect 30 1 27 1;
#X connect 31 0 30 0;
#X connect 32 0 15 0;
#X connect 32 1 14 0;
#X connect 33 0 35 0;
#X connect 34 0 9 0;
#X connect 34 0 24 0;
#X connect 34 0 56 0;
#X connect 35 0 18 0;
#X connect 35 0 32 0;
#X connect 35 1 34 0;
#X connect 36 0 3 0;
#X connect 37 0 39 2;
#X connect 37 0 40 2;
#X connect 37 0 41 2;
#X connect 37 0 42 2;
#X connect 38 0 39 3;
#X connect 38 0 40 3;
#X connect 38 0 41 3;
#X connect 38 0 42 3;
#X connect 39 0 16 0;
#X connect 40 0 17 0;
#X connect 41 0 21 0;
#X connect 42 0 22 0;
#X connect 43 0 16 0;
#X connect 44 0 21 0;
#X connect 45 0 33 0;
#X connect 46 0 36 0;
#X connect 47 0 42 1;
#X connect 48 0 41 1;
#X connect 49 0 40 1;
#X connect 50 0 39 1;
#X connect 51 0 52 0;
#X connect 52 0 48 0;
#X connect 52 0 47 0;
#X connect 52 0 49 0;
#X connect 52 0 50 0;
#X connect 53 0 27 0;
#X connect 55 0 44 1;
#X connect 56 0 50 1;
#X connect 56 0 39 1;
#X connect 56 0 43 1;
#X connect 56 1 49 1;
#X connect 56 1 40 1;
#X coords 0 -1 1 1 137 49 2 300 200;
