#N canvas 43 89 683 556 10;
#X obj 373 387 f;
#X obj 402 387 + 1;
#X msg 396 362 0;
#X obj 222 337 t f b;
#X obj 222 26 inlet;
#X obj 418 325 r array-setter-reset;
#X obj 222 424 tabwrite GLISS-PRESETS;
#X msg 255 253 4 \, 0;
#X msg 238 274 0 \, 0 \, 0 \, 0 \, 0 \, 0 \, 0 \, 4 \, 0;
#X msg 222 295 2 \, 0 \, 0 \, 1 \, 2 \, 4 \, 0;
#X msg 288 211 4 \, 4 \, 4 \, 4 \, 4 \, 4 \, 4 \, 4 \, 4 \, 4;
#X msg 271 232 0 \, 0 \, 0 \, 0 \, 0 \, 0 \, 0 \, 0 \, 0 \, 0;
#X obj 12 221 r Array-Setter-Gliss-Presets;
#X msg 304 192 0 \, 0 \, 0 \, 0 \, 0 \, 0 \, 0 \, 0 \, 0 \, 0;
#X msg 321 172 0 \, 0 \, 0 \, 0 \, 0 \, 0 \, 0 \, 0 \, 0 \, 0;
#X obj 222 82 sel 0 1 2 3 4 5 6;
#X obj 222 54 t f b;
#X connect 0 0 1 0;
#X connect 0 0 6 1;
#X connect 1 0 0 1;
#X connect 2 0 0 1;
#X connect 3 0 6 0;
#X connect 3 1 0 0;
#X connect 4 0 16 0;
#X connect 5 0 2 0;
#X connect 7 0 3 0;
#X connect 8 0 3 0;
#X connect 9 0 3 0;
#X connect 10 0 3 0;
#X connect 11 0 3 0;
#X connect 12 0 3 0;
#X connect 13 0 3 0;
#X connect 14 0 3 0;
#X connect 15 0 9 0;
#X connect 15 1 8 0;
#X connect 15 2 7 0;
#X connect 15 3 11 0;
#X connect 15 4 10 0;
#X connect 15 5 13 0;
#X connect 15 6 14 0;
#X connect 16 0 15 0;
#X connect 16 1 2 0;
