#N canvas 380 120 905 522 10;
#X obj 172 484 tabwrite GLOBAL;
#X obj 274 456 f;
#X obj 303 456 + 1;
#X msg 292 431 0;
#X obj 172 439 t f b;
#X obj 172 28 inlet;
#X obj 308 407 r array-setter-reset;
#X msg 205 282 18 \, 18;
#X msg 238 202 10 \, 5 \, 4 \, 12 \, 20 \, 0 \, 4 \, 5 \, 2 \, 3 \,
19;
#X msg 254 162 5 \, 1 \, 4 \, 12 \, 1 \, 5 \, 20 \, 4 \, 5 \, 21;
#X msg 271 122 4 \, 5 \, 13 \, 19 \, 14 \, 5 \, 4 \, 19 \, 14 \, 13
;
#X msg 172 362 1 \, 4 \, 1 \, 20 \, 9 \, 5 \, 5;
#X obj 15 422 r Array-Setter-Global;
#X msg 188 322 6 \, 7 \, 8 \, 7 \, 6 \, 7 \, 8 \, 19 \, 19;
#X msg 221 242 1 \, 2 \, 1 \, 4 \, 1 \, 2 \, 1 \, 2 \, 12 \, 2 \, 1
\, 2 \, 1 \, 2 \, 1 \, 2 \, 10;
#X obj 172 84 sel 0 1 2 3 4 5 6;
#X obj 172 56 t f b;
#X obj 705 396 s seqlen;
#X msg 498 379 6;
#X msg 529 339 8;
#X msg 575 299 1;
#X msg 615 259 16;
#X msg 643 219 10;
#X msg 675 179 9;
#X text 557 404 Note: seqlen is N-1;
#X msg 705 139 9;
#X obj 722 344 s rhythm-presets-receive;
#X msg 722 316 0;
#X connect 1 0 2 0;
#X connect 1 0 0 1;
#X connect 2 0 1 1;
#X connect 3 0 1 1;
#X connect 4 0 0 0;
#X connect 4 1 1 0;
#X connect 5 0 16 0;
#X connect 6 0 3 0;
#X connect 7 0 20 0;
#X connect 7 0 4 0;
#X connect 8 0 22 0;
#X connect 8 0 4 0;
#X connect 9 0 23 0;
#X connect 9 0 4 0;
#X connect 10 0 25 0;
#X connect 10 0 4 0;
#X connect 11 0 4 0;
#X connect 11 0 18 0;
#X connect 12 0 4 0;
#X connect 13 0 19 0;
#X connect 13 0 4 0;
#X connect 14 0 21 0;
#X connect 14 0 4 0;
#X connect 15 0 11 0;
#X connect 15 1 13 0;
#X connect 15 2 7 0;
#X connect 15 3 14 0;
#X connect 15 4 8 0;
#X connect 15 5 9 0;
#X connect 15 6 10 0;
#X connect 16 0 15 0;
#X connect 16 1 3 0;
#X connect 18 0 17 0;
#X connect 19 0 17 0;
#X connect 20 0 17 0;
#X connect 20 0 27 0;
#X connect 21 0 17 0;
#X connect 22 0 17 0;
#X connect 23 0 17 0;
#X connect 25 0 17 0;
#X connect 27 0 26 0;
