#N canvas 241 232 765 500 10;
#X obj 261 455 tabwrite GLISS;
#X obj 356 418 f;
#X obj 385 418 + 1;
#X msg 379 393 0;
#X obj 261 368 t f b;
#X obj 261 12 inlet;
#X obj 407 342 r array-setter-reset;
#X msg 327 185 250 \, 250 \, 250 \, 250 \, 250 \, 250 \, 250 \, 250
\, 250 \, 250;
#X msg 343 165 0 \, 0 \, 0 \, 0 \, 0 \, 0 \, 0 \, 0 \, 0 \, 0;
#X obj 86 304 r Array-Setter-Gliss;
#X msg 310 205 0 \, 0 \, 0 \, 0 \, 0 \, 0 \, 0 \, 0 \, 0 \, 0 \, 0
\, 0 \, 0;
#X msg 360 145 0 \, 0 \, 0 \, 0 \, 0 \, 0 \, 0 \, 0 \, 0 \, 0;
#X msg 261 267 2500 \, 0 \, 0 \, 1000 \, 0 \, 3500 \, 0;
#X msg 277 247 0 \, 0 \, 400 \, 0 \, 0 \, 0 \, 600 \, 1000 \, 0;
#X obj 261 66 sel 0 1 2 3 4 5 6;
#X msg 294 226 5000 \, 0 \, 0;
#X obj 261 40 t f b;
#X connect 1 0 2 0;
#X connect 1 0 0 1;
#X connect 2 0 1 1;
#X connect 3 0 1 1;
#X connect 4 0 0 0;
#X connect 4 1 1 0;
#X connect 5 0 16 0;
#X connect 6 0 3 0;
#X connect 7 0 4 0;
#X connect 8 0 4 0;
#X connect 9 0 4 0;
#X connect 10 0 4 0;
#X connect 11 0 4 0;
#X connect 12 0 4 0;
#X connect 13 0 4 0;
#X connect 14 0 12 0;
#X connect 14 1 13 0;
#X connect 14 2 15 0;
#X connect 14 3 10 0;
#X connect 14 4 7 0;
#X connect 14 5 8 0;
#X connect 14 6 11 0;
#X connect 15 0 4 0;
#X connect 16 0 14 0;
#X connect 16 1 3 0;
