#N canvas 454 179 720 530 10;
#X obj 328 413 f;
#X obj 357 413 + 1;
#X msg 351 388 0;
#X obj 233 450 tabwrite DELAY;
#X obj 233 363 t f b;
#X obj 232 14 inlet;
#X obj 372 358 r array-setter-reset;
#X msg 298 196 100 \, 100 \, 100 \, 100 \, 350 \, 100 \, 100 \, 100
\, 100 \, 100;
#X msg 314 176 80 \, 100 \, 90 \, 80 100 \, 100 \, 160 \, 80 \, 90
\, 100;
#X obj 619 626 r Array-Setter-Delay;
#X msg 248 278 200 \, 200 \, 400 \, 200 \, 200 \, 200 \, 600 \, 1000
;
#X msg 232 299 2500 \, 400 \, 250 \, 1000 \, 1800 \, 3500 \, 0;
#X msg 281 221 50 \, 70 \, 50 \, 100 \, 100 \, 80 \, 70 \, 50 \, 100
\, 50 \, 70 \, 70 \, 50 \, 70 \, 70 \, 50 \, 20;
#X obj 232 72 sel 0 1 2 3 4 5 6;
#X msg 331 156 80 \, 100 \, 90 \, 80 \, 100 \, 100 \, 160 \, 80 \,
90 \, 100;
#X msg 265 257 5000 \, 0;
#X obj 232 42 t f b;
#X obj 58 323 r Array-Setter-Delay;
#X connect 0 0 1 0;
#X connect 0 0 3 1;
#X connect 1 0 0 1;
#X connect 2 0 0 1;
#X connect 4 0 3 0;
#X connect 4 1 0 0;
#X connect 5 0 16 0;
#X connect 6 0 2 0;
#X connect 7 0 4 0;
#X connect 8 0 4 0;
#X connect 10 0 4 0;
#X connect 11 0 4 0;
#X connect 12 0 4 0;
#X connect 13 0 11 0;
#X connect 13 1 10 0;
#X connect 13 2 15 0;
#X connect 13 3 12 0;
#X connect 13 4 7 0;
#X connect 13 5 8 0;
#X connect 13 6 14 0;
#X connect 14 0 4 0;
#X connect 15 0 4 0;
#X connect 16 0 13 0;
#X connect 16 1 2 0;
#X connect 17 0 4 0;
