#N canvas 250 604 508 422 10;
#X obj 51 51 cnv 15 128 258 empty empty empty 20 12 0 14 -233017 -66577
0;
#X obj 229 301 Signal_Output;
#X obj 50 331 Controller_Input_SF;
#X obj 62 60 tgl 25 0 empty empty empty 17 7 0 10 -262144 -1 -1 0 1
;
#X obj 292 49 r auxfader-7;
#X obj 292 78 / 127;
#X obj 201 49 loadbang;
#X msg 201 78 0.5;
#X obj 62 98 vsl 25 200 0 1 0 0 empty empty empty 0 -9 0 10 -262144
-1 -1 0 1;
#X text 101 59 START/STOP;
#X text 103 73 RECORDING;
#X connect 3 0 1 1;
#X connect 4 0 5 0;
#X connect 5 0 8 0;
#X connect 6 0 7 0;
#X connect 7 0 8 0;
#X connect 8 0 1 0;
#X coords 0 -1 1 1 130 260 2 50 50;
