#N canvas 379 122 1440 813 10;
#X obj 87 81 ctlin;
#X floatatom 66 257 5 0 0 0 - - -;
#X obj 72 382 s;
#X floatatom 163 318 5 0 0 0 - - -;
#X msg 126 345 symbol ctl-\$1;
#X obj 66 29 loadbang;
#X obj 72 52 s init-loadbang;
#X obj 66 228 Gate;
#X obj 66 209 tgl 15 0 empty empty empty 17 7 0 10 -262144 -1 -1 1
1;
#X obj 114 162 expr ($f2==43 & $f1==127);
#X obj 114 191 sel 1;
#X obj 87 116 t f f;
#X obj 163 122 t f f;
#X obj 123 224 s sense-numb;
#X obj 508 84 Controller-Side_SF;
#X obj 300 148 s fader-ramp-time;
#X obj 300 25 loadbang;
#X msg 300 54 0;
#X obj 345 83 sel 0 1;
#X obj 364 119 f;
#X obj 402 83 r ramp-time;
#X obj 345 54 r fader-ramp-time-toggle;
#X obj 405 310 bendin;
#X floatatom 405 336 5 0 0 0 - - -;
#X floatatom 111 410 5 0 0 0 - - -;
#X obj 111 431 / 127;
#X obj 405 364 / 16383;
#X floatatom 405 393 5 0 0 0 - - -;
#X obj 405 421 * 2;
#X floatatom 405 450 5 0 0 0 - - -;
#X floatatom 214 99 5 0 0 0 - - -;
#X obj 72 324 pack;
#X obj 109 284 f;
#X obj 66 285 t b f;
#X text 146 432 MOD WHEEL;
#X text 102 259 FADERS AND KNOBS;
#X text 452 311 PICH-BEND WHEEL;
#X obj 508 169 Fader 3 19 35 51 67;
#X obj 405 478 s bend-amount19;
#X obj 405 507 s bend-amount20;
#X obj 405 536 s bend-amount21;
#X obj 111 475 int;
#X obj 508 105 Fader 0 16 32 48 64;
#X obj 508 126 Fader 1 17 33 49 65;
#X obj 508 148 Fader 2 18 34 50 66;
#X obj 508 191 Fader 4 20 36 52 68;
#X obj 508 212 Fader 5 21 37 53 69;
#X obj 508 234 Fader 6 22 38 54 70;
#X obj 508 255 Fader 7 23 39 55 71;
#X obj 72 353 route 1;
#X obj 111 388 route 17;
#X obj 111 498 s gliss-length-vols-receive;
#X obj 111 453 * 1000;
#X text 339 559 FRACTION TO ADJUST EXPONENTS;
#X text 133 188 REWIND BUTTON \; TOGGLES CONTROLLER;
#X obj 305 249 Keyboarder;
#X connect 0 0 11 0;
#X connect 0 1 12 0;
#X connect 0 2 30 0;
#X connect 1 0 33 0;
#X connect 3 0 4 0;
#X connect 4 0 2 1;
#X connect 5 0 6 0;
#X connect 5 0 8 0;
#X connect 7 0 1 0;
#X connect 8 0 7 0;
#X connect 8 0 13 0;
#X connect 9 0 10 0;
#X connect 10 0 8 0;
#X connect 11 0 7 1;
#X connect 11 1 9 0;
#X connect 12 0 3 0;
#X connect 12 1 9 1;
#X connect 16 0 17 0;
#X connect 17 0 15 0;
#X connect 18 0 17 0;
#X connect 18 1 19 0;
#X connect 19 0 15 0;
#X connect 20 0 19 1;
#X connect 21 0 18 0;
#X connect 22 0 23 0;
#X connect 23 0 26 0;
#X connect 24 0 25 0;
#X connect 25 0 52 0;
#X connect 26 0 27 0;
#X connect 27 0 28 0;
#X connect 28 0 29 0;
#X connect 29 0 38 0;
#X connect 29 0 39 0;
#X connect 29 0 40 0;
#X connect 30 0 32 1;
#X connect 31 0 49 0;
#X connect 32 0 31 0;
#X connect 33 0 32 0;
#X connect 33 1 31 1;
#X connect 41 0 51 0;
#X connect 49 0 2 0;
#X connect 49 1 50 0;
#X connect 50 0 24 0;
#X connect 52 0 41 0;
