#N canvas 67 517 508 422 10;
#X obj 51 51 cnv 15 128 258 empty empty empty 20 12 0 14 -233017 -66577
0;
#X obj 229 301 Signal_Output;
#X obj 62 60 tgl 25 0 empty empty empty 17 7 0 10 -262144 -1 -1 0 1
;
#X obj 292 49 r auxfader-7;
#X obj 292 78 / 127;
#X obj 201 49 loadbang;
#X msg 201 78 0.5;
#X obj 62 98 vsl 25 200 0 1 0 0 empty empty empty 0 -9 0 10 -262144
-1 -1 9950 1;
#X text 101 59 START/STOP;
#X text 103 73 RECORDING;
#X obj 117 141 tgl 25 0 empty empty empty 17 7 0 10 -262144 -1 -1 1
1;
#X text 101 122 Stacc/Leg;
#X obj 257 166 s stacc-leg-onoff;
#X obj 324 230 s gliss-length-vols-master;
#X obj 99 200 nbx 3 30 -1e+37 1e+37 0 0 empty empty empty 0 -8 0 20
-262144 -1 -1 40 256;
#X text 102 183 Vol Gliss;
#X obj 274 114 r gliss-length-vols-receive;
#X msg 201 182 40;
#X msg 201 123 1;
#X obj 117 8 r stacc-leg-receive;
#X obj 401 193 sel 0;
#X obj 99 250 nbx 3 30 -1e+37 1e+37 0 0 empty empty empty 0 -8 0 20
-262144 -1 -1 0 256;
#X text 93 233 Note Duration;
#X obj 99 343 s note_length;
#X obj 189 232 r note_lengths_panel;
#X connect 2 0 1 0;
#X connect 3 0 4 0;
#X connect 4 0 7 0;
#X connect 5 0 6 0;
#X connect 5 0 17 0;
#X connect 5 0 18 0;
#X connect 6 0 7 0;
#X connect 7 0 1 1;
#X connect 10 0 12 0;
#X connect 10 0 20 0;
#X connect 14 0 13 0;
#X connect 16 0 14 0;
#X connect 17 0 14 0;
#X connect 18 0 10 0;
#X connect 19 0 10 0;
#X connect 20 0 14 0;
#X connect 21 0 23 0;
#X connect 24 0 21 0;
#X coords 0 -1 1 1 130 260 2 50 50;
