#N canvas 73 97 960 984 10;
#X obj 87 81 ctlin;
#X floatatom 66 307 5 0 0 0 - - - 0;
#X obj 72 432 s;
#X floatatom 163 368 5 0 0 0 - - - 0;
#X msg 126 395 symbol ctl-\$1;
#X obj 66 29 loadbang;
#X obj 72 52 s init-loadbang;
#X obj 66 278 Gate;
#X obj 66 209 tgl 15 0 empty empty empty 17 7 0 10 #fcfcfc #000000
#000000 0 1;
#X obj 114 162 expr ($f2==43 & $f1==127);
#X obj 114 191 sel 1;
#X obj 87 116 t f f;
#X obj 163 122 t f f;
#X obj 66 230 s sense-numb;
#X obj 318 37 Controller-Side_SF;
#X obj 98 722 s fader-ramp-time;
#X obj 98 606 loadbang;
#X msg 98 635 0;
#X obj 143 664 sel 0 1;
#X obj 162 693 f;
#X obj 200 664 r ramp-time;
#X obj 143 635 r fader-ramp-time-toggle;
#X floatatom 111 460 5 0 0 0 - - - 0;
#X obj 111 481 / 127;
#X floatatom 214 99 5 0 0 0 - - - 0;
#X obj 72 374 pack;
#X obj 109 334 f;
#X obj 66 335 t b f;
#X text 146 482 MOD WHEEL;
#X text 102 309 FADERS AND KNOBS;
#X obj 319 121 Fader 3 19 35 51 67;
#X obj 111 525 int;
#X obj 319 57 Fader 0 16 32 48 64;
#X obj 319 78 Fader 1 17 33 49 65;
#X obj 319 100 Fader 2 18 34 50 66;
#X obj 319 143 Fader 4 20 36 52 68;
#X obj 319 164 Fader 5 21 37 53 69;
#X obj 319 186 Fader 6 22 38 54 70;
#X obj 319 207 Fader 7 23 39 55 71;
#X obj 72 403 route 1;
#X obj 111 438 route 17;
#X obj 111 554 s gliss-length-vols-receive;
#X obj 111 503 * 1000;
#X text 173 185 REWIND BUTTON \; TOGGLES CONTROLLER;
#X obj 319 15 Keyboarder;
#X obj 233 264 bendin;
#X floatatom 233 290 5 0 0 0 - - - 0;
#X obj 233 318 / 16383;
#X floatatom 233 347 5 0 0 0 - - - 0;
#X obj 233 375 * 2;
#X floatatom 233 404 5 0 0 0 - - - 0;
#X text 280 265 PICH-BEND WHEEL;
#X obj 233 432 s bend-amount19;
#X obj 233 461 s bend-amount20;
#X obj 233 490 s bend-amount21;
#X obj 66 255 r sense-numb-post;
#X obj 474 43 r fadertrim-6;
#X obj 474 103 s master_bandpass_receive;
#X obj 644 42 r fadertrim-7;
#X obj 644 102 s master_volume_receive;
#X obj 484 65 r fadertrim-6-mux2;
#X obj 654 64 r fadertrim-7-mux2;
#X obj 482 256 s rhythm-gliss-scaler-receive;
#X obj 656 227 s rhythmrate-receive;
#X obj 482 140 r fadertrim-6-mux;
#X obj 482 169 / 127;
#X obj 482 198 * 3;
#X obj 656 169 / 127;
#X obj 656 140 r fadertrim-7-mux;
#X obj 656 198 * 200;
#X obj 482 227 + 0.25;
#X floatatom 551 203 5 0 0 0 - - - 0;
#X msg 551 225;
#X obj 407 337 r fadertrim-0-mux2;
#X obj 407 403 s melodier-duration-multiplier;
#X obj 407 442 r fadertrim-1-mux2;
#X obj 408 655 r fadertrim-3-mux2;
#X obj 408 724 s melodier-duration-base;
#X obj 407 547 r fadertrim-2-mux2;
#X obj 677 337 r fadertrim-4-mux2;
#X obj 677 427 r fadertrim-5-mux2;
#X obj 677 386 s gliss-length-vols-receive;
#X obj 407 359 / 127;
#X obj 407 381 * 2;
#X obj 407 464 / 127;
#X obj 407 486 * 2;
#X obj 407 508 s melodier-exponent-multiplier;
#X obj 407 570 / 127;
#X obj 407 614 s melodier-velocity-multiplier;
#X obj 407 592 * 3;
#X obj 408 693 * 3;
#X obj 677 362 * 2;
#X obj 677 452 * 2;
#X obj 677 475 s note_lengths_panel;
#X connect 0 0 11 0;
#X connect 0 1 12 0;
#X connect 0 2 24 0;
#X connect 1 0 27 0;
#X connect 3 0 4 0;
#X connect 4 0 2 1;
#X connect 5 0 6 0;
#X connect 5 0 8 0;
#X connect 7 0 1 0;
#X connect 8 0 13 0;
#X connect 9 0 10 0;
#X connect 10 0 8 0;
#X connect 11 0 7 1;
#X connect 11 1 9 0;
#X connect 12 0 3 0;
#X connect 12 1 9 1;
#X connect 16 0 17 0;
#X connect 17 0 15 0;
#X connect 18 0 17 0;
#X connect 18 1 19 0;
#X connect 19 0 15 0;
#X connect 20 0 19 1;
#X connect 21 0 18 0;
#X connect 22 0 23 0;
#X connect 23 0 42 0;
#X connect 24 0 26 1;
#X connect 25 0 39 0;
#X connect 26 0 25 0;
#X connect 27 0 26 0;
#X connect 27 1 25 1;
#X connect 31 0 41 0;
#X connect 39 0 2 0;
#X connect 39 1 40 0;
#X connect 40 0 22 0;
#X connect 42 0 31 0;
#X connect 45 0 46 0;
#X connect 46 0 47 0;
#X connect 47 0 48 0;
#X connect 48 0 49 0;
#X connect 49 0 50 0;
#X connect 50 0 52 0;
#X connect 50 0 53 0;
#X connect 50 0 54 0;
#X connect 55 0 7 0;
#X connect 56 0 57 0;
#X connect 58 0 59 0;
#X connect 60 0 57 0;
#X connect 61 0 59 0;
#X connect 64 0 65 0;
#X connect 64 0 71 0;
#X connect 65 0 66 0;
#X connect 66 0 70 0;
#X connect 67 0 69 0;
#X connect 68 0 67 0;
#X connect 69 0 63 0;
#X connect 70 0 62 0;
#X connect 71 0 72 0;
#X connect 73 0 82 0;
#X connect 75 0 84 0;
#X connect 76 0 90 0;
#X connect 78 0 87 0;
#X connect 79 0 91 0;
#X connect 80 0 92 0;
#X connect 82 0 83 0;
#X connect 83 0 74 0;
#X connect 84 0 85 0;
#X connect 85 0 86 0;
#X connect 87 0 89 0;
#X connect 89 0 88 0;
#X connect 90 0 77 0;
#X connect 91 0 81 0;
#X connect 92 0 93 0;
