#N canvas 379 122 1440 813 10;
#X obj 87 81 ctlin;
#X floatatom 66 257 5 0 0 0 - - -;
#X obj 72 382 s;
#X floatatom 163 318 5 0 0 0 - - -;
#X msg 126 345 symbol ctl-\$1;
#X obj 66 29 loadbang;
#X obj 72 52 s init-loadbang;
#X obj 66 228 Gate;
#X obj 66 209 tgl 15 0 empty empty empty 17 7 0 10 -262144 -1 -1 1
1;
#X obj 114 162 expr ($f2==43 & $f1==127);
#X obj 114 191 sel 1;
#X obj 87 116 t f f;
#X obj 163 122 t f f;
#X obj 123 224 s sense-numb;
#X obj 512 91 Controller-Side_SF;
#X obj 299 181 s fader-ramp-time;
#X obj 299 65 loadbang;
#X msg 299 94 0;
#X obj 344 123 sel 0 1;
#X obj 363 152 f;
#X obj 401 123 r ramp-time;
#X obj 344 94 r fader-ramp-time-toggle;
#X floatatom 111 410 5 0 0 0 - - -;
#X obj 111 431 / 127;
#X floatatom 214 99 5 0 0 0 - - -;
#X obj 72 324 pack;
#X obj 109 284 f;
#X obj 66 285 t b f;
#X text 146 432 MOD WHEEL;
#X text 102 259 FADERS AND KNOBS;
#X obj 512 176 Fader 3 19 35 51 67;
#X obj 111 475 int;
#X obj 512 112 Fader 0 16 32 48 64;
#X obj 512 133 Fader 1 17 33 49 65;
#X obj 512 155 Fader 2 18 34 50 66;
#X obj 512 198 Fader 4 20 36 52 68;
#X obj 512 219 Fader 5 21 37 53 69;
#X obj 512 241 Fader 6 22 38 54 70;
#X obj 512 262 Fader 7 23 39 55 71;
#X obj 72 353 route 1;
#X obj 111 388 route 17;
#X obj 111 504 s gliss-length-vols-receive;
#X obj 111 453 * 1000;
#X text 173 185 REWIND BUTTON \; TOGGLES CONTROLLER;
#X obj 512 70 Keyboarder;
#X msg 424 521 0;
#X obj 364 378 t b b;
#X obj 429 420 f;
#X obj 465 420 + 1;
#X obj 465 576 s rhythm-presets-receive;
#X floatatom 556 539 5 0 0 0 - - -;
#X obj 364 308 r rhythmer-presets-zero;
#X obj 429 332 r rhythmer-presets-increment;
#X obj 556 409 r rhythmer-presets-confirm;
#X msg 465 550 set \$1;
#X obj 515 380 r init-loadbang;
#X obj 429 385 t b f;
#X msg 391 402 100;
#X msg 515 402 100;
#X obj 556 451 tgl 15 0 empty empty empty 17 7 0 10 -262144 -1 -1 0
1;
#X obj 429 356 r rhythmer-presets-decrement;
#X obj 465 493 % 13;
#X obj 505 511 change;
#X msg 619 529 1;
#X msg 619 433 set 0;
#X obj 556 472 sel 0 1;
#X msg 556 501 0;
#X obj 243 234 bendin;
#X floatatom 243 260 5 0 0 0 - - -;
#X obj 243 288 / 16383;
#X floatatom 243 317 5 0 0 0 - - -;
#X obj 243 345 * 2;
#X floatatom 243 374 5 0 0 0 - - -;
#X text 290 235 PICH-BEND WHEEL;
#X obj 243 402 s bend-amount19;
#X obj 243 431 s bend-amount20;
#X obj 243 460 s bend-amount21;
#X text 363 291 RHYTHMER PRESET INCREMENTER;
#X connect 0 0 11 0;
#X connect 0 1 12 0;
#X connect 0 2 24 0;
#X connect 1 0 27 0;
#X connect 3 0 4 0;
#X connect 4 0 2 1;
#X connect 5 0 6 0;
#X connect 5 0 8 0;
#X connect 7 0 1 0;
#X connect 8 0 7 0;
#X connect 8 0 13 0;
#X connect 9 0 10 0;
#X connect 10 0 8 0;
#X connect 11 0 7 1;
#X connect 11 1 9 0;
#X connect 12 0 3 0;
#X connect 12 1 9 1;
#X connect 16 0 17 0;
#X connect 17 0 15 0;
#X connect 18 0 17 0;
#X connect 18 1 19 0;
#X connect 19 0 15 0;
#X connect 20 0 19 1;
#X connect 21 0 18 0;
#X connect 22 0 23 0;
#X connect 23 0 42 0;
#X connect 24 0 26 1;
#X connect 25 0 39 0;
#X connect 26 0 25 0;
#X connect 27 0 26 0;
#X connect 27 1 25 1;
#X connect 31 0 41 0;
#X connect 39 0 2 0;
#X connect 39 1 40 0;
#X connect 40 0 22 0;
#X connect 42 0 31 0;
#X connect 45 0 49 0;
#X connect 45 0 50 0;
#X connect 46 0 45 0;
#X connect 46 1 57 0;
#X connect 47 0 48 0;
#X connect 48 0 47 1;
#X connect 48 0 61 0;
#X connect 50 0 49 0;
#X connect 51 0 46 0;
#X connect 52 0 56 0;
#X connect 53 0 59 0;
#X connect 54 0 49 0;
#X connect 54 0 50 0;
#X connect 55 0 58 0;
#X connect 56 0 47 0;
#X connect 56 1 48 1;
#X connect 57 0 47 1;
#X connect 58 0 48 0;
#X connect 59 0 65 0;
#X connect 60 0 56 0;
#X connect 61 0 54 0;
#X connect 61 0 62 0;
#X connect 62 0 63 0;
#X connect 63 0 64 0;
#X connect 64 0 59 0;
#X connect 65 0 66 0;
#X connect 65 1 50 0;
#X connect 66 0 50 0;
#X connect 67 0 68 0;
#X connect 68 0 69 0;
#X connect 69 0 70 0;
#X connect 70 0 71 0;
#X connect 71 0 72 0;
#X connect 72 0 74 0;
#X connect 72 0 75 0;
#X connect 72 0 76 0;
