#N canvas 67 169 1557 911 10;
#X obj 41 61 ctlin;
#X floatatom 16 237 5 0 0 0 - - -, f 5;
#X obj 22 362 s;
#X floatatom 106 288 5 0 0 0 - - -, f 5;
#X msg 106 312 symbol ctl-\$1;
#X obj 16 5 loadbang;
#X obj 22 28 s init-loadbang;
#X obj 16 208 Gate;
#X obj 16 189 tgl 15 0 empty empty empty 17 7 0 10 -262144 -1 -1 1
1;
#X obj 73 151 expr ($f2==43 & $f1==127);
#X obj 73 172 sel 1;
#X obj 41 96 t f f;
#X obj 106 112 t f f;
#X text 139 168 rewind button \; toggles controller \;;
#X obj 73 204 s sense-numb;
#X obj 307 187 Controller-Side_SF;
#X obj 483 170 s fader-ramp-time;
#X obj 483 27 loadbang;
#X msg 483 56 0;
#X obj 528 85 sel 0 1;
#X obj 547 141 f;
#X obj 562 112 r ramp-time;
#X obj 528 56 r fader-ramp-time-toggle;
#X obj 514 447 mtof;
#X obj 514 476 expr (44100/$f1);
#X floatatom 514 369 5 0 0 0 - - -, f 5;
#X obj 518 337 notein;
#X obj 514 505 pack;
#X obj 514 592 route 1 2 3;
#X obj 746 816 s fader-2-bypass;
#X obj 696 38 bendin;
#X floatatom 696 64 5 0 0 0 - - -, f 5;
#X floatatom 61 397 5 0 0 0 - - -, f 5;
#X obj 61 425 / 127;
#X obj 696 92 / 16383;
#X floatatom 696 121 5 0 0 0 - - -, f 5;
#X obj 696 149 * 2;
#X floatatom 696 207 5 0 0 0 - - -, f 5;
#X floatatom 177 79 5 0 0 0 - - -, f 5;
#X obj 22 304 pack;
#X obj 59 264 f;
#X obj 16 265 t b f;
#X text 113 427 MOD WHEEL;
#X text 145 242 FADERS AND KNOBS;
#X text 761 154 PICH-BEND WHEEL;
#X obj 307 79 Fader 3 19 35 51 67;
#X obj 696 264 s bend-amount19;
#X obj 696 293 s bend-amount20;
#X obj 696 322 s bend-amount21;
#X obj 61 490 int;
#X obj 514 563 pack f f f;
#X obj 767 610 unpack;
#X obj 800 639 sel 0;
#X msg 800 697 0;
#X obj 514 534 poly 3 1;
#X obj 746 787 Gate;
#X obj 800 668 t b b;
#X msg 857 769 1;
#X obj 535 610 unpack;
#X obj 568 639 sel 0;
#X msg 568 697 0;
#X obj 514 787 Gate;
#X obj 622 671 t b b;
#X msg 625 769 1;
#X obj 280 610 unpack;
#X obj 313 649 sel 0;
#X msg 300 705 0;
#X obj 259 787 Gate;
#X obj 313 678 t b b;
#X msg 370 769 1;
#X obj 259 816 s fader-0-bypass;
#X obj 514 816 s fader-1-bypass;
#X floatatom 583 358 5 0 0 0 - - -, f 5;
#X obj 259 845 s fader-3-bypass;
#X obj 515 845 s fader-4-bypass;
#X obj 747 845 s fader-5-bypass;
#X obj 423 427 / 12;
#X obj 423 456 int;
#X floatatom 423 485 5 0 0 0 - - -, f 5;
#X text 374 486 Octave;
#X obj 583 437 *;
#X text 321 544 Fraction to adjust exponents;
#X obj 307 15 Fader 0 16 32 48 64;
#X obj 307 36 Fader 1 17 33 49 65;
#X obj 307 58 Fader 2 18 34 50 66;
#X obj 307 101 Fader 4 20 36 52 68;
#X obj 307 122 Fader 5 21 37 53 69;
#X obj 307 144 Fader 6 22 38 54 70;
#X obj 307 165 Fader 7 23 39 55 71;
#X obj 423 522 expr (9/$f1);
#X obj 22 333 route 1;
#X obj 61 368 route 17;
#X obj 928 846 s ugen0-external-vol;
#X obj 855 544 s gliss-length-vols;
#X msg 962 817 0;
#X obj 928 787 t b b b b;
#X msg 928 818 1;
#X obj 967 454 f;
#X obj 1005 546 s gliss-length-vols;
#X msg 1101 817 0;
#X obj 1067 787 t b b b b;
#X msg 1067 818 1;
#X obj 1115 468 f;
#X obj 1067 846 s ugen1-external-vol;
#X obj 1152 534 s gliss-length-vols;
#X msg 1246 817 0;
#X obj 1212 787 t b b b b;
#X msg 1212 818 1;
#X obj 1226 454 f;
#X obj 1212 846 s ugen2-external-vol;
#X floatatom 1128 330 5 0 0 0 - - -, f 5;
#X obj 1128 272 loadbang;
#X msg 1128 301 0;
#X obj 514 282 r keyboard_bypass;
#X obj 514 311 unpack;
#X obj 583 408 t b f;
#X obj 514 411 t f f;
#X obj 199 664 tgl 15 0 empty empty empty 17 7 0 10 -262144 -1 -1 0
1;
#X obj 199 690 + 1;
#X obj 199 635 r stacc-leg-onoff;
#X obj 449 664 tgl 15 0 empty empty empty 17 7 0 10 -262144 -1 -1 0
1;
#X obj 449 635 r stacc-leg-onoff;
#X obj 687 664 tgl 15 0 empty empty empty 17 7 0 10 -262144 -1 -1 0
1;
#X obj 687 690 + 1;
#X obj 687 635 r stacc-leg-onoff;
#X obj 909 312 r gliss-length-vols-master;
#X obj 439 757 Gate;
#X obj 439 717 + 1;
#X obj 199 757 Gate;
#X obj 670 753 Gate;
#X obj 61 523 s gliss-length-vols-receive;
#X obj 313 376 s note-value;
#X obj 61 454 * 1000;
#X text 1042 406 Baroque and not entirely functional...? Clean up sometime...
;
#X msg 925 454 0;
#X msg 1067 454 0;
#X msg 1404 471 0;
#X text 1326 453 Zero here doesn't seem to matter;
#X obj 746 484 f;
#X obj 180 810 t f b;
#X obj 1005 485 f;
#X obj 445 798 t f b;
#X obj 682 793 t f b;
#X obj 1165 478 f;
#X text 1136 570 Doesn't make sense having three of these if they're
the same thing... was I going to give them each assignments to individual
ugens?;
#X obj 756 446 * 3;
#X obj 1015 447 * 3;
#X obj 1175 440 * 3;
#X connect 0 0 11 0;
#X connect 0 1 12 0;
#X connect 0 2 38 0;
#X connect 1 0 41 0;
#X connect 3 0 4 0;
#X connect 4 0 2 1;
#X connect 5 0 6 0;
#X connect 5 0 8 0;
#X connect 7 0 1 0;
#X connect 8 0 7 0;
#X connect 8 0 14 0;
#X connect 9 0 10 0;
#X connect 10 0 8 0;
#X connect 11 0 7 1;
#X connect 11 1 9 0;
#X connect 12 0 3 0;
#X connect 12 1 9 1;
#X connect 17 0 18 0;
#X connect 18 0 16 0;
#X connect 19 0 18 0;
#X connect 19 1 20 0;
#X connect 20 0 16 0;
#X connect 21 0 20 1;
#X connect 22 0 19 0;
#X connect 23 0 24 0;
#X connect 24 0 27 0;
#X connect 25 0 116 0;
#X connect 25 0 131 0;
#X connect 26 0 25 0;
#X connect 26 1 72 0;
#X connect 27 0 54 0;
#X connect 28 0 64 0;
#X connect 28 1 58 0;
#X connect 28 2 51 0;
#X connect 30 0 31 0;
#X connect 31 0 34 0;
#X connect 32 0 33 0;
#X connect 33 0 132 0;
#X connect 34 0 35 0;
#X connect 35 0 36 0;
#X connect 36 0 37 0;
#X connect 37 0 46 0;
#X connect 37 0 47 0;
#X connect 37 0 48 0;
#X connect 38 0 40 1;
#X connect 39 0 90 0;
#X connect 40 0 39 0;
#X connect 41 0 40 0;
#X connect 41 1 39 1;
#X connect 49 0 130 0;
#X connect 50 0 28 0;
#X connect 51 0 55 1;
#X connect 51 1 52 0;
#X connect 52 0 56 0;
#X connect 52 1 57 0;
#X connect 52 1 75 0;
#X connect 53 0 129 1;
#X connect 54 0 50 0;
#X connect 54 1 50 1;
#X connect 54 2 50 2;
#X connect 55 0 29 0;
#X connect 56 0 53 0;
#X connect 57 0 55 0;
#X connect 57 0 106 0;
#X connect 58 0 61 1;
#X connect 58 1 59 0;
#X connect 59 0 62 0;
#X connect 59 1 63 0;
#X connect 59 1 74 0;
#X connect 60 0 126 1;
#X connect 61 0 71 0;
#X connect 62 0 60 0;
#X connect 63 0 61 0;
#X connect 63 0 100 0;
#X connect 64 0 67 1;
#X connect 64 1 65 0;
#X connect 65 0 68 0;
#X connect 65 1 69 0;
#X connect 65 1 73 0;
#X connect 66 0 128 1;
#X connect 67 0 70 0;
#X connect 68 0 66 0;
#X connect 69 0 67 0;
#X connect 69 0 95 0;
#X connect 72 0 80 0;
#X connect 76 0 77 0;
#X connect 77 0 78 0;
#X connect 78 0 89 0;
#X connect 80 0 27 1;
#X connect 89 0 115 0;
#X connect 90 0 2 0;
#X connect 90 1 91 0;
#X connect 91 0 32 0;
#X connect 94 0 92 0;
#X connect 95 0 96 0;
#X connect 95 1 97 0;
#X connect 95 2 94 0;
#X connect 95 3 134 0;
#X connect 96 0 92 0;
#X connect 97 0 93 0;
#X connect 99 0 103 0;
#X connect 100 0 101 0;
#X connect 100 1 102 0;
#X connect 100 2 99 0;
#X connect 100 3 135 0;
#X connect 101 0 103 0;
#X connect 102 0 98 0;
#X connect 105 0 109 0;
#X connect 106 0 107 0;
#X connect 106 1 108 0;
#X connect 106 2 105 0;
#X connect 106 3 136 0;
#X connect 107 0 109 0;
#X connect 108 0 104 0;
#X connect 110 0 97 0;
#X connect 110 0 102 0;
#X connect 110 0 108 0;
#X connect 110 0 145 0;
#X connect 110 0 146 0;
#X connect 110 0 147 0;
#X connect 111 0 112 0;
#X connect 112 0 110 0;
#X connect 113 0 114 0;
#X connect 114 0 25 0;
#X connect 114 1 72 0;
#X connect 115 0 80 0;
#X connect 115 1 80 1;
#X connect 116 0 23 0;
#X connect 116 1 76 0;
#X connect 117 0 118 0;
#X connect 118 0 128 0;
#X connect 119 0 117 0;
#X connect 120 0 127 0;
#X connect 121 0 120 0;
#X connect 122 0 123 0;
#X connect 123 0 129 0;
#X connect 124 0 122 0;
#X connect 125 0 110 0;
#X connect 126 0 141 0;
#X connect 127 0 126 0;
#X connect 128 0 139 0;
#X connect 129 0 142 0;
#X connect 132 0 49 0;
#X connect 134 0 93 0;
#X connect 135 0 98 0;
#X connect 136 0 104 0;
#X connect 138 0 93 0;
#X connect 139 0 92 0;
#X connect 139 1 138 0;
#X connect 140 0 98 0;
#X connect 141 0 103 0;
#X connect 141 1 140 0;
#X connect 142 0 109 0;
#X connect 142 1 143 0;
#X connect 143 0 104 0;
#X connect 145 0 138 1;
#X connect 146 0 140 1;
#X connect 147 0 143 1;
