#N canvas 185 202 892 512 10;
#X obj 41 61 ctlin;
#X floatatom 41 238 5 0 0 0 - - -, f 5;
#X obj 41 289 s;
#X floatatom 106 238 5 0 0 0 - - -, f 5;
#X msg 106 262 symbol ctl-\$1;
#X obj 367 15 Fader 0 16 32 48 64;
#X obj 16 5 loadbang;
#X obj 22 28 s init-loadbang;
#X obj 16 208 Gate;
#X obj 16 189 tgl 15 0 empty empty empty 17 7 0 10 -262144 -1 -1 1
1;
#X obj 73 151 expr ($f2==43 & $f1==127);
#X obj 73 172 sel 1;
#X obj 41 96 t f f;
#X obj 106 112 t f f;
#X text 139 168 rewind button \; toggles controller \;;
#X obj 73 204 s sense-numb;
#X obj 367 187 Controller-Side_SF;
#X obj 367 36 Fader 1 17 33 49 65;
#X obj 367 58 Fader 2 18 34 50 66;
#X obj 367 79 Fader 3 19 35 51 67;
#X obj 367 101 Fader 4 20 36 52 68;
#X obj 367 122 Fader 5 21 37 53 69;
#X obj 367 144 Fader 6 22 38 54 70;
#X obj 367 165 Fader 7 23 39 55 71;
#X obj 180 320 r elem-exp-multiplier;
#X obj 310 400 s elem-exp-multiplier-0;
#X obj 339 379 s elem-exp-multiplier-1;
#X obj 369 358 s elem-exp-multiplier-2;
#X obj 398 337 s elem-exp-multiplier-3;
#X obj 480 400 s elem-exp-multiplier-4;
#X obj 509 379 s elem-exp-multiplier-5;
#X obj 539 358 s elem-exp-multiplier-6;
#X obj 568 337 s elem-exp-multiplier-7;
#X connect 0 0 12 0;
#X connect 0 1 13 0;
#X connect 1 0 2 0;
#X connect 3 0 4 0;
#X connect 4 0 2 1;
#X connect 6 0 7 0;
#X connect 6 0 9 0;
#X connect 8 0 1 0;
#X connect 9 0 8 0;
#X connect 9 0 15 0;
#X connect 10 0 11 0;
#X connect 11 0 9 0;
#X connect 12 0 8 1;
#X connect 12 1 10 0;
#X connect 13 0 3 0;
#X connect 13 1 10 1;
#X connect 24 0 25 0;
#X connect 24 0 26 0;
#X connect 24 0 27 0;
#X connect 24 0 28 0;
#X connect 24 0 29 0;
#X connect 24 0 30 0;
#X connect 24 0 31 0;
#X connect 24 0 32 0;
