#N canvas -10 19 960 984 10;
#X obj 536 34 r ctl-42;
#X obj 730 44 r ctl-43;
#X obj 223 36 r ctl-44;
#X obj 70 36 r ctl-45;
#X obj 564 190 r ctl-46;
#X obj 70 190 r ctl-58;
#X obj 315 190 r ctl-59;
#X obj 517 444 r ctl-60;
#X obj 70 444 r ctl-61;
#X obj 285 444 r ctl-62;
#X obj 536 91 s stopbutton;
#X obj 730 76 s rewindbutton;
#X obj 223 92 s fastforwardbutton;
#X obj 70 92 s recordbutton;
#X obj 564 246 s cyclebutton;
#X obj 70 246 s trackbackbutton;
#X obj 315 246 s trackforwardbutton;
#X obj 517 500 s setbutton;
#X obj 70 500 s markerbackbutton;
#X obj 285 500 s markerforwardbutton;
#X obj 70 218 sel 127;
#X obj 315 218 sel 127;
#X obj 70 267 r trackbackbutton;
#X obj 315 267 r trackforwardbutton;
#X obj 285 521 r markerforwardbutton;
#X obj 564 267 r cyclebutton;
#X obj 517 521 r setbutton;
#X obj 285 472 sel 127;
#X obj 564 218 sel 127;
#X obj 517 472 sel 127;
#X obj 70 521 r markerbackbutton;
#X obj 400 35 r ctl-41;
#X obj 400 92 s playbutton;
#X obj 223 113 r fastforwardbutton;
#X obj 223 64 sel 127;
#X obj 223 141 s absolute-relative-receive;
#X obj 536 112 r stopbutton;
#X obj 536 141 s multiplex-controller;
#X obj 536 63 sel 127;
#X obj 400 113 r playbutton;
#X obj 70 141 s reverb-bypass-receive;
#X obj 70 113 r recordbutton;
#X obj 70 64 sel 127;
#X obj 400 64 sel 127;
#X obj 400 141 s dsp-on-off-receive;
#X obj 70 472 sel 127;
#X obj 70 319 Gate3;
#X obj 70 296 r multiplex;
#X text 621 60 IN USE: sense-numb in Controller_Input subpatch;
#X obj 315 319 Gate3;
#X obj 315 296 r multiplex;
#X obj 564 319 Gate3;
#X obj 564 296 r multiplex;
#X obj 70 573 Gate3;
#X obj 70 550 r multiplex;
#X obj 285 573 Gate3;
#X obj 285 550 r multiplex;
#X obj 517 573 Gate3;
#X obj 517 550 r multiplex;
#X obj 70 385 s decrement_source_presets;
#X obj 315 385 s increment_source_presets;
#X obj 564 385 s select_source_presets;
#X obj 662 114 loadbang;
#X msg 627 114 1;
#X obj 577 363 s select_rhythmer_presets;
#X obj 83 363 s decrement_rhythmer_presets;
#X obj 328 363 s increment_rhythmer_presets;
#X obj 83 623 s decrement_rhythmer_drivers;
#X obj 298 623 s increment_rhythmer_drivers;
#X obj 530 623 s select_rhythmer_drivers;
#X obj 70 645 s decrement_gliss_presets;
#X obj 285 645 s increment_gliss_presets;
#X obj 517 645 s select_gliss_presets;
#X obj 97 341 s decrement_melodier_presets;
#X obj 342 341 s increment_melodier_presets;
#X obj 591 341 s select_melodier_presets;
#X obj 312 601 s stacc-leg-receive;
#X obj 97 601 s melodier-regenerate-onoff;
#X obj 544 601 s melodier-play;
#X connect 0 0 38 0;
#X connect 1 0 11 0;
#X connect 2 0 34 0;
#X connect 3 0 42 0;
#X connect 4 0 28 0;
#X connect 5 0 20 0;
#X connect 6 0 21 0;
#X connect 7 0 29 0;
#X connect 8 0 45 0;
#X connect 9 0 27 0;
#X connect 20 0 15 0;
#X connect 21 0 16 0;
#X connect 22 0 46 1;
#X connect 23 0 49 1;
#X connect 24 0 55 1;
#X connect 25 0 51 1;
#X connect 26 0 57 1;
#X connect 27 0 19 0;
#X connect 28 0 14 0;
#X connect 29 0 17 0;
#X connect 30 0 53 1;
#X connect 31 0 43 0;
#X connect 33 0 35 0;
#X connect 34 0 12 0;
#X connect 36 0 37 0;
#X connect 38 0 10 0;
#X connect 39 0 44 0;
#X connect 41 0 40 0;
#X connect 42 0 13 0;
#X connect 43 0 32 0;
#X connect 45 0 18 0;
#X connect 46 0 59 0;
#X connect 46 1 65 0;
#X connect 46 2 73 0;
#X connect 47 0 46 0;
#X connect 49 0 60 0;
#X connect 49 1 66 0;
#X connect 49 2 74 0;
#X connect 50 0 49 0;
#X connect 51 0 61 0;
#X connect 51 1 64 0;
#X connect 51 2 75 0;
#X connect 52 0 51 0;
#X connect 53 0 70 0;
#X connect 53 1 67 0;
#X connect 53 2 77 0;
#X connect 54 0 53 0;
#X connect 55 0 71 0;
#X connect 55 1 68 0;
#X connect 55 2 76 0;
#X connect 56 0 55 0;
#X connect 57 0 72 0;
#X connect 57 1 69 0;
#X connect 57 2 78 0;
#X connect 58 0 57 0;
#X connect 62 0 63 0;
#X connect 63 0 37 0;
