#N canvas 188 127 1054 641 10;
#X obj 67 58 hradio 15 1 0 17 empty empty empty 0 -8 0 10 -262144 -1
-1 16;
#X obj 67 478 unpack;
#X obj 67 519 s fader-0-bypass;
#X obj 106 499 s fader-3-bypass;
#X obj 67 559 s fader-1-bypass;
#X obj 106 539 s fader-4-bypass;
#X obj 67 599 s fader-2-bypass;
#X obj 106 579 s fader-5-bypass;
#X msg 67 453 0 0;
#X text 98 453 ALL OFF;
#X obj 84 321 s fader-0-bypass;
#X obj 131 301 s fader-1-bypass;
#X obj 179 281 s fader-2-bypass;
#X obj 84 260 Three-Rand-Gen;
#X obj 84 406 s fader-3-bypass;
#X obj 132 386 s fader-4-bypass;
#X obj 179 366 s fader-5-bypass;
#X obj 67 31 inlet;
#X obj 132 343 *;
#X obj 84 343 *;
#X obj 179 343 *;
#X floatatom 229 329 5 0 0 0 - - -, f 5;
#X obj 292 295 loadbang;
#X msg 84 197 8 10;
#X text 147 219 MEDIUM CRYSTALS;
#X text 122 198 TINY CRYSTALS;
#X text 165 240 BIG CRYSTALS;
#X msg 101 218 15 20;
#X msg 118 239 20 30;
#X text 177 133 HIGH ORGAN;
#X text 198 154 MEDIUM ORGAN;
#X text 216 175 LOW ORGAN;
#X msg 169 174 30 150;
#X msg 258 312 6;
#X msg 152 153 20 100;
#X msg 135 132 20 60;
#X obj 391 281 s fader-0-bypass;
#X obj 510 281 s fader-3-bypass;
#X obj 431 301 s fader-1-bypass;
#X obj 550 301 s fader-4-bypass;
#X obj 471 321 s fader-2-bypass;
#X obj 590 321 s fader-5-bypass;
#X obj 391 178 unpack f f f;
#X obj 391 198 t f f;
#X obj 510 215 * 6;
#X obj 431 220 t f f;
#X obj 550 237 * 6;
#X obj 472 241 t f f;
#X obj 590 258 * 6;
#X msg 391 114 6 12 9;
#X msg 411 134 8 16 12;
#X obj 67 80 sel 0 1 2 3 4 5 6;
#X text 438 116 CUT CRYSTALS 1;
#X text 468 135 CUT CRYSTALS 2;
#X msg 431 154 16 20 24;
#X text 493 154 CUT CRYSTALS 3;
#X obj 391 73 sel 7 8 9;
#X obj 394 501 s fader-0-bypass;
#X obj 441 481 s fader-1-bypass;
#X obj 489 461 s fader-2-bypass;
#X obj 394 440 Three-Rand-Gen;
#X obj 394 586 s fader-3-bypass;
#X obj 442 566 s fader-4-bypass;
#X obj 489 546 s fader-5-bypass;
#X obj 442 523 *;
#X obj 394 523 *;
#X obj 489 523 *;
#X floatatom 539 509 5 0 0 0 - - -, f 5;
#X obj 602 475 loadbang;
#X msg 394 377 8 10;
#X msg 421 398 15 20;
#X msg 568 492 0.8;
#X msg 448 418 20 25;
#X obj 394 353 sel 10 11 12;
#X obj 646 203 s fader-0-bypass;
#X obj 765 203 s fader-3-bypass;
#X obj 670 223 s fader-1-bypass;
#X obj 789 223 s fader-4-bypass;
#X obj 695 243 s fader-2-bypass;
#X obj 814 243 s fader-5-bypass;
#X obj 646 182 unpack f f f f f f;
#X msg 646 159 250 500 125 300 600 180;
#X msg 671 138 124 250 167 200 300 225;
#X msg 722 96 16 8 31 50 40 70;
#X obj 646 73 sel 13 14 15 16;
#X text 814 160 LOW DRONE;
#X text 842 140 MID DRONE;
#X text 850 119 HIGH DRONE;
#X msg 697 117 63 125 31 125 250 100;
#X text 843 97 ULTRA DRONE;
#X text 428 378 SNOW;
#X text 462 399 SLEET;
#X text 490 419 DRIZZLE;
#X connect 0 0 51 0;
#X connect 0 0 56 0;
#X connect 0 0 73 0;
#X connect 0 0 84 0;
#X connect 1 0 2 0;
#X connect 1 0 4 0;
#X connect 1 0 6 0;
#X connect 1 1 3 0;
#X connect 1 1 5 0;
#X connect 1 1 7 0;
#X connect 8 0 1 0;
#X connect 13 0 10 0;
#X connect 13 0 19 0;
#X connect 13 1 11 0;
#X connect 13 1 18 0;
#X connect 13 2 12 0;
#X connect 13 2 20 0;
#X connect 17 0 0 0;
#X connect 18 0 15 0;
#X connect 19 0 14 0;
#X connect 20 0 16 0;
#X connect 21 0 19 1;
#X connect 21 0 18 1;
#X connect 21 0 20 1;
#X connect 22 0 33 0;
#X connect 23 0 13 0;
#X connect 27 0 13 0;
#X connect 28 0 13 0;
#X connect 32 0 13 0;
#X connect 33 0 21 0;
#X connect 34 0 13 0;
#X connect 35 0 13 0;
#X connect 42 0 43 0;
#X connect 42 1 45 0;
#X connect 42 2 47 0;
#X connect 43 0 36 0;
#X connect 43 1 44 0;
#X connect 44 0 37 0;
#X connect 45 0 38 0;
#X connect 45 1 46 0;
#X connect 46 0 39 0;
#X connect 47 0 40 0;
#X connect 47 1 48 0;
#X connect 48 0 41 0;
#X connect 49 0 42 0;
#X connect 50 0 42 0;
#X connect 51 0 8 0;
#X connect 51 1 23 0;
#X connect 51 2 27 0;
#X connect 51 3 28 0;
#X connect 51 4 35 0;
#X connect 51 5 34 0;
#X connect 51 6 32 0;
#X connect 54 0 42 0;
#X connect 56 0 49 0;
#X connect 56 1 50 0;
#X connect 56 2 54 0;
#X connect 60 0 57 0;
#X connect 60 0 65 0;
#X connect 60 1 58 0;
#X connect 60 1 64 0;
#X connect 60 2 59 0;
#X connect 60 2 66 0;
#X connect 64 0 62 0;
#X connect 65 0 61 0;
#X connect 66 0 63 0;
#X connect 67 0 65 1;
#X connect 67 0 64 1;
#X connect 67 0 66 1;
#X connect 68 0 71 0;
#X connect 69 0 60 0;
#X connect 70 0 60 0;
#X connect 71 0 67 0;
#X connect 72 0 60 0;
#X connect 73 0 69 0;
#X connect 73 1 70 0;
#X connect 73 2 72 0;
#X connect 80 0 74 0;
#X connect 80 1 76 0;
#X connect 80 2 78 0;
#X connect 80 3 75 0;
#X connect 80 4 77 0;
#X connect 80 5 79 0;
#X connect 81 0 80 0;
#X connect 82 0 80 0;
#X connect 83 0 80 0;
#X connect 84 0 81 0;
#X connect 84 1 82 0;
#X connect 84 2 88 0;
#X connect 84 3 83 0;
#X connect 88 0 80 0;
