#N canvas 67 111 1102 850 10;
#X floatatom 788 322 5 0 0 0 - - -, f 5;
#X floatatom 66 152 5 0 0 0 - - -, f 5;
#X obj 331 412 / 127;
#X obj 331 475 int;
#X obj 331 433 pow 2;
#X obj 331 454 * 400;
#X obj 822 377 f;
#X obj 807 402 -;
#X obj 788 344 t f f b;
#X floatatom 807 423 5 0 0 0 - - -, f 5;
#X obj 331 578 t f f;
#X obj 435 580 f;
#X obj 419 544 t f b;
#X obj 392 639 +;
#X floatatom 333 681 5 0 0 0 - - -, f 5;
#X obj 356 182 r ctl-\$1;
#X obj 788 247 r ctl-\$2;
#X obj 66 105 r ctl-\$3;
#X obj 66 242 s sbutton-\$1;
#X obj 871 333 loadbang;
#X msg 871 360 64;
#X obj 839 471 abs;
#X obj 807 445 t f f;
#X obj 807 520 spigot;
#X obj 839 495 < 1.1;
#X floatatom 807 545 5 0 0 0 - - -, f 5;
#X text 796 229 Trim;
#X floatatom 577 263 5 0 0 0 - - -, f 5;
#X obj 623 321 f;
#X obj 600 362 -;
#X obj 577 285 t f f b;
#X floatatom 600 383 5 0 0 0 - - -, f 5;
#X obj 654 267 loadbang;
#X msg 654 294 64;
#X obj 632 432 abs;
#X obj 600 405 t f f;
#X obj 600 480 spigot;
#X obj 632 456 < 1.1;
#X floatatom 600 505 5 0 0 0 - - -, f 5;
#X obj 499 519 * 4;
#X text 64 89 BUTTONS;
#X obj 66 172 / 127;
#X obj 249 112 r absolute-relative;
#X text 355 161 ABSOLUTE;
#X text 600 228 RELATIVE;
#X obj 249 142 + 1;
#X obj 296 197 sel 1;
#X floatatom 322 244 5 0 0 0 - - -, f 5;
#X msg 280 347 set \$1;
#X obj 632 60 r fader-\$1-bypass;
#X obj 91 263 s sbutton-\$1-mux;
#X msg 156 108 1;
#X obj 158 154 r multiplex;
#X obj 158 180 + 1;
#X floatatom 66 345 5 0 0 0 - - -, f 5;
#X obj 66 362 / 127;
#X obj 141 357 r multiplex;
#X obj 141 383 + 1;
#X obj 66 432 s mbutton-\$1;
#X obj 91 453 s mbutton-\$1-mux;
#X floatatom 66 555 5 0 0 0 - - -, f 5;
#X obj 66 572 / 127;
#X obj 141 567 r multiplex;
#X obj 141 593 + 1;
#X obj 66 642 s rbutton-\$1;
#X obj 91 663 s rbutton-\$1-mux;
#X obj 66 295 r ctl-\$4;
#X obj 66 495 r ctl-\$5;
#X obj 156 87 r init-loadbang;
#X floatatom 176 414 5 0 0 0 - - -, f 5;
#X floatatom 225 250 5 0 0 0 - - -, f 5;
#X obj 332 771 s fadertrim-\$1;
#X floatatom 364 216 5 0 0 0 - - -, f 5;
#X obj 331 307 Gate;
#X obj 66 210 Gate;
#X obj 66 400 Gate;
#X obj 66 610 Gate;
#X obj 956 199 s auxfader-\$1;
#X obj 864 287 s auxknob-\$1;
#X obj 399 361 r elem-exp-multiplier-\$1;
#X obj 427 384 r elem-exp-adder-\$1;
#X floatatom 329 537 5 0 0 0 - - -, f 5;
#X obj 321 502 + 0;
#X obj 399 454 - 0;
#X obj 410 322 bng 15 250 50 0 empty empty empty 17 7 0 10 -262144
-1 -1;
#X floatatom 401 500 5 0 0 0 - - -, f 5;
#X obj 427 421 t b f;
#X obj 459 117 r pulse_base;
#X obj 66 129 route 0;
#X obj 65 320 route 0;
#X obj 66 525 route 0;
#X msg 316 54 0;
#X obj 218 703 r bend-amount\$2;
#X obj 332 738 *;
#X obj 343 709 t b f;
#X obj 154 759 loadbang;
#X msg 219 758 1;
#X connect 0 0 8 0;
#X connect 1 0 41 0;
#X connect 2 0 4 0;
#X connect 3 0 82 0;
#X connect 4 0 5 0;
#X connect 5 0 3 0;
#X connect 6 0 7 1;
#X connect 7 0 9 0;
#X connect 8 0 6 1;
#X connect 8 1 7 0;
#X connect 8 2 6 0;
#X connect 9 0 22 0;
#X connect 10 0 14 0;
#X connect 10 1 11 1;
#X connect 11 0 13 1;
#X connect 12 0 13 0;
#X connect 12 1 11 0;
#X connect 13 0 14 0;
#X connect 13 0 11 1;
#X connect 14 0 48 0;
#X connect 14 0 94 0;
#X connect 15 0 72 0;
#X connect 16 0 0 0;
#X connect 16 0 78 0;
#X connect 17 0 88 0;
#X connect 19 0 20 0;
#X connect 20 0 6 1;
#X connect 21 0 24 0;
#X connect 22 0 23 0;
#X connect 22 1 21 0;
#X connect 23 0 25 0;
#X connect 24 0 23 1;
#X connect 25 0 12 0;
#X connect 27 0 30 0;
#X connect 28 0 29 1;
#X connect 29 0 31 0;
#X connect 30 0 28 1;
#X connect 30 1 29 0;
#X connect 30 2 28 0;
#X connect 31 0 35 0;
#X connect 32 0 33 0;
#X connect 33 0 28 1;
#X connect 34 0 37 0;
#X connect 35 0 36 0;
#X connect 35 1 34 0;
#X connect 36 0 38 0;
#X connect 37 0 36 1;
#X connect 38 0 39 0;
#X connect 39 0 12 0;
#X connect 41 0 74 1;
#X connect 42 0 45 0;
#X connect 45 0 46 0;
#X connect 45 0 70 0;
#X connect 45 0 73 0;
#X connect 46 0 47 0;
#X connect 47 0 28 1;
#X connect 47 0 6 1;
#X connect 48 0 47 0;
#X connect 49 0 6 1;
#X connect 49 0 28 1;
#X connect 49 0 81 0;
#X connect 51 0 74 0;
#X connect 51 0 75 0;
#X connect 51 0 76 0;
#X connect 52 0 53 0;
#X connect 53 0 74 0;
#X connect 54 0 55 0;
#X connect 55 0 75 1;
#X connect 56 0 57 0;
#X connect 57 0 69 0;
#X connect 57 0 75 0;
#X connect 60 0 61 0;
#X connect 61 0 76 1;
#X connect 62 0 63 0;
#X connect 63 0 76 0;
#X connect 66 0 89 0;
#X connect 67 0 90 0;
#X connect 68 0 51 0;
#X connect 68 0 91 0;
#X connect 72 0 77 0;
#X connect 72 0 73 1;
#X connect 73 0 2 0;
#X connect 73 1 27 0;
#X connect 74 0 18 0;
#X connect 74 1 50 0;
#X connect 75 0 58 0;
#X connect 75 1 59 0;
#X connect 76 0 64 0;
#X connect 76 1 65 0;
#X connect 79 0 83 0;
#X connect 80 0 82 1;
#X connect 80 0 86 0;
#X connect 81 0 10 0;
#X connect 82 0 81 0;
#X connect 83 0 5 1;
#X connect 83 0 85 0;
#X connect 86 0 83 0;
#X connect 86 1 83 1;
#X connect 87 0 73 1;
#X connect 88 1 1 0;
#X connect 89 1 54 0;
#X connect 90 1 60 0;
#X connect 91 0 45 0;
#X connect 92 0 93 0;
#X connect 93 0 71 0;
#X connect 94 0 93 0;
#X connect 94 1 93 1;
#X connect 95 0 96 0;
#X connect 96 0 93 0;
