#N canvas 27 129 1102 850 10;
#X floatatom 678 330 5 0 0 0 - - - 0;
#X floatatom 87 190 5 0 0 0 - - - 0;
#X obj 431 241 / 127;
#X obj 431 383 int;
#X obj 431 265 pow 2;
#X obj 431 359 * 400;
#X obj 717 435 f;
#X obj 697 471 -;
#X obj 678 362 t f f b;
#X floatatom 697 495 5 0 0 0 - - - 0;
#X obj 431 465 t f f;
#X obj 443 534 f;
#X obj 476 516 t f b;
#X obj 476 562 +;
#X floatatom 431 595 5 0 0 0 - - - 0;
#X obj 452 112 r ctl-\$1;
#X obj 678 301 r ctl-\$2;
#X obj 48 142 r ctl-\$3;
#X obj 66 307 s sbutton-\$1;
#X msg 751 406 64;
#X obj 730 542 abs;
#X obj 697 518 t f f;
#X obj 697 590 spigot;
#X obj 730 566 < 1.1;
#X floatatom 697 614 5 0 0 0 - - - 0;
#X floatatom 557 235 5 0 0 0 - - - 0;
#X obj 596 435 f;
#X obj 576 471 -;
#X obj 557 367 t f f b;
#X floatatom 576 495 5 0 0 0 - - - 0;
#X msg 628 406 64;
#X obj 609 542 abs;
#X obj 576 518 t f f;
#X obj 576 590 spigot;
#X obj 609 566 < 1.1;
#X floatatom 576 614 5 0 0 0 - - - 0;
#X obj 476 488 * 4;
#X text 28 51 BUTTONS;
#X obj 87 213 / 127;
#X obj 243 128 r absolute-relative;
#X text 509 112 ABSOLUTE;
#X text 546 217 RELATIVE;
#X obj 243 152 + 1;
#X obj 243 395 sel 1;
#X floatatom 243 418 5 0 0 0 - - - 0;
#X msg 323 400 set \$1;
#X obj 793 417 r fader-\$1-bypass;
#X obj 79 285 s sbutton-\$1-mux;
#X msg 44 103 1;
#X obj 14 74 r multiplex;
#X floatatom 87 389 5 0 0 0 - - - 0;
#X obj 87 412 / 127;
#X floatatom 87 588 5 0 0 0 - - - 0;
#X obj 87 611 / 127;
#X obj 48 341 r ctl-\$4;
#X obj 48 540 r ctl-\$5;
#X obj 186 85 r init-loadbang;
#X floatatom 452 136 5 0 0 0 - - - 0;
#X obj 431 217 Gate;
#X obj 466 164 s auxfader-\$1;
#X obj 717 329 s auxknob-\$1;
#X obj 308 323 r elem-exp-multiplier-\$1;
#X obj 308 294 r elem-exp-adder-\$1;
#X obj 431 407 + 0;
#X obj 487 341 - 0;
#X obj 487 312 t b f;
#X obj 468 189 r pulse_base;
#X obj 48 166 route 0;
#X obj 48 365 route 0;
#X obj 48 564 route 0;
#X msg 186 134 0;
#X obj 330 618 r bend-amount\$2;
#X obj 431 647 *;
#X obj 431 618 t b f;
#X msg 289 629 1;
#X text 688 281 TRIM;
#X floatatom 14 225 5 0 0 0 - - - 0;
#X floatatom 14 395 5 0 0 0 - - - 0;
#X floatatom 14 623 5 0 0 0 - - - 0;
#X obj 751 103 bng 15 250 50 0 empty empty empty 17 7 0 10 #fcfcfc
#000000 #000000;
#X obj 793 447 t f;
#X obj 289 103 bng 15 250 50 0 empty empty empty 17 7 0 10 #fcfcfc
#000000 #000000;
#X obj 628 103 bng 15 250 50 0 empty empty empty 17 7 0 10 #fcfcfc
#000000 #000000;
#X obj 66 242 Gate3;
#X obj 93 264 s sbutton-\$1-mux2;
#X obj 66 441 Gate3;
#X obj 66 640 Gate3;
#X obj 79 685 s rbutton-\$1-mux;
#X obj 66 707 s rbutton-\$1;
#X obj 93 664 s rbutton-\$1-mux2;
#X obj 66 507 s mbutton-\$1;
#X obj 79 485 s mbutton-\$1-mux;
#X obj 93 464 s mbutton-\$1-mux2;
#X text 558 165 Remove this? Poor form?;
#X text 577 180 No send Pulse_Base... what's this for? To make sure
current amount goes to absolute after relative has been in use a bit?
;
#X obj 431 697 Gate3;
#X obj 431 763 s fadertrim-\$1;
#X obj 444 741 s fadertrim-\$1-mux;
#X obj 458 720 s fadertrim-\$1-mux2;
#X obj 336 679 r multiplex;
#X connect 0 0 8 0;
#X connect 1 0 38 0;
#X connect 2 0 4 0;
#X connect 3 0 63 0;
#X connect 4 0 5 0;
#X connect 5 0 3 0;
#X connect 6 0 7 1;
#X connect 7 0 9 0;
#X connect 8 0 6 1;
#X connect 8 1 7 0;
#X connect 8 2 6 0;
#X connect 9 0 21 0;
#X connect 10 0 14 0;
#X connect 10 1 11 1;
#X connect 11 0 13 1;
#X connect 12 0 13 0;
#X connect 12 1 11 0;
#X connect 13 0 14 0;
#X connect 13 0 11 1;
#X connect 14 0 45 0;
#X connect 14 0 73 0;
#X connect 15 0 57 0;
#X connect 16 0 0 0;
#X connect 16 0 60 0;
#X connect 17 0 67 0;
#X connect 19 0 6 1;
#X connect 20 0 23 0;
#X connect 21 0 22 0;
#X connect 21 1 20 0;
#X connect 22 0 24 0;
#X connect 23 0 22 1;
#X connect 24 0 12 0;
#X connect 25 0 28 0;
#X connect 26 0 27 1;
#X connect 27 0 29 0;
#X connect 28 0 26 1;
#X connect 28 1 27 0;
#X connect 28 2 26 0;
#X connect 29 0 32 0;
#X connect 30 0 26 1;
#X connect 31 0 34 0;
#X connect 32 0 33 0;
#X connect 32 1 31 0;
#X connect 33 0 35 0;
#X connect 34 0 33 1;
#X connect 35 0 36 0;
#X connect 36 0 12 0;
#X connect 38 0 83 1;
#X connect 39 0 42 0;
#X connect 42 0 43 0;
#X connect 42 0 58 0;
#X connect 43 0 44 0;
#X connect 44 0 26 1;
#X connect 44 0 6 1;
#X connect 45 0 44 0;
#X connect 46 0 6 1;
#X connect 46 0 26 1;
#X connect 46 0 80 0;
#X connect 48 0 76 0;
#X connect 49 0 76 0;
#X connect 50 0 51 0;
#X connect 51 0 85 1;
#X connect 52 0 53 0;
#X connect 53 0 86 1;
#X connect 54 0 68 0;
#X connect 55 0 69 0;
#X connect 56 0 48 0;
#X connect 56 0 70 0;
#X connect 56 0 79 0;
#X connect 56 0 81 0;
#X connect 56 0 82 0;
#X connect 57 0 59 0;
#X connect 57 0 58 1;
#X connect 58 0 2 0;
#X connect 58 1 25 0;
#X connect 61 0 64 0;
#X connect 62 0 63 1;
#X connect 62 0 65 0;
#X connect 63 0 10 0;
#X connect 64 0 5 1;
#X connect 65 0 64 0;
#X connect 65 1 64 1;
#X connect 66 0 58 1;
#X connect 67 1 1 0;
#X connect 68 1 50 0;
#X connect 69 1 52 0;
#X connect 70 0 42 0;
#X connect 71 0 72 0;
#X connect 72 0 95 1;
#X connect 73 0 72 0;
#X connect 73 1 72 1;
#X connect 74 0 72 0;
#X connect 76 0 77 0;
#X connect 76 0 83 0;
#X connect 77 0 78 0;
#X connect 77 0 85 0;
#X connect 78 0 86 0;
#X connect 79 0 19 0;
#X connect 80 0 10 0;
#X connect 81 0 74 0;
#X connect 82 0 30 0;
#X connect 83 0 18 0;
#X connect 83 1 47 0;
#X connect 83 2 84 0;
#X connect 85 0 90 0;
#X connect 85 1 91 0;
#X connect 85 2 92 0;
#X connect 86 0 88 0;
#X connect 86 1 87 0;
#X connect 86 2 89 0;
#X connect 95 0 96 0;
#X connect 95 1 97 0;
#X connect 95 2 98 0;
#X connect 99 0 95 0;
