#N canvas 508 261 450 300 10;
#X obj 97 48 inlet;
#X obj 213 48 inlet;
#X obj 137 111 spigot;
#X obj 213 138 spigot;
#X obj 213 183 outlet;
#X obj 97 120 == 2;
#X obj 137 158 outlet;
#X obj 141 72 == 1;
#X connect 0 0 5 0;
#X connect 0 0 7 0;
#X connect 1 0 3 0;
#X connect 1 0 2 0;
#X connect 2 0 6 0;
#X connect 3 0 4 0;
#X connect 5 0 3 1;
#X connect 7 0 2 1;
