#N canvas 852 228 828 504 12;
#X obj 97 48 inlet;
#X obj 213 48 inlet;
#X obj 137 141 spigot;
#X obj 213 168 spigot;
#X obj 213 199 outlet;
#X obj 97 148 == 2;
#X obj 137 199 outlet;
#X obj 176 92 == 1;
#X obj 290 168 spigot;
#X obj 329 88 == 3;
#X obj 290 199 outlet;
#X connect 0 0 5 0;
#X connect 0 0 7 0;
#X connect 0 0 9 0;
#X connect 1 0 3 0;
#X connect 1 0 2 0;
#X connect 1 0 8 0;
#X connect 2 0 6 0;
#X connect 3 0 4 0;
#X connect 5 0 3 1;
#X connect 7 0 2 1;
#X connect 8 0 10 0;
#X connect 9 0 8 1;
