#N canvas 67 109 1270 639 10;
#X obj 1065 14 r elem-to-GEM-0;
#X obj 1065 42 r exp-to-GEM-0;
#X obj 1065 70 r elem-to-GEM-0;
#X obj 1065 98 r exp-to-GEM-0;
#X obj 1065 126 r elem-to-GEM-0;
#X obj 1065 154 r exp-to-GEM-0;
#N canvas 67 245 853 379 gemwin 0;
#X obj 67 117 outlet;
#X obj 67 10 inlet;
#X obj 67 41 route create;
#X msg 67 90 set destroy;
#X msg 203 62 set create;
#X msg 172 227 destroy \, reset;
#X msg 256 121 dimen 1366 768 \, create \, 1;
#X msg 138 179 dimen 150 150 \, create \, 1;
#X text 175 262 Edited;
#X obj 364 299 outlet;
#X obj 54 244 gemwin;
#X connect 1 0 2 0;
#X connect 2 0 3 0;
#X connect 2 0 6 0;
#X connect 2 0 7 0;
#X connect 2 1 4 0;
#X connect 2 1 5 0;
#X connect 3 0 0 0;
#X connect 4 0 0 0;
#X connect 5 0 10 0;
#X connect 6 0 10 0;
#X connect 10 0 9 0;
#X restore 1069 332 pd gemwin;
#X msg 1110 265 destroy;
#X obj 1055 255 Gem;
#X msg 76 532 draw point;
#X obj 186 368 rotateXYZ;
#X floatatom 206 314 5 0 0 0 - - -, f 5;
#X obj 186 549 scopeXYZ~ 2048;
#X floatatom 226 332 5 0 0 0 - - -, f 5;
#X floatatom 246 350 5 0 0 0 - - -, f 5;
#X obj 186 212 translateXYZ;
#X floatatom 213 158 5 0 0 0 - - -, f 5;
#X floatatom 240 176 5 0 0 0 - - -, f 5;
#X floatatom 267 194 5 0 0 0 - - -, f 5;
#X obj 1110 220 inlet;
#X obj 281 487 r~ to-GEM-0;
#X obj 306 297 unpack f f f;
#X obj 283 141 unpack f f f;
#X obj 186 110 gemhead;
#X msg 306 269 -27 27 0;
#X obj 78 59 t b b b;
#X obj 281 522 *~;
#X floatatom 346 508 5 0 0 0 - - -, f 5;
#X obj 283 76 t b b b;
#X obj 329 428 unpack f f f;
#X obj 526 368 rotateXYZ;
#X floatatom 546 314 5 0 0 0 - - -, f 5;
#X obj 526 549 scopeXYZ~ 2048;
#X floatatom 566 332 5 0 0 0 - - -, f 5;
#X floatatom 586 350 5 0 0 0 - - -, f 5;
#X obj 526 212 translateXYZ;
#X floatatom 553 158 5 0 0 0 - - -, f 5;
#X floatatom 580 176 5 0 0 0 - - -, f 5;
#X floatatom 607 194 5 0 0 0 - - -, f 5;
#X obj 557 445 osc~ 30;
#X obj 646 297 unpack f f f;
#X obj 590 466 osc~ 30;
#X obj 623 141 unpack f f f;
#X obj 526 110 gemhead;
#X obj 621 522 *~;
#X floatatom 686 508 5 0 0 0 - - -, f 5;
#X obj 623 76 t b b b;
#X msg 669 400 0 0.28 3.25;
#X obj 669 428 unpack f f f;
#X msg 646 269 30 180 40;
#X obj 621 487 r~ to-GEM-1;
#X obj 816 368 rotateXYZ;
#X floatatom 836 314 5 0 0 0 - - -, f 5;
#X obj 816 549 scopeXYZ~ 2048;
#X floatatom 856 332 5 0 0 0 - - -, f 5;
#X floatatom 876 350 5 0 0 0 - - -, f 5;
#X obj 816 212 translateXYZ;
#X floatatom 843 158 5 0 0 0 - - -, f 5;
#X floatatom 870 176 5 0 0 0 - - -, f 5;
#X floatatom 897 194 5 0 0 0 - - -, f 5;
#X obj 847 445 osc~ 30;
#X obj 936 297 unpack f f f;
#X obj 880 466 osc~ 30;
#X obj 913 141 unpack f f f;
#X obj 816 110 gemhead;
#X obj 911 522 *~;
#X floatatom 976 508 5 0 0 0 - - -, f 5;
#X obj 913 76 t b b b;
#X msg 959 400 0 0.28 3.25;
#X obj 959 428 unpack f f f;
#X msg 936 269 -30 -25 90;
#X obj 911 487 r~ to-GEM-2;
#X obj 78 29 r init-loadbang;
#X obj 217 445 osc~ 30;
#X obj 250 466 osc~ 30;
#X msg 329 400 0 0.28 3.25;
#X msg 369 115 -1 -1 1.5;
#X msg 720 98 0 1 1.5;
#X msg 981 95;
#X msg 623 113 0 2 0;
#X msg 283 114 -2 -1.4 0;
#X msg 913 113 2 -1.4 0;
#X obj 1071 563 pix_record;
#X obj 1090 532 cnv 15 145 25 empty empty empty 20 12 0 14 -225271
-66577 0;
#X msg 1100 536 bang;
#X msg 1172 536 auto \$1;
#X obj 1153 537 tgl 15 0 empty empty empty 0 -6 0 8 -262144 -1 -1 0
1;
#X msg 1096 413 codeclist;
#X obj 1092 433 t a;
#X obj 1080 460 cnv 15 155 65 empty empty empty 20 12 0 14 -225271
-66577 0;
#X msg 1083 481 file /tmp/mymovie.mov;
#X obj 1084 462 bng 15 250 50 0 empty empty empty 0 -6 0 8 -258699
-1 -1;
#N canvas 0 50 450 300 savepanel 0;
#X obj 114 62 inlet;
#X obj 114 254 outlet;
#X obj 114 199 t b a;
#X obj 114 125 savepanel;
#X msg 114 162 set file \$1;
#X connect 0 0 3 0;
#X connect 2 0 1 0;
#X connect 2 1 1 0;
#X connect 3 0 4 0;
#X connect 4 0 2 0;
#X restore 1104 461 pd savepanel;
#X msg 1140 504 record \$1;
#X obj 1120 506 tgl 15 0 empty empty empty 0 -6 0 8 -262144 -1 -1 0
1;
#X obj 1083 504 t a;
#X floatatom 1159 566 5 0 0 0 - - -, f 5;
#X msg 1093 388 codec mjpa;
#X msg 1132 365 codec 20;
#X connect 6 0 7 0;
#X connect 6 1 82 0;
#X connect 7 0 6 0;
#X connect 9 0 12 0;
#X connect 9 0 32 0;
#X connect 9 0 53 0;
#X connect 10 0 12 0;
#X connect 11 0 10 1;
#X connect 13 0 10 2;
#X connect 14 0 10 3;
#X connect 15 0 10 0;
#X connect 16 0 15 1;
#X connect 17 0 15 2;
#X connect 18 0 15 3;
#X connect 19 0 7 0;
#X connect 20 0 26 0;
#X connect 21 0 11 0;
#X connect 21 1 13 0;
#X connect 21 2 14 0;
#X connect 22 0 16 0;
#X connect 22 1 17 0;
#X connect 22 2 18 0;
#X connect 23 0 15 0;
#X connect 24 0 21 0;
#X connect 25 0 28 0;
#X connect 25 0 9 0;
#X connect 25 1 46 0;
#X connect 25 2 67 0;
#X connect 26 0 12 3;
#X connect 27 0 26 1;
#X connect 28 0 80 0;
#X connect 28 1 24 0;
#X connect 28 2 75 0;
#X connect 29 0 73 1;
#X connect 29 1 74 1;
#X connect 29 2 27 0;
#X connect 30 0 32 0;
#X connect 31 0 30 1;
#X connect 33 0 30 2;
#X connect 34 0 30 3;
#X connect 35 0 30 0;
#X connect 36 0 35 1;
#X connect 37 0 35 2;
#X connect 38 0 35 3;
#X connect 39 0 32 1;
#X connect 40 0 31 0;
#X connect 40 1 33 0;
#X connect 40 2 34 0;
#X connect 41 0 32 2;
#X connect 42 0 36 0;
#X connect 42 1 37 0;
#X connect 42 2 38 0;
#X connect 43 0 35 0;
#X connect 44 0 32 3;
#X connect 45 0 44 1;
#X connect 46 0 79 0;
#X connect 46 1 49 0;
#X connect 46 2 47 0;
#X connect 47 0 48 0;
#X connect 48 0 39 1;
#X connect 48 1 41 1;
#X connect 48 2 45 0;
#X connect 49 0 40 0;
#X connect 50 0 44 0;
#X connect 51 0 53 0;
#X connect 52 0 51 1;
#X connect 54 0 51 2;
#X connect 55 0 51 3;
#X connect 56 0 51 0;
#X connect 57 0 56 1;
#X connect 58 0 56 2;
#X connect 59 0 56 3;
#X connect 60 0 53 1;
#X connect 61 0 52 0;
#X connect 61 1 54 0;
#X connect 61 2 55 0;
#X connect 62 0 53 2;
#X connect 63 0 57 0;
#X connect 63 1 58 0;
#X connect 63 2 59 0;
#X connect 64 0 56 0;
#X connect 65 0 53 3;
#X connect 66 0 65 1;
#X connect 67 0 81 0;
#X connect 67 1 70 0;
#X connect 67 2 68 0;
#X connect 68 0 69 0;
#X connect 69 0 60 1;
#X connect 69 1 62 1;
#X connect 69 2 66 0;
#X connect 70 0 61 0;
#X connect 71 0 65 0;
#X connect 72 0 25 0;
#X connect 73 0 12 1;
#X connect 74 0 12 2;
#X connect 75 0 29 0;
#X connect 76 0 22 0;
#X connect 77 0 42 0;
#X connect 78 0 63 0;
#X connect 79 0 42 0;
#X connect 80 0 22 0;
#X connect 81 0 63 0;
#X connect 82 1 96 0;
#X connect 84 0 82 0;
#X connect 85 0 82 0;
#X connect 86 0 85 0;
#X connect 87 0 88 0;
#X connect 88 0 82 0;
#X connect 90 0 95 0;
#X connect 91 0 92 0;
#X connect 92 0 90 0;
#X connect 93 0 95 0;
#X connect 94 0 93 0;
#X connect 95 0 82 0;
#X connect 97 0 88 0;
#X connect 98 0 88 0;
