#N canvas 594 81 603 687 10;
#X obj 184 179 line;
#X obj 184 156 pack;
#X floatatom 312 142 5 0 0 0 - - -, f 5;
#X msg 312 101 set \$1;
#X obj 184 224 outlet;
#X obj 184 33 inlet;
#X obj 312 33 inlet;
#X obj 184 80 t f b;
#X connect 0 0 4 0;
#X connect 1 0 0 0;
#X connect 2 0 1 1;
#X connect 3 0 2 0;
#X connect 5 0 7 0;
#X connect 6 0 3 0;
#X connect 7 0 1 0;
#X connect 7 1 2 0;
