#N canvas 43 101 1170 593 10;
#X obj 381 89 hradio 35 1 0 8 empty empty empty -15 10 0 4 -262144
-262144 -262144 4;
#X obj 381 143 hradio 35 1 0 8 empty empty symbol -15 10 0 4 -262144
-166441 -262144 4;
#X obj 381 197 hradio 35 1 0 8 empty empty symbol -15 10 0 4 -262144
-262144 -262144 4;
#X text 384 72 OFF WHIT HALO REED SERP WIND GONG RAYS;
#X text 384 126 FlUT FLOU CHOR CHR2 WHST HUM HUM2 BACK;
#X text 384 180 SIRN SIR2 SALT GRND KETL STAT;
#X obj 49 44 < 8;
#X obj 49 166 > 15;
#X obj 49 98 expr (($f1>7)&($f1<15));
#X msg 49 180 color 0 \$1 0;
#X msg 49 126 color 0 \$1 0;
#X msg 49 72 color 0 \$1 0;
#X floatatom 49 12 5 0 0 0 - - -, f 5;
#X msg 249 72 set \$1;
#X obj 249 26 % 8;
#X msg 249 126 set \$1;
#X msg 249 180 set \$1;
#X obj 793 477 Presetter;
#X obj 793 178 + 8;
#X obj 793 232 + 16;
#X obj 381 280 hradio 35 1 0 8 empty empty empty -15 10 0 4 -262144
-262144 -262144 5;
#X obj 381 333 hradio 35 1 0 8 empty empty symbol -15 10 0 4 -262144
-262144 -262144 5;
#X obj 381 386 hradio 35 1 0 8 empty empty symbol -15 10 0 4 -262144
-262144 -262144 5;
#X text 384 264 2WHT 2HAL 2REE 2SRP 2WND 2CHD 2STC 2SLT;
#X text 384 317 rWHT rHAL rREE rWND rCHD rSTC rSLT ____;
#X text 384 370 sWHT sHUM sHAL sWND sCHD sSLT;
#X obj 49 235 < 8;
#X obj 49 341 > 15;
#X obj 49 295 expr (($f1>7)&($f1<15));
#X msg 49 369 color 0 \$1 0;
#X msg 49 316 color 0 \$1 0;
#X msg 49 263 color 0 \$1 0;
#X msg 249 296 set \$1;
#X msg 249 316 set \$1;
#X msg 249 369 set \$1;
#X obj 853 368 + 8;
#X obj 853 421 + 16;
#X floatatom 49 213 5 0 0 0 - - -, f 5;
#X obj 249 227 % 8;
#X floatatom 793 -2 5 0 0 0 - - -, f 5;
#X floatatom 853 199 5 0 0 0 - - -, f 5;
#X msg 667 72 color 0 0 0;
#X msg 667 346 color 0 0 0;
#X connect 0 0 39 0;
#X connect 1 0 18 0;
#X connect 2 0 19 0;
#X connect 6 0 11 0;
#X connect 7 0 9 0;
#X connect 8 0 10 0;
#X connect 9 0 2 0;
#X connect 10 0 1 0;
#X connect 11 0 0 0;
#X connect 12 0 6 0;
#X connect 12 0 8 0;
#X connect 12 0 7 0;
#X connect 12 0 14 0;
#X connect 13 0 0 0;
#X connect 14 0 13 0;
#X connect 14 0 15 0;
#X connect 14 0 16 0;
#X connect 15 0 1 0;
#X connect 16 0 2 0;
#X connect 18 0 39 0;
#X connect 19 0 39 0;
#X connect 20 0 40 0;
#X connect 21 0 35 0;
#X connect 22 0 36 0;
#X connect 26 0 31 0;
#X connect 27 0 29 0;
#X connect 28 0 30 0;
#X connect 29 0 22 0;
#X connect 30 0 21 0;
#X connect 31 0 20 0;
#X connect 32 0 20 0;
#X connect 33 0 21 0;
#X connect 34 0 22 0;
#X connect 35 0 40 0;
#X connect 36 0 40 0;
#X connect 37 0 38 0;
#X connect 37 0 26 0;
#X connect 37 0 28 0;
#X connect 37 0 27 0;
#X connect 38 0 32 0;
#X connect 38 0 33 0;
#X connect 38 0 34 0;
#X connect 39 0 17 0;
#X connect 39 0 12 0;
#X connect 39 0 42 0;
#X connect 40 0 17 1;
#X connect 40 0 37 0;
#X connect 40 0 41 0;
#X connect 41 0 0 0;
#X connect 41 0 1 0;
#X connect 41 0 2 0;
#X connect 42 0 20 0;
#X connect 42 0 21 0;
#X connect 42 0 22 0;
#X coords 0 -1 1 1 280 351 2 381 70;
