#N canvas 324 213 1434 730 10;
#X obj 49 43 < 8;
#X obj 49 155 > 15;
#X obj 49 97 expr (($f1>7)&($f1<15));
#X msg 49 179 color 0 \$1 0;
#X msg 49 125 color 0 \$1 0;
#X msg 49 71 color 0 \$1 0;
#X floatatom 24 6 5 0 0 0 - - -, f 5;
#X msg 249 71 set \$1;
#X obj 249 26 % 8;
#X msg 249 125 set \$1;
#X msg 249 179 set \$1;
#X obj 906 555 Presetter;
#X obj 741 159 + 8;
#X obj 720 221 + 16;
#X obj 49 235 < 8;
#X obj 49 408 > 15;
#X obj 49 363 expr (($f1>7)&($f1<15));
#X msg 49 436 color 0 \$1 0;
#X msg 49 383 color 0 \$1 0;
#X msg 49 330 color 0 \$1 0;
#X msg 249 330 set \$1;
#X msg 249 383 set \$1;
#X msg 249 436 set \$1;
#X obj 690 377 + 8;
#X obj 715 445 + 16;
#X floatatom 15 209 5 0 0 0 - - -, f 5;
#X obj 249 227 % 8;
#X floatatom 555 11 5 0 0 0 - - -, f 5;
#X floatatom 467 657 5 0 0 0 - - -, f 5;
#X obj 892 6 r to_global_presets;
#X obj 382 71 cnv 15 288 440 empty empty empty 20 12 0 14 -233017 -66577
0;
#X obj 385 89 hradio 35 1 0 8 empty empty empty -15 10 0 4 -262144
-262144 -262144 6;
#X obj 385 143 hradio 35 1 0 8 empty empty empty -15 10 0 4 -262144
-262144 -262144 6;
#X obj 385 197 hradio 35 1 0 8 empty empty empty -15 10 0 4 -262144
-262144 -262144 6;
#X obj 385 348 hradio 35 1 0 8 empty empty empty -15 10 0 4 -262144
-262144 -262144 6;
#X obj 385 401 hradio 35 1 0 8 empty empty empty -15 10 0 4 -262144
-262144 -262144 6;
#X obj 385 454 hradio 35 1 0 8 empty empty empty -15 10 0 4 -262144
-166441 -262144 6;
#X msg 692 48 color 0 0 0;
#X msg 697 330 color 0 0 0;
#X obj 1150 348 r to_secondary_globals;
#X text 385 127 CHORD. STAT SIREN. HUM. HUM2. TRN1. TRN2 TRN3;
#X text 384 72 OFF.. WHIT. WIND. WHIST GRIND PAIR DC/SG. ORGY;
#X obj 463 521 s trans_time_pow;
#X obj 591 531 s trans_time_add;
#X obj 527 563 s trans_time_mult;
#X obj 392 575 s trans_time_exp;
#X obj 392 546 s trans_presets_exp;
#X obj 392 521 min 27;
#X obj 392 254 nbx 2 25 -1e+37 1e+37 0 0 empty empty empty 0 -8 0 22
-262144 -1 -1 4 256;
#X obj 392 300 nbx 2 25 -1e+37 1e+37 0 0 empty empty empty 0 -8 0 22
-262144 -1 -1 10 256;
#X obj 527 276 nbx 2 25 -1e+37 1e+37 0 0 empty empty empty 0 -8 0 22
-262144 -1 -1 2 256;
#X obj 463 276 nbx 2 25 -1e+37 1e+37 0 0 empty empty empty 0 -8 0 22
-262144 -1 -1 3 256;
#X obj 591 276 nbx 3 25 -1e+37 1e+37 0 0 empty empty empty 0 -8 0 22
-262144 -1 -1 10 256;
#X text 538 259 MULT;
#X text 469 259 POWER;
#X text 390 283 TIME EXP;
#X obj 1017 282 r to_trans_time_exp;
#X obj 1017 236 r to_trans_presets_exp;
#X obj 1017 258 r to_trans_power;
#X obj 1148 258 r to_trans_mult;
#X obj 1273 258 r to_trans_add;
#X text 607 259 ADD;
#X text 391 332 OFF. WHITE HALO. REED. SERP. WIND. GONG RAYS;
#X text 386 385 FLUTE FLOUT CHOR CHOR2 WHIST. HUM. HUM2. BACK;
#X obj 103 229 loadbang;
#X msg 103 282 8;
#X msg 103 258 2;
#X msg 146 258 60;
#X msg 892 35 \$1 \$1;
#X obj 786 70 route 0 1 2 3 4 5 6 7;
#X obj 857 330 route 0 1 2 3 4 5 6 7;
#X msg 1150 382 \$1 \$1;
#X obj 992 78 - 8;
#X msg 992 107 \$1 \$1;
#X obj 786 125 route 0 1 2 3 4 5 6 7;
#X obj 786 179 route 0 1 2 3 4 5 6 7;
#X msg 992 161 \$1 \$1;
#X obj 992 132 - 16;
#X obj 1072 318 - 8;
#X msg 1072 347 \$1 \$1;
#X msg 1072 401 \$1 \$1;
#X obj 1072 372 - 16;
#X obj 857 383 route 0 1 2 3 4 5 6 7;
#X obj 857 435 route 0 1 2 3 4 5 6 7;
#X text 389 237 TR PR EXP;
#X text 394 181 1 . . 2 . . 3 . . 4 . . 5 . . 6 . . 7 . . 8;
#X text 385 439 SIREN SIRN2 SALT GRIND KETTL STATC GLISS REXP;
#X connect 0 0 5 0;
#X connect 1 0 3 0;
#X connect 2 0 4 0;
#X connect 3 0 33 0;
#X connect 4 0 32 0;
#X connect 5 0 31 0;
#X connect 6 0 0 0;
#X connect 6 0 2 0;
#X connect 6 0 1 0;
#X connect 6 0 8 0;
#X connect 7 0 31 0;
#X connect 8 0 7 0;
#X connect 8 0 9 0;
#X connect 8 0 10 0;
#X connect 9 0 32 0;
#X connect 10 0 33 0;
#X connect 12 0 27 0;
#X connect 13 0 27 0;
#X connect 14 0 19 0;
#X connect 15 0 17 0;
#X connect 16 0 18 0;
#X connect 17 0 36 0;
#X connect 18 0 35 0;
#X connect 19 0 34 0;
#X connect 20 0 34 0;
#X connect 21 0 35 0;
#X connect 22 0 36 0;
#X connect 23 0 28 0;
#X connect 24 0 28 0;
#X connect 25 0 26 0;
#X connect 25 0 14 0;
#X connect 25 0 16 0;
#X connect 25 0 15 0;
#X connect 26 0 20 0;
#X connect 26 0 21 0;
#X connect 26 0 22 0;
#X connect 27 0 6 0;
#X connect 27 0 38 0;
#X connect 27 0 11 0;
#X connect 28 0 25 0;
#X connect 28 0 37 0;
#X connect 28 0 11 1;
#X connect 29 0 68 0;
#X connect 29 0 72 0;
#X connect 29 0 77 0;
#X connect 31 0 27 0;
#X connect 32 0 12 0;
#X connect 33 0 13 0;
#X connect 34 0 28 0;
#X connect 35 0 23 0;
#X connect 36 0 24 0;
#X connect 37 0 31 0;
#X connect 37 0 33 0;
#X connect 37 0 32 0;
#X connect 38 0 34 0;
#X connect 38 0 35 0;
#X connect 38 0 36 0;
#X connect 39 0 71 0;
#X connect 39 0 78 0;
#X connect 39 0 81 0;
#X connect 47 0 46 0;
#X connect 48 0 47 0;
#X connect 49 0 45 0;
#X connect 50 0 44 0;
#X connect 51 0 42 0;
#X connect 52 0 43 0;
#X connect 56 0 49 0;
#X connect 57 0 48 0;
#X connect 58 0 51 0;
#X connect 59 0 50 0;
#X connect 60 0 52 0;
#X connect 64 0 65 0;
#X connect 64 0 66 0;
#X connect 64 0 67 0;
#X connect 65 0 48 0;
#X connect 65 0 49 0;
#X connect 66 0 51 0;
#X connect 66 0 50 0;
#X connect 67 0 52 0;
#X connect 68 0 69 0;
#X connect 69 0 31 0;
#X connect 69 1 31 0;
#X connect 69 2 31 0;
#X connect 69 3 31 0;
#X connect 69 4 31 0;
#X connect 69 5 31 0;
#X connect 69 6 31 0;
#X connect 69 7 31 0;
#X connect 70 0 34 0;
#X connect 70 1 34 0;
#X connect 70 2 34 0;
#X connect 70 3 34 0;
#X connect 70 4 34 0;
#X connect 70 5 34 0;
#X connect 70 6 34 0;
#X connect 70 7 34 0;
#X connect 71 0 70 0;
#X connect 72 0 73 0;
#X connect 73 0 74 0;
#X connect 74 0 32 0;
#X connect 74 1 32 0;
#X connect 74 2 32 0;
#X connect 74 3 32 0;
#X connect 74 4 32 0;
#X connect 74 5 32 0;
#X connect 74 6 32 0;
#X connect 74 7 32 0;
#X connect 75 0 33 0;
#X connect 75 1 33 0;
#X connect 75 2 33 0;
#X connect 75 3 33 0;
#X connect 75 4 33 0;
#X connect 75 5 33 0;
#X connect 75 6 33 0;
#X connect 75 7 33 0;
#X connect 76 0 75 0;
#X connect 77 0 76 0;
#X connect 78 0 79 0;
#X connect 79 0 82 0;
#X connect 80 0 83 0;
#X connect 81 0 80 0;
#X connect 82 0 35 0;
#X connect 82 1 35 0;
#X connect 82 2 35 0;
#X connect 82 3 35 0;
#X connect 82 4 35 0;
#X connect 82 5 35 0;
#X connect 82 6 35 0;
#X connect 82 7 35 0;
#X connect 83 0 36 0;
#X connect 83 1 36 0;
#X connect 83 2 36 0;
#X connect 83 3 36 0;
#X connect 83 4 36 0;
#X connect 83 5 36 0;
#X connect 83 6 36 0;
#X connect 83 7 36 0;
#X coords 0 -1 1 1 290 442 2 381 70;
