#N canvas 67 87 1853 993 10;
#X obj 229 173 < 8;
#X obj 229 285 > 15;
#X msg 229 309 color 0 \$1 0;
#X msg 229 255 color 0 \$1 0;
#X msg 229 201 color 0 \$1 0;
#X floatatom 229 136 5 0 0 0 - - -, f 5;
#X msg 329 201 set \$1;
#X obj 329 153 % 8;
#X msg 329 255 set \$1;
#X msg 329 309 set \$1;
#X obj 1232 576 Presetter;
#X obj 392 101 + 8;
#X obj 1276 362 + 16;
#X obj 5 118 < 8;
#X obj 5 281 > 15;
#X msg 5 309 color 0 \$1 0;
#X msg 5 255 color 0 \$1 0;
#X msg 5 201 color 0 \$1 0;
#X msg 155 201 set \$1;
#X msg 155 255 set \$1;
#X msg 155 309 set \$1;
#X obj 922 530 + 8;
#X obj 1325 362 + 16;
#X floatatom 5 93 5 0 0 0 - - -, f 5;
#X obj 155 110 % 8;
#X floatatom 1276 119 5 0 0 0 - - -, f 5;
#X floatatom 1232 548 5 0 0 0 - - -, f 5;
#X obj 1412 93 r to_global_presets;
#X obj 382 201 cnv 15 830 248 empty empty empty 20 12 0 14 -233017
-66577 0;
#X obj 392 219 hradio 35 1 0 8 empty empty empty -15 10 0 4 -262144
-262144 -262144 5;
#X obj 392 273 hradio 35 1 0 8 empty empty empty -15 10 0 4 -262144
-166441 -262144 5;
#X obj 392 327 hradio 35 1 0 8 empty empty empty -15 10 0 4 -262144
-262144 -262144 5;
#X obj 922 219 hradio 35 1 0 8 empty empty empty -15 10 0 4 -262144
-262144 -262144 0;
#X obj 922 273 hradio 35 1 0 8 empty empty empty -15 10 0 4 -262144
-262144 -262144 0;
#X obj 922 327 hradio 35 1 0 8 empty empty empty -15 10 0 4 -262144
-262144 -262144 0;
#X msg 392 565 color 0 0 0;
#X msg 922 565 color 0 0 0;
#X obj 1670 224 r to_secondary_globals;
#X msg 1412 183 \$1 \$1;
#X obj 1266 201 route 0 1 2 3 4 5 6 7;
#X obj 1477 200 route 0 1 2 3 4 5 6 7;
#X msg 1670 258 \$1 \$1;
#X obj 1412 208 - 8;
#X msg 1412 237 \$1 \$1;
#X obj 1266 255 route 0 1 2 3 4 5 6 7;
#X obj 1266 309 route 0 1 2 3 4 5 6 7;
#X msg 1412 291 \$1 \$1;
#X obj 1412 262 - 16;
#X obj 1622 188 - 8;
#X msg 1622 217 \$1 \$1;
#X msg 1622 271 \$1 \$1;
#X obj 1622 242 - 16;
#X obj 1459 255 route 0 1 2 3 4 5 6 7;
#X obj 1459 309 route 0 1 2 3 4 5 6 7;
#X obj 402 380 Meta-Controls;
#X obj 972 373 MiscSigContainer;
#X msg 1670 170 15;
#X floatatom 163 135 5 0 0 0 - - -, f 5;
#X obj 5 228 expr (($f1>7)&($f1<=15));
#X obj 229 227 expr (($f1>7)&($f1<=15));
#X text 401 311 TON . 3RD .OCT. DC. . GLISS TRAN1 TRAN2 TRAN3;
#X text 392 257 STAT. SIREN ORGY HUM. HUM2. GRIND GRND2 C#MIN;
#X text 923 257 FLUTE FLOUT CHOR ...... WHIST. HUM. HUM2. BACK;
#X text 928 203 OFF. ..... HALO. REED. SERP. WIND. GONG RAYS;
#X text 923 311 SIREN SIRN2 SALT GRIND KETTL STATC NOISE .....;
#X obj 1311 576 Preset-Button-Numbering;
#X text 402 203 OFF..WHIT. WIND DMAJ DCSLF WHIST AMIN;
#X obj 682 220 Transitioner-Control-Box;
#X connect 0 0 4 0;
#X connect 1 0 2 0;
#X connect 2 0 31 0;
#X connect 3 0 30 0;
#X connect 4 0 29 0;
#X connect 5 0 0 0;
#X connect 5 0 1 0;
#X connect 5 0 7 0;
#X connect 5 0 59 0;
#X connect 6 0 29 0;
#X connect 7 0 6 0;
#X connect 7 0 8 0;
#X connect 7 0 9 0;
#X connect 8 0 30 0;
#X connect 9 0 31 0;
#X connect 11 0 25 0;
#X connect 12 0 25 0;
#X connect 13 0 17 0;
#X connect 14 0 15 0;
#X connect 15 0 34 0;
#X connect 16 0 33 0;
#X connect 17 0 32 0;
#X connect 18 0 32 0;
#X connect 19 0 33 0;
#X connect 20 0 34 0;
#X connect 21 0 26 0;
#X connect 22 0 26 0;
#X connect 23 0 24 0;
#X connect 23 0 13 0;
#X connect 23 0 14 0;
#X connect 23 0 58 0;
#X connect 24 0 18 0;
#X connect 24 0 19 0;
#X connect 24 0 20 0;
#X connect 24 0 57 0;
#X connect 25 0 5 0;
#X connect 25 0 36 0;
#X connect 26 0 23 0;
#X connect 26 0 35 0;
#X connect 26 0 10 0;
#X connect 27 0 38 0;
#X connect 27 0 42 0;
#X connect 27 0 47 0;
#X connect 29 0 25 0;
#X connect 30 0 11 0;
#X connect 31 0 12 0;
#X connect 32 0 26 0;
#X connect 33 0 21 0;
#X connect 34 0 22 0;
#X connect 35 0 29 0;
#X connect 35 0 31 0;
#X connect 35 0 30 0;
#X connect 36 0 32 0;
#X connect 36 0 33 0;
#X connect 36 0 34 0;
#X connect 37 0 41 0;
#X connect 37 0 48 0;
#X connect 37 0 51 0;
#X connect 38 0 39 0;
#X connect 39 0 29 0;
#X connect 39 1 29 0;
#X connect 39 2 29 0;
#X connect 39 3 29 0;
#X connect 39 4 29 0;
#X connect 39 5 29 0;
#X connect 39 6 29 0;
#X connect 39 7 29 0;
#X connect 40 0 32 0;
#X connect 40 1 32 0;
#X connect 40 2 32 0;
#X connect 40 3 32 0;
#X connect 40 4 32 0;
#X connect 40 5 32 0;
#X connect 40 6 32 0;
#X connect 40 7 32 0;
#X connect 41 0 40 0;
#X connect 42 0 43 0;
#X connect 43 0 44 0;
#X connect 44 0 30 0;
#X connect 44 1 30 0;
#X connect 44 2 30 0;
#X connect 44 3 30 0;
#X connect 44 4 30 0;
#X connect 44 5 30 0;
#X connect 44 6 30 0;
#X connect 44 7 30 0;
#X connect 45 0 31 0;
#X connect 45 1 31 0;
#X connect 45 2 31 0;
#X connect 45 3 31 0;
#X connect 45 4 31 0;
#X connect 45 5 31 0;
#X connect 45 6 31 0;
#X connect 45 7 31 0;
#X connect 46 0 45 0;
#X connect 47 0 46 0;
#X connect 48 0 49 0;
#X connect 49 0 52 0;
#X connect 50 0 53 0;
#X connect 51 0 50 0;
#X connect 52 0 33 0;
#X connect 52 1 33 0;
#X connect 52 2 33 0;
#X connect 52 3 33 0;
#X connect 52 4 33 0;
#X connect 52 5 33 0;
#X connect 52 6 33 0;
#X connect 52 7 33 0;
#X connect 53 0 34 0;
#X connect 53 1 34 0;
#X connect 53 2 34 0;
#X connect 53 3 34 0;
#X connect 53 4 34 0;
#X connect 53 5 34 0;
#X connect 53 6 34 0;
#X connect 53 7 34 0;
#X connect 56 0 41 0;
#X connect 56 0 48 0;
#X connect 58 0 16 0;
#X connect 59 0 3 0;
#X coords 0 -1 1 1 832 250 2 381 200;
