#N canvas 120 179 1500 555 10;
#X obj 49 44 < 8;
#X obj 49 156 > 15;
#X obj 49 98 expr (($f1>7)&($f1<15));
#X msg 49 180 color 0 \$1 0;
#X msg 49 126 color 0 \$1 0;
#X msg 49 72 color 0 \$1 0;
#X floatatom 24 6 5 0 0 0 - - -, f 5;
#X msg 249 72 set \$1;
#X obj 249 26 % 8;
#X msg 249 126 set \$1;
#X msg 249 180 set \$1;
#X obj 892 337 Presetter;
#X obj 793 178 + 8;
#X obj 793 232 + 16;
#X obj 49 235 < 8;
#X obj 49 341 > 15;
#X obj 49 295 expr (($f1>7)&($f1<15));
#X msg 49 369 color 0 \$1 0;
#X msg 49 316 color 0 \$1 0;
#X msg 49 263 color 0 \$1 0;
#X msg 249 296 set \$1;
#X msg 249 316 set \$1;
#X msg 249 369 set \$1;
#X obj 905 123 + 8;
#X obj 959 127 + 16;
#X floatatom 15 209 5 0 0 0 - - -, f 5;
#X obj 249 227 % 8;
#X floatatom 793 -2 5 0 0 0 - - -, f 5;
#X floatatom 943 224 5 0 0 0 - - -, f 5;
#X obj 855 19 r to_global_presets;
#X obj 382 71 cnv 15 288 388 empty empty empty 20 12 0 14 -233017 -66577
0;
#X obj 385 89 hradio 35 1 0 8 empty empty empty -15 10 0 4 -262144
-166441 -262144 0;
#X obj 385 143 hradio 35 1 0 8 empty empty empty -15 10 0 4 -262144
-262144 -262144 0;
#X obj 385 197 hradio 35 1 0 8 empty empty empty -15 10 0 4 -262144
-262144 -262144 0;
#X obj 385 280 hradio 35 1 0 8 empty empty empty -15 10 0 4 -262144
-262144 -262144 1;
#X obj 385 333 hradio 35 1 0 8 empty empty empty -15 10 0 4 -262144
-262144 -262144 1;
#X obj 385 386 hradio 35 1 0 8 empty empty empty -15 10 0 4 -262144
-262144 -262144 1;
#X text 388 264 2WHT 2HAL 2REE 2SRP 2WND 2CHD 2STC 2SLT;
#X text 388 317 rWHT rHAL rREE rWND rCHD rSTC rSLT ____;
#X text 388 370 sWHT sHUM sHAL sWND sCHD sSLT;
#X msg 692 48 color 0 0 0;
#X msg 697 262 color 0 0 0;
#X obj 1026 203 r to_secondary_globals;
#X text 385 127 CHORD. STAT SIREN. HUM. HUM2. TRN1. TRN2 TRN3;
#X text 384 72 OFF.. WHIT. WIND. WHIST GRIND PAIR DC/SG. ORGY;
#X connect 0 0 5 0;
#X connect 1 0 3 0;
#X connect 2 0 4 0;
#X connect 3 0 33 0;
#X connect 4 0 32 0;
#X connect 5 0 31 0;
#X connect 6 0 0 0;
#X connect 6 0 2 0;
#X connect 6 0 1 0;
#X connect 6 0 8 0;
#X connect 7 0 31 0;
#X connect 8 0 7 0;
#X connect 8 0 9 0;
#X connect 8 0 10 0;
#X connect 9 0 32 0;
#X connect 10 0 33 0;
#X connect 12 0 27 0;
#X connect 13 0 27 0;
#X connect 14 0 19 0;
#X connect 15 0 17 0;
#X connect 16 0 18 0;
#X connect 17 0 36 0;
#X connect 18 0 35 0;
#X connect 19 0 34 0;
#X connect 20 0 34 0;
#X connect 21 0 35 0;
#X connect 22 0 36 0;
#X connect 23 0 28 0;
#X connect 24 0 28 0;
#X connect 25 0 26 0;
#X connect 25 0 14 0;
#X connect 25 0 16 0;
#X connect 25 0 15 0;
#X connect 26 0 20 0;
#X connect 26 0 21 0;
#X connect 26 0 22 0;
#X connect 27 0 11 0;
#X connect 27 0 6 0;
#X connect 27 0 41 0;
#X connect 28 0 25 0;
#X connect 28 0 40 0;
#X connect 28 0 11 1;
#X connect 29 0 11 0;
#X connect 29 0 27 0;
#X connect 31 0 27 0;
#X connect 32 0 12 0;
#X connect 33 0 13 0;
#X connect 34 0 28 0;
#X connect 35 0 23 0;
#X connect 36 0 24 0;
#X connect 40 0 31 0;
#X connect 40 0 33 0;
#X connect 40 0 32 0;
#X connect 41 0 34 0;
#X connect 41 0 35 0;
#X connect 41 0 36 0;
#X connect 42 0 28 0;
#X coords 0 -1 1 1 290 390 2 381 70;
