#N canvas 67 231 1732 727 10;
#X text 1530 443 2 ALL SIG \; 3 ALL SELF;
#X text 1529 496 6 ONE SELF \; 7 PAIR;
#X text 1529 522 8 PAIR & NOISE \; 9 PAIR & SIG \;;
#X text 1522 548 10 PAIR & SELF \; 11 DAISY CHAIN;
#X text 1529 470 4 ONE NOISE \; 5 ONE SIG;
#X text 1530 416 0 ALL OFF \; 1 ALL NOISE;
#X text 1522 574 12 DAISY CHAIN REVERSE;
#X text 1522 642 17 ORGY;
#X text 1522 588 13 DC & 0.1 NOISE \; 14 DC & 0.5 SIG;
#X text 1522 615 15 DC & SELF \; 16 DC & 0.5 SELF;
#X text 1520 381 FOR REFERENCE: \; SOURCE PRESETS:;
#X obj 968 64 inlet;
#X obj 180 82 sel 0 1 2 3 4 8 9 10 11 12, f 38;
#X text 168 8 Question: do I need to use a counter \; and multiplex
these \, or are five settings enough? \; Do five settings actually
center the piece around \; those ratios nicely? \;;
#X msg 247 478 3 54 55 53 5 5 5 1 1 1 1;
#X msg 180 723 0 0 0 0 0 0 0 0 0 0 0;
#X msg 292 420 2 400 600 500 244 359 279 1 1 1 1;
#X msg 314 391 11 400 401 400 100 7 100 1 1 1 1;
#X msg 337 362 11 400 80 400 40 70 40 1 1 1 1;
#X msg 382 304 16 199 99 604 20 99 40 1 1 1 1 0 500;
#X msg 359 333 10 200 400 601 100 200 100 1 0.5 1 1 0 500;
#X text 319 724 0 ALL OFF;
#X text 341 694 1 WHITE;
#X text 399 636 2 WIND;
#X text 405 479 3 WHISTLE;
#X text 472 449 4 GRIND;
#X text 503 420 5 CHORD;
#X text 520 392 6 STATIC;
#X text 531 362 7 SIREN;
#X text 625 334 8 HUM;
#X text 612 304 9 HUM 2;
#X msg 1355 261 \; to_source_presets \$1;
#X msg 1388 219 \; ugen1-external-vol \$1;
#X obj 1355 190 unpack;
#X text 1424 125 EXTRA PRESETS: - DC reverse \; - Pair with Noise \,
vol. 0.4 \; - DC with 0.5 SIG (Chord goes there...) \; - ORGY (siren
turns to screech) \; \;;
#X obj 1355 82 sel 5 6 7;
#X msg 664 768 \; elem-exp-adder-0 \$1 \; elem-exp-adder-1 \$2 \; elem-exp-adder-2
\$3 \; elem-exp-adder-3 \$4 \; elem-exp-adder-4 \$5 \; elem-exp-adder-5
\$6 \;;
#X obj 224 607 t b b b;
#X msg 472 625 800 800 800 800 800 800;
#X obj 202 665 t b b b;
#X msg 473 683 800 999 800 999 800 999;
#X msg 54 759 \; to_source_presets \$1 \; fader-0-bypass \$2 \; fader-1-bypass
\$3 \; fader-2-bypass \$4 \; fader-3-bypass \$5 \; fader-4-bypass \$6
\; fader-5-bypass \$7 \; ugen0-external-vol \$8 \; ugen1-external-vol
\$9 \; ugen2-external-vol \$10 \; stereo-mono \$11 \; stop_transitions
bang \; stop_glisses bang;
#X floatatom 839 129 5 0 0 0 - - -, f 5;
#X obj 968 450 sel 16 17 18 19 20 21 22 23;
#X obj 1259 487 s to_gliss_presets;
#X msg 1257 419 0;
#X obj 1226 288 f;
#X obj 1303 313 + 1;
#X msg 1278 395 4;
#X text 979 397 BOTTOM ROW ELEM EXP TOPS;
#X msg 968 671 399 400 401 400 400 400;
#X msg 1007 613 200 400 600 200 400 600;
#X msg 987 642 400 80 401 400 80 401;
#X text 697 585 Main preset's ADD is kept... these __> \; change the
MULT only.;
#X msg 275 450 11 594 599 601 60 60 60 1 0 1 1;
#X obj 1241 228 r stop_glisses;
#X msg 1241 257 0;
#X msg 465 781 \; elem-exp-multiplier-0 \$1 \; elem-exp-multiplier-1
\$2 \; elem-exp-multiplier-2 \$3 \; elem-exp-multiplier-3 \$4 \; elem-exp-multiplier-4
\$5 \; elem-exp-multiplier-5 \$6 \; pulse_base bang;
#X msg 664 683 9 7 5 0 0 0;
#X msg 202 694 1 9 7 5 0 0 0 1 1 1 1;
#X msg 664 625 5 6 7 3 3 3;
#X msg 1301 148 1 1;
#X msg 1390 103 17 1;
#X msg 1233 720 \; to_source_presets \$1;
#X msg 1087 497 11;
#X obj 1067 529 s rhythmvolume-receive;
#X msg 1342 130 8 1;
#X obj 1264 347 % 2;
#X obj 1256 369 sel 0 1;
#X text 1317 371 comment;
#X msg 1027 584 8 594 20 601 50 10 50 1 0.6 1 1 0;
#X msg 224 636 2 800 400 800 3 3 3 1 1 1 1;
#X text 1237 584 THIS IS GRIND 2!;
#X msg 577 450 594 599 601 500 500 600;
#X msg 777 514 594 20 601 600 200 500;
#X msg 526 494 \; elem-exp-multiplier-0 \$1 \; elem-exp-multiplier-1
\$2 \; elem-exp-multiplier-2 \$3 \; elem-exp-multiplier-3 \$4 \; elem-exp-multiplier-4
\$5 \; elem-exp-multiplier-5 \$6 \;;
#X connect 11 0 12 0;
#X connect 11 0 35 0;
#X connect 11 0 42 0;
#X connect 11 0 43 0;
#X connect 12 0 15 0;
#X connect 12 1 39 0;
#X connect 12 2 37 0;
#X connect 12 3 14 0;
#X connect 12 4 54 0;
#X connect 12 5 16 0;
#X connect 12 6 17 0;
#X connect 12 7 18 0;
#X connect 12 8 20 0;
#X connect 12 9 19 0;
#X connect 14 0 41 0;
#X connect 15 0 41 0;
#X connect 16 0 41 0;
#X connect 17 0 41 0;
#X connect 18 0 41 0;
#X connect 19 0 41 0;
#X connect 20 0 41 0;
#X connect 33 0 31 0;
#X connect 33 1 32 0;
#X connect 35 0 61 0;
#X connect 35 1 66 0;
#X connect 35 2 62 0;
#X connect 37 0 71 0;
#X connect 37 1 38 0;
#X connect 37 2 60 0;
#X connect 38 0 57 0;
#X connect 39 0 59 0;
#X connect 39 1 40 0;
#X connect 39 2 58 0;
#X connect 40 0 57 0;
#X connect 43 0 50 0;
#X connect 43 1 52 0;
#X connect 43 2 51 0;
#X connect 43 3 70 0;
#X connect 43 5 65 0;
#X connect 43 6 64 0;
#X connect 43 7 46 0;
#X connect 45 0 44 0;
#X connect 46 0 47 0;
#X connect 47 0 46 1;
#X connect 47 0 67 0;
#X connect 48 0 44 0;
#X connect 50 0 57 0;
#X connect 51 0 57 0;
#X connect 52 0 57 0;
#X connect 54 0 41 0;
#X connect 54 0 73 0;
#X connect 55 0 56 0;
#X connect 56 0 46 1;
#X connect 58 0 36 0;
#X connect 59 0 41 0;
#X connect 60 0 36 0;
#X connect 61 0 33 0;
#X connect 62 0 33 0;
#X connect 64 0 63 0;
#X connect 66 0 33 0;
#X connect 67 0 68 0;
#X connect 68 0 45 0;
#X connect 68 1 48 0;
#X connect 70 0 41 0;
#X connect 70 0 74 0;
#X connect 71 0 41 0;
#X connect 73 0 75 0;
#X connect 74 0 75 0;
