#N canvas 67 140 1500 791 10;
#X obj 49 44 < 8;
#X obj 49 166 > 15;
#X obj 49 98 expr (($f1>7)&($f1<15));
#X msg 49 180 color 0 \$1 0;
#X msg 49 126 color 0 \$1 0;
#X msg 49 72 color 0 \$1 0;
#X floatatom 24 6 5 0 0 0 - - -, f 5;
#X msg 249 72 set \$1;
#X obj 249 26 % 8;
#X msg 249 126 set \$1;
#X msg 249 180 set \$1;
#X obj 793 557 Presetter;
#X obj 793 178 + 8;
#X obj 793 232 + 16;
#X obj 49 235 < 8;
#X obj 49 341 > 15;
#X obj 49 295 expr (($f1>7)&($f1<15));
#X msg 49 369 color 0 \$1 0;
#X msg 49 316 color 0 \$1 0;
#X msg 49 263 color 0 \$1 0;
#X msg 249 296 set \$1;
#X msg 249 316 set \$1;
#X msg 249 369 set \$1;
#X obj 905 123 + 8;
#X obj 959 127 + 16;
#X floatatom 15 209 5 0 0 0 - - -, f 5;
#X obj 249 227 % 8;
#X floatatom 793 -2 5 0 0 0 - - -, f 5;
#X floatatom 913 195 5 0 0 0 - - -, f 5;
#X obj 561 631 s transexp;
#X obj 412 471 s transnumtodo;
#X obj 853 514 t f b;
#X floatatom 561 611 5 0 0 0 - - -, f 5;
#X msg 561 583 set \$1;
#X msg 413 599 0;
#X obj 381 570 t f b;
#X obj 855 19 r to_global_presets;
#X obj 941 376 loadbang;
#X msg 941 411 15;
#X msg 987 411 6;
#X obj 294 427 bng 15 250 50 0 empty empty empty 17 7 0 10 -262144
-1 -1;
#X obj 382 71 cnv 15 288 388 empty empty empty 20 12 0 14 -233017 -66577
0;
#X obj 385 89 hradio 35 1 0 8 empty empty empty -15 10 0 4 -262144
-166441 -262144 0;
#X obj 385 143 hradio 35 1 0 8 empty empty empty -15 10 0 4 -262144
-262144 -262144 0;
#X obj 385 197 hradio 35 1 0 8 empty empty empty -15 10 0 4 -262144
-262144 -262144 0;
#X text 388 72 OFF WHIT HALO REED SERP WIND GONG RAYS;
#X text 388 126 FlUT FLOU CHOR CHR2 WHST HUM HUM2 BACK;
#X text 388 180 SIRN SIR2 SALT GRND KETL STAT;
#X obj 385 280 hradio 35 1 0 8 empty empty empty -15 10 0 4 -262144
-262144 -262144 5;
#X obj 385 333 hradio 35 1 0 8 empty empty empty -15 10 0 4 -262144
-166441 -262144 5;
#X obj 385 386 hradio 35 1 0 8 empty empty empty -15 10 0 4 -262144
-262144 -262144 5;
#X text 388 264 2WHT 2HAL 2REE 2SRP 2WND 2CHD 2STC 2SLT;
#X text 388 317 rWHT rHAL rREE rWND rCHD rSTC rSLT ____;
#X text 388 370 sWHT sHUM sHAL sWND sCHD sSLT;
#X msg 697 72 color 0 0 0;
#X msg 697 346 color 0 0 0;
#X obj 412 428 nbx 3 25 -1e+37 1e+37 0 0 empty empty empty 0 -8 0 20
-262144 -1 -1 15 256;
#X obj 510 428 nbx 2 25 -1e+37 1e+37 0 0 empty empty empty 0 -8 0 20
-262144 -1 -1 6 256;
#X text 485 433 EXP;
#X text 387 432 NUM;
#X obj 385 544 t f b;
#X obj 608 428 nbx 2 25 -1e+37 1e+37 0 0 empty empty empty 0 -8 0 20
-228856 -1 -1 0 256;
#X obj 234 490 r globaltabread;
#X obj 935 265 r to_global_presets_2;
#X connect 0 0 5 0;
#X connect 1 0 3 0;
#X connect 2 0 4 0;
#X connect 3 0 44 0;
#X connect 4 0 43 0;
#X connect 5 0 42 0;
#X connect 6 0 0 0;
#X connect 6 0 2 0;
#X connect 6 0 1 0;
#X connect 6 0 8 0;
#X connect 7 0 42 0;
#X connect 8 0 7 0;
#X connect 8 0 9 0;
#X connect 8 0 10 0;
#X connect 9 0 43 0;
#X connect 10 0 44 0;
#X connect 12 0 27 0;
#X connect 13 0 27 0;
#X connect 14 0 19 0;
#X connect 15 0 17 0;
#X connect 16 0 18 0;
#X connect 17 0 50 0;
#X connect 18 0 49 0;
#X connect 19 0 48 0;
#X connect 20 0 48 0;
#X connect 21 0 49 0;
#X connect 22 0 50 0;
#X connect 23 0 28 0;
#X connect 24 0 28 0;
#X connect 25 0 26 0;
#X connect 25 0 14 0;
#X connect 25 0 16 0;
#X connect 25 0 15 0;
#X connect 26 0 20 0;
#X connect 26 0 21 0;
#X connect 26 0 22 0;
#X connect 27 0 11 0;
#X connect 27 0 6 0;
#X connect 27 0 55 0;
#X connect 28 0 25 0;
#X connect 28 0 31 0;
#X connect 28 0 54 0;
#X connect 31 0 11 1;
#X connect 31 1 32 0;
#X connect 32 0 29 0;
#X connect 33 0 32 0;
#X connect 34 0 33 0;
#X connect 35 0 23 0;
#X connect 35 1 34 0;
#X connect 36 0 6 0;
#X connect 36 0 11 0;
#X connect 37 0 38 0;
#X connect 37 0 39 0;
#X connect 38 0 56 0;
#X connect 39 0 57 0;
#X connect 40 0 56 0;
#X connect 42 0 27 0;
#X connect 43 0 12 0;
#X connect 44 0 13 0;
#X connect 48 0 28 0;
#X connect 49 0 35 0;
#X connect 49 0 40 0;
#X connect 50 0 60 0;
#X connect 50 0 40 0;
#X connect 54 0 42 0;
#X connect 54 0 43 0;
#X connect 54 0 44 0;
#X connect 55 0 48 0;
#X connect 55 0 49 0;
#X connect 55 0 50 0;
#X connect 56 0 30 0;
#X connect 57 0 33 0;
#X connect 60 0 24 0;
#X connect 60 1 57 0;
#X connect 62 0 61 0;
#X connect 63 0 31 0;
#X coords 0 -1 1 1 290 390 2 381 70;
