#N canvas 67 128 1434 555 10;
#X obj 49 44 < 8;
#X obj 49 156 > 15;
#X obj 49 98 expr (($f1>7)&($f1<15));
#X msg 49 180 color 0 \$1 0;
#X msg 49 126 color 0 \$1 0;
#X msg 49 72 color 0 \$1 0;
#X floatatom 24 6 5 0 0 0 - - -, f 5;
#X msg 249 72 set \$1;
#X obj 249 26 % 8;
#X msg 249 126 set \$1;
#X msg 249 180 set \$1;
#X obj 892 405 Presetter;
#X obj 793 178 + 8;
#X obj 793 232 + 16;
#X obj 49 235 < 8;
#X obj 49 409 > 15;
#X obj 49 363 expr (($f1>7)&($f1<15));
#X msg 49 437 color 0 \$1 0;
#X msg 49 384 color 0 \$1 0;
#X msg 49 331 color 0 \$1 0;
#X msg 249 364 set \$1;
#X msg 249 384 set \$1;
#X msg 249 437 set \$1;
#X obj 905 123 + 8;
#X obj 959 127 + 16;
#X floatatom 15 209 5 0 0 0 - - -, f 5;
#X obj 249 227 % 8;
#X floatatom 793 -2 5 0 0 0 - - -, f 5;
#X floatatom 943 224 5 0 0 0 - - -, f 5;
#X obj 855 19 r to_global_presets;
#X obj 382 71 cnv 15 288 440 empty empty empty 20 12 0 14 -233017 -66577
0;
#X obj 385 89 hradio 35 1 0 8 empty empty empty -15 10 0 4 -262144
-262144 -262144 0;
#X obj 385 143 hradio 35 1 0 8 empty empty empty -15 10 0 4 -262144
-262144 -262144 0;
#X obj 385 197 hradio 35 1 0 8 empty empty empty -15 10 0 4 -262144
-262144 -262144 0;
#X obj 385 348 hradio 35 1 0 8 empty empty empty -15 10 0 4 -262144
-166441 -262144 4;
#X obj 385 401 hradio 35 1 0 8 empty empty empty -15 10 0 4 -262144
-262144 -262144 4;
#X obj 385 454 hradio 35 1 0 8 empty empty empty -15 10 0 4 -262144
-262144 -262144 4;
#X msg 692 48 color 0 0 0;
#X msg 697 330 color 0 0 0;
#X obj 966 173 r to_secondary_globals;
#X text 385 127 CHORD. STAT SIREN. HUM. HUM2. TRN1. TRN2 TRN3;
#X text 384 72 OFF.. WHIT. WIND. WHIST GRIND PAIR DC/SG. ORGY;
#X obj 463 521 s trans_time_pow;
#X obj 591 531 s trans_time_add;
#X obj 527 563 s trans_time_mult;
#X obj 392 575 s trans_time_exp;
#X obj 392 546 s trans_presets_exp;
#X obj 392 521 min 27;
#X obj 392 254 nbx 2 25 -1e+37 1e+37 0 0 empty empty empty 0 -8 0 22
-262144 -1 -1 0 256;
#X obj 392 300 nbx 2 25 -1e+37 1e+37 0 0 empty empty empty 0 -8 0 22
-262144 -1 -1 0 256;
#X obj 527 276 nbx 2 25 -1e+37 1e+37 0 0 empty empty empty 0 -8 0 22
-262144 -1 -1 0 256;
#X obj 463 276 nbx 2 25 -1e+37 1e+37 0 0 empty empty empty 0 -8 0 22
-262144 -1 -1 0 256;
#X obj 591 276 nbx 3 25 -1e+37 1e+37 0 0 empty empty empty 0 -8 0 22
-262144 -1 -1 0 256;
#X text 538 259 MULT;
#X text 469 259 POWER;
#X text 390 283 TIME EXP;
#X obj 1017 282 r to_trans_time_exp;
#X obj 1017 236 r to_trans_presets_exp;
#X obj 1017 258 r to_trans_power;
#X obj 1148 258 r to_trans_mult;
#X obj 1273 258 r to_trans_add;
#X text 607 259 ADD;
#X text 391 332 OFF. WHITE HALO. REED. SERP. WIND. GONG RAYS;
#X text 386 385 FLUTE FLOUT CHOR CHOR2 WHIST. HUM. HUM2. BACK;
#X text 385 439 SIREN SIRN2 SALT GRIND KETTL STATC;
#X text 382 236 TRANS PRESETS EXP;
#X connect 0 0 5 0;
#X connect 1 0 3 0;
#X connect 2 0 4 0;
#X connect 3 0 33 0;
#X connect 4 0 32 0;
#X connect 5 0 31 0;
#X connect 6 0 0 0;
#X connect 6 0 2 0;
#X connect 6 0 1 0;
#X connect 6 0 8 0;
#X connect 7 0 31 0;
#X connect 8 0 7 0;
#X connect 8 0 9 0;
#X connect 8 0 10 0;
#X connect 9 0 32 0;
#X connect 10 0 33 0;
#X connect 12 0 27 0;
#X connect 13 0 27 0;
#X connect 14 0 19 0;
#X connect 15 0 17 0;
#X connect 16 0 18 0;
#X connect 17 0 36 0;
#X connect 18 0 35 0;
#X connect 19 0 34 0;
#X connect 20 0 34 0;
#X connect 21 0 35 0;
#X connect 22 0 36 0;
#X connect 23 0 28 0;
#X connect 24 0 28 0;
#X connect 25 0 26 0;
#X connect 25 0 14 0;
#X connect 25 0 16 0;
#X connect 25 0 15 0;
#X connect 26 0 20 0;
#X connect 26 0 21 0;
#X connect 26 0 22 0;
#X connect 27 0 11 0;
#X connect 27 0 6 0;
#X connect 27 0 38 0;
#X connect 28 0 25 0;
#X connect 28 0 37 0;
#X connect 28 0 11 1;
#X connect 29 0 11 0;
#X connect 29 0 27 0;
#X connect 31 0 27 0;
#X connect 32 0 12 0;
#X connect 33 0 13 0;
#X connect 34 0 28 0;
#X connect 35 0 23 0;
#X connect 36 0 24 0;
#X connect 37 0 31 0;
#X connect 37 0 33 0;
#X connect 37 0 32 0;
#X connect 38 0 34 0;
#X connect 38 0 35 0;
#X connect 38 0 36 0;
#X connect 39 0 28 0;
#X connect 47 0 46 0;
#X connect 48 0 47 0;
#X connect 49 0 45 0;
#X connect 50 0 44 0;
#X connect 51 0 42 0;
#X connect 52 0 43 0;
#X connect 56 0 49 0;
#X connect 57 0 48 0;
#X connect 58 0 51 0;
#X connect 59 0 50 0;
#X connect 60 0 52 0;
#X coords 0 -1 1 1 290 442 2 381 70;
