#N canvas 133 127 938 596 10;
#X obj 173 22 inlet;
#X msg 173 470 0 0 0 0 0;
#X msg 173 554 \; walker-leap-receive \$1 \; walker-rate-receive \$2
\; walker-preset-bypass \$3 \; gliss-length-receive \$4 \; to_gliss_presets
\$5 \;;
#X msg 219 386 \; walker-leap-receive \$1 \; walker-rate-receive \$2
\; walker-preset-bypass \$3 \;;
#X msg 219 364 20 1000 2;
#X msg 266 343 15 2000 3;
#X msg 308 307 \; rhythm-presets-receive \$1;
#X msg 312 288 4;
#X msg 359 267 5;
#X msg 406 246 6;
#X msg 452 212 \; rhythmvolume-receive bang;
#X obj 499 191 t b b;
#X obj 547 191 del 80;
#X msg 531 458 \; exp-base \$12 \; to_source_presets \$1 \; fader-0-bypass
\$2 \; fader-1-bypass \$3 \; fader-2-bypass \$4 \; fader-3-bypass \$5
\; fader-4-bypass \$6 \; fader-5-bypass \$7 \; ugen0-external-vol \$8
\; ugen1-external-vol \$9 \; ugen2-external-vol \$10 \; stereo-mono
\$11 \; elem-exp-multiplier \$13;
#X text 914 191 FLUTES;
#X msg 658 191 2 300 500 200 8 12 9 1 1 1 1 0 400;
#X msg 531 379 2 300 500 200 0 0 0 1 1 1 1 3 400;
#X msg 977 233 \; walker-preset-bypass \$3;
#X msg 976 208 0;
#X obj 545 107 t b b;
#X msg 577 351 2 10 30 20 0 0 0 1 1 1 1 3 400;
#X obj 592 107 t b b;
#X msg 173 498 30 65 3 50 2;
#X msg 173 526 30 65 1 65 4;
#X msg 248 470 0;
#X text 773 410 0 ALL OFF;
#X msg 578 409 0 0 0 0 0 0 0 0 0 0 0 0 400;
#X obj 690 97 sel 18 19;
#X msg 690 118 8;
#X obj 690 139 s rhythm-presets-receive;
#X msg 720 118 9;
#X obj 173 43 sel 0 1 2 3 4 5 6 7 8 9, f 67;
#X obj 825 328 s to-transitions;
#X msg 754 299 0;
#X msg 777 278 1;
#X msg 800 257 2;
#X msg 823 299 3;
#X msg 847 278 4;
#X msg 870 257 5;
#X msg 893 299 6;
#X msg 917 278 7;
#X obj 754 236 sel 10 11 12 13 14 15 16 17;
#X connect 0 0 31 0;
#X connect 0 0 27 0;
#X connect 0 0 41 0;
#X connect 1 0 2 0;
#X connect 1 0 24 0;
#X connect 4 0 3 0;
#X connect 5 0 3 0;
#X connect 7 0 6 0;
#X connect 8 0 6 0;
#X connect 9 0 6 0;
#X connect 11 0 12 0;
#X connect 11 1 16 0;
#X connect 11 1 18 0;
#X connect 12 0 15 0;
#X connect 15 0 13 0;
#X connect 16 0 13 0;
#X connect 18 0 17 0;
#X connect 19 0 22 0;
#X connect 19 1 20 0;
#X connect 20 0 13 0;
#X connect 21 0 23 0;
#X connect 21 1 20 0;
#X connect 22 0 2 0;
#X connect 23 0 2 0;
#X connect 24 0 6 0;
#X connect 24 0 26 0;
#X connect 26 0 13 0;
#X connect 27 0 28 0;
#X connect 27 1 30 0;
#X connect 28 0 29 0;
#X connect 30 0 29 0;
#X connect 31 0 1 0;
#X connect 31 1 4 0;
#X connect 31 2 5 0;
#X connect 31 3 7 0;
#X connect 31 4 8 0;
#X connect 31 5 9 0;
#X connect 31 6 10 0;
#X connect 31 7 11 0;
#X connect 31 8 19 0;
#X connect 31 9 21 0;
#X connect 33 0 32 0;
#X connect 34 0 32 0;
#X connect 35 0 32 0;
#X connect 36 0 32 0;
#X connect 37 0 32 0;
#X connect 38 0 32 0;
#X connect 39 0 32 0;
#X connect 40 0 32 0;
#X connect 41 0 33 0;
#X connect 41 1 34 0;
#X connect 41 2 35 0;
#X connect 41 3 36 0;
#X connect 41 4 37 0;
#X connect 41 5 38 0;
#X connect 41 6 39 0;
#X connect 41 7 40 0;
