#N canvas 352 89 851 687 10;
#X obj 43 42 inlet;
#X obj 43 63 sel 0 1 2 3 4 5 6 7 8 9 10 11 12 13 14 15 16 17 18 19
20 21;
#X msg 227 616 \; gliss-length-receive \$1 \; to_gliss_presets \$2
\;;
#X msg 43 575 0 0 0 0 0;
#X msg 43 596 \; walker-leap-receive \$1 \; walker-rate-receive \$2
\; walker-preset-bypass \$3 \; gliss-length-receive \$4 \; to_gliss_presets
\$5 \;;
#X msg 61 515 \; walker-leap-receive \$1 \; walker-rate-receive \$2
\; walker-preset-bypass \$3 \;;
#X msg 61 494 20 1000 2;
#X msg 80 473 15 2000 3;
#X msg 98 439 \; rhythm-presets-receive \$1;
#X msg 98 418 4;
#X msg 117 397 5;
#X msg 136 376 6;
#X msg 154 342 \; rhythmvolume-receive bang;
#X obj 173 321 t b b;
#X obj 221 321 del 80;
#X msg 426 482 \; exp-base \$12 \; to_source_presets \$1 \; fader-0-bypass
\$2 \; fader-1-bypass \$3 \; fader-2-bypass \$4 \; fader-3-bypass \$5
\; fader-4-bypass \$6 \; fader-5-bypass \$7 \; ugen0-external-vol \$8
\; ugen1-external-vol \$9 \; ugen2-external-vol \$10 \; stereo-mono
\$11 \; elem-exp-multiplier \$13;
#X text 536 321 FLUTES;
#X obj 314 230 random 600;
#X obj 393 230 random 600;
#X obj 472 230 random 600;
#X obj 236 300 del 80;
#X obj 314 283 pack f f f f f f;
#X obj 472 248 t f f;
#X obj 515 257 / 50;
#X obj 393 248 t f f;
#X obj 425 266 / 50;
#X obj 314 248 t f f;
#X obj 346 266 / 50;
#X obj 314 213 t b b b;
#X obj 192 300 t b b;
#X msg 314 300 2 \$1 \$2 \$3 \$4 \$5 \$6 1 1 1 1 0 400;
#X msg 278 321 2 300 500 200 8 12 9 1 1 1 1 0 400;
#X msg 426 450 2 300 500 200 0 0 0 1 1 1 1 3 400;
#X connect 0 0 1 0;
#X connect 1 0 3 0;
#X connect 1 1 6 0;
#X connect 1 2 7 0;
#X connect 1 3 9 0;
#X connect 1 4 10 0;
#X connect 1 5 11 0;
#X connect 1 6 12 0;
#X connect 1 7 13 0;
#X connect 1 8 29 0;
#X connect 3 0 4 0;
#X connect 6 0 5 0;
#X connect 7 0 5 0;
#X connect 9 0 8 0;
#X connect 10 0 8 0;
#X connect 11 0 8 0;
#X connect 13 0 14 0;
#X connect 13 1 32 0;
#X connect 14 0 31 0;
#X connect 17 0 26 0;
#X connect 18 0 24 0;
#X connect 19 0 22 0;
#X connect 20 0 28 0;
#X connect 21 0 30 0;
#X connect 22 0 21 2;
#X connect 22 1 23 0;
#X connect 23 0 21 5;
#X connect 24 0 21 1;
#X connect 24 1 25 0;
#X connect 25 0 21 4;
#X connect 26 0 21 0;
#X connect 26 1 27 0;
#X connect 27 0 21 3;
#X connect 28 0 17 0;
#X connect 28 1 18 0;
#X connect 28 2 19 0;
#X connect 29 0 20 0;
#X connect 29 1 32 0;
#X connect 30 0 15 0;
#X connect 31 0 15 0;
#X connect 32 0 15 0;
