#N canvas 64 81 1202 687 10;
#X obj 217 4 inlet;
#X msg 642 575 1 6 7 5 26 33 22 1 1 1 1;
#X text 823 576 2 - CRYSTALS;
#X text 881 555 5 - MONICA;
#X msg 641 554 1 159 133 201 355 387 402 1 1 1 1;
#X msg 641 533 1 20 12 13 16 10 10 1 1 1 1;
#X text 840 534 6 - SLEET;
#X msg 742 596 2 353 353 353 9.94 9.97 9.94 1 1 1 1;
#X msg 641 512 2 100 150 175 50 90 110 1 1 1 1;
#X msg 641 491 2 150 250 299 95 150 189 1 1 1 1;
#X text 1009 204 2 ALL SIG \; 3 ALL SELF;
#X text 1008 257 6 ONE SELF \; 7 PAIR;
#X text 1008 283 8 PAIR & NOISE \; 9 PAIR & SIG \;;
#X text 1001 309 10 PAIR & SELF \; 11 DAISY CHAIN;
#X text 1008 231 4 ONE NOISE \; 5 ONE SIG;
#X text 1009 177 0 ALL OFF \; 1 ALL NOISE;
#X text 1001 335 12 DAISY CHAIN REVERSE;
#X text 1001 403 17 ORGY;
#X text 1001 349 13 DC & 0.1 NOISE \; 14 DC & 0.5 SIG;
#X text 1001 376 15 DC & SELF \; 16 DC & 0.5 SELF;
#X text 865 513 13 - CHORD 1;
#X text 886 486 14 - CHORD 2;
#X text 999 599 10 - GONG 2;
#X obj 328 360 t b b;
#X obj 642 596 t b b;
#X obj 347 339 t b b;
#X obj 368 319 t b b;
#X obj 416 318 del 80;
#X obj 397 339 del 80;
#X obj 692 596 del 80;
#X obj 378 360 del 80;
#X obj 217 25 sel 0 1 2 3 4 5 6 7 8 9 10 11 12 13 14 15 16 17 18 19
20 21;
#X text 412 487 0 ALL OFF;
#X text 429 466 1 WHITE;
#X text 512 445 2 HALOGEN;
#X text 559 424 3 REEDS;
#X text 527 403 4 SERPENTINE;
#X text 549 382 5 WIND;
#X text 713 359 6 GONG 1;
#X text 756 339 7 RAYS;
#X text 725 318 8 FLUTES;
#X obj 384 297 t b b;
#X obj 434 297 del 80;
#X text 739 296 9 FLOUTS;
#X text 691 275 10 CHORD;
#X text 715 254 11 CHORD 2;
#X text 656 233 12 WHISTLE;
#X text 744 212 13 HUM;
#X text 735 191 14 HUM 2;
#X text 771 170 15 BACKGROUND;
#X text 772 149 16 SIREN;
#X text 790 128 17 SCREECH;
#X text 821 107 18 SALT;
#X text 835 87 19 GRINDER;
#X text 819 65 20 KETTLE;
#X text 880 44 21 STATIC;
#X text 999 142 FOR REFERENCE: \; SOURCE PRESETS:;
#X msg 217 486 0 0 0 0 0 0 0 0 0 0 0 0 400;
#X msg 254 444 1 31 24 18 185 150 115 1 1 1 1 2 400;
#X msg 272 423 1 401 799 537 999 999 999 1 1 1 1 0 1000;
#X msg 491 297 2 351 355 353 9 10 8 1 1 1 1 0 400;
#X msg 440 234 3 54 55 53 7 7 7 1 1 1 1 0 400;
#X msg 608 45 11 400 400 400 100 7 100 1 1 1 1 0 600;
#X msg 40 486 \; exp-base \$12 \; to_source_presets \$1 \; fader-0-bypass
\$2 \; fader-1-bypass \$3 \; fader-2-bypass \$4 \; fader-3-bypass \$5
\; fader-4-bypass \$6 \; fader-5-bypass \$7 \; ugen0-external-vol \$8
\; ugen1-external-vol \$9 \; ugen2-external-vol \$10 \; stereo-mono
\$11 \; elem-exp-multiplier \$13;
#X msg 310 381 2 400 400 400 0 0 0 1 1 1 1 3 400;
#X msg 291 402 2 26 27 28 13 13 13 1 1 1 1 0 400;
#X msg 473 318 2 351 355 353 9 9 9 1 1 1 1 0 400;
#X msg 455 339 2 353 353 353 8.94 8.97 8.94 1 1 1 1 0 400;
#X msg 428 360 2 400 400 400 9.5 9.3 9.5 1 1 1 1 0 400;
#X msg 403 276 2 400 600 500 244 359 279 1 1 1 1 0 500;
#X msg 422 255 14 400 600 500 244 359 279 1 1 1 1 0 500;
#X msg 496 171 11 400 400 400 25 25 25 1 1 1 1 0 500;
#X msg 515 150 11 400 80 400 40 70 40 1 1 1 1 0 500;
#X msg 533 129 17 400 80 400 40 70 40 1 1 1 1 0 500;
#X msg 552 108 15 200 400 300 70 90 80 1 1 1 1 0 500;
#X msg 571 87 8 594 20 601 50 10 50 1 0.6 1 1 0 500;
#X msg 589 66 11 20 39 19 1 25 2 1 1 1 1 0 500;
#X msg 235 465 1 6 7 5 0 0 0 1 1 1 1 0 400;
#X msg 477 192 16 199 99 604 20 99 40 1 1 1 1 0 500;
#X msg 458 213 10 200 400 601 100 200 100 1 0.5 1 1 0 500;
#X text 694 462 RETIRED PRESETS:;
#X connect 0 0 31 0;
#X connect 23 0 30 0;
#X connect 23 1 64 0;
#X connect 24 0 29 0;
#X connect 25 0 28 0;
#X connect 25 1 64 0;
#X connect 26 0 27 0;
#X connect 26 1 64 0;
#X connect 27 0 66 0;
#X connect 28 0 67 0;
#X connect 29 0 7 0;
#X connect 30 0 68 0;
#X connect 31 0 57 0;
#X connect 31 1 77 0;
#X connect 31 2 58 0;
#X connect 31 3 59 0;
#X connect 31 4 65 0;
#X connect 31 5 64 0;
#X connect 31 6 23 0;
#X connect 31 7 25 0;
#X connect 31 8 26 0;
#X connect 31 9 41 0;
#X connect 31 10 69 0;
#X connect 31 11 70 0;
#X connect 31 12 61 0;
#X connect 31 13 79 0;
#X connect 31 14 78 0;
#X connect 31 15 71 0;
#X connect 31 16 72 0;
#X connect 31 17 73 0;
#X connect 31 18 74 0;
#X connect 31 19 75 0;
#X connect 31 20 76 0;
#X connect 31 21 62 0;
#X connect 41 0 42 0;
#X connect 41 1 64 0;
#X connect 42 0 60 0;
#X connect 57 0 63 0;
#X connect 58 0 63 0;
#X connect 59 0 63 0;
#X connect 60 0 63 0;
#X connect 61 0 63 0;
#X connect 62 0 63 0;
#X connect 64 0 63 0;
#X connect 65 0 63 0;
#X connect 66 0 63 0;
#X connect 67 0 63 0;
#X connect 68 0 63 0;
#X connect 69 0 63 0;
#X connect 70 0 63 0;
#X connect 71 0 63 0;
#X connect 72 0 63 0;
#X connect 73 0 63 0;
#X connect 74 0 63 0;
#X connect 75 0 63 0;
#X connect 76 0 63 0;
#X connect 77 0 63 0;
#X connect 78 0 63 0;
#X connect 79 0 63 0;
