#N canvas 57 247 1732 727 10;
#X text 1497 670 2 ALL SIG \; 3 ALL SELF;
#X text 1496 723 6 ONE SELF \; 7 PAIR;
#X text 1496 749 8 PAIR & NOISE \; 9 PAIR & SIG \;;
#X text 1489 775 10 PAIR & SELF \; 11 DAISY CHAIN;
#X text 1496 697 4 ONE NOISE \; 5 ONE SIG;
#X text 1497 643 0 ALL OFF \; 1 ALL NOISE;
#X text 1489 801 12 DAISY CHAIN REVERSE;
#X text 1489 869 17 ORGY;
#X text 1489 815 13 DC & 0.1 NOISE \; 14 DC & 0.5 SIG;
#X text 1489 842 15 DC & SELF \; 16 DC & 0.5 SELF;
#X text 1487 608 FOR REFERENCE: \; SOURCE PRESETS:;
#X obj 968 64 inlet;
#X obj 180 82 sel 0 1 2 3 4 8 9 10 11 12, f 38;
#X text 168 8 Question: do I need to use a counter \; and multiplex
these \, or are five settings enough? \; Do five settings actually
center the piece around \; those ratios nicely? \;;
#X msg 202 694 1 6 7 5 0 0 0 1 1 1 1;
#X msg 247 478 3 54 55 53 5 5 5 1 1 1 1;
#X msg 180 723 0 0 0 0 0 0 0 0 0 0 0;
#X msg 292 420 2 400 600 500 244 359 279 1 1 1 1;
#X msg 314 391 11 400 401 400 100 7 100 1 1 1 1;
#X msg 337 362 11 400 80 400 40 70 40 1 1 1 1;
#X msg 382 304 16 199 99 604 20 99 40 1 1 1 1 0 500;
#X msg 359 333 10 200 400 601 100 200 100 1 0.5 1 1 0 500;
#X text 319 724 0 ALL OFF;
#X text 341 694 1 WHITE;
#X text 399 636 2 WIND;
#X text 405 479 3 WHISTLE;
#X text 444 450 4 GRIND;
#X text 503 420 5 CHORD;
#X text 520 392 6 STATIC;
#X text 531 362 7 SIREN;
#X text 625 334 8 HUM;
#X text 612 304 9 HUM 2;
#X msg 224 636 2 400 400 400 3 3 3 1 1 1 1;
#X msg 275 450 7 794 0 801 60 0 60 1 0 1 1;
#X msg 1355 261 \; to_source_presets \$1;
#X msg 1388 219 \; ugen1-external-vol \$1;
#X msg 1355 161 8 0.4;
#X obj 1355 190 unpack;
#X msg 1372 132 14;
#X msg 1390 103 17;
#X text 1401 143 EXTRA PRESETS: - DC reverse \; - Pair with Noise \,
vol. 0.4 \; - DC with 0.5 SIG (Chord goes there...) \; - ORGY (siren
turns to screech) \; \;;
#X obj 1355 82 sel 5 6 7;
#X msg 472 768 \; elem-exp-multiplier-0 \$1 \; elem-exp-multiplier-1
\$2 \; elem-exp-multiplier-2 \$3 \; elem-exp-multiplier-3 \$4 \; elem-exp-multiplier-4
\$5 \; elem-exp-multiplier-5 \$6 \; pulse_base bang;
#X msg 664 768 \; elem-exp-adder-0 \$1 \; elem-exp-adder-1 \$2 \; elem-exp-adder-2
\$3 \; elem-exp-adder-3 \$4 \; elem-exp-adder-4 \$5 \; elem-exp-adder-5
\$6 \;;
#X obj 224 607 t b b b;
#X msg 664 625 3 3 3 0 0 0;
#X msg 472 625 800 800 800 800 800 800;
#X msg 664 683 6 7 5 0 0 0;
#X obj 202 665 t b b b;
#X msg 473 683 800 999 800 999 800 999;
#X msg 58 772 \; to_source_presets \$1 \; fader-0-bypass \$2 \; fader-1-bypass
\$3 \; fader-2-bypass \$4 \; fader-3-bypass \$5 \; fader-4-bypass \$6
\; fader-5-bypass \$7 \; ugen0-external-vol \$8 \; ugen1-external-vol
\$9 \; ugen2-external-vol \$10 \; stereo-mono \$11 \; stop_transitions
bang \; stop_glisses bang;
#X floatatom 839 129 5 0 0 0 - - -, f 5;
#X msg 1047 555 441 221 332 600 400 600;
#X text 975 724 2 F - D - B (eigth-flat) - 500 \, 600 \, 700 - Bdim
\; \; 3 D - A - D - 300 \, 400 600 \; \; 4 A - A - D - 200 \, 400 601
\; \; 5 G - G - C - 441 221 \, 332 \; \; 6 G - Eb - C - 440 278 \,
333 \; \; 7 Eb - Bb - Eb - 540 \, 360 \, 270 \;;
#X msg 1067 526 440 278 333 600 400 500;
#X msg 1087 497 540 360 270 700 500 400;
#X obj 968 450 sel 16 17 18 19 20 21 22 23;
#X obj 1269 451 s to_gliss_presets;
#X msg 1257 419 0;
#X msg 1332 428 6;
#X obj 1256 327 f;
#X obj 1295 327 + 1;
#X obj 1256 369 sel 0 1 2;
#X obj 1264 347 % 3;
#X msg 1278 395 4;
#X msg 1007 613 257 637 636 300 600 600;
#X msg 1027 584 160 400 401 400 400 400;
#X text 979 397 BOTTOM ROW ELEM EXP TOPS;
#X msg 987 642 44 255 132 200 400 300;
#X msg 968 671 58 270 184 200 400 300;
#X connect 11 0 12 0;
#X connect 11 0 41 0;
#X connect 11 0 51 0;
#X connect 11 0 56 0;
#X connect 12 0 16 0;
#X connect 12 1 48 0;
#X connect 12 2 44 0;
#X connect 12 3 15 0;
#X connect 12 4 33 0;
#X connect 12 5 17 0;
#X connect 12 6 18 0;
#X connect 12 7 19 0;
#X connect 12 8 21 0;
#X connect 12 9 20 0;
#X connect 14 0 50 0;
#X connect 15 0 50 0;
#X connect 16 0 50 0;
#X connect 17 0 50 0;
#X connect 18 0 50 0;
#X connect 19 0 50 0;
#X connect 20 0 50 0;
#X connect 21 0 50 0;
#X connect 32 0 50 0;
#X connect 33 0 50 0;
#X connect 36 0 37 0;
#X connect 37 0 34 0;
#X connect 37 1 35 0;
#X connect 38 0 34 0;
#X connect 39 0 34 0;
#X connect 41 0 36 0;
#X connect 41 1 38 0;
#X connect 41 2 39 0;
#X connect 44 0 32 0;
#X connect 44 1 46 0;
#X connect 44 2 45 0;
#X connect 45 0 43 0;
#X connect 46 0 42 0;
#X connect 47 0 43 0;
#X connect 48 0 14 0;
#X connect 48 1 49 0;
#X connect 48 2 47 0;
#X connect 49 0 42 0;
#X connect 52 0 42 0;
#X connect 54 0 42 0;
#X connect 55 0 42 0;
#X connect 56 0 69 0;
#X connect 56 1 68 0;
#X connect 56 2 65 0;
#X connect 56 3 66 0;
#X connect 56 4 52 0;
#X connect 56 5 54 0;
#X connect 56 6 55 0;
#X connect 56 7 60 0;
#X connect 58 0 57 0;
#X connect 59 0 57 0;
#X connect 60 0 61 0;
#X connect 60 0 63 0;
#X connect 61 0 60 1;
#X connect 62 0 58 0;
#X connect 62 1 64 0;
#X connect 62 2 59 0;
#X connect 63 0 62 0;
#X connect 64 0 57 0;
#X connect 65 0 42 0;
#X connect 66 0 42 0;
#X connect 68 0 42 0;
#X connect 69 0 42 0;
