#N canvas 67 112 1573 711 10;
#X obj 229 173 < 8;
#X obj 229 285 > 15;
#X msg 229 309 color 0 \$1 0;
#X msg 229 255 color 0 \$1 0;
#X msg 229 201 color 0 \$1 0;
#X floatatom 204 136 5 0 0 0 - - -, f 5;
#X msg 329 201 set \$1;
#X obj 329 153 % 8;
#X msg 329 255 set \$1;
#X msg 329 309 set \$1;
#X obj 569 632 Presetter;
#X obj 1301 289 + 8;
#X obj 1276 362 + 16;
#X obj 5 118 < 8;
#X obj 5 281 > 15;
#X msg 5 309 color 0 \$1 0;
#X msg 5 256 color 0 \$1 0;
#X msg 5 203 color 0 \$1 0;
#X msg 155 203 set \$1;
#X msg 155 256 set \$1;
#X msg 155 309 set \$1;
#X obj 1460 247 + 8;
#X obj 1485 315 + 16;
#X floatatom 5 92 5 0 0 0 - - -, f 5;
#X obj 155 110 % 8;
#X floatatom 519 106 5 0 0 0 - - -, f 5;
#X floatatom 507 615 5 0 0 0 - - -, f 5;
#X obj 1372 136 r to_global_presets;
#X obj 382 201 cnv 15 830 248 empty empty empty 20 12 0 14 -233017
-66577 0;
#X obj 392 219 hradio 35 1 0 8 empty empty empty -15 10 0 4 -262144
-262144 -262144 1;
#X obj 392 273 hradio 35 1 0 8 empty empty empty -15 10 0 4 -262144
-262144 -262144 1;
#X obj 392 327 hradio 35 1 0 8 empty empty empty -15 10 0 4 -262144
-262144 -262144 1;
#X obj 922 219 hradio 35 1 0 8 empty empty empty -15 10 0 4 -262144
-166441 -262144 4;
#X obj 922 273 hradio 35 1 0 8 empty empty empty -15 10 0 4 -262144
-262144 -262144 4;
#X obj 922 327 hradio 35 1 0 8 empty empty empty -15 10 0 4 -262144
-262144 -262144 4;
#X msg 1252 178 color 0 0 0;
#X msg 1467 200 color 0 0 0;
#X obj 1770 218 r to_secondary_globals;
#X text 392 257 CHORD. STAT SIREN. HUM. HUM2. TRN1. TRN2 TRN3;
#X obj 463 541 s trans_time_pow;
#X obj 591 551 s trans_time_add;
#X obj 527 583 s trans_time_mult;
#X obj 392 595 s trans_time_exp;
#X obj 392 566 s trans_presets_exp;
#X obj 392 541 min 27;
#X obj 706 242 nbx 2 25 -1e+37 1e+37 0 0 empty empty empty 0 -8 0 22
-262144 -1 -1 8 256;
#X obj 830 242 nbx 2 25 -1e+37 1e+37 0 0 empty empty empty 0 -8 0 22
-262144 -1 -1 8 256;
#X obj 766 333 nbx 2 25 -1e+37 1e+37 0 0 empty empty empty 0 -8 0 22
-262144 -1 -1 2 256;
#X obj 702 333 nbx 2 25 -1e+37 1e+37 0 0 empty empty empty 0 -8 0 22
-262144 -1 -1 2 256;
#X obj 830 333 nbx 3 25 -1e+37 1e+37 0 0 empty empty empty 0 -8 0 22
-262144 -1 -1 60 256;
#X text 780 359 MULT;
#X text 711 359 POWER;
#X obj 447 48 r to_trans_time_exp;
#X obj 447 2 r to_trans_presets_exp;
#X obj 447 48 r to_trans_power;
#X obj 578 48 r to_trans_mult;
#X obj 703 48 r to_trans_add;
#X text 849 359 ADD;
#X text 928 203 OFF. WHITE HALO. REED. SERP. WIND. GONG RAYS;
#X text 923 257 FLUTE FLOUT CHOR CHOR2 WHIST. HUM. HUM2. BACK;
#X obj 59 112 loadbang;
#X msg 59 165 8;
#X msg 99 165 2;
#X msg 142 165 60;
#X msg 1372 165 \$1 \$1;
#X obj 1266 200 route 0 1 2 3 4 5 6 7;
#X obj 1547 200 route 0 1 2 3 4 5 6 7;
#X msg 1770 252 \$1 \$1;
#X obj 1412 208 - 8;
#X msg 1412 237 \$1 \$1;
#X obj 1266 255 route 0 1 2 3 4 5 6 7;
#X obj 1266 309 route 0 1 2 3 4 5 6 7;
#X msg 1412 291 \$1 \$1;
#X obj 1412 262 - 16;
#X obj 1692 188 - 8;
#X msg 1692 217 \$1 \$1;
#X msg 1692 271 \$1 \$1;
#X obj 1692 242 - 16;
#X obj 1529 255 route 0 1 2 3 4 5 6 7;
#X obj 1547 305 route 0 1 2 3 4 5 6 7;
#X text 828 225 TIME STAB.;
#X obj 392 373 Meta-Controls;
#X obj 977 373 MiscSigContainer;
#X text 703 225 PRESET STAB. (EXP);
#X obj 1025 -54 r auxknob-6;
#X obj 1031 105 +;
#X obj 1031 2 -;
#X obj 1025 -27 t f f;
#X floatatom 1031 23 5 0 0 0 - - -, f 5;
#X obj 1031 126 max 2;
#X text 738 305 TIME (& GLISS TIME);
#X obj 1031 43 min 1;
#X obj 1031 64 max -1;
#X floatatom 1031 85 5 0 0 0 - - -, f 5;
#X text 400 203 OFF..WHIT. WIND WHIST GRIND2 NORM PAIR ORGY;
#X text 401 311 TON . 3RD .OCT. GRIND . . . RHVOL .DC . GLISS;
#X text 923 311 SIREN SIRN2 SALT GRIND KETTL STATC NULL. NULL.;
#X msg 1791 125 15;
#X floatatom 205 90 5 0 0 0 - - -, f 5;
#X obj 5 236 expr (($f1>7)&($f1<=15));
#X obj 229 227 expr (($f1>7)&($f1<=15));
#X connect 0 0 4 0;
#X connect 1 0 2 0;
#X connect 2 0 31 0;
#X connect 3 0 30 0;
#X connect 4 0 29 0;
#X connect 5 0 0 0;
#X connect 5 0 1 0;
#X connect 5 0 7 0;
#X connect 5 0 100 0;
#X connect 6 0 29 0;
#X connect 7 0 6 0;
#X connect 7 0 8 0;
#X connect 7 0 9 0;
#X connect 8 0 30 0;
#X connect 9 0 31 0;
#X connect 11 0 25 0;
#X connect 12 0 25 0;
#X connect 13 0 17 0;
#X connect 14 0 15 0;
#X connect 15 0 34 0;
#X connect 16 0 33 0;
#X connect 17 0 32 0;
#X connect 18 0 32 0;
#X connect 19 0 33 0;
#X connect 20 0 34 0;
#X connect 21 0 26 0;
#X connect 22 0 26 0;
#X connect 23 0 24 0;
#X connect 23 0 13 0;
#X connect 23 0 14 0;
#X connect 23 0 99 0;
#X connect 24 0 18 0;
#X connect 24 0 19 0;
#X connect 24 0 20 0;
#X connect 24 0 98 0;
#X connect 25 0 5 0;
#X connect 25 0 36 0;
#X connect 25 0 10 0;
#X connect 26 0 23 0;
#X connect 26 0 35 0;
#X connect 26 0 10 1;
#X connect 27 0 64 0;
#X connect 27 0 68 0;
#X connect 27 0 73 0;
#X connect 29 0 25 0;
#X connect 30 0 11 0;
#X connect 31 0 12 0;
#X connect 32 0 26 0;
#X connect 33 0 21 0;
#X connect 34 0 22 0;
#X connect 35 0 29 0;
#X connect 35 0 31 0;
#X connect 35 0 30 0;
#X connect 36 0 32 0;
#X connect 36 0 33 0;
#X connect 36 0 34 0;
#X connect 37 0 67 0;
#X connect 37 0 74 0;
#X connect 37 0 77 0;
#X connect 44 0 43 0;
#X connect 45 0 44 0;
#X connect 46 0 42 0;
#X connect 47 0 41 0;
#X connect 48 0 39 0;
#X connect 49 0 40 0;
#X connect 49 0 85 1;
#X connect 52 0 46 0;
#X connect 53 0 45 0;
#X connect 54 0 48 0;
#X connect 55 0 47 0;
#X connect 56 0 49 0;
#X connect 60 0 61 0;
#X connect 60 0 62 0;
#X connect 60 0 63 0;
#X connect 61 0 45 0;
#X connect 61 0 46 0;
#X connect 62 0 48 0;
#X connect 62 0 47 0;
#X connect 63 0 49 0;
#X connect 64 0 65 0;
#X connect 65 0 29 0;
#X connect 65 1 29 0;
#X connect 65 2 29 0;
#X connect 65 3 29 0;
#X connect 65 4 29 0;
#X connect 65 5 29 0;
#X connect 65 6 29 0;
#X connect 65 7 29 0;
#X connect 66 0 32 0;
#X connect 66 1 32 0;
#X connect 66 2 32 0;
#X connect 66 3 32 0;
#X connect 66 4 32 0;
#X connect 66 5 32 0;
#X connect 66 6 32 0;
#X connect 66 7 32 0;
#X connect 67 0 66 0;
#X connect 68 0 69 0;
#X connect 69 0 70 0;
#X connect 70 0 30 0;
#X connect 70 1 30 0;
#X connect 70 2 30 0;
#X connect 70 3 30 0;
#X connect 70 4 30 0;
#X connect 70 5 30 0;
#X connect 70 6 30 0;
#X connect 70 7 30 0;
#X connect 71 0 31 0;
#X connect 71 1 31 0;
#X connect 71 2 31 0;
#X connect 71 3 31 0;
#X connect 71 4 31 0;
#X connect 71 5 31 0;
#X connect 71 6 31 0;
#X connect 71 7 31 0;
#X connect 72 0 71 0;
#X connect 73 0 72 0;
#X connect 74 0 75 0;
#X connect 75 0 78 0;
#X connect 76 0 79 0;
#X connect 77 0 76 0;
#X connect 78 0 33 0;
#X connect 78 1 33 0;
#X connect 78 2 33 0;
#X connect 78 3 33 0;
#X connect 78 4 33 0;
#X connect 78 5 33 0;
#X connect 78 6 33 0;
#X connect 78 7 33 0;
#X connect 79 0 34 0;
#X connect 79 1 34 0;
#X connect 79 2 34 0;
#X connect 79 3 34 0;
#X connect 79 4 34 0;
#X connect 79 5 34 0;
#X connect 79 6 34 0;
#X connect 79 7 34 0;
#X connect 84 0 87 0;
#X connect 85 0 89 0;
#X connect 86 0 88 0;
#X connect 87 0 86 1;
#X connect 87 1 86 0;
#X connect 88 0 91 0;
#X connect 89 0 49 0;
#X connect 91 0 92 0;
#X connect 92 0 93 0;
#X connect 93 0 85 0;
#X connect 97 0 67 0;
#X connect 97 0 74 0;
#X connect 99 0 16 0;
#X connect 100 0 3 0;
#X coords 0 -1 1 1 832 250 2 381 200;
