#N canvas 102 358 1732 727 10;
#X text 1583 604 2 ALL SIG \; 3 ALL SELF;
#X text 1582 657 6 ONE SELF \; 7 PAIR;
#X text 1582 683 8 PAIR & NOISE \; 9 PAIR & SIG \;;
#X text 1575 709 10 PAIR & SELF \; 11 DAISY CHAIN;
#X text 1582 631 4 ONE NOISE \; 5 ONE SIG;
#X text 1583 577 0 ALL OFF \; 1 ALL NOISE;
#X text 1575 735 12 DAISY CHAIN REVERSE;
#X text 1575 803 17 ORGY;
#X text 1575 749 13 DC & 0.1 NOISE \; 14 DC & 0.5 SIG;
#X text 1575 776 15 DC & SELF \; 16 DC & 0.5 SELF;
#X text 1573 542 FOR REFERENCE: \; SOURCE PRESETS:;
#X obj 977 4 inlet;
#X obj 1089 400 t b b;
#X obj 1108 379 t b b;
#X obj 1129 359 t b b;
#X obj 1167 358 del 80;
#X obj 1148 379 del 80;
#X obj 1139 400 del 80;
#X obj 977 25 sel 0 1 2 3 4 5 6 7 8 9 10 11 12 13 14 15 16 17 18 19
20 21, f 69;
#X text 1345 533 1 WHITE;
#X text 1273 485 2 HALOGEN;
#X text 1320 464 3 REEDS;
#X text 1288 443 4 SERPENTINE;
#X text 1366 423 5 WIND;
#X text 1464 399 6 GONG 1;
#X text 1507 379 7 RAYS;
#X text 1476 358 8 FLUTES;
#X obj 1145 337 t b b;
#X obj 1185 337 del 80;
#X text 1490 336 9 FLOUTS;
#X text 1452 315 10 CHORD;
#X text 1476 294 11 CHORD 2;
#X text 1417 273 12 WHISTLE;
#X text 1505 252 13 HUM;
#X text 1496 231 14 HUM 2;
#X text 1532 210 15 BACKGROUND;
#X text 1533 189 16 SIREN;
#X text 1551 168 17 SCREECH;
#X text 1582 147 18 SALT;
#X text 1596 127 19 GRINDER;
#X text 1580 105 20 KETTLE;
#X text 1641 84 21 STATIC;
#X msg 1015 484 1 31 24 18 185 150 115 1 1 1 1 2 400;
#X msg 1033 463 1 401 799 537 999 999 999 1 1 1 1 0 1000;
#X msg 1242 337 2 351 355 353 9 10 8 1 1 1 1 0 400;
#X msg 1201 274 3 54 55 53 7 7 7 1 1 1 1 0 400;
#X msg 1369 85 11 400 400 400 100 7 100 1 1 1 1 0 600;
#X msg 1052 442 2 26 27 28 13 13 13 1 1 1 1 0 400;
#X msg 1224 358 2 351 355 353 9 9 9 1 1 1 1 0 400;
#X msg 1206 379 2 353 353 353 8.94 8.97 8.94 1 1 1 1 0 400;
#X msg 1179 400 2 400 400 400 9.5 9.3 9.5 1 1 1 1 0 400;
#X msg 1164 316 2 400 600 500 244 359 279 1 1 1 1 0 500;
#X msg 1192 295 14 400 600 500 244 359 279 1 1 1 1 0 500;
#X msg 1257 211 11 400 400 400 25 25 25 1 1 1 1 0 500;
#X msg 1276 190 11 400 80 400 40 70 40 1 1 1 1 0 500;
#X msg 1294 169 17 400 80 400 40 70 40 1 1 1 1 0 500;
#X msg 1313 148 15 200 400 300 70 90 80 1 1 1 1 0 500;
#X msg 1332 127 8 594 20 601 50 10 50 1 0.6 1 1 0 500;
#X msg 1350 106 11 20 39 19 1 25 2 1 1 1 1 0 500;
#X msg 1238 232 16 199 99 604 20 99 40 1 1 1 1 0 500;
#X msg 1219 253 10 200 400 601 100 200 100 1 0.5 1 1 0 500;
#X msg 1071 421 2 400 400 400 0 0 0 1 1 1 1 3 800 800 800 0 0 0;
#X text 1264 575 0 ALL;
#X msg 977 566 0 0 0 0 0 0 0 0 0 0 0 0 0 0 0 0 0 0 0 0 0 0 0;
#X msg 977 522 1 1 1 1 1 401 800 399 400 800 400 0 0 0 0 0 0 5 5 5
0 0 0 1 1 1 0 400 400 400 6 7 5;
#X obj 100 82 sel 0 1 2 3 4 8 9 10 11 12, f 38;
#X text 88 8 Question: do I need to use a counter \; and multiplex
these \, or are five settings enough? \; Do five settings actually
center the piece around \; those ratios nicely? \;;
#X text 1134 625 Rewrite these in the format to the left \, then use
them for transitions.;
#X msg 122 520 1 6 7 5 0 0 0 1 1 1 1;
#X msg 167 462 3 54 55 53 5 5 5 1 1 1 1;
#X msg 100 549 0 0 0 0 0 0 0 0 0 0 0;
#X msg 212 404 2 400 600 500 244 359 279 1 1 1 1;
#X msg 234 375 11 400 401 400 100 7 100 1 1 1 1;
#X text 709 647 EXTRA PRESETS: - DC reverse \; - Pair with Noise \,
vol. 0.4 \; - DC with 0.5 SIG (Chord goes there...) \; - ORGY (siren
turns to screech) \; \;;
#X msg 257 346 11 400 80 400 40 70 40 1 1 1 1;
#X msg 302 288 16 199 99 604 20 99 40 1 1 1 1 0 500;
#X msg 279 317 10 200 400 601 100 200 100 1 0.5 1 1 0 500;
#X text 239 550 0 ALL OFF;
#X text 261 520 1 WHITE;
#X text 319 491 2 WIND;
#X text 325 463 3 WHISTLE;
#X text 364 434 4 GRIND;
#X text 423 404 5 CHORD;
#X text 440 376 6 STATIC;
#X text 451 346 7 SIREN;
#X text 545 318 8 HUM;
#X text 532 288 9 HUM 2;
#X msg 144 491 2 400 400 400 3 3 3 1 1 1 1;
#X msg 189 433 7 794 0 801 60 0 60 1 0 1 1;
#X obj 729 249 sel 5 6 7 13 14 15;
#X msg 729 508 \; to_source_presets \$1;
#X msg 80 592 \; to_source_presets \$1 \; fader-0-bypass \$2 \; fader-1-bypass
\$3 \; fader-2-bypass \$4 \; fader-3-bypass \$5 \; fader-4-bypass \$6
\; fader-5-bypass \$7 \; ugen0-external-vol \$8 \; ugen1-external-vol
\$9 \; ugen2-external-vol \$10 \; stereo-mono \$11;
#X msg 762 466 \; ugen1-external-vol \$1;
#X msg 729 408 8 0.4;
#X obj 729 437 unpack;
#X msg 746 379 14;
#X msg 764 350 17;
#X msg 462 668 \; elem-exp-multiplier-0 \$1 \; elem-exp-multiplier-1
\$2 \; elem-exp-multiplier-2 \$3 \; elem-exp-multiplier-3 \$4 \; elem-exp-multiplier-4
\$5 \; elem-exp-multiplier-5 \$6 \; elem-exp-adder-0 \$7 \; elem-exp-adder-1
\$8 \; elem-exp-adder-2 \$9 \; elem-exp-adder-3 \$10 \; elem-exp-adder-4
\$11 \; elem-exp-adder-5 \$12;
#X msg 411 460 800 800 800 800 800 800 3 0 3 0 3 0;
#X obj 462 493 sel 16 17 18 19 20 21 22 23;
#X obj 383 538 bng 15 250 50 0 empty empty empty 17 7 0 10 -262144
-1 -1;
#X msg 383 639 800 999 800 999 800 999 6 0 7 0 5 0;
#X msg 462 610 400 300 800 999 600 800 6 0 7 0 5 0;
#X obj 366 508 bng 15 250 50 0 empty empty empty 17 7 0 10 -262144
-1 -1;
#X msg 481 581 500 600 800 276 350 445 6 0 7 0 5 0;
#X connect 11 0 18 0;
#X connect 11 0 65 0;
#X connect 11 0 89 0;
#X connect 11 0 99 0;
#X connect 12 0 17 0;
#X connect 12 1 61 0;
#X connect 13 0 16 0;
#X connect 13 1 61 0;
#X connect 14 0 15 0;
#X connect 14 1 61 0;
#X connect 15 0 48 0;
#X connect 16 0 49 0;
#X connect 17 0 50 0;
#X connect 18 0 63 0;
#X connect 18 1 64 0;
#X connect 18 2 42 0;
#X connect 18 3 43 0;
#X connect 18 4 47 0;
#X connect 18 5 61 0;
#X connect 18 6 12 0;
#X connect 18 7 13 0;
#X connect 18 8 14 0;
#X connect 18 9 27 0;
#X connect 18 10 51 0;
#X connect 18 11 52 0;
#X connect 18 12 45 0;
#X connect 18 13 60 0;
#X connect 18 14 59 0;
#X connect 18 15 53 0;
#X connect 18 16 54 0;
#X connect 18 17 55 0;
#X connect 18 18 56 0;
#X connect 18 19 57 0;
#X connect 18 20 58 0;
#X connect 18 21 46 0;
#X connect 27 0 28 0;
#X connect 27 1 61 0;
#X connect 28 0 44 0;
#X connect 65 0 70 0;
#X connect 65 1 68 0;
#X connect 65 2 87 0;
#X connect 65 3 69 0;
#X connect 65 4 88 0;
#X connect 65 5 71 0;
#X connect 65 6 72 0;
#X connect 65 7 74 0;
#X connect 65 8 76 0;
#X connect 65 9 75 0;
#X connect 68 0 91 0;
#X connect 68 0 100 0;
#X connect 69 0 91 0;
#X connect 70 0 91 0;
#X connect 71 0 91 0;
#X connect 72 0 91 0;
#X connect 74 0 91 0;
#X connect 75 0 91 0;
#X connect 76 0 91 0;
#X connect 87 0 91 0;
#X connect 87 0 103 0;
#X connect 88 0 91 0;
#X connect 89 0 93 0;
#X connect 89 1 95 0;
#X connect 89 2 96 0;
#X connect 93 0 94 0;
#X connect 94 0 90 0;
#X connect 94 1 92 0;
#X connect 95 0 90 0;
#X connect 96 0 90 0;
#X connect 98 0 97 0;
#X connect 99 0 102 0;
#X connect 99 1 104 0;
#X connect 100 0 101 0;
#X connect 101 0 97 0;
#X connect 102 0 97 0;
#X connect 103 0 98 0;
#X connect 104 0 97 0;
