#N canvas 67 269 1576 587 10;
#X obj 179 147 < 8;
#X obj 179 259 > 15;
#X msg 179 283 color 0 \$1 0;
#X msg 179 229 color 0 \$1 0;
#X msg 179 175 color 0 \$1 0;
#X floatatom 179 110 5 0 0 0 - - -, f 5;
#X msg 279 175 set \$1;
#X obj 279 127 % 8;
#X msg 279 229 set \$1;
#X msg 279 283 set \$1;
#X obj 1131 507 Presetter;
#X obj 342 75 + 8;
#X obj 1186 336 + 16;
#X obj 15 92 < 8;
#X obj 15 255 > 15;
#X msg 15 283 color 0 \$1 0;
#X msg 15 229 color 0 \$1 0;
#X msg 15 175 color 0 \$1 0;
#X msg 105 175 set \$1;
#X msg 105 229 set \$1;
#X msg 105 283 set \$1;
#X obj 872 431 + 8;
#X obj 1235 336 + 16;
#X floatatom 15 67 5 0 0 0 - - -, f 5;
#X obj 105 84 % 8;
#X floatatom 1186 93 5 0 0 0 - - -, f 5;
#X floatatom 1182 449 5 0 0 0 - - -, f 5;
#X obj 1242 67 r to_global_presets;
#X obj 332 171 cnv 15 830 248 empty empty empty 20 12 0 14 -233017
-66577 0;
#X obj 342 193 hradio 35 1 0 8 empty empty empty -15 10 0 4 -262144
-262144 -262144 3;
#X obj 342 247 hradio 35 1 0 8 empty empty empty -15 10 0 4 -262144
-262144 -262144 3;
#X obj 342 301 hradio 35 1 0 8 empty empty empty -15 10 0 4 -262144
-262144 -262144 3;
#X obj 872 193 hradio 35 1 0 8 empty empty empty -15 10 0 4 -262144
-262144 -262144 7;
#X obj 872 247 hradio 35 1 0 8 empty empty empty -15 10 0 4 -262144
-262144 -262144 7;
#X obj 872 301 hradio 35 1 0 8 empty empty empty -15 10 0 4 -262144
-166441 -262144 7;
#X msg 342 466 color 0 0 0;
#X msg 872 466 color 0 0 0;
#X obj 1402 15 r to_secondary_globals;
#X msg 1322 157 \$1 \$1;
#X obj 1176 175 route 0 1 2 3 4 5 6 7;
#X obj 1367 175 route 0 1 2 3 4 5 6 7;
#X msg 1450 132 \$1 \$1;
#X obj 1322 182 - 8;
#X msg 1322 211 \$1 \$1;
#X obj 1176 229 route 0 1 2 3 4 5 6 7;
#X obj 1176 283 route 0 1 2 3 4 5 6 7;
#X msg 1322 265 \$1 \$1;
#X obj 1322 236 - 16;
#X obj 1402 62 - 8;
#X msg 1402 91 \$1 \$1;
#X msg 1402 145 \$1 \$1;
#X obj 1402 116 - 16;
#X obj 1369 229 route 0 1 2 3 4 5 6 7;
#X obj 1369 283 route 0 1 2 3 4 5 6 7;
#X obj 522 348 Meta-Controls;
#X msg 1450 44 15;
#X floatatom 113 109 5 0 0 0 - - -, f 5;
#X obj 15 202 expr (($f1>7)&($f1<=15));
#X obj 179 201 expr (($f1>7)&($f1<=15));
#X obj 978 507 Preset-Button-Numbering;
#X obj 632 194 Transitioner-Control-Box;
#X text 346 231 STAT SIREN ORGY. HUM . HUM2 GRIND GRND2 C#MIN;
#X text 871 231 HUM2 BACKG SIREN SCRCH. SALT GRNDR KETTL STATC;
#X text 879 177 OFF. HALO. REED. SERP. WIND CHORD WHIST HUM;
#X text 350 177 OFF..WHIT. WIND. DMAJ DCHLF WHIST AMIN GLISS;
#X obj 155 396 Melodier;
#X text 348 285 TON . 3RD .OCT. ????? RHSHF TRAN1 TRAN2 TRAN3;
#X text 872 285 NOISE SELFS PAIR. D.C. DCREV DCSIG DCSLF SAMPL;
#X connect 0 0 4 0;
#X connect 1 0 2 0;
#X connect 2 0 31 0;
#X connect 3 0 30 0;
#X connect 4 0 29 0;
#X connect 5 0 0 0;
#X connect 5 0 1 0;
#X connect 5 0 7 0;
#X connect 5 0 58 0;
#X connect 6 0 29 0;
#X connect 7 0 6 0;
#X connect 7 0 8 0;
#X connect 7 0 9 0;
#X connect 8 0 30 0;
#X connect 9 0 31 0;
#X connect 11 0 25 0;
#X connect 12 0 25 0;
#X connect 13 0 17 0;
#X connect 14 0 15 0;
#X connect 15 0 34 0;
#X connect 16 0 33 0;
#X connect 17 0 32 0;
#X connect 18 0 32 0;
#X connect 19 0 33 0;
#X connect 20 0 34 0;
#X connect 21 0 26 0;
#X connect 22 0 26 0;
#X connect 23 0 24 0;
#X connect 23 0 13 0;
#X connect 23 0 14 0;
#X connect 23 0 57 0;
#X connect 24 0 18 0;
#X connect 24 0 19 0;
#X connect 24 0 20 0;
#X connect 24 0 56 0;
#X connect 25 0 5 0;
#X connect 25 0 36 0;
#X connect 25 0 10 0;
#X connect 26 0 23 0;
#X connect 26 0 35 0;
#X connect 26 0 10 1;
#X connect 27 0 38 0;
#X connect 27 0 42 0;
#X connect 27 0 47 0;
#X connect 29 0 25 0;
#X connect 30 0 11 0;
#X connect 31 0 12 0;
#X connect 32 0 26 0;
#X connect 33 0 21 0;
#X connect 34 0 22 0;
#X connect 35 0 29 0;
#X connect 35 0 31 0;
#X connect 35 0 30 0;
#X connect 36 0 32 0;
#X connect 36 0 33 0;
#X connect 36 0 34 0;
#X connect 37 0 41 0;
#X connect 37 0 48 0;
#X connect 37 0 51 0;
#X connect 38 0 39 0;
#X connect 39 0 29 0;
#X connect 39 1 29 0;
#X connect 39 2 29 0;
#X connect 39 3 29 0;
#X connect 39 4 29 0;
#X connect 39 5 29 0;
#X connect 39 6 29 0;
#X connect 39 7 29 0;
#X connect 40 0 32 0;
#X connect 40 1 32 0;
#X connect 40 2 32 0;
#X connect 40 3 32 0;
#X connect 40 4 32 0;
#X connect 40 5 32 0;
#X connect 40 6 32 0;
#X connect 40 7 32 0;
#X connect 41 0 40 0;
#X connect 42 0 43 0;
#X connect 43 0 44 0;
#X connect 44 0 30 0;
#X connect 44 1 30 0;
#X connect 44 2 30 0;
#X connect 44 3 30 0;
#X connect 44 4 30 0;
#X connect 44 5 30 0;
#X connect 44 6 30 0;
#X connect 44 7 30 0;
#X connect 45 0 31 0;
#X connect 45 1 31 0;
#X connect 45 2 31 0;
#X connect 45 3 31 0;
#X connect 45 4 31 0;
#X connect 45 5 31 0;
#X connect 45 6 31 0;
#X connect 45 7 31 0;
#X connect 46 0 45 0;
#X connect 47 0 46 0;
#X connect 48 0 49 0;
#X connect 49 0 52 0;
#X connect 50 0 53 0;
#X connect 51 0 50 0;
#X connect 52 0 33 0;
#X connect 52 1 33 0;
#X connect 52 2 33 0;
#X connect 52 3 33 0;
#X connect 52 4 33 0;
#X connect 52 5 33 0;
#X connect 52 6 33 0;
#X connect 52 7 33 0;
#X connect 53 0 34 0;
#X connect 53 1 34 0;
#X connect 53 2 34 0;
#X connect 53 3 34 0;
#X connect 53 4 34 0;
#X connect 53 5 34 0;
#X connect 53 6 34 0;
#X connect 53 7 34 0;
#X connect 55 0 41 0;
#X connect 55 0 48 0;
#X connect 57 0 16 0;
#X connect 58 0 3 0;
#X coords 0 -1 1 1 832 250 2 331 170;
