#N canvas 78 202 1368 870 12;
#X obj 268 324 route 1 2 3;
#X obj 479 354 unpack;
#X obj 518 405 sel 0;
#X msg 518 489 0;
#X obj 454 519 Gate;
#X msg 550 489 1;
#X obj 292 354 unpack;
#X obj 331 408 sel 0;
#X msg 331 489 0;
#X obj 267 519 Gate;
#X msg 363 489 1;
#X obj 102 354 unpack;
#X obj 141 408 sel 0;
#X msg 141 489 0;
#X obj 77 519 Gate;
#X msg 173 489 1;
#X obj 21 727 s ugen0-external-vol;
#X obj 53 665 s gliss-length-vols;
#X msg 146 696 0;
#X obj 107 614 t b b b b;
#X msg 107 696 1;
#X obj 127 640 f;
#X obj 238 665 s gliss-length-vols;
#X msg 332 696 0;
#X obj 292 614 t b b b b;
#X msg 292 696 1;
#X obj 312 640 f;
#X obj 206 727 s ugen1-external-vol;
#X obj 431 665 s gliss-length-vols;
#X msg 525 696 0;
#X obj 485 614 t b b b b;
#X msg 485 696 1;
#X obj 505 640 f;
#X obj 399 727 s ugen2-external-vol;
#X floatatom 592 589 5 0 0 0 - - - 0;
#X obj 602 494 loadbang;
#X msg 592 556 0;
#X obj 21 418 tgl 15 0 empty empty empty 17 7 0 10 #fcfcfc #000000
#000000 0 1;
#X obj 21 468 + 1;
#X obj 21 387 r stacc-leg-onoff;
#X obj 206 428 tgl 15 0 empty empty empty 17 7 0 10 #fcfcfc #000000
#000000 0 1;
#X obj 206 387 r stacc-leg-onoff;
#X obj 399 428 tgl 15 0 empty empty empty 17 7 0 10 #fcfcfc #000000
#000000 0 1;
#X obj 399 478 + 1;
#X obj 399 387 r stacc-leg-onoff;
#X obj 592 415 r gliss-length-vols-master;
#X obj 206 509 Gate;
#X obj 206 478 + 1;
#X obj 21 509 Gate;
#X obj 399 509 Gate;
#X msg 167 640 0;
#X msg 352 640 0;
#X msg 545 641 0;
#X obj 53 634 f;
#X obj 21 608 t f b;
#X obj 238 634 f;
#X obj 206 608 t f b;
#X obj 399 608 t f b;
#X obj 431 638 f;
#X obj 71 608 * 3;
#X obj 256 608 * 3;
#X obj 449 608 * 3;
#X obj 904 297 s source-levels-0;
#X msg 904 265 0 0 0 0 1;
#X msg 921 243 0 0 0 1 0;
#X msg 938 221 1 0 0 0 0;
#X msg 955 199 0 1 0 0 0;
#X msg 972 177 1 1 1 0 0;
#X obj 904 126 f;
#X obj 904 102 r to-keyboard-sources;
#X obj 1059 150 sel 0 1 2 3 4;
#X obj 1059 126 f;
#X obj 1059 102 r to-keyboard-sources;
#X obj 1214 150 sel 0 1 2 3 4;
#X obj 1214 126 f;
#X obj 1214 102 r to-keyboard-sources;
#X obj 268 175 mtof;
#X obj 268 204 expr (44100/$f1);
#X floatatom 268 109 5 0 0 0 - - - 0;
#X obj 151 89 notein;
#X obj 268 233 pack, f 10;
#X obj 268 293 pack f f f;
#X obj 268 262 poly 3 1, f 10;
#X floatatom 335 109 5 0 0 0 - - - 0;
#X obj 151 159 / 12;
#X obj 151 190 int;
#X floatatom 151 221 5 0 0 0 - - - 0;
#X obj 335 165 *;
#X obj 151 251 expr (9/$f1);
#X obj 268 78 unpack, f 10;
#X obj 341 139 t b f;
#X obj 268 139 t f f;
#X obj 151 128 s note-value;
#X obj 268 47 r keyboard_bypass_from_melodier;
#X text 102 221 Octave;
#X obj 1040 78 sel 1 2 3;
#X msg 1059 265 0 0 0 0 1;
#X msg 1076 243 0 0 0 1 0;
#X msg 1129 177 1 1 1 0 0;
#X msg 1094 221 0 1 0 0 0;
#X msg 1111 199 0 0 1 0 0;
#X msg 1214 265 0 0 0 0 1;
#X msg 1231 243 0 0 0 1 0;
#X msg 1284 177 1 1 1 0 0;
#X obj 1061 295 s source-levels-1;
#X msg 1266 199 1 0 0 0 0;
#X msg 1249 221 0 0 1 0 0;
#X obj 1214 297 s source-levels-2;
#X obj 208 89 t f f;
#X obj 246 469 del;
#X obj 444 469 del;
#X obj 62 469 del;
#X obj 570 449 r note_length;
#X obj 246 428 bng 15 250 50 0 empty empty empty 17 7 0 10 #fcfcfc
#000000 #000000;
#X obj 62 428 bng 15 250 50 0 empty empty empty 17 7 0 10 #fcfcfc #000000
#000000;
#X obj 444 425 bng 15 250 50 0 empty empty empty 17 7 0 10 #fcfcfc
#000000 #000000;
#X obj 972 58 spigot;
#X obj 1011 34 r melodier-sources;
#X floatatom 592 621 5 0 0 0 - - - 0;
#X obj 904 150 sel 0 1 2 3 4 5;
#X text 1338 199 DC;
#X text 1246 176 ORGY;
#X text 1318 221 SELF;
#X text 1302 243 SIG;
#X text 1285 266 NOISE;
#X obj 357 293 s Keyboard_Source_Levels;
#X obj 972 10 r Keyboard_Source_Levels;
#X obj 57 541 s fadertrim-0;
#X obj 57 567 s fadertrim-3;
#X obj 268 567 s fadertrim-4;
#X obj 267 541 s fadertrim-1;
#X obj 454 541 s fadertrim-2;
#X obj 454 567 s fadertrim-5;
#X connect 0 0 11 0;
#X connect 0 1 6 0;
#X connect 0 2 1 0;
#X connect 1 0 4 1;
#X connect 1 1 2 0;
#X connect 2 0 3 0;
#X connect 2 1 5 0;
#X connect 2 1 115 0;
#X connect 2 1 132 0;
#X connect 3 0 49 1;
#X connect 4 0 131 0;
#X connect 5 0 4 0;
#X connect 5 0 30 0;
#X connect 6 0 9 1;
#X connect 6 1 7 0;
#X connect 7 0 8 0;
#X connect 7 1 10 0;
#X connect 7 1 113 0;
#X connect 7 1 129 0;
#X connect 8 0 46 1;
#X connect 9 0 130 0;
#X connect 10 0 9 0;
#X connect 10 0 24 0;
#X connect 11 0 14 1;
#X connect 11 1 12 0;
#X connect 12 0 13 0;
#X connect 12 1 15 0;
#X connect 12 1 114 0;
#X connect 12 1 128 0;
#X connect 13 0 48 1;
#X connect 14 0 127 0;
#X connect 15 0 14 0;
#X connect 15 0 19 0;
#X connect 18 0 16 0;
#X connect 19 0 20 0;
#X connect 19 1 21 0;
#X connect 19 2 18 0;
#X connect 19 3 50 0;
#X connect 20 0 16 0;
#X connect 21 0 17 0;
#X connect 23 0 27 0;
#X connect 24 0 25 0;
#X connect 24 1 26 0;
#X connect 24 2 23 0;
#X connect 24 3 51 0;
#X connect 25 0 27 0;
#X connect 26 0 22 0;
#X connect 29 0 33 0;
#X connect 30 0 31 0;
#X connect 30 1 32 0;
#X connect 30 2 29 0;
#X connect 30 3 52 0;
#X connect 31 0 33 0;
#X connect 32 0 28 0;
#X connect 34 0 59 0;
#X connect 34 0 60 0;
#X connect 34 0 61 0;
#X connect 34 0 118 0;
#X connect 35 0 36 0;
#X connect 36 0 34 0;
#X connect 37 0 38 0;
#X connect 38 0 48 0;
#X connect 39 0 37 0;
#X connect 40 0 47 0;
#X connect 41 0 40 0;
#X connect 42 0 43 0;
#X connect 43 0 49 0;
#X connect 44 0 42 0;
#X connect 45 0 34 0;
#X connect 46 0 56 0;
#X connect 47 0 46 0;
#X connect 48 0 54 0;
#X connect 49 0 57 0;
#X connect 50 0 17 0;
#X connect 51 0 22 0;
#X connect 52 0 28 0;
#X connect 53 0 17 0;
#X connect 54 0 16 0;
#X connect 54 1 53 0;
#X connect 55 0 22 0;
#X connect 56 0 27 0;
#X connect 56 1 55 0;
#X connect 57 0 33 0;
#X connect 57 1 58 0;
#X connect 58 0 28 0;
#X connect 59 0 53 1;
#X connect 60 0 55 1;
#X connect 61 0 58 1;
#X connect 63 0 62 0;
#X connect 64 0 62 0;
#X connect 65 0 62 0;
#X connect 66 0 62 0;
#X connect 67 0 62 0;
#X connect 68 0 119 0;
#X connect 69 0 68 1;
#X connect 70 0 96 0;
#X connect 70 1 97 0;
#X connect 70 2 99 0;
#X connect 70 3 100 0;
#X connect 70 4 98 0;
#X connect 71 0 70 0;
#X connect 72 0 71 1;
#X connect 73 0 101 0;
#X connect 73 1 102 0;
#X connect 73 2 106 0;
#X connect 73 3 105 0;
#X connect 73 4 103 0;
#X connect 74 0 73 0;
#X connect 75 0 74 1;
#X connect 76 0 77 0;
#X connect 77 0 80 0;
#X connect 78 0 91 0;
#X connect 78 0 92 0;
#X connect 79 0 108 0;
#X connect 79 1 83 0;
#X connect 80 0 82 0;
#X connect 81 0 0 0;
#X connect 82 0 81 0;
#X connect 82 0 125 0;
#X connect 82 1 81 1;
#X connect 82 2 81 2;
#X connect 83 0 87 0;
#X connect 84 0 85 0;
#X connect 85 0 86 0;
#X connect 86 0 88 0;
#X connect 87 0 80 1;
#X connect 88 0 90 0;
#X connect 89 0 78 0;
#X connect 89 1 83 0;
#X connect 90 0 87 0;
#X connect 90 1 87 1;
#X connect 91 0 76 0;
#X connect 91 1 84 0;
#X connect 93 0 89 0;
#X connect 95 0 68 0;
#X connect 95 1 71 0;
#X connect 95 2 74 0;
#X connect 96 0 104 0;
#X connect 97 0 104 0;
#X connect 98 0 104 0;
#X connect 99 0 104 0;
#X connect 100 0 104 0;
#X connect 101 0 107 0;
#X connect 102 0 107 0;
#X connect 103 0 107 0;
#X connect 105 0 107 0;
#X connect 106 0 107 0;
#X connect 108 0 78 0;
#X connect 109 0 8 0;
#X connect 110 0 3 0;
#X connect 111 0 13 0;
#X connect 112 0 109 1;
#X connect 112 0 110 1;
#X connect 112 0 111 1;
#X connect 113 0 109 0;
#X connect 114 0 111 0;
#X connect 115 0 110 0;
#X connect 116 0 95 0;
#X connect 117 0 116 1;
#X connect 118 0 32 0;
#X connect 118 0 26 0;
#X connect 118 0 21 0;
#X connect 119 0 63 0;
#X connect 119 1 64 0;
#X connect 119 2 65 0;
#X connect 119 3 66 0;
#X connect 119 4 67 0;
#X connect 126 0 116 0;
