#N canvas 67 87 1853 993 10;
#X obj 122 617 * 12;
#X obj 107 672 +;
#X obj 107 644 t b f;
#X floatatom 107 701 5 0 0 0 - - -, f 5;
#X floatatom 107 588 5 0 0 0 - - -, f 5;
#X floatatom 517 600 5 0 0 0 - - -, f 5;
#X text 142 589 Note;
#X text 553 602 Octave;
#X msg 122 86 0;
#X obj 107 284 f;
#X obj 140 284 + 1;
#X obj 15 318 tabwrite possible_notes;
#X obj 15 266 t f b;
#X obj 15 347 table possible_notes;
#X obj 15 68 t f b;
#X floatatom 15 40 5 0 0 0 - - -, f 5;
#X text 50 41 Set Possible Notes;
#X obj 15 97 sel 0 1 2;
#X msg 532 86 0;
#X obj 517 284 f;
#X obj 550 284 + 1;
#X obj 425 266 t f b;
#X obj 425 68 t f b;
#X floatatom 425 40 5 0 0 0 - - -, f 5;
#X obj 425 97 sel 0 1 2;
#X msg 442 208;
#X text 460 41 Set Possible Octaves;
#X obj 425 318 tabwrite possible_octaves;
#X obj 425 347 table possible_octaves;
#X msg 742 86 0;
#X obj 727 284 f;
#X obj 760 284 + 1;
#X obj 635 266 t f b;
#X obj 635 68 t f b;
#X floatatom 635 40 5 0 0 0 - - -, f 5;
#X obj 635 97 sel 0 1 2;
#X msg 652 208;
#X text 670 41 Set Possible Sources;
#X obj 635 318 tabwrite possible_sources;
#X obj 635 347 table possible_sources;
#X floatatom 107 376 5 0 0 0 - - -, f 5;
#X text 141 378 Max;
#X floatatom 517 376 5 0 0 0 - - -, f 5;
#X text 551 378 Max;
#X floatatom 727 376 5 0 0 0 - - -, f 5;
#X text 761 378 Max;
#X msg 952 86 0;
#X obj 937 284 f;
#X obj 970 284 + 1;
#X obj 845 266 t f b;
#X obj 845 68 t f b;
#X floatatom 845 40 5 0 0 0 - - -, f 5;
#X obj 845 97 sel 0 1 2;
#X msg 862 208;
#X floatatom 937 376 5 0 0 0 - - -, f 5;
#X text 971 378 Max;
#X text 880 41 Set Possible Times;
#X obj 845 318 tabwrite possible_times;
#X obj 845 347 table possible_times;
#X msg 333 86 0;
#X obj 318 284 f;
#X obj 351 284 + 1;
#X obj 226 266 t f b;
#X obj 226 68 t f b;
#X floatatom 226 40 5 0 0 0 - - -, f 5;
#X obj 226 97 sel 0 1 2;
#X floatatom 318 376 5 0 0 0 - - -, f 5;
#X text 352 378 Max;
#X text 261 41 Set Possible Velocities;
#X obj 226 318 tabwrite possible_vels;
#X obj 226 347 table possible_vels;
#X msg 1142 86 0;
#X obj 1127 284 f;
#X obj 1160 284 + 1;
#X obj 1035 266 t f b;
#X obj 1035 68 t f b;
#X floatatom 1035 40 5 0 0 0 - - -, f 5;
#X obj 1035 97 sel 0 1 2;
#X msg 1052 208;
#X floatatom 1127 376 5 0 0 0 - - -, f 5;
#X text 1161 378 Max;
#X obj 1035 318 tabwrite possible_glisses;
#X obj 1035 347 table possible_glisses;
#X obj 107 553 tabread possible_notes;
#X floatatom 140 402 5 0 0 0 - - -, f 5;
#X floatatom 173 430 5 0 0 0 - - -, f 5;
#X obj 517 553 tabread possible_octaves;
#X obj 727 553 tabread possible_sources;
#X obj 937 553 tabread possible_times;
#X obj 318 553 tabread possible_vels;
#X obj 181 718 pack;
#X obj 1127 553 tabread possible_glisses;
#X obj 914 714 metro;
#X obj 914 662 tgl 15 0 empty empty empty 17 7 0 10 -262144 -1 -1 0
1;
#X floatatom 937 691 5 0 0 0 - - -, f 5;
#X obj 914 743 f;
#X obj 957 743 + 1;
#X obj 914 801 s melodier-get-index-all;
#X obj 1396 468 r melodier-get-index-all;
#X obj 985 662 bng 15 250 50 0 empty empty empty 17 7 0 10 -262144
-1 -1;
#X text 877 660 PLAY;
#X text 1004 661 RESET;
#X msg 985 694 0;
#X obj 181 747 s keyboard_bypass;
#X obj 727 610 s to_source_presets;
#X obj 1127 609 s to_gliss_presets;
#X floatatom 107 522 5 0 0 0 - - -, f 5;
#X floatatom 517 522 5 0 0 0 - - -, f 5;
#X floatatom 727 522 5 0 0 0 - - -, f 5;
#X floatatom 937 522 5 0 0 0 - - -, f 5;
#X floatatom 318 522 5 0 0 0 - - -, f 5;
#X floatatom 1127 522 5 0 0 0 - - -, f 5;
#X floatatom 727 582 5 0 0 0 - - -, f 5;
#X floatatom 318 701 5 0 0 0 - - -, f 5;
#X floatatom 1127 582 5 0 0 0 - - -, f 5;
#X obj 914 772 %;
#X obj 1589 22 unpack f f f f f f;
#X msg 1589 53 0 0 0 0 0 0;
#X text 173 403 Exp;
#X obj 206 460 bng 15 250 50 0 empty empty empty 17 7 0 10 -262144
-1 -1;
#X floatatom 239 412 5 0 0 0 - - -, f 5;
#X text 206 432 Iters;
#X text 224 459 Generate;
#X text 272 413 Topo;
#X floatatom 550 402 5 0 0 0 - - -, f 5;
#X floatatom 583 430 5 0 0 0 - - -, f 5;
#X text 583 403 Exp;
#X obj 616 460 bng 15 250 50 0 empty empty empty 17 7 0 10 -262144
-1 -1;
#X floatatom 649 412 5 0 0 0 - - -, f 5;
#X text 616 432 Iters;
#X text 634 459 Generate;
#X text 682 413 Topo;
#X floatatom 760 402 5 0 0 0 - - -, f 5;
#X floatatom 793 430 5 0 0 0 - - -, f 5;
#X text 793 403 Exp;
#X obj 826 460 bng 15 250 50 0 empty empty empty 17 7 0 10 -262144
-1 -1;
#X floatatom 859 412 5 0 0 0 - - -, f 5;
#X text 826 432 Iters;
#X text 844 459 Generate;
#X text 892 413 Topo;
#X floatatom 970 402 5 0 0 0 - - -, f 5;
#X floatatom 1003 430 5 0 0 0 - - -, f 5;
#X text 1003 403 Exp;
#X obj 1036 460 bng 15 250 50 0 empty empty empty 17 7 0 10 -262144
-1 -1;
#X floatatom 1069 412 5 0 0 0 - - -, f 5;
#X text 1036 432 Iters;
#X text 1054 459 Generate;
#X text 1102 413 Topo;
#X floatatom 351 402 5 0 0 0 - - -, f 5;
#X floatatom 384 430 5 0 0 0 - - -, f 5;
#X text 384 403 Exp;
#X obj 417 460 bng 15 250 50 0 empty empty empty 17 7 0 10 -262144
-1 -1;
#X floatatom 450 412 5 0 0 0 - - -, f 5;
#X text 417 432 Iters;
#X text 435 459 Generate;
#X text 487 412 Topo;
#X floatatom 1160 402 5 0 0 0 - - -, f 5;
#X floatatom 1193 430 5 0 0 0 - - -, f 5;
#X text 1193 403 Exp;
#X obj 1226 460 bng 15 250 50 0 empty empty empty 17 7 0 10 -262144
-1 -1;
#X floatatom 1259 412 5 0 0 0 - - -, f 5;
#X text 1226 432 Iters;
#X text 1244 459 Generate;
#X text 1292 413 Topo;
#X obj 1304 384 unpack f f f f f f;
#X floatatom 1351 413 5 0 0 0 - - -, f 5;
#X text 1384 414 Iterations;
#X obj 1560 394 unpack f f f f f f;
#X text 1637 366 Topology;
#X text 1312 360 Exponent multiplier;
#X obj 1581 430 bng 30 250 50 0 empty empty empty 17 7 0 10 -262144
-1 -1;
#X obj 945 583 s gliss-length-receive;
#X obj 318 486 Melodier-Statfeed-Subpatch 4;
#X msg 1561 336 1 1 1 1 1 1;
#X msg 226 237 70 \, 100 \, 100 \, 100 \, 100 \, 50 \, 100;
#X msg 1304 322 0.5 0.5 0.5 0.5 0.5 0.5;
#X msg 1561 307 2 2 2 2 2 2;
#X msg 15 237 0 \, 0 \, 2 \, 4 \, 5 \, 7 \, 9 \, 11;
#X msg 635 237 11 \, 11 \, 11 \, 15 \, 17 \, 2 \, 3;
#X msg 1035 237 0 \, 1 \, 0 \, 4 \, 0 \, 0 \, 1;
#X msg 425 237 4 \, 3 \, 5 \, 4 \, 3 \, 4 \, 4;
#X msg 845 237 250 \, 250 \, 250;
#X obj 914 627 r melodier-playstop;
#X obj 1054 644 r melodier-reset;
#X text 1070 41 Set Possible Gliss Preset;
#X obj 1458 51 sel 0 1 2 3 4;
#X msg 1303 293 0.25 0.25 0.25 0.25 0.25 0.25;
#X msg 1303 264 1 1 1 1 1 1;
#X msg 1303 235 2 2 2 2 2 2;
#X obj 1209 217 sel 0 1 2 3;
#X msg 1560 365 0 0 0 0 0 0;
#X obj 1492 289 sel 0 1 2;
#X obj 1717 35 sel 0 1 2 3;
#X msg 1458 170 0 0 0;
#X obj 1458 199 unpack f f f;
#X obj 1351 73 r melodier-iters;
#X obj 1632 432 r melodier-generatenew;
#X obj 1458 12 r melodier-presets;
#X text 356 700 Velocity;
#X text 108 719 Note;
#X obj 107 486 Melodier-Statfeed-Subpatch 0;
#X obj 517 486 Melodier-Statfeed-Subpatch 1;
#X obj 727 486 Melodier-Statfeed-Subpatch 2;
#X obj 937 486 Melodier-Statfeed-Subpatch 3;
#X obj 1127 486 Melodier-Statfeed-Subpatch 5;
#X obj 1647 468 r melodier-randomize;
#X obj 1351 102 sel 0 1 2 3;
#X msg 1351 143 8;
#X msg 1352 162 16;
#X msg 1351 181 32;
#X msg 1351 200 64;
#X msg 32 208 0 \, 2 \, 3 \, 5 \, 7 \, 8 \, 10 \, 0;
#X msg 49 179 0 \, 2 \, 4 \, 7 \, 9 \, 0;
#X msg 243 208 100 \, 50 \, 10 \, 10 \, 10;
#X text 1561 461 GENERATE NEW;
#X msg 1473 141 1 1 1;
#X msg 1488 112 2 2 2;
#X msg 1589 82 1 1 1 1 1 1;
#X msg 1589 111 2 2 2 2 2 2;
#X obj 1147 790 ==;
#X obj 1351 772 - 1;
#X obj 1147 819 sel 1;
#X obj 1581 837 spigot;
#X obj 1614 808 r melodier-regenerate;
#X connect 0 0 2 0;
#X connect 1 0 3 0;
#X connect 2 0 1 0;
#X connect 2 1 1 1;
#X connect 3 0 90 0;
#X connect 4 0 1 0;
#X connect 5 0 0 0;
#X connect 8 0 9 1;
#X connect 9 0 10 0;
#X connect 9 0 11 1;
#X connect 9 0 40 0;
#X connect 10 0 9 1;
#X connect 12 0 11 0;
#X connect 12 1 9 0;
#X connect 14 0 17 0;
#X connect 14 1 8 0;
#X connect 15 0 14 0;
#X connect 17 0 177 0;
#X connect 17 1 211 0;
#X connect 17 2 212 0;
#X connect 18 0 19 1;
#X connect 19 0 20 0;
#X connect 19 0 27 1;
#X connect 19 0 42 0;
#X connect 20 0 19 1;
#X connect 21 0 27 0;
#X connect 21 1 19 0;
#X connect 22 0 24 0;
#X connect 22 1 18 0;
#X connect 23 0 22 0;
#X connect 24 0 180 0;
#X connect 24 1 25 0;
#X connect 29 0 30 1;
#X connect 30 0 31 0;
#X connect 30 0 38 1;
#X connect 30 0 44 0;
#X connect 31 0 30 1;
#X connect 32 0 38 0;
#X connect 32 1 30 0;
#X connect 33 0 35 0;
#X connect 33 1 29 0;
#X connect 34 0 33 0;
#X connect 35 0 178 0;
#X connect 35 1 36 0;
#X connect 40 0 200 0;
#X connect 42 0 201 0;
#X connect 44 0 202 0;
#X connect 46 0 47 1;
#X connect 47 0 48 0;
#X connect 47 0 54 0;
#X connect 47 0 57 1;
#X connect 48 0 47 1;
#X connect 49 0 57 0;
#X connect 49 1 47 0;
#X connect 50 0 52 0;
#X connect 50 1 46 0;
#X connect 51 0 50 0;
#X connect 52 0 181 0;
#X connect 52 1 53 0;
#X connect 54 0 203 0;
#X connect 59 0 60 1;
#X connect 60 0 61 0;
#X connect 60 0 66 0;
#X connect 60 0 69 1;
#X connect 61 0 60 1;
#X connect 62 0 69 0;
#X connect 62 1 60 0;
#X connect 63 0 65 0;
#X connect 63 1 59 0;
#X connect 64 0 63 0;
#X connect 65 0 174 0;
#X connect 65 1 213 0;
#X connect 66 0 172 0;
#X connect 71 0 72 1;
#X connect 72 0 73 0;
#X connect 72 0 79 0;
#X connect 72 0 81 1;
#X connect 73 0 72 1;
#X connect 74 0 81 0;
#X connect 74 1 72 0;
#X connect 75 0 77 0;
#X connect 75 1 71 0;
#X connect 76 0 75 0;
#X connect 77 0 179 0;
#X connect 77 1 78 0;
#X connect 79 0 204 0;
#X connect 83 0 4 0;
#X connect 84 0 200 1;
#X connect 85 0 200 2;
#X connect 86 0 5 0;
#X connect 87 0 112 0;
#X connect 88 0 94 0;
#X connect 88 0 171 0;
#X connect 89 0 113 0;
#X connect 90 0 103 0;
#X connect 91 0 114 0;
#X connect 92 0 95 0;
#X connect 93 0 92 0;
#X connect 94 0 92 1;
#X connect 95 0 96 0;
#X connect 95 0 115 0;
#X connect 96 0 95 1;
#X connect 98 0 172 5;
#X connect 98 0 200 5;
#X connect 98 0 201 5;
#X connect 98 0 202 5;
#X connect 98 0 203 5;
#X connect 98 0 204 5;
#X connect 99 0 102 0;
#X connect 102 0 95 1;
#X connect 106 0 83 0;
#X connect 107 0 86 0;
#X connect 108 0 87 0;
#X connect 109 0 88 0;
#X connect 110 0 89 0;
#X connect 111 0 91 0;
#X connect 112 0 104 0;
#X connect 113 0 90 1;
#X connect 114 0 105 0;
#X connect 115 0 97 0;
#X connect 115 0 219 0;
#X connect 116 0 15 0;
#X connect 116 1 23 0;
#X connect 116 2 34 0;
#X connect 116 3 51 0;
#X connect 116 4 64 0;
#X connect 116 5 76 0;
#X connect 117 0 116 0;
#X connect 119 0 200 3;
#X connect 120 0 200 4;
#X connect 124 0 201 1;
#X connect 125 0 201 2;
#X connect 127 0 201 3;
#X connect 128 0 201 4;
#X connect 132 0 202 1;
#X connect 133 0 202 2;
#X connect 135 0 202 3;
#X connect 136 0 202 4;
#X connect 140 0 203 1;
#X connect 141 0 203 2;
#X connect 143 0 203 3;
#X connect 144 0 203 4;
#X connect 148 0 172 1;
#X connect 149 0 172 2;
#X connect 151 0 172 3;
#X connect 152 0 172 4;
#X connect 156 0 204 1;
#X connect 157 0 204 2;
#X connect 159 0 204 3;
#X connect 160 0 204 4;
#X connect 164 0 84 0;
#X connect 164 1 124 0;
#X connect 164 2 132 0;
#X connect 164 3 140 0;
#X connect 164 4 148 0;
#X connect 164 5 156 0;
#X connect 165 0 157 0;
#X connect 165 0 149 0;
#X connect 165 0 141 0;
#X connect 165 0 133 0;
#X connect 165 0 125 0;
#X connect 165 0 85 0;
#X connect 165 0 115 1;
#X connect 165 0 220 0;
#X connect 167 0 120 0;
#X connect 167 1 128 0;
#X connect 167 2 136 0;
#X connect 167 3 144 0;
#X connect 167 4 152 0;
#X connect 167 5 160 0;
#X connect 170 0 159 0;
#X connect 170 0 151 0;
#X connect 170 0 143 0;
#X connect 170 0 135 0;
#X connect 170 0 127 0;
#X connect 170 0 119 0;
#X connect 172 0 110 0;
#X connect 173 0 167 0;
#X connect 174 0 62 0;
#X connect 175 0 164 0;
#X connect 176 0 167 0;
#X connect 177 0 12 0;
#X connect 178 0 32 0;
#X connect 179 0 74 0;
#X connect 180 0 21 0;
#X connect 181 0 49 0;
#X connect 182 0 93 0;
#X connect 183 0 99 0;
#X connect 185 0 193 0;
#X connect 185 1 215 0;
#X connect 185 2 216 0;
#X connect 186 0 164 0;
#X connect 187 0 164 0;
#X connect 188 0 164 0;
#X connect 189 0 175 0;
#X connect 189 1 186 0;
#X connect 189 2 187 0;
#X connect 189 3 188 0;
#X connect 190 0 167 0;
#X connect 191 0 190 0;
#X connect 191 1 173 0;
#X connect 191 2 176 0;
#X connect 192 0 117 0;
#X connect 192 1 217 0;
#X connect 192 2 218 0;
#X connect 193 0 194 0;
#X connect 194 0 189 0;
#X connect 194 1 191 0;
#X connect 194 2 192 0;
#X connect 195 0 206 0;
#X connect 196 0 170 0;
#X connect 197 0 185 0;
#X connect 200 0 106 0;
#X connect 201 0 107 0;
#X connect 202 0 108 0;
#X connect 203 0 109 0;
#X connect 204 0 111 0;
#X connect 205 0 204 6;
#X connect 205 0 203 6;
#X connect 205 0 202 6;
#X connect 205 0 201 6;
#X connect 205 0 172 6;
#X connect 205 0 200 6;
#X connect 206 0 207 0;
#X connect 206 1 208 0;
#X connect 206 2 209 0;
#X connect 206 3 210 0;
#X connect 207 0 165 0;
#X connect 209 0 165 0;
#X connect 210 0 165 0;
#X connect 211 0 12 0;
#X connect 212 0 12 0;
#X connect 213 0 62 0;
#X connect 215 0 194 0;
#X connect 216 0 194 0;
#X connect 217 0 116 0;
#X connect 218 0 116 0;
#X connect 219 0 221 0;
#X connect 220 0 219 1;
#X connect 221 0 222 0;
#X connect 222 0 170 0;
#X connect 223 0 222 1;
