#N canvas 0 87 1865 993 10;
#X obj 126 727 +;
#X obj 196 709 t b f;
#X floatatom 126 811 5 0 0 0 - - -, f 5;
#X floatatom 126 664 5 0 0 0 - - -, f 5;
#X floatatom 477 670 5 0 0 0 - - -, f 5;
#X text 161 665 Note;
#X text 522 672 Octave;
#X msg 142 172 0;
#X obj 127 375 f;
#X obj 96 375 + 1;
#X obj 35 429 tabwrite possible_notes;
#X obj 35 357 t f b;
#X obj 35 451 table possible_notes;
#X obj 35 154 t f b;
#X floatatom 35 133 5 0 0 0 - - -, f 5;
#X text 70 134 Set Possible Notes;
#X msg 492 172 0;
#X obj 477 362 f;
#X obj 510 362 + 1;
#X obj 385 344 t f b;
#X obj 385 154 t f b;
#X floatatom 385 133 5 0 0 0 - - -, f 5;
#X obj 385 183 sel 0 1 2;
#X text 418 134 Set Possible Octaves;
#X obj 385 396 tabwrite possible_octaves;
#X obj 385 425 table possible_octaves;
#X msg 662 172 0;
#X obj 647 362 f;
#X obj 680 362 + 1;
#X obj 555 344 t f b;
#X obj 555 154 t f b;
#X floatatom 555 133 5 0 0 0 - - -, f 5;
#X obj 555 183 sel 0 1 2;
#X text 590 134 Set Possible Sources;
#X obj 555 396 tabwrite possible_sources;
#X obj 555 425 table possible_sources;
#X floatatom 126 486 5 0 0 0 - - -, f 5;
#X text 160 483 Max;
#X floatatom 477 454 5 0 0 0 - - -, f 5;
#X text 511 456 Max;
#X floatatom 647 454 5 0 0 0 - - -, f 5;
#X text 681 456 Max;
#X msg 842 172 0;
#X obj 827 362 f;
#X obj 860 362 + 1;
#X obj 735 344 t f b;
#X obj 735 154 t f b;
#X floatatom 735 133 5 0 0 0 - - -, f 5;
#X obj 735 183 sel 0 1 2;
#X floatatom 827 454 5 0 0 0 - - -, f 5;
#X text 861 456 Max;
#X obj 735 396 tabwrite possible_times;
#X obj 735 425 table possible_times;
#X msg 316 172 0;
#X obj 301 362 f;
#X obj 334 362 + 1;
#X obj 209 344 t f b;
#X obj 209 154 t f b;
#X floatatom 209 133 5 0 0 0 - - -, f 5;
#X floatatom 301 454 5 0 0 0 - - -, f 5;
#X text 335 456 Max;
#X text 244 134 Set Possible Velocities;
#X obj 209 396 tabwrite possible_vels;
#X obj 209 425 table possible_vels;
#X msg 1022 172 0;
#X obj 1007 362 f;
#X obj 1040 362 + 1;
#X obj 915 344 t f b;
#X obj 915 154 t f b;
#X floatatom 915 133 5 0 0 0 - - -, f 5;
#X obj 915 183 sel 0 1 2;
#X floatatom 1007 454 5 0 0 0 - - -, f 5;
#X text 1041 456 Max;
#X obj 915 396 tabwrite possible_glisses;
#X obj 915 425 table possible_glisses;
#X obj 126 642 tabread possible_notes;
#X floatatom 153 505 5 0 0 0 - - -, f 5;
#X floatatom 181 536 5 0 0 0 - - -, f 5;
#X obj 477 619 tabread possible_octaves;
#X obj 647 619 tabread possible_sources;
#X obj 827 617 tabread possible_times;
#X obj 301 619 tabread possible_vels;
#X obj 280 828 pack;
#X obj 1007 619 tabread possible_glisses;
#X obj 800 792 metro;
#X obj 800 752 tgl 15 0 empty empty empty 17 7 0 10 -262144 -1 -1 0
1;
#X floatatom 827 771 5 0 0 0 - - -, f 5;
#X obj 800 814 f;
#X obj 843 814 + 1;
#X obj 800 865 s melodier-get-index-all;
#X obj 1337 558 r melodier-get-index-all;
#X obj 871 752 bng 15 250 50 0 empty empty empty 17 7 0 10 -262144
-1 -1;
#X text 822 745 PLAY;
#X text 890 751 RESET;
#X msg 871 774 0;
#X obj 280 850 s keyboard_bypass;
#X obj 647 669 s to_source_presets;
#X obj 1007 668 s to_gliss_presets;
#X floatatom 126 621 5 0 0 0 - - -, f 5;
#X floatatom 477 598 5 0 0 0 - - -, f 5;
#X floatatom 647 597 5 0 0 0 - - -, f 5;
#X floatatom 827 596 5 0 0 0 - - -, f 5;
#X floatatom 301 598 5 0 0 0 - - -, f 5;
#X floatatom 1007 598 5 0 0 0 - - -, f 5;
#X floatatom 647 641 5 0 0 0 - - -, f 5;
#X floatatom 301 650 5 0 0 0 - - -, f 5;
#X floatatom 1007 641 5 0 0 0 - - -, f 5;
#X obj 800 836 %;
#X obj 1314 115 unpack f f f f f f;
#X msg 1314 26 0 0 0 0 0 0;
#X text 128 505 Exp;
#X obj 208 557 bng 15 250 50 0 empty empty empty 17 7 0 10 -262144
-1 -1;
#X floatatom 236 515 5 0 0 0 - - -, f 5;
#X text 188 517 Iters;
#X text 224 557 Generate;
#X text 239 535 Topo;
#X floatatom 504 505 5 0 0 0 - - -, f 5;
#X floatatom 532 536 5 0 0 0 - - -, f 5;
#X text 538 507 Exp;
#X obj 559 557 bng 15 250 50 0 empty empty empty 17 7 0 10 -262144
-1 -1;
#X floatatom 587 515 5 0 0 0 - - -, f 5;
#X text 568 539 Iters;
#X text 577 556 Generate;
#X text 620 513 Topo;
#X floatatom 674 505 5 0 0 0 - - -, f 5;
#X floatatom 702 536 5 0 0 0 - - -, f 5;
#X text 709 506 Exp;
#X obj 729 557 bng 15 250 50 0 empty empty empty 17 7 0 10 -262144
-1 -1;
#X floatatom 757 515 5 0 0 0 - - -, f 5;
#X text 735 538 Iters;
#X text 747 556 Generate;
#X text 780 516 Topo;
#X floatatom 854 505 5 0 0 0 - - -, f 5;
#X floatatom 882 536 5 0 0 0 - - -, f 5;
#X text 887 506 Exp;
#X obj 909 557 bng 15 250 50 0 empty empty empty 17 7 0 10 -262144
-1 -1;
#X floatatom 937 515 5 0 0 0 - - -, f 5;
#X text 915 538 Iters;
#X text 927 556 Generate;
#X text 970 516 Topo;
#X floatatom 328 505 5 0 0 0 - - -, f 5;
#X floatatom 356 536 5 0 0 0 - - -, f 5;
#X text 361 506 Exp;
#X obj 383 557 bng 15 250 50 0 empty empty empty 17 7 0 10 -262144
-1 -1;
#X floatatom 411 515 5 0 0 0 - - -, f 5;
#X text 390 538 Iters;
#X text 401 556 Generate;
#X text 448 515 Topo;
#X floatatom 1034 505 5 0 0 0 - - -, f 5;
#X floatatom 1062 536 5 0 0 0 - - -, f 5;
#X text 1067 507 Exp;
#X obj 1089 557 bng 15 250 50 0 empty empty empty 17 7 0 10 -262144
-1 -1;
#X floatatom 1118 515 5 0 0 0 - - -, f 5;
#X text 1095 538 Iters;
#X text 1107 556 Generate;
#X text 1150 517 Topo;
#X obj 1082 487 unpack f f f f f f;
#X floatatom 1182 519 5 0 0 0 - - -, f 5;
#X text 1215 516 Iterations;
#X obj 1296 497 unpack f f f f f f;
#X text 1325 394 Topology;
#X obj 1193 542 bng 15 250 50 0 empty empty empty 17 7 0 10 -262144
-1 -1;
#X obj 827 722 s gliss-length-receive;
#X msg 1296 446 1 1 1 1 1 1;
#X msg 1082 442 0.5 0.5 0.5 0.5 0.5 0.5;
#X msg 1296 425 2 2 2 2 2 2;
#X msg 735 273 250 \, 250 \, 250;
#X obj 670 734 r melodier-playstop;
#X obj 871 693 r melodier-reset;
#X text 950 134 Set Possible Gliss Preset;
#X obj 1228 153 sel 0 1 2 3 4;
#X msg 1082 419 0.25 0.25 0.25 0.25 0.25 0.25;
#X msg 1082 396 1 1 1 1 1 1;
#X msg 1082 373 2 2 2 2 2 2;
#X obj 1082 294 sel 0 1 2 3;
#X msg 1296 467 0 0 0 0 0 0;
#X obj 1262 393 sel 0 1 2;
#X obj 1297 3 sel 0 1 2 3;
#X msg 1228 248 0 0 0;
#X obj 1228 277 unpack f f f;
#X obj 1107 162 r melodier-iters;
#X obj 1297 524 r melodier-generatenew;
#X obj 1130 101 r melodier-presets;
#X text 339 649 Velocity;
#X text 127 829 Note;
#X obj 126 576 Melodier-Statfeed-Subpatch 0;
#X obj 1209 558 r melodier-randomize;
#X obj 1107 191 sel 0 1 2 3;
#X msg 1182 229 8;
#X msg 1183 248 16;
#X msg 1182 267 32;
#X msg 1182 286 64;
#X text 1211 542 GENERATE NEW;
#X msg 1243 219 1 1 1;
#X msg 1258 190 2 2 2;
#X msg 1314 48 1 1 1 1 1 1;
#X msg 1314 70 2 2 2 2 2 2;
#X obj 936 797 ==;
#X obj 951 754 - 1;
#X obj 936 819 sel 1;
#X obj 981 837 spigot;
#X obj 1014 808 r melodier-regenerate;
#X text 79 320 A Major;
#X text 78 292 A Minor;
#X text 84 263 A Pent;
#X obj 35 183 sel 0 1 2 3;
#X msg 82 248 0 \, 2 \, 4 \, 6 \, 8 \, 10;
#X text 90 233 Whole;
#X msg 385 273 4 \, 4 \, 4 \, 4 \, 4 \, 4;
#X msg 209 273 100 \, 100 \, 100 \, 100 \, 100 \, 100;
#X msg 555 273 11 \, 1 \, 1 \, 1 \, 1 \, 1 \, 1;
#X msg 572 244 1 \, 2 \, 3 \, 7 \, 11 \, 17;
#X msg 589 215 11 \, 12 \, 14 \, 15 \, 16 \, 17;
#X msg 915 273 0 \, 0 \, 0 \, 0 \, 0 \, 0;
#X msg 932 243 1 \, 1 \, 1 \, 1 \, 1 \, 1;
#X msg 949 215 0 \, 1 \, 2 \, 3 \, 4 \, 5 \, 6 \, 7;
#X obj 35 111 inlet;
#X obj 209 111 inlet;
#X obj 385 111 inlet;
#X obj 555 111 inlet;
#X obj 735 111 inlet;
#X obj 915 111 inlet;
#X obj 35 473 s melodout-1;
#X msg 15 382 set \$1;
#X obj 208 454 s melodout-2;
#X obj 385 454 s melodout-3;
#X obj 555 454 s melodout-4;
#X obj 735 454 s melodout-5;
#X obj 915 454 s melodout-6;
#X msg 190 369 set \$1;
#X msg 365 369 set \$1;
#X msg 539 369 set \$1;
#X msg 715 369 set \$1;
#X msg 895 369 set \$1;
#X obj 1082 111 inlet;
#X obj 1262 115 inlet;
#X obj 1291 372 s melodout-8;
#X obj 1198 372 s melodout-7;
#X msg 1198 312 set \$1;
#X msg 1291 311 set \$1;
#X obj 981 866 s generate-new-trigger;
#X msg 402 244 4 \, 3 \, 5 \, 4 \, 3 \, 5 \, 4;
#X msg 752 244 250 \, 500 \, 250 \, 250 \, 750 \, 250;
#X msg 769 215 200 \, 250 \, 500 \, 300 \, 750 \, 600;
#X obj 36 839 s note-value;
#X obj 209 183 sel 0 1 2 3;
#X text 770 134 Set Possible Durations;
#X msg 224 244 100 \, 50 \, 100 \, 75 \, 50 \, 100;
#X msg 240 215 100 \, 25 \, 50 75 \, 100 \, 50;
#X msg 419 215 4 \, 3 \, 3 \, 6 \, 6 \, 5;
#X obj 827 641 r melodier-duration-scaling;
#X obj 827 693 *;
#X obj 827 664 t b f;
#X obj 325 771 r melodier-key-offset;
#X obj 126 789 +;
#X text 1070 274 Exp multiplier;
#X obj 1182 736 t f;
#X obj 301 576 Melodier-Statfeed-Subpatch 4;
#X obj 477 576 Melodier-Statfeed-Subpatch 1;
#X obj 647 576 Melodier-Statfeed-Subpatch 2;
#X obj 827 576 Melodier-Statfeed-Subpatch 3;
#X obj 1007 576 Melodier-Statfeed-Subpatch 5;
#X obj 1548 472 expr (44100/$f1);
#X floatatom 1536 373 5 0 0 0 - - -, f 5;
#X obj 1562 586 ftom;
#X floatatom 1562 631 5 0 0 0 - - -, f 5;
#X floatatom 1666 373 5 0 0 0 - - -, f 5;
#X obj 1672 421 mtof;
#X obj 1682 633 nbx 6 14 -1e+37 1e+37 0 0 empty empty empty 0 -8 0
10 -262144 -1 -1 2402.74 256;
#X obj 1678 472 expr (44100/$f1);
#X floatatom 389 807 5 0 0 0 - - -, f 5;
#X obj 211 687 * 12;
#X msg 3 219 0 \, 1 \, 2 \, 3 \, 4 \, 5 \, 6 \, 7 \, 8 \, 9 \, 10 \,
11;
#X msg 35 335 0 \, 2 \, 4 \, 5 \, 7 \, 9 \, 11;
#X msg 50 306 0 \, 2 \, 3 \, 5 \, 7 \, 8 \, 10;
#X msg 66 277 0 \, 2 \, 4 \, 7 \, 9;
#X text 93 201 Atonal;
#X connect 0 0 254 0;
#X connect 1 0 0 0;
#X connect 1 1 0 1;
#X connect 2 0 82 0;
#X connect 3 0 0 0;
#X connect 4 0 271 0;
#X connect 7 0 8 1;
#X connect 8 0 9 0;
#X connect 8 0 10 1;
#X connect 8 0 36 0;
#X connect 9 0 8 1;
#X connect 11 0 10 0;
#X connect 11 1 8 0;
#X connect 13 0 205 0;
#X connect 13 1 7 0;
#X connect 14 0 13 0;
#X connect 14 0 223 0;
#X connect 16 0 17 1;
#X connect 17 0 18 0;
#X connect 17 0 24 1;
#X connect 17 0 38 0;
#X connect 18 0 17 1;
#X connect 19 0 24 0;
#X connect 19 1 17 0;
#X connect 20 0 22 0;
#X connect 20 1 16 0;
#X connect 21 0 20 0;
#X connect 21 0 230 0;
#X connect 22 0 208 0;
#X connect 22 1 241 0;
#X connect 22 2 249 0;
#X connect 26 0 27 1;
#X connect 27 0 28 0;
#X connect 27 0 34 1;
#X connect 27 0 40 0;
#X connect 28 0 27 1;
#X connect 29 0 34 0;
#X connect 29 1 27 0;
#X connect 30 0 32 0;
#X connect 30 1 26 0;
#X connect 31 0 30 0;
#X connect 31 0 231 0;
#X connect 32 0 210 0;
#X connect 32 1 211 0;
#X connect 32 2 212 0;
#X connect 36 0 185 0;
#X connect 38 0 258 0;
#X connect 40 0 259 0;
#X connect 42 0 43 1;
#X connect 43 0 44 0;
#X connect 43 0 49 0;
#X connect 43 0 51 1;
#X connect 44 0 43 1;
#X connect 45 0 51 0;
#X connect 45 1 43 0;
#X connect 46 0 48 0;
#X connect 46 1 42 0;
#X connect 47 0 46 0;
#X connect 47 0 232 0;
#X connect 48 0 166 0;
#X connect 48 1 242 0;
#X connect 48 2 243 0;
#X connect 49 0 260 0;
#X connect 53 0 54 1;
#X connect 54 0 55 0;
#X connect 54 0 59 0;
#X connect 54 0 62 1;
#X connect 55 0 54 1;
#X connect 56 0 62 0;
#X connect 56 1 54 0;
#X connect 57 0 245 0;
#X connect 57 1 53 0;
#X connect 58 0 57 0;
#X connect 58 0 229 0;
#X connect 59 0 257 0;
#X connect 64 0 65 1;
#X connect 65 0 66 0;
#X connect 65 0 71 0;
#X connect 65 0 73 1;
#X connect 66 0 65 1;
#X connect 67 0 73 0;
#X connect 67 1 65 0;
#X connect 68 0 70 0;
#X connect 68 1 64 0;
#X connect 69 0 68 0;
#X connect 69 0 233 0;
#X connect 70 0 213 0;
#X connect 70 1 214 0;
#X connect 70 2 215 0;
#X connect 71 0 261 0;
#X connect 75 0 3 0;
#X connect 76 0 185 1;
#X connect 77 0 185 2;
#X connect 78 0 4 0;
#X connect 79 0 104 0;
#X connect 80 0 251 0;
#X connect 81 0 105 0;
#X connect 82 0 95 0;
#X connect 83 0 106 0;
#X connect 84 0 87 0;
#X connect 85 0 84 0;
#X connect 86 0 84 1;
#X connect 87 0 88 0;
#X connect 87 0 107 0;
#X connect 88 0 87 1;
#X connect 90 0 185 5;
#X connect 90 0 257 5;
#X connect 90 0 258 5;
#X connect 90 0 259 5;
#X connect 90 0 260 5;
#X connect 90 0 261 5;
#X connect 91 0 94 0;
#X connect 94 0 87 1;
#X connect 98 0 75 0;
#X connect 99 0 78 0;
#X connect 100 0 79 0;
#X connect 101 0 80 0;
#X connect 102 0 81 0;
#X connect 103 0 83 0;
#X connect 104 0 96 0;
#X connect 105 0 82 1;
#X connect 106 0 97 0;
#X connect 107 0 89 0;
#X connect 107 0 197 0;
#X connect 108 0 14 0;
#X connect 108 1 21 0;
#X connect 108 2 31 0;
#X connect 108 3 47 0;
#X connect 108 4 58 0;
#X connect 108 5 69 0;
#X connect 109 0 108 0;
#X connect 111 0 185 3;
#X connect 112 0 185 4;
#X connect 116 0 258 1;
#X connect 117 0 258 2;
#X connect 119 0 258 3;
#X connect 120 0 258 4;
#X connect 124 0 259 1;
#X connect 125 0 259 2;
#X connect 127 0 259 3;
#X connect 128 0 259 4;
#X connect 132 0 260 1;
#X connect 133 0 260 2;
#X connect 135 0 260 3;
#X connect 136 0 260 4;
#X connect 140 0 257 1;
#X connect 141 0 257 2;
#X connect 143 0 257 3;
#X connect 144 0 257 4;
#X connect 148 0 261 1;
#X connect 149 0 261 2;
#X connect 151 0 261 3;
#X connect 152 0 261 4;
#X connect 156 0 76 0;
#X connect 156 1 116 0;
#X connect 156 2 124 0;
#X connect 156 3 132 0;
#X connect 156 4 140 0;
#X connect 156 5 148 0;
#X connect 157 0 149 0;
#X connect 157 0 141 0;
#X connect 157 0 133 0;
#X connect 157 0 125 0;
#X connect 157 0 117 0;
#X connect 157 0 77 0;
#X connect 157 0 256 0;
#X connect 159 0 112 0;
#X connect 159 1 120 0;
#X connect 159 2 128 0;
#X connect 159 3 136 0;
#X connect 159 4 144 0;
#X connect 159 5 152 0;
#X connect 161 0 151 0;
#X connect 161 0 143 0;
#X connect 161 0 135 0;
#X connect 161 0 127 0;
#X connect 161 0 119 0;
#X connect 161 0 111 0;
#X connect 163 0 159 0;
#X connect 164 0 156 0;
#X connect 165 0 159 0;
#X connect 166 0 45 0;
#X connect 167 0 85 0;
#X connect 168 0 91 0;
#X connect 170 0 178 0;
#X connect 170 1 193 0;
#X connect 170 2 194 0;
#X connect 171 0 156 0;
#X connect 172 0 156 0;
#X connect 173 0 156 0;
#X connect 174 0 164 0;
#X connect 174 1 171 0;
#X connect 174 2 172 0;
#X connect 174 3 173 0;
#X connect 175 0 159 0;
#X connect 176 0 175 0;
#X connect 176 1 163 0;
#X connect 176 2 165 0;
#X connect 177 0 109 0;
#X connect 177 1 195 0;
#X connect 177 2 196 0;
#X connect 178 0 179 0;
#X connect 179 0 174 0;
#X connect 179 0 238 0;
#X connect 179 1 176 0;
#X connect 179 1 239 0;
#X connect 179 2 177 0;
#X connect 180 0 187 0;
#X connect 181 0 161 0;
#X connect 182 0 170 0;
#X connect 185 0 98 0;
#X connect 186 0 185 6;
#X connect 186 0 257 6;
#X connect 186 0 258 6;
#X connect 186 0 259 6;
#X connect 186 0 260 6;
#X connect 186 0 261 6;
#X connect 187 0 188 0;
#X connect 187 1 189 0;
#X connect 187 2 190 0;
#X connect 187 3 191 0;
#X connect 188 0 157 0;
#X connect 190 0 157 0;
#X connect 191 0 157 0;
#X connect 193 0 179 0;
#X connect 194 0 179 0;
#X connect 195 0 108 0;
#X connect 196 0 108 0;
#X connect 197 0 199 0;
#X connect 198 0 197 1;
#X connect 199 0 200 0;
#X connect 200 0 240 0;
#X connect 201 0 200 1;
#X connect 205 0 273 0;
#X connect 205 1 274 0;
#X connect 205 2 275 0;
#X connect 205 3 206 0;
#X connect 205 4 272 0;
#X connect 206 0 11 0;
#X connect 208 0 19 0;
#X connect 209 0 56 0;
#X connect 210 0 29 0;
#X connect 211 0 29 0;
#X connect 212 0 29 0;
#X connect 213 0 67 0;
#X connect 214 0 67 0;
#X connect 215 0 67 0;
#X connect 216 0 14 0;
#X connect 217 0 58 0;
#X connect 218 0 21 0;
#X connect 219 0 31 0;
#X connect 220 0 47 0;
#X connect 221 0 69 0;
#X connect 223 0 222 0;
#X connect 229 0 224 0;
#X connect 230 0 225 0;
#X connect 231 0 226 0;
#X connect 232 0 227 0;
#X connect 233 0 228 0;
#X connect 234 0 174 0;
#X connect 235 0 176 0;
#X connect 238 0 237 0;
#X connect 239 0 236 0;
#X connect 241 0 19 0;
#X connect 242 0 45 0;
#X connect 243 0 45 0;
#X connect 245 0 209 0;
#X connect 245 1 247 0;
#X connect 245 2 248 0;
#X connect 247 0 56 0;
#X connect 248 0 56 0;
#X connect 249 0 19 0;
#X connect 250 0 252 0;
#X connect 251 0 86 0;
#X connect 251 0 162 0;
#X connect 252 0 251 0;
#X connect 252 1 251 1;
#X connect 253 0 254 1;
#X connect 253 0 270 0;
#X connect 254 0 2 0;
#X connect 254 0 244 0;
#X connect 256 0 198 0;
#X connect 256 0 107 1;
#X connect 257 0 102 0;
#X connect 258 0 99 0;
#X connect 259 0 100 0;
#X connect 260 0 101 0;
#X connect 261 0 103 0;
#X connect 262 0 264 0;
#X connect 263 0 262 0;
#X connect 264 0 265 0;
#X connect 266 0 267 0;
#X connect 267 0 269 0;
#X connect 269 0 268 0;
#X connect 271 0 1 0;
#X connect 272 0 11 0;
#X connect 273 0 11 0;
#X connect 274 0 11 0;
#X connect 275 0 11 0;
