#N canvas 253 353 1389 727 10;
#X obj 362 286 Melodier, f 19;
#X obj 301 181 cnv 15 830 98 empty empty empty 20 12 0 14 -228856 -66577
0;
#X obj 862 331 s melodier-playstop;
#X obj 862 190 tgl 25 0 empty empty empty 17 7 0 10 -262144 -1 -1 0
1;
#X obj 741 287 s melodier-reset;
#X obj 862 245 bng 25 250 50 0 empty empty empty 17 7 0 10 -262144
-1 -1;
#X obj 306 315 s melodier-presets;
#X obj 306 189 vradio 13 1 0 6 empty empty empty 0 -8 0 10 -262144
-1 -1 0;
#X obj 1056 350 s melodier-generatenew;
#X obj 1056 189 bng 15 250 50 0 empty empty empty 17 7 0 10 -262144
-1 -1;
#X obj 1056 328 s melodier-randomize;
#X obj 1056 224 bng 15 250 50 0 empty empty empty 17 7 0 10 -262144
-1 -1;
#X obj 1007 284 s melodier-iters;
#X obj 1007 189 vradio 13 1 0 4 empty empty empty 0 -8 0 10 -262144
-1 -1 0;
#X text 1023 187 8 \; 16 \; 32 \; 64 \;;
#X obj 1056 306 s melodier-regenerate;
#X obj 1056 206 tgl 15 0 empty empty empty 17 7 0 10 -262144 -1 -1
0 1;
#X obj 1056 34 loadbang;
#X msg 1056 63 0;
#X obj 306 74 r melodier-preset-chooser-increment;
#X obj 1007 89 r melodier-iters-chooser-increment;
#X obj 306 127 f;
#X obj 344 127 + 1;
#X obj 306 155 % 4;
#X obj 862 155 r melodier-play;
#X obj 1007 118 f;
#X obj 1040 118 + 1;
#X obj 1007 151 % 4;
#X obj 862 287 t f f;
#X obj 889 309 sel 1;
#X obj 351 189 hradio 11 1 0 4 empty empty empty 0 -8 0 10 -262144
-1 -1 0;
#X obj 351 202 hradio 11 1 0 3 empty empty empty 0 -8 0 10 -262144
-1 -1 0;
#X obj 351 216 hradio 11 1 0 3 empty empty empty 0 -8 0 10 -262144
-1 -1 2;
#X obj 351 230 hradio 11 1 0 3 empty empty empty 0 -8 0 10 -262144
-1 -1 0;
#X obj 351 243 hradio 11 1 0 3 empty empty empty 0 -8 0 10 -262144
-1 -1 0;
#X obj 351 256 hradio 11 1 0 3 empty empty empty 0 -8 0 10 -262144
-1 -1 2;
#X obj 489 256 hradio 11 1 0 3 empty empty empty 0 -8 0 10 -262144
-1 -1 0;
#X obj 489 189 hradio 11 1 0 4 empty empty empty 0 -8 0 10 -262144
-1 -1 0;
#X obj 351 342 r melodout-1;
#X obj 351 364 r melodout-2;
#X obj 351 386 r meldout-3;
#X obj 351 408 r melodout-4;
#X obj 351 430 r melodout-5;
#X obj 351 452 r meldout-6;
#X obj 489 128 r melodout-7;
#X obj 489 152 r melodout-8;
#X obj 1066 151 r generate-new-trigger;
#X text 1075 189 GEN;
#X text 1076 206 RE-GEN;
#X text 1077 224 RAND;
#X text 890 194 PLAY;
#X text 890 249 RESET;
#X text 525 252 Topology;
#X text 408 186 Notes \; Velocities \; Octaves \; Sources \; Durations
\; Glisses;
#X text 323 187 1 \; 2 \; 3 \; 4 \; 5 \; 6 \;;
#X obj 496 286 s melodier-duration-scaling;
#X text 554 230 Dura Mult;
#X obj 499 231 hsl 50 15 0.25 3 0 0 empty empty empty -2 -8 0 10 -262144
-1 -1 1336 1;
#X obj 432 100 loadbang;
#X msg 432 147 1;
#X text 536 186 Exp. Mult.;
#X msg 968 118 0;
#X obj 488 209 hradio 11 1 0 11 empty empty empty 0 -8 0 10 -262144
-1 -1 9;
#X obj 488 308 s melodier-key-offset;
#X msg 395 147 9;
#X msg 395 118 0;
#X obj 633 194 cnv 15 200 70 empty empty empty 20 12 0 14 -262144 -66577
0;
#X obj 633 194 Piano-Keyboard;
#X connect 3 0 28 0;
#X connect 5 0 4 0;
#X connect 7 0 6 0;
#X connect 9 0 8 0;
#X connect 11 0 10 0;
#X connect 13 0 12 0;
#X connect 16 0 15 0;
#X connect 17 0 18 0;
#X connect 18 0 16 0;
#X connect 19 0 21 0;
#X connect 20 0 25 0;
#X connect 21 0 22 0;
#X connect 21 0 23 0;
#X connect 22 0 21 1;
#X connect 23 0 7 0;
#X connect 24 0 3 0;
#X connect 25 0 26 0;
#X connect 25 0 27 0;
#X connect 26 0 25 1;
#X connect 27 0 13 0;
#X connect 28 0 2 0;
#X connect 28 1 29 0;
#X connect 29 0 9 0;
#X connect 30 0 0 0;
#X connect 31 0 0 1;
#X connect 32 0 0 2;
#X connect 33 0 0 3;
#X connect 34 0 0 4;
#X connect 35 0 0 5;
#X connect 36 0 0 7;
#X connect 37 0 0 6;
#X connect 38 0 30 0;
#X connect 39 0 31 0;
#X connect 40 0 32 0;
#X connect 41 0 33 0;
#X connect 42 0 34 0;
#X connect 43 0 35 0;
#X connect 44 0 37 0;
#X connect 45 0 36 0;
#X connect 46 0 9 0;
#X connect 57 0 55 0;
#X connect 58 0 59 0;
#X connect 58 0 61 0;
#X connect 58 0 64 0;
#X connect 58 0 65 0;
#X connect 59 0 57 0;
#X connect 61 0 13 0;
#X connect 62 0 63 0;
#X connect 64 0 62 0;
#X connect 65 0 7 0;
#X coords 0 -1 1 1 832 100 2 300 180;
