#N canvas 1005 119 788 544 12;
#X obj 76 78 inlet;
#X msg 203 145 0;
#X obj 185 444 f;
#X obj 154 444 + 1;
#X obj 56 424 t f b;
#X obj 76 125 t f b;
#X obj 76 152 sel 0 1 2 3 4 5, f 16;
#X obj 56 487 outlet;
#X obj 185 487 outlet;
#X msg 76 372 1 \, 1 \, 1 \, 1 \, 1 \, 1 \, 1 \, 1 \, 1 \, 1 \, 1 \,
1 \, 1 \, 1 \, 1 \, 1;
#X msg 94 343 1 \, 0.8 \, 1.2 \, 1 \, 1 \, 0.8 \, 1.2 \, 1 \, 1 \,
0.8 \, 1.2 \, 1 \, 1 \, 0.8 \, 1.2 \, 1, f 63;
#X msg 112 314 1 \, 0.8 \, 0.6 \, 1.2 \, 1.4 \, 1 \, 0.8 \, 0.6 \,
1.2 \, 1.4 \, 1 \, 0.8 \, 0.6 \, 1.2 \, 1.4 \, 1, f 71;
#X msg 130 285 1 \, 0.8 \, 0.6 \, 0.4 \, 0.2 \, 1.2 \, 1.4 \, 1.6 \,
1.8 \, 2 \, 1 \, 0.4 \, 1.6 \, 1 \, 0.6 \, 1.4, f 71;
#X msg 148 256 0.2 \, 0.8 \, 0.6 \, 0.4 \, 0.2 \, 1.2 \, 1.4 \, 1.6
\, 1.8 \, 2 \, 0.2 \, 0.4 \, 1.6 \, 2 \, 0.6 \, 1.4, f 82;
#X msg 166 227 0.1 \, 0.5 \, 2 \, 0.3 \, 0.5 \, 0.2 \, 1.5 \, 1.7 \,
1.9 \, 2 \, 0.3 \, 0.4 \, 1.7 \, 2 \, 0.5 \, 1.5, f 82;
#X msg 185 197 2 \, 0.1 \, 2 \, 0.1 \, 2 \, 0.1 \, 2 \, 0.1 \, 2 \,
0.1 \, 2 \, 0.1 \, 2 \, 0.1 \, 2 \, 0.1 \,, f 82;
#X connect 0 0 5 0;
#X connect 1 0 2 1;
#X connect 2 0 3 0;
#X connect 2 0 8 0;
#X connect 3 0 2 1;
#X connect 4 0 7 0;
#X connect 4 1 2 0;
#X connect 5 0 6 0;
#X connect 5 1 1 0;
#X connect 6 0 9 0;
#X connect 6 1 10 0;
#X connect 6 2 11 0;
#X connect 6 3 12 0;
#X connect 6 4 13 0;
#X connect 6 5 14 0;
#X connect 6 6 15 0;
#X connect 9 0 4 0;
#X connect 10 0 4 0;
#X connect 11 0 4 0;
#X connect 12 0 4 0;
#X connect 13 0 4 0;
#X connect 14 0 4 0;
#X connect 15 0 4 0;
