#N canvas 373 181 1076 493 12;
#X obj 76 94 inlet;
#X msg 203 145 0;
#X obj 187 354 f;
#X obj 156 354 + 1;
#X obj 68 334 t f b;
#X obj 76 125 t f b;
#X obj 68 385 outlet;
#X obj 187 385 outlet;
#X msg 158 199 0 \, 2 \, 4 \, 5 \, 7 \, 8 \, 10 \, 12 \, 13 \, 15 \,
17 \, 19 \, 20 \, 20 \, 20 \, 20;
#X text 562 200 Solomon;
#X msg 76 309 0 \, 7 \, 5 \, 0 \, 2 \, 7 \, 4 \, 0 \, 5 \, 7 \, 9 \,
11 \, 0 \, 4 \, 7 \, 0;
#X msg 92 287 0 \, 7 \, 5 \, 0 \, 2 \, 7 \, 3 \, 0 \, 5 \, 7 \, 8 \,
10 \, 0 \, 3 \, 7 \, 0;
#X msg 109 265 0 \, 2 \, 4 \, 7 \, 9 \, 0 \, 2 \, 4 \, 7 \, 9 \, 0
\, 2 \, 4 \, 7 \, 9 \, 0;
#X msg 125 243 0 \, 2 \, 4 \, 6 \, 8 \, 10 \, 0 \, 2 \, 4 \, 6 \, 8
10 \, 0 \, 2 \, 4 \, 6;
#X msg 142 221 0 \, 1 \, 2 \, 3 \, 4 \, 5 \, 6 \, 7 \, 8 \, 9 \, 10
\, 11 \, 12 \, 13 \, 14 \, 15;
#X text 526 222 Atonal;
#X text 469 243 Whole;
#X text 440 265 Pent;
#X text 430 287 Minor;
#X text 412 310 Major;
#X obj 76 152 sel 0 1 2 3 4 5 6;
#X text 579 177 Solomon 2;
#X msg 175 177 0 \, 2 \, 4 \, 7 \, 9 \, 12 \, 13 \, 15 \, 17 \, 19
\, 21 \, 24 \, 26 \, 29 \, 30 \, 32;
#X connect 0 0 5 0;
#X connect 1 0 2 1;
#X connect 2 0 3 0;
#X connect 2 0 7 0;
#X connect 3 0 2 1;
#X connect 4 0 6 0;
#X connect 4 1 2 0;
#X connect 5 0 20 0;
#X connect 5 1 1 0;
#X connect 8 0 4 0;
#X connect 10 0 4 0;
#X connect 11 0 4 0;
#X connect 12 0 4 0;
#X connect 13 0 4 0;
#X connect 14 0 4 0;
#X connect 20 0 10 0;
#X connect 20 1 11 0;
#X connect 20 2 12 0;
#X connect 20 3 13 0;
#X connect 20 4 14 0;
#X connect 20 5 8 0;
#X connect 20 6 22 0;
