#N canvas 164 296 1657 903 10;
#X obj 122 647 * 12;
#X obj 107 702 +;
#X obj 107 674 t b f;
#X floatatom 107 780 5 0 0 0 - - -, f 5;
#X floatatom 107 618 5 0 0 0 - - -, f 5;
#X floatatom 307 618 5 0 0 0 - - -, f 5;
#X text 142 619 Note;
#X text 343 620 Octave;
#X msg 122 146 0;
#X obj 107 274 f;
#X obj 140 274 + 1;
#X obj 15 308 tabwrite possible_notes;
#X obj 15 256 t f b;
#X obj 15 337 table possible_notes;
#X obj 15 128 t f b;
#X floatatom 15 100 5 0 0 0 - - -, f 5;
#X text 50 101 Set Possible Notes;
#X obj 15 157 sel 0 1 2;
#X msg 32 198;
#X text 57 199 Other scale?;
#X msg 322 146 0;
#X obj 307 274 f;
#X obj 340 274 + 1;
#X obj 215 256 t f b;
#X obj 215 128 t f b;
#X floatatom 215 100 5 0 0 0 - - -, f 5;
#X obj 215 157 sel 0 1 2;
#X msg 232 198;
#X text 250 101 Set Possible Octaves;
#X text 257 199 Other set?;
#X obj 215 308 tabwrite possible_octaves;
#X obj 215 337 table possible_octaves;
#X msg 532 146 0;
#X obj 517 274 f;
#X obj 550 274 + 1;
#X obj 425 256 t f b;
#X obj 425 128 t f b;
#X floatatom 425 100 5 0 0 0 - - -, f 5;
#X obj 425 157 sel 0 1 2;
#X msg 442 198;
#X text 460 101 Set Possible Sources;
#X obj 425 308 tabwrite possible_sources;
#X obj 425 337 table possible_sources;
#X floatatom 107 366 5 0 0 0 - - -, f 5;
#X text 141 368 Max;
#X floatatom 307 366 5 0 0 0 - - -, f 5;
#X text 341 368 Max;
#X floatatom 517 366 5 0 0 0 - - -, f 5;
#X text 551 368 Max;
#X msg 742 146 0;
#X obj 727 274 f;
#X obj 760 274 + 1;
#X obj 635 256 t f b;
#X obj 635 128 t f b;
#X floatatom 635 100 5 0 0 0 - - -, f 5;
#X obj 635 157 sel 0 1 2;
#X msg 652 198;
#X floatatom 727 366 5 0 0 0 - - -, f 5;
#X text 761 368 Max;
#X text 670 101 Set Possible Times;
#X obj 635 308 tabwrite possible_times;
#X obj 635 337 table possible_times;
#X msg 932 146 0;
#X obj 917 274 f;
#X obj 950 274 + 1;
#X obj 825 256 t f b;
#X obj 825 128 t f b;
#X floatatom 825 100 5 0 0 0 - - -, f 5;
#X obj 825 157 sel 0 1 2;
#X msg 842 198;
#X floatatom 917 366 5 0 0 0 - - -, f 5;
#X text 951 368 Max;
#X text 860 101 Set Possible Velocities;
#X obj 825 308 tabwrite possible_vels;
#X obj 825 337 table possible_vels;
#X msg 1142 146 0;
#X obj 1127 274 f;
#X obj 1160 274 + 1;
#X obj 1035 256 t f b;
#X obj 1035 128 t f b;
#X floatatom 1035 100 5 0 0 0 - - -, f 5;
#X obj 1035 157 sel 0 1 2;
#X msg 1052 198;
#X floatatom 1127 366 5 0 0 0 - - -, f 5;
#X text 1161 368 Max;
#X text 1070 101 Set Possible Glisses;
#X obj 1035 308 tabwrite possible_glisses;
#X obj 1035 337 table possible_glisses;
#X text 1088 122 basically... on or off? Time should be Time...;
#X obj 107 543 tabread possible_notes;
#X obj 107 476 Melodier-Statfeed-Subpatch 0;
#X floatatom 140 392 5 0 0 0 - - -, f 5;
#X floatatom 173 420 5 0 0 0 - - -, f 5;
#X obj 307 543 tabread possible_octaves;
#X obj 517 543 tabread possible_sources;
#X obj 727 543 tabread possible_times;
#X obj 917 543 tabread possible_vels;
#X obj 181 797 pack;
#X obj 1127 543 tabread possible_glisses;
#X obj 704 744 metro;
#X obj 704 692 tgl 15 0 empty empty empty 17 7 0 10 -262144 -1 -1 1
1;
#X floatatom 727 721 5 0 0 0 - - -, f 5;
#X obj 704 773 f;
#X obj 747 773 + 1;
#X obj 704 872 s melodier-get-index-all;
#X obj 1316 458 r melodier-get-index-all;
#X obj 775 692 bng 15 250 50 0 empty empty empty 17 7 0 10 -262144
-1 -1;
#X text 667 690 PLAY;
#X text 794 691 RESET;
#X msg 775 724 0;
#X text 467 199 Other sources;
#X text 677 199 Other times?;
#X text 867 199 Other velocities?;
#X text 1077 199 Other glisses?;
#X obj 181 826 s keyboard_bypass;
#X obj 517 600 s to_source_presets;
#X obj 1127 599 s to_gliss_presets;
#X floatatom 107 512 5 0 0 0 - - -, f 5;
#X floatatom 307 512 5 0 0 0 - - -, f 5;
#X floatatom 517 512 5 0 0 0 - - -, f 5;
#X floatatom 727 512 5 0 0 0 - - -, f 5;
#X floatatom 917 512 5 0 0 0 - - -, f 5;
#X floatatom 1127 512 5 0 0 0 - - -, f 5;
#X floatatom 517 572 5 0 0 0 - - -, f 5;
#X floatatom 917 572 5 0 0 0 - - -, f 5;
#X floatatom 1127 572 5 0 0 0 - - -, f 5;
#X obj 704 819 %;
#X obj 1539 82 unpack f f f f f f;
#X msg 1539 55 0 0 0 0 0 0;
#X text 173 393 Exp;
#X obj 206 450 bng 15 250 50 0 empty empty empty 17 7 0 10 -262144
-1 -1;
#X floatatom 239 402 5 0 0 0 - - -, f 5;
#X text 206 422 Iters;
#X text 224 449 Generate;
#X text 272 403 Topo;
#X floatatom 340 392 5 0 0 0 - - -, f 5;
#X floatatom 373 420 5 0 0 0 - - -, f 5;
#X text 373 393 Exp;
#X obj 406 450 bng 15 250 50 0 empty empty empty 17 7 0 10 -262144
-1 -1;
#X floatatom 439 402 5 0 0 0 - - -, f 5;
#X text 406 422 Iters;
#X text 424 449 Generate;
#X text 472 403 Topo;
#X floatatom 550 392 5 0 0 0 - - -, f 5;
#X floatatom 583 420 5 0 0 0 - - -, f 5;
#X text 583 393 Exp;
#X obj 616 450 bng 15 250 50 0 empty empty empty 17 7 0 10 -262144
-1 -1;
#X floatatom 649 402 5 0 0 0 - - -, f 5;
#X text 616 422 Iters;
#X text 634 449 Generate;
#X text 682 403 Topo;
#X floatatom 760 392 5 0 0 0 - - -, f 5;
#X floatatom 793 420 5 0 0 0 - - -, f 5;
#X text 793 393 Exp;
#X obj 826 450 bng 15 250 50 0 empty empty empty 17 7 0 10 -262144
-1 -1;
#X floatatom 859 402 5 0 0 0 - - -, f 5;
#X text 826 422 Iters;
#X text 844 449 Generate;
#X text 892 403 Topo;
#X floatatom 950 392 5 0 0 0 - - -, f 5;
#X floatatom 983 420 5 0 0 0 - - -, f 5;
#X text 983 393 Exp;
#X obj 1016 450 bng 15 250 50 0 empty empty empty 17 7 0 10 -262144
-1 -1;
#X floatatom 1049 402 5 0 0 0 - - -, f 5;
#X text 1016 422 Iters;
#X text 1034 449 Generate;
#X text 1082 403 Topo;
#X floatatom 1160 392 5 0 0 0 - - -, f 5;
#X floatatom 1193 420 5 0 0 0 - - -, f 5;
#X text 1193 393 Exp;
#X obj 1226 450 bng 15 250 50 0 empty empty empty 17 7 0 10 -262144
-1 -1;
#X floatatom 1259 402 5 0 0 0 - - -, f 5;
#X text 1226 422 Iters;
#X text 1244 449 Generate;
#X text 1292 403 Topo;
#X obj 1304 374 unpack f f f f f f;
#X floatatom 1361 403 5 0 0 0 - - -, f 5;
#X text 1394 404 Iterations;
#X obj 1475 384 unpack f f f f f f;
#X text 1503 364 Topology;
#X text 1321 357 Exponent multiplier;
#X obj 1488 237 t b b b b;
#X obj 1461 208 t b b;
#X obj 1461 435 bng 15 250 50 0 empty empty empty 17 7 0 10 -262144
-1 -1;
#X obj 1461 43 bng 15 250 50 0 empty empty empty 17 7 0 10 -262144
-1 -1;
#X obj 735 573 s gliss-length-receive;
#X obj 307 476 Melodier-Statfeed-Subpatch 1;
#X obj 517 476 Melodier-Statfeed-Subpatch 2;
#X obj 727 476 Melodier-Statfeed-Subpatch 3;
#X obj 917 476 Melodier-Statfeed-Subpatch 4;
#X obj 1127 476 Melodier-Statfeed-Subpatch 5;
#X msg 1475 343 1 1 1 1 1 1;
#X floatatom 814 829 5 0 0 0 - - -, f 5;
#X msg 825 227 70 \, 100 \, 100 \, 100 \, 100 \, 50 \, 100;
#X msg 1304 335 0.5 0.5 0.5 0.5 0.5 0.5;
#X msg 1421 255 16;
#X msg 1510 308 2 2 2 2 2 2;
#X msg 15 227 0 \, 0 \, 2 \, 4 \, 5 \, 7 \, 9 \, 11;
#X msg 425 227 11 \, 11 \, 11 \, 15 \, 17 \, 2 \, 3;
#X msg 1035 227 0 \, 1 \, 0 \, 4 \, 0 \, 0 \, 1;
#X msg 635 227 250 \, 250 \, 125 \, 500 \, 125 \, 125;
#X msg 215 227 4 \, 3 \, 5 \, 4 \, 3 \, 4 \, 4;
#X connect 0 0 2 0;
#X connect 1 0 3 0;
#X connect 2 0 1 0;
#X connect 2 1 1 1;
#X connect 3 0 97 0;
#X connect 4 0 1 0;
#X connect 5 0 0 0;
#X connect 8 0 9 1;
#X connect 9 0 10 0;
#X connect 9 0 11 1;
#X connect 9 0 43 0;
#X connect 10 0 9 1;
#X connect 12 0 11 0;
#X connect 12 1 9 0;
#X connect 14 0 17 0;
#X connect 14 1 8 0;
#X connect 15 0 14 0;
#X connect 17 0 197 0;
#X connect 17 1 18 0;
#X connect 20 0 21 1;
#X connect 21 0 22 0;
#X connect 21 0 30 1;
#X connect 21 0 45 0;
#X connect 22 0 21 1;
#X connect 23 0 30 0;
#X connect 23 1 21 0;
#X connect 24 0 26 0;
#X connect 24 1 20 0;
#X connect 25 0 24 0;
#X connect 26 0 201 0;
#X connect 26 1 27 0;
#X connect 32 0 33 1;
#X connect 33 0 34 0;
#X connect 33 0 41 1;
#X connect 33 0 47 0;
#X connect 34 0 33 1;
#X connect 35 0 41 0;
#X connect 35 1 33 0;
#X connect 36 0 38 0;
#X connect 36 1 32 0;
#X connect 37 0 36 0;
#X connect 38 0 198 0;
#X connect 38 1 39 0;
#X connect 43 0 90 0;
#X connect 45 0 186 0;
#X connect 47 0 187 0;
#X connect 49 0 50 1;
#X connect 50 0 51 0;
#X connect 50 0 57 0;
#X connect 50 0 60 1;
#X connect 51 0 50 1;
#X connect 52 0 60 0;
#X connect 52 1 50 0;
#X connect 53 0 55 0;
#X connect 53 1 49 0;
#X connect 54 0 53 0;
#X connect 55 0 200 0;
#X connect 55 1 56 0;
#X connect 57 0 188 0;
#X connect 62 0 63 1;
#X connect 63 0 64 0;
#X connect 63 0 70 0;
#X connect 63 0 73 1;
#X connect 64 0 63 1;
#X connect 65 0 73 0;
#X connect 65 1 63 0;
#X connect 66 0 68 0;
#X connect 66 1 62 0;
#X connect 67 0 66 0;
#X connect 68 0 193 0;
#X connect 68 1 69 0;
#X connect 70 0 189 0;
#X connect 75 0 76 1;
#X connect 76 0 77 0;
#X connect 76 0 83 0;
#X connect 76 0 86 1;
#X connect 77 0 76 1;
#X connect 78 0 86 0;
#X connect 78 1 76 0;
#X connect 79 0 81 0;
#X connect 79 1 75 0;
#X connect 80 0 79 0;
#X connect 81 0 199 0;
#X connect 81 1 82 0;
#X connect 83 0 190 0;
#X connect 89 0 4 0;
#X connect 90 0 117 0;
#X connect 91 0 90 1;
#X connect 92 0 90 2;
#X connect 93 0 5 0;
#X connect 94 0 123 0;
#X connect 95 0 101 0;
#X connect 95 0 185 0;
#X connect 96 0 124 0;
#X connect 97 0 114 0;
#X connect 98 0 125 0;
#X connect 99 0 102 0;
#X connect 100 0 99 0;
#X connect 101 0 99 1;
#X connect 102 0 103 0;
#X connect 102 0 126 0;
#X connect 103 0 102 1;
#X connect 105 0 90 5;
#X connect 105 0 186 5;
#X connect 105 0 187 5;
#X connect 105 0 188 5;
#X connect 105 0 189 5;
#X connect 105 0 190 5;
#X connect 106 0 109 0;
#X connect 109 0 102 1;
#X connect 117 0 89 0;
#X connect 118 0 93 0;
#X connect 119 0 94 0;
#X connect 120 0 95 0;
#X connect 121 0 96 0;
#X connect 122 0 98 0;
#X connect 123 0 115 0;
#X connect 124 0 97 1;
#X connect 125 0 116 0;
#X connect 126 0 104 0;
#X connect 126 0 192 0;
#X connect 127 0 15 0;
#X connect 127 1 25 0;
#X connect 127 2 37 0;
#X connect 127 3 54 0;
#X connect 127 4 67 0;
#X connect 127 5 80 0;
#X connect 128 0 127 0;
#X connect 130 0 90 3;
#X connect 131 0 90 4;
#X connect 135 0 186 1;
#X connect 136 0 186 2;
#X connect 138 0 186 3;
#X connect 139 0 186 4;
#X connect 143 0 187 1;
#X connect 144 0 187 2;
#X connect 146 0 187 3;
#X connect 147 0 187 4;
#X connect 151 0 188 1;
#X connect 152 0 188 2;
#X connect 154 0 188 3;
#X connect 155 0 188 4;
#X connect 159 0 189 1;
#X connect 160 0 189 2;
#X connect 162 0 189 3;
#X connect 163 0 189 4;
#X connect 167 0 190 1;
#X connect 168 0 190 2;
#X connect 170 0 190 3;
#X connect 171 0 190 4;
#X connect 175 0 91 0;
#X connect 175 1 135 0;
#X connect 175 2 143 0;
#X connect 175 3 151 0;
#X connect 175 4 159 0;
#X connect 175 5 167 0;
#X connect 176 0 168 0;
#X connect 176 0 160 0;
#X connect 176 0 152 0;
#X connect 176 0 144 0;
#X connect 176 0 136 0;
#X connect 176 0 92 0;
#X connect 176 0 126 1;
#X connect 178 0 131 0;
#X connect 178 1 139 0;
#X connect 178 2 147 0;
#X connect 178 3 155 0;
#X connect 178 4 163 0;
#X connect 178 5 171 0;
#X connect 181 0 195 0;
#X connect 181 1 194 0;
#X connect 181 2 191 0;
#X connect 181 3 128 0;
#X connect 182 0 183 0;
#X connect 182 1 181 0;
#X connect 183 0 170 0;
#X connect 183 0 162 0;
#X connect 183 0 154 0;
#X connect 183 0 146 0;
#X connect 183 0 138 0;
#X connect 183 0 130 0;
#X connect 184 0 182 0;
#X connect 186 0 118 0;
#X connect 187 0 119 0;
#X connect 188 0 120 0;
#X connect 189 0 121 0;
#X connect 190 0 122 0;
#X connect 191 0 178 0;
#X connect 193 0 65 0;
#X connect 194 0 175 0;
#X connect 195 0 176 0;
#X connect 196 0 178 0;
#X connect 197 0 12 0;
#X connect 198 0 35 0;
#X connect 199 0 78 0;
#X connect 200 0 52 0;
#X connect 201 0 23 0;
