#N canvas 255 139 1523 868 10;
#X obj 126 566 +;
#X obj 196 548 t b f;
#X floatatom 126 610 5 0 0 0 - - -;
#X floatatom 126 510 5 0 0 0 - - -;
#X floatatom 477 509 5 0 0 0 - - -;
#X text 161 511 Note;
#X text 522 511 Octave;
#X msg 142 102 0;
#X obj 127 305 f;
#X obj 96 305 + 1;
#X obj 35 339 tabwrite possible_notes;
#X obj 35 287 t f b;
#X obj 35 361 table possible_notes;
#X obj 35 84 t f b;
#X floatatom 35 33 5 0 0 0 - - -;
#X text 70 34 Set Possible Notes;
#X msg 492 102 0;
#X obj 477 292 f;
#X obj 510 292 + 1;
#X obj 385 274 t f b;
#X obj 385 84 t f b;
#X floatatom 385 33 5 0 0 0 - - -;
#X obj 385 113 sel 0 1 2;
#X text 418 34 Set Possible Octaves;
#X obj 385 326 tabwrite possible_octaves;
#X obj 385 355 table possible_octaves;
#X msg 662 102 0;
#X obj 647 292 f;
#X obj 680 292 + 1;
#X obj 555 274 t f b;
#X obj 555 84 t f b;
#X floatatom 555 33 5 0 0 0 - - -;
#X obj 555 113 sel 0 1 2;
#X text 590 34 Set Possible Sources;
#X obj 555 326 tabwrite possible_sources;
#X obj 555 355 table possible_sources;
#X floatatom 126 386 5 0 0 0 - - -;
#X floatatom 477 384 5 0 0 0 - - -;
#X floatatom 647 384 5 0 0 0 - - -;
#X msg 842 102 0;
#X obj 827 292 f;
#X obj 860 292 + 1;
#X obj 735 274 t f b;
#X obj 735 84 t f b;
#X floatatom 735 33 5 0 0 0 - - -;
#X obj 735 113 sel 0 1 2;
#X floatatom 827 384 5 0 0 0 - - -;
#X obj 735 326 tabwrite possible_times;
#X obj 735 355 table possible_times;
#X msg 316 102 0;
#X obj 301 292 f;
#X obj 334 292 + 1;
#X obj 209 274 t f b;
#X obj 209 84 t f b;
#X floatatom 209 33 5 0 0 0 - - -;
#X floatatom 301 384 5 0 0 0 - - -;
#X text 244 34 Set Possible Velocities;
#X obj 209 326 tabwrite possible_vels;
#X obj 209 355 table possible_vels;
#X msg 1022 102 0;
#X obj 1007 292 f;
#X obj 1040 292 + 1;
#X obj 915 274 t f b;
#X obj 915 84 t f b;
#X floatatom 915 33 5 0 0 0 - - -;
#X obj 915 113 sel 0 1 2;
#X floatatom 1007 384 5 0 0 0 - - -;
#X obj 915 326 tabwrite possible_glisses;
#X obj 915 355 table possible_glisses;
#X obj 126 488 tabread possible_notes;
#X obj 477 458 tabread possible_octaves;
#X obj 647 458 tabread possible_sources;
#X obj 812 455 tabread possible_times;
#X obj 301 458 tabread possible_vels;
#X obj 265 674 pack;
#X obj 1007 458 tabread possible_glisses;
#X obj 785 682 metro;
#X obj 785 656 tgl 15 0 empty empty empty 17 7 0 10 -262144 -1 -1 0
1;
#X floatatom 812 661 5 0 0 0 - - -;
#X obj 785 704 f;
#X obj 828 704 + 1;
#X obj 785 755 s melodier-get-index-all;
#X obj 856 642 bng 15 250 50 0 empty empty empty 17 7 0 10 -262144
-1 -1;
#X text 817 640 PLAY;
#X text 875 641 RESET;
#X msg 856 664 0;
#X obj 1007 507 s to_gliss_presets;
#X floatatom 126 467 5 0 0 0 - - -;
#X floatatom 477 437 5 0 0 0 - - -;
#X floatatom 647 436 5 0 0 0 - - -;
#X floatatom 827 435 5 0 0 0 - - -;
#X floatatom 301 437 5 0 0 0 - - -;
#X floatatom 1007 437 5 0 0 0 - - -;
#X floatatom 647 480 5 0 0 0 - - -;
#X floatatom 301 489 5 0 0 0 - - -;
#X floatatom 1007 480 5 0 0 0 - - -;
#X obj 785 726 %;
#X obj 860 581 s gliss-length-receive;
#X obj 655 638 r melodier-playstop;
#X obj 856 603 r melodier-reset;
#X text 950 34 Set Possible Gliss Preset;
#X text 339 488 Velocity;
#X text 127 628 Note;
#X obj 126 406 Melodier-Statfeed-Subpatch 0;
#X obj 921 687 ==;
#X obj 1009 669 - 1;
#X obj 921 709 sel 1;
#X obj 966 727 spigot;
#X obj 999 698 r melodier-regenerate;
#X obj 35 113 sel 0 1 2 3;
#X msg 82 178 0 \, 2 \, 4 \, 6 \, 8 \, 10;
#X msg 915 243 0 \, 0 \, 0 \, 0 \, 0 \, 0;
#X obj 35 11 inlet;
#X obj 209 11 inlet;
#X obj 385 11 inlet;
#X obj 555 11 inlet;
#X obj 735 11 inlet;
#X obj 915 11 inlet;
#X obj 103 56 s melodout-1;
#X msg 45 56 set \$1;
#X obj 269 60 s melodout-2;
#X obj 448 60 s melodout-3;
#X obj 617 58 s melodout-4;
#X obj 815 61 s melodout-5;
#X obj 972 59 s melodout-6;
#X msg 216 58 set \$1;
#X msg 396 58 set \$1;
#X msg 564 57 set \$1;
#X msg 759 61 set \$1;
#X msg 924 56 set \$1;
#X obj 966 756 s generate-new-trigger;
#X obj 102 650 s note-value;
#X obj 209 113 sel 0 1 2 3;
#X text 770 34 Set Possible Durations;
#X obj 812 563 *;
#X obj 165 570 r melodier-key-offset;
#X obj 126 588 +;
#X obj 301 406 Melodier-Statfeed-Subpatch 4;
#X obj 477 406 Melodier-Statfeed-Subpatch 1;
#X obj 647 406 Melodier-Statfeed-Subpatch 2;
#X obj 827 406 Melodier-Statfeed-Subpatch 3;
#X obj 1007 406 Melodier-Statfeed-Subpatch 5;
#X obj 211 526 * 12;
#X msg 98 149 0 \, 1 \, 2 \, 3 \, 4 \, 5 \, 6 \, 7 \, 8 \, 9 \, 10
\, 11;
#X msg 35 265 0 \, 2 \, 4 \, 5 \, 7 \, 9 \, 11;
#X msg 50 236 0 \, 2 \, 3 \, 5 \, 7 \, 8 \, 10;
#X msg 66 207 0 \, 2 \, 4 \, 7 \, 9;
#X obj 265 696 s keyboard_bypass_from_melodier;
#X obj 190 627 t f f;
#X obj 286 645 *;
#X msg 224 216 0.5 \, 1 \, 2 \, 0.5 \, 1 \, 2 \, 1 \, 1;
#X msg 209 245 1 \, 1 \, 1 \, 1 \, 1 \, 1 \, 1 \, 1;
#X msg 240 187 0.25 \, 0.5 \, 1 \, 2 \, 0.25 \, 0.5 \, 1 \, 2;
#X msg 385 243 4 \, 4 \, 4 \, 4 \, 4 \, 4 \, 4 \, 4;
#X msg 402 214 4 \, 3 \, 5 \, 4 \, 3 \, 5 \, 4 \, 4;
#X msg 419 165 3 \, 4 \, 5 \, 6 \, 3 \, 4 \, 5 \, 6;
#X msg 752 214 1 \, 1 \, 1 \, 1 \, 1 \, 0.5 \, 0.5 \, 0.5;
#X msg 735 243 1 \, 1 \, 1 \, 1 \, 1 \, 1 \, 1 \, 1;
#X msg 769 185 0.5 \, 1 \, 2 \, 0.5 \, 1 \, 2 \, 1 \, 1;
#X msg 932 214 0 \, 0 \, 0 \, 0 \, 4 \, 4 \, 4 \, 4;
#X msg 949 185 4 \, 4 \, 4 \, 4 \, 4 \, 4 \, 4 \, 4;
#X obj 596 518 route 999;
#X msg 555 243 999 \, 999 \, 999 \, 999 \, 999;
#X obj 647 557 s to-keyboard-sources;
#X text 690 485 0 - noise \; 1 - sig \; 2 - self \; 3 - DC \; 4 - orgy
;
#X msg 572 214 0 \, 1 \, 2 \, 0 \, 1 \, 2 \, 0 \, 0;
#X msg 589 185 0 \, 1 \, 2 \, 3 \, 4 \, 2 \, 3 \, 4;
#X obj 827 490 r duration-base;
#X obj 1009 577 r melodier-set-all-iters;
#X obj 1385 43 inlet;
#X obj 1385 82 sel 0 1 2 3;
#X obj 40 437 % 12;
#X obj 40 459 / 12;
#X obj 21 415 t b f b;
#X obj 126 438 spigot;
#X msg 181 433 0;
#X msg 241 433 1;
#X obj 21 392 r key_to_melod;
#X obj 27 480 loadbang;
#X msg 1352 312 0;
#X obj 1245 294 t f b;
#X floatatom 1245 243 5 0 0 0 - - -;
#X obj 1245 323 sel 0 1 2;
#X text 1280 244 Set Possible Gliss Preset;
#X obj 1245 221 inlet;
#X obj 1302 269 s melodout-6;
#X msg 1254 266 set \$1;
#X obj 1337 412 f;
#X obj 1370 412 + 1;
#X obj 1245 446 tabwrite possible_notelengths;
#X obj 1245 475 table possible_notelengths;
#X obj 1246 401 t f b;
#X floatatom 1327 524 5 0 0 0 - - -;
#X floatatom 1327 577 5 0 0 0 - - -;
#X floatatom 1327 620 5 0 0 0 - - -;
#X obj 1327 546 Melodier-Statfeed-Subpatch 6;
#X obj 1327 598 tabread possible_notelengths;
#X obj 1318 746 s note_lengths_panel;
#X obj 1318 707 *;
#X obj 1233 689 t b f;
#X msg 1245 366 1 \, 0.5 \, 1 \, 1 \, 0.5;
#X obj 1235 15 unpack f f f f f f f;
#X msg 1402 105 0 0 0 0 0 0 0;
#X msg 1402 127 1 1 1 1 1 1 1;
#X msg 1402 149 2 2 2 2 2 2 2;
#X connect 0 0 136 0;
#X connect 1 0 0 0;
#X connect 1 1 0 1;
#X connect 2 0 148 0;
#X connect 3 0 0 0;
#X connect 4 0 142 0;
#X connect 7 0 8 1;
#X connect 8 0 9 0;
#X connect 8 0 10 1;
#X connect 8 0 36 0;
#X connect 9 0 8 1;
#X connect 11 0 10 0;
#X connect 11 1 8 0;
#X connect 13 0 109 0;
#X connect 13 1 7 0;
#X connect 14 0 13 0;
#X connect 14 0 119 0;
#X connect 16 0 17 1;
#X connect 17 0 18 0;
#X connect 17 0 24 1;
#X connect 17 0 37 0;
#X connect 18 0 17 1;
#X connect 19 0 24 0;
#X connect 19 1 17 0;
#X connect 20 0 22 0;
#X connect 20 1 16 0;
#X connect 21 0 20 0;
#X connect 21 0 126 0;
#X connect 22 0 153 0;
#X connect 22 1 154 0;
#X connect 22 2 155 0;
#X connect 26 0 27 1;
#X connect 27 0 28 0;
#X connect 27 0 34 1;
#X connect 27 0 38 0;
#X connect 28 0 27 1;
#X connect 29 0 34 0;
#X connect 29 1 27 0;
#X connect 30 0 32 0;
#X connect 30 1 26 0;
#X connect 31 0 30 0;
#X connect 31 0 127 0;
#X connect 32 0 162 0;
#X connect 32 1 165 0;
#X connect 32 2 166 0;
#X connect 36 0 103 0;
#X connect 37 0 138 0;
#X connect 38 0 139 0;
#X connect 39 0 40 1;
#X connect 40 0 41 0;
#X connect 40 0 46 0;
#X connect 40 0 47 1;
#X connect 41 0 40 1;
#X connect 42 0 47 0;
#X connect 42 1 40 0;
#X connect 43 0 45 0;
#X connect 43 1 39 0;
#X connect 44 0 43 0;
#X connect 44 0 128 0;
#X connect 45 0 157 0;
#X connect 45 1 156 0;
#X connect 45 2 158 0;
#X connect 46 0 140 0;
#X connect 49 0 50 1;
#X connect 50 0 51 0;
#X connect 50 0 55 0;
#X connect 50 0 57 1;
#X connect 51 0 50 1;
#X connect 52 0 57 0;
#X connect 52 1 50 0;
#X connect 53 0 132 0;
#X connect 53 1 49 0;
#X connect 54 0 53 0;
#X connect 54 0 125 0;
#X connect 55 0 137 0;
#X connect 59 0 60 1;
#X connect 60 0 61 0;
#X connect 60 0 66 0;
#X connect 60 0 67 1;
#X connect 61 0 60 1;
#X connect 62 0 67 0;
#X connect 62 1 60 0;
#X connect 63 0 65 0;
#X connect 63 1 59 0;
#X connect 64 0 63 0;
#X connect 64 0 129 0;
#X connect 65 0 111 0;
#X connect 65 1 159 0;
#X connect 65 2 160 0;
#X connect 66 0 141 0;
#X connect 69 0 3 0;
#X connect 70 0 4 0;
#X connect 71 0 93 0;
#X connect 72 0 134 0;
#X connect 73 0 94 0;
#X connect 74 0 147 0;
#X connect 75 0 95 0;
#X connect 76 0 79 0;
#X connect 77 0 76 0;
#X connect 78 0 76 1;
#X connect 79 0 80 0;
#X connect 79 0 96 0;
#X connect 80 0 79 1;
#X connect 82 0 85 0;
#X connect 85 0 79 1;
#X connect 87 0 69 0;
#X connect 88 0 70 0;
#X connect 89 0 71 0;
#X connect 90 0 72 0;
#X connect 91 0 73 0;
#X connect 92 0 75 0;
#X connect 93 0 161 0;
#X connect 94 0 149 1;
#X connect 95 0 86 0;
#X connect 96 0 81 0;
#X connect 96 0 104 0;
#X connect 98 0 77 0;
#X connect 99 0 82 0;
#X connect 103 0 174 0;
#X connect 104 0 106 0;
#X connect 105 0 104 1;
#X connect 106 0 107 0;
#X connect 107 0 130 0;
#X connect 108 0 107 1;
#X connect 109 0 144 0;
#X connect 109 1 145 0;
#X connect 109 2 146 0;
#X connect 109 3 110 0;
#X connect 109 4 143 0;
#X connect 110 0 11 0;
#X connect 111 0 62 0;
#X connect 112 0 14 0;
#X connect 113 0 54 0;
#X connect 114 0 21 0;
#X connect 115 0 31 0;
#X connect 116 0 44 0;
#X connect 117 0 64 0;
#X connect 119 0 118 0;
#X connect 125 0 120 0;
#X connect 126 0 121 0;
#X connect 127 0 122 0;
#X connect 128 0 123 0;
#X connect 129 0 124 0;
#X connect 132 0 151 0;
#X connect 132 1 150 0;
#X connect 132 2 152 0;
#X connect 134 0 78 0;
#X connect 134 0 97 0;
#X connect 134 0 199 0;
#X connect 135 0 136 1;
#X connect 136 0 2 0;
#X connect 136 0 131 0;
#X connect 137 0 91 0;
#X connect 138 0 88 0;
#X connect 139 0 89 0;
#X connect 140 0 90 0;
#X connect 141 0 92 0;
#X connect 142 0 1 0;
#X connect 143 0 11 0;
#X connect 144 0 11 0;
#X connect 145 0 11 0;
#X connect 146 0 11 0;
#X connect 148 0 74 0;
#X connect 148 1 149 0;
#X connect 149 0 74 1;
#X connect 150 0 52 0;
#X connect 151 0 52 0;
#X connect 152 0 52 0;
#X connect 153 0 19 0;
#X connect 154 0 19 0;
#X connect 155 0 19 0;
#X connect 156 0 42 0;
#X connect 157 0 42 0;
#X connect 158 0 42 0;
#X connect 159 0 62 0;
#X connect 160 0 62 0;
#X connect 161 1 163 0;
#X connect 162 0 29 0;
#X connect 165 0 29 0;
#X connect 166 0 29 0;
#X connect 167 0 134 1;
#X connect 168 0 105 0;
#X connect 168 0 96 1;
#X connect 169 0 170 0;
#X connect 170 0 202 0;
#X connect 170 1 203 0;
#X connect 170 2 204 0;
#X connect 171 0 172 0;
#X connect 172 0 103 1;
#X connect 173 0 176 0;
#X connect 173 1 171 0;
#X connect 173 2 175 0;
#X connect 174 0 87 0;
#X connect 175 0 174 1;
#X connect 176 0 174 1;
#X connect 177 0 173 0;
#X connect 178 0 176 0;
#X connect 179 0 187 1;
#X connect 180 0 182 0;
#X connect 180 1 179 0;
#X connect 181 0 180 0;
#X connect 181 0 186 0;
#X connect 182 0 200 0;
#X connect 184 0 181 0;
#X connect 186 0 185 0;
#X connect 187 0 188 0;
#X connect 187 0 189 1;
#X connect 187 0 192 0;
#X connect 188 0 187 1;
#X connect 191 0 189 0;
#X connect 191 1 187 0;
#X connect 192 0 195 0;
#X connect 193 0 196 0;
#X connect 194 0 198 0;
#X connect 195 0 193 0;
#X connect 196 0 194 0;
#X connect 198 0 197 0;
#X connect 199 0 198 0;
#X connect 199 1 198 1;
#X connect 200 0 191 0;
#X connect 201 0 14 0;
#X connect 201 1 21 0;
#X connect 201 2 31 0;
#X connect 201 3 44 0;
#X connect 201 4 54 0;
#X connect 201 5 64 0;
#X connect 201 6 181 0;
#X connect 202 0 201 0;
#X connect 203 0 201 0;
#X connect 204 0 201 0;
