#N canvas 290 273 1511 807 10;
#X obj 62 321 statfeed;
#X floatatom 84 247 5 0 0 0 - - -, f 5;
#X obj 62 196 random 1000;
#X obj 62 225 / 999;
#X obj 82 170 bng 15 250 50 0 empty empty empty 17 7 0 10 -262144 -1
-1;
#X floatatom 107 291 5 0 0 0 - - -, f 5;
#X msg 62 113 randomize;
#X obj 1077 322 statfeed;
#X floatatom 1099 247 5 0 0 0 - - -, f 5;
#X floatatom 1122 291 5 0 0 0 - - -, f 5;
#X obj 1217 320 statfeed;
#X floatatom 1239 247 5 0 0 0 - - -, f 5;
#X floatatom 1262 291 5 0 0 0 - - -, f 5;
#X obj 1172 359 f;
#X obj 1172 436 /;
#X obj 1172 170 bng 15 250 50 0 empty empty empty 17 7 0 10 -262144
-1 -1;
#X floatatom 1172 388 5 0 0 0 - - -, f 5;
#X floatatom 917 340 5 0 0 0 - - -, f 5;
#X floatatom 1217 342 5 0 0 0 - - -, f 5;
#X msg 1107 113 randomize;
#X obj 1077 436 /;
#X obj 1369 152 until;
#X obj 492 311 statfeed;
#X floatatom 514 247 5 0 0 0 - - -, f 5;
#X floatatom 557 291 5 0 0 0 - - -, f 5;
#X msg 492 113 randomize;
#X msg 492 211 0.001;
#X obj 502 170 bng 15 250 50 0 empty empty empty 17 7 0 10 -262144
-1 -1;
#X text 529 210 epsilon;
#X obj 1396 392 t a;
#X obj 1011 410 t b b;
#X obj 586 410 t b b;
#X obj 124 410 t b b;
#X floatatom 62 355 5 0 0 0 - - -, f 5;
#X obj 1342 64 t b b;
#X obj 224 266 nbx 5 25 -1e+37 1e+37 0 0 empty empty empty 0 -8 0 20
-262144 -1 -1 6 256;
#X obj 751 222 nbx 5 25 -1e+37 1e+37 0 0 empty empty empty 0 -8 0 20
-262144 -1 -1 6 256;
#X obj 1369 123 f;
#X obj 94 16 inlet;
#X text 130 16 ELEMS;
#X obj 224 18 inlet;
#X obj 337 19 inlet;
#X text 262 18 EXPONENT;
#X text 372 19 Iterations;
#X obj 457 19 inlet;
#X text 496 20 Generate;
#X obj 457 49 bng 15 250 50 0 empty empty empty 17 7 0 10 -262144 -1
-1;
#X msg 124 437 0;
#X obj 89 472 f;
#X obj 122 471 + 1;
#X obj 62 443 t f b;
#X obj 62 541 tabwrite melodier-\$1-random;
#X obj 62 570 table melodier-\$1-random;
#X msg 554 437 0;
#X obj 519 471 f;
#X obj 552 471 + 1;
#X obj 492 443 t f b;
#X msg 979 437 0;
#X obj 944 471 f;
#X obj 977 471 + 1;
#X obj 917 443 t f b;
#X obj 492 551 tabwrite melodier-\$1-single;
#X obj 492 580 table melodier-\$1-single;
#X obj 917 501 tabwrite melodier-\$1-feedback;
#X obj 917 530 table melodier-\$1-feedback;
#X obj 715 18 inlet;
#X text 752 18 Call Index;
#X obj 757 696 outlet;
#X obj 715 625 tabread melodier-\$1-random;
#X obj 736 596 tabread melodier-\$1-single;
#X obj 757 567 tabread melodier-\$1-feedback;
#X obj 715 538 route 0 1 2;
#X obj 715 509 pack;
#X obj 715 480 f;
#X obj 715 451 t b f;
#X obj 573 18 inlet;
#X text 610 18 Topology;
#X floatatom 715 679 5 0 0 0 - - -, f 5;
#X floatatom 736 661 5 0 0 0 - - -, f 5;
#X floatatom 757 644 5 0 0 0 - - -, f 5;
#X floatatom 337 106 5 0 0 0 - - -, f 5;
#X obj 224 247 *;
#X obj 224 136 t b f;
#X obj 177 204 + 1;
#X text 775 204 ELEMS;
#X obj 1369 92 t b b;
#X obj 886 95 inlet;
#X text 876 73 RANDOMIZE;
#X connect 0 0 33 0;
#X connect 1 0 0 1;
#X connect 2 0 3 0;
#X connect 3 0 0 0;
#X connect 4 0 2 0;
#X connect 5 0 0 2;
#X connect 6 0 0 0;
#X connect 7 0 17 0;
#X connect 7 0 20 0;
#X connect 8 0 7 1;
#X connect 9 0 7 2;
#X connect 10 0 18 0;
#X connect 11 0 10 1;
#X connect 12 0 10 2;
#X connect 13 0 16 0;
#X connect 14 0 7 0;
#X connect 15 0 13 0;
#X connect 16 0 14 0;
#X connect 17 0 60 0;
#X connect 18 0 13 1;
#X connect 19 0 10 0;
#X connect 19 0 7 0;
#X connect 20 0 10 0;
#X connect 21 0 15 0;
#X connect 21 0 27 0;
#X connect 21 0 4 0;
#X connect 22 0 56 0;
#X connect 23 0 22 1;
#X connect 24 0 22 2;
#X connect 25 0 22 0;
#X connect 26 0 22 0;
#X connect 27 0 26 0;
#X connect 29 0 30 0;
#X connect 29 0 31 0;
#X connect 29 0 32 0;
#X connect 30 0 57 0;
#X connect 31 0 53 0;
#X connect 32 0 47 0;
#X connect 33 0 50 0;
#X connect 34 1 85 0;
#X connect 35 0 5 0;
#X connect 35 0 24 0;
#X connect 35 0 9 0;
#X connect 35 0 12 0;
#X connect 36 0 1 0;
#X connect 36 0 23 0;
#X connect 36 0 8 0;
#X connect 36 0 11 0;
#X connect 36 0 20 1;
#X connect 36 0 14 1;
#X connect 36 0 81 0;
#X connect 37 0 21 0;
#X connect 38 0 83 0;
#X connect 40 0 82 0;
#X connect 41 0 80 0;
#X connect 44 0 46 0;
#X connect 46 0 34 0;
#X connect 47 0 48 1;
#X connect 48 0 49 0;
#X connect 48 0 51 1;
#X connect 49 0 48 1;
#X connect 50 0 51 0;
#X connect 50 1 48 0;
#X connect 53 0 54 1;
#X connect 54 0 55 0;
#X connect 54 0 61 1;
#X connect 55 0 54 1;
#X connect 56 0 61 0;
#X connect 56 1 54 0;
#X connect 57 0 58 1;
#X connect 58 0 59 0;
#X connect 58 0 63 1;
#X connect 59 0 58 1;
#X connect 60 0 63 0;
#X connect 60 1 58 0;
#X connect 65 0 74 0;
#X connect 68 0 77 0;
#X connect 69 0 78 0;
#X connect 70 0 79 0;
#X connect 71 0 68 0;
#X connect 71 1 69 0;
#X connect 71 2 70 0;
#X connect 72 0 71 0;
#X connect 73 0 72 0;
#X connect 74 0 73 0;
#X connect 74 1 72 1;
#X connect 75 0 73 1;
#X connect 77 0 67 0;
#X connect 78 0 67 0;
#X connect 79 0 67 0;
#X connect 80 0 37 1;
#X connect 81 0 35 0;
#X connect 82 0 81 0;
#X connect 82 1 81 1;
#X connect 83 0 36 0;
#X connect 85 0 37 0;
#X connect 85 1 29 0;
#X connect 86 0 19 0;
#X connect 86 0 25 0;
#X connect 86 0 6 0;
