#N canvas 1256 460 643 420 12;
#X obj 56 18 inlet;
#X msg 183 85 0;
#X obj 165 243 f;
#X obj 134 243 + 1;
#X obj 36 223 t f b;
#X obj 56 65 t f b;
#X obj 56 92 sel 0 1 2 3 4 5, f 16;
#X obj 36 286 outlet;
#X obj 165 286 outlet;
#X msg 56 170 1 \, 0.5 \, 1 \, 1 \, 0.5 \, 0.25 \, 0.25;
#X msg 74 139 1 \, 2 \, 1 \, 2 \, 3 \, 1 \, 1 \, 0.5 \, 0.5;
#X connect 0 0 5 0;
#X connect 1 0 2 1;
#X connect 2 0 3 0;
#X connect 2 0 8 0;
#X connect 3 0 2 1;
#X connect 4 0 7 0;
#X connect 4 1 2 0;
#X connect 5 0 6 0;
#X connect 5 1 1 0;
#X connect 6 0 9 0;
#X connect 6 1 10 0;
#X connect 9 0 4 0;
#X connect 10 0 4 0;
