#N canvas 94 137 911 899 10;
#X obj 107 751 expr (44100/$f1);
#X obj 122 647 * 12;
#X obj 107 702 +;
#X obj 107 674 t b f;
#X floatatom 107 780 5 0 0 0 - - -, f 5;
#X floatatom 107 618 5 0 0 0 - - -, f 5;
#X floatatom 307 618 5 0 0 0 - - -, f 5;
#X text 142 619 Note;
#X text 343 620 Octave;
#X msg 122 146 0;
#X obj 107 274 f;
#X obj 140 274 + 1;
#X obj 15 308 tabwrite possible_notes;
#X obj 15 256 t f b;
#X obj 15 337 table possible_notes;
#X obj 15 128 t f b;
#X msg 15 227 0 \, 1 \, 2 \, 3 \, 4 \, 5 \, 6 \, 7;
#X floatatom 15 100 5 0 0 0 - - -, f 5;
#X text 50 101 Set Possible Notes;
#X obj 15 157 sel 0 1 2;
#X msg 32 198;
#X text 57 199 Other scale?;
#X msg 322 146 0;
#X obj 307 274 f;
#X obj 340 274 + 1;
#X obj 215 256 t f b;
#X obj 215 128 t f b;
#X floatatom 215 100 5 0 0 0 - - -, f 5;
#X obj 215 157 sel 0 1 2;
#X msg 232 198;
#X text 250 101 Set Possible Octaves;
#X text 257 199 Other set?;
#X obj 215 308 tabwrite possible_octaves;
#X obj 215 337 table possible_octaves;
#X msg 532 146 0;
#X obj 517 274 f;
#X obj 550 274 + 1;
#X obj 425 256 t f b;
#X obj 425 128 t f b;
#X floatatom 425 100 5 0 0 0 - - -, f 5;
#X obj 425 157 sel 0 1 2;
#X msg 442 198;
#X text 460 101 Set Possible Sources;
#X obj 425 308 tabwrite possible_sources;
#X obj 425 337 table possible_sources;
#X floatatom 107 366 5 0 0 0 - - -, f 5;
#X text 141 368 Max;
#X floatatom 307 366 5 0 0 0 - - -, f 5;
#X text 341 368 Max;
#X floatatom 517 366 5 0 0 0 - - -, f 5;
#X text 551 368 Max;
#X msg 742 146 0;
#X obj 727 274 f;
#X obj 760 274 + 1;
#X obj 635 256 t f b;
#X obj 635 128 t f b;
#X floatatom 635 100 5 0 0 0 - - -, f 5;
#X obj 635 157 sel 0 1 2;
#X msg 652 198;
#X floatatom 727 366 5 0 0 0 - - -, f 5;
#X text 761 368 Max;
#X text 670 101 Set Possible Times;
#X obj 635 308 tabwrite possible_times;
#X obj 635 337 table possible_times;
#X msg 932 146 0;
#X obj 917 274 f;
#X obj 950 274 + 1;
#X obj 825 256 t f b;
#X obj 825 128 t f b;
#X floatatom 825 100 5 0 0 0 - - -, f 5;
#X obj 825 157 sel 0 1 2;
#X msg 842 198;
#X floatatom 917 366 5 0 0 0 - - -, f 5;
#X text 951 368 Max;
#X text 860 101 Set Possible Velocities;
#X obj 825 308 tabwrite possible_vels;
#X obj 825 337 table possible_vels;
#X msg 1142 146 0;
#X obj 1127 274 f;
#X obj 1160 274 + 1;
#X obj 1035 256 t f b;
#X obj 1035 128 t f b;
#X floatatom 1035 100 5 0 0 0 - - -, f 5;
#X obj 1035 157 sel 0 1 2;
#X msg 1052 198;
#X floatatom 1127 366 5 0 0 0 - - -, f 5;
#X text 1161 368 Max;
#X text 1070 101 Set Possible Glisses;
#X obj 1035 308 tabwrite possible_glisses;
#X obj 1035 337 table possible_glisses;
#X text 1088 122 basically... on or off? Time should be Time...;
#X obj 107 543 tabread possible_notes;
#X obj 107 476 Melodier-Statfeed-Subpatch 0;
#X floatatom 140 392 5 0 0 0 - - -, f 5;
#X floatatom 173 420 5 0 0 0 - - -, f 5;
#X obj 307 543 tabread possible_octaves;
#X obj 517 543 tabread possible_sources;
#X obj 727 543 tabread possible_times;
#X obj 917 543 tabread possible_vels;
#X obj 181 797 pack;
#X obj 1127 543 tabread possible_glisses;
#X obj 704 744 metro;
#X obj 704 692 tgl 15 0 empty empty empty 17 7 0 10 -262144 -1 -1 1
1;
#X floatatom 727 721 5 0 0 0 - - -, f 5;
#X obj 704 773 f;
#X obj 747 773 + 1;
#X obj 704 872 s melodier-get-index-all;
#X obj 1316 458 r melodier-get-index-all;
#X obj 775 692 bng 15 250 50 0 empty empty empty 17 7 0 10 -262144
-1 -1;
#X text 667 690 PLAY;
#X text 794 691 RESET;
#X msg 775 724 0;
#X text 467 199 Other sources;
#X text 677 199 Other times?;
#X text 867 199 Other velocities?;
#X text 1077 199 Other glisses?;
#X obj 181 826 s keyboard_bypass;
#X obj 517 600 s to_source_presets;
#X obj 1127 599 s to_gliss_presets;
#X floatatom 107 512 5 0 0 0 - - -, f 5;
#X floatatom 307 512 5 0 0 0 - - -, f 5;
#X floatatom 517 512 5 0 0 0 - - -, f 5;
#X floatatom 727 512 5 0 0 0 - - -, f 5;
#X floatatom 917 512 5 0 0 0 - - -, f 5;
#X floatatom 1127 512 5 0 0 0 - - -, f 5;
#X floatatom 517 572 5 0 0 0 - - -, f 5;
#X floatatom 917 572 5 0 0 0 - - -, f 5;
#X floatatom 1127 572 5 0 0 0 - - -, f 5;
#X obj 704 819 %;
#X obj 662 801 + 1;
#X obj 1539 82 unpack f f f f f f;
#X msg 1539 55 0 0 0 0 0 0;
#X msg 425 227 1 \, 2 \, 3;
#X text 173 393 Exp;
#X obj 206 450 bng 15 250 50 0 empty empty empty 17 7 0 10 -262144
-1 -1;
#X floatatom 239 402 5 0 0 0 - - -, f 5;
#X text 206 422 Iters;
#X text 224 449 Generate;
#X text 272 403 Topo;
#X floatatom 340 392 5 0 0 0 - - -, f 5;
#X floatatom 373 420 5 0 0 0 - - -, f 5;
#X text 373 393 Exp;
#X obj 406 450 bng 15 250 50 0 empty empty empty 17 7 0 10 -262144
-1 -1;
#X floatatom 439 402 5 0 0 0 - - -, f 5;
#X text 406 422 Iters;
#X text 424 449 Generate;
#X text 472 403 Topo;
#X floatatom 550 392 5 0 0 0 - - -, f 5;
#X floatatom 583 420 5 0 0 0 - - -, f 5;
#X text 583 393 Exp;
#X obj 616 450 bng 15 250 50 0 empty empty empty 17 7 0 10 -262144
-1 -1;
#X floatatom 649 402 5 0 0 0 - - -, f 5;
#X text 616 422 Iters;
#X text 634 449 Generate;
#X text 682 403 Topo;
#X floatatom 760 392 5 0 0 0 - - -, f 5;
#X floatatom 793 420 5 0 0 0 - - -, f 5;
#X text 793 393 Exp;
#X obj 826 450 bng 15 250 50 0 empty empty empty 17 7 0 10 -262144
-1 -1;
#X floatatom 859 402 5 0 0 0 - - -, f 5;
#X text 826 422 Iters;
#X text 844 449 Generate;
#X text 892 403 Topo;
#X floatatom 950 392 5 0 0 0 - - -, f 5;
#X floatatom 983 420 5 0 0 0 - - -, f 5;
#X text 983 393 Exp;
#X obj 1016 450 bng 15 250 50 0 empty empty empty 17 7 0 10 -262144
-1 -1;
#X floatatom 1049 402 5 0 0 0 - - -, f 5;
#X text 1016 422 Iters;
#X text 1034 449 Generate;
#X text 1082 403 Topo;
#X floatatom 1160 392 5 0 0 0 - - -, f 5;
#X floatatom 1193 420 5 0 0 0 - - -, f 5;
#X text 1193 393 Exp;
#X obj 1226 450 bng 15 250 50 0 empty empty empty 17 7 0 10 -262144
-1 -1;
#X floatatom 1259 402 5 0 0 0 - - -, f 5;
#X text 1226 422 Iters;
#X text 1244 449 Generate;
#X text 1292 403 Topo;
#X obj 1304 374 unpack f f f f f f;
#X floatatom 1361 403 5 0 0 0 - - -, f 5;
#X text 1394 404 Iterations;
#X obj 1475 384 unpack f f f f f f;
#X text 1503 364 Topology;
#X text 1321 357 Exponent multiplier;
#X msg 1304 335 1 1 1 1 1 1;
#X msg 1475 343 0 0 0 0 0 0;
#X msg 1421 255 8;
#X obj 1488 237 t b b b b;
#X obj 1461 208 t b b;
#X obj 1461 435 bng 15 250 50 0 empty empty empty 17 7 0 10 -262144
-1 -1;
#X obj 1461 43 bng 15 250 50 0 empty empty empty 17 7 0 10 -262144
-1 -1;
#X msg 635 227 250 \, 500 \, 1000;
#X msg 825 227 70 \, 100 \, 100 \, 100;
#X obj 107 726 mtof;
#X obj 735 573 s gliss-length-receive;
#X msg 1035 227 0 \, 1 \, 0 \, 0;
#X msg 215 227 3 \, 4 \, 5;
#X obj 307 476 Melodier-Statfeed-Subpatch 1;
#X obj 517 476 Melodier-Statfeed-Subpatch 2;
#X obj 727 476 Melodier-Statfeed-Subpatch 3;
#X obj 917 476 Melodier-Statfeed-Subpatch 4;
#X obj 1127 476 Melodier-Statfeed-Subpatch 5;
#X connect 0 0 4 0;
#X connect 1 0 3 0;
#X connect 2 0 194 0;
#X connect 3 0 2 0;
#X connect 3 1 2 1;
#X connect 4 0 99 0;
#X connect 5 0 2 0;
#X connect 6 0 1 0;
#X connect 9 0 10 1;
#X connect 10 0 11 0;
#X connect 10 0 12 1;
#X connect 10 0 45 0;
#X connect 11 0 10 1;
#X connect 13 0 12 0;
#X connect 13 1 10 0;
#X connect 15 0 19 0;
#X connect 15 1 9 0;
#X connect 16 0 13 0;
#X connect 17 0 15 0;
#X connect 19 0 16 0;
#X connect 19 1 20 0;
#X connect 22 0 23 1;
#X connect 23 0 24 0;
#X connect 23 0 32 1;
#X connect 23 0 47 0;
#X connect 24 0 23 1;
#X connect 25 0 32 0;
#X connect 25 1 23 0;
#X connect 26 0 28 0;
#X connect 26 1 22 0;
#X connect 27 0 26 0;
#X connect 28 0 197 0;
#X connect 28 1 29 0;
#X connect 34 0 35 1;
#X connect 35 0 36 0;
#X connect 35 0 43 1;
#X connect 35 0 49 0;
#X connect 36 0 35 1;
#X connect 37 0 43 0;
#X connect 37 1 35 0;
#X connect 38 0 40 0;
#X connect 38 1 34 0;
#X connect 39 0 38 0;
#X connect 40 0 132 0;
#X connect 40 1 41 0;
#X connect 45 0 92 0;
#X connect 45 0 129 0;
#X connect 47 0 198 0;
#X connect 49 0 199 0;
#X connect 51 0 52 1;
#X connect 52 0 53 0;
#X connect 52 0 59 0;
#X connect 52 0 62 1;
#X connect 53 0 52 1;
#X connect 54 0 62 0;
#X connect 54 1 52 0;
#X connect 55 0 57 0;
#X connect 55 1 51 0;
#X connect 56 0 55 0;
#X connect 57 0 192 0;
#X connect 57 1 58 0;
#X connect 59 0 200 0;
#X connect 64 0 65 1;
#X connect 65 0 66 0;
#X connect 65 0 72 0;
#X connect 65 0 75 1;
#X connect 66 0 65 1;
#X connect 67 0 75 0;
#X connect 67 1 65 0;
#X connect 68 0 70 0;
#X connect 68 1 64 0;
#X connect 69 0 68 0;
#X connect 70 0 193 0;
#X connect 70 1 71 0;
#X connect 72 0 201 0;
#X connect 77 0 78 1;
#X connect 78 0 79 0;
#X connect 78 0 85 0;
#X connect 78 0 88 1;
#X connect 79 0 78 1;
#X connect 80 0 88 0;
#X connect 80 1 78 0;
#X connect 81 0 83 0;
#X connect 81 1 77 0;
#X connect 82 0 81 0;
#X connect 83 0 196 0;
#X connect 83 1 84 0;
#X connect 85 0 202 0;
#X connect 91 0 5 0;
#X connect 92 0 119 0;
#X connect 93 0 92 1;
#X connect 94 0 92 2;
#X connect 95 0 6 0;
#X connect 96 0 125 0;
#X connect 97 0 103 0;
#X connect 97 0 195 0;
#X connect 98 0 126 0;
#X connect 99 0 116 0;
#X connect 100 0 127 0;
#X connect 101 0 104 0;
#X connect 102 0 101 0;
#X connect 103 0 101 1;
#X connect 104 0 105 0;
#X connect 104 0 128 0;
#X connect 105 0 104 1;
#X connect 107 0 92 5;
#X connect 107 0 198 5;
#X connect 107 0 199 5;
#X connect 107 0 200 5;
#X connect 107 0 201 5;
#X connect 107 0 202 5;
#X connect 108 0 111 0;
#X connect 111 0 104 1;
#X connect 119 0 91 0;
#X connect 120 0 95 0;
#X connect 121 0 96 0;
#X connect 122 0 97 0;
#X connect 123 0 98 0;
#X connect 124 0 100 0;
#X connect 125 0 117 0;
#X connect 126 0 99 1;
#X connect 127 0 118 0;
#X connect 128 0 106 0;
#X connect 129 0 128 1;
#X connect 130 0 17 0;
#X connect 130 1 27 0;
#X connect 130 2 39 0;
#X connect 130 3 56 0;
#X connect 130 4 69 0;
#X connect 130 5 82 0;
#X connect 131 0 130 0;
#X connect 132 0 37 0;
#X connect 134 0 92 3;
#X connect 135 0 92 4;
#X connect 139 0 198 1;
#X connect 140 0 198 2;
#X connect 142 0 198 3;
#X connect 143 0 198 4;
#X connect 147 0 199 1;
#X connect 148 0 199 2;
#X connect 150 0 199 3;
#X connect 151 0 199 4;
#X connect 155 0 200 1;
#X connect 156 0 200 2;
#X connect 158 0 200 3;
#X connect 159 0 200 4;
#X connect 163 0 201 1;
#X connect 164 0 201 2;
#X connect 166 0 201 3;
#X connect 167 0 201 4;
#X connect 171 0 202 1;
#X connect 172 0 202 2;
#X connect 174 0 202 3;
#X connect 175 0 202 4;
#X connect 179 0 93 0;
#X connect 179 1 139 0;
#X connect 179 2 147 0;
#X connect 179 3 155 0;
#X connect 179 4 163 0;
#X connect 179 5 171 0;
#X connect 180 0 172 0;
#X connect 180 0 164 0;
#X connect 180 0 156 0;
#X connect 180 0 148 0;
#X connect 180 0 140 0;
#X connect 180 0 94 0;
#X connect 182 0 135 0;
#X connect 182 1 143 0;
#X connect 182 2 151 0;
#X connect 182 3 159 0;
#X connect 182 4 167 0;
#X connect 182 5 175 0;
#X connect 185 0 179 0;
#X connect 186 0 182 0;
#X connect 187 0 180 0;
#X connect 188 0 187 0;
#X connect 188 1 185 0;
#X connect 188 2 186 0;
#X connect 188 3 131 0;
#X connect 189 0 190 0;
#X connect 189 1 188 0;
#X connect 190 0 174 0;
#X connect 190 0 166 0;
#X connect 190 0 158 0;
#X connect 190 0 150 0;
#X connect 190 0 142 0;
#X connect 190 0 134 0;
#X connect 191 0 189 0;
#X connect 192 0 54 0;
#X connect 193 0 67 0;
#X connect 194 0 0 0;
#X connect 196 0 80 0;
#X connect 197 0 25 0;
#X connect 198 0 120 0;
#X connect 199 0 121 0;
#X connect 200 0 122 0;
#X connect 201 0 123 0;
#X connect 202 0 124 0;
