#N canvas 869 300 922 491 12;
#X obj 56 28 inlet;
#X msg 203 95 0;
#X obj 185 403 f;
#X obj 154 403 + 1;
#X obj 36 383 t f b;
#X obj 56 75 t f b;
#X obj 36 436 outlet;
#X obj 185 436 outlet;
#X msg 56 329 4 \, 4 \, 4 \, 4 \, 4 \, 4 \, 4 \, 4 \, 4 \, 4 \, 4 \,
4 \, 4 \, 4 \, 4 \, 4;
#X msg 74 300 4 \, 3 \, 5 \, 4 \, 3 \, 5 \, 4 \, 4 \, 4 \, 3 \, 5 \,
4 \, 3 \, 5 \, 4 \, 4;
#X msg 93 271 3 \, 4 \, 5 \, 6 \, 3 \, 4 \, 5 \, 6 \, 3 \, 4 \, 5 \,
6 \, 3 \, 4 \, 5 \, 6;
#X msg 111 241 2 \, 3 \, 4 \, 5 \, 6 \, 7 \, 2 \, 3 \, 4 \, 5 \, 6
\, 7 \, 2 \, 3 \, 4 \, 5;
#X msg 130 211 2 \, 3 \, 4 \, 5 \, 6 \, 7 \, 2 \, 3 \, 4 \, 5 \, 6
\, 7 \, 2 \, 3 \, 4 \, 5;
#X obj 56 102 sel 0 1 2 3 4 5 6, f 19;
#X msg 148 181 2 \, 3 \, 3 \, 5 \, 6 \, 7 \, 2 \, 3 \, 5 \, 2 \, 6
\, 7 \, 2 \, 3 \, 5 \, 5;
#X msg 167 151 2 \, 3 \, 6 \, 7 \, 2 \, 3 \, 6 \, 7 \, 2 \, 3 \, 6
\, 7 \, 2 \, 3 \, 6 \, 7;
#X connect 0 0 5 0;
#X connect 1 0 2 1;
#X connect 2 0 3 0;
#X connect 2 0 7 0;
#X connect 3 0 2 1;
#X connect 4 0 6 0;
#X connect 4 1 2 0;
#X connect 5 0 13 0;
#X connect 5 1 1 0;
#X connect 8 0 4 0;
#X connect 9 0 4 0;
#X connect 10 0 4 0;
#X connect 12 0 4 0;
#X connect 13 0 8 0;
#X connect 13 1 9 0;
#X connect 13 2 10 0;
#X connect 13 3 11 0;
#X connect 13 4 12 0;
#X connect 13 5 14 0;
#X connect 13 6 15 0;
#X connect 14 0 4 0;
#X connect 15 0 4 0;
