#N canvas 363 458 1440 720 10;
#X obj 227 371 statfeed;
#X floatatom 249 297 5 0 0 0 - - -;
#X obj 227 246 random 1000;
#X obj 227 275 / 999;
#X obj 372 231 bng 15 250 50 0 empty empty empty 17 7 0 10 -262144
-1 -1;
#X floatatom 272 341 5 0 0 0 - - -;
#X msg 227 163 randomize;
#X obj 709 372 statfeed;
#X floatatom 731 297 5 0 0 0 - - -;
#X floatatom 754 341 5 0 0 0 - - -;
#X obj 789 370 statfeed;
#X floatatom 811 297 5 0 0 0 - - -;
#X floatatom 834 341 5 0 0 0 - - -;
#X obj 804 420 f;
#X obj 754 476 /;
#X obj 804 231 bng 15 250 50 0 empty empty empty 17 7 0 10 -262144
-1 -1;
#X floatatom 804 459 5 0 0 0 - - -;
#X floatatom 621 390 5 0 0 0 - - -;
#X floatatom 789 392 5 0 0 0 - - -;
#X msg 709 163 randomize;
#X obj 709 476 /;
#X obj 821 213 until;
#X obj 472 361 statfeed;
#X floatatom 494 297 5 0 0 0 - - -;
#X floatatom 537 341 5 0 0 0 - - -;
#X msg 472 163 randomize;
#X msg 482 250 0.001;
#X obj 482 231 bng 15 250 50 0 empty empty empty 17 7 0 10 -262144
-1 -1;
#X text 519 249 epsilon;
#X obj 848 432 t a;
#X obj 663 450 t b b;
#X obj 506 450 t b b;
#X obj 289 450 t b b;
#X floatatom 227 405 5 0 0 0 - - -;
#X obj 794 145 t b b;
#X obj 324 316 nbx 5 25 -1e+37 1e+37 0 0 empty empty empty 0 -8 0 20
-262144 -1 -1 8.34684 256;
#X obj 594 272 nbx 5 25 -1e+37 1e+37 0 0 empty empty empty 0 -8 0 20
-262144 -1 -1 7 256;
#X obj 821 187 f;
#X obj 273 97 inlet;
#X text 272 76 ELEMS;
#X text 315 76 EXPONENT;
#X obj 456 130 bng 15 250 50 0 empty empty empty 17 7 0 10 -262144
-1 -1;
#X msg 289 477 0;
#X obj 254 512 f;
#X obj 287 511 + 1;
#X obj 227 483 t f b;
#X obj 227 551 tabwrite melodier-\$1-random;
#X obj 227 580 table melodier-\$1-random;
#X msg 474 477 0;
#X obj 439 511 f;
#X obj 472 511 + 1;
#X obj 412 483 t f b;
#X msg 663 477 0;
#X obj 648 511 f;
#X obj 681 511 + 1;
#X obj 621 483 t f b;
#X obj 412 551 tabwrite melodier-\$1-single;
#X obj 412 580 table melodier-\$1-single;
#X obj 621 541 tabwrite melodier-\$1-feedback;
#X obj 728 508 table melodier-\$1-feedback;
#X obj 542 680 outlet;
#X obj 599 641 tabread melodier-\$1-random;
#X obj 620 621 tabread melodier-\$1-single;
#X obj 641 601 tabread melodier-\$1-feedback;
#X obj 599 563 route 0 1 2;
#X obj 579 519 pack;
#X obj 579 490 f;
#X obj 579 461 t b f;
#X floatatom 599 663 5 0 0 0 - - -;
#X floatatom 642 663 5 0 0 0 - - -;
#X floatatom 685 663 5 0 0 0 - - -;
#X floatatom 396 170 5 0 0 0 - - -;
#X obj 324 297 *;
#X obj 324 206 t b f;
#X obj 423 254 + 1;
#X text 618 254 ELEMS;
#X obj 821 162 t b b;
#X text 658 129 RANDOMIZE;
#X text 377 -4 ITERATIONS;
#X text 446 36 GENERATE;
#X text 502 76 TOPOLOGY;
#X text 665 76 CALL INDEX;
#X obj 618 145 r melodier-randomize;
#X obj 679 97 r melodier-get-index-all;
#X obj 513 97 r melodier-topo-\$1;
#X obj 396 17 r melodier-set-all-iters;
#X obj 324 97 r melodier-exponents-\$1;
#X obj 456 57 r generate-new-trigger;
#X connect 0 0 33 0;
#X connect 1 0 0 1;
#X connect 2 0 3 0;
#X connect 3 0 0 0;
#X connect 4 0 2 0;
#X connect 5 0 0 2;
#X connect 6 0 0 0;
#X connect 7 0 17 0;
#X connect 7 0 20 0;
#X connect 8 0 7 1;
#X connect 9 0 7 2;
#X connect 10 0 18 0;
#X connect 11 0 10 1;
#X connect 12 0 10 2;
#X connect 13 0 16 0;
#X connect 14 0 7 0;
#X connect 15 0 13 0;
#X connect 16 0 14 0;
#X connect 17 0 55 0;
#X connect 18 0 13 1;
#X connect 19 0 10 0;
#X connect 19 0 7 0;
#X connect 20 0 10 0;
#X connect 21 0 15 0;
#X connect 21 0 27 0;
#X connect 21 0 4 0;
#X connect 22 0 51 0;
#X connect 23 0 22 1;
#X connect 24 0 22 2;
#X connect 25 0 22 0;
#X connect 26 0 22 0;
#X connect 27 0 26 0;
#X connect 29 0 30 0;
#X connect 29 0 31 0;
#X connect 29 0 32 0;
#X connect 30 0 52 0;
#X connect 31 0 48 0;
#X connect 32 0 42 0;
#X connect 33 0 45 0;
#X connect 34 1 76 0;
#X connect 35 0 5 0;
#X connect 35 0 24 0;
#X connect 35 0 9 0;
#X connect 35 0 12 0;
#X connect 36 0 1 0;
#X connect 36 0 23 0;
#X connect 36 0 8 0;
#X connect 36 0 11 0;
#X connect 36 0 20 1;
#X connect 36 0 14 1;
#X connect 36 0 72 0;
#X connect 37 0 21 0;
#X connect 38 0 74 0;
#X connect 41 0 34 0;
#X connect 42 0 43 1;
#X connect 43 0 44 0;
#X connect 43 0 46 1;
#X connect 44 0 43 1;
#X connect 45 0 46 0;
#X connect 45 1 43 0;
#X connect 48 0 49 1;
#X connect 49 0 50 0;
#X connect 49 0 56 1;
#X connect 50 0 49 1;
#X connect 51 0 56 0;
#X connect 51 1 49 0;
#X connect 52 0 53 1;
#X connect 53 0 54 0;
#X connect 53 0 58 1;
#X connect 54 0 53 1;
#X connect 55 0 58 0;
#X connect 55 1 53 0;
#X connect 61 0 68 0;
#X connect 62 0 69 0;
#X connect 63 0 70 0;
#X connect 64 0 61 0;
#X connect 64 1 62 0;
#X connect 64 2 63 0;
#X connect 65 0 64 0;
#X connect 66 0 65 0;
#X connect 67 0 66 0;
#X connect 67 1 65 1;
#X connect 68 0 60 0;
#X connect 69 0 60 0;
#X connect 70 0 60 0;
#X connect 71 0 37 1;
#X connect 72 0 35 0;
#X connect 73 0 72 0;
#X connect 73 1 72 1;
#X connect 74 0 36 0;
#X connect 76 0 37 0;
#X connect 76 1 29 0;
#X connect 82 0 19 0;
#X connect 82 0 25 0;
#X connect 82 0 6 0;
#X connect 83 0 67 0;
#X connect 84 0 66 1;
#X connect 85 0 71 0;
#X connect 86 0 73 0;
#X connect 87 0 41 0;
