#N canvas 1223 119 570 544 12;
#X obj 76 78 inlet;
#X msg 203 145 0;
#X obj 185 323 f;
#X obj 154 323 + 1;
#X obj 56 303 t f b;
#X obj 76 125 t f b;
#X obj 76 152 sel 0 1 2 3 4 5, f 16;
#X obj 56 366 outlet;
#X obj 185 366 outlet;
#X msg 94 222 0.5 \, 1 \, 2 \, 0.5 \, 1 \, 2 \, 1 \, 1;
#X msg 76 251 1 \, 1 \, 1 \, 1 \, 1 \, 1 \, 1 \, 1;
#X msg 112 193 0.25 \, 0.5 \, 1 \, 2 \, 0.25 \, 0.5 \, 1 \, 2;
#X connect 0 0 5 0;
#X connect 1 0 2 1;
#X connect 2 0 3 0;
#X connect 2 0 8 0;
#X connect 3 0 2 1;
#X connect 4 0 7 0;
#X connect 4 1 2 0;
#X connect 5 0 6 0;
#X connect 5 1 1 0;
#X connect 6 0 10 0;
#X connect 6 1 9 0;
#X connect 6 2 11 0;
#X connect 9 0 4 0;
#X connect 10 0 4 0;
#X connect 11 0 4 0;
