#N canvas -436 120 1502 797 10;
#X obj 25 446 +;
#X obj 125 428 t b f;
#X floatatom 25 490 5 0 0 0 - - - 0;
#X floatatom 25 379 5 0 0 0 - - - 0;
#X floatatom 375 389 5 0 0 0 - - - 0;
#X text 60 381 Note;
#X text 410 389 Octave;
#X obj 25 234 tabwrite possible_notes;
#X obj 25 256 table possible_notes;
#X floatatom 25 153 5 0 0 0 - - - 0;
#X text 60 154 Set Possible Notes;
#X floatatom 375 153 5 0 0 0 - - - 0;
#X text 408 154 Set Possible Octaves;
#X obj 375 232 tabwrite possible_octaves;
#X obj 375 254 table possible_octaves;
#X floatatom 552 153 5 0 0 0 - - - 0;
#X text 587 154 Set Possible Sources;
#X obj 552 232 tabwrite possible_sources;
#X obj 552 254 table possible_sources;
#X floatatom 25 278 5 0 0 0 - - - 0;
#X floatatom 375 278 5 0 0 0 - - - 0;
#X floatatom 552 278 5 0 0 0 - - - 0;
#X floatatom 732 153 5 0 0 0 - - - 0;
#X floatatom 732 278 5 0 0 0 - - - 0;
#X obj 732 232 tabwrite possible_times;
#X obj 732 254 table possible_times;
#X floatatom 199 153 5 0 0 0 - - - 0;
#X floatatom 200 278 5 0 0 0 - - - 0;
#X text 234 154 Set Possible Velocities;
#X obj 199 232 tabwrite possible_vels;
#X obj 199 254 table possible_vels;
#X floatatom 912 153 5 0 0 0 - - - 0;
#X floatatom 912 278 5 0 0 0 - - - 0;
#X obj 912 232 tabwrite possible_glisses;
#X obj 912 254 table possible_glisses;
#X obj 25 350 tabread possible_notes;
#X obj 375 350 tabread possible_octaves;
#X obj 552 352 tabread possible_sources;
#X obj 717 349 tabread possible_times;
#X obj 200 350 tabread possible_vels;
#X obj 164 554 pack;
#X obj 912 352 tabread possible_glisses;
#X obj 690 572 metro;
#X obj 690 546 tgl 15 0 empty empty empty 17 7 0 10 #fcfcfc #000000
#000000 0 1;
#X floatatom 717 551 5 0 0 0 - - - 0;
#X obj 690 594 f;
#X obj 733 594 + 1;
#X obj 799 539 bng 15 250 50 0 empty empty empty 17 7 0 10 #fcfcfc
#000000 #000000;
#X text 527 528 PLAY;
#X text 818 538 RESET;
#X msg 761 554 0;
#X obj 912 398 s to_gliss_presets;
#X floatatom 25 329 5 0 0 0 - - - 0;
#X floatatom 375 329 5 0 0 0 - - - 0;
#X floatatom 552 330 5 0 0 0 - - - 0;
#X floatatom 732 329 5 0 0 0 - - - 0;
#X floatatom 200 329 5 0 0 0 - - - 0;
#X floatatom 912 331 5 0 0 0 - - - 0;
#X floatatom 552 374 5 0 0 0 - - - 0;
#X floatatom 200 379 5 0 0 0 - - - 0;
#X floatatom 912 374 5 0 0 0 - - - 0;
#X obj 690 616 %;
#X obj 727 495 s gliss-length-receive;
#X obj 560 528 r melodier-playstop;
#X obj 829 521 r melodier-reset;
#X text 238 378 Velocity;
#X text 26 508 Note;
#X obj 25 300 Melodier-Statfeed-Subpatch 0;
#X obj 839 652 ==;
#X obj 871 634 - 1;
#X obj 839 674 sel 1;
#X obj 884 693 spigot;
#X obj 917 664 r melodier-regenerate;
#X obj 25 131 inlet;
#X obj 199 131 inlet;
#X obj 375 131 inlet;
#X obj 552 131 inlet;
#X obj 732 131 inlet;
#X obj 912 131 inlet;
#X obj 90 174 s melodout-1;
#X msg 32 174 set \$1;
#X obj 259 174 s melodout-2;
#X obj 437 174 s melodout-3;
#X obj 614 174 s melodout-4;
#X obj 794 174 s melodout-5;
#X obj 974 174 s melodout-6;
#X msg 206 174 set \$1;
#X msg 382 174 set \$1;
#X msg 559 174 set \$1;
#X msg 739 174 set \$1;
#X msg 919 174 set \$1;
#X obj 884 722 s generate-new-trigger;
#X obj 88 486 s note-value;
#X text 767 154 Set Possible Durations;
#X obj 717 467 *;
#X obj 64 450 r melodier-key-offset;
#X obj 25 468 +;
#X obj 200 300 Melodier-Statfeed-Subpatch 4;
#X obj 375 300 Melodier-Statfeed-Subpatch 1;
#X obj 552 300 Melodier-Statfeed-Subpatch 2;
#X obj 732 300 Melodier-Statfeed-Subpatch 3;
#X obj 912 300 Melodier-Statfeed-Subpatch 5;
#X obj 125 406 * 12;
#X obj 164 576 s keyboard_bypass_from_melodier;
#X obj 89 507 t f f;
#X obj 185 525 *;
#X obj 501 412 route 999;
#X obj 552 444 s to-keyboard-sources;
#X text 591 372 0 - noise \; 1 - sig \; 2 - self \; 3 - DC \; 4 - orgy
;
#X obj 732 444 r duration-base;
#X obj 871 598 r melodier-set-all-iters;
#X obj 1149 29 inlet;
#X obj 1149 51 sel 0 1 2 3;
#X floatatom 1092 153 5 0 0 0 - - - 0;
#X obj 1092 131 inlet;
#X msg 1099 174 set \$1;
#X obj 1092 232 tabwrite possible_notelengths;
#X obj 1092 254 table possible_notelengths;
#X floatatom 1092 278 5 0 0 0 - - - 0;
#X floatatom 1092 331 5 0 0 0 - - - 0;
#X floatatom 1092 374 5 0 0 0 - - - 0;
#X obj 1092 300 Melodier-Statfeed-Subpatch 6;
#X obj 1092 352 tabread possible_notelengths;
#X obj 1092 540 s note_lengths_panel;
#X obj 1092 511 *;
#X obj 1102 485 t b f;
#X obj 1150 135 unpack f f f f f f f;
#X msg 1149 73 0 0 0 0 0 0 0;
#X msg 1149 95 1 1 1 1 1 1 1;
#X msg 1149 117 2 2 2 2 2 2 2;
#X obj 1154 174 s melodout-9;
#X obj 200 462 *;
#X obj 229 444 r velocity-mult;
#X obj 25 205 Melodier-Pitches, f 23;
#X obj 199 203 Melodier-Velocities, f 22;
#X obj 375 203 Melodier-Octaves, f 25;
#X obj 552 203 Melodier-Sources, f 25;
#X obj 732 203 Melodier-Durations, f 23;
#X obj 912 203 Melodier-Glisses, f 25;
#X obj 1092 203 Melodier-NoteLengths, f 29;
#X text 1127 155 Set Possible Note Lengths;
#X text 947 154 Set Possible Glisses;
#X msg 670 675 \; melodier-get-index-6 \$1 \; melodier-get-index-5
\$1 \; melodier-get-index-4 \$1 \; melodier-get-index-3 \$1 \; melodier-get-index-2
\$1 \; melodier-get-index-1 \$1 \; melodier-get-index-0 \$1 \;;
#X obj 643 574 t f f;
#X obj 1306 231 r melsubstatoverride;
#X obj 1306 260 - 1;
#X obj 744 395 - 1;
#X obj 717 372 t f f;
#X obj 766 419 *;
#X obj 781 383 r dura-multiplier;
#X obj 717 421 +;
#X msg 713 395 1;
#X floatatom 613 494 5 0 0 0 - - - 0;
#X floatatom 837 428 5 0 0 0 - - - 0;
#X floatatom 888 448 5 0 0 0 - - - 0;
#X floatatom 945 447 5 0 0 0 - - - 0;
#X obj 1304 295 s tomelsubstartoverride;
#X connect 0 0 96 0;
#X connect 1 0 0 0;
#X connect 1 1 0 1;
#X connect 2 0 104 0;
#X connect 3 0 0 0;
#X connect 4 0 102 0;
#X connect 9 0 80 0;
#X connect 9 0 133 0;
#X connect 11 0 87 0;
#X connect 11 0 135 0;
#X connect 15 0 88 0;
#X connect 15 0 136 0;
#X connect 19 0 67 0;
#X connect 19 0 156 0;
#X connect 20 0 98 0;
#X connect 21 0 99 0;
#X connect 22 0 89 0;
#X connect 22 0 137 0;
#X connect 23 0 100 0;
#X connect 26 0 86 0;
#X connect 26 0 134 0;
#X connect 27 0 97 0;
#X connect 31 0 90 0;
#X connect 31 0 138 0;
#X connect 32 0 101 0;
#X connect 35 0 3 0;
#X connect 36 0 4 0;
#X connect 37 0 58 0;
#X connect 38 0 147 0;
#X connect 39 0 59 0;
#X connect 40 0 103 0;
#X connect 41 0 60 0;
#X connect 42 0 45 0;
#X connect 43 0 42 0;
#X connect 44 0 42 1;
#X connect 45 0 46 0;
#X connect 45 0 61 0;
#X connect 46 0 45 1;
#X connect 47 0 50 0;
#X connect 50 0 45 1;
#X connect 52 0 35 0;
#X connect 53 0 36 0;
#X connect 54 0 37 0;
#X connect 55 0 38 0;
#X connect 56 0 39 0;
#X connect 57 0 41 0;
#X connect 58 0 106 0;
#X connect 59 0 131 0;
#X connect 60 0 51 0;
#X connect 61 0 143 0;
#X connect 63 0 43 0;
#X connect 64 0 47 0;
#X connect 67 0 52 0;
#X connect 68 0 70 0;
#X connect 69 0 68 1;
#X connect 70 0 71 0;
#X connect 71 0 91 0;
#X connect 72 0 71 1;
#X connect 73 0 9 0;
#X connect 74 0 26 0;
#X connect 75 0 11 0;
#X connect 76 0 15 0;
#X connect 77 0 22 0;
#X connect 78 0 31 0;
#X connect 80 0 79 0;
#X connect 86 0 81 0;
#X connect 87 0 82 0;
#X connect 88 0 83 0;
#X connect 89 0 84 0;
#X connect 90 0 85 0;
#X connect 94 0 44 0;
#X connect 94 0 62 0;
#X connect 94 0 125 0;
#X connect 95 0 96 1;
#X connect 96 0 2 0;
#X connect 96 0 92 0;
#X connect 97 0 56 0;
#X connect 98 0 53 0;
#X connect 99 0 54 0;
#X connect 100 0 55 0;
#X connect 101 0 57 0;
#X connect 102 0 1 0;
#X connect 104 0 40 0;
#X connect 104 1 105 0;
#X connect 105 0 40 1;
#X connect 106 1 107 0;
#X connect 109 0 94 1;
#X connect 110 0 69 0;
#X connect 110 0 61 1;
#X connect 111 0 112 0;
#X connect 112 0 127 0;
#X connect 112 1 128 0;
#X connect 112 2 129 0;
#X connect 113 0 115 0;
#X connect 113 0 139 0;
#X connect 114 0 113 0;
#X connect 115 0 130 0;
#X connect 118 0 121 0;
#X connect 119 0 122 0;
#X connect 120 0 124 0;
#X connect 121 0 119 0;
#X connect 122 0 120 0;
#X connect 124 0 123 0;
#X connect 125 0 124 0;
#X connect 125 1 124 1;
#X connect 126 0 9 0;
#X connect 126 1 11 0;
#X connect 126 2 15 0;
#X connect 126 3 22 0;
#X connect 126 4 26 0;
#X connect 126 5 31 0;
#X connect 126 6 113 0;
#X connect 127 0 126 0;
#X connect 128 0 126 0;
#X connect 129 0 126 0;
#X connect 131 0 105 1;
#X connect 132 0 131 1;
#X connect 133 0 7 0;
#X connect 133 1 7 1;
#X connect 133 1 19 0;
#X connect 134 0 29 0;
#X connect 134 1 29 1;
#X connect 134 1 27 0;
#X connect 135 0 13 0;
#X connect 135 1 13 1;
#X connect 135 1 20 0;
#X connect 136 0 17 0;
#X connect 136 1 17 1;
#X connect 136 1 21 0;
#X connect 137 0 24 0;
#X connect 137 1 24 1;
#X connect 137 1 23 0;
#X connect 138 0 33 0;
#X connect 138 1 33 1;
#X connect 138 1 32 0;
#X connect 139 0 116 0;
#X connect 139 1 116 1;
#X connect 139 1 118 0;
#X connect 143 0 68 0;
#X connect 143 1 142 0;
#X connect 144 0 145 0;
#X connect 145 0 118 0;
#X connect 145 0 32 0;
#X connect 145 0 23 0;
#X connect 145 0 21 0;
#X connect 145 0 20 0;
#X connect 145 0 27 0;
#X connect 145 0 19 0;
#X connect 146 0 148 0;
#X connect 146 0 154 0;
#X connect 147 0 151 0;
#X connect 147 1 146 0;
#X connect 147 1 155 0;
#X connect 148 0 150 1;
#X connect 148 0 153 0;
#X connect 149 0 148 1;
#X connect 150 0 94 0;
#X connect 150 0 152 0;
#X connect 151 0 150 0;
