#N canvas 67 220 971 510 10;
#X obj 347 274 tgl 20 0 empty empty empty 17 7 0 10 -262144 -1 -1 1
1;
#X text 444 310 STEREO/MONO;
#X obj 526 339 s absolute-relative;
#X obj 347 62 r init-loadbang;
#X msg 347 109 0;
#X msg 347 248 1;
#X obj 347 308 s stereo-mono;
#X msg 598 281 \; pd dsp \$1;
#X obj 634 260 s reverb-bypass;
#X msg 347 187 1;
#X obj 526 88 r absolute-relative-receive;
#X obj 598 144 r dsp-on-off-receive;
#X obj 634 172 r reverb-bypass-receive;
#X msg 347 161 1;
#X obj 490 60 r sense-numb;
#X msg 347 135 0;
#X obj 562 116 r multiplex-controller;
#X obj 562 316 s multiplex;
#X obj 481 201 cnv 15 188 48 empty empty empty 20 12 0 14 -191407 -66577
0;
#X obj 526 204 tgl 25 0 empty empty empty 17 7 0 10 -262144 -1 -1 0
1;
#X obj 634 204 tgl 25 0 empty empty empty 17 7 0 10 -262144 -1 -1 1
1;
#X obj 598 204 tgl 25 0 empty empty empty 17 7 0 10 -262144 -1 -1 0
1;
#X obj 490 204 tgl 25 0 empty empty empty 17 7 0 10 -262144 -1 -1 1
1;
#X obj 562 204 tgl 25 0 empty empty empty 17 7 0 10 -262144 -1 -1 0
1;
#X text 486 229 SENSE;
#X text 600 229 DSP;
#X text 529 229 REL;
#X text 561 229 PLEX;
#X text 636 229 REV;
#X connect 0 0 6 0;
#X connect 3 0 4 0;
#X connect 3 0 5 0;
#X connect 3 0 9 0;
#X connect 3 0 13 0;
#X connect 3 0 15 0;
#X connect 4 0 19 0;
#X connect 5 0 0 0;
#X connect 9 0 20 0;
#X connect 10 0 19 0;
#X connect 11 0 21 0;
#X connect 12 0 20 0;
#X connect 13 0 21 0;
#X connect 14 0 22 0;
#X connect 15 0 23 0;
#X connect 16 0 23 0;
#X connect 19 0 2 0;
#X connect 20 0 8 0;
#X connect 21 0 7 0;
#X connect 23 0 17 0;
#X coords 0 -1 1 1 190 50 2 480 200;
