#N canvas 67 56 1853 1024 10;
#X obj 32 549 *~;
#X floatatom 96 441 5 0 0 0 - - -, f 5;
#X msg 96 408 set \$1;
#X obj 65 344 t b f;
#X obj 65 376 s addall-\$1;
#X obj 1197 423 t b b b b b;
#X obj 1197 398 r addall-\$1;
#X floatatom 1146 607 5 0 0 0 - - -, f 5;
#X floatatom 1146 479 5 0 0 0 - - -, f 5;
#X obj 1146 561 spigot;
#X obj 1146 499 t f f;
#X obj 1146 629 s attenuation-\$1;
#X obj 77 502 *;
#X obj 82 469 r attenuation-\$1;
#X obj 233 549 *~;
#X floatatom 297 441 5 0 0 0 - - -, f 5;
#X msg 297 408 set \$1;
#X obj 266 344 t b f;
#X obj 266 376 s addall-\$1;
#X obj 278 502 *;
#X obj 278 469 r attenuation-\$1;
#X obj 438 549 *~;
#X floatatom 502 441 5 0 0 0 - - -, f 5;
#X msg 502 408 set \$1;
#X obj 471 344 t b f;
#X obj 471 376 s addall-\$1;
#X obj 483 502 *;
#X obj 483 469 r attenuation-\$1;
#X obj 648 549 *~;
#X floatatom 712 441 5 0 0 0 - - -, f 5;
#X msg 712 408 set \$1;
#X obj 681 344 t b f;
#X obj 681 376 s addall-\$1;
#X obj 693 502 *;
#X obj 693 469 r attenuation-\$1;
#X obj 853 549 *~;
#X floatatom 917 441 5 0 0 0 - - -, f 5;
#X msg 917 408 set \$1;
#X obj 886 344 t b f;
#X obj 886 376 s addall-\$1;
#X obj 898 502 *;
#X obj 898 469 r attenuation-\$1;
#X obj 649 324 sig~;
#X floatatom 649 300 5 0 0 0 - - -, f 5;
#X obj 854 293 noise~;
#X obj 1146 458 expr $f1 + $f2 + $f3 + $f4 + $f5;
#X obj 33 293 r~ ugen0;
#X obj 234 293 r~ ugen1;
#X obj 439 293 r~ ugen2;
#X obj 501 225 vsl 50 35 0 1 0 0 empty empty empty 5 12 0 17 -262144
-1 -1 0 1;
#X obj 551 225 vsl 50 35 0 1 0 0 empty empty empty 10 12 0 17 -262144
-1 -1 0 1;
#X obj 601 225 vsl 50 35 0 1 0 0 empty empty empty 1 12 0 17 -262144
-1 -1 0 1;
#X obj 651 225 vsl 50 35 0 1 0 0 empty empty empty 6 12 0 17 -262144
-1 -1 0 1;
#X obj 701 225 vsl 50 35 0 1 0 0 empty empty empty 1 12 0 16 -262144
-1 -1 0 1;
#X obj 501 43 unpack 0 1 2 3 4, f 34;
#X obj 1229 544 t b f;
#X obj 1146 584 expr 1/$f1;
#X obj 1196 521 > 0.99;
#X obj 1289 517 < 0.99;
#X obj 1256 589 spigot;
#X obj 33 587 throw~ tougen\$3;
#X obj 234 587 throw~ tougen\$3;
#X obj 439 587 throw~ tougen\$3;
#X obj 649 587 throw~ tougen\$3;
#X obj 855 587 throw~ tougen\$3;
#X obj 1276 563 s ugen-\$1-dsp;
#X obj 1276 496 > 0;
#X obj 501 15 r source-levels-\$1;
#X obj 501 188 Glisser;
#X obj 551 159 Glisser;
#X obj 601 130 Glisser;
#X obj 651 101 Glisser;
#X obj 701 72 Glisser;
#X obj 754 46 r gliss-length-sources;
#X floatatom 707 552 5 0 0 0 - - -, f 5;
#X text 1258 613 Total volume of combined \; signals should not exceed
1 \;;
#X connect 0 0 60 0;
#X connect 1 0 12 1;
#X connect 1 0 45 0;
#X connect 2 0 1 0;
#X connect 3 0 4 0;
#X connect 3 1 2 0;
#X connect 5 0 1 0;
#X connect 5 1 15 0;
#X connect 5 2 22 0;
#X connect 5 3 29 0;
#X connect 5 4 36 0;
#X connect 6 0 5 0;
#X connect 7 0 11 0;
#X connect 8 0 10 0;
#X connect 8 0 66 0;
#X connect 9 0 56 0;
#X connect 10 0 9 0;
#X connect 10 0 59 0;
#X connect 10 1 57 0;
#X connect 10 1 58 1;
#X connect 12 0 0 1;
#X connect 13 0 12 0;
#X connect 14 0 61 0;
#X connect 15 0 19 1;
#X connect 15 0 45 1;
#X connect 16 0 15 0;
#X connect 17 0 18 0;
#X connect 17 1 16 0;
#X connect 19 0 14 1;
#X connect 20 0 19 0;
#X connect 21 0 62 0;
#X connect 22 0 26 1;
#X connect 22 0 45 2;
#X connect 23 0 22 0;
#X connect 24 0 25 0;
#X connect 24 1 23 0;
#X connect 26 0 21 1;
#X connect 27 0 26 0;
#X connect 28 0 63 0;
#X connect 29 0 33 1;
#X connect 29 0 45 3;
#X connect 30 0 29 0;
#X connect 31 0 32 0;
#X connect 31 1 30 0;
#X connect 33 0 28 1;
#X connect 33 0 74 0;
#X connect 34 0 33 0;
#X connect 35 0 64 0;
#X connect 36 0 40 1;
#X connect 36 0 45 4;
#X connect 37 0 36 0;
#X connect 38 0 39 0;
#X connect 38 1 37 0;
#X connect 40 0 35 1;
#X connect 41 0 40 0;
#X connect 42 0 28 0;
#X connect 43 0 42 0;
#X connect 44 0 35 0;
#X connect 45 0 8 0;
#X connect 46 0 0 0;
#X connect 47 0 14 0;
#X connect 48 0 21 0;
#X connect 49 0 3 0;
#X connect 50 0 17 0;
#X connect 51 0 24 0;
#X connect 52 0 31 0;
#X connect 53 0 38 0;
#X connect 54 0 68 0;
#X connect 54 1 69 0;
#X connect 54 2 70 0;
#X connect 54 3 71 0;
#X connect 54 4 72 0;
#X connect 55 0 7 0;
#X connect 55 1 9 1;
#X connect 56 0 7 0;
#X connect 57 0 55 0;
#X connect 58 0 59 1;
#X connect 59 0 7 0;
#X connect 66 0 65 0;
#X connect 67 0 54 0;
#X connect 68 0 49 0;
#X connect 69 0 50 0;
#X connect 70 0 51 0;
#X connect 71 0 52 0;
#X connect 72 0 53 0;
#X connect 73 0 68 1;
#X connect 73 0 71 1;
#X connect 73 0 72 1;
#X connect 73 0 69 1;
#X connect 73 0 70 1;
#X coords 0 -1 1 1 252 42 2 500 222;
