#N canvas 773 110 927 991 10;
#X text 712 723 2 ALL SIG \; 3 ALL SELF;
#X text 711 776 6 ONE SELF \; 7 PAIR;
#X text 711 802 8 PAIR & NOISE \; 9 PAIR & SIG \;;
#X text 704 828 10 PAIR & SELF \; 11 DAISY CHAIN;
#X text 711 750 4 ONE NOISE \; 5 ONE SIG;
#X text 712 696 0 ALL OFF \; 1 ALL NOISE;
#X text 704 854 12 DAISY CHAIN REVERSE;
#X text 704 922 17 ORGY;
#X text 704 868 13 DC & 0.1 NOISE \; 14 DC & 0.5 SIG;
#X text 704 895 15 DC & SELF \; 16 DC & 0.5 SELF;
#X text 702 661 FOR REFERENCE: \; SOURCE PRESETS:;
#X obj 420 625 t b b;
#X obj 438 596 t b b;
#X obj 457 567 t b b;
#X obj 495 566 del 80;
#X obj 478 596 del 80;
#X obj 470 625 del 80;
#X text 748 626 6 GONG 1;
#X text 771 597 7 RAYS;
#X text 733 567 8 FLUTES;
#X obj 476 537 t b b;
#X obj 516 537 del 80;
#X text 760 538 9 FLOUTS;
#X msg 20 671 0 0 0 0 0 0 0 0 0 0 0;
#X msg 38 642 1 31 24 18 185 150 115 1 1 1 1 2;
#X msg 57 613 1 401 799 537 999 999 999 1 1 1 1 0;
#X msg 75 584 2 26 27 28 13 13 13 1 1 1 1 0;
#X msg 531 625 2 400 400 400 9.5 9.3 9.5 1 1 1 1 0;
#X msg 536 596 2 353 353 353 8.94 8.97 8.94 1 1 1 1 0;
#X msg 552 566 2 351 355 353 9 9 9 1 1 1 1 0;
#X msg 573 537 2 351 355 353 9 10 8 1 1 1 1 0;
#X msg 131 497 3 54 55 53 7 7 7 1 1 1 1 0;
#X msg 150 468 10 200 400 601 100 200 100 1 0.5 1 1 0;
#X msg 169 439 16 199 99 604 20 99 40 1 1 1 1 0;
#X msg 187 410 11 400 400 400 25 25 25 1 1 1 1 0;
#X msg 205 381 11 400 80 400 40 70 40 1 1 1 1 0;
#X msg 224 352 17 400 80 400 40 70 40 1 1 1 1 0;
#X msg 243 323 15 200 400 300 70 90 80 1 1 1 1 0;
#X msg 261 294 8 594 20 601 50 10 50 1 0.6 1 1 0;
#X msg 280 265 11 20 39 19 1 25 2 1 1 1 1 0;
#X msg 299 236 11 400 400 400 100 7 100 1 1 1 1 0;
#X obj 761 233 statfeed;
#X floatatom 806 205 5 0 0 0 - - -, f 5;
#X obj 761 119 random 1000;
#X obj 761 93 bng 15 250 50 0 empty empty empty 17 7 0 10 -262144 -1
-1;
#X obj 761 148 / 1000;
#X obj 568 255 statfeed;
#X floatatom 613 230 5 0 0 0 - - -, f 5;
#X obj 568 141 random 1000;
#X obj 568 115 bng 15 250 50 0 empty empty empty 17 7 0 10 -262144
-1 -1;
#X obj 568 170 / 1000;
#X floatatom 568 328 5 0 0 0 - - -, f 5;
#X floatatom 761 256 5 0 0 0 - - -, f 5;
#X obj 687 120 del;
#X obj 721 273 bng 15 250 50 0 empty empty empty 17 7 0 10 -262144
-1 -1;
#X obj 820 43 loadbang;
#X obj 697 405 r trans_time_add;
#X obj 697 366 r trans_time_mult;
#X obj 633 171 r trans_time_exp;
#X obj 806 148 r trans_presets_exp;
#X msg 687 91 stop;
#X msg 660 218 2;
#X obj 645 384 * 3;
#X obj 645 345 pow 2;
#X obj 645 423 + 250;
#X obj 761 276 tabread transition_array;
#X obj 239 894 table transition_array;
#X obj 239 865 tabwrite transition_array;
#X obj 266 837 f;
#X obj 319 836 + 1;
#X obj 253 743 t b b;
#X msg 281 808 0;
#X obj 253 717 bng 15 250 50 0 empty empty empty 17 7 0 10 -262144
-1 -1;
#X obj 253 688 loadbang;
#X msg 725 61 100;
#X obj 239 808 t f b;
#X msg 239 772 1 \, 2 \, 4 \, 5 \, 12 \, 14 \, 16 \, 17 \, 20 \, 21
;
#X msg 784 176 10;
#X msg 590 206 10;
#X obj 568 299 % 4;
#X obj 761 305 s to_secondary_globals;
#X msg 94 555 2 400 400 400 3 3 3 1 1 1 1 3;
#X obj 687 22 r stop_transitions;
#X obj 568 45 r trigger_transitions;
#X obj 568 441 statfeed;
#X msg 590 412 8;
#X obj 568 498 s to_gliss_presets;
#X obj 568 74 t b b b;
#X obj 645 452 s gliss-length-receive;
#X floatatom 590 470 5 0 0 0 - - -, f 5;
#X obj 568 356 random 1000;
#X obj 568 384 / 1000;
#X obj 489 802 f;
#X obj 489 831 + 1;
#X obj 489 890 s rhythmexponent-receive;
#X obj 504 762 r rhythmexponent;
#X obj 489 861 % 15;
#X obj 20 32 sel 0 1 2 3 4 5 6 7 8 9 10 11 12 13 14 15 16 17 18 19
20 21 22 23, f 75;
#X msg 7 700 \; to_source_presets \$1 \; fader-0-bypass \$2 \; fader-1-bypass
\$3 \; fader-2-bypass \$4 \; fader-3-bypass \$5 \; fader-4-bypass \$6
\; fader-5-bypass \$7 \; ugen0-external-vol \$8 \; ugen1-external-vol
\$9 \; ugen2-external-vol \$10 \; stereo-mono \$11;
#X obj 697 327 r trans_time_pow;
#X msg 318 194 \; to_source_presets \$1;
#X obj 509 14 inlet;
#X text 524 815 WHAT'S THIS DOING HERE?;
#X msg 318 165 1;
#X msg 336 136 3;
#X msg 355 107 9;
#X msg 373 78 11;
#X msg 392 165 12;
#X msg 411 136 14;
#X msg 429 107 15;
#X msg 448 78 16;
#X text 154 672 0 ALL - 0;
#X text 238 643 2 HALOGEN - 1;
#X text 276 614 3 REEDS - 2;
#X text 257 585 4 SERPENTINE - 3;
#X text 277 555 5 WIND - 4;
#X text 331 527 10 CHORD - 5;
#X text 295 498 12 WHISTLE - 6;
#X text 386 470 13 HUM - 7;
#X text 370 441 14 HUM 2 - 8;
#X text 394 411 15 BACKGROUND - 9;
#X text 405 382 16 SIREN - 10;
#X text 425 354 17 SCREECH - 11;
#X text 449 325 18 SALT - 12;
#X text 468 296 19 GRINDER - 13;
#X text 457 267 20 KETTLE - 14;
#X text 512 237 21 STATIC - 15;
#X text 451 198 22 - NOISE - 16;
#X msg 113 526 2 400 600 500 244 359 279 1 1 1 1 0;
#X connect 11 0 16 0;
#X connect 11 1 81 0;
#X connect 12 0 15 0;
#X connect 12 1 81 0;
#X connect 13 0 14 0;
#X connect 13 1 81 0;
#X connect 14 0 29 0;
#X connect 15 0 28 0;
#X connect 16 0 27 0;
#X connect 20 0 21 0;
#X connect 20 1 81 0;
#X connect 21 0 30 0;
#X connect 23 0 98 0;
#X connect 24 0 98 0;
#X connect 25 0 98 0;
#X connect 26 0 98 0;
#X connect 31 0 98 0;
#X connect 32 0 98 0;
#X connect 33 0 98 0;
#X connect 34 0 98 0;
#X connect 35 0 98 0;
#X connect 36 0 98 0;
#X connect 37 0 98 0;
#X connect 38 0 98 0;
#X connect 39 0 98 0;
#X connect 40 0 98 0;
#X connect 41 0 52 0;
#X connect 42 0 41 2;
#X connect 43 0 45 0;
#X connect 44 0 43 0;
#X connect 45 0 41 0;
#X connect 46 0 79 0;
#X connect 47 0 46 2;
#X connect 47 0 84 2;
#X connect 48 0 50 0;
#X connect 49 0 48 0;
#X connect 50 0 46 0;
#X connect 51 0 63 0;
#X connect 52 0 54 0;
#X connect 52 0 65 0;
#X connect 53 0 87 0;
#X connect 54 0 53 0;
#X connect 55 0 78 0;
#X connect 55 0 77 0;
#X connect 55 0 61 0;
#X connect 55 0 74 0;
#X connect 55 0 85 0;
#X connect 56 0 64 1;
#X connect 57 0 62 1;
#X connect 58 0 47 0;
#X connect 59 0 42 0;
#X connect 60 0 53 0;
#X connect 61 0 47 0;
#X connect 61 0 42 0;
#X connect 62 0 64 0;
#X connect 63 0 62 0;
#X connect 64 0 53 1;
#X connect 64 0 88 0;
#X connect 65 0 80 0;
#X connect 68 0 69 0;
#X connect 68 0 67 1;
#X connect 69 0 68 1;
#X connect 70 0 76 0;
#X connect 70 1 71 0;
#X connect 71 0 68 1;
#X connect 72 0 70 0;
#X connect 73 0 72 0;
#X connect 74 0 53 1;
#X connect 75 0 67 0;
#X connect 75 1 68 0;
#X connect 76 0 75 0;
#X connect 77 0 41 1;
#X connect 78 0 46 1;
#X connect 79 0 51 0;
#X connect 81 0 98 0;
#X connect 82 0 60 0;
#X connect 83 0 87 0;
#X connect 84 0 86 0;
#X connect 84 0 89 0;
#X connect 85 0 84 1;
#X connect 87 0 90 0;
#X connect 87 1 49 0;
#X connect 87 2 44 0;
#X connect 90 0 91 0;
#X connect 91 0 84 0;
#X connect 92 0 93 0;
#X connect 93 0 96 0;
#X connect 95 0 92 1;
#X connect 96 0 94 0;
#X connect 97 0 23 0;
#X connect 97 1 24 0;
#X connect 97 2 25 0;
#X connect 97 3 26 0;
#X connect 97 4 81 0;
#X connect 97 5 128 0;
#X connect 97 6 31 0;
#X connect 97 7 32 0;
#X connect 97 8 33 0;
#X connect 97 9 34 0;
#X connect 97 10 35 0;
#X connect 97 11 36 0;
#X connect 97 12 37 0;
#X connect 97 13 38 0;
#X connect 97 14 39 0;
#X connect 97 15 40 0;
#X connect 97 16 103 0;
#X connect 97 17 104 0;
#X connect 97 18 105 0;
#X connect 97 19 106 0;
#X connect 97 20 107 0;
#X connect 97 21 108 0;
#X connect 97 22 109 0;
#X connect 97 23 110 0;
#X connect 99 0 63 1;
#X connect 101 0 97 0;
#X connect 103 0 100 0;
#X connect 104 0 100 0;
#X connect 105 0 100 0;
#X connect 106 0 100 0;
#X connect 107 0 100 0;
#X connect 108 0 100 0;
#X connect 109 0 100 0;
#X connect 110 0 100 0;
#X connect 128 0 98 0;
