#N canvas 67 137 1620 895 10;
#X text 953 562 2 ALL SIG \; 3 ALL SELF;
#X text 952 615 6 ONE SELF \; 7 PAIR;
#X text 952 641 8 PAIR & NOISE \; 9 PAIR & SIG \;;
#X text 945 667 10 PAIR & SELF \; 11 DAISY CHAIN;
#X text 952 589 4 ONE NOISE \; 5 ONE SIG;
#X text 953 535 0 ALL OFF \; 1 ALL NOISE;
#X text 945 693 12 DAISY CHAIN REVERSE;
#X text 945 761 17 ORGY;
#X text 945 707 13 DC & 0.1 NOISE \; 14 DC & 0.5 SIG;
#X text 945 734 15 DC & SELF \; 16 DC & 0.5 SELF;
#X text 943 500 FOR REFERENCE: \; SOURCE PRESETS:;
#X obj 432 747 t b b;
#X obj 450 718 t b b;
#X obj 469 689 t b b;
#X obj 507 688 del 80;
#X obj 490 718 del 80;
#X obj 482 747 del 80;
#X text 552 892 1 WHITE;
#X text 563 863 2 HALOGEN;
#X text 600 834 3 REEDS;
#X text 582 805 4 SERPENTINE;
#X text 600 776 5 WIND;
#X text 766 747 6 GONG 1;
#X text 789 718 7 RAYS;
#X text 751 688 8 FLUTES;
#X obj 488 659 t b b;
#X obj 528 659 del 80;
#X text 778 659 9 FLOUTS;
#X text 729 630 10 CHORD;
#X text 754 601 11 CHORD 2;
#X text 712 572 12 WHISTLE;
#X text 802 543 13 HUM;
#X text 786 514 14 HUM 2;
#X text 811 485 15 BACKGROUND;
#X text 823 456 16 SIREN;
#X text 842 427 17 SCREECH;
#X text 866 398 18 SALT;
#X text 885 369 19 GRINDER;
#X text 874 340 20 KETTLE;
#X text 930 312 21 STATIC;
#X text 459 922 0 ALL;
#X msg 338 892 1 401 800 399 400 800 400 1 1 1 0;
#X msg 320 921 0 0 0 0 0 0 0 0 0 0 0;
#X msg 357 863 1 31 24 18 185 150 115 1 1 1 1 2;
#X msg 376 834 1 401 799 537 999 999 999 1 1 1 1 0;
#X msg 394 805 2 26 27 28 13 13 13 1 1 1 1 0;
#X msg 543 747 2 400 400 400 9.5 9.3 9.5 1 1 1 1 0;
#X msg 548 718 2 353 353 353 8.94 8.97 8.94 1 1 1 1 0;
#X msg 564 688 2 351 355 353 9 9 9 1 1 1 1 0;
#X msg 585 659 2 351 355 353 9 10 8 1 1 1 1 0;
#X msg 506 630 2 400 600 500 244 359 279 1 1 1 1 0;
#X msg 525 601 14 400 600 500 244 359 279 1 1 1 1 0;
#X msg 544 572 3 54 55 53 7 7 7 1 1 1 1 0;
#X msg 562 543 10 200 400 601 100 200 100 1 0.5 1 1 0;
#X msg 581 514 16 199 99 604 20 99 40 1 1 1 1 0;
#X msg 600 485 11 400 400 400 25 25 25 1 1 1 1 0;
#X msg 618 456 11 400 80 400 40 70 40 1 1 1 1 0;
#X msg 637 427 17 400 80 400 40 70 40 1 1 1 1 0;
#X msg 656 398 15 200 400 300 70 90 80 1 1 1 1 0;
#X msg 674 369 8 594 20 601 50 10 50 1 0.6 1 1 0;
#X msg 693 340 11 20 39 19 1 25 2 1 1 1 1 0;
#X msg 712 311 11 400 400 400 100 7 100 1 1 1 1 0;
#X obj 532 200 statfeed;
#X floatatom 577 172 5 0 0 0 - - -, f 5;
#X obj 532 86 random 1000;
#X obj 532 60 bng 15 250 50 0 empty empty empty 17 7 0 10 -262144 -1
-1;
#X obj 532 115 / 1000;
#X obj 117 231 statfeed;
#X floatatom 162 203 5 0 0 0 - - -, f 5;
#X obj 117 117 random 1000;
#X obj 117 91 bng 15 250 50 0 empty empty empty 17 7 0 10 -262144 -1
-1;
#X obj 117 146 / 1000;
#X floatatom 117 320 5 0 0 0 - - -, f 5;
#X floatatom 532 223 5 0 0 0 - - -, f 5;
#X obj 392 144 del;
#X obj 532 251 bng 15 250 50 0 empty empty empty 17 7 0 10 -262144
-1 -1;
#X obj 324 32 loadbang;
#X obj 169 340 r trans_time_pow;
#X obj 169 418 r trans_time_add;
#X obj 169 379 r trans_time_mult;
#X obj 182 147 r trans_time_exp;
#X obj 577 115 r trans_presets_exp;
#X obj 853 6 inlet;
#X msg 302 126 stop;
#X msg 209 194 2;
#X obj 117 397 * 3;
#X obj 117 358 pow 2;
#X obj 117 436 + 250;
#X obj 645 213 tabread transition_array;
#X obj 1196 436 table transition_array;
#X obj 1011 436 tabwrite transition_array;
#X obj 1069 377 f;
#X obj 1122 377 + 1;
#X obj 1057 228 t b b;
#X msg 1084 338 0;
#X obj 1057 202 bng 15 250 50 0 empty empty empty 17 7 0 10 -262144
-1 -1;
#X obj 1057 173 loadbang;
#X msg 349 73 100;
#X obj 1042 309 t f b;
#X msg 1043 254 1 \, 2 \, 4 \, 5 \, 12 \, 14 \, 16 \, 17 \, 20 \, 21
;
#X msg 555 143 10;
#X msg 139 177 10;
#X obj 117 279 % 4;
#X obj 1340 272 inlet;
#X obj 645 242 s to_secondary_globals;
#X obj 853 35 sel 13 14 15;
#X msg 899 64 13 20 1 3 50;
#X msg 413 776 2 400 400 400 3 3 3 1 1 1 1 3;
#X obj 128 38 r stop_transitions;
#X msg 853 122 4 10 3 2 10;
#X msg 876 93 0 0 4 1 40;
#X msg 853 151 \; to_trans_presets_exp \$1 \; to_trans_time_exp \$2
\; to_trans_power \$3 \; to_trans_mult \$4 \; to_trans_add \$5 \; trigger_transitions
bang;
#X obj 420 12 r trigger_transitions;
#X obj 117 547 statfeed;
#X msg 139 504 8;
#X obj 117 627 s to_gliss_presets;
#X obj 423 51 t b b b;
#X obj 117 475 s gliss-length-receive;
#X floatatom 179 581 5 0 0 0 - - -, f 5;
#X obj 27 487 random 1000;
#X obj 27 516 / 1000;
#X obj 1328 157 s to_gliss_presets;
#X obj 1146 74 f;
#X obj 1146 103 + 1;
#X obj 1146 162 s rhythmexponent-receive;
#X obj 1161 34 r rhythmexponent;
#X obj 1146 133 % 15;
#X msg 1316 125 0;
#X msg 1391 134 6;
#X obj 320 282 sel 0 1 2 3 4 5 6 7 8 9 10 11 12 13 14 15 16 17 18 19
20 21 22 23, f 75;
#X obj 1315 33 f;
#X obj 1354 33 + 1;
#X obj 1315 75 sel 0 1 2;
#X obj 1323 53 % 3;
#X msg 1337 101 4;
#X msg 315 947 \; to_source_presets \$1 \; fader-0-bypass \$2 \; fader-1-bypass
\$3 \; fader-2-bypass \$4 \; fader-3-bypass \$5 \; fader-4-bypass \$6
\; fader-5-bypass \$7 \; ugen0-external-vol \$8 \; ugen1-external-vol
\$9 \; ugen2-external-vol \$10 \; stereo-mono \$11;
#X connect 11 0 16 0;
#X connect 11 1 107 0;
#X connect 12 0 15 0;
#X connect 12 1 107 0;
#X connect 13 0 14 0;
#X connect 13 1 107 0;
#X connect 14 0 48 0;
#X connect 15 0 47 0;
#X connect 16 0 46 0;
#X connect 25 0 26 0;
#X connect 25 1 107 0;
#X connect 26 0 49 0;
#X connect 41 0 135 0;
#X connect 42 0 135 0;
#X connect 43 0 135 0;
#X connect 44 0 135 0;
#X connect 45 0 135 0;
#X connect 46 0 135 0;
#X connect 47 0 135 0;
#X connect 48 0 135 0;
#X connect 49 0 135 0;
#X connect 50 0 135 0;
#X connect 51 0 135 0;
#X connect 52 0 135 0;
#X connect 53 0 135 0;
#X connect 54 0 135 0;
#X connect 55 0 135 0;
#X connect 56 0 135 0;
#X connect 57 0 135 0;
#X connect 58 0 135 0;
#X connect 59 0 135 0;
#X connect 60 0 135 0;
#X connect 61 0 135 0;
#X connect 62 0 73 0;
#X connect 63 0 62 2;
#X connect 64 0 66 0;
#X connect 65 0 64 0;
#X connect 66 0 62 0;
#X connect 67 0 102 0;
#X connect 68 0 67 2;
#X connect 68 0 113 2;
#X connect 69 0 71 0;
#X connect 70 0 69 0;
#X connect 71 0 67 0;
#X connect 72 0 86 0;
#X connect 73 0 75 0;
#X connect 73 0 88 0;
#X connect 74 0 116 0;
#X connect 75 0 74 0;
#X connect 76 0 101 0;
#X connect 76 0 100 0;
#X connect 76 0 84 0;
#X connect 76 0 97 0;
#X connect 77 0 86 1;
#X connect 78 0 87 1;
#X connect 79 0 85 1;
#X connect 80 0 68 0;
#X connect 81 0 63 0;
#X connect 82 0 105 0;
#X connect 83 0 74 0;
#X connect 84 0 68 0;
#X connect 84 0 63 0;
#X connect 85 0 87 0;
#X connect 86 0 85 0;
#X connect 87 0 74 1;
#X connect 87 0 117 0;
#X connect 88 0 104 0;
#X connect 91 0 92 0;
#X connect 91 0 90 1;
#X connect 92 0 91 1;
#X connect 93 0 99 0;
#X connect 93 1 94 0;
#X connect 94 0 91 1;
#X connect 95 0 93 0;
#X connect 96 0 95 0;
#X connect 97 0 74 1;
#X connect 98 0 90 0;
#X connect 98 1 91 0;
#X connect 99 0 98 0;
#X connect 100 0 62 1;
#X connect 101 0 67 1;
#X connect 101 0 114 0;
#X connect 102 0 72 0;
#X connect 103 0 129 0;
#X connect 105 0 109 0;
#X connect 105 1 110 0;
#X connect 105 2 106 0;
#X connect 106 0 111 0;
#X connect 107 0 135 0;
#X connect 108 0 83 0;
#X connect 109 0 111 0;
#X connect 110 0 111 0;
#X connect 112 0 116 0;
#X connect 113 0 115 0;
#X connect 113 0 118 0;
#X connect 114 0 113 1;
#X connect 116 0 119 0;
#X connect 116 1 70 0;
#X connect 116 2 65 0;
#X connect 119 0 120 0;
#X connect 120 0 113 0;
#X connect 122 0 123 0;
#X connect 123 0 126 0;
#X connect 125 0 122 1;
#X connect 126 0 124 0;
#X connect 127 0 121 0;
#X connect 128 0 121 0;
#X connect 129 0 42 0;
#X connect 129 1 41 0;
#X connect 129 2 43 0;
#X connect 129 3 44 0;
#X connect 129 4 45 0;
#X connect 129 5 107 0;
#X connect 129 6 11 0;
#X connect 129 7 12 0;
#X connect 129 8 13 0;
#X connect 129 9 25 0;
#X connect 129 10 50 0;
#X connect 129 11 51 0;
#X connect 129 12 52 0;
#X connect 129 13 53 0;
#X connect 129 14 54 0;
#X connect 129 15 55 0;
#X connect 129 16 56 0;
#X connect 129 17 57 0;
#X connect 129 18 58 0;
#X connect 129 19 59 0;
#X connect 129 20 60 0;
#X connect 129 21 61 0;
#X connect 129 22 122 0;
#X connect 129 23 130 0;
#X connect 130 0 131 0;
#X connect 130 0 133 0;
#X connect 131 0 130 1;
#X connect 132 0 127 0;
#X connect 132 1 134 0;
#X connect 132 2 128 0;
#X connect 133 0 132 0;
#X connect 134 0 121 0;
