#N canvas -1 26 1920 984 10;
#X text 896 415 2 ALL SIG \; 3 ALL SELF;
#X text 895 468 6 ONE SELF \; 7 PAIR;
#X text 895 494 8 PAIR & NOISE \; 9 PAIR & SIG \;;
#X text 888 520 10 PAIR & SELF \; 11 DAISY CHAIN;
#X text 895 442 4 ONE NOISE \; 5 ONE SIG;
#X text 896 388 0 ALL OFF \; 1 ALL NOISE;
#X text 888 546 12 DAISY CHAIN REVERSE;
#X text 888 614 17 ORGY;
#X text 888 560 13 DC & 0.1 NOISE \; 14 DC & 0.5 SIG;
#X text 888 587 15 DC & SELF \; 16 DC & 0.5 SELF;
#X msg 60 594 0 0 0 0 0 0 0 0 0 0 0;
#X msg 78 572 1 31 24 18 185 150 115 1 1 1 1 2;
#X msg 97 550 1 401 799 537 999 999 999 1 1 1 1 0;
#X msg 115 528 2 26 27 28 13 13 13 1 1 1 1 0;
#X msg 834 779 2 400 400 400 9.5 9.3 9.5 1 1 1 1 0;
#X msg 834 757 2 353 353 353 8.94 8.97 8.94 1 1 1 1 0;
#X msg 834 735 2 351 355 353 9 9 9 1 1 1 1 0;
#X msg 834 713 2 351 355 353 9 10 8 1 1 1 1 0;
#X msg 171 462 3 54 55 53 7 7 7 1 1 1 1 0;
#X msg 190 440 10 200 400 601 100 200 100 1 0.5 1 1 0;
#X msg 209 418 16 199 99 604 20 99 40 1 1 1 1 0;
#X msg 227 396 11 400 400 400 25 25 25 1 1 1 1 0;
#X msg 245 374 11 400 80 400 40 70 40 1 1 1 1 0;
#X msg 264 352 17 400 80 400 40 70 40 1 1 1 1 0;
#X msg 283 330 15 200 400 300 70 90 80 1 1 1 1 0;
#X msg 301 308 8 594 20 601 50 10 50 1 0.6 1 1 0;
#X msg 320 286 11 20 39 19 1 25 2 1 1 1 1 0;
#X msg 339 264 11 400 400 400 100 7 100 1 1 1 1 0;
#X msg 134 506 2 400 400 400 3 3 3 1 1 1 1 3;
#X obj 60 42 sel 0 1 2 3 4 5 6 7 8 9 10 11 12 13 14 15 16 17 18 19
20 21 22 23, f 75;
#X obj 549 24 inlet;
#X text 194 595 0 ALL - 0;
#X text 279 573 2 HALOGEN - 1;
#X text 316 551 3 REEDS - 2;
#X text 297 529 4 SERPENTINE - 3;
#X text 317 506 5 WIND - 4;
#X text 371 485 10 CHORD - 5;
#X text 336 463 12 WHISTLE - 6;
#X text 426 442 13 HUM - 7;
#X text 410 420 14 HUM 2 - 8;
#X text 434 397 15 BACKGROUND - 9;
#X text 445 375 16 SIREN - 10;
#X text 465 354 17 SCREECH - 11;
#X text 489 332 18 SALT - 12;
#X text 508 310 19 GRINDER - 13;
#X text 497 288 20 KETTLE - 14;
#X text 552 265 21 STATIC - 15;
#X msg 153 484 2 400 600 500 244 359 279 1 1 1 1 0;
#X text 886 369 SOURCE PRESETS:;
#X text 841 691 DEPRECATED:;
#X text 1081 714 FLOUTS;
#X text 1081 737 FLUTES;
#X text 1081 758 RAYS;
#X text 1081 780 GONG 1;
#X obj 892 258 s rhythmer-source-gate-receive;
#X obj 910 236 s rhythmer-volume-gate-receive;
#X obj 929 214 s rhythmer-gliss-gate-receive;
#X obj 947 192 s rhythmer-duration-gate-receive;
#X obj 1003 126 s increment_rhythmer_exponent;
#X obj 966 170 s rhythmer-increment-single-value;
#X obj 1022 104 s rhythmrandomize-receive;
#X obj 985 148 s increment_rhythmer_element;
#X msg 226 655 \; to_source_presets \$1 \; fader-0-bypass \$2 \; fader-1-bypass
\$3 \; fader-2-bypass \$4 \; fader-3-bypass \$5 \; fader-4-bypass \$6
\; fader-5-bypass \$7 \; ugen0-external-vol \$8 \; ugen1-external-vol
\$9 \; ugen2-external-vol \$10 \; stereo-mono \$11;
#X msg 47 628 \; to_source_presets \$1 \; fadertrim-0 \$2 \; fadertrim-1
\$3 \; fadertrim-2 \$4 \; fadertrim-3 \$5 \; fadertrim-4 \$6 \; fadertrim-5
\$7 \; ugen0-external-vol \$8 \; ugen1-external-vol \$9 \; ugen2-external-vol
\$10 \; stereo-mono \$11;
#X connect 10 0 63 0;
#X connect 11 0 63 0;
#X connect 12 0 63 0;
#X connect 13 0 63 0;
#X connect 18 0 63 0;
#X connect 19 0 63 0;
#X connect 20 0 63 0;
#X connect 21 0 63 0;
#X connect 22 0 63 0;
#X connect 23 0 63 0;
#X connect 24 0 63 0;
#X connect 25 0 63 0;
#X connect 26 0 63 0;
#X connect 27 0 63 0;
#X connect 28 0 63 0;
#X connect 29 0 10 0;
#X connect 29 1 11 0;
#X connect 29 2 12 0;
#X connect 29 3 13 0;
#X connect 29 4 28 0;
#X connect 29 5 47 0;
#X connect 29 6 18 0;
#X connect 29 7 19 0;
#X connect 29 8 20 0;
#X connect 29 9 21 0;
#X connect 29 10 22 0;
#X connect 29 11 23 0;
#X connect 29 12 24 0;
#X connect 29 13 25 0;
#X connect 29 14 26 0;
#X connect 29 15 27 0;
#X connect 30 0 29 0;
#X connect 47 0 63 0;
