#N canvas 336 185 1393 895 10;
#X text 970 762 2 ALL SIG \; 3 ALL SELF;
#X text 969 815 6 ONE SELF \; 7 PAIR;
#X text 969 841 8 PAIR & NOISE \; 9 PAIR & SIG \;;
#X text 962 867 10 PAIR & SELF \; 11 DAISY CHAIN;
#X text 969 789 4 ONE NOISE \; 5 ONE SIG;
#X text 970 735 0 ALL OFF \; 1 ALL NOISE;
#X text 962 893 12 DAISY CHAIN REVERSE;
#X text 962 961 17 ORGY;
#X text 962 907 13 DC & 0.1 NOISE \; 14 DC & 0.5 SIG;
#X text 962 934 15 DC & SELF \; 16 DC & 0.5 SELF;
#X text 960 700 FOR REFERENCE: \; SOURCE PRESETS:;
#X obj 482 747 t b b;
#X obj 500 718 t b b;
#X obj 519 689 t b b;
#X obj 557 688 del 80;
#X obj 540 718 del 80;
#X obj 532 747 del 80;
#X obj 370 282 sel 0 1 2 3 4 5 6 7 8 9 10 11 12 13 14 15 16 17 18 19
20 21, f 69;
#X text 602 892 1 WHITE;
#X text 613 863 2 HALOGEN;
#X text 650 834 3 REEDS;
#X text 632 805 4 SERPENTINE;
#X text 650 776 5 WIND;
#X text 816 747 6 GONG 1;
#X text 839 718 7 RAYS;
#X text 801 688 8 FLUTES;
#X obj 538 659 t b b;
#X obj 578 659 del 80;
#X text 828 659 9 FLOUTS;
#X text 779 630 10 CHORD;
#X text 804 601 11 CHORD 2;
#X text 762 572 12 WHISTLE;
#X text 852 543 13 HUM;
#X text 836 514 14 HUM 2;
#X text 861 485 15 BACKGROUND;
#X text 873 456 16 SIREN;
#X text 892 427 17 SCREECH;
#X text 916 398 18 SALT;
#X text 935 369 19 GRINDER;
#X text 924 340 20 KETTLE;
#X text 980 312 21 STATIC;
#X text 509 922 0 ALL;
#X msg 365 947 \; to_source_presets \$1 \; fader-0-bypass \$2 \; fader-1-bypass
\$3 \; fader-2-bypass \$4 \; fader-3-bypass \$5 \; fader-4-bypass \$6
\; fader-5-bypass \$7 \; ugen0-external-vol \$8 \; ugen0-external-vol
\$9 \; ugen0-external-vol \$10 \; stereo-mono \$11;
#X msg 388 892 1 401 800 399 400 800 400 1 1 1 0;
#X msg 370 921 0 0 0 0 0 0 0 0 0 0 0;
#X msg 407 863 1 31 24 18 185 150 115 1 1 1 1 2;
#X msg 426 834 1 401 799 537 999 999 999 1 1 1 1 0;
#X msg 444 805 2 26 27 28 13 13 13 1 1 1 1 0;
#X msg 463 776 2 400 400 400 0 0 0 1 1 1 1 3;
#X msg 593 747 2 400 400 400 9.5 9.3 9.5 1 1 1 1 0;
#X msg 598 718 2 353 353 353 8.94 8.97 8.94 1 1 1 1 0;
#X msg 614 688 2 351 355 353 9 9 9 1 1 1 1 0;
#X msg 635 659 2 351 355 353 9 10 8 1 1 1 1 0;
#X msg 556 630 2 400 600 500 244 359 279 1 1 1 1 0;
#X msg 575 601 14 400 600 500 244 359 279 1 1 1 1 0;
#X msg 594 572 3 54 55 53 7 7 7 1 1 1 1 0;
#X msg 612 543 10 200 400 601 100 200 100 1 0.5 1 1 0;
#X msg 631 514 16 199 99 604 20 99 40 1 1 1 1 0;
#X msg 650 485 11 400 400 400 25 25 25 1 1 1 1 0;
#X msg 668 456 11 400 80 400 40 70 40 1 1 1 1 0;
#X msg 687 427 17 400 80 400 40 70 40 1 1 1 1 0;
#X msg 706 398 15 200 400 300 70 90 80 1 1 1 1 0;
#X msg 724 369 8 594 20 601 50 10 50 1 0.6 1 1 0;
#X msg 743 340 11 20 39 19 1 25 2 1 1 1 1 0;
#X msg 762 311 11 400 400 400 100 7 100 1 1 1 1 0;
#X obj 532 200 statfeed;
#X floatatom 577 172 5 0 0 0 - - -, f 5;
#X obj 532 86 random 1000;
#X obj 532 60 bng 15 250 50 0 empty empty empty 17 7 0 10 -262144 -1
-1;
#X obj 532 115 / 1000;
#X obj 122 197 statfeed;
#X floatatom 167 169 5 0 0 0 - - -, f 5;
#X obj 122 83 random 1000;
#X obj 122 57 bng 15 250 50 0 empty empty empty 17 7 0 10 -262144 -1
-1;
#X obj 122 112 / 1000;
#X floatatom 122 226 5 0 0 0 - - -, f 5;
#X floatatom 532 223 5 0 0 0 - - -, f 5;
#X obj 392 144 del;
#X obj 388 190 t b b;
#X obj 532 251 bng 15 250 50 0 empty empty empty 17 7 0 10 -262144
-1 -1;
#X obj 324 32 loadbang;
#X msg 144 143 4;
#X obj 174 246 r trans_time_pow;
#X obj 174 324 r trans_time_add;
#X obj 174 285 r trans_time_mult;
#X obj 187 113 r trans_time_exp;
#X obj 592 116 r trans_presets_exp;
#X msg 554 143 22;
#X obj 837 22 inlet;
#X obj 761 106 sel 13 14;
#X msg 426 29 stop;
#X msg 214 160 2;
#X msg 348 96;
#X obj 122 303 * 3;
#X obj 122 264 pow 2;
#X obj 122 342 + 250;
#X connect 11 0 16 0;
#X connect 11 1 48 0;
#X connect 12 0 15 0;
#X connect 12 1 48 0;
#X connect 13 0 14 0;
#X connect 13 1 48 0;
#X connect 14 0 51 0;
#X connect 15 0 50 0;
#X connect 16 0 49 0;
#X connect 17 0 44 0;
#X connect 17 1 43 0;
#X connect 17 2 45 0;
#X connect 17 3 46 0;
#X connect 17 4 47 0;
#X connect 17 5 48 0;
#X connect 17 6 11 0;
#X connect 17 7 12 0;
#X connect 17 8 13 0;
#X connect 17 9 26 0;
#X connect 17 10 53 0;
#X connect 17 11 54 0;
#X connect 17 12 55 0;
#X connect 17 13 56 0;
#X connect 17 14 57 0;
#X connect 17 15 58 0;
#X connect 17 16 59 0;
#X connect 17 17 60 0;
#X connect 17 18 61 0;
#X connect 17 19 62 0;
#X connect 17 20 63 0;
#X connect 17 21 64 0;
#X connect 26 0 27 0;
#X connect 26 1 48 0;
#X connect 27 0 52 0;
#X connect 43 0 42 0;
#X connect 44 0 42 0;
#X connect 45 0 42 0;
#X connect 46 0 42 0;
#X connect 47 0 42 0;
#X connect 48 0 42 0;
#X connect 49 0 42 0;
#X connect 50 0 42 0;
#X connect 51 0 42 0;
#X connect 52 0 42 0;
#X connect 53 0 42 0;
#X connect 54 0 42 0;
#X connect 55 0 42 0;
#X connect 56 0 42 0;
#X connect 57 0 42 0;
#X connect 58 0 42 0;
#X connect 59 0 42 0;
#X connect 60 0 42 0;
#X connect 61 0 42 0;
#X connect 62 0 42 0;
#X connect 63 0 42 0;
#X connect 64 0 42 0;
#X connect 65 0 76 0;
#X connect 66 0 65 2;
#X connect 67 0 69 0;
#X connect 68 0 67 0;
#X connect 69 0 65 0;
#X connect 70 0 75 0;
#X connect 71 0 70 2;
#X connect 72 0 74 0;
#X connect 73 0 72 0;
#X connect 74 0 70 0;
#X connect 75 0 94 0;
#X connect 76 0 17 0;
#X connect 76 0 79 0;
#X connect 77 0 78 0;
#X connect 78 0 68 0;
#X connect 78 1 73 0;
#X connect 79 0 77 0;
#X connect 80 0 81 0;
#X connect 80 0 87 0;
#X connect 80 0 91 0;
#X connect 80 0 92 0;
#X connect 81 0 70 1;
#X connect 82 0 94 1;
#X connect 83 0 95 1;
#X connect 84 0 93 1;
#X connect 85 0 71 0;
#X connect 86 0 66 0;
#X connect 87 0 65 1;
#X connect 88 0 89 0;
#X connect 89 0 78 0;
#X connect 89 1 90 0;
#X connect 90 0 77 0;
#X connect 91 0 71 0;
#X connect 91 0 66 0;
#X connect 92 0 77 1;
#X connect 93 0 95 0;
#X connect 94 0 93 0;
#X connect 95 0 77 1;
