#N canvas 885 211 798 721 10;
#X msg 226 374 color 0 \$1 0;
#X floatatom 226 338 5 0 0 0 - - -, f 5;
#X msg 432 410 color 0 \$1 0;
#X floatatom 432 338 5 0 0 0 - - -, f 5;
#X msg 66 432 color 0 \$1 0;
#X floatatom 66 388 5 0 0 0 - - -, f 5;
#X msg 9 320 0;
#X obj 66 19 r note-value;
#X obj 66 134 sel 0 2 4 5 7 9 11;
#X obj 226 152 sel 1 3;
#X obj 432 170 sel 6 8 10;
#X obj 66 105 t f b;
#X obj 66 76 % 12;
#X floatatom 66 48 5 0 0 0 - - -, f 5;
#X obj 66 317 unpack;
#X obj 226 310 unpack;
#X obj 432 309 unpack;
#X msg 290 56 2.999;
#X msg 66 295 2.999 0;
#X msg 81 273 2.999 1;
#X msg 96 251 2.999 2;
#X msg 111 229 2.999 3;
#X msg 126 207 2.999 4;
#X msg 141 185 2.999 5;
#X msg 156 162 2.999 6;
#X msg 226 288 2.999 0;
#X msg 245 266 2.999 1;
#X msg 432 287 2.999 0;
#X msg 451 265 2.999 1;
#X msg 470 243 2.999 2;
#X obj 201 421 cnv 15 198 68 empty empty empty 20 12 0 14 -191407 -66577
0;
#X obj 211 457 hradio 25 1 0 7 empty empty empty 0 -8 0 10 -262144
-66577 -262144 0;
#X obj 302 428 hradio 25 1 0 3 empty empty empty 0 -8 0 10 -262144
-262144 -262144 0;
#X obj 226 428 hradio 25 1 0 2 empty empty empty 0 -8 0 10 -262144
-262144 -262144 0;
#X connect 0 0 33 0;
#X connect 1 0 0 0;
#X connect 2 0 32 0;
#X connect 3 0 2 0;
#X connect 4 0 31 0;
#X connect 5 0 4 0;
#X connect 6 0 5 0;
#X connect 6 0 1 0;
#X connect 6 0 3 0;
#X connect 7 0 13 0;
#X connect 8 0 18 0;
#X connect 8 1 19 0;
#X connect 8 2 20 0;
#X connect 8 3 21 0;
#X connect 8 4 22 0;
#X connect 8 5 23 0;
#X connect 8 6 24 0;
#X connect 8 7 9 0;
#X connect 9 0 25 0;
#X connect 9 1 26 0;
#X connect 9 2 10 0;
#X connect 10 0 27 0;
#X connect 10 1 28 0;
#X connect 10 2 29 0;
#X connect 11 0 8 0;
#X connect 11 1 6 0;
#X connect 12 0 11 0;
#X connect 13 0 12 0;
#X connect 14 0 5 0;
#X connect 14 1 31 0;
#X connect 15 0 1 0;
#X connect 15 1 33 0;
#X connect 16 0 3 0;
#X connect 16 1 32 0;
#X connect 18 0 14 0;
#X connect 19 0 14 0;
#X connect 20 0 14 0;
#X connect 21 0 14 0;
#X connect 22 0 14 0;
#X connect 23 0 14 0;
#X connect 24 0 14 0;
#X connect 25 0 15 0;
#X connect 26 0 15 0;
#X connect 27 0 16 0;
#X connect 28 0 16 0;
#X connect 29 0 16 0;
#X coords 0 -1 1 1 200 70 2 200 420;
