#N canvas 101 211 1440 720 10;
#X text 1191 128 2 ALL SIG \; 3 ALL SELF;
#X text 1190 181 6 ONE SELF \; 7 PAIR;
#X text 1190 207 8 PAIR & NOISE \; 9 PAIR & SIG \;;
#X text 1190 233 10 PAIR & SELF \; 11 DAISY CHAIN;
#X text 1190 155 4 ONE NOISE \; 5 ONE SIG;
#X text 1191 101 0 ALL OFF \; 1 ALL NOISE;
#X text 1190 259 12 DAISY CHAIN REVERSE;
#X text 1190 327 17 ORGY;
#X text 1190 273 13 DC & 0.1 NOISE \; 14 DC & 0.5 SIG;
#X text 1190 300 15 DC & SELF \; 16 DC & 0.5 SELF;
#X text 382 549 0 ALL OFF;
#X text 460 519 1 WHITE;
#X text 524 491 2 WIND;
#X msg 674 521 \; to_source_presets \$1;
#X msg 707 479 \; ugen1-external-vol \$1;
#X obj 674 450 unpack;
#X obj 767 -97 s to_gliss_presets;
#X msg 767 -126 0;
#X obj 701 -200 f;
#X obj 701 -155 + 1;
#X msg 807 -126 4;
#X msg 1178 46 399 400 401 400 400 400;
#X msg 459 24 200 400 600 200 400 600;
#X msg 439 53 400 80 401 400 80 401;
#X obj 845 -247 r stop_glisses;
#X msg 845 -218 0;
#X msg 300 258 17 1;
#X obj 734 -155 % 2;
#X obj 767 -155 sel 0 1;
#X text 517 403 5 WHISTLE;
#X text 694 316 8 STATIC;
#X text 711 288 9 SIREN;
#X text 809 229 11 HUM;
#X text 775 201 12 HUM 2;
#X text 782 171 13 GRIND;
#X text 802 143 14 GRIND 2;
#X text 838 113 15 C#MIN;
#X text 654 85 16 TON;
#X text 577 53 17 3RD;
#X text 607 25 18 OCT;
#X text 626 257 10 ORGY;
#X msg 181 432 16 1;
#X msg 720 -63 \; to_trans_presets_exp \$1 \; to_trans_time_exp \$2
\; to_trans_power \$3 \; to_trans_mult \$4 \; to_trans_add \$5 \; trigger_transitions
bang;
#X msg 539 -110 0 0 3 3 40;
#X msg 519 -81 2 5 2 6 30;
#X obj 499 -54 s rhythmer-shuffle;
#X msg 479 -5 11 1;
#X obj 701 -228 r gliss-second-switch;
#X text 222 432 4 DC & SELF;
#X text 692 375 6 F#MIN;
#X obj 102 -218 sel 0 1 2 3 4 5 6 7 8 9 10 11 12 13 14 15 16 17 18
19 20 21 22 23, f 80;
#X msg 102 548 0 0 0 0 0 0 0 0 0 0 0 0 0 0 0 0 0 0 0 0 0 0 0;
#X msg 121 519 1 9 7 5 0 0 0 1 1 1 1 400 80 401 400 80 401 9 7 5 0
0 0;
#X msg 141 490 2 800 400 800 3 3 3 1 1 1 1 400 80 401 400 80 401 5
6 7 3 3 3, f 62;
#X text 626 461 3 DMAJ;
#X msg 201 403 3 54 55 53 5 5 5 1 1 1 1 54 55 53 5 5 5 0 0 0 0 0 0
;
#X obj 674 276 t a;
#X msg 280 287 11 400 80 400 40 70 40 1 1 1 1 400 80 400 40 70 40 0
0 0 0 0 0, f 62;
#X msg 261 316 11 400 266 401 100 100 100 1 1 1 1 400 266 401 100 100
100 0 0 0 0 0 0, f 70;
#X obj 916 -128 r preset-router;
#X obj 102 -247 inlet;
#X msg 400 113 14 515 424 640 200 250 200 1 1 1 1 1 515 424 640 200
250 200 0 0 0 0 0 0, f 72;
#X obj 720 -92 t a;
#X obj 674 13 t a;
#X msg 380 142 8 594 20 601 50 10 50 1 0.6 1 1 0 594 20 601 600 200
500 0 0 0 0 0 0, f 69;
#X msg 360 171 11 594 599 601 60 60 60 1 0 1 1 594 599 601 500 500
600 0 0 0 0 0 0, f 69;
#X obj 852 42 t a;
#X obj 852 71 t a;
#X text 513 -5 19 D.C.;
#X text 618 -53 20 RHSHF;
#X text 592 -80 21 TRAN1;
#X text 610 -110 22 TRAN2;
#X text 594 -178 23 GLISS ON/OFF;
#X msg 320 229 10 200 400 601 100 200 100 1 0.5 1 1 0 500 200 400 601
100 200 100 0 0 0 0 0 0, f 80;
#X msg 340 200 16 199 99 604 20 99 40 1 1 1 1 0 500 199 99 684 20 99
40 0 0 0 0 0 0, f 71;
#X msg 161 461 2 400 600 476 244 359 279 1 1 1 1 400 600 476 244 359
279 241 242 240 0 0 0, f 76;
#X msg 221 374 3 238 320 400 100 100 100 1 1 1 1 596 300 604 600 600
600 15 30 15 0 0 0, f 77;
#X obj 529 84 s stacc-leg-receive;
#X obj 420 69 bng 15 250 50 0 empty empty empty 17 7 0 10 #fcfcfc #000000
#000000;
#X msg 92 581 \; preset-router \$1 \$2 \$3 \$4 \$5 \$6 \$7 \$8 \$9
\$10 \$11 \$12 \$13 \$14 \$15 \$16 \$17 \$18 \$19 \$20 \$21 \$22 \$23
, f 105;
#X text 1189 80 SOURCE PRESETS:;
#X text 678 346 7 ------;
#X msg 1137 -18 10 400 600 800 170 160 240 1 1 1 1 400 600 800 170
160 240 0 0 0 0 0 0, f 71;
#X text 1574 -17 7 ------;
#X msg 241 345 14 598 240 600 300 200 300 1 1 1 1 600 300 600 600 600
600 0 0 0 0 0 0, f 71;
#X msg 916 -99 \; gliss-length-vols-master 0 \; elem-exp-multiplier-0
\$12 \; elem-exp-multiplier-1 \$13 \; elem-exp-multiplier-2 \$14 \;
elem-exp-multiplier-3 \$15 \; elem-exp-multiplier-4 \$16 \; elem-exp-multiplier-5
\$17 \; elem-exp-adder-0 \$18 \; elem-exp-adder-1 \$19 \; elem-exp-adder-2
\$20 \; elem-exp-adder-3 \$21 \; elem-exp-adder-4 \$22 \; elem-exp-adder-5
\$23 \; to_source_presets \$1 \; fader-0-bypass \$2 \; fader-1-bypass
\$3 \; fader-2-bypass \$4 \; fader-3-bypass \$5 \; fader-4-bypass \$6
\; fader-5-bypass \$7 \; ugen0-external-vol \$8 \; ugen1-external-vol
\$9 \; ugen2-external-vol \$10 \; stereo-mono \$11 \; stop_glisses
bang;
#X text 522 -37 THIS ISN"T CONNECTED TO \; ANYTHING;
#X text 851 486 comment;
#X msg 852 341 \; elem-exp-multiplier-0 \$1 \; elem-exp-multiplier-1
\$2 \; elem-exp-multiplier-2 \$3 \; elem-exp-multiplier-3 \$4 \; elem-exp-multiplier-4
\$5 \; elem-exp-multiplier-5 \$6 \; pulse_base bang;
#X connect 15 0 13 0;
#X connect 15 1 14 0;
#X connect 17 0 16 0;
#X connect 18 0 19 0;
#X connect 19 0 18 1;
#X connect 19 0 27 0;
#X connect 20 0 16 0;
#X connect 22 0 66 0;
#X connect 23 0 67 0;
#X connect 24 0 25 0;
#X connect 25 0 18 1;
#X connect 26 0 56 0;
#X connect 27 0 28 0;
#X connect 28 0 17 0;
#X connect 28 1 20 0;
#X connect 41 0 15 0;
#X connect 43 0 62 0;
#X connect 44 0 42 0;
#X connect 46 0 63 0;
#X connect 47 0 18 0;
#X connect 50 0 51 0;
#X connect 50 1 52 0;
#X connect 50 2 53 0;
#X connect 50 3 75 0;
#X connect 50 4 41 0;
#X connect 50 5 55 0;
#X connect 50 6 76 0;
#X connect 50 7 84 0;
#X connect 50 8 58 0;
#X connect 50 9 57 0;
#X connect 50 10 26 0;
#X connect 50 11 73 0;
#X connect 50 12 74 0;
#X connect 50 13 65 0;
#X connect 50 14 64 0;
#X connect 50 15 61 0;
#X connect 50 16 78 0;
#X connect 50 17 23 0;
#X connect 50 18 22 0;
#X connect 50 19 46 0;
#X connect 50 20 45 0;
#X connect 50 21 44 0;
#X connect 50 22 43 0;
#X connect 50 23 18 0;
#X connect 51 0 79 0;
#X connect 52 0 79 0;
#X connect 53 0 79 0;
#X connect 55 0 79 0;
#X connect 56 0 15 0;
#X connect 57 0 79 0;
#X connect 58 0 79 0;
#X connect 59 0 85 0;
#X connect 60 0 50 0;
#X connect 61 0 79 0;
#X connect 62 0 42 0;
#X connect 63 0 15 0;
#X connect 64 0 79 0;
#X connect 65 0 79 0;
#X connect 66 0 88 0;
#X connect 67 0 88 0;
#X connect 73 0 79 0;
#X connect 74 0 79 0;
#X connect 75 0 79 0;
#X connect 76 0 79 0;
#X connect 78 0 77 0;
#X connect 84 0 79 0;
#X coords 0 720 1 719 260 330 0;
