#N canvas 67 167 1076 651 10;
#X obj 480 618 s walker-fader-onoff-1;
#X obj 549 555 s walker-fader-onoff-4;
#X obj 458 639 s walker-fader-onoff-0;
#X obj 526 576 s walker-fader-onoff-3;
#X obj 503 597 s walker-fader-onoff-2;
#X obj 572 534 s walker-fader-onoff-5;
#X obj 275 352 s walker-rate;
#X obj 41 327 s walker-leap;
#X obj 220 -3 r init-loadbang;
#X msg 217 184 30;
#X msg 460 64 0;
#X obj 614 81 f;
#X obj 650 81 + 1;
#X msg 460 126 set \$1;
#X obj 460 87 t f b;
#X msg 526 91 1;
#X obj 460 42 r walker-preset-zero;
#X obj 614 42 r walker-preset-increment;
#X floatatom 460 150 5 0 0 0 - - -, f 5;
#X msg 650 14 1;
#X obj -121 174 r walker-rate-receive;
#X obj 458 456 unpack f f f f f f f;
#X msg 458 433 0 0 0 0 0 0 0;
#X obj 458 211 sel 0 1 2 3 4 5 6;
#X msg 182 123 1250;
#X obj 595 512 s to_gliss_presets;
#X obj 33 3 r walker-preset-bypass;
#X obj 678 133 r walker-preset-confirm;
#X msg 507 370 0 0 0 1 1 1 2;
#X obj 307 324 s gliss-length-receive;
#X obj 275 214 t f f;
#X msg 474 412 1 1 1 1 1 1 4;
#X msg 491 391 1 1 1 0 0 0 1;
#X msg 524 349 0 0 0 1 0 1 2;
#X msg 540 328 0 1 0 0 0 0 1;
#X msg 557 307 0 0 0 0 1 0 2;
#X obj 614 109 % 7;
#X obj -114 38 r auxknob-6;
#X obj -114 66 / 127;
#X obj -116 274 / 127;
#X obj -116 246 r auxfader-6;
#X obj 31 31 cnv 15 128 258 empty empty empty 20 12 0 14 -233017 -66577
0;
#X obj 33 53 vradio 13 1 0 7 empty empty empty 0 -8 0 10 -262144 -1
-1 1;
#X obj 35 194 nbx 5 20 -1e+37 1e+37 0 0 empty empty empty 0 -8 0 15
-262144 -1 -1 240.157 256;
#X text 114 200 RATE;
#X obj 35 219 nbx 5 20 -1e+37 1e+37 0 0 empty empty empty 0 -8 0 15
-262144 -1 -1 300 256;
#X text 114 225 LEAP;
#X text 41 31 WALKER PRESETS;
#X text 47 52 0 ALL OFF \; 1 ALL WALK \; 2 ELEM \; 3 EXP \; 4 0&2 EXP
\; 5 1 ELEM \; 6 1 EXP \;;
#X obj -25 144 max;
#X msg -16 108 1;
#X obj -114 94 * 900;
#X obj -116 302 * 600;
#X connect 8 0 24 0;
#X connect 8 0 9 0;
#X connect 8 0 19 0;
#X connect 8 0 50 0;
#X connect 10 0 14 0;
#X connect 10 0 42 0;
#X connect 11 0 12 0;
#X connect 11 0 36 0;
#X connect 12 0 11 1;
#X connect 13 0 18 0;
#X connect 13 0 42 0;
#X connect 14 0 13 0;
#X connect 14 1 15 0;
#X connect 15 0 11 1;
#X connect 16 0 10 0;
#X connect 17 0 11 0;
#X connect 18 0 42 0;
#X connect 19 0 12 0;
#X connect 20 0 49 0;
#X connect 21 0 2 0;
#X connect 21 1 0 0;
#X connect 21 2 4 0;
#X connect 21 3 3 0;
#X connect 21 4 1 0;
#X connect 21 5 5 0;
#X connect 21 6 25 0;
#X connect 22 0 21 0;
#X connect 23 0 22 0;
#X connect 23 1 31 0;
#X connect 23 2 32 0;
#X connect 23 3 28 0;
#X connect 23 4 33 0;
#X connect 23 5 34 0;
#X connect 23 6 35 0;
#X connect 24 0 43 0;
#X connect 26 0 42 0;
#X connect 27 0 18 0;
#X connect 28 0 21 0;
#X connect 30 0 6 0;
#X connect 30 1 29 0;
#X connect 31 0 21 0;
#X connect 32 0 21 0;
#X connect 33 0 21 0;
#X connect 34 0 21 0;
#X connect 35 0 21 0;
#X connect 36 0 13 0;
#X connect 37 0 38 0;
#X connect 38 0 51 0;
#X connect 39 0 52 0;
#X connect 40 0 39 0;
#X connect 42 0 23 0;
#X connect 43 0 30 0;
#X connect 45 0 7 0;
#X connect 49 0 43 0;
#X connect 50 0 49 1;
#X connect 51 0 49 0;
#X connect 52 0 45 0;
#X coords 0 -1 1 1 130 260 2 30 30;
