#N canvas 133 610 1543 711 10;
#X obj 1306 76 vradio 13 1 0 22 empty empty empty 0 -8 0 10 -262144
-1 -1 20;
#X text 1325 70 -- 0 ALL OFF \; 1 WHITE \; 2 HALOGEN \; 3 REEDS \;
4 SERPENTINE \; 5 WIND \; 6 GONG \; 7 RAYS \; --8 FLUTES \; 9 FLOUTS
\; 10 CHORD \; 11 CHORD 2 \; 12 WHISTLE \; 13 HUM \; 14 HUM2 \; 15
BACKGROUND \; --16 SIREN \; 17 SIREN 2 \; 18 SALT \; 19 GRIND \; 20
KETTLE \; 21 STATIC \;;
#X obj 1306 44 inlet;
#X obj 1306 381 New_Transitioner;
#X text 1314 471 2 ALL SIG \; 3 ALL SELF;
#X text 1313 524 6 ONE SELF \; 7 PAIR;
#X text 1313 550 8 PAIR & NOISE \; 9 PAIR & SIG \;;
#X text 1306 576 10 PAIR & SELF \; 11 DAISY CHAIN;
#X text 1313 498 4 ONE NOISE \; 5 ONE SIG;
#X text 1314 444 0 ALL OFF \; 1 ALL NOISE;
#X text 1306 602 12 DAISY CHAIN REVERSE;
#X text 1306 670 17 ORGY;
#X text 1306 616 13 DC & 0.1 NOISE \; 14 DC & 0.5 SIG;
#X text 1306 643 15 DC & SELF \; 16 DC & 0.5 SELF;
#X text 1304 409 FOR REFERENCE: \; SOURCE PRESETS:;
#X obj 349 36 inlet;
#X msg 72 408 0 0 0 0 0 0 0 0 0 0 0;
#X msg 500 266 11 400 80 400 40 70 40 1 1 1 1;
#X msg 555 188 16 199 99 604 20 99 40 1 1 1 1 0 500;
#X msg 535 217 10 200 400 601 100 200 100 1 0.5 1 1 0 500;
#X text 211 409 0 ALL OFF;
#X text 239 379 1 WHITE;
#X text 297 351 2 WIND;
#X msg 633 545 \; to_source_presets \$1;
#X msg 666 503 \; ugen1-external-vol \$1;
#X obj 633 474 unpack;
#X msg 205 561 \; elem-exp-adder-0 \$1 \; elem-exp-adder-1 \$2 \; elem-exp-adder-2
\$3 \; elem-exp-adder-3 \$4 \; elem-exp-adder-4 \$5 \; elem-exp-adder-5
\$6 \;;
#X obj 128 259 t b b b;
#X msg 837 367 800 800 800 800 800 800;
#X obj 100 288 t b b b;
#X msg 844 396 800 999 800 999 800 999;
#X msg 32 467 \; to_source_presets \$1 \; fader-0-bypass \$2 \; fader-1-bypass
\$3 \; fader-2-bypass \$4 \; fader-3-bypass \$5 \; fader-4-bypass \$6
\; fader-5-bypass \$7 \; ugen0-external-vol \$8 \; ugen1-external-vol
\$9 \; ugen2-external-vol \$10 \; stereo-mono \$11 \; stop_transitions
bang \; stop_glisses bang;
#X obj 1014 54 sel 16 17 18 19 20 21 22 23;
#X obj 268 204 s to_gliss_presets;
#X msg 268 186 0;
#X obj 268 110 f;
#X obj 268 129 + 1;
#X msg 290 185 4;
#X text 1024 17 BOTTOM ROW ELEM EXP TOPS;
#X msg 1014 515 399 400 401 400 400 400;
#X msg 1053 457 200 400 600 200 400 600;
#X msg 1033 486 400 80 401 400 80 401;
#X msg 573 159 11 594 599 601 60 60 60 1 0 1 1;
#X obj 296 91 r stop_glisses;
#X msg 301 118 0;
#X msg 1005 544 \; elem-exp-multiplier-0 \$1 \; elem-exp-multiplier-1
\$2 \; elem-exp-multiplier-2 \$3 \; elem-exp-multiplier-3 \$4 \; elem-exp-multiplier-4
\$5 \; elem-exp-multiplier-5 \$6 \; pulse_base bang;
#X msg 205 532 9 7 5 0 0 0;
#X msg 100 379 1 9 7 5 0 0 0 1 1 1 1;
#X msg 205 503 5 6 7 3 3 3;
#X msg 518 241 17 1;
#X msg 643 446 8 1;
#X obj 268 148 % 2;
#X obj 268 167 sel 0 1;
#X msg 592 130 8 594 20 601 50 10 50 1 0.6 1 1 0;
#X msg 128 349 2 800 400 800 3 3 3 1 1 1 1;
#X msg 417 437 594 599 601 500 500 600;
#X msg 417 569 594 20 601 600 200 500;
#X msg 417 462 \; elem-exp-multiplier-0 \$1 \; elem-exp-multiplier-1
\$2 \; elem-exp-multiplier-2 \$3 \; elem-exp-multiplier-3 \$4 \; elem-exp-multiplier-4
\$5 \; elem-exp-multiplier-5 \$6 \;;
#X msg 482 295 11 400 266 401 100 100 100 1 1 1 1;
#X msg 156 320 2 400 600 476 244 359 279 1 1 1 1;
#X msg 212 262 3 54 55 53 5 5 5 1 1 1 1;
#X obj 804 54 nbx 3 35 -1e+37 1e+37 0 0 empty empty empty 0 -8 0 30
-262144 -1 -1 19 256;
#X text 361 320 3 CHORD;
#X obj 72 54 sel 0 1 2 3 4 5 6 7, f 38;
#X obj 482 54 sel 8 9 10 11 12 13 14 15;
#X text 376 261 5 WHISTLE;
#X text 700 293 8 STATIC;
#X text 700 266 9 SIREN;
#X text 808 218 11 HUM;
#X text 790 188 12 HUM 2;
#X text 769 161 13 GRIND;
#X text 802 127 14 GRIND 2;
#X text 833 103 15 C#MIN;
#X text 1162 516 16 TON;
#X text 1167 487 17 3RD;
#X text 1200 457 18 OCT;
#X text 577 240 10 ORGY;
#X obj 1005 269 route 16;
#X msg 610 101 14 515 424 640 200 250 200 1 1 1 1 1;
#X msg 184 291 16 1;
#X msg 205 474 0 0 0 0 0 0;
#X text 223 292 4 DC&SELF (IS THIS WHAT works with Chord?);
#X msg 1153 97 13 20 1 3 50;
#X msg 1113 184 \; to_trans_presets_exp \$1 \; to_trans_time_exp \$2
\; to_trans_power \$3 \; to_trans_mult \$4 \; to_trans_add \$5 \; trigger_transitions
bang;
#X msg 1133 126 0 0 3 3 40;
#X msg 1113 155 2 5 2 6 30;
#X obj 954 287 bng 15 250 50 0 empty empty empty 17 7 0 10 -262144
-1 -1;
#X text 462 236 6 AMIN;
#X msg 240 233 3 238 320 400 100 100 100 1 1 1 1 0;
#X msg 1073 428 10 400 600 800 170 160 240 1 1 1 1;
#X connect 0 0 3 0;
#X connect 2 0 0 0;
#X connect 15 0 32 0;
#X connect 15 0 61 0;
#X connect 15 0 63 0;
#X connect 15 0 64 0;
#X connect 16 0 31 0;
#X connect 17 0 31 0;
#X connect 18 0 31 0;
#X connect 19 0 31 0;
#X connect 25 0 23 0;
#X connect 25 1 24 0;
#X connect 27 0 54 0;
#X connect 27 1 28 0;
#X connect 27 2 48 0;
#X connect 28 0 45 0;
#X connect 29 0 47 0;
#X connect 29 1 30 0;
#X connect 29 2 46 0;
#X connect 30 0 45 0;
#X connect 32 0 39 0;
#X connect 32 1 41 0;
#X connect 32 2 40 0;
#X connect 32 3 89 0;
#X connect 32 5 85 0;
#X connect 32 6 84 0;
#X connect 32 7 82 0;
#X connect 34 0 33 0;
#X connect 35 0 36 0;
#X connect 36 0 35 1;
#X connect 36 0 51 0;
#X connect 37 0 33 0;
#X connect 39 0 45 0;
#X connect 40 0 45 0;
#X connect 41 0 45 0;
#X connect 42 0 31 0;
#X connect 42 0 55 0;
#X connect 43 0 44 0;
#X connect 44 0 35 1;
#X connect 46 0 26 0;
#X connect 47 0 31 0;
#X connect 48 0 26 0;
#X connect 49 0 25 0;
#X connect 50 0 25 0;
#X connect 51 0 52 0;
#X connect 52 0 34 0;
#X connect 52 1 37 0;
#X connect 53 0 31 0;
#X connect 53 0 56 0;
#X connect 54 0 31 0;
#X connect 55 0 57 0;
#X connect 56 0 57 0;
#X connect 58 0 31 0;
#X connect 59 0 31 0;
#X connect 60 0 31 0;
#X connect 63 0 16 0;
#X connect 63 1 29 0;
#X connect 63 2 27 0;
#X connect 63 3 59 0;
#X connect 63 4 79 0;
#X connect 63 5 60 0;
#X connect 63 6 88 0;
#X connect 63 7 35 0;
#X connect 64 0 58 0;
#X connect 64 1 17 0;
#X connect 64 2 49 0;
#X connect 64 3 19 0;
#X connect 64 4 18 0;
#X connect 64 5 42 0;
#X connect 64 6 53 0;
#X connect 64 7 78 0;
#X connect 77 0 45 0;
#X connect 77 0 86 0;
#X connect 78 0 77 0;
#X connect 78 0 31 0;
#X connect 79 0 25 0;
#X connect 80 0 26 0;
#X connect 82 0 83 0;
#X connect 84 0 83 0;
#X connect 85 0 83 0;
#X connect 86 0 80 0;
#X connect 88 0 31 0;
#X connect 89 0 31 0;
#X coords 0 711 1 710 260 330 0;
