#N canvas 54 124 990 636 10;
#X obj 650 534 s gliss-length-exps;
#X obj 445 534 s gliss-length-elems;
#X obj 858 534 s gliss-length-sources;
#X text 409 23 GLISS PRESETS:;
#X obj 404 43 vradio 13 1 0 8 empty empty empty 0 -8 0 10 -262144 -1
-1 0;
#X obj 270 4 r init-loadbang;
#X obj 404 4 r to_gliss_presets;
#X text 418 43 0 E/EX/S/ \; 1 */0/0/ \; 2 0/*/0/ \; 3 0/0/*/ \; 4 */*/*
\; 5 */*/0/ \; 6 0/*/* \; 7 */0/*;
#X obj 402 158 nbx 4 20 -1e+37 1e+37 0 0 empty empty empty 0 -8 0 16
-262144 -1 -1 0 256;
#X msg 270 26 0;
#X msg 691 340 zero zero zero;
#X obj 445 422 sel zero gliss;
#X msg 445 450 0;
#X floatatom 492 506 5 0 0 0 - - -, f 5;
#X obj 512 450 r gliss-length;
#X obj 116 141 r gliss-length-receive;
#X msg 512 478 set \$1;
#X obj 650 422 sel zero gliss;
#X msg 650 450 0;
#X floatatom 697 506 5 0 0 0 - - -, f 5;
#X obj 717 450 r gliss-length;
#X msg 717 478 set \$1;
#X obj 858 422 sel zero gliss;
#X msg 858 450 0;
#X floatatom 905 506 5 0 0 0 - - -, f 5;
#X obj 925 450 r gliss-length;
#X msg 925 478 set \$1;
#X msg 707 319 gliss zero zero;
#X msg 723 298 zero gliss zero;
#X msg 739 277 zero zero gliss;
#X msg 756 256 gliss gliss gliss;
#X msg 772 235 gliss gliss zero;
#X msg 788 214 zero gliss gliss;
#X msg 804 193 gliss zero gliss;
#X obj 540 178 s gliss-length;
#X obj 691 368 unpack s s s;
#X msg 270 48 1;
#X obj 691 147 sel 0 1 2 3 4 5 6 7;
#X obj 402 489 t b b b;
#X connect 4 0 37 0;
#X connect 5 0 9 0;
#X connect 5 0 36 0;
#X connect 6 0 4 0;
#X connect 8 0 34 0;
#X connect 8 0 38 0;
#X connect 9 0 4 0;
#X connect 10 0 35 0;
#X connect 11 0 12 0;
#X connect 11 1 13 0;
#X connect 12 0 1 0;
#X connect 13 0 1 0;
#X connect 14 0 16 0;
#X connect 15 0 8 0;
#X connect 16 0 13 0;
#X connect 17 0 18 0;
#X connect 17 1 19 0;
#X connect 18 0 0 0;
#X connect 19 0 0 0;
#X connect 20 0 21 0;
#X connect 21 0 19 0;
#X connect 22 0 23 0;
#X connect 22 1 24 0;
#X connect 23 0 2 0;
#X connect 24 0 2 0;
#X connect 25 0 26 0;
#X connect 26 0 24 0;
#X connect 27 0 35 0;
#X connect 28 0 35 0;
#X connect 29 0 35 0;
#X connect 30 0 35 0;
#X connect 31 0 35 0;
#X connect 32 0 35 0;
#X connect 33 0 35 0;
#X connect 35 0 11 0;
#X connect 35 1 17 0;
#X connect 35 2 22 0;
#X connect 37 0 10 0;
#X connect 37 1 27 0;
#X connect 37 2 28 0;
#X connect 37 3 29 0;
#X connect 37 4 30 0;
#X connect 37 5 31 0;
#X connect 37 6 32 0;
#X connect 37 7 33 0;
#X connect 38 0 13 0;
#X connect 38 1 19 0;
#X connect 38 2 24 0;
#X coords 0 -1 1 1 130 260 2 400 23;
