#N canvas 127 138 1540 829 10;
#X text 269 245 GLOBAL PRESETS;
#X obj 568 337 vradio 13 1 0 22 empty empty empty 0 -8 0 10 -262144
-1 -1 12;
#X obj 568 247 r to_secondary_globals;
#X obj 4 357 sel 1;
#X obj 4 773 s to_global_presets;
#X obj 47 378 sel 1;
#X obj 90 399 sel 1;
#X obj 133 420 sel 1;
#X obj 4 335 r mbutton-0;
#X obj 47 357 r mbutton-1;
#X obj 90 378 r mbutton-2;
#X obj 133 399 r mbutton-3;
#X obj 176 442 sel 1;
#X obj 219 463 sel 1;
#X obj 262 484 sel 1;
#X obj 305 505 sel 1;
#X obj 176 420 r mbutton-4;
#X obj 219 442 r mbutton-5;
#X obj 262 463 r mbutton-6;
#X obj 305 484 r mbutton-7;
#X obj 4 467 sel 1;
#X obj 47 488 sel 1;
#X obj 90 509 sel 1;
#X obj 133 530 sel 1;
#X obj 176 552 sel 1;
#X obj 219 573 sel 1;
#X obj 262 594 sel 1;
#X obj 305 615 sel 1;
#X obj 4 445 r rbutton-0;
#X obj 47 467 r rbutton-1;
#X obj 90 488 r rbutton-2;
#X obj 133 509 r rbutton-3;
#X obj 176 530 r rbutton-4;
#X obj 219 552 r rbutton-5;
#X obj 262 573 r rbutton-6;
#X obj 305 594 r rbutton-7;
#X msg 305 636 23;
#X obj 788 396 sel 1;
#X obj 831 417 sel 1;
#X obj 874 438 sel 1;
#X obj 917 459 sel 1;
#X obj 960 481 sel 1;
#X obj 1003 502 sel 1;
#X obj 1046 523 sel 1;
#X obj 1089 544 sel 1;
#X obj 788 506 sel 1;
#X obj 831 527 sel 1;
#X obj 874 548 sel 1;
#X obj 917 569 sel 1;
#X obj 960 591 sel 1;
#X obj 1003 612 sel 1;
#X obj 1046 633 sel 1;
#X obj 1089 654 sel 1;
#X obj 788 374 r mbutton-0-mux;
#X obj 831 396 r mbutton-1-mux;
#X obj 874 417 r mbutton-2-mux;
#X obj 917 438 r mbutton-3-mux;
#X obj 960 459 r mbutton-4-mux;
#X obj 1003 481 r mbutton-5-mux;
#X obj 1046 502 r mbutton-6-mux;
#X obj 1089 523 r mbutton-7-mux;
#X obj 788 484 r rbutton-0-mux;
#X obj 831 506 r rbutton-1-mux;
#X obj 874 527 r rbutton-2-mux;
#X obj 917 548 r rbutton-3-mux;
#X obj 960 569 r rbutton-4-mux;
#X obj 1003 591 r rbutton-5-mux;
#X obj 1046 612 r rbutton-6-mux;
#X obj 1089 633 r rbutton-7-mux;
#X obj 748 783 s to_secondary_globals;
#X obj 411 337 vradio 13 1 0 22 empty empty empty 0 -8 0 10 -262144
-1 -1 5;
#X obj 920 682 sel 1;
#X obj 963 703 sel 1;
#X obj 1006 724 sel 1;
#X obj 1049 745 sel 1;
#X obj 791 619 sel 1;
#X obj 834 640 sel 1;
#X obj 877 661 sel 1;
#X obj 748 598 sel 1;
#X obj 748 576 r sbutton-0-mux;
#X obj 791 598 r sbutton-1-mux;
#X obj 834 619 r sbutton-2-mux;
#X obj 877 640 r sbutton-3-mux;
#X obj 920 661 r sbutton-4-mux;
#X obj 963 682 r sbutton-5-mux;
#X obj 1006 703 r sbutton-6-mux;
#X obj 1049 724 r sbutton-7-mux;
#X msg -263 1150 0 0 0 0 0 0 0 0 0 0 0;
#X msg -245 1129 1 6 7 5 0 0 0 1 1 1 1;
#X msg -227 1108 1 6 7 5 26 33 22 1 1 1 1;
#X obj -98 947 t b b;
#X obj 411 677 Global_Presets;
#X obj 4 587 sel 1;
#X msg 4 608 0;
#X obj 47 608 sel 1;
#X msg 47 629 1;
#X obj 90 629 sel 1;
#X obj 133 650 sel 1;
#X msg 90 650 2;
#X obj 176 672 sel 1;
#X obj 219 693 sel 1;
#X obj 262 714 sel 1;
#X obj 305 735 sel 1;
#X msg 133 671 3;
#X msg 176 693 4;
#X msg 219 714 5;
#X msg 262 735 6;
#X msg 305 756 7;
#X obj 4 565 r sbutton-0;
#X obj 47 587 r sbutton-1;
#X obj 90 608 r sbutton-2;
#X obj 133 629 r sbutton-3;
#X obj 176 650 r sbutton-4;
#X obj 219 672 r sbutton-5;
#X obj 262 693 r sbutton-6;
#X obj 305 714 r sbutton-7;
#X msg 4 378 8;
#X msg 47 399 9;
#X msg 90 420 10;
#X msg 133 441 11;
#X msg 176 463 12;
#X msg 219 484 13;
#X msg 262 505 14;
#X msg 305 526 15;
#X msg 4 488 16;
#X msg 47 509 17;
#X msg 90 530 18;
#X msg 133 551 19;
#X msg 176 573 20;
#X msg 219 594 21;
#X msg 262 615 22;
#X msg 748 619 0;
#X msg 791 640 1;
#X msg 834 662 2;
#X msg 877 682 3;
#X msg 920 703 4;
#X msg 963 724 5;
#X msg 1006 745 6;
#X msg 1049 766 7;
#X msg 788 417 8;
#X msg 832 438 9;
#X msg 874 459 10;
#X msg 917 480 11;
#X msg 960 502 12;
#X msg 1003 523 13;
#X msg 1046 544 14;
#X msg 1089 565 15;
#X msg 788 527 16;
#X msg 831 548 17;
#X msg 874 569 18;
#X msg 918 590 19;
#X msg 960 612 20;
#X msg 1003 633 21;
#X msg 1046 654 22;
#X msg 1089 675 23;
#X text 19 308 GLOBAL PRESETS;
#X text 805 333 MUX GLOBAL PRESETS;
#X obj 568 699 Transitions;
#X text 429 336 -- 0 ALL OFF \; 1 WHITE \; 2 HALOGEN \; 3 REEDS \;
4 SERPENTINE \; 5 WIND \; 6 GONG \; 7 RAYS \; --8 FLUTES \; 9 FLOUTS
\; 10 CHORD \; 11 CHORD 2 \; 12 WHISTLE \; 13 HUM \; 14 HUM2 \; 15
BACKGROUND \; --16 SIREN \; 17 SIREN 2 \; 18 SALT \; 19 GRIND \; 20
KETTLE \; 21 STATIC \;;
#X text 588 339 --0 TO WHITE \; 1 TO HAL \; 2 TO REED \; 3 TO SERP
\; 4 TO WIND \; 5 TO CHORD \; 6 TO STATIC \; 7 TO SALT \; --8 RAND
2 WHITE \; 9 RAND 2 HAL \; 10 RAND 2 REED \; 11 RAND 2 WIND \; 12 RAND
2 CHORD \; 13 RAND 2 STATIC \; 14 RAND 2 SALT \; --15 STAT2WHITE \;
16 STAT 2 HUM \; 17 STAT 2 HAL \; 18 STAT 2 WIND \; 19 STAT 2 CHORD
\; 20 STAT 2 SALT \;;
#X obj 568 661 TransRandPresets;
#X obj 487 765 outlet;
#X obj 428 280 inlet;
#X obj 593 279 inlet;
#X floatatom 677 725 5 0 0 0 - - -, f 5;
#X connect 1 0 160 0;
#X connect 1 0 161 0;
#X connect 2 0 1 0;
#X connect 3 0 116 0;
#X connect 5 0 117 0;
#X connect 6 0 118 0;
#X connect 7 0 119 0;
#X connect 8 0 3 0;
#X connect 9 0 5 0;
#X connect 10 0 6 0;
#X connect 11 0 7 0;
#X connect 12 0 120 0;
#X connect 13 0 121 0;
#X connect 14 0 122 0;
#X connect 15 0 123 0;
#X connect 16 0 12 0;
#X connect 17 0 13 0;
#X connect 18 0 14 0;
#X connect 19 0 15 0;
#X connect 20 0 124 0;
#X connect 21 0 125 0;
#X connect 22 0 126 0;
#X connect 23 0 127 0;
#X connect 24 0 128 0;
#X connect 25 0 129 0;
#X connect 26 0 130 0;
#X connect 27 0 36 0;
#X connect 28 0 20 0;
#X connect 29 0 21 0;
#X connect 30 0 22 0;
#X connect 31 0 23 0;
#X connect 32 0 24 0;
#X connect 33 0 25 0;
#X connect 34 0 26 0;
#X connect 35 0 27 0;
#X connect 36 0 4 0;
#X connect 37 0 139 0;
#X connect 38 0 140 0;
#X connect 39 0 141 0;
#X connect 40 0 142 0;
#X connect 41 0 143 0;
#X connect 42 0 144 0;
#X connect 43 0 145 0;
#X connect 44 0 146 0;
#X connect 45 0 147 0;
#X connect 46 0 148 0;
#X connect 47 0 149 0;
#X connect 48 0 150 0;
#X connect 49 0 151 0;
#X connect 50 0 152 0;
#X connect 51 0 153 0;
#X connect 52 0 154 0;
#X connect 53 0 37 0;
#X connect 54 0 38 0;
#X connect 55 0 39 0;
#X connect 56 0 40 0;
#X connect 57 0 41 0;
#X connect 58 0 42 0;
#X connect 59 0 43 0;
#X connect 60 0 44 0;
#X connect 61 0 45 0;
#X connect 62 0 46 0;
#X connect 63 0 47 0;
#X connect 64 0 48 0;
#X connect 65 0 49 0;
#X connect 66 0 50 0;
#X connect 67 0 51 0;
#X connect 68 0 52 0;
#X connect 70 0 161 0;
#X connect 70 0 91 0;
#X connect 71 0 135 0;
#X connect 72 0 136 0;
#X connect 73 0 137 0;
#X connect 74 0 138 0;
#X connect 75 0 132 0;
#X connect 76 0 133 0;
#X connect 77 0 134 0;
#X connect 78 0 131 0;
#X connect 79 0 78 0;
#X connect 80 0 75 0;
#X connect 81 0 76 0;
#X connect 82 0 77 0;
#X connect 83 0 71 0;
#X connect 84 0 72 0;
#X connect 85 0 73 0;
#X connect 86 0 74 0;
#X connect 92 0 93 0;
#X connect 93 0 4 0;
#X connect 94 0 95 0;
#X connect 95 0 4 0;
#X connect 96 0 98 0;
#X connect 97 0 103 0;
#X connect 98 0 4 0;
#X connect 99 0 104 0;
#X connect 100 0 105 0;
#X connect 101 0 106 0;
#X connect 102 0 107 0;
#X connect 103 0 4 0;
#X connect 104 0 4 0;
#X connect 105 0 4 0;
#X connect 106 0 4 0;
#X connect 107 0 4 0;
#X connect 108 0 92 0;
#X connect 109 0 94 0;
#X connect 110 0 96 0;
#X connect 111 0 97 0;
#X connect 112 0 99 0;
#X connect 113 0 100 0;
#X connect 114 0 101 0;
#X connect 115 0 102 0;
#X connect 116 0 4 0;
#X connect 117 0 4 0;
#X connect 118 0 4 0;
#X connect 119 0 4 0;
#X connect 120 0 4 0;
#X connect 121 0 4 0;
#X connect 122 0 4 0;
#X connect 123 0 4 0;
#X connect 124 0 4 0;
#X connect 125 0 4 0;
#X connect 126 0 4 0;
#X connect 127 0 4 0;
#X connect 128 0 4 0;
#X connect 129 0 4 0;
#X connect 130 0 4 0;
#X connect 131 0 69 0;
#X connect 132 0 69 0;
#X connect 133 0 69 0;
#X connect 134 0 69 0;
#X connect 135 0 69 0;
#X connect 136 0 69 0;
#X connect 137 0 69 0;
#X connect 138 0 69 0;
#X connect 139 0 69 0;
#X connect 140 0 69 0;
#X connect 141 0 69 0;
#X connect 142 0 69 0;
#X connect 143 0 69 0;
#X connect 144 0 69 0;
#X connect 145 0 69 0;
#X connect 146 0 69 0;
#X connect 147 0 69 0;
#X connect 148 0 69 0;
#X connect 149 0 69 0;
#X connect 150 0 69 0;
#X connect 151 0 69 0;
#X connect 152 0 69 0;
#X connect 153 0 69 0;
#X connect 154 0 69 0;
#X connect 160 0 157 0;
#X connect 160 1 157 1;
#X connect 160 1 164 0;
#X connect 162 0 70 0;
#X connect 163 0 1 0;
#X coords 0 829 1 828 260 330 0;
