#N canvas 66 108 990 636 10;
#X obj 650 534 s gliss-length-exps;
#X obj 445 534 s gliss-length-elems;
#X obj 858 534 s gliss-length-sources;
#X text 409 23 GLISS PRESETS:;
#X obj 404 43 vradio 13 1 0 8 empty empty empty 0 -8 0 10 -262144 -1
-1 1;
#X obj 270 4 r init-loadbang;
#X obj 404 4 r to_gliss_presets;
#X text 418 43 0 E/EX/S/ \; 1 */0/0/ \; 2 0/*/0/ \; 3 0/0/*/ \; 4 */*/*
\; 5 */*/0/ \; 6 0/*/* \; 7 */0/*;
#X obj 402 158 nbx 4 20 -1e+37 1e+37 0 0 empty empty empty 0 -8 0 16
-262144 -1 -1 649 256;
#X text 408 185 LENGTHS:;
#X obj 404 205 vradio 13 1 0 5 empty empty empty 0 -8 0 10 -262144
-1 -1 2;
#X text 426 203 VERY SHORT \; SHORT \; MEDIUM \; LONG \; VERY LONG
;
#X obj 154 338 sel 0 1 2 3 4;
#X msg 154 459 50;
#X msg 171 438 200;
#X msg 189 417 700;
#X msg 206 396 1200;
#X msg 224 375 2000;
#X msg 270 26 0;
#X msg 691 340 zero zero zero;
#X obj 445 422 sel zero gliss;
#X msg 445 450 0;
#X floatatom 492 506 5 0 0 0 - - -, f 5;
#X obj 512 450 r gliss-length;
#X obj 116 141 r gliss-length-receive;
#X obj 154 484 s gliss-length-receive;
#X msg 512 478 set \$1;
#X obj 650 422 sel zero gliss;
#X msg 650 450 0;
#X floatatom 697 506 5 0 0 0 - - -, f 5;
#X obj 717 450 r gliss-length;
#X msg 717 478 set \$1;
#X obj 858 422 sel zero gliss;
#X msg 858 450 0;
#X floatatom 905 506 5 0 0 0 - - -, f 5;
#X obj 925 450 r gliss-length;
#X msg 925 478 set \$1;
#X msg 707 319 gliss zero zero;
#X msg 723 298 zero gliss zero;
#X msg 739 277 zero zero gliss;
#X msg 756 256 gliss gliss gliss;
#X msg 772 235 gliss gliss zero;
#X msg 788 214 zero gliss gliss;
#X msg 804 193 gliss zero gliss;
#X obj 540 178 s gliss-length;
#X obj 691 368 unpack s s s;
#X obj 115 188 r gliss_preset_lengths_receive;
#X msg 270 48 1;
#X obj 691 147 sel 0 1 2 3 4 5 6 7;
#X obj 402 489 t b b b;
#X connect 4 0 48 0;
#X connect 5 0 18 0;
#X connect 5 0 47 0;
#X connect 6 0 4 0;
#X connect 8 0 44 0;
#X connect 8 0 49 0;
#X connect 10 0 12 0;
#X connect 12 0 13 0;
#X connect 12 1 14 0;
#X connect 12 2 15 0;
#X connect 12 3 16 0;
#X connect 12 4 17 0;
#X connect 13 0 25 0;
#X connect 14 0 25 0;
#X connect 15 0 25 0;
#X connect 16 0 25 0;
#X connect 17 0 25 0;
#X connect 18 0 4 0;
#X connect 19 0 45 0;
#X connect 20 0 21 0;
#X connect 20 1 22 0;
#X connect 21 0 1 0;
#X connect 22 0 1 0;
#X connect 23 0 26 0;
#X connect 24 0 8 0;
#X connect 26 0 22 0;
#X connect 27 0 28 0;
#X connect 27 1 29 0;
#X connect 28 0 0 0;
#X connect 29 0 0 0;
#X connect 30 0 31 0;
#X connect 31 0 29 0;
#X connect 32 0 33 0;
#X connect 32 1 34 0;
#X connect 33 0 2 0;
#X connect 34 0 2 0;
#X connect 35 0 36 0;
#X connect 36 0 34 0;
#X connect 37 0 45 0;
#X connect 38 0 45 0;
#X connect 39 0 45 0;
#X connect 40 0 45 0;
#X connect 41 0 45 0;
#X connect 42 0 45 0;
#X connect 43 0 45 0;
#X connect 45 0 20 0;
#X connect 45 1 27 0;
#X connect 45 2 32 0;
#X connect 46 0 10 0;
#X connect 47 0 10 0;
#X connect 48 0 19 0;
#X connect 48 1 37 0;
#X connect 48 2 38 0;
#X connect 48 3 39 0;
#X connect 48 4 40 0;
#X connect 48 5 41 0;
#X connect 48 6 42 0;
#X connect 48 7 43 0;
#X connect 49 0 22 0;
#X connect 49 1 29 0;
#X connect 49 2 34 0;
#X coords 0 -1 1 1 130 260 2 400 23;
