#N canvas 83 81 1283 687 10;
#X text 477 100 GLOBAL PRESETS;
#X obj 461 36 r to_global_presets;
#X obj 578 126 vradio 13 1 0 20 empty empty empty 0 -8 0 10 -262144
-1 -1 3;
#X obj 578 59 r to_secondary_globals;
#X obj 24 166 sel 1;
#X obj 24 582 s to_global_presets;
#X obj 67 187 sel 1;
#X obj 110 208 sel 1;
#X obj 153 229 sel 1;
#X obj 24 144 r mbutton-0;
#X obj 67 166 r mbutton-1;
#X obj 110 187 r mbutton-2;
#X obj 153 208 r mbutton-3;
#X obj 196 251 sel 1;
#X obj 239 272 sel 1;
#X obj 282 293 sel 1;
#X obj 325 314 sel 1;
#X obj 196 229 r mbutton-4;
#X obj 239 251 r mbutton-5;
#X obj 282 272 r mbutton-6;
#X obj 325 293 r mbutton-7;
#X obj 24 276 sel 1;
#X obj 67 297 sel 1;
#X obj 110 318 sel 1;
#X obj 153 339 sel 1;
#X obj 196 361 sel 1;
#X obj 239 382 sel 1;
#X obj 282 403 sel 1;
#X obj 325 424 sel 1;
#X obj 24 254 r rbutton-0;
#X obj 67 276 r rbutton-1;
#X obj 110 297 r rbutton-2;
#X obj 153 318 r rbutton-3;
#X obj 196 339 r rbutton-4;
#X obj 239 361 r rbutton-5;
#X obj 282 382 r rbutton-6;
#X obj 325 403 r rbutton-7;
#X msg 325 445 23;
#X obj 828 195 sel 1;
#X obj 871 216 sel 1;
#X obj 914 237 sel 1;
#X obj 957 258 sel 1;
#X obj 1000 280 sel 1;
#X obj 1043 301 sel 1;
#X obj 1086 322 sel 1;
#X obj 1129 343 sel 1;
#X obj 828 305 sel 1;
#X obj 871 326 sel 1;
#X obj 914 347 sel 1;
#X obj 957 368 sel 1;
#X obj 1000 390 sel 1;
#X obj 1043 411 sel 1;
#X obj 1086 432 sel 1;
#X obj 1129 453 sel 1;
#X obj 828 173 r mbutton-0-mux;
#X obj 871 195 r mbutton-1-mux;
#X obj 914 216 r mbutton-2-mux;
#X obj 957 237 r mbutton-3-mux;
#X obj 1000 258 r mbutton-4-mux;
#X obj 1043 280 r mbutton-5-mux;
#X obj 1086 301 r mbutton-6-mux;
#X obj 1129 322 r mbutton-7-mux;
#X obj 828 283 r rbutton-0-mux;
#X obj 871 305 r rbutton-1-mux;
#X obj 914 326 r rbutton-2-mux;
#X obj 957 347 r rbutton-3-mux;
#X obj 1000 368 r rbutton-4-mux;
#X obj 1043 390 r rbutton-5-mux;
#X obj 1086 411 r rbutton-6-mux;
#X obj 1129 432 r rbutton-7-mux;
#X obj 788 582 s to_secondary_globals;
#X obj 461 126 vradio 13 1 0 22 empty empty empty 0 -8 0 10 -262144
-1 -1 3;
#X obj 960 481 sel 1;
#X obj 1003 502 sel 1;
#X obj 1046 523 sel 1;
#X obj 1089 544 sel 1;
#X obj 831 418 sel 1;
#X obj 874 439 sel 1;
#X obj 917 460 sel 1;
#X obj 788 397 sel 1;
#X obj 788 375 r sbutton-0-mux;
#X obj 831 397 r sbutton-1-mux;
#X obj 874 418 r sbutton-2-mux;
#X obj 917 439 r sbutton-3-mux;
#X obj 960 460 r sbutton-4-mux;
#X obj 1003 481 r sbutton-5-mux;
#X obj 1046 502 r sbutton-6-mux;
#X obj 1089 523 r sbutton-7-mux;
#X msg -263 939 0 0 0 0 0 0 0 0 0 0 0;
#X msg -245 918 1 6 7 5 0 0 0 1 1 1 1;
#X msg -227 897 1 6 7 5 26 33 22 1 1 1 1;
#X obj -98 736 t b b;
#X obj 461 516 Global_Presets;
#X text 479 125 0 ALL OFF \; 1 WHITE \; 2 HALOGEN \; 3 REEDS \; 4 SERPENTINE
\; 5 WIND \; 6 GONG \; 7 RAYS \; 8 FLUTES \; 9 FLOUTS \; 10 CHORD \;
11 CHORD 2 \; 12 WHISTLE \; 13 HUM \; 14 HUM2 \; 15 BACKGROUND \; 16
SIREN \; 17 SIREN 2 \; 18 SALT \; 19 GRIND \; 20 KETTLE \; 21 STATIC
\;;
#X obj 24 396 sel 1;
#X msg 24 417 0;
#X obj 67 417 sel 1;
#X msg 67 438 1;
#X obj 110 438 sel 1;
#X obj 153 459 sel 1;
#X msg 110 459 2;
#X obj 196 481 sel 1;
#X obj 239 502 sel 1;
#X obj 282 523 sel 1;
#X obj 325 544 sel 1;
#X msg 153 480 3;
#X msg 196 502 4;
#X msg 239 523 5;
#X msg 282 544 6;
#X msg 325 565 7;
#X obj 24 374 r sbutton-0;
#X obj 67 396 r sbutton-1;
#X obj 110 417 r sbutton-2;
#X obj 153 438 r sbutton-3;
#X obj 196 459 r sbutton-4;
#X obj 239 481 r sbutton-5;
#X obj 282 502 r sbutton-6;
#X obj 325 523 r sbutton-7;
#X msg 24 187 8;
#X msg 67 208 9;
#X msg 110 229 10;
#X msg 153 250 11;
#X msg 196 272 12;
#X msg 239 293 13;
#X msg 282 314 14;
#X msg 325 335 15;
#X msg 24 297 16;
#X msg 67 318 17;
#X msg 110 339 18;
#X msg 153 360 19;
#X msg 196 382 20;
#X msg 239 403 21;
#X msg 282 424 22;
#X msg 788 418 0;
#X msg 831 439 1;
#X msg 874 461 2;
#X msg 917 481 3;
#X msg 960 502 4;
#X msg 1003 523 5;
#X msg 1046 544 6;
#X msg 1089 565 7;
#X msg 828 216 8;
#X msg 872 237 9;
#X msg 914 258 10;
#X msg 957 279 11;
#X msg 1000 301 12;
#X msg 1043 322 13;
#X msg 1086 343 14;
#X msg 1129 364 15;
#X msg 828 326 16;
#X msg 871 347 17;
#X msg 914 368 18;
#X msg 958 389 19;
#X msg 1000 411 20;
#X msg 1043 432 21;
#X msg 1086 453 22;
#X msg 1129 474 23;
#X obj 578 516 Global_Presets_2;
#X text 39 117 GLOBAL PRESETS;
#X text 845 132 MUX GLOBAL PRESETS;
#X text 596 126 0 ALL OFF \; 1 WIND ELM HOVER \; 2 WIND EXP HOVER \;
3 TONAL FAST \; 4 NOISE FAST \; 5 VOLUME FAST \; 6 VOLUME TOGGLE \;
7 NEW FLUTE 1 \; 8 HOVER 1 \; 9 HOVER 2 \; 10 TO WIND \; 11 TO GRIND
\; 12 TO SALT \; 13 FAST TO CHORD \; 14 SWEEP 2 GRIND \; 15 TO STATIC
\; 16 TO HUM \; 17 RANDOM \; 18 SINGLET 2 \; 19 SINGLEN 2;
#X connect 1 0 71 0;
#X connect 2 0 157 0;
#X connect 3 0 2 0;
#X connect 4 0 118 0;
#X connect 6 0 119 0;
#X connect 7 0 120 0;
#X connect 8 0 121 0;
#X connect 9 0 4 0;
#X connect 10 0 6 0;
#X connect 11 0 7 0;
#X connect 12 0 8 0;
#X connect 13 0 122 0;
#X connect 14 0 123 0;
#X connect 15 0 124 0;
#X connect 16 0 125 0;
#X connect 17 0 13 0;
#X connect 18 0 14 0;
#X connect 19 0 15 0;
#X connect 20 0 16 0;
#X connect 21 0 126 0;
#X connect 22 0 127 0;
#X connect 23 0 128 0;
#X connect 24 0 129 0;
#X connect 25 0 130 0;
#X connect 26 0 131 0;
#X connect 27 0 132 0;
#X connect 28 0 37 0;
#X connect 29 0 21 0;
#X connect 30 0 22 0;
#X connect 31 0 23 0;
#X connect 32 0 24 0;
#X connect 33 0 25 0;
#X connect 34 0 26 0;
#X connect 35 0 27 0;
#X connect 36 0 28 0;
#X connect 37 0 5 0;
#X connect 38 0 141 0;
#X connect 39 0 142 0;
#X connect 40 0 143 0;
#X connect 41 0 144 0;
#X connect 42 0 145 0;
#X connect 43 0 146 0;
#X connect 44 0 147 0;
#X connect 45 0 148 0;
#X connect 46 0 149 0;
#X connect 47 0 150 0;
#X connect 48 0 151 0;
#X connect 49 0 152 0;
#X connect 50 0 153 0;
#X connect 51 0 154 0;
#X connect 52 0 155 0;
#X connect 53 0 156 0;
#X connect 54 0 38 0;
#X connect 55 0 39 0;
#X connect 56 0 40 0;
#X connect 57 0 41 0;
#X connect 58 0 42 0;
#X connect 59 0 43 0;
#X connect 60 0 44 0;
#X connect 61 0 45 0;
#X connect 62 0 46 0;
#X connect 63 0 47 0;
#X connect 64 0 48 0;
#X connect 65 0 49 0;
#X connect 66 0 50 0;
#X connect 67 0 51 0;
#X connect 68 0 52 0;
#X connect 69 0 53 0;
#X connect 71 0 92 0;
#X connect 72 0 137 0;
#X connect 73 0 138 0;
#X connect 74 0 139 0;
#X connect 75 0 140 0;
#X connect 76 0 134 0;
#X connect 77 0 135 0;
#X connect 78 0 136 0;
#X connect 79 0 133 0;
#X connect 80 0 79 0;
#X connect 81 0 76 0;
#X connect 82 0 77 0;
#X connect 83 0 78 0;
#X connect 84 0 72 0;
#X connect 85 0 73 0;
#X connect 86 0 74 0;
#X connect 87 0 75 0;
#X connect 94 0 95 0;
#X connect 95 0 5 0;
#X connect 96 0 97 0;
#X connect 97 0 5 0;
#X connect 98 0 100 0;
#X connect 99 0 105 0;
#X connect 100 0 5 0;
#X connect 101 0 106 0;
#X connect 102 0 107 0;
#X connect 103 0 108 0;
#X connect 104 0 109 0;
#X connect 105 0 5 0;
#X connect 106 0 5 0;
#X connect 107 0 5 0;
#X connect 108 0 5 0;
#X connect 109 0 5 0;
#X connect 110 0 94 0;
#X connect 111 0 96 0;
#X connect 112 0 98 0;
#X connect 113 0 99 0;
#X connect 114 0 101 0;
#X connect 115 0 102 0;
#X connect 116 0 103 0;
#X connect 117 0 104 0;
#X connect 118 0 5 0;
#X connect 119 0 5 0;
#X connect 120 0 5 0;
#X connect 121 0 5 0;
#X connect 122 0 5 0;
#X connect 123 0 5 0;
#X connect 124 0 5 0;
#X connect 125 0 5 0;
#X connect 126 0 5 0;
#X connect 127 0 5 0;
#X connect 128 0 5 0;
#X connect 129 0 5 0;
#X connect 130 0 5 0;
#X connect 131 0 5 0;
#X connect 132 0 5 0;
#X connect 133 0 70 0;
#X connect 134 0 70 0;
#X connect 135 0 70 0;
#X connect 136 0 70 0;
#X connect 137 0 70 0;
#X connect 138 0 70 0;
#X connect 139 0 70 0;
#X connect 140 0 70 0;
#X connect 141 0 70 0;
#X connect 142 0 70 0;
#X connect 143 0 70 0;
#X connect 144 0 70 0;
#X connect 145 0 70 0;
#X connect 146 0 70 0;
#X connect 147 0 70 0;
#X connect 148 0 70 0;
#X connect 149 0 70 0;
#X connect 150 0 70 0;
#X connect 151 0 70 0;
#X connect 152 0 70 0;
#X connect 153 0 70 0;
#X connect 154 0 70 0;
#X connect 155 0 70 0;
#X connect 156 0 70 0;
#X coords 0 -1 1 1 260 330 2 460 100;
