#N canvas -10 19 1920 984 10;
#X obj 196 559 sel 1;
#X obj 744 705 s to_global_presets;
#X obj 279 537 sel 1;
#X obj 360 513 sel 1;
#X obj 438 491 sel 1;
#X obj 196 537 r mbutton-0;
#X obj 279 516 r mbutton-1;
#X obj 360 492 r mbutton-2;
#X obj 438 470 r mbutton-3;
#X obj 514 470 sel 1;
#X obj 592 448 sel 1;
#X obj 670 418 sel 1;
#X obj 744 394 sel 1;
#X obj 514 448 r mbutton-4;
#X obj 592 427 r mbutton-5;
#X obj 670 397 r mbutton-6;
#X obj 744 373 r mbutton-7;
#X obj 153 623 sel 1;
#X obj 234 601 sel 1;
#X obj 313 579 sel 1;
#X obj 392 555 sel 1;
#X obj 467 534 sel 1;
#X obj 547 512 sel 1;
#X obj 623 490 sel 1;
#X obj 699 462 sel 1;
#X obj 153 601 r rbutton-0;
#X obj 234 580 r rbutton-1;
#X obj 313 558 r rbutton-2;
#X obj 392 534 r rbutton-3;
#X obj 467 512 r rbutton-4;
#X obj 547 491 r rbutton-5;
#X obj 623 469 r rbutton-6;
#X obj 699 441 r rbutton-7;
#X msg 699 483 23;
#X obj 909 417 sel 1;
#X obj 952 438 sel 1;
#X obj 995 459 sel 1;
#X obj 1038 480 sel 1;
#X obj 1081 502 sel 1;
#X obj 1124 523 sel 1;
#X obj 1167 544 sel 1;
#X obj 1210 565 sel 1;
#X obj 1137 344 sel 1;
#X obj 1180 365 sel 1;
#X obj 1223 386 sel 1;
#X obj 1264 409 sel 1;
#X obj 1307 431 sel 1;
#X obj 1346 452 sel 1;
#X obj 1389 473 sel 1;
#X obj 1432 494 sel 1;
#X obj 909 395 r mbutton-0-mux;
#X obj 952 417 r mbutton-1-mux;
#X obj 995 438 r mbutton-2-mux;
#X obj 1038 459 r mbutton-3-mux;
#X obj 1081 480 r mbutton-4-mux;
#X obj 1124 502 r mbutton-5-mux;
#X obj 1167 523 r mbutton-6-mux;
#X obj 1210 544 r mbutton-7-mux;
#X obj 1137 322 r rbutton-0-mux;
#X obj 1180 344 r rbutton-1-mux;
#X obj 1223 365 r rbutton-2-mux;
#X obj 1264 388 r rbutton-3-mux;
#X obj 1307 409 r rbutton-4-mux;
#X obj 1346 431 r rbutton-5-mux;
#X obj 1389 452 r rbutton-6-mux;
#X obj 1432 473 r rbutton-7-mux;
#X obj 837 677 s to_secondary_globals;
#X obj 1010 575 sel 1;
#X obj 1053 596 sel 1;
#X obj 1096 617 sel 1;
#X obj 1139 638 sel 1;
#X obj 881 512 sel 1;
#X obj 924 533 sel 1;
#X obj 967 554 sel 1;
#X obj 838 491 sel 1;
#X obj 838 469 r sbutton-0-mux;
#X obj 881 491 r sbutton-1-mux;
#X obj 924 512 r sbutton-2-mux;
#X obj 967 533 r sbutton-3-mux;
#X obj 1010 554 r sbutton-4-mux;
#X obj 1053 575 r sbutton-5-mux;
#X obj 1096 596 r sbutton-6-mux;
#X obj 1139 617 r sbutton-7-mux;
#X obj 200 666 sel 1;
#X msg 200 687 0;
#X obj 276 641 sel 1;
#X msg 276 662 1;
#X obj 351 617 sel 1;
#X obj 427 596 sel 1;
#X msg 351 638 2;
#X obj 505 575 sel 1;
#X obj 581 553 sel 1;
#X obj 657 532 sel 1;
#X obj 730 505 sel 1;
#X msg 427 617 3;
#X msg 505 596 4;
#X msg 581 574 5;
#X msg 657 553 6;
#X msg 730 526 7;
#X obj 200 644 r sbutton-0;
#X obj 276 620 r sbutton-1;
#X obj 351 596 r sbutton-2;
#X obj 427 575 r sbutton-3;
#X obj 505 553 r sbutton-4;
#X obj 581 532 r sbutton-5;
#X obj 657 511 r sbutton-6;
#X obj 730 484 r sbutton-7;
#X msg 196 580 8;
#X msg 279 558 9;
#X msg 360 534 10;
#X msg 438 512 11;
#X msg 514 491 12;
#X msg 592 469 13;
#X msg 670 439 14;
#X msg 744 415 15;
#X msg 153 644 16;
#X msg 234 622 17;
#X msg 313 600 18;
#X msg 392 576 19;
#X msg 467 555 20;
#X msg 547 533 21;
#X msg 623 511 22;
#X msg 838 512 0;
#X msg 881 533 1;
#X msg 924 555 2;
#X msg 967 575 3;
#X msg 1010 596 4;
#X msg 1053 617 5;
#X msg 1096 638 6;
#X msg 1139 659 7;
#X msg 909 438 8;
#X msg 953 459 9;
#X msg 995 480 10;
#X msg 1038 501 11;
#X msg 1081 523 12;
#X msg 1124 544 13;
#X msg 1167 565 14;
#X msg 1210 586 15;
#X text 561 709 GLOBAL PRESETS;
#X text 1002 680 MUX GLOBAL PRESETS;
#X obj 987 362 s rhythmer-source-gate-receive;
#X obj 1030 383 s rhythmer-volume-gate-receive;
#X obj 1079 404 s rhythmer-gliss-gate-receive;
#X obj 1102 427 s rhythmer-duration-gate-receive;
#X obj 1245 491 s increment_rhythmer_exponent;
#X obj 1139 449 s rhythmer-increment-single-value;
#X obj 1312 512 s rhythmrandomize-receive;
#X obj 1208 470 s increment_rhythmer_element;
#X obj 93 53 sel 1;
#X obj 98 193 sel 1;
#X obj 48 31 sel 1;
#X obj 98 171 r rbutton-0-mux2;
#X obj 93 31 r mbutton-0-mux2;
#X obj 48 9 r sbutton-0-mux2;
#X obj 48 123 f;
#X obj 48 101 t b f;
#X obj 48 145 +;
#X msg 48 79 -1;
#X msg 48 189 set \$1;
#X floatatom 48 211 5 0 0 0 - - - 0;
#X msg 93 83 1;
#X obj 93 105 r melodier_scale_out;
#X obj 48 239 s melodout-1;
#X obj 48 167 mod 7;
#X obj 273 53 sel 1;
#X obj 278 193 sel 1;
#X obj 228 31 sel 1;
#X obj 228 123 f;
#X obj 228 101 t b f;
#X obj 228 145 +;
#X msg 228 79 -1;
#X msg 228 189 set \$1;
#X floatatom 228 211 5 0 0 0 - - - 0;
#X msg 273 83 1;
#X obj 228 167 mod 7;
#X obj 228 9 r sbutton-1-mux2;
#X obj 273 31 r mbutton-1-mux2;
#X obj 278 171 r rbutton-1-mux2;
#X obj 274 105 r melodier_velocity_out;
#X obj 228 239 s melodout-2;
#X obj 473 53 sel 1;
#X obj 478 193 sel 1;
#X obj 428 31 sel 1;
#X obj 428 123 f;
#X obj 428 101 t b f;
#X obj 428 145 +;
#X msg 428 79 -1;
#X msg 428 189 set \$1;
#X floatatom 428 211 5 0 0 0 - - - 0;
#X msg 473 83 1;
#X obj 428 167 mod 7;
#X obj 428 239 s melodout-3;
#X obj 478 171 r rbutton-2-mux2;
#X obj 473 31 r mbutton-2-mux2;
#X obj 428 9 r sbutton-2-mux2;
#X obj 472 105 r melodier-octave-out;
#X obj 663 53 sel 1;
#X obj 668 193 sel 1;
#X obj 618 31 sel 1;
#X obj 618 123 f;
#X obj 618 101 t b f;
#X obj 618 145 +;
#X msg 618 79 -1;
#X msg 618 189 set \$1;
#X floatatom 618 211 5 0 0 0 - - - 0;
#X msg 663 83 1;
#X obj 618 167 mod 7;
#X obj 618 239 s melodout-4;
#X obj 668 171 r rbutton-3-mux2;
#X obj 618 9 r sbutton-3-mux2;
#X obj 663 31 r mbutton-3-mux2;
#X obj 662 105 r melodier_sources_out;
#X obj 863 53 sel 1;
#X obj 868 193 sel 1;
#X obj 818 31 sel 1;
#X obj 818 123 f;
#X obj 818 101 t b f;
#X obj 818 145 +;
#X msg 818 79 -1;
#X msg 818 189 set \$1;
#X floatatom 818 211 5 0 0 0 - - - 0;
#X msg 863 83 1;
#X obj 818 167 mod 7;
#X obj 818 9 r sbutton-4-mux2;
#X obj 863 31 r mbutton-4-mux2;
#X obj 868 171 r rbutton-4-mux2;
#X obj 862 105 r melodier_duration_out;
#X obj 818 239 s melodout-5;
#X obj 1063 53 sel 1;
#X obj 1068 193 sel 1;
#X obj 1018 31 sel 1;
#X obj 1018 123 f;
#X obj 1018 101 t b f;
#X obj 1018 145 +;
#X msg 1018 79 -1;
#X msg 1018 189 set \$1;
#X floatatom 1018 211 5 0 0 0 - - - 0;
#X msg 1063 83 1;
#X obj 1018 167 mod 7;
#X obj 1062 105 r melodier_gliss_out;
#X obj 1018 9 r sbutton-5-mux2;
#X obj 1063 31 r mbutton-5-mux2;
#X obj 1068 171 r rbutton-5-mux2;
#X obj 1018 239 s melodout-6;
#X obj 1243 53 sel 1;
#X obj 1248 193 sel 1;
#X obj 1198 31 sel 1;
#X obj 1198 123 f;
#X obj 1198 101 t b f;
#X obj 1198 145 +;
#X msg 1198 79 -1;
#X msg 1198 189 set \$1;
#X floatatom 1198 211 5 0 0 0 - - - 0;
#X msg 1243 83 1;
#X obj 1242 105 r melodier_melsubtop_out;
#X obj 1198 9 r sbutton-6-mux2;
#X obj 1243 31 r mbutton-6-mux2;
#X obj 1248 171 r rbutton-6-mux2;
#X obj 1443 53 sel 1;
#X obj 1448 193 sel 1;
#X obj 1398 31 sel 1;
#X obj 1398 123 f;
#X obj 1398 101 t b f;
#X obj 1398 145 +;
#X msg 1398 79 -1;
#X msg 1398 189 set \$1;
#X floatatom 1398 211 5 0 0 0 - - - 0;
#X msg 1443 83 1;
#X obj 1398 167 mod 7;
#X obj 1442 105 r melodier_notelen_out;
#X obj 1398 9 r sbutton-7-mux2;
#X obj 1443 31 r mbutton-7-mux2;
#X obj 1448 171 r rbutton-7-mux2;
#X obj 1198 239 s melodout-8;
#X obj 1398 239 s melodout-9;
#X obj 1198 167 mod 5;
#X connect 0 0 107 0;
#X connect 2 0 108 0;
#X connect 3 0 109 0;
#X connect 4 0 110 0;
#X connect 5 0 0 0;
#X connect 6 0 2 0;
#X connect 7 0 3 0;
#X connect 8 0 4 0;
#X connect 9 0 111 0;
#X connect 10 0 112 0;
#X connect 11 0 113 0;
#X connect 12 0 114 0;
#X connect 13 0 9 0;
#X connect 14 0 10 0;
#X connect 15 0 11 0;
#X connect 16 0 12 0;
#X connect 17 0 115 0;
#X connect 18 0 116 0;
#X connect 19 0 117 0;
#X connect 20 0 118 0;
#X connect 21 0 119 0;
#X connect 22 0 120 0;
#X connect 23 0 121 0;
#X connect 24 0 33 0;
#X connect 25 0 17 0;
#X connect 26 0 18 0;
#X connect 27 0 19 0;
#X connect 28 0 20 0;
#X connect 29 0 21 0;
#X connect 30 0 22 0;
#X connect 31 0 23 0;
#X connect 32 0 24 0;
#X connect 33 0 1 0;
#X connect 34 0 130 0;
#X connect 35 0 131 0;
#X connect 36 0 132 0;
#X connect 37 0 133 0;
#X connect 38 0 134 0;
#X connect 39 0 135 0;
#X connect 40 0 136 0;
#X connect 41 0 137 0;
#X connect 42 0 140 0;
#X connect 43 0 141 0;
#X connect 44 0 142 0;
#X connect 45 0 143 0;
#X connect 46 0 145 0;
#X connect 47 0 147 0;
#X connect 48 0 144 0;
#X connect 49 0 146 0;
#X connect 50 0 34 0;
#X connect 51 0 35 0;
#X connect 52 0 36 0;
#X connect 53 0 37 0;
#X connect 54 0 38 0;
#X connect 55 0 39 0;
#X connect 56 0 40 0;
#X connect 57 0 41 0;
#X connect 58 0 42 0;
#X connect 59 0 43 0;
#X connect 60 0 44 0;
#X connect 61 0 45 0;
#X connect 62 0 46 0;
#X connect 63 0 47 0;
#X connect 64 0 48 0;
#X connect 65 0 49 0;
#X connect 67 0 126 0;
#X connect 68 0 127 0;
#X connect 69 0 128 0;
#X connect 70 0 129 0;
#X connect 71 0 123 0;
#X connect 72 0 124 0;
#X connect 73 0 125 0;
#X connect 74 0 122 0;
#X connect 75 0 74 0;
#X connect 76 0 71 0;
#X connect 77 0 72 0;
#X connect 78 0 73 0;
#X connect 79 0 67 0;
#X connect 80 0 68 0;
#X connect 81 0 69 0;
#X connect 82 0 70 0;
#X connect 83 0 84 0;
#X connect 84 0 1 0;
#X connect 85 0 86 0;
#X connect 86 0 1 0;
#X connect 87 0 89 0;
#X connect 88 0 94 0;
#X connect 89 0 1 0;
#X connect 90 0 95 0;
#X connect 91 0 96 0;
#X connect 92 0 97 0;
#X connect 93 0 98 0;
#X connect 94 0 1 0;
#X connect 95 0 1 0;
#X connect 96 0 1 0;
#X connect 97 0 1 0;
#X connect 98 0 1 0;
#X connect 99 0 83 0;
#X connect 100 0 85 0;
#X connect 101 0 87 0;
#X connect 102 0 88 0;
#X connect 103 0 90 0;
#X connect 104 0 91 0;
#X connect 105 0 92 0;
#X connect 106 0 93 0;
#X connect 107 0 1 0;
#X connect 108 0 1 0;
#X connect 109 0 1 0;
#X connect 110 0 1 0;
#X connect 111 0 1 0;
#X connect 112 0 1 0;
#X connect 113 0 1 0;
#X connect 114 0 1 0;
#X connect 115 0 1 0;
#X connect 116 0 1 0;
#X connect 117 0 1 0;
#X connect 118 0 1 0;
#X connect 119 0 1 0;
#X connect 120 0 1 0;
#X connect 121 0 1 0;
#X connect 122 0 66 0;
#X connect 123 0 66 0;
#X connect 124 0 66 0;
#X connect 125 0 66 0;
#X connect 126 0 66 0;
#X connect 127 0 66 0;
#X connect 128 0 66 0;
#X connect 129 0 66 0;
#X connect 130 0 66 0;
#X connect 131 0 66 0;
#X connect 132 0 66 0;
#X connect 133 0 66 0;
#X connect 134 0 66 0;
#X connect 135 0 66 0;
#X connect 136 0 66 0;
#X connect 137 0 66 0;
#X connect 148 0 160 0;
#X connect 149 0 159 0;
#X connect 150 0 157 0;
#X connect 151 0 149 0;
#X connect 152 0 148 0;
#X connect 153 0 150 0;
#X connect 154 0 156 0;
#X connect 155 0 154 0;
#X connect 155 1 156 1;
#X connect 156 0 154 1;
#X connect 156 0 163 0;
#X connect 157 0 155 0;
#X connect 158 0 159 0;
#X connect 158 0 162 0;
#X connect 159 0 162 0;
#X connect 160 0 155 0;
#X connect 161 0 154 1;
#X connect 163 0 158 0;
#X connect 164 0 173 0;
#X connect 165 0 172 0;
#X connect 166 0 170 0;
#X connect 167 0 169 0;
#X connect 168 0 167 0;
#X connect 168 1 169 1;
#X connect 169 0 167 1;
#X connect 169 0 174 0;
#X connect 170 0 168 0;
#X connect 171 0 172 0;
#X connect 171 0 179 0;
#X connect 172 0 179 0;
#X connect 173 0 168 0;
#X connect 174 0 171 0;
#X connect 175 0 166 0;
#X connect 176 0 164 0;
#X connect 177 0 165 0;
#X connect 178 0 167 1;
#X connect 180 0 189 0;
#X connect 181 0 188 0;
#X connect 182 0 186 0;
#X connect 183 0 185 0;
#X connect 184 0 183 0;
#X connect 184 1 185 1;
#X connect 185 0 183 1;
#X connect 185 0 190 0;
#X connect 186 0 184 0;
#X connect 187 0 188 0;
#X connect 187 0 191 0;
#X connect 188 0 191 0;
#X connect 189 0 184 0;
#X connect 190 0 187 0;
#X connect 192 0 181 0;
#X connect 193 0 180 0;
#X connect 194 0 182 0;
#X connect 195 0 183 1;
#X connect 196 0 205 0;
#X connect 197 0 204 0;
#X connect 198 0 202 0;
#X connect 199 0 201 0;
#X connect 200 0 199 0;
#X connect 200 1 201 1;
#X connect 201 0 199 1;
#X connect 201 0 206 0;
#X connect 202 0 200 0;
#X connect 203 0 204 0;
#X connect 203 0 207 0;
#X connect 204 0 207 0;
#X connect 205 0 200 0;
#X connect 206 0 203 0;
#X connect 208 0 197 0;
#X connect 209 0 198 0;
#X connect 210 0 196 0;
#X connect 211 0 199 1;
#X connect 212 0 221 0;
#X connect 213 0 220 0;
#X connect 214 0 218 0;
#X connect 215 0 217 0;
#X connect 216 0 215 0;
#X connect 216 1 217 1;
#X connect 217 0 215 1;
#X connect 217 0 222 0;
#X connect 218 0 216 0;
#X connect 219 0 220 0;
#X connect 219 0 227 0;
#X connect 220 0 227 0;
#X connect 221 0 216 0;
#X connect 222 0 219 0;
#X connect 223 0 214 0;
#X connect 224 0 212 0;
#X connect 225 0 213 0;
#X connect 226 0 215 1;
#X connect 228 0 237 0;
#X connect 229 0 236 0;
#X connect 230 0 234 0;
#X connect 231 0 233 0;
#X connect 232 0 231 0;
#X connect 232 1 233 1;
#X connect 233 0 231 1;
#X connect 233 0 238 0;
#X connect 234 0 232 0;
#X connect 235 0 236 0;
#X connect 235 0 243 0;
#X connect 236 0 243 0;
#X connect 237 0 232 0;
#X connect 238 0 235 0;
#X connect 239 0 231 1;
#X connect 240 0 230 0;
#X connect 241 0 228 0;
#X connect 242 0 229 0;
#X connect 244 0 253 0;
#X connect 245 0 252 0;
#X connect 246 0 250 0;
#X connect 247 0 249 0;
#X connect 248 0 247 0;
#X connect 248 1 249 1;
#X connect 249 0 247 1;
#X connect 249 0 275 0;
#X connect 250 0 248 0;
#X connect 251 0 252 0;
#X connect 251 0 273 0;
#X connect 252 0 273 0;
#X connect 253 0 248 0;
#X connect 254 0 247 1;
#X connect 255 0 246 0;
#X connect 256 0 244 0;
#X connect 257 0 245 0;
#X connect 258 0 267 0;
#X connect 259 0 266 0;
#X connect 260 0 264 0;
#X connect 261 0 263 0;
#X connect 262 0 261 0;
#X connect 262 1 263 1;
#X connect 263 0 261 1;
#X connect 263 0 268 0;
#X connect 264 0 262 0;
#X connect 265 0 266 0;
#X connect 265 0 274 0;
#X connect 266 0 274 0;
#X connect 267 0 262 0;
#X connect 268 0 265 0;
#X connect 269 0 261 1;
#X connect 270 0 260 0;
#X connect 271 0 258 0;
#X connect 272 0 259 0;
#X connect 275 0 251 0;
