#N canvas 320 722 1477 565 10;
#X obj 1316 -241 vradio 13 1 0 22 empty empty empty 0 -8 0 10 -262144
-1 -1 11;
#X text 1335 -247 -- 0 ALL OFF \; 1 WHITE \; 2 HALOGEN \; 3 REEDS \;
4 SERPENTINE \; 5 WIND \; 6 GONG \; 7 RAYS \; --8 FLUTES \; 9 FLOUTS
\; 10 CHORD \; 11 CHORD 2 \; 12 WHISTLE \; 13 HUM \; 14 HUM2 \; 15
BACKGROUND \; --16 SIREN \; 17 SIREN 2 \; 18 SALT \; 19 GRIND \; 20
KETTLE \; 21 STATIC \;;
#X obj 1316 -273 inlet;
#X obj 1316 64 New_Transitioner;
#X text 1334 184 2 ALL SIG \; 3 ALL SELF;
#X text 1333 237 6 ONE SELF \; 7 PAIR;
#X text 1333 263 8 PAIR & NOISE \; 9 PAIR & SIG \;;
#X text 1326 289 10 PAIR & SELF \; 11 DAISY CHAIN;
#X text 1333 211 4 ONE NOISE \; 5 ONE SIG;
#X text 1334 157 0 ALL OFF \; 1 ALL NOISE;
#X text 1326 315 12 DAISY CHAIN REVERSE;
#X text 1326 383 17 ORGY;
#X text 1326 329 13 DC & 0.1 NOISE \; 14 DC & 0.5 SIG;
#X text 1326 356 15 DC & SELF \; 16 DC & 0.5 SELF;
#X text 1324 122 FOR REFERENCE: \; SOURCE PRESETS:;
#X msg 325 105 16 199 99 604 20 99 40 1 1 1 1 0 500;
#X msg 299 134 10 200 400 601 100 200 100 1 0.5 1 1 0 500;
#X text 293 454 0 ALL OFF;
#X text 378 424 1 WHITE;
#X text 443 395 2 WIND;
#X msg 914 426 \; to_source_presets \$1;
#X msg 947 384 \; ugen1-external-vol \$1;
#X obj 914 355 unpack;
#X obj 731 -191 s to_gliss_presets;
#X msg 731 -209 0;
#X obj 731 -285 f;
#X obj 731 -266 + 1;
#X msg 753 -210 4;
#X msg 430 -11 399 400 401 400 400 400;
#X msg 482 -69 200 400 600 200 400 600;
#X msg 456 -40 400 80 401 400 80 401;
#X obj 762 -300 r stop_glisses;
#X msg 767 -273 0;
#X msg 1089 6 \; elem-exp-multiplier-0 \$1 \; elem-exp-multiplier-1
\$2 \; elem-exp-multiplier-2 \$3 \; elem-exp-multiplier-3 \$4 \; elem-exp-multiplier-4
\$5 \; elem-exp-multiplier-5 \$6 \; pulse_base bang;
#X msg 273 163 17 1;
#X obj 731 -247 % 2;
#X obj 731 -228 sel 0 1;
#X text 578 308 5 WHISTLE;
#X text 650 221 8 STATIC;
#X text 650 192 9 SIREN;
#X text 561 134 11 HUM;
#X text 553 106 12 HUM 2;
#X text 774 77 13 GRIND;
#X text 799 48 14 GRIND 2;
#X text 843 19 15 C#MIN;
#X text 578 -11 16 TON;
#X text 591 -39 17 3RD;
#X text 629 -68 18 OCT;
#X text 614 163 10 ORGY;
#X msg 116 337 16 1;
#X msg 1130 -138 \; to_trans_presets_exp \$1 \; to_trans_time_exp \$2
\; to_trans_power \$3 \; to_trans_mult \$4 \; to_trans_add \$5 \; trigger_transitions
bang;
#X msg 586 -185 0 0 3 3 40;
#X msg 560 -156 2 5 2 6 30;
#X obj 534 -127 s rhythmer-shuffle;
#X msg 508 -98 11 1;
#X obj 731 -332 r gliss-second-switch;
#X text 544 337 4 DC & SELF;
#X text 615 280 6 F#MIN;
#X obj 12 -303 sel 0 1 2 3 4 5 6 7 8 9 10 11 12 13 14 15 16 17 18 19
20 21 22 23, f 105;
#X msg 15 453 0 0 0 0 0 0 0 0 0 0 0 0 0 0 0 0 0 0 0 0 0 0 0;
#X msg 40 424 1 9 7 5 0 0 0 1 1 1 1 400 80 401 400 80 401 9 7 5 0 0
0;
#X msg 64 395 2 800 400 800 3 3 3 1 1 1 1 400 80 401 400 80 401 5 6
7 3 3 3, f 62;
#X text 529 366 3 DMAJ;
#X msg 90 366 2 400 600 476 244 359 279 1 1 1 1 400 600 476 244 359
279 0 240 0 0 0 0, f 72;
#X msg 142 308 3 54 55 53 5 5 5 1 1 1 1 54 55 53 5 5 5 0 0 0 0 0 0
;
#X msg 168 279 3 238 320 400 100 100 100 1 1 1 1 0 594 599 601 500
500 600 0 240 0 0 0 0, f 73;
#X msg 194 250 10 400 600 800 170 160 240 1 1 1 1 400 600 800 170 160
240 0 0 0 0 0 0, f 71;
#X text 631 252 7 ??????;
#X obj 914 181 t a;
#X msg 247 192 11 400 80 400 40 70 40 1 1 1 1 400 80 400 40 70 40 0
0 0 0 0 0, f 62;
#X msg 221 221 11 400 266 401 100 100 100 1 1 1 1 400 266 401 100 100
100 0 0 0 0 0 0, f 70;
#X obj 1099 166 r preset-router;
#X obj 12 -332 inlet;
#X msg 403 18 14 515 424 640 200 250 200 1 1 1 1 1 515 424 640 200
250 200 0 0 0 0 0 0, f 72;
#X msg 1099 195 \; elem-exp-multiplier-0 \$12 \; elem-exp-multiplier-1
\$13 \; elem-exp-multiplier-2 \$13 \; elem-exp-multiplier-3 \$14 \;
elem-exp-multiplier-4 \$15 \; elem-exp-multiplier-5 \$16 \; elem-exp-adder-0
\$17 \; elem-exp-adder-0 \$18 \; elem-exp-adder-0 \$19 \; elem-exp-adder-0
\$20 \; elem-exp-adder-0 \$21 \; elem-exp-adder-0 \$22 \; to_source_presets
\$1 \; fader-0-bypass \$2 \; fader-1-bypass \$3 \; fader-2-bypass \$4
\; fader-3-bypass \$5 \; fader-4-bypass \$6 \; fader-5-bypass \$7 \;
ugen0-external-vol \$8 \; ugen1-external-vol \$9 \; ugen2-external-vol
\$10 \; stereo-mono \$11 \; stop_transitions bang \; stop_glisses bang
\;;
#X msg 15 482 \; preset-router \$1 \$2 \$3 \$4 \$5 \$6 \$7 \$8 \$9
\$10 \$11 \$12 \$13 \$14 \$15 \$16 \$17 \$18 \$19 \$20 \$21 \$22,
f 93;
#X obj 1130 -167 t a;
#X obj 914 -80 t a;
#X msg 377 47 8 594 20 601 50 10 50 1 0.6 1 1 0 594 20 601 600 200
500 0 0 0 0 0 0, f 69;
#X msg 351 76 11 594 599 601 60 60 60 1 0 1 1 594 599 601 500 500 600
0 0 0 0 0 0, f 69;
#X obj 1089 -51 t a;
#X obj 1089 -22 t a;
#X text 632 -95 19 D.C.;
#X text 656 -128 20 RHSHF;
#X text 656 -156 21 TRAN1;
#X text 656 -185 22 TRAN2;
#X text 612 -248 23 GLISS ON/OFF;
#X connect 0 0 3 0;
#X connect 2 0 0 0;
#X connect 15 0 75 0;
#X connect 16 0 75 0;
#X connect 22 0 20 0;
#X connect 22 1 21 0;
#X connect 24 0 23 0;
#X connect 25 0 26 0;
#X connect 26 0 25 1;
#X connect 26 0 35 0;
#X connect 27 0 23 0;
#X connect 28 0 33 0;
#X connect 29 0 80 0;
#X connect 30 0 81 0;
#X connect 31 0 32 0;
#X connect 32 0 25 1;
#X connect 34 0 68 0;
#X connect 35 0 36 0;
#X connect 36 0 24 0;
#X connect 36 1 27 0;
#X connect 49 0 22 0;
#X connect 51 0 76 0;
#X connect 52 0 50 0;
#X connect 54 0 77 0;
#X connect 55 0 25 0;
#X connect 58 0 59 0;
#X connect 58 1 60 0;
#X connect 58 2 61 0;
#X connect 58 3 63 0;
#X connect 58 4 49 0;
#X connect 58 5 64 0;
#X connect 58 6 65 0;
#X connect 58 7 66 0;
#X connect 58 8 70 0;
#X connect 58 9 69 0;
#X connect 58 10 34 0;
#X connect 58 11 16 0;
#X connect 58 12 15 0;
#X connect 58 13 79 0;
#X connect 58 14 78 0;
#X connect 58 15 73 0;
#X connect 58 16 28 0;
#X connect 58 17 30 0;
#X connect 58 18 29 0;
#X connect 58 19 54 0;
#X connect 58 20 53 0;
#X connect 58 21 52 0;
#X connect 58 22 51 0;
#X connect 58 23 25 0;
#X connect 59 0 75 0;
#X connect 60 0 75 0;
#X connect 61 0 75 0;
#X connect 63 0 75 0;
#X connect 64 0 75 0;
#X connect 65 0 75 0;
#X connect 66 0 75 0;
#X connect 68 0 22 0;
#X connect 69 0 75 0;
#X connect 70 0 75 0;
#X connect 71 0 74 0;
#X connect 72 0 58 0;
#X connect 73 0 75 0;
#X connect 76 0 50 0;
#X connect 77 0 22 0;
#X connect 78 0 75 0;
#X connect 79 0 75 0;
#X connect 80 0 33 0;
#X connect 81 0 33 0;
#X coords 0 565 1 564 260 330 0;
