#N canvas 172 150 866 597 10;
#X obj 587 180 inlet;
#X obj 359 28 r walker-rate;
#X obj 281 19 inlet;
#X msg 428 241 set \$1;
#X floatatom 428 263 5 0 0 0 - - -, f 5;
#X obj 281 150 metro 250;
#X obj 567 288 r walker-leap;
#X obj 281 128 tgl 15 0 empty empty empty 17 7 0 10 -262144 -1 -1 0
1;
#X floatatom 281 227 5 0 0 0 - - -, f 5;
#X obj 281 247 outlet;
#X obj 281 197 Gate;
#X obj 45 88 r init-loadbang;
#X obj 241 173 + 1;
#X msg 45 111 0;
#X text 581 160 fader trim value;
#X text 261 3 walker on/off;
#X obj 528 358 random;
#X obj 567 333 * 2;
#X obj 438 318 t f b;
#X obj 528 383 -;
#X obj 567 309 t f f;
#X obj 438 420 +;
#X obj 341 126 +;
#X obj 341 87 random;
#X obj 391 70 * 0.1;
#X obj 359 49 t f f;
#X obj 364 216 t b b;
#X connect 0 0 10 1;
#X connect 0 0 3 0;
#X connect 1 0 25 0;
#X connect 2 0 7 0;
#X connect 3 0 4 0;
#X connect 4 0 18 0;
#X connect 5 0 26 0;
#X connect 6 0 20 0;
#X connect 7 0 5 0;
#X connect 7 0 12 0;
#X connect 8 0 9 0;
#X connect 10 0 8 0;
#X connect 11 0 13 0;
#X connect 12 0 10 0;
#X connect 13 0 7 0;
#X connect 16 0 19 0;
#X connect 17 0 16 1;
#X connect 18 0 21 0;
#X connect 18 1 16 0;
#X connect 19 0 21 1;
#X connect 20 0 17 0;
#X connect 20 1 19 1;
#X connect 21 0 8 0;
#X connect 22 0 5 1;
#X connect 23 0 22 0;
#X connect 24 0 23 1;
#X connect 25 0 22 1;
#X connect 25 1 24 0;
#X connect 26 0 4 0;
#X connect 26 1 23 0;
