#N canvas 154 347 1158 584 12;
#X obj 181 102 unpack f f f f f f f f;
#X obj 389 410 tabwrite array1;
#X msg 493 390 0;
#X obj 401 370 t f b;
#X obj 412 350 t f b;
#X msg 503 370 1;
#X obj 423 330 t f b;
#X obj 434 310 t f b;
#X obj 445 290 t f b;
#X obj 456 270 t f b;
#X obj 467 250 t f b;
#X obj 478 230 t f b;
#X msg 516 350 2;
#X msg 529 330 3;
#X msg 542 310 4;
#X msg 554 290 5;
#X msg 567 270 6;
#X msg 580 250 7;
#X obj 310 230 expr (pow($f1 \, $f2));
#X obj 332 210 expr (pow($f1 \, $f2));
#X floatatom 478 183 5 0 0 0 - - -;
#X obj 267 270 expr (pow($f1 \, $f2));
#X obj 288 250 expr (pow($f1 \, $f2));
#X obj 224 310 expr (pow($f1 \, $f2));
#X obj 245 290 expr (pow($f1 \, $f2));
#X obj 181 350 expr (pow($f1 \, $f2));
#X obj 202 330 expr (pow($f1 \, $f2));
#X obj 478 93 loadbang;
#X obj 181 310 % 8;
#X obj 202 290 % 8;
#X obj 224 269 % 8;
#X obj 245 249 % 8;
#X obj 267 228 % 8;
#X obj 286 208 % 8;
#X obj 310 187 % 8;
#X obj 332 166 % 8;
#X obj 379 62 r modulo-why;
#X floatatom 379 120 5 0 0 0 - - -;
#X obj 332 33 loadbang;
#X msg 332 62 9999;
#X msg 478 152 0.3;
#X obj 181 43 inlet;
#X floatatom 632 230 5 0 0 0 - - -;
#X floatatom 632 169 5 0 0 0 - - -;
#X obj 632 199 min;
#X obj 707 288 s rhythmer-minimum-difference;
#X obj 722 122 -;
#X obj 692 122 -;
#X obj 663 122 -;
#X obj 632 122 -;
#X obj 603 122 -;
#X obj 572 122 -;
#X obj 543 122 -;
#X obj 632 257 abs;
#X floatatom 707 197 5 0 0 0 - - -;
#X obj 976 122 +;
#X obj 946 122 +;
#X obj 916 122 +;
#X obj 886 122 +;
#X obj 856 122 +;
#X obj 826 122 +;
#X obj 796 122 +;
#X obj 766 122 +;
#X floatatom 766 208 5 0 0 0 - - -;
#X obj 707 227 /;
#X obj 108 102 t f f f;
#X floatatom 707 258 5 0 0 0 - - -;
#X connect 0 0 65 0;
#X connect 0 1 29 0;
#X connect 0 1 51 0;
#X connect 0 1 52 1;
#X connect 0 1 61 0;
#X connect 0 2 30 0;
#X connect 0 2 50 0;
#X connect 0 2 51 1;
#X connect 0 2 60 0;
#X connect 0 3 31 0;
#X connect 0 3 49 0;
#X connect 0 3 50 1;
#X connect 0 3 59 0;
#X connect 0 4 32 0;
#X connect 0 4 48 0;
#X connect 0 4 49 1;
#X connect 0 4 58 0;
#X connect 0 5 33 0;
#X connect 0 5 47 0;
#X connect 0 5 48 1;
#X connect 0 5 57 0;
#X connect 0 6 34 0;
#X connect 0 6 47 1;
#X connect 0 6 55 0;
#X connect 0 6 56 0;
#X connect 0 6 46 0;
#X connect 0 7 35 0;
#X connect 0 7 55 1;
#X connect 0 7 46 1;
#X connect 2 0 1 1;
#X connect 3 0 1 0;
#X connect 3 1 2 0;
#X connect 4 0 1 0;
#X connect 4 1 5 0;
#X connect 5 0 1 1;
#X connect 6 0 1 0;
#X connect 6 1 12 0;
#X connect 7 0 1 0;
#X connect 7 1 13 0;
#X connect 8 0 1 0;
#X connect 8 1 14 0;
#X connect 9 0 1 0;
#X connect 9 1 15 0;
#X connect 10 0 1 0;
#X connect 10 1 16 0;
#X connect 11 0 1 0;
#X connect 11 1 17 0;
#X connect 12 0 1 1;
#X connect 13 0 1 1;
#X connect 14 0 1 1;
#X connect 15 0 1 1;
#X connect 16 0 1 1;
#X connect 17 0 1 1;
#X connect 18 0 10 0;
#X connect 19 0 11 0;
#X connect 20 0 19 1;
#X connect 20 0 18 1;
#X connect 20 0 22 1;
#X connect 20 0 21 1;
#X connect 20 0 24 1;
#X connect 20 0 23 1;
#X connect 20 0 26 1;
#X connect 20 0 25 1;
#X connect 21 0 8 0;
#X connect 22 0 9 0;
#X connect 23 0 6 0;
#X connect 24 0 7 0;
#X connect 25 0 3 0;
#X connect 26 0 4 0;
#X connect 27 0 40 0;
#X connect 28 0 25 0;
#X connect 29 0 26 0;
#X connect 30 0 23 0;
#X connect 31 0 24 0;
#X connect 32 0 21 0;
#X connect 33 0 22 0;
#X connect 34 0 18 0;
#X connect 35 0 19 0;
#X connect 36 0 37 0;
#X connect 37 0 35 1;
#X connect 37 0 34 1;
#X connect 37 0 33 1;
#X connect 37 0 32 1;
#X connect 37 0 31 1;
#X connect 37 0 30 1;
#X connect 37 0 29 1;
#X connect 37 0 28 1;
#X connect 38 0 39 0;
#X connect 39 0 37 0;
#X connect 40 0 20 0;
#X connect 41 0 0 0;
#X connect 42 0 44 1;
#X connect 42 0 53 0;
#X connect 43 0 44 0;
#X connect 44 0 42 0;
#X connect 46 0 44 1;
#X connect 47 0 43 0;
#X connect 48 0 43 0;
#X connect 49 0 43 0;
#X connect 50 0 43 0;
#X connect 51 0 43 0;
#X connect 52 0 43 0;
#X connect 53 0 54 0;
#X connect 54 0 64 0;
#X connect 55 0 56 1;
#X connect 56 0 57 1;
#X connect 57 0 58 1;
#X connect 58 0 59 1;
#X connect 59 0 60 1;
#X connect 60 0 61 1;
#X connect 61 0 62 1;
#X connect 62 0 63 0;
#X connect 63 0 64 1;
#X connect 64 0 66 0;
#X connect 65 0 52 0;
#X connect 65 1 28 0;
#X connect 65 2 62 0;
#X connect 66 0 45 0;
