#N canvas 1068 171 972 810 10;
#X obj 152 160 statfeed;
#X obj 174 116 r numelems;
#X obj 197 138 r rhythmexponent;
#X msg 80 142 randomize;
#N canvas 67 135 863 710 drivers 0;
#X obj 245 275 random 999;
#X obj 245 297 / 1000;
#X msg 264 253 set \$1;
#X floatatom 359 271 5 0 0 0 - - -, f 5;
#X obj 359 339 /;
#X obj 377 294 r numelems;
#X obj 377 316 - 1;
#X obj 391 386 == 0;
#X obj 359 489 +;
#X obj 359 525 outlet;
#X floatatom 511 384 5 0 0 0 - - -, f 5;
#X obj 541 333 /;
#X obj 559 290 r numelems;
#X msg 541 355 set \$1;
#X obj 511 507 +;
#X obj 511 405 t f f;
#X obj 359 360 t f f;
#X obj 245 209 spigot;
#X obj 359 171 metro 250;
#X obj 359 209 spigot;
#X obj 391 414 sel 1;
#X floatatom 391 460 5 0 0 0 - - -, f 5;
#X msg 431 442 set \$1;
#X text 447 337 epsilon;
#X text 386 231 single value;
#X obj 511 209 spigot;
#X obj 541 267 r rhythmoutput;
#X obj 564 191 unpack f f f;
#X msg 564 169 1 0 0;
#X msg 581 147 0 1 0;
#X msg 598 125 0 0 1;
#X obj 359 152 tgl 15 0 empty empty empty 17 7 0 10 -262144 -1 -1 0
1;
#X obj 431 356 r rhythmepsilon;
#X obj 264 231 r rhythmsinglevalue;
#X obj 359 127 r rhythmstartstop;
#X obj 410 149 r rhythmrate;
#X obj 559 312 - 1;
#X msg 562 489 0;
#X obj 543 444 sel 1 0;
#X obj 373 85 r rhythmdriver;
#X obj 564 103 sel 0 1 2;
#X obj 543 422 == 1;
#X msg 526 466 -0.125;
#X connect 0 0 1 0;
#X connect 1 0 9 0;
#X connect 2 0 3 0;
#X connect 3 0 4 0;
#X connect 4 0 16 0;
#X connect 5 0 6 0;
#X connect 6 0 4 1;
#X connect 7 0 20 0;
#X connect 8 0 9 0;
#X connect 10 0 15 0;
#X connect 11 0 13 0;
#X connect 12 0 36 0;
#X connect 13 0 10 0;
#X connect 14 0 9 0;
#X connect 15 0 14 0;
#X connect 15 1 41 0;
#X connect 16 0 8 0;
#X connect 16 1 7 0;
#X connect 17 0 0 0;
#X connect 18 0 17 0;
#X connect 18 0 19 0;
#X connect 18 0 25 0;
#X connect 19 0 3 0;
#X connect 20 0 21 0;
#X connect 21 0 8 1;
#X connect 22 0 21 0;
#X connect 25 0 10 0;
#X connect 26 0 11 0;
#X connect 27 0 17 1;
#X connect 27 1 19 1;
#X connect 27 2 25 1;
#X connect 28 0 27 0;
#X connect 29 0 27 0;
#X connect 30 0 27 0;
#X connect 31 0 18 0;
#X connect 32 0 22 0;
#X connect 33 0 2 0;
#X connect 34 0 31 0;
#X connect 35 0 18 1;
#X connect 36 0 11 1;
#X connect 37 0 14 1;
#X connect 38 0 42 0;
#X connect 38 1 37 0;
#X connect 39 0 40 0;
#X connect 40 0 28 0;
#X connect 40 1 29 0;
#X connect 40 2 30 0;
#X connect 41 0 38 0;
#X connect 42 0 14 1;
#X restore 125 60 pd drivers;
#X floatatom 125 82 5 0 0 0 - - -, f 5;
#X obj 152 448 s rhythmoutput;
#X obj 197 182 unpack f f f f f f f f;
#X obj 405 448 tabwrite array1;
#X msg 497 426 0;
#X obj 417 408 t f b;
#X obj 428 388 t f b;
#X msg 508 406 1;
#X obj 439 368 t f b;
#X obj 450 348 t f b;
#X obj 461 328 t f b;
#X obj 472 308 t f b;
#X obj 483 288 t f b;
#X obj 494 268 t f b;
#X msg 521 386 2;
#X msg 534 366 3;
#X msg 547 346 4;
#X msg 559 326 5;
#X msg 572 306 6;
#X msg 585 286 7;
#X obj 326 270 expr (pow($f1 \, $f2));
#X obj 348 250 expr (pow($f1 \, $f2));
#X floatatom 477 223 5 0 0 0 - - -, f 5;
#X obj 283 310 expr (pow($f1 \, $f2));
#X obj 304 290 expr (pow($f1 \, $f2));
#X obj 240 350 expr (pow($f1 \, $f2));
#X obj 261 330 expr (pow($f1 \, $f2));
#X obj 197 390 expr (pow($f1 \, $f2));
#X obj 218 370 expr (pow($f1 \, $f2));
#X obj 477 153 loadbang;
#X msg 477 175 0.48;
#X obj 125 103 t b f;
#X floatatom 152 420 5 0 0 0 - - -, f 5;
#X obj 197 350 % 8;
#X obj 215 330 % 8;
#X obj 233 309 % 8;
#X obj 252 289 % 8;
#X obj 270 268 % 8;
#X obj 289 248 % 8;
#X obj 307 227 % 8;
#X obj 326 207 % 8;
#X obj 80 31 r rhythm-from-shuffle;
#X connect 0 0 37 0;
#X connect 0 1 7 0;
#X connect 1 0 0 1;
#X connect 2 0 0 2;
#X connect 3 0 0 0;
#X connect 4 0 5 0;
#X connect 5 0 36 0;
#X connect 7 0 38 0;
#X connect 7 1 39 0;
#X connect 7 2 40 0;
#X connect 7 3 41 0;
#X connect 7 4 42 0;
#X connect 7 5 43 0;
#X connect 7 6 44 0;
#X connect 7 7 45 0;
#X connect 9 0 8 1;
#X connect 10 0 8 0;
#X connect 10 1 9 0;
#X connect 11 0 8 0;
#X connect 11 1 12 0;
#X connect 12 0 8 1;
#X connect 13 0 8 0;
#X connect 13 1 19 0;
#X connect 14 0 8 0;
#X connect 14 1 20 0;
#X connect 15 0 8 0;
#X connect 15 1 21 0;
#X connect 16 0 8 0;
#X connect 16 1 22 0;
#X connect 17 0 8 0;
#X connect 17 1 23 0;
#X connect 18 0 8 0;
#X connect 18 1 24 0;
#X connect 19 0 8 1;
#X connect 20 0 8 1;
#X connect 21 0 8 1;
#X connect 22 0 8 1;
#X connect 23 0 8 1;
#X connect 24 0 8 1;
#X connect 25 0 17 0;
#X connect 26 0 18 0;
#X connect 27 0 26 1;
#X connect 27 0 25 1;
#X connect 27 0 29 1;
#X connect 27 0 28 1;
#X connect 27 0 31 1;
#X connect 27 0 30 1;
#X connect 27 0 33 1;
#X connect 27 0 32 1;
#X connect 28 0 15 0;
#X connect 29 0 16 0;
#X connect 30 0 13 0;
#X connect 31 0 14 0;
#X connect 32 0 10 0;
#X connect 33 0 11 0;
#X connect 34 0 35 0;
#X connect 35 0 27 0;
#X connect 36 0 0 0;
#X connect 36 1 0 0;
#X connect 37 0 6 0;
#X connect 38 0 32 0;
#X connect 39 0 33 0;
#X connect 40 0 30 0;
#X connect 41 0 31 0;
#X connect 42 0 28 0;
#X connect 43 0 29 0;
#X connect 44 0 25 0;
#X connect 45 0 26 0;
#X connect 46 0 3 0;
