#N canvas 0 96 450 300 12;
#X msg 98 373 0;
#X obj 98 173 t b b;
#X obj 110 305 f;
#X obj 146 305 + 1;
#X obj 146 426 s rhythm-presets-receive;
#X floatatom 269 391 5 0 0 0 - - -;
#X obj 98 137 r rhythmer-presets-zero;
#X obj 110 225 r rhythmer-presets-increment;
#X obj 180 67 r rhythmer-presets-confirm;
#X msg 146 373 set \$1;
#X obj 166 173 r init-loadbang;
#X obj 110 265 t b f;
#X msg 125 195 100;
#X msg 166 195 100;
#X obj 180 105 tgl 15 0 empty empty empty 17 7 0 10 -262144 -1 -1 0
1;
#X obj 173 247 r rhythmer-presets-decrement;
#X obj 146 331 % 13;
#X obj 215 349 change;
#X msg 302 366 1;
#X msg 302 87 set 0;
#X obj 250 137 sel 0 1;
#X msg 269 190 0;
#X text 110 46 KORG BUTTON CONTROL FOR RHYTHMER;
#X connect 0 0 4 0;
#X connect 0 0 5 0;
#X connect 1 0 0 0;
#X connect 1 1 12 0;
#X connect 2 0 3 0;
#X connect 3 0 2 1;
#X connect 3 0 16 0;
#X connect 5 0 4 0;
#X connect 6 0 1 0;
#X connect 7 0 11 0;
#X connect 8 0 14 0;
#X connect 9 0 4 0;
#X connect 9 0 5 0;
#X connect 10 0 13 0;
#X connect 11 0 2 0;
#X connect 11 1 3 1;
#X connect 12 0 2 1;
#X connect 13 0 3 0;
#X connect 14 0 20 0;
#X connect 15 0 11 0;
#X connect 16 0 9 0;
#X connect 16 0 17 0;
#X connect 17 0 18 0;
#X connect 18 0 19 0;
#X connect 19 0 14 0;
#X connect 20 0 21 0;
#X connect 20 1 5 0;
#X connect 21 0 5 0;
