#N canvas 67 179 1321 655 10;
#X obj 285 564 s numelems;
#X obj 285 543 s rhythmrate;
#X obj 285 501 s rhythmsinglevalue;
#X obj 285 522 s rhythmepsilon;
#X obj 285 480 s rhythmexponent;
#X obj 25 476 r rhythmoutput;
#X obj 0 544 Gate;
#N canvas 67 128 840 620 rhythmtriage 0;
#X obj 365 49 inlet;
#X obj 365 77 sel 0 1 2 3 4 5 6 7;
#X msg 365 565 \; rhythm-vol-0 \$1;
#X msg 365 544 0;
#X msg 387 523 1;
#X msg 405 440 0;
#X msg 427 419 1;
#X msg 405 461 \; rhythm-vol-1 \$1;
#X msg 446 336 0;
#X msg 468 314 1;
#X msg 446 357 \; rhythm-vol-2 \$1;
#X msg 413 182 1 1 1;
#X msg 430 161 0 0 0;
#X msg 462 119 1 0 1;
#X obj 365 266 unpack f f f;
#X obj 44 19 inlet;
#X obj 44 45 sel 0 1 2 3 4 5 6 7;
#X obj 606 49 inlet;
#X obj 629 133 == 1;
#X obj 652 161 == 2;
#X obj 606 161 == 0;
#X obj 606 77 t f f f;
#X msg 606 214 3;
#X obj 654 183 loadbang;
#X obj 446 294 sel 0 1;
#X obj 405 398 sel 0 1;
#X obj 365 502 sel 0 1;
#X msg 365 245 1 0 0;
#X msg 381 224 0 1 0;
#X msg 397 203 0 0 1;
#X obj 191 128 inlet;
#X obj 191 154 sel 0 1 2 3 4 5 6 7;
#X msg 207 299 1;
#X text 648 214 To reset all ugen \; output levels to 1;
#X msg 239 259 5;
#X msg 76 171 11;
#X msg 109 129 20;
#X text 90 22 Tonal Preset Values;
#X text 190 102 Noise Preset Values;
#X msg 141 87 2;
#X msg 44 213 17;
#X msg 157 66 3;
#X msg 60 190 18;
#X msg 92 150 14;
#X msg 125 107 12;
#X msg 446 140 1 1 1;
#X msg 478 98 1 1 1;
#X obj 45 455 s to_secondary_globals;
#X obj 195 395 s to_secondary_globals;
#X msg 256 214 18;
#X msg 307 179 12;
#X obj 332 223 bng 15 250 50 0 empty empty empty 17 7 0 10 -262144
-1 -1;
#X obj 296 336 bng 15 250 50 0 empty empty empty 17 7 0 10 -262144
-1 -1;
#X obj 326 262 bng 15 250 50 0 empty empty empty 17 7 0 10 -262144
-1 -1;
#X msg 223 280 4;
#X msg 256 238 20;
#X msg 277 194 17;
#X msg 191 322 12;
#X connect 0 0 1 0;
#X connect 1 0 27 0;
#X connect 1 1 28 0;
#X connect 1 2 29 0;
#X connect 1 3 11 0;
#X connect 1 4 12 0;
#X connect 1 5 45 0;
#X connect 1 6 13 0;
#X connect 1 7 46 0;
#X connect 3 0 2 0;
#X connect 4 0 2 0;
#X connect 5 0 7 0;
#X connect 6 0 7 0;
#X connect 8 0 10 0;
#X connect 9 0 10 0;
#X connect 11 0 14 0;
#X connect 12 0 14 0;
#X connect 13 0 14 0;
#X connect 14 0 26 0;
#X connect 14 1 25 0;
#X connect 14 2 24 0;
#X connect 15 0 16 0;
#X connect 16 0 40 0;
#X connect 16 1 42 0;
#X connect 16 2 35 0;
#X connect 16 3 43 0;
#X connect 16 4 36 0;
#X connect 16 5 44 0;
#X connect 16 6 39 0;
#X connect 16 7 41 0;
#X connect 17 0 21 0;
#X connect 19 0 22 0;
#X connect 20 0 22 0;
#X connect 21 0 20 0;
#X connect 21 1 18 0;
#X connect 21 2 19 0;
#X connect 22 0 1 0;
#X connect 23 0 22 0;
#X connect 24 0 8 0;
#X connect 24 1 9 0;
#X connect 25 0 5 0;
#X connect 25 1 6 0;
#X connect 26 0 3 0;
#X connect 26 1 4 0;
#X connect 27 0 14 0;
#X connect 28 0 14 0;
#X connect 29 0 14 0;
#X connect 30 0 31 0;
#X connect 31 0 57 0;
#X connect 31 1 32 0;
#X connect 31 2 54 0;
#X connect 31 3 34 0;
#X connect 31 4 55 0;
#X connect 31 5 49 0;
#X connect 31 5 52 0;
#X connect 31 6 56 0;
#X connect 31 7 50 0;
#X connect 31 7 51 0;
#X connect 32 0 48 0;
#X connect 34 0 48 0;
#X connect 35 0 47 0;
#X connect 36 0 47 0;
#X connect 39 0 47 0;
#X connect 40 0 47 0;
#X connect 41 0 47 0;
#X connect 42 0 47 0;
#X connect 43 0 47 0;
#X connect 44 0 47 0;
#X connect 45 0 14 0;
#X connect 46 0 14 0;
#X connect 49 0 48 0;
#X connect 50 0 48 0;
#X connect 54 0 48 0;
#X connect 55 0 48 0;
#X connect 56 0 48 0;
#X connect 56 0 53 0;
#X connect 57 0 48 0;
#X restore 0 597 pd rhythmtriage;
#X obj 68 546 Gate;
#X obj 285 162 r rhythmexponent-receive;
#X obj 285 78 r rhythmrate-receive;
#X obj 285 99 r rhythmsinglevalue-receive;
#X obj 285 120 r rhythmepsilon-receive;
#X obj 241 12 r rhythmvolume-receive;
#X obj 70 521 t f f;
#X obj 161 -59 r rhythmdriver-receive;
#X obj 161 510 s rhythmdriver;
#X obj 161 -38 r rhythmtarget-receive;
#X obj 285 141 r rhythmnumelems-receive;
#X msg 912 59 0;
#X obj 912 31 t b b;
#X msg 944 59 1;
#X obj 1081 31 f;
#X obj 1117 31 + 1;
#X obj 1081 142 s rhythm-presets-receive;
#X floatatom 1141 117 5 0 0 0 - - -, f 5;
#X obj 912 3 r rhythmer-presets-zero;
#X obj 1081 3 r rhythmer-presets-increment;
#X obj 1141 89 r rhythmer-presets-confirm;
#X msg 1081 89 set \$1;
#X obj 1117 -41 r init-loadbang;
#X msg 1117 -20 1;
#X msg 769 613 \; rhythmdriver-receive \$1 \; rhythmtarget-receive
\$2 \; rhythmvolume-receive \$3 \; rhythmrate-receive \$4 \; rhythmsinglevalue-receive
\$5 \; rhythmepsilon-receive \$6 \; rhythmnumelems-receive \$7 \; rhythmexponent-receive
\$8 \; rhythmstartstop \$9 \; walker-preset-zero bang \;;
#X obj 638 422 t b f;
#X msg 773 592 0 0 0 125 0 0.01 8 1 0;
#X msg 836 516 1 1 0 125 0 0.01 8 1.5 1;
#X msg 852 497 1 2 0 125 0 0.01 8 1.5 1;
#X msg 867 478 1 0 1 125 0 0.01 8 1.5 1;
#X msg 883 459 2 2 0 125 0 0.01 8 13 1;
#X obj 552 -100 statfeed;
#X obj 578 -161 r numelems;
#X obj 605 -131 r rhythmexponent;
#X msg 326 -117 randomize;
#N canvas 470 143 863 617 drivers 0;
#X obj 185 324 random 999;
#X obj 185 352 / 1000;
#X msg 264 268 set \$1;
#X floatatom 359 285 5 0 0 0 - - -, f 5;
#X obj 359 353 /;
#X obj 377 302 r numelems;
#X obj 377 330 - 1;
#X obj 391 406 == 0;
#X obj 359 519 +;
#X obj 359 571 outlet;
#X floatatom 541 404 5 0 0 0 - - -, f 5;
#X obj 571 347 /;
#X obj 589 304 r numelems;
#X msg 571 375 set \$1;
#X obj 541 537 +;
#X obj 541 425 t f f;
#X obj 359 380 t f f;
#X obj 185 192 spigot;
#X obj 359 114 metro 250;
#X obj 359 192 spigot;
#X obj 391 434 sel 1;
#X floatatom 391 490 5 0 0 0 - - -, f 5;
#X msg 431 462 set \$1;
#X text 427 331 epsilon;
#X text 262 222 single value;
#X obj 541 192 spigot;
#X obj 571 261 r rhythmoutput;
#X obj 573 446 == 0;
#X msg 673 485 set \$1;
#X floatatom 559 502 5 0 0 0 - - -, f 5;
#X obj 44 175 unpack f f f;
#X msg 44 126 1 0 0;
#X msg 64 105 0 1 0;
#X msg 84 84 0 0 1;
#X obj 359 58 tgl 15 0 empty empty empty 17 7 0 10 -262144 -1 -1 1
1;
#X obj 431 350 r rhythmepsilon;
#X obj 264 241 r rhythmsinglevalue;
#X obj 359 23 r rhythmstartstop;
#X obj 419 54 r rhythmrate;
#X obj 673 409 r rhythmepsilon;
#X obj 589 326 - 1;
#X msg 596 520 0;
#X obj 573 474 sel 1 0;
#X obj 44 23 r rhythmdriver;
#X obj 44 51 sel 0 1 2;
#X connect 0 0 1 0;
#X connect 1 0 9 0;
#X connect 2 0 3 0;
#X connect 3 0 4 0;
#X connect 4 0 16 0;
#X connect 5 0 6 0;
#X connect 6 0 4 1;
#X connect 7 0 20 0;
#X connect 8 0 9 0;
#X connect 10 0 15 0;
#X connect 11 0 13 0;
#X connect 12 0 40 0;
#X connect 13 0 10 0;
#X connect 14 0 9 0;
#X connect 15 0 14 0;
#X connect 15 1 27 0;
#X connect 16 0 8 0;
#X connect 16 1 7 0;
#X connect 17 0 0 0;
#X connect 18 0 17 0;
#X connect 18 0 19 0;
#X connect 18 0 25 0;
#X connect 19 0 3 0;
#X connect 20 0 21 0;
#X connect 21 0 8 1;
#X connect 22 0 21 0;
#X connect 25 0 10 0;
#X connect 26 0 11 0;
#X connect 27 0 42 0;
#X connect 28 0 29 0;
#X connect 29 0 14 1;
#X connect 30 0 17 1;
#X connect 30 1 19 1;
#X connect 30 2 25 1;
#X connect 31 0 30 0;
#X connect 32 0 30 0;
#X connect 33 0 30 0;
#X connect 34 0 18 0;
#X connect 35 0 22 0;
#X connect 36 0 2 0;
#X connect 37 0 34 0;
#X connect 38 0 18 1;
#X connect 39 0 28 0;
#X connect 40 0 11 1;
#X connect 41 0 14 1;
#X connect 42 0 29 0;
#X connect 42 1 41 0;
#X connect 43 0 44 0;
#X connect 44 0 31 0;
#X connect 44 1 32 0;
#X connect 44 2 33 0;
#X restore 448 -186 pd drivers;
#X floatatom 448 -158 5 0 0 0 - - -, f 5;
#X obj 422 -31 s rhythmoutput;
#X obj 605 -75 unpack f f f f f f f f;
#X obj 625 375 tabwrite array1;
#X msg 637 348 0;
#X obj 605 320 t f b;
#X obj 626 283 t f b;
#X msg 658 308 1;
#X obj 646 256 t f b;
#X obj 666 233 t f b;
#X obj 686 210 t f b;
#X obj 706 183 t f b;
#X obj 734 163 t f b;
#X obj 756 137 t f b;
#X msg 678 281 2;
#X msg 698 258 3;
#X msg 718 235 4;
#X msg 738 208 5;
#X msg 766 191 6;
#X msg 788 165 7;
#X floatatom 820 -105 5 0 0 0 - - -, f 5;
#X msg 788 573 0 1 0 125 0 0.01 8 10 1;
#X msg 804 554 0 2 0 125 0 0.01 8 10 1;
#X msg 820 535 0 0 1 125 0 0.01 8 10 1;
#X obj 773 390 sel 0 1 2 3 4 5 6 7 8 9;
#X msg 899 440 1 1 0 122 3 0.01 8 1.8 1;
#X msg 915 421 1 2 0 122 3 0.01 8 1.8 1;
#X obj 161 -80 r rhythm-presets-receive;
#X obj 1081 57 % 10;
#X obj 156 201 cnv 15 406 258 empty empty empty 20 12 0 14 -233017
-66577 0;
#X obj 285 255 nbx 3 20 -1e+37 1e+37 0 0 empty empty empty 0 -8 0 15
-262144 -1 -1 126 256;
#X obj 285 299 nbx 3 20 -1e+37 1e+37 0 0 empty empty empty 0 -8 0 15
-262144 -1 -1 0 256;
#X obj 285 342 nbx 3 20 -1e+37 1e+37 0 0 empty empty empty 0 -8 0 15
-262144 -1 -1 0.01 256;
#X text 283 240 Rate;
#X text 283 327 Epsilon;
#X obj 285 429 nbx 3 20 -1e+37 1e+37 0 0 empty empty empty 0 -8 0 15
-262144 -1 -1 1.5 256;
#X text 283 414 Exp;
#X obj 285 222 tgl 13 0 empty empty empty 17 7 0 10 -262144 -1 -1 0
1;
#X obj 161 363 vradio 13 1 0 3 empty empty empty 0 -8 0 10 -262144
-1 -1 1;
#X obj 161 417 vradio 13 1 0 3 empty empty empty 0 -8 0 10 -262144
-1 -1 2;
#X obj 285 385 nbx 3 20 -1e+37 1e+37 0 0 empty empty empty 0 -8 0 15
-262144 -1 -1 8 256;
#X text 283 370 Num Elems;
#X obj 326 222 bng 13 250 50 0 empty empty empty 17 7 0 10 -262144
-1 -1;
#X text 161 348 DRIVERS;
#X text 163 402 TARGETS;
#X obj 161 216 vradio 13 1 0 10 empty empty empty 0 -8 0 10 -262144
-1 -1 5;
#X text 175 362 Random \; Single-Value \; Feedback;
#X text 176 417 Off \; Tonal Presets \; Noisy Presets \;;
#X text 280 204 VOL;
#X text 309 204 SHUFFLE;
#X text 283 284 Sing Val;
#X text 157 201 RHYTHMER PRESETS;
#X text 176 216 All Off \; Tonal Random \; Noisy Random \; Volum Random
\; Fast SingleT \; Fast SingleN \; Fast SingleV \; Feedback \; SingleT
2 \; SingleN 2;
#X obj 362 201 cnv 15 200 258 empty empty empty 20 12 0 14 -262144
-66577 0;
#N canvas 43 85 723 507 (subpatch) 0;
#X array array1 8 float 3;
#A 0 1.69441 2.16524 0 2.36327 1 1.39474 1.94531 2.54476;
#X coords 0 15 8 0 200 258 2 0 0;
#X restore 362 201 graph;
#X obj 734 -27 expr (pow($f1 \, $f2));
#X obj 756 -47 expr (pow($f1 \, $f2));
#X floatatom 889 -88 5 0 0 0 - - -, f 5;
#X obj 691 13 expr (pow($f1 \, $f2));
#X obj 712 -7 expr (pow($f1 \, $f2));
#X obj 648 53 expr (pow($f1 \, $f2));
#X obj 669 33 expr (pow($f1 \, $f2));
#X obj 605 93 expr (pow($f1 \, $f2));
#X obj 626 73 expr (pow($f1 \, $f2));
#X obj 889 -138 loadbang;
#X msg 889 -116 0.48;
#X obj 436 -124 t b f;
#X floatatom 146 593 5 0 0 0 - - -, f 5;
#X obj 50 82 r auxknob-7;
#X obj 50 140 -;
#X obj 50 111 t f f;
#X obj 50 169 > 0;
#X obj 50 198 sel 1 0;
#X msg 50 256 1;
#X msg 69 227 -1;
#X obj 54 315 +;
#X text 602 442 BANG USED TO SHUFFLE... \; BUT IS THAT NECESSARY? \;
BETTER TO KEEP CONTINUITY \; OF THE RHYTHM?;
#X connect 5 0 6 1;
#X connect 5 0 8 1;
#X connect 5 0 111 0;
#X connect 6 0 7 0;
#X connect 6 1 7 1;
#X connect 8 0 7 2;
#X connect 9 0 79 0;
#X connect 10 0 74 0;
#X connect 11 0 75 0;
#X connect 12 0 76 0;
#X connect 13 0 81 0;
#X connect 14 0 8 0;
#X connect 14 1 7 3;
#X connect 15 0 82 0;
#X connect 17 0 83 0;
#X connect 18 0 84 0;
#X connect 19 0 24 0;
#X connect 19 0 25 0;
#X connect 20 0 19 0;
#X connect 20 1 21 0;
#X connect 21 0 22 1;
#X connect 22 0 23 0;
#X connect 22 0 72 0;
#X connect 23 0 22 1;
#X connect 25 0 24 0;
#X connect 26 0 20 0;
#X connect 27 0 22 0;
#X connect 28 0 25 0;
#X connect 29 0 24 0;
#X connect 29 0 25 0;
#X connect 30 0 31 0;
#X connect 31 0 23 0;
#X connect 33 1 68 0;
#X connect 34 0 32 0;
#X connect 35 0 32 0;
#X connect 36 0 32 0;
#X connect 37 0 32 0;
#X connect 38 0 32 0;
#X connect 39 0 45 0;
#X connect 39 1 46 0;
#X connect 40 0 39 1;
#X connect 41 0 39 2;
#X connect 42 0 39 0;
#X connect 43 0 44 0;
#X connect 44 0 110 0;
#X connect 46 0 106 0;
#X connect 46 1 107 0;
#X connect 46 2 104 0;
#X connect 46 3 105 0;
#X connect 46 4 102 0;
#X connect 46 5 103 0;
#X connect 46 6 99 0;
#X connect 46 7 100 0;
#X connect 48 0 47 1;
#X connect 49 0 47 0;
#X connect 49 1 48 0;
#X connect 50 0 47 0;
#X connect 50 1 51 0;
#X connect 51 0 47 1;
#X connect 52 0 47 0;
#X connect 52 1 58 0;
#X connect 53 0 47 0;
#X connect 53 1 59 0;
#X connect 54 0 47 0;
#X connect 54 1 60 0;
#X connect 55 0 47 0;
#X connect 55 1 61 0;
#X connect 56 0 47 0;
#X connect 56 1 62 0;
#X connect 57 0 47 0;
#X connect 57 1 63 0;
#X connect 58 0 47 1;
#X connect 59 0 47 1;
#X connect 60 0 47 1;
#X connect 61 0 47 1;
#X connect 62 0 47 1;
#X connect 63 0 47 1;
#X connect 65 0 32 0;
#X connect 66 0 32 0;
#X connect 67 0 32 0;
#X connect 68 0 34 0;
#X connect 68 1 65 0;
#X connect 68 2 66 0;
#X connect 68 3 67 0;
#X connect 68 4 35 0;
#X connect 68 5 36 0;
#X connect 68 6 37 0;
#X connect 68 7 38 0;
#X connect 68 8 69 0;
#X connect 68 9 70 0;
#X connect 69 0 32 0;
#X connect 70 0 32 0;
#X connect 71 0 89 0;
#X connect 72 0 29 0;
#X connect 74 0 1 0;
#X connect 74 0 119 1;
#X connect 75 0 2 0;
#X connect 76 0 3 0;
#X connect 79 0 4 0;
#X connect 81 0 14 0;
#X connect 82 0 16 0;
#X connect 83 0 6 0;
#X connect 84 0 0 0;
#X connect 86 0 42 0;
#X connect 89 0 33 0;
#X connect 99 0 56 0;
#X connect 99 0 64 0;
#X connect 100 0 57 0;
#X connect 101 0 100 1;
#X connect 101 0 99 1;
#X connect 101 0 103 1;
#X connect 101 0 102 1;
#X connect 101 0 105 1;
#X connect 101 0 104 1;
#X connect 101 0 107 1;
#X connect 101 0 106 1;
#X connect 102 0 54 0;
#X connect 103 0 55 0;
#X connect 104 0 52 0;
#X connect 105 0 53 0;
#X connect 106 0 49 0;
#X connect 107 0 50 0;
#X connect 108 0 109 0;
#X connect 109 0 101 0;
#X connect 110 0 39 0;
#X connect 110 1 39 0;
#X connect 112 0 114 0;
#X connect 113 0 115 0;
#X connect 114 0 113 1;
#X connect 114 1 113 0;
#X connect 115 0 116 0;
#X connect 116 0 117 0;
#X connect 116 1 118 0;
#X connect 117 0 119 0;
#X connect 118 0 119 0;
#X connect 119 0 74 0;
#X coords 0 -1 1 1 408 260 2 155 200;
