#N canvas 67 89 1376 991 10;
#X obj 268 754 s numelems;
#X obj 268 733 s rhythmrate;
#X obj 268 691 s rhythmsinglevalue;
#X obj 268 712 s rhythmepsilon;
#X obj 268 670 s rhythmexponent;
#X obj 101 747 r rhythmoutput;
#N canvas 213 281 833 991 rhythmtriage 0;
#X restore 282 822 pd rhythmtriage;
#X obj 138 799 Gate;
#X obj 268 372 r rhythmexponent-receive;
#X obj 268 287 r rhythmrate-receive;
#X obj 268 308 r rhythmsinglevalue-receive;
#X obj 268 329 r rhythmepsilon-receive;
#X obj 268 266 r rhythmvolume-receive;
#X obj 140 770 t f f;
#X obj 161 237 r rhythmdriver-receive;
#X obj 161 670 s rhythmdriver;
#X obj 1254 56 r rhythmtarget-receive;
#X obj 268 350 r rhythmnumelems-receive;
#X msg 872 269 0;
#X obj 872 241 t b b;
#X msg 904 269 1;
#X obj 991 271 f;
#X obj 1027 271 + 1;
#X obj 991 382 s rhythm-presets-receive;
#X floatatom 1051 357 5 0 0 0 - - -, f 5;
#X obj 872 213 r rhythmer-presets-zero;
#X obj 991 243 r rhythmer-presets-increment;
#X obj 1051 329 r rhythmer-presets-confirm;
#X msg 991 329 set \$1;
#X obj 1027 199 r init-loadbang;
#X msg 1027 220 1;
#X obj 752 610 t b f;
#X obj 552 100 statfeed;
#X obj 574 39 r numelems;
#X obj 597 68 r rhythmexponent;
#X msg 479 100 randomize;
#N canvas 67 143 863 617 drivers 0;
#X obj 185 324 random 999;
#X obj 185 352 / 1000;
#X msg 264 268 set \$1;
#X floatatom 359 285 5 0 0 0 - - -, f 5;
#X obj 359 353 /;
#X obj 377 302 r numelems;
#X obj 377 330 - 1;
#X obj 391 406 == 0;
#X obj 359 519 +;
#X obj 359 571 outlet;
#X floatatom 541 404 5 0 0 0 - - -, f 5;
#X obj 571 347 /;
#X obj 589 304 r numelems;
#X msg 571 375 set \$1;
#X obj 541 537 +;
#X obj 541 425 t f f;
#X obj 359 380 t f f;
#X obj 185 192 spigot;
#X obj 359 114 metro 250;
#X obj 359 192 spigot;
#X obj 391 434 sel 1;
#X floatatom 391 490 5 0 0 0 - - -, f 5;
#X msg 431 462 set \$1;
#X text 427 331 epsilon;
#X text 262 222 single value;
#X obj 541 192 spigot;
#X obj 571 261 r rhythmoutput;
#X obj 44 175 unpack f f f;
#X msg 44 126 1 0 0;
#X msg 64 105 0 1 0;
#X msg 84 84 0 0 1;
#X obj 359 58 tgl 15 0 empty empty empty 17 7 0 10 -262144 -1 -1 1
1;
#X obj 431 350 r rhythmepsilon;
#X obj 264 241 r rhythmsinglevalue;
#X obj 359 23 r rhythmstartstop;
#X obj 419 54 r rhythmrate;
#X obj 589 326 - 1;
#X msg 596 520 0;
#X obj 573 474 sel 1 0;
#X obj 44 23 r rhythmdriver;
#X obj 44 51 sel 0 1 2;
#X obj 573 446 == 1;
#X obj 647 483 bng 15 250 50 0 empty empty empty 17 7 0 10 -262144
-1 -1;
#X msg 557 505 -0.125;
#X connect 0 0 1 0;
#X connect 1 0 9 0;
#X connect 2 0 3 0;
#X connect 3 0 4 0;
#X connect 4 0 16 0;
#X connect 5 0 6 0;
#X connect 6 0 4 1;
#X connect 7 0 20 0;
#X connect 8 0 9 0;
#X connect 10 0 15 0;
#X connect 11 0 13 0;
#X connect 12 0 36 0;
#X connect 13 0 10 0;
#X connect 14 0 9 0;
#X connect 15 0 14 0;
#X connect 15 1 41 0;
#X connect 16 0 8 0;
#X connect 16 1 7 0;
#X connect 17 0 0 0;
#X connect 18 0 17 0;
#X connect 18 0 19 0;
#X connect 18 0 25 0;
#X connect 19 0 3 0;
#X connect 20 0 21 0;
#X connect 21 0 8 1;
#X connect 22 0 21 0;
#X connect 25 0 10 0;
#X connect 26 0 11 0;
#X connect 27 0 17 1;
#X connect 27 1 19 1;
#X connect 27 2 25 1;
#X connect 28 0 27 0;
#X connect 29 0 27 0;
#X connect 30 0 27 0;
#X connect 31 0 18 0;
#X connect 32 0 22 0;
#X connect 33 0 2 0;
#X connect 34 0 31 0;
#X connect 35 0 18 1;
#X connect 36 0 11 1;
#X connect 37 0 14 1;
#X connect 38 0 43 0;
#X connect 38 0 42 0;
#X connect 38 1 37 0;
#X connect 39 0 40 0;
#X connect 40 0 28 0;
#X connect 40 1 29 0;
#X connect 40 2 30 0;
#X connect 41 0 38 0;
#X connect 43 0 14 1;
#X restore 505 15 pd drivers;
#X floatatom 505 43 5 0 0 0 - - -, f 5;
#X obj 512 187 s rhythmoutput;
#X obj 605 125 unpack f f f f f f f f;
#X obj 625 585 tabwrite array1;
#X msg 637 558 0;
#X obj 605 530 t f b;
#X obj 626 493 t f b;
#X msg 658 518 1;
#X obj 646 466 t f b;
#X obj 666 443 t f b;
#X obj 686 420 t f b;
#X obj 706 393 t f b;
#X obj 734 373 t f b;
#X obj 756 347 t f b;
#X msg 678 491 2;
#X msg 698 468 3;
#X msg 718 445 4;
#X msg 738 418 5;
#X msg 766 401 6;
#X msg 788 375 7;
#X obj 803 450 sel 0 1 2 3 4 5 6 7 8 9;
#X obj 161 208 r rhythm-presets-receive;
#X obj 991 297 % 10;
#X obj 156 401 cnv 15 406 258 empty empty empty 20 12 0 14 -233017
-66577 0;
#X obj 268 457 nbx 3 20 -1e+37 1e+37 0 0 empty empty empty 0 -8 0 15
-262144 -1 -1 125 256;
#X obj 268 501 nbx 3 20 -1e+37 1e+37 0 0 empty empty empty 0 -8 0 15
-262144 -1 -1 0 256;
#X obj 268 542 nbx 4 20 -1e+37 1e+37 0 0 empty empty empty 0 -8 0 15
-262144 -1 -1 0.01 256;
#X text 266 442 Rate;
#X text 266 527 Epsilon;
#X obj 268 627 nbx 3 20 -1e+37 1e+37 0 0 empty empty empty 0 -8 0 15
-262144 -1 -1 6.5 256;
#X text 266 612 Exp;
#X obj 268 422 tgl 13 0 empty empty empty 17 7 0 10 -262144 -1 -1 1
1;
#X obj 161 586 vradio 13 1 0 3 empty empty empty 0 -8 0 10 -262144
-1 -1 0;
#X obj 268 583 nbx 3 20 -1e+37 1e+37 0 0 empty empty empty 0 -8 0 15
-262144 -1 -1 8 256;
#X text 266 568 Num Elems;
#X obj 302 422 bng 13 250 50 0 empty empty empty 17 7 0 10 -262144
-1 -1;
#X text 161 571 DRIVERS;
#X obj 161 420 vradio 13 1 0 10 empty empty empty 0 -8 0 10 -262144
-1 -1 2;
#X text 263 404 VOL;
#X text 285 404 SHUFFLE;
#X text 266 486 Sing Val;
#X text 157 402 RHYTHMER PRESETS;
#X obj 343 401 cnv 15 220 258 empty empty empty 20 12 0 14 -262144
-66577 0;
#N canvas 43 85 723 507 (subpatch) 0;
#X array array1 8 float 3;
#A 0 1 1.69441 1.39474 0 1.94531 2.54476 2.36327 2.16524;
#X coords 0 15 8 0 220 258 2 0 0;
#X restore 342 401 graph;
#X obj 734 233 expr (pow($f1 \, $f2));
#X obj 756 213 expr (pow($f1 \, $f2));
#X floatatom 888 182 5 0 0 0 - - -, f 5;
#X obj 691 273 expr (pow($f1 \, $f2));
#X obj 712 253 expr (pow($f1 \, $f2));
#X obj 648 313 expr (pow($f1 \, $f2));
#X obj 669 293 expr (pow($f1 \, $f2));
#X obj 605 353 expr (pow($f1 \, $f2));
#X obj 626 333 expr (pow($f1 \, $f2));
#X obj 888 132 loadbang;
#X msg 888 154 0.48;
#X obj 505 67 t b f;
#X obj 80 243 r auxknob-7;
#X obj 80 301 -;
#X obj 80 272 t f f;
#X obj 80 330 > 0;
#X obj 80 359 sel 1 0;
#X msg 80 417 1;
#X msg 99 388 -1;
#X obj 84 476 +;
#X text 538 401 ''';
#X obj 481 721 bng 15 250 50 0 empty empty empty 17 7 0 10 -262144
-1 -1;
#X obj 481 747 s randomize_rhythm_presets;
#X text 175 585 Rand \; Sing \; Feedb;
#X text 574 13 This contains is the metro that runs the Rhythmer;
#X obj 80 776 Gate;
#X msg 799 733 \; rhythmdriver-receive \$1 \; rhythmtarget-receive
\$2 \; rhythmvolume-receive \$3 \; rhythmrate-receive \$4 \; rhythmsinglevalue-receive
\$5 \; rhythmepsilon-receive \$6 \; rhythmnumelems-receive \$7 \; rhythmexponent-receive
\$8 \; rhythmstartstop \$9 \; justvolume \$10 \; walker-preset-zero
bang \;;
#X msg 803 701 0 0 0 125 0 0.01 8 1 0 1;
#X msg 480 853 0 1 0 125 0 0.01 8 10 1 1;
#X msg 480 824 0 2 0 125 0 0.01 8 10 1 1;
#X msg 480 795 1 6 0 125 0 0.01 8 3 1 1;
#X obj 80 714 r justvolume;
#X msg 816 677 99 99 1 125 0 0.01 8 10 1 2;
#X obj 1105 833 s gliss-length-receive;
#X msg 1105 804 20;
#X obj 1105 775 s to_gliss_presets;
#X msg 1105 746 6;
#X text 985 678 VOLUME;
#X text 638 853 Tonal Rand;
#X text 957 702 OFF;
#X text 638 825 Noisy Rand;
#X text 994 654 NEW RAND;
#X text 635 796 Ok;
#X text 995 630 RANDOM 2;
#X text 1012 607 BEAT SING;
#X text 1035 582 DARK GRIND;
#X text 1049 558 LIGHT HOP;
#X msg 857 605 1 3 0 125 0 0.01 8 3 1 1;
#X msg 870 581 1 4 0 125 0 0.01 8 2.5 1 1;
#X msg 884 557 1 5 0 125 0 0.01 8 2.5 1 1;
#X obj 29 989 sel 0 1 2 3 4 5 6 7;
#X msg 29 1462 \; rhythm-vol-0 \$1;
#X msg 29 1441 0;
#X msg 51 1420 1;
#X msg 63 1345 0;
#X msg 85 1324 1;
#X msg 63 1366 \; rhythm-vol-1 \$1;
#X msg 98 1249 0;
#X msg 120 1227 1;
#X msg 98 1270 \; rhythm-vol-2 \$1;
#X msg 77 1094 1 1 1;
#X msg 94 1073 0 0 0;
#X obj 29 1178 unpack f f f;
#X obj 204 918 == 0;
#X msg 204 971 3;
#X obj 245 940 loadbang;
#X obj 98 1207 sel 0 1;
#X obj 63 1303 sel 0 1;
#X obj 29 1399 sel 0 1;
#X msg 29 1157 1 0 0;
#X msg 45 1136 0 1 0;
#X msg 61 1115 0 0 1;
#X text 238 965 To reset all ugen \; output levels to 1;
#X obj 1254 422 t f b;
#X obj 1265 689 f;
#X obj 1298 689 + 1;
#X msg 1294 647 0;
#X obj 1512 555 until;
#X obj 1512 577 random 24;
#X msg 1512 533 8;
#X obj 1512 511 t b b;
#X obj 1512 492 bng 15 250 50 0 empty empty empty 17 7 0 10 -262144
-1 -1;
#X obj 1238 723 tabwrite rhythmer_presets;
#X obj 1238 752 table rhythmer_presets;
#X obj 1512 616 print;
#X msg 1539 598 New Preset;
#X text 43 967 Volume;
#X msg 126 1031 1 0 0;
#X msg 142 1010 0 0 1;
#X obj 31 862 tabread rhythmer_presets;
#X obj 1254 140 t b b;
#X obj 1254 114 bng 15 250 50 0 empty empty empty 17 7 0 10 -262144
-1 -1;
#X msg 1254 169 0 \, 0 \, 0 \, 0 \, 0 \, 0 \, 0 \, 0;
#X obj 31 901 s to_secondary_globals;
#X obj 1512 469 r randomize_rhythm_presets;
#X obj 1403 615 s rhythm_seq_now;
#X msg 1403 529 set;
#X msg 1440 595 add2 \$1;
#X obj 1296 140 t b b;
#X obj 1296 114 bng 15 250 50 0 empty empty empty 17 7 0 10 -262144
-1 -1;
#X obj 1381 140 t b b;
#X obj 1381 114 bng 15 250 50 0 empty empty empty 17 7 0 10 -262144
-1 -1;
#X obj 1338 140 t b b;
#X obj 1338 114 bng 15 250 50 0 empty empty empty 17 7 0 10 -262144
-1 -1;
#X obj 1423 140 t b b;
#X obj 1423 114 bng 15 250 50 0 empty empty empty 17 7 0 10 -262144
-1 -1;
#X obj 1465 140 t b b;
#X obj 1465 114 bng 15 250 50 0 empty empty empty 17 7 0 10 -262144
-1 -1;
#X obj 1254 85 sel 0 1 2 3 4 5 6 7 8, f 64;
#X msg 110 1052 1 1 1;
#X text 1446 745 USED: 0 2 3 4 5 10 12 13 14 15 16 17 18 19 20 21 22
;
#X text 1444 771 NOT USED: 1 6 7 8 9 11 23;
#X text 1441 809 USED IN THE THREE BEST: 0 3 4 10 12 13 15 16 18 19
20 21 22;
#X text 1526 229 RAND 2;
#X text 1471 198 NEW RAND;
#X text 1546 254 BEAT SING;
#X text 1606 285 DARK GRIND;
#X text 1645 316 LIGHT HOP;
#X text 1396 170 ALL OFF;
#X msg 1504 169 0 \, 0 \, 0 \, 0 \, 0 \, 0 \, 0 \, 0;
#X msg 1631 256 4 \, 12 \, 3 \, 15 \, 3 \, 3 \, 19 \, 16;
#X msg 1714 314 16 \, 14 \, 15 \, 4 \, 22 \, 20 \, 18 \, 12;
#X msg 1673 285 22 \, 19 \, 10 \, 19 \, 4 \, 13 \, 15 \, 12;
#X text 1776 229 RAND 2;
#X msg 1588 227 17 \, 16 \, 14 \, 13 \, 15 \, 2 \, 19 \, 10;
#X msg 1546 198 21 \, 0 \, 15 \, 5 \, 18 \, 4 \, 12 \, 20;
#X text 1721 198 NEW RAND;
#X text 1796 254 BEAT SING;
#X text 1856 285 DARK GRIND;
#X text 1895 316 LIGHT HOP;
#X text 1646 170 ALL OFF;
#X msg 1464 314 10 \, 8 \, 9 \, 5 \, 16 \, 14 \, 12 \, 6;
#X msg 1381 256 3 \, 6 \, 2 \, 9 \, 2 \, 2 \, 13 \, 10;
#X msg 1338 227 11 \, 10 \, 8 \, 7 \, 9 \, 1 \, 13 \, 5;
#X msg 1296 198 15 \, 0 \, 9 \, 4 \, 12 \, 3 \, 6 \, 14;
#X msg 1423 285 13 \, 13 \, 5 \, 13 \, 3 \, 7 \, 9 \, 6;
#X obj 1105 575 bng 15 250 50 0 empty empty empty 17 7 0 10 -262144
-1 -1;
#X msg 843 629 0 2 0 125 0 0.01 8 8 1 1;
#X text 1057 534 FED-BACK 1;
#X obj 1508 140 t b b;
#X obj 1508 114 bng 15 250 50 0 empty empty empty 17 7 0 10 -262144
-1 -1;
#X obj 1550 140 t b b;
#X obj 1550 114 bng 15 250 50 0 empty empty empty 17 7 0 10 -262144
-1 -1;
#X text 1075 510 FED-BACK 2;
#X floatatom 512 159 5 0 0 0 - - -, f 5;
#X obj 605 313 % 8;
#X obj 623 293 % 8;
#X obj 641 272 % 8;
#X obj 660 252 % 8;
#X obj 678 231 % 8;
#X obj 697 211 % 8;
#X obj 715 190 % 8;
#X obj 734 170 % 8;
#X obj 1592 140 t b b;
#X obj 1592 114 bng 15 250 50 0 empty empty empty 17 7 0 10 -262144
-1 -1;
#X msg 897 533 2 6 1 125 0 0.01 10 7 1 1;
#X msg 911 509 2 7 1 125 0 0.01 16 16 1 1;
#X text 1645 347 FED-BACK 1;
#X text 1706 377 FED-BACK 2;
#X text 1771 406 FED-BACK 3;
#X msg 1550 376 8 \, 13 \, 3 \, 2 \, 3 \, 6 \, 7 \, 15;
#X msg 1500 346 2 \, 3 \, 3 \, 4 \, 5 \, 6 \, 7 \, 8;
#X text 176 419 All Off \; VOL \; NEW RAND \; RAND 2 \; BEAT SING \;
DARK GRIND \; LIGHT HOP \; FED-BACK 1 \; FED-BACK 2 \; FED-BACK 3;
#X msg 924 485 2 8 1 125 0 0.01 12 2 1 1;
#X obj 31 815 % 8;
#X floatatom 71 825 5 0 0 0 - - -, f 5;
#X msg 1592 425 7 \, 9 \, 10 \, 7 \, 9 \, 12 \, 5 \, 9;
#X msg 1592 405 1 \, 2 \, 3 \, 4 \, 5 \, 6 \, 7 \, 8;
#X msg 830 653 0 1 0 125 0 0.01 8 6.5 1 1;
#X connect 5 0 7 1;
#X connect 5 0 106 1;
#X connect 7 0 131 0;
#X connect 8 0 66 0;
#X connect 9 0 61 0;
#X connect 10 0 62 0;
#X connect 11 0 63 0;
#X connect 12 0 68 0;
#X connect 13 0 7 0;
#X connect 13 1 144 0;
#X connect 14 0 69 0;
#X connect 16 0 189 0;
#X connect 17 0 70 0;
#X connect 18 0 23 0;
#X connect 18 0 24 0;
#X connect 19 0 18 0;
#X connect 19 1 20 0;
#X connect 20 0 21 1;
#X connect 21 0 22 0;
#X connect 21 0 59 0;
#X connect 22 0 21 1;
#X connect 24 0 23 0;
#X connect 25 0 19 0;
#X connect 26 0 21 0;
#X connect 27 0 24 0;
#X connect 28 0 23 0;
#X connect 28 0 24 0;
#X connect 29 0 30 0;
#X connect 30 0 22 0;
#X connect 31 0 72 0;
#X connect 31 1 57 0;
#X connect 32 0 225 0;
#X connect 32 1 39 0;
#X connect 33 0 32 1;
#X connect 34 0 32 2;
#X connect 35 0 32 0;
#X connect 36 0 37 0;
#X connect 37 0 92 0;
#X connect 39 0 226 0;
#X connect 39 1 227 0;
#X connect 39 2 228 0;
#X connect 39 3 229 0;
#X connect 39 4 230 0;
#X connect 39 5 231 0;
#X connect 39 6 232 0;
#X connect 39 7 233 0;
#X connect 41 0 40 1;
#X connect 42 0 40 0;
#X connect 42 1 41 0;
#X connect 43 0 40 0;
#X connect 43 1 44 0;
#X connect 44 0 40 1;
#X connect 45 0 40 0;
#X connect 45 1 51 0;
#X connect 46 0 40 0;
#X connect 46 1 52 0;
#X connect 47 0 40 0;
#X connect 47 1 53 0;
#X connect 48 0 40 0;
#X connect 48 1 54 0;
#X connect 49 0 40 0;
#X connect 49 1 55 0;
#X connect 50 0 40 0;
#X connect 50 1 56 0;
#X connect 51 0 40 1;
#X connect 52 0 40 1;
#X connect 53 0 40 1;
#X connect 54 0 40 1;
#X connect 55 0 40 1;
#X connect 56 0 40 1;
#X connect 57 0 108 0;
#X connect 57 1 113 0;
#X connect 57 2 249 0;
#X connect 57 3 218 0;
#X connect 57 4 128 0;
#X connect 57 5 129 0;
#X connect 57 6 130 0;
#X connect 57 7 236 0;
#X connect 57 8 237 0;
#X connect 57 9 244 0;
#X connect 58 0 74 0;
#X connect 59 0 28 0;
#X connect 61 0 1 0;
#X connect 61 0 100 1;
#X connect 62 0 2 0;
#X connect 63 0 3 0;
#X connect 66 0 4 0;
#X connect 68 0 13 0;
#X connect 69 0 15 0;
#X connect 70 0 0 0;
#X connect 72 0 35 0;
#X connect 74 0 31 0;
#X connect 81 0 49 0;
#X connect 82 0 50 0;
#X connect 83 0 82 1;
#X connect 83 0 81 1;
#X connect 83 0 85 1;
#X connect 83 0 84 1;
#X connect 83 0 87 1;
#X connect 83 0 86 1;
#X connect 83 0 89 1;
#X connect 83 0 88 1;
#X connect 84 0 47 0;
#X connect 85 0 48 0;
#X connect 86 0 45 0;
#X connect 87 0 46 0;
#X connect 88 0 42 0;
#X connect 89 0 43 0;
#X connect 90 0 91 0;
#X connect 91 0 83 0;
#X connect 92 0 32 0;
#X connect 92 1 32 0;
#X connect 93 0 95 0;
#X connect 94 0 96 0;
#X connect 95 0 94 1;
#X connect 95 1 94 0;
#X connect 96 0 97 0;
#X connect 97 0 98 0;
#X connect 97 1 99 0;
#X connect 98 0 100 0;
#X connect 99 0 100 0;
#X connect 100 0 61 0;
#X connect 102 0 103 0;
#X connect 106 0 245 0;
#X connect 108 0 107 0;
#X connect 112 0 106 0;
#X connect 113 0 107 0;
#X connect 115 0 114 0;
#X connect 117 0 116 0;
#X connect 128 0 107 0;
#X connect 129 0 107 0;
#X connect 130 0 107 0;
#X connect 130 0 217 0;
#X connect 131 0 150 0;
#X connect 131 1 151 0;
#X connect 131 2 152 0;
#X connect 131 3 141 0;
#X connect 131 4 142 0;
#X connect 131 5 190 0;
#X connect 131 6 168 0;
#X connect 131 7 169 0;
#X connect 133 0 132 0;
#X connect 134 0 132 0;
#X connect 135 0 137 0;
#X connect 136 0 137 0;
#X connect 138 0 140 0;
#X connect 139 0 140 0;
#X connect 141 0 143 0;
#X connect 142 0 143 0;
#X connect 143 0 149 0;
#X connect 143 1 148 0;
#X connect 143 2 147 0;
#X connect 144 0 145 0;
#X connect 145 0 131 0;
#X connect 146 0 145 0;
#X connect 147 0 138 0;
#X connect 147 1 139 0;
#X connect 148 0 135 0;
#X connect 148 1 136 0;
#X connect 149 0 133 0;
#X connect 149 1 134 0;
#X connect 150 0 143 0;
#X connect 151 0 143 0;
#X connect 152 0 143 0;
#X connect 154 0 163 0;
#X connect 154 1 155 0;
#X connect 155 0 156 0;
#X connect 155 0 163 1;
#X connect 156 0 155 1;
#X connect 157 0 155 1;
#X connect 158 0 159 0;
#X connect 159 0 154 0;
#X connect 159 0 165 0;
#X connect 159 0 178 0;
#X connect 160 0 158 0;
#X connect 161 0 160 0;
#X connect 161 1 157 0;
#X connect 161 1 166 0;
#X connect 161 1 177 0;
#X connect 162 0 161 0;
#X connect 166 0 165 0;
#X connect 168 0 143 0;
#X connect 169 0 143 0;
#X connect 170 0 174 0;
#X connect 171 0 173 0;
#X connect 171 1 157 0;
#X connect 172 0 171 0;
#X connect 173 0 154 0;
#X connect 175 0 162 0;
#X connect 177 0 176 0;
#X connect 178 0 176 0;
#X connect 179 0 215 0;
#X connect 179 1 157 0;
#X connect 180 0 179 0;
#X connect 181 0 213 0;
#X connect 181 1 157 0;
#X connect 182 0 181 0;
#X connect 183 0 214 0;
#X connect 183 1 157 0;
#X connect 184 0 183 0;
#X connect 185 0 216 0;
#X connect 185 1 157 0;
#X connect 186 0 185 0;
#X connect 187 0 212 0;
#X connect 187 1 157 0;
#X connect 188 0 187 0;
#X connect 189 0 172 0;
#X connect 189 1 180 0;
#X connect 189 2 184 0;
#X connect 189 3 182 0;
#X connect 189 4 186 0;
#X connect 189 5 188 0;
#X connect 189 6 221 0;
#X connect 189 7 223 0;
#X connect 189 8 235 0;
#X connect 190 0 143 0;
#X connect 212 0 154 0;
#X connect 213 0 154 0;
#X connect 214 0 154 0;
#X connect 215 0 154 0;
#X connect 216 0 154 0;
#X connect 217 0 117 0;
#X connect 217 0 115 0;
#X connect 218 0 107 0;
#X connect 220 0 242 0;
#X connect 220 1 157 0;
#X connect 221 0 220 0;
#X connect 222 0 241 0;
#X connect 222 1 157 0;
#X connect 223 0 222 0;
#X connect 225 0 38 0;
#X connect 226 0 88 0;
#X connect 227 0 89 0;
#X connect 228 0 86 0;
#X connect 229 0 87 0;
#X connect 230 0 84 0;
#X connect 231 0 85 0;
#X connect 232 0 81 0;
#X connect 233 0 82 0;
#X connect 234 0 248 0;
#X connect 234 1 157 0;
#X connect 235 0 234 0;
#X connect 236 0 107 0;
#X connect 237 0 107 0;
#X connect 241 0 154 0;
#X connect 242 0 154 0;
#X connect 244 0 107 0;
#X connect 245 0 170 0;
#X connect 245 0 246 0;
#X connect 248 0 154 0;
#X connect 249 0 107 0;
#X coords 0 -1 1 1 408 260 2 155 400;
