#N canvas 946 154 1389 727 10;
#X obj 213 570 s numelems;
#X obj 213 549 s rhythmrate;
#X obj 213 507 s rhythmsinglevalue;
#X obj 213 528 s rhythmepsilon;
#X obj 213 486 s rhythmexponent;
#X obj 146 597 r rhythmoutput;
#X obj 293 615 Gate;
#X obj 213 175 r rhythmexponent-receive;
#X obj 213 90 r rhythmrate-receive;
#X obj 213 111 r rhythmsinglevalue-receive;
#X obj 213 132 r rhythmepsilon-receive;
#X obj 213 69 r rhythmvolume-receive;
#X obj 348 523 t f f;
#X obj 106 25 r rhythmdriver-receive;
#X obj 106 486 s rhythmdriver;
#X obj 213 153 r rhythmnumelems-receive;
#X obj 570 493 t b f;
#X obj 106 3 r rhythm-presets-receive;
#X obj 101 211 cnv 15 406 258 empty empty empty 20 12 0 14 -233017
-66577 0;
#X obj 213 300 nbx 3 20 -1e+37 1e+37 0 0 empty empty empty 0 -8 0 15
-262144 -1 -1 0 256;
#X obj 213 336 nbx 3 20 -1e+37 1e+37 0 0 empty empty empty 0 -8 0 15
-262144 -1 -1 0 256;
#X obj 213 373 nbx 4 20 -1e+37 1e+37 0 0 empty empty empty 0 -8 0 15
-262144 -1 -1 0 256;
#X text 211 285 Rate;
#X text 211 358 Epsilon;
#X obj 213 447 nbx 3 20 -1e+37 1e+37 0 0 empty empty empty 0 -8 0 15
-262144 -1 -1 0 256;
#X text 211 432 Exp;
#X obj 213 232 tgl 13 0 empty empty empty 17 7 0 10 -262144 -1 -1 0
1;
#X obj 106 416 vradio 13 1 0 3 empty empty empty 0 -8 0 10 -262144
-1 -1 0;
#X obj 213 411 nbx 3 20 -1e+37 1e+37 0 0 empty empty empty 0 -8 0 15
-262144 -1 -1 0 256;
#X text 211 396 Num Elems;
#X obj 247 232 bng 13 250 50 0 empty empty empty 17 7 0 10 -262144
-1 -1;
#X text 106 401 DRIVERS;
#X obj 106 230 vradio 13 1 0 12 empty empty empty 0 -8 0 10 -262144
-1 -1 10;
#X text 208 214 VOL;
#X text 230 214 SHUFFLE;
#X text 211 321 Sing Val;
#X text 102 212 RHYTHMER PRESETS;
#X obj 288 211 cnv 15 220 258 empty empty empty 20 12 0 14 -262144
-66577 0;
#N canvas 43 85 723 507 (subpatch) 0;
#X array array1 8 float 3;
#A 0 1 1.39474 1.94531 1.69441 0 0 2.36327 0;
#X coords 0 15 8 0 220 258 2 0 0;
#X restore 287 211 graph;
#X obj 415 1 r auxknob-7;
#X obj 415 53 -;
#X obj 415 31 t f f;
#X obj 415 75 > 0;
#X obj 415 96 sel 1 0;
#X msg 415 120 1;
#X msg 454 120 -1;
#X obj 419 149 +;
#X text 483 211 ''';
#X obj 356 493 s randomize_rhythm_presets;
#X text 120 415 Rand \; Sing \; Feedb;
#X obj 125 622 Gate;
#X msg 594 825 \; rhythmdriver-receive \$1 \; rhythmtarget-receive
\$2 \; rhythmvolume-receive \$3 \; rhythmrate-receive \$4 \; rhythmsinglevalue-receive
\$5 \; rhythmepsilon-receive \$6 \; rhythmnumelems-receive \$7 \; rhythmexponent-receive
\$8 \; rhythmstartstop \$9 \; justvolume \$10 \; walker-preset-zero
bang \;;
#X msg 597 803 0 0 0 125 0 0.01 8 1 0 1;
#X obj 125 574 r justvolume;
#X msg 610 779 99 99 1 125 0 0.01 8 10 1 2;
#X obj 789 945 s gliss-length-receive;
#X msg 789 916 20;
#X obj 789 887 s to_gliss_presets;
#X msg 789 858 6;
#X text 779 780 VOLUME;
#X text 751 804 OFF;
#X text 788 756 NEW RAND;
#X text 806 709 BEAT SING;
#X text 829 684 DARK GRIND;
#X text 843 660 LIGHT HOP;
#X msg 651 707 1 3 0 125 0 0.01 8 3 1 1;
#X msg 678 659 1 5 0 125 0 0.01 8 2.5 1 1;
#X obj 375 633 sel 0 1 2 3 4 5 6 7, f 22;
#X msg 228 913 \; rhythm-vol-0 \$1;
#X msg 228 892 0;
#X msg 250 871 1;
#X msg 334 892 0;
#X msg 356 871 1;
#X msg 334 913 \; rhythm-vol-1 \$1;
#X msg 444 893 0;
#X msg 466 871 1;
#X msg 444 914 \; rhythm-vol-2 \$1;
#X msg 423 738 1 1 1;
#X msg 440 717 0 0 0;
#X obj 375 832 unpack f f f;
#X obj 375 546 == 0;
#X msg 375 577 3;
#X obj 416 546 loadbang;
#X obj 444 851 sel 0 1;
#X obj 334 850 sel 0 1;
#X obj 228 850 sel 0 1;
#X msg 375 801 1 0 0;
#X msg 391 780 0 1 0;
#X msg 407 759 0 0 1;
#X text 409 571 To reset all ugen \; output levels to 1;
#X text 324 635 Volume;
#X msg 472 675 1 0 0;
#X msg 488 654 0 0 1;
#X obj 125 673 tabread rhythmer_presets;
#X obj 125 695 s to_secondary_globals;
#X msg 456 696 1 1 1;
#X obj 899 677 bng 15 250 50 0 empty empty empty 17 7 0 10 -262144
-1 -1;
#X text 851 636 FED-BACK 1;
#X text 869 612 FED-BACK 2;
#X msg 691 635 2 6 1 125 0 0.01 10 7 1 1;
#X obj 125 644 % 8;
#X floatatom 167 652 5 0 0 0 - - -, f 5;
#X msg 624 755 0 1 0 125 0 0.01 8 6.5 1 1;
#X msg 705 611 2 7 0 125 0 0.01 16 16 1 1;
#X msg 718 587 2 8 0 125 0 0.01 12 2 1 1;
#X msg 738 567 2 9 0 125 0 0.01 16 2 1 1;
#X obj 247 268 bng 13 250 50 0 empty empty empty 17 7 0 10 -262144
-1 -1;
#X text 224 250 RANDOMIZE;
#X msg 637 731 1 2 0 125 0 0.01 8 3 1 1;
#X text 789 732 GRAY GRIND;
#X obj 597 522 sel 0 1 2 3 4 5 6 7 8 9 10 11;
#X msg 758 547 2 10 0 125 0 0.01 16 2 1 1;
#X text 121 228 ALL OFF \; VOL \; NEW RAND \; GRAY GRIND \; BEAT SING
\; DARK GRIND \; LIGHT HOP \; FED-BACK 1 \; FED-BACK 2 \; FED-BACK
3 \; FED-BACK 4 \; WHOKNOWS... \;;
#X msg 664 683 1 4 0 125 0 0.01 8 2.3 1 1;
#X obj 247 25 r rhythmer-randomize;
#X obj 247 47 r rhythmer-shuffle;
#X obj 431 523 s rhythm-from-shuffle;
#X obj 381 176 r rhythm-to-shuffle;
#X obj 570 593 s rhythm-to-shuffle;
#X obj 13 926 RhythmerSF-ShufflerSF;
#X obj 23 887 RhythmerSF-Targets;
#X connect 5 0 6 1;
#X connect 5 0 50 1;
#X connect 6 0 67 0;
#X connect 7 0 24 0;
#X connect 8 0 19 0;
#X connect 9 0 20 0;
#X connect 10 0 21 0;
#X connect 11 0 26 0;
#X connect 12 0 6 0;
#X connect 12 1 80 0;
#X connect 13 0 27 0;
#X connect 15 0 28 0;
#X connect 16 0 118 0;
#X connect 16 1 110 0;
#X connect 17 0 32 0;
#X connect 19 0 1 0;
#X connect 19 0 46 1;
#X connect 20 0 2 0;
#X connect 21 0 3 0;
#X connect 24 0 4 0;
#X connect 26 0 12 0;
#X connect 27 0 14 0;
#X connect 28 0 0 0;
#X connect 30 0 116 0;
#X connect 32 0 16 0;
#X connect 39 0 41 0;
#X connect 40 0 42 0;
#X connect 41 0 40 1;
#X connect 41 1 40 0;
#X connect 42 0 43 0;
#X connect 43 0 44 0;
#X connect 43 1 45 0;
#X connect 44 0 46 0;
#X connect 45 0 46 0;
#X connect 46 0 19 0;
#X connect 50 0 100 0;
#X connect 52 0 51 0;
#X connect 53 0 50 0;
#X connect 54 0 51 0;
#X connect 56 0 55 0;
#X connect 58 0 57 0;
#X connect 65 0 51 0;
#X connect 66 0 51 0;
#X connect 66 0 96 0;
#X connect 67 0 86 0;
#X connect 67 1 87 0;
#X connect 67 2 88 0;
#X connect 67 3 77 0;
#X connect 67 4 78 0;
#X connect 67 5 95 0;
#X connect 67 6 91 0;
#X connect 67 7 92 0;
#X connect 69 0 68 0;
#X connect 70 0 68 0;
#X connect 71 0 73 0;
#X connect 72 0 73 0;
#X connect 74 0 76 0;
#X connect 75 0 76 0;
#X connect 77 0 79 0;
#X connect 78 0 79 0;
#X connect 79 0 85 0;
#X connect 79 1 84 0;
#X connect 79 2 83 0;
#X connect 80 0 81 0;
#X connect 81 0 67 0;
#X connect 82 0 81 0;
#X connect 83 0 74 0;
#X connect 83 1 75 0;
#X connect 84 0 71 0;
#X connect 84 1 72 0;
#X connect 85 0 69 0;
#X connect 85 1 70 0;
#X connect 86 0 79 0;
#X connect 87 0 79 0;
#X connect 88 0 79 0;
#X connect 91 0 79 0;
#X connect 92 0 79 0;
#X connect 93 0 94 0;
#X connect 95 0 79 0;
#X connect 96 0 58 0;
#X connect 96 0 56 0;
#X connect 99 0 51 0;
#X connect 100 0 93 0;
#X connect 100 0 101 0;
#X connect 102 0 51 0;
#X connect 103 0 51 0;
#X connect 104 0 51 0;
#X connect 105 0 51 0;
#X connect 106 0 48 0;
#X connect 108 0 51 0;
#X connect 110 0 52 0;
#X connect 110 1 54 0;
#X connect 110 2 102 0;
#X connect 110 3 108 0;
#X connect 110 4 65 0;
#X connect 110 5 113 0;
#X connect 110 6 66 0;
#X connect 110 7 99 0;
#X connect 110 8 103 0;
#X connect 110 9 104 0;
#X connect 110 10 105 0;
#X connect 110 11 111 0;
#X connect 111 0 51 0;
#X connect 113 0 51 0;
#X connect 114 0 106 0;
#X connect 115 0 30 0;
#X connect 117 0 30 0;
#X coords 0 -1 1 1 408 260 2 100 210;
