#N canvas -10 19 960 984 10;
#X obj 23 13 r rhythmtarget-receive;
#X obj 23 376 t f b;
#X obj 74 398 f;
#X obj 107 398 + 1;
#X msg 65 356 0;
#X obj 23 442 tabwrite rhythmer_presets;
#X obj 23 464 table rhythmer_presets;
#X obj 23 116 t b b;
#X obj 23 97 bng 15 250 50 0 empty empty empty 17 7 0 10 #fcfcfc #000000
#000000;
#X msg 23 138 0 \, 0 \, 0 \, 0 \, 0 \, 0 \, 0 \, 0;
#X obj 65 116 t b b;
#X obj 65 97 bng 15 250 50 0 empty empty empty 17 7 0 10 #fcfcfc #000000
#000000;
#X obj 151 116 t b b;
#X obj 151 97 bng 15 250 50 0 empty empty empty 17 7 0 10 #fcfcfc #000000
#000000;
#X obj 108 116 t b b;
#X obj 108 97 bng 15 250 50 0 empty empty empty 17 7 0 10 #fcfcfc #000000
#000000;
#X obj 194 116 t b b;
#X obj 194 97 bng 15 250 50 0 empty empty empty 17 7 0 10 #fcfcfc #000000
#000000;
#X obj 237 116 t b b;
#X obj 237 97 bng 15 250 50 0 empty empty empty 17 7 0 10 #fcfcfc #000000
#000000;
#X text 473 160 NEW RAND;
#X text 492 204 BEAT SING;
#X text 502 226 DARK GRIND;
#X text 512 248 LIGHT HOP;
#X text 462 139 ALL OFF;
#X msg 151 204 3 \, 6 \, 2 \, 9 \, 2 \, 2 \, 13 \, 10;
#X msg 65 160 15 \, 0 \, 9 \, 4 \, 12 \, 3 \, 6 \, 14;
#X msg 194 226 13 \, 13 \, 5 \, 13 \, 3 \, 7 \, 9 \, 6;
#X obj 279 116 t b b;
#X obj 279 97 bng 15 250 50 0 empty empty empty 17 7 0 10 #fcfcfc #000000
#000000;
#X obj 321 116 t b b;
#X obj 321 97 bng 15 250 50 0 empty empty empty 17 7 0 10 #fcfcfc #000000
#000000;
#X obj 365 116 t b b;
#X obj 365 97 bng 15 250 50 0 empty empty empty 17 7 0 10 #fcfcfc #000000
#000000;
#X text 523 270 FED-BACK 1;
#X text 532 292 FED-BACK 2;
#X text 544 315 FED-BACK 3;
#X msg 279 270 2 \, 3 \, 3 \, 4 \, 5 \, 6 \, 7 \, 8;
#X obj 407 116 t b b;
#X obj 407 97 bng 15 250 50 0 empty empty empty 17 7 0 10 #fcfcfc #000000
#000000;
#X msg 237 248 3 \, 12 \, 13 \, 7 \, 2 \, 14 \, 10 \, 3;
#X text 482 183 GRAY GRIND;
#X obj 23 75 sel 0 1 2 3 4 5 6 7 8 9 10, f 79;
#X obj 451 116 t b b;
#X obj 451 97 bng 15 250 50 0 empty empty empty 17 7 0 10 #fcfcfc #000000
#000000;
#X msg 321 292 1 \, 2 \, 3 \, 4 \, 5 \, 6 \, 7 \, 8;
#X msg 365 314 7 \, 9 \, 10 \, 7 \, 9 \, 12 \, 5 \, 9;
#X obj 653 376 t f b;
#X obj 703 397 f;
#X obj 736 397 + 1;
#X msg 695 356 0;
#X obj 653 116 t b b;
#X obj 653 97 bng 15 250 50 0 empty empty empty 17 7 0 10 #fcfcfc #000000
#000000;
#X msg 653 138 0 \, 0 \, 0 \, 0 \, 0 \, 0 \, 0 \, 0;
#X obj 695 116 t b b;
#X obj 695 97 bng 15 250 50 0 empty empty empty 17 7 0 10 #fcfcfc #000000
#000000;
#X obj 781 116 t b b;
#X obj 781 97 bng 15 250 50 0 empty empty empty 17 7 0 10 #fcfcfc #000000
#000000;
#X obj 738 116 t b b;
#X obj 738 97 bng 15 250 50 0 empty empty empty 17 7 0 10 #fcfcfc #000000
#000000;
#X obj 824 116 t b b;
#X obj 824 97 bng 15 250 50 0 empty empty empty 17 7 0 10 #fcfcfc #000000
#000000;
#X obj 867 116 t b b;
#X obj 867 97 bng 15 250 50 0 empty empty empty 17 7 0 10 #fcfcfc #000000
#000000;
#X text 1103 160 NEW RAND;
#X text 1122 204 BEAT SING;
#X text 1132 226 DARK GRIND;
#X text 1142 248 LIGHT HOP;
#X text 1092 139 ALL OFF;
#X obj 909 116 t b b;
#X obj 909 97 bng 15 250 50 0 empty empty empty 17 7 0 10 #fcfcfc #000000
#000000;
#X obj 951 116 t b b;
#X obj 951 97 bng 15 250 50 0 empty empty empty 17 7 0 10 #fcfcfc #000000
#000000;
#X obj 995 116 t b b;
#X obj 995 97 bng 15 250 50 0 empty empty empty 17 7 0 10 #fcfcfc #000000
#000000;
#X text 1153 270 FED-BACK 1;
#X text 1192 292 FED-BACK 2;
#X text 1232 315 FED-BACK 3;
#X obj 1037 116 t b b;
#X obj 1037 97 bng 15 250 50 0 empty empty empty 17 7 0 10 #fcfcfc
#000000 #000000;
#X text 1112 183 GRAY GRIND;
#X obj 653 75 sel 0 1 2 3 4 5 6 7 8 9 10, f 79;
#X obj 1081 116 t b b;
#X obj 1081 97 bng 15 250 50 0 empty empty empty 17 7 0 10 #fcfcfc
#000000 #000000;
#X obj 23 814 t f b;
#X obj 80 832 f;
#X obj 113 832 + 1;
#X msg 65 794 0;
#X obj 23 554 t b b;
#X obj 23 535 bng 15 250 50 0 empty empty empty 17 7 0 10 #fcfcfc #000000
#000000;
#X msg 23 576 0 \, 0 \, 0 \, 0 \, 0 \, 0 \, 0 \, 0;
#X obj 65 554 t b b;
#X obj 65 535 bng 15 250 50 0 empty empty empty 17 7 0 10 #fcfcfc #000000
#000000;
#X obj 151 554 t b b;
#X obj 151 535 bng 15 250 50 0 empty empty empty 17 7 0 10 #fcfcfc
#000000 #000000;
#X obj 108 554 t b b;
#X obj 108 535 bng 15 250 50 0 empty empty empty 17 7 0 10 #fcfcfc
#000000 #000000;
#X obj 194 554 t b b;
#X obj 194 535 bng 15 250 50 0 empty empty empty 17 7 0 10 #fcfcfc
#000000 #000000;
#X obj 237 554 t b b;
#X obj 237 535 bng 15 250 50 0 empty empty empty 17 7 0 10 #fcfcfc
#000000 #000000;
#X text 473 598 NEW RAND;
#X text 492 642 BEAT SING;
#X text 502 664 DARK GRIND;
#X text 512 686 LIGHT HOP;
#X text 462 577 ALL OFF;
#X obj 279 554 t b b;
#X obj 279 535 bng 15 250 50 0 empty empty empty 17 7 0 10 #fcfcfc
#000000 #000000;
#X obj 321 554 t b b;
#X obj 321 535 bng 15 250 50 0 empty empty empty 17 7 0 10 #fcfcfc
#000000 #000000;
#X obj 365 554 t b b;
#X obj 365 535 bng 15 250 50 0 empty empty empty 17 7 0 10 #fcfcfc
#000000 #000000;
#X text 523 708 FED-BACK 1;
#X text 532 730 FED-BACK 2;
#X text 544 753 FED-BACK 3;
#X obj 407 554 t b b;
#X obj 407 535 bng 15 250 50 0 empty empty empty 17 7 0 10 #fcfcfc
#000000 #000000;
#X text 482 621 GRAY GRIND;
#X obj 23 513 sel 0 1 2 3 4 5 6 7 8 9 10, f 79;
#X obj 451 554 t b b;
#X obj 451 535 bng 15 250 50 0 empty empty empty 17 7 0 10 #fcfcfc
#000000 #000000;
#X obj 23 878 tabwrite rhythmer_glisses;
#X obj 23 900 table rhythmer_glisses;
#X obj 653 804 t f b;
#X obj 680 846 f;
#X obj 713 846 + 1;
#X msg 695 784 0;
#X obj 653 544 t b b;
#X obj 653 525 bng 15 250 50 0 empty empty empty 17 7 0 10 #fcfcfc
#000000 #000000;
#X msg 653 566 0 \, 0 \, 0 \, 0 \, 0 \, 0 \, 0 \, 0;
#X obj 695 544 t b b;
#X obj 695 525 bng 15 250 50 0 empty empty empty 17 7 0 10 #fcfcfc
#000000 #000000;
#X obj 781 544 t b b;
#X obj 781 525 bng 15 250 50 0 empty empty empty 17 7 0 10 #fcfcfc
#000000 #000000;
#X obj 738 544 t b b;
#X obj 738 525 bng 15 250 50 0 empty empty empty 17 7 0 10 #fcfcfc
#000000 #000000;
#X obj 824 544 t b b;
#X obj 824 525 bng 15 250 50 0 empty empty empty 17 7 0 10 #fcfcfc
#000000 #000000;
#X obj 867 544 t b b;
#X obj 867 525 bng 15 250 50 0 empty empty empty 17 7 0 10 #fcfcfc
#000000 #000000;
#X text 1103 588 NEW RAND;
#X text 1122 632 BEAT SING;
#X text 1132 654 DARK GRIND;
#X text 1142 676 LIGHT HOP;
#X text 1092 567 ALL OFF;
#X msg 781 632 3 \, 6 \, 2 \, 9 \, 2 \, 2 \, 13 \, 10;
#X msg 824 654 13 \, 13 \, 5 \, 13 \, 3 \, 7 \, 9 \, 6;
#X obj 909 544 t b b;
#X obj 909 525 bng 15 250 50 0 empty empty empty 17 7 0 10 #fcfcfc
#000000 #000000;
#X obj 951 544 t b b;
#X obj 951 525 bng 15 250 50 0 empty empty empty 17 7 0 10 #fcfcfc
#000000 #000000;
#X obj 995 544 t b b;
#X obj 995 525 bng 15 250 50 0 empty empty empty 17 7 0 10 #fcfcfc
#000000 #000000;
#X text 1153 698 FED-BACK 1;
#X text 1162 720 FED-BACK 2;
#X text 1174 743 FED-BACK 3;
#X msg 909 698 2 \, 3 \, 3 \, 4 \, 5 \, 6 \, 7 \, 8;
#X obj 1037 544 t b b;
#X obj 1037 525 bng 15 250 50 0 empty empty empty 17 7 0 10 #fcfcfc
#000000 #000000;
#X msg 738 610 12 \, 20 \, 5 \, 23 \, 13 \, 19 \, 23 \, 10;
#X msg 867 676 3 \, 12 \, 13 \, 7 \, 2 \, 14 \, 10 \, 3;
#X msg 1037 764 17 \, 4 \, 6 \, 11 \, 22 \, 23 \, 11 \, 19;
#X obj 653 503 sel 0 1 2 3 4 5 6 7 8 9 10, f 79;
#X obj 1081 544 t b b;
#X obj 1081 525 bng 15 250 50 0 empty empty empty 17 7 0 10 #fcfcfc
#000000 #000000;
#X msg 951 720 1 \, 2 \, 3 \, 4 \, 5 \, 6 \, 7 \, 8;
#X msg 995 742 7 \, 9 \, 10 \, 7 \, 9 \, 12 \, 5 \, 9;
#X obj 653 868 tabwrite rhythmer_volumes;
#X obj 653 890 table rhythmer_volumes;
#X obj 652 441 tabwrite rhythmer_durations;
#X obj 652 463 table rhythmer_durations;
#X msg 695 160 125 \, 125 \, 125 \, 125 \, 125 \, 125 \, 125 \, 125
;
#X msg 738 182 125 \, 125 \, 125 \, 125 \, 125 \, 125 \, 125 \, 125
;
#X msg 781 204 125 \, 125 \, 125 \, 125 \, 125 \, 125 \, 125 \, 125
;
#X msg 824 226 125 \, 125 \, 125 \, 125 \, 125 \, 125 \, 125 \, 125
;
#X msg 867 248 125 \, 125 \, 125 \, 125 \, 125 \, 125 \, 125 \, 125
;
#X msg 909 270 125 \, 125 \, 125 \, 125 \, 125 \, 125 \, 125 \, 125
;
#X msg 951 292 125 \, 125 \, 125 \, 125 \, 125 \, 125 \, 125 \, 125
;
#X msg 995 314 125 \, 125 \, 125 \, 125 \, 125 \, 125 \, 125 \, 125
;
#X msg 1037 336 125 \, 125 \, 125 \, 125 \, 125 \, 125 \, 125 \, 125
;
#X msg 65 598 0 \, 0 \, 0 \, 0 \, 0 \, 0 \, 0 \, 0;
#X msg 108 620 0 \, 0 \, 0 \, 0 \, 0 \, 0 \, 0 \, 0;
#X msg 151 642 0 \, 0 \, 0 \, 0 \, 0 \, 0 \, 0 \, 0;
#X msg 279 708 0 \, 0 \, 0 \, 0 \, 0 \, 0 \, 0 \, 0;
#X msg 321 730 0 \, 0 \, 0 \, 0 \, 0 \, 0 \, 0 \, 0;
#X msg 365 752 0 \, 0 \, 0 \, 0 \, 0 \, 0 \, 0 \, 0;
#X msg 407 774 0 \, 0 \, 0 \, 0 \, 0 \, 0 \, 0 \, 0;
#X msg 237 686 6 \, 6 \, 6 \, 6 \, 6 \, 6 \, 6 \, 6;
#X msg 194 664 0 \, 0 \, 3 \, 0 \, 3 \, 0 \, 3 \, 0;
#X text 995 46 RANDOM = 888;
#X obj 23 398 sel 888;
#X obj 23 420 random 24;
#X obj 653 398 sel 888;
#X obj 653 420 random 100;
#X obj 623 420 + 50;
#X obj 23 835 sel 888;
#X obj 23 857 random 4;
#X obj 614 825 sel 888;
#X obj 614 847 random 4;
#X msg 371 358 888 \, 888 \, 888 \, 888 \, 888 \, 888 \, 888 \, 888
;
#X msg 1081 358 888 \, 888 \, 888 \, 888 \, 888 \, 888 \, 888 \, 888
;
#X msg 331 796 888 \, 888 \, 888 \, 888 \, 888 \, 888 \, 888 \, 888
;
#X obj 247 51 t f f f f;
#X obj 23 33 sel 999;
#X msg 695 588 0 \, 1 \, 2 \, 3 \, 0 \, 1 \, 2 \, 3;
#X msg 1081 786 888 \, 888 \, 888 \, 888 \, 888 \, 888 \, 888 \, 888
;
#X text 1112 611 GRAY GRIND;
#X text 584 336 FED-BACK 4;
#X text 604 359 TRANS;
#X msg 108 182 12 \, 13 \, 5 \, 13 \, 13 \, 13 \, 13 \, 10;
#X msg 407 336 15 \, 4 \, 8 \, 11 \, 12 \, 13 \, 11 \, 9;
#X connect 0 0 203 0;
#X connect 1 0 190 0;
#X connect 1 1 2 0;
#X connect 2 0 3 0;
#X connect 2 0 5 1;
#X connect 3 0 2 1;
#X connect 4 0 2 1;
#X connect 7 0 9 0;
#X connect 7 1 4 0;
#X connect 8 0 7 0;
#X connect 9 0 1 0;
#X connect 10 0 26 0;
#X connect 10 1 4 0;
#X connect 11 0 10 0;
#X connect 12 0 25 0;
#X connect 12 1 4 0;
#X connect 13 0 12 0;
#X connect 14 0 209 0;
#X connect 14 1 4 0;
#X connect 15 0 14 0;
#X connect 16 0 27 0;
#X connect 16 1 4 0;
#X connect 17 0 16 0;
#X connect 18 0 40 0;
#X connect 18 1 4 0;
#X connect 19 0 18 0;
#X connect 25 0 1 0;
#X connect 26 0 1 0;
#X connect 27 0 1 0;
#X connect 28 0 37 0;
#X connect 28 1 4 0;
#X connect 29 0 28 0;
#X connect 30 0 45 0;
#X connect 30 1 4 0;
#X connect 31 0 30 0;
#X connect 32 0 46 0;
#X connect 32 1 4 0;
#X connect 33 0 32 0;
#X connect 37 0 1 0;
#X connect 38 0 210 0;
#X connect 38 1 4 0;
#X connect 39 0 38 0;
#X connect 40 0 1 0;
#X connect 42 0 8 0;
#X connect 42 1 11 0;
#X connect 42 2 15 0;
#X connect 42 3 13 0;
#X connect 42 4 17 0;
#X connect 42 5 19 0;
#X connect 42 6 29 0;
#X connect 42 7 31 0;
#X connect 42 8 33 0;
#X connect 42 9 39 0;
#X connect 42 10 44 0;
#X connect 43 0 199 0;
#X connect 43 1 4 0;
#X connect 44 0 43 0;
#X connect 45 0 1 0;
#X connect 46 0 1 0;
#X connect 47 0 192 0;
#X connect 47 1 48 0;
#X connect 48 0 49 0;
#X connect 48 0 169 1;
#X connect 49 0 48 1;
#X connect 50 0 48 1;
#X connect 51 0 53 0;
#X connect 51 1 50 0;
#X connect 52 0 51 0;
#X connect 53 0 47 0;
#X connect 54 0 171 0;
#X connect 54 1 50 0;
#X connect 55 0 54 0;
#X connect 56 0 173 0;
#X connect 56 1 50 0;
#X connect 57 0 56 0;
#X connect 58 0 172 0;
#X connect 58 1 50 0;
#X connect 59 0 58 0;
#X connect 60 0 174 0;
#X connect 60 1 50 0;
#X connect 61 0 60 0;
#X connect 62 0 175 0;
#X connect 62 1 50 0;
#X connect 63 0 62 0;
#X connect 69 0 176 0;
#X connect 69 1 50 0;
#X connect 70 0 69 0;
#X connect 71 0 177 0;
#X connect 71 1 50 0;
#X connect 72 0 71 0;
#X connect 73 0 178 0;
#X connect 73 1 50 0;
#X connect 74 0 73 0;
#X connect 78 0 179 0;
#X connect 78 1 50 0;
#X connect 79 0 78 0;
#X connect 81 0 52 0;
#X connect 81 1 55 0;
#X connect 81 2 59 0;
#X connect 81 3 57 0;
#X connect 81 4 61 0;
#X connect 81 5 63 0;
#X connect 81 6 70 0;
#X connect 81 7 72 0;
#X connect 81 8 74 0;
#X connect 81 9 79 0;
#X connect 81 10 83 0;
#X connect 82 0 200 0;
#X connect 82 1 50 0;
#X connect 83 0 82 0;
#X connect 84 0 195 0;
#X connect 84 1 85 0;
#X connect 85 0 86 0;
#X connect 85 0 121 1;
#X connect 86 0 85 1;
#X connect 87 0 85 1;
#X connect 88 0 90 0;
#X connect 88 1 87 0;
#X connect 89 0 88 0;
#X connect 90 0 84 0;
#X connect 91 0 180 0;
#X connect 91 1 87 0;
#X connect 92 0 91 0;
#X connect 93 0 182 0;
#X connect 93 1 87 0;
#X connect 94 0 93 0;
#X connect 95 0 181 0;
#X connect 95 1 87 0;
#X connect 96 0 95 0;
#X connect 97 0 188 0;
#X connect 97 1 87 0;
#X connect 98 0 97 0;
#X connect 99 0 187 0;
#X connect 99 1 87 0;
#X connect 100 0 99 0;
#X connect 106 0 183 0;
#X connect 106 1 87 0;
#X connect 107 0 106 0;
#X connect 108 0 184 0;
#X connect 108 1 87 0;
#X connect 109 0 108 0;
#X connect 110 0 185 0;
#X connect 110 1 87 0;
#X connect 111 0 110 0;
#X connect 115 0 186 0;
#X connect 115 1 87 0;
#X connect 116 0 115 0;
#X connect 118 0 89 0;
#X connect 118 1 92 0;
#X connect 118 2 96 0;
#X connect 118 3 94 0;
#X connect 118 4 98 0;
#X connect 118 5 100 0;
#X connect 118 6 107 0;
#X connect 118 7 109 0;
#X connect 118 8 111 0;
#X connect 118 9 116 0;
#X connect 118 10 120 0;
#X connect 119 0 201 0;
#X connect 119 1 87 0;
#X connect 120 0 119 0;
#X connect 123 0 197 0;
#X connect 123 1 124 0;
#X connect 124 0 125 0;
#X connect 124 0 167 1;
#X connect 125 0 124 1;
#X connect 126 0 124 1;
#X connect 127 0 129 0;
#X connect 127 1 126 0;
#X connect 128 0 127 0;
#X connect 129 0 123 0;
#X connect 130 0 204 0;
#X connect 130 1 126 0;
#X connect 131 0 130 0;
#X connect 132 0 145 0;
#X connect 132 1 126 0;
#X connect 133 0 132 0;
#X connect 134 0 159 0;
#X connect 134 1 126 0;
#X connect 135 0 134 0;
#X connect 136 0 146 0;
#X connect 136 1 126 0;
#X connect 137 0 136 0;
#X connect 138 0 160 0;
#X connect 138 1 126 0;
#X connect 139 0 138 0;
#X connect 145 0 123 0;
#X connect 146 0 123 0;
#X connect 147 0 156 0;
#X connect 147 1 126 0;
#X connect 148 0 147 0;
#X connect 149 0 165 0;
#X connect 149 1 126 0;
#X connect 150 0 149 0;
#X connect 151 0 166 0;
#X connect 151 1 126 0;
#X connect 152 0 151 0;
#X connect 156 0 123 0;
#X connect 157 0 161 0;
#X connect 157 1 126 0;
#X connect 158 0 157 0;
#X connect 159 0 123 0;
#X connect 160 0 123 0;
#X connect 161 0 123 0;
#X connect 162 0 128 0;
#X connect 162 1 131 0;
#X connect 162 2 135 0;
#X connect 162 3 133 0;
#X connect 162 4 137 0;
#X connect 162 5 139 0;
#X connect 162 6 148 0;
#X connect 162 7 150 0;
#X connect 162 8 152 0;
#X connect 162 9 158 0;
#X connect 162 10 164 0;
#X connect 163 0 205 0;
#X connect 163 1 126 0;
#X connect 164 0 163 0;
#X connect 165 0 123 0;
#X connect 166 0 123 0;
#X connect 171 0 47 0;
#X connect 172 0 47 0;
#X connect 173 0 47 0;
#X connect 174 0 47 0;
#X connect 175 0 47 0;
#X connect 176 0 47 0;
#X connect 177 0 47 0;
#X connect 178 0 47 0;
#X connect 179 0 47 0;
#X connect 180 0 84 0;
#X connect 181 0 84 0;
#X connect 182 0 84 0;
#X connect 183 0 84 0;
#X connect 184 0 84 0;
#X connect 185 0 84 0;
#X connect 186 0 84 0;
#X connect 187 0 84 0;
#X connect 188 0 84 0;
#X connect 190 0 191 0;
#X connect 190 1 5 0;
#X connect 191 0 5 0;
#X connect 192 0 193 0;
#X connect 192 1 169 0;
#X connect 193 0 194 0;
#X connect 194 0 169 0;
#X connect 195 0 196 0;
#X connect 195 1 121 0;
#X connect 196 0 121 0;
#X connect 197 0 198 0;
#X connect 197 1 167 0;
#X connect 198 0 167 0;
#X connect 199 0 1 0;
#X connect 200 0 47 0;
#X connect 201 0 84 0;
#X connect 202 0 42 0;
#X connect 202 1 118 0;
#X connect 202 2 162 0;
#X connect 202 3 81 0;
#X connect 203 1 202 0;
#X connect 204 0 123 0;
#X connect 205 0 123 0;
#X connect 209 0 1 0;
#X connect 210 0 1 0;
