#N canvas 20 282 1014 709 12;
#X obj 142 226 random 999;
#X obj 142 248 / 1000;
#X msg 234 273 set \$1;
#X floatatom 219 293 5 0 0 0 - - -;
#X obj 219 383 /;
#X obj 237 321 r numelems;
#X obj 237 352 - 1;
#X obj 251 445 == 0;
#X obj 219 533 +;
#X obj 219 564 outlet;
#X floatatom 381 392 5 0 0 0 - - -;
#X obj 395 306 /;
#X obj 413 263 r numelems;
#X msg 395 328 set \$1;
#X obj 381 544 +;
#X obj 381 421 t f f;
#X obj 219 414 t f f;
#X obj 142 199 spigot;
#X obj 219 161 metro 250;
#X obj 219 199 spigot;
#X obj 251 473 sel 1;
#X floatatom 251 504 5 0 0 0 - - -;
#X msg 269 400 set \$1;
#X text 275 344 epsilon;
#X obj 381 199 spigot;
#X obj 395 240 r rhythmoutput;
#X obj 414 179 unpack f f f;
#X msg 414 153 1 0 0;
#X msg 434 131 0 1 0;
#X msg 454 109 0 0 1;
#X obj 219 142 tgl 15 0 empty empty empty 17 7 0 10 -262144 -1 -1 0
1;
#X obj 269 361 r rhythmepsilon;
#X obj 234 251 r rhythmsinglevalue;
#X obj 219 117 r rhythmstartstop;
#X obj 279 139 r rhythmrate;
#X obj 413 285 - 1;
#X msg 436 524 0;
#X obj 413 475 sel 1 0;
#X obj 414 57 r rhythmdriver;
#X obj 414 83 sel 0 1 2;
#X obj 413 453 == 1;
#X obj 239 83 s rhythmstartstop-send;
#X obj 401 361 r rhythmer-minimum-difference;
#X obj 413 500 f;
#X floatatom 431 392 5 0 0 0 - - -;
#X obj 431 421 * -1;
#X connect 0 0 1 0;
#X connect 1 0 9 0;
#X connect 2 0 3 0;
#X connect 3 0 4 0;
#X connect 4 0 16 0;
#X connect 5 0 6 0;
#X connect 6 0 4 1;
#X connect 7 0 20 0;
#X connect 8 0 9 0;
#X connect 10 0 15 0;
#X connect 11 0 13 0;
#X connect 12 0 35 0;
#X connect 13 0 10 0;
#X connect 14 0 9 0;
#X connect 15 0 14 0;
#X connect 15 1 40 0;
#X connect 16 0 8 0;
#X connect 16 1 7 0;
#X connect 17 0 0 0;
#X connect 18 0 17 0;
#X connect 18 0 19 0;
#X connect 18 0 24 0;
#X connect 19 0 3 0;
#X connect 20 0 21 0;
#X connect 21 0 8 1;
#X connect 22 0 21 0;
#X connect 24 0 10 0;
#X connect 25 0 11 0;
#X connect 26 0 17 1;
#X connect 26 1 19 1;
#X connect 26 2 24 1;
#X connect 27 0 26 0;
#X connect 28 0 26 0;
#X connect 29 0 26 0;
#X connect 30 0 18 0;
#X connect 30 0 41 0;
#X connect 31 0 22 0;
#X connect 32 0 2 0;
#X connect 33 0 30 0;
#X connect 34 0 18 1;
#X connect 35 0 11 1;
#X connect 36 0 14 1;
#X connect 37 0 43 0;
#X connect 37 1 36 0;
#X connect 38 0 39 0;
#X connect 39 0 27 0;
#X connect 39 1 28 0;
#X connect 39 2 29 0;
#X connect 40 0 37 0;
#X connect 42 0 44 0;
#X connect 43 0 14 1;
#X connect 44 0 45 0;
#X connect 45 0 43 1;
