#N canvas 933 131 960 984 10;
#X obj 448 637 s numelems;
#X obj 448 619 s rhythmrate;
#X obj 448 583 s rhythmsinglevalue;
#X obj 448 601 s rhythmepsilon;
#X obj 448 565 s rhythmexponent;
#X obj 448 201 r rhythmexponent-receive;
#X obj 448 129 r rhythmrate-receive;
#X obj 448 147 r rhythmsinglevalue-receive;
#X obj 448 165 r rhythmepsilon-receive;
#X obj 741 319 t f f;
#X obj 286 20 r rhythmdriver-receive;
#X obj 286 516 s rhythmdriver;
#X obj 448 183 r rhythmnumelems-receive;
#X obj 743 506 t b f;
#X obj 281 241 cnv 15 450 258 empty empty empty 20 12 0 14 #e0e0e0
#404040 0;
#X obj 448 363 nbx 3 20 -1e+37 1e+37 0 0 empty empty empty 0 -8 0 15
#fcfcfc #000000 #000000 0 256;
#X obj 448 399 nbx 3 20 -1e+37 1e+37 0 0 empty empty empty 0 -8 0 15
#fcfcfc #000000 #000000 0 256;
#X obj 435 425 nbx 4 20 -1e+37 1e+37 0 0 empty empty empty 0 -8 0 15
#fcfcfc #000000 #000000 0 256;
#X obj 448 477 nbx 3 20 0 1e+37 0 0 empty empty empty 0 -8 0 15 #fcfcfc
#000000 #000000 0 256;
#X obj 391 303 tgl 16 0 empty empty empty 17 7 0 10 #fcfcfc #000000
#000000 0 1;
#X obj 286 454 vradio 13 1 0 3 empty empty empty 0 -8 0 10 #fcfcfc
#000000 #000000 0;
#X obj 448 451 nbx 3 20 -1e+37 1e+37 0 0 empty empty empty 0 -8 0 15
#fcfcfc #000000 #000000 0 256;
#X obj 484 245 bng 18 250 50 0 empty empty empty 17 7 0 10 #fcfcfc
#000000 #000000;
#X text 286 439 DRIVERS;
#X obj 286 260 vradio 13 1 0 11 empty empty empty 0 -8 0 10 #fcfcfc
#000000 #000000 0;
#X text 282 242 RHYTHMER PRESETS;
#X obj 511 241 cnv 15 219 258 empty empty empty 20 12 0 14 #fcfcfc
#404040 0;
#N canvas 43 96 723 507 (subpatch) 0;
#X array array1 8 float 3;
#A 0 0 1.79279 1.39039 1.71177 1.93318 1 1.51572 1.23114;
#X coords 0 15 8 0 220 258 2 0 0;
#X restore 511 241 graph;
#X obj 637 17 r auxknob-7;
#X obj 637 69 -;
#X obj 637 47 t f f;
#X obj 637 91 > 0;
#X obj 637 112 sel 1 0;
#X msg 637 136 1;
#X msg 676 136 -1;
#X obj 641 165 +;
#X text 300 453 Rand \; Sing \; Feedb;
#X text 1019 793 OFF;
#X text 1067 770 NEW RAND;
#X text 1096 723 BEAT SING;
#X text 1120 698 DARK GRIND;
#X text 1134 674 LIGHT HOP;
#X obj 768 406 == 0;
#X msg 768 434 3;
#X text 806 411 To reset all ugen \; output levels to 1;
#X text 1143 650 FED-BACK 1;
#X text 1161 626 FED-BACK 2;
#X text 1080 746 GRAY GRIND;
#X obj 597 557 RhythmerSF-ShufflerSF;
#X obj 607 511 RhythmerSF-Targets;
#X obj 474 335 nbx 1 20 -1e+37 1e+37 0 0 empty empty empty 0 -8 0 15
#fcfcfc #000000 #000000 0 256;
#X obj 473 39 r rhythmgliss-receive;
#X obj 474 511 s rhythmgliss;
#X obj 422 529 s rhythmrandomize;
#X obj 741 227 r rhythmrandomize-receive;
#X obj 743 1044 s rhythmrandomize-receive;
#X obj 391 335 tgl 16 0 empty empty empty 17 7 0 10 #fcfcfc #000000
#000000 0 1;
#X obj 391 363 tgl 16 0 empty empty empty 17 7 0 10 #fcfcfc #000000
#000000 0 1;
#X obj 391 274 tgl 16 0 empty empty empty 17 7 0 10 #fcfcfc #000000
#000000 0 1;
#X text 410 271 SOURCE;
#X obj 741 290 s rhythmer-source-gate;
#X obj 741 455 s rhythmer-volume-gate;
#X obj 780 351 s rhythmer-gliss-gate;
#X obj 780 379 s rhythmer-duration-gate;
#X text 417 478 EXP;
#X text 405 453 ELEMS;
#X text 404 427 EPS;
#X text 411 399 SING;
#X text 417 318 GLISS;
#X obj 461 299 nbx 2 20 -1e+37 1e+37 0 0 empty empty empty 0 -8 0 15
#fcfcfc #000000 #000000 0 256;
#X obj 461 270 nbx 2 20 -1e+37 1e+37 0 0 empty empty empty 0 -8 0 15
#fcfcfc #000000 #000000 0 256;
#X text 412 296 VOLUME;
#X text 633 529 TABLES;
#X text 633 575 STATFEED;
#X obj 461 3 r rhythmsource-receive;
#X obj 461 21 r rhythmvolume-receive;
#X obj 799 319 s rhythmvolume;
#X text 959 530 RHYTHMER PRESETS;
#X obj 391 57 r rhythmer-source-gate-receive;
#X obj 391 75 r rhythmer-volume-gate-receive;
#X obj 391 93 r rhythmer-gliss-gate-receive;
#X obj 391 111 r rhythmer-duration-gate-receive;
#X obj 421 335 nbx 3 20 -1e+37 1e+37 0 0 empty empty empty 0 -8 0 10
#fcfcfc #000000 #000000 0 256;
#X obj 421 547 s rhythmer-gliss-scaler;
#X text 611 187 To attach to DURATION \, and back into \; addition
right inlet.;
#X obj 421 219 r rhythm-gliss-scaler-receive;
#X msg 873 649 2 6 1 1 1 1 125 0 0.01 10 7 999 999 999 0 1;
#X msg 887 625 2 7 1 0 1 1 125 0 0.01 16 16 999 999 999 0 1;
#X msg 901 601 2 8 1 0 1 1 125 0 0.01 12 2 999 999 999 0 1;
#X msg 915 577 2 9 1 0 1 1 125 0 0.01 16 2 999 999 999 0 1;
#X obj 741 268 s rhythmsource;
#X msg 786 814 \; rhythmdriver-receive \$1 \; rhythmtarget-receive
\$2 \; rhythmer-source-gate-receive \$3 \; rhythmer-volume-gate-receive
\$4 \; rhythmer-gliss-gate-receive \$5 \; rhythmer-duration-gate-receive
\$6 \; rhythmrate-receive \$7 \; rhythmsinglevalue-receive \$8 \; rhythmepsilon-receive
\$9 \; rhythmnumelems-receive \$10 \; rhythmexponent-receive \$11 \;
rhythmsource-receive \$12 \; rhythmvolume-receive \$13 \; rhythmgliss-receive
\$14 \; rhythm-gliss-scaler-receive \$15 \; rhythmstartstop \$16;
#X msg 859 673 1 5 1 0 1 1 125 0 0.01 8 2.5 999 999 999 1 1;
#X obj 391 245 tgl 18 0 empty empty empty 17 7 0 10 #fcfcfc #000000
#000000 0 1;
#X obj 391 655 s rhythmstartstop;
#X obj 286 38 r rhythmstartstop-send;
#X msg 330 175 set \$1;
#X text 455 246 RAND;
#X text 410 246 ON/OFF;
#X text 411 364 DURA.;
#X text 719 162 "Rate" and "Duration" are the same here.;
#X msg 929 553 0 10 1 1 1 1 0 0 0.01 8 2 0 0 0 1 1;
#X text 1149 554 TRANSITIONER;
#X msg 790 792 0 0 0 0 0 0 125 0 0.01 8 1 0 0 0 0 0;
#X obj 286 108 sel 999;
#X text 923 419 This makes no sense. I'm removing it.;
#X obj 790 506 sel 0 1 2 3 4 5 6 7 8 9 10;
#X msg 803 769 0 1 1 0 1 1 125 0 0.01 8 6.5 0 3 0 1 1;
#X msg 817 745 1 2 1 0 1 1 125 0 0.01 8 3 0 3 0 1 1;
#X msg 831 721 1 3 1 0 1 1 125 0 0.01 8 3 0 3 0 1 1;
#X msg 845 697 1 4 1 0 1 1 125 0 0.01 8 2.3 0 3 0 1 1;
#X text 1193 674 Does this use gliss?;
#X text 304 337 FED-BACK 1 \; FED-BACK 2 \; FED-BACK 3 \; FED-BACK
4 \; TRANSITIONER \;;
#X text 303 259 ALL OFF \; NEW RAND \; GRAY GRIND \; BEAT SING \; DARK
GRIND \; LIGHT HOP \;;
#X obj 73 282 f;
#X obj 73 253 t b f;
#X obj 73 311 +;
#X msg 73 211 -1;
#X msg 73 369 set \$1;
#X floatatom 73 398 5 0 0 0 - - - 0;
#X msg 119 235 1;
#X obj 73 182 r decrement_rhythmer_presets;
#X obj 119 206 r increment_rhythmer_presets;
#X obj 122 380 r select_rhythmer_presets;
#X obj 73 340 mod 11;
#X obj 53 552 f;
#X obj 53 523 t b f;
#X obj 53 581 +;
#X msg 53 481 -1;
#X msg 99 505 1;
#X obj 53 452 r decrement_rhythmer_drivers;
#X obj 99 476 r increment_rhythmer_drivers;
#X obj 40 899 tabwrite rhythmer-exponents;
#X msg 40 816 0 \, 1 \, 2 \, 5 \, 10 \, 15;
#X obj 40 845 t f b;
#X obj 67 874 f;
#X obj 100 874 + 1;
#X obj 40 787 t b b;
#X msg 85 845 0;
#X obj 40 761 bng 15 250 50 0 empty empty empty 17 7 0 10 #fcfcfc #000000
#000000;
#X obj 229 688 tabread rhythmer-exponents;
#X obj 40 921 table rhythmer-exponents;
#X obj 40 732 loadbang;
#X obj 159 612 f;
#X obj 159 641 + 1;
#X obj 159 583 r increment_rhythmer_exponent;
#X obj 221 845 t f b;
#X obj 248 874 f;
#X obj 281 874 + 1;
#X obj 221 787 t b b;
#X msg 266 845 0;
#X obj 221 761 bng 15 250 50 0 empty empty empty 17 7 0 10 #fcfcfc
#000000 #000000;
#X obj 221 732 loadbang;
#X obj 221 921 table rhythmer-elements;
#X obj 221 899 tabwrite rhythmer-elements;
#X obj 448 710 tabread rhythmer-elements;
#X obj 617 641 f;
#X obj 617 670 + 1;
#X obj 617 615 r increment_rhythmer_element;
#X obj 617 692 mod 6;
#X msg 221 816 3 \, 4 \, 5 \, 6 \, 7 \, 8;
#X msg 53 639 set \$1;
#X floatatom 53 668 5 0 0 0 - - - 0;
#X obj 104 547 r select_rhythmer_drivers;
#X obj 448 742 r rhythmer-increment-single-value;
#X obj 755 97 r rhythmer-random;
#X obj 448 764 f;
#X obj 481 764 + 1;
#X msg 448 896 0;
#X msg 463 874 2;
#X msg 479 852 5;
#X msg 495 830 8;
#X obj 448 808 sel 0 1 2 3;
#X obj 448 918 s rhythmsinglevalue-receive;
#X obj 448 786 mod 4;
#X obj 159 670 mod 6;
#X obj 53 610 mod 3;
#X connect 5 0 18 0;
#X connect 6 0 15 0;
#X connect 7 0 16 0;
#X connect 8 0 17 0;
#X connect 9 0 61 0;
#X connect 10 0 104 0;
#X connect 12 0 21 0;
#X connect 13 0 55 0;
#X connect 13 1 106 0;
#X connect 15 0 1 0;
#X connect 16 0 2 0;
#X connect 17 0 3 0;
#X connect 18 0 4 0;
#X connect 19 0 9 0;
#X connect 20 0 11 0;
#X connect 20 0 125 1;
#X connect 21 0 0 0;
#X connect 22 0 53 0;
#X connect 24 0 13 0;
#X connect 24 0 114 1;
#X connect 28 0 30 0;
#X connect 29 0 31 0;
#X connect 30 0 29 1;
#X connect 30 1 29 0;
#X connect 31 0 32 0;
#X connect 32 0 33 0;
#X connect 32 1 34 0;
#X connect 33 0 35 0;
#X connect 34 0 35 0;
#X connect 42 0 43 0;
#X connect 43 0 61 0;
#X connect 50 0 52 0;
#X connect 51 0 50 0;
#X connect 54 0 22 0;
#X connect 56 0 62 0;
#X connect 57 0 63 0;
#X connect 58 0 60 0;
#X connect 69 0 76 0;
#X connect 70 0 90 0;
#X connect 74 0 70 0;
#X connect 75 0 69 0;
#X connect 78 0 58 0;
#X connect 79 0 19 0;
#X connect 80 0 56 0;
#X connect 81 0 57 0;
#X connect 82 0 83 0;
#X connect 85 0 82 0;
#X connect 86 0 91 0;
#X connect 87 0 91 0;
#X connect 88 0 91 0;
#X connect 89 0 91 0;
#X connect 92 0 91 0;
#X connect 93 0 94 0;
#X connect 95 0 96 0;
#X connect 96 0 93 0;
#X connect 101 0 91 0;
#X connect 103 0 91 0;
#X connect 104 1 20 0;
#X connect 106 0 103 0;
#X connect 106 1 107 0;
#X connect 106 2 108 0;
#X connect 106 3 109 0;
#X connect 106 4 110 0;
#X connect 106 5 92 0;
#X connect 106 6 86 0;
#X connect 106 7 87 0;
#X connect 106 8 88 0;
#X connect 106 9 89 0;
#X connect 106 10 101 0;
#X connect 107 0 91 0;
#X connect 108 0 91 0;
#X connect 109 0 91 0;
#X connect 110 0 91 0;
#X connect 114 0 116 0;
#X connect 115 0 114 0;
#X connect 115 1 116 1;
#X connect 116 0 114 1;
#X connect 116 0 124 0;
#X connect 117 0 115 0;
#X connect 118 0 119 0;
#X connect 118 0 24 0;
#X connect 119 0 24 0;
#X connect 120 0 115 0;
#X connect 121 0 117 0;
#X connect 122 0 120 0;
#X connect 123 0 119 0;
#X connect 124 0 118 0;
#X connect 125 0 127 0;
#X connect 126 0 125 0;
#X connect 126 1 127 1;
#X connect 127 0 125 1;
#X connect 127 0 176 0;
#X connect 128 0 126 0;
#X connect 129 0 126 0;
#X connect 130 0 128 0;
#X connect 131 0 129 0;
#X connect 133 0 134 0;
#X connect 134 0 132 0;
#X connect 134 1 135 0;
#X connect 135 0 136 0;
#X connect 135 0 132 1;
#X connect 136 0 135 1;
#X connect 137 0 133 0;
#X connect 137 1 138 0;
#X connect 138 0 135 1;
#X connect 139 0 137 0;
#X connect 140 0 18 0;
#X connect 142 0 139 0;
#X connect 143 0 144 0;
#X connect 144 0 143 1;
#X connect 144 0 175 0;
#X connect 145 0 143 0;
#X connect 146 0 154 0;
#X connect 146 1 147 0;
#X connect 147 0 148 0;
#X connect 147 0 154 1;
#X connect 148 0 147 1;
#X connect 149 0 160 0;
#X connect 149 1 150 0;
#X connect 150 0 147 1;
#X connect 151 0 149 0;
#X connect 152 0 151 0;
#X connect 155 0 21 0;
#X connect 156 0 157 0;
#X connect 157 0 156 1;
#X connect 157 0 159 0;
#X connect 158 0 156 0;
#X connect 159 0 155 0;
#X connect 160 0 146 0;
#X connect 161 0 162 0;
#X connect 161 0 20 0;
#X connect 162 0 20 0;
#X connect 163 0 162 0;
#X connect 164 0 166 0;
#X connect 166 0 167 0;
#X connect 166 0 174 0;
#X connect 167 0 166 1;
#X connect 168 0 173 0;
#X connect 169 0 173 0;
#X connect 170 0 173 0;
#X connect 171 0 173 0;
#X connect 172 0 168 0;
#X connect 172 1 169 0;
#X connect 172 2 170 0;
#X connect 172 3 171 0;
#X connect 174 0 172 0;
#X connect 175 0 140 0;
#X connect 176 0 161 0;
#X coords 0 -1 1 1 452 260 2 280 240;
