#N canvas 219 261 961 773 10;
#X obj 92 150 statfeed;
#X obj 114 106 r numelems;
#X obj 137 128 r rhythmexponent;
#X msg 20 132 randomize;
#X floatatom 78 72 5 0 0 0 - - - 0;
#X obj 114 190 s rhythmoutput;
#X obj 78 93 t b f;
#X obj 78 50 Rhythmer-Statfeeds;
#X obj 321 261 Gate;
#X obj 321 387 sel 0 1 2 3 4 5 6 7, f 22;
#X msg 230 667 \; rhythm-vol-0 \$1;
#X msg 230 646 0;
#X msg 252 625 1;
#X msg 346 646 0;
#X msg 368 625 1;
#X msg 346 667 \; rhythm-vol-1 \$1;
#X msg 461 646 0;
#X msg 480 625 1;
#X msg 461 667 \; rhythm-vol-2 \$1;
#X msg 369 492 1 1 1;
#X msg 385 471 0 0 0;
#X obj 312 586 unpack f f f;
#X obj 461 604 sel 0 1;
#X obj 346 604 sel 0 1;
#X obj 230 604 sel 0 1;
#X msg 321 555 1 0 0;
#X msg 337 534 0 1 0;
#X msg 353 513 0 0 1;
#X msg 417 429 1 0 0;
#X msg 433 408 0 0 1;
#X obj 162 290 tabread rhythmer_presets;
#X obj 162 387 s to_secondary_globals;
#X msg 401 450 1 1 1;
#X obj 162 261 Gate;
#X obj 180 168 Rhythmer-Console-Display;
#X text 207 190 Necessary for feedback.;
#X obj 92 243 t f f f f;
#X obj 639 290 tabread rhythmer_durations;
#X obj 639 261 Gate;
#X obj 480 290 tabread rhythmer_glisses;
#X obj 480 261 Gate;
#X obj 321 290 tabread rhythmer_volumes;
#X obj 639 417 s gliss-length-receive;
#X obj 480 387 s to_gliss_presets;
#X obj 20 21 r rhythmrandomize;
#X obj 321 222 r rhythmer-volume-gate;
#X obj 480 222 r rhythmer-gliss-gate;
#X obj 639 222 r rhythmer-duration-gate;
#X obj 162 222 r rhythmer-source-gate;
#X obj 162 358 r rhythmsource;
#X obj 321 319 s rhythmvolume-receive;
#X obj 321 358 r rhythmvolume;
#X obj 480 319 s rhythmgliss-receive;
#X obj 480 358 r rhythmgliss;
#X obj 639 319 s rhythmrate-receive;
#X obj 639 358 r rhythmrate;
#X obj 162 319 s rhythmsource-receive;
#X text 766 320 Also goes to metro;
#X obj 639 386 *;
#X obj 726 368 r rhythmer-gliss-scaler;
#X obj 231 430 loadbang;
#X msg 231 459 3;
#X text 195 50 Contains the Metro that runs \; the statfeed object.
;
#X obj 685 392 t b f;
#X connect 0 0 5 0;
#X connect 0 0 36 0;
#X connect 0 1 34 0;
#X connect 1 0 0 1;
#X connect 2 0 0 2;
#X connect 3 0 0 0;
#X connect 4 0 6 0;
#X connect 6 0 0 0;
#X connect 6 1 0 0;
#X connect 7 0 4 0;
#X connect 8 0 41 0;
#X connect 9 0 25 0;
#X connect 9 1 26 0;
#X connect 9 2 27 0;
#X connect 9 3 19 0;
#X connect 9 4 20 0;
#X connect 9 5 32 0;
#X connect 9 6 28 0;
#X connect 9 7 29 0;
#X connect 11 0 10 0;
#X connect 12 0 10 0;
#X connect 13 0 15 0;
#X connect 14 0 15 0;
#X connect 16 0 18 0;
#X connect 17 0 18 0;
#X connect 19 0 21 0;
#X connect 20 0 21 0;
#X connect 21 0 24 0;
#X connect 21 1 23 0;
#X connect 21 2 22 0;
#X connect 22 0 16 0;
#X connect 22 1 17 0;
#X connect 23 0 13 0;
#X connect 23 1 14 0;
#X connect 24 0 11 0;
#X connect 24 1 12 0;
#X connect 25 0 21 0;
#X connect 26 0 21 0;
#X connect 27 0 21 0;
#X connect 28 0 21 0;
#X connect 29 0 21 0;
#X connect 30 0 56 0;
#X connect 32 0 21 0;
#X connect 33 0 30 0;
#X connect 36 0 33 1;
#X connect 36 1 8 1;
#X connect 36 2 40 1;
#X connect 36 3 38 1;
#X connect 37 0 54 0;
#X connect 38 0 37 0;
#X connect 39 0 52 0;
#X connect 40 0 39 0;
#X connect 41 0 50 0;
#X connect 44 0 3 0;
#X connect 45 0 8 0;
#X connect 46 0 40 0;
#X connect 47 0 38 0;
#X connect 48 0 33 0;
#X connect 49 0 31 0;
#X connect 51 0 9 0;
#X connect 53 0 43 0;
#X connect 55 0 58 0;
#X connect 58 0 42 0;
#X connect 59 0 63 0;
#X connect 60 0 61 0;
#X connect 61 0 9 0;
#X connect 63 0 58 0;
#X connect 63 1 58 1;
