#N canvas 67 89 1382 991 10;
#X obj 304 764 s numelems;
#X obj 304 743 s rhythmrate;
#X obj 304 701 s rhythmsinglevalue;
#X obj 304 722 s rhythmepsilon;
#X obj 304 680 s rhythmexponent;
#X obj 210 797 r rhythmoutput;
#N canvas 67 130 1499 842 rhythmtriage 0;
#X obj 865 149 inlet;
#X obj 865 177 sel 0 1 2 3 4 5 6 7;
#X msg 865 650 \; rhythm-vol-0 \$1;
#X msg 865 629 0;
#X msg 887 608 1;
#X msg 899 533 0;
#X msg 921 512 1;
#X msg 899 554 \; rhythm-vol-1 \$1;
#X msg 934 437 0;
#X msg 956 415 1;
#X msg 934 458 \; rhythm-vol-2 \$1;
#X msg 913 282 1 1 1;
#X msg 930 261 0 0 0;
#X obj 865 366 unpack f f f;
#X obj 44 19 inlet;
#X obj 1040 24 inlet;
#X obj 1059 78 == 1;
#X obj 1079 106 == 2;
#X obj 1040 106 == 0;
#X obj 1040 52 t f f f;
#X msg 1040 159 3;
#X obj 1081 128 loadbang;
#X obj 934 395 sel 0 1;
#X obj 899 491 sel 0 1;
#X obj 865 587 sel 0 1;
#X msg 865 345 1 0 0;
#X msg 881 324 0 1 0;
#X msg 897 303 0 0 1;
#X text 1074 153 To reset all ugen \; output levels to 1;
#X text 90 22 Tonal Preset Values;
#X msg 256 198 17 \, 18 \, 11 \, 14 \, 20 \, 12 \, 2 \, 3;
#X obj 198 422 t f b;
#X obj 225 689 f;
#X obj 258 689 + 1;
#X msg 254 647 0;
#X obj 256 140 t b b;
#X obj 256 114 bng 15 250 50 0 empty empty empty 17 7 0 10 -262144
-1 -1;
#X obj 472 555 until;
#X obj 472 577 random 24;
#X msg 472 533 8;
#X obj 472 511 t b b;
#X obj 472 492 bng 15 250 50 0 empty empty empty 17 7 0 10 -262144
-1 -1;
#X obj 198 723 tabwrite rhythmer_presets;
#X obj 198 752 table rhythmer_presets;
#X obj 298 140 t b b;
#X obj 298 114 bng 15 250 50 0 empty empty empty 17 7 0 10 -262144
-1 -1;
#X obj 472 616 print;
#X msg 499 598 New Preset;
#X text 928 149 Volume;
#X msg 962 219 1 0 0;
#X msg 978 198 0 0 1;
#X obj 44 109 tabread rhythmer_presets;
#X obj 214 46 inlet;
#X obj 214 140 t b b;
#X obj 214 114 bng 15 250 50 0 empty empty empty 17 7 0 10 -262144
-1 -1;
#X msg 214 169 0 \, 0 \, 0 \, 0 \, 0 \, 0 \, 0 \, 0;
#X obj 44 148 s to_secondary_globals;
#X obj 472 469 r randomize_rhythm_presets;
#X obj 363 615 s rhythm_seq_now;
#X msg 363 529 set;
#X msg 400 595 add2 \$1;
#X obj 341 140 t b b;
#X obj 341 114 bng 15 250 50 0 empty empty empty 17 7 0 10 -262144
-1 -1;
#X text 560 287 exp 3;
#X obj 425 140 t b b;
#X obj 425 114 bng 15 250 50 0 empty empty empty 17 7 0 10 -262144
-1 -1;
#X obj 468 140 t b b;
#X obj 468 114 bng 15 250 50 0 empty empty empty 17 7 0 10 -262144
-1 -1;
#X obj 383 140 t b b;
#X obj 383 114 bng 15 250 50 0 empty empty empty 17 7 0 10 -262144
-1 -1;
#X obj 510 140 t b b;
#X obj 510 114 bng 15 250 50 0 empty empty empty 17 7 0 10 -262144
-1 -1;
#X obj 552 140 t b b;
#X obj 552 114 bng 15 250 50 0 empty empty empty 17 7 0 10 -262144
-1 -1;
#X text 608 317 really good tonal;
#X obj 214 85 sel 0 1 2 3 4 5 6 7 8, f 64;
#X msg 383 288 21 \, 0 \, 15 \, 23 \, 18 \, 4 \, 12 \, 20;
#X msg 425 317 17 \, 16 \, 14 \, 13 \, 15 \, 2 \, 19 \, 11;
#X msg 467 346 7 \, 18 \, 11 \, 20 \, 15 \, 14 \, 15 \, 5;
#X msg 340 259 4 \, 12 \, 3 \, 15 \, 3 \, 3 \, 19 \, 16;
#X text 507 259 gliss 20 0** exp3;
#X msg 511 375 22 \, 19 \, 11 \, 19 \, 4 \, 13 \, 15 \, 12;
#X msg 552 404 16 \, 14 \, 15 \, 4 \, 22 \, 20 \, 18 \, 12;
#X msg 299 230 4 \, 0 \, 22 \, 18 \, 12 \, 2 \, 5 \, 20;
#X msg 946 240 1 1 1;
#X connect 0 0 1 0;
#X connect 1 0 25 0;
#X connect 1 1 26 0;
#X connect 1 2 27 0;
#X connect 1 3 11 0;
#X connect 1 4 12 0;
#X connect 1 5 84 0;
#X connect 1 6 49 0;
#X connect 1 7 50 0;
#X connect 3 0 2 0;
#X connect 4 0 2 0;
#X connect 5 0 7 0;
#X connect 6 0 7 0;
#X connect 8 0 10 0;
#X connect 9 0 10 0;
#X connect 11 0 13 0;
#X connect 12 0 13 0;
#X connect 13 0 24 0;
#X connect 13 1 23 0;
#X connect 13 2 22 0;
#X connect 14 0 51 0;
#X connect 15 0 19 0;
#X connect 17 0 20 0;
#X connect 18 0 20 0;
#X connect 19 0 18 0;
#X connect 19 1 16 0;
#X connect 19 2 17 0;
#X connect 20 0 1 0;
#X connect 21 0 20 0;
#X connect 22 0 8 0;
#X connect 22 1 9 0;
#X connect 23 0 5 0;
#X connect 23 1 6 0;
#X connect 24 0 3 0;
#X connect 24 1 4 0;
#X connect 25 0 13 0;
#X connect 26 0 13 0;
#X connect 27 0 13 0;
#X connect 30 0 31 0;
#X connect 31 0 42 0;
#X connect 31 1 32 0;
#X connect 32 0 33 0;
#X connect 32 0 42 1;
#X connect 33 0 32 1;
#X connect 34 0 32 1;
#X connect 35 0 30 0;
#X connect 35 1 34 0;
#X connect 36 0 35 0;
#X connect 37 0 38 0;
#X connect 38 0 31 0;
#X connect 38 0 46 0;
#X connect 38 0 60 0;
#X connect 39 0 37 0;
#X connect 40 0 39 0;
#X connect 40 1 34 0;
#X connect 40 1 47 0;
#X connect 40 1 59 0;
#X connect 41 0 40 0;
#X connect 44 0 83 0;
#X connect 44 1 34 0;
#X connect 45 0 44 0;
#X connect 47 0 46 0;
#X connect 49 0 13 0;
#X connect 50 0 13 0;
#X connect 51 0 56 0;
#X connect 52 0 75 0;
#X connect 53 0 55 0;
#X connect 53 1 34 0;
#X connect 54 0 53 0;
#X connect 55 0 31 0;
#X connect 57 0 41 0;
#X connect 59 0 58 0;
#X connect 60 0 58 0;
#X connect 61 0 79 0;
#X connect 61 1 34 0;
#X connect 62 0 61 0;
#X connect 64 0 77 0;
#X connect 64 1 34 0;
#X connect 65 0 64 0;
#X connect 66 0 78 0;
#X connect 66 1 34 0;
#X connect 67 0 66 0;
#X connect 68 0 76 0;
#X connect 68 1 34 0;
#X connect 69 0 68 0;
#X connect 70 0 81 0;
#X connect 70 1 34 0;
#X connect 71 0 70 0;
#X connect 72 0 82 0;
#X connect 72 1 34 0;
#X connect 73 0 72 0;
#X connect 75 0 54 0;
#X connect 75 1 36 0;
#X connect 75 2 45 0;
#X connect 75 3 62 0;
#X connect 75 4 69 0;
#X connect 75 5 65 0;
#X connect 75 6 67 0;
#X connect 75 7 71 0;
#X connect 75 8 73 0;
#X connect 76 0 31 0;
#X connect 77 0 31 0;
#X connect 78 0 31 0;
#X connect 79 0 31 0;
#X connect 81 0 31 0;
#X connect 82 0 31 0;
#X connect 83 0 31 0;
#X connect 84 0 13 0;
#X restore 210 888 pd rhythmtriage;
#X obj 253 849 Gate;
#X obj 304 338 r rhythmexponent-receive;
#X obj 303 252 r rhythmrate-receive;
#X obj 303 273 r rhythmsinglevalue-receive;
#X obj 303 294 r rhythmepsilon-receive;
#X obj 272 219 r rhythmvolume-receive;
#X obj 253 824 t f f;
#X obj 128 146 r rhythmdriver-receive;
#X obj 161 710 s rhythmdriver;
#X obj 230 166 r rhythmtarget-receive;
#X obj 303 315 r rhythmnumelems-receive;
#X msg 852 329 0;
#X obj 852 301 t b b;
#X msg 884 329 1;
#X obj 971 331 f;
#X obj 1007 331 + 1;
#X obj 971 442 s rhythm-presets-receive;
#X floatatom 1031 417 5 0 0 0 - - -, f 5;
#X obj 852 273 r rhythmer-presets-zero;
#X obj 971 303 r rhythmer-presets-increment;
#X obj 1031 389 r rhythmer-presets-confirm;
#X msg 971 389 set \$1;
#X obj 1007 259 r init-loadbang;
#X msg 1007 280 1;
#X obj 645 643 t b f;
#X obj 552 100 statfeed;
#X obj 578 39 r numelems;
#X obj 605 69 r rhythmexponent;
#X msg 326 83 randomize;
#N canvas 423 143 863 617 drivers 0;
#X obj 185 324 random 999;
#X obj 185 352 / 1000;
#X msg 264 268 set \$1;
#X floatatom 359 285 5 0 0 0 - - -, f 5;
#X obj 359 353 /;
#X obj 377 302 r numelems;
#X obj 377 330 - 1;
#X obj 391 406 == 0;
#X obj 359 519 +;
#X obj 359 571 outlet;
#X floatatom 541 404 5 0 0 0 - - -, f 5;
#X obj 571 347 /;
#X obj 589 304 r numelems;
#X msg 571 375 set \$1;
#X obj 541 537 +;
#X obj 541 425 t f f;
#X obj 359 380 t f f;
#X obj 185 192 spigot;
#X obj 359 114 metro 250;
#X obj 359 192 spigot;
#X obj 391 434 sel 1;
#X floatatom 391 490 5 0 0 0 - - -, f 5;
#X msg 431 462 set \$1;
#X text 427 331 epsilon;
#X text 262 222 single value;
#X obj 541 192 spigot;
#X obj 571 261 r rhythmoutput;
#X obj 573 446 == 0;
#X msg 673 485 set \$1;
#X floatatom 559 502 5 0 0 0 - - -, f 5;
#X obj 44 175 unpack f f f;
#X msg 44 126 1 0 0;
#X msg 64 105 0 1 0;
#X msg 84 84 0 0 1;
#X obj 359 58 tgl 15 0 empty empty empty 17 7 0 10 -262144 -1 -1 0
1;
#X obj 431 350 r rhythmepsilon;
#X obj 264 241 r rhythmsinglevalue;
#X obj 359 23 r rhythmstartstop;
#X obj 419 54 r rhythmrate;
#X obj 673 409 r rhythmepsilon;
#X obj 589 326 - 1;
#X msg 596 520 0;
#X obj 573 474 sel 1 0;
#X obj 44 23 r rhythmdriver;
#X obj 44 51 sel 0 1 2;
#X connect 0 0 1 0;
#X connect 1 0 9 0;
#X connect 2 0 3 0;
#X connect 3 0 4 0;
#X connect 4 0 16 0;
#X connect 5 0 6 0;
#X connect 6 0 4 1;
#X connect 7 0 20 0;
#X connect 8 0 9 0;
#X connect 10 0 15 0;
#X connect 11 0 13 0;
#X connect 12 0 40 0;
#X connect 13 0 10 0;
#X connect 14 0 9 0;
#X connect 15 0 14 0;
#X connect 15 1 27 0;
#X connect 16 0 8 0;
#X connect 16 1 7 0;
#X connect 17 0 0 0;
#X connect 18 0 17 0;
#X connect 18 0 19 0;
#X connect 18 0 25 0;
#X connect 19 0 3 0;
#X connect 20 0 21 0;
#X connect 21 0 8 1;
#X connect 22 0 21 0;
#X connect 25 0 10 0;
#X connect 26 0 11 0;
#X connect 27 0 42 0;
#X connect 28 0 29 0;
#X connect 29 0 14 1;
#X connect 30 0 17 1;
#X connect 30 1 19 1;
#X connect 30 2 25 1;
#X connect 31 0 30 0;
#X connect 32 0 30 0;
#X connect 33 0 30 0;
#X connect 34 0 18 0;
#X connect 35 0 22 0;
#X connect 36 0 2 0;
#X connect 37 0 34 0;
#X connect 38 0 18 1;
#X connect 39 0 28 0;
#X connect 40 0 11 1;
#X connect 41 0 14 1;
#X connect 42 0 29 0;
#X connect 42 1 41 0;
#X connect 43 0 44 0;
#X connect 44 0 31 0;
#X connect 44 1 32 0;
#X connect 44 2 33 0;
#X restore 505 15 pd drivers;
#X floatatom 505 43 5 0 0 0 - - -, f 5;
#X obj 422 169 s rhythmoutput;
#X obj 605 125 unpack f f f f f f f f;
#X obj 625 575 tabwrite array1;
#X msg 637 548 0;
#X obj 605 520 t f b;
#X obj 626 483 t f b;
#X msg 658 508 1;
#X obj 646 456 t f b;
#X obj 666 433 t f b;
#X obj 686 410 t f b;
#X obj 706 383 t f b;
#X obj 734 363 t f b;
#X obj 756 337 t f b;
#X msg 678 481 2;
#X msg 698 458 3;
#X msg 718 435 4;
#X msg 738 408 5;
#X msg 766 391 6;
#X msg 788 365 7;
#X floatatom 820 95 5 0 0 0 - - -, f 5;
#X obj 773 590 sel 0 1 2 3 4 5 6 7 8 9;
#X obj 161 120 r rhythm-presets-receive;
#X obj 971 357 % 10;
#X obj 156 401 cnv 15 406 258 empty empty empty 20 12 0 14 -233017
-66577 0;
#X obj 304 455 nbx 3 20 -1e+37 1e+37 0 0 empty empty empty 0 -8 0 15
-262144 -1 -1 117 256;
#X obj 304 499 nbx 3 20 -1e+37 1e+37 0 0 empty empty empty 0 -8 0 15
-262144 -1 -1 0 256;
#X obj 297 542 nbx 4 20 -1e+37 1e+37 0 0 empty empty empty 0 -8 0 15
-262144 -1 -1 0.01 256;
#X text 302 440 Rate;
#X text 295 527 Epsilon;
#X obj 304 629 nbx 3 20 -1e+37 1e+37 0 0 empty empty empty 0 -8 0 15
-262144 -1 -1 1 256;
#X text 302 614 Exp;
#X obj 300 422 tgl 13 0 empty empty empty 17 7 0 10 -262144 -1 -1 0
1;
#X obj 161 582 vradio 13 1 0 3 empty empty empty 0 -8 0 10 -262144
-1 -1 0;
#X obj 304 585 nbx 3 20 -1e+37 1e+37 0 0 empty empty empty 0 -8 0 15
-262144 -1 -1 8 256;
#X text 302 570 Num Elems;
#X obj 331 422 bng 13 250 50 0 empty empty empty 17 7 0 10 -262144
-1 -1;
#X text 161 567 DRIVERS;
#X obj 161 412 vradio 13 1 0 10 empty empty empty 0 -8 0 10 -262144
-1 -1 0;
#X text 295 404 VOL;
#X text 314 404 SHUFFLE;
#X text 302 484 Sing Val;
#X text 157 397 RHYTHMER PRESETS;
#X obj 362 401 cnv 15 200 258 empty empty empty 20 12 0 14 -262144
-66577 0;
#N canvas 43 85 723 507 (subpatch) 0;
#X array array1 8 float 3;
#A 0 1 2.36327 0 2.54476 2.16524 1.94531 1.39474 4.59728;
#X coords 0 15 8 0 200 258 2 0 0;
#X restore 362 401 graph;
#X obj 734 173 expr (pow($f1 \, $f2));
#X obj 756 153 expr (pow($f1 \, $f2));
#X floatatom 889 112 5 0 0 0 - - -, f 5;
#X obj 691 213 expr (pow($f1 \, $f2));
#X obj 712 193 expr (pow($f1 \, $f2));
#X obj 648 253 expr (pow($f1 \, $f2));
#X obj 669 233 expr (pow($f1 \, $f2));
#X obj 605 293 expr (pow($f1 \, $f2));
#X obj 626 273 expr (pow($f1 \, $f2));
#X obj 889 62 loadbang;
#X msg 889 84 0.48;
#X obj 505 67 t b f;
#X obj 50 282 r auxknob-7;
#X obj 50 340 -;
#X obj 50 311 t f f;
#X obj 50 369 > 0;
#X obj 50 398 sel 1 0;
#X msg 50 456 1;
#X msg 69 427 -1;
#X obj 54 515 +;
#X text 509 307 >>>>;
#X text 538 401 ''';
#X obj 481 721 bng 15 250 50 0 empty empty empty 17 7 0 10 -262144
-1 -1;
#X obj 481 747 s randomize_rhythm_presets;
#X obj 240 542 vradio 13 1 0 9 empty empty empty 0 -8 0 10 -262144
-1 -1 0;
#X text 175 581 Rand \; Sing \; Feedb;
#X text 255 539 Off \; Tonal \; Noise \; Beat \; New \; Ok \; 1 \;
2 \; 3;
#X text 1003 717 New;
#X text 1002 698 Beat - Gliss needs to be 20;
#X text 176 411 All Off \; Tonal Rand \; Noisy Rand \; Volum Rand \;
New Rand \; Beat Sing \; Ok \; 1 \; 2 \; 3;
#X text 574 13 This contains is the metro that runs the Rhythmer;
#X obj 146 845 Gate;
#X msg 769 813 \; rhythmdriver-receive \$1 \; rhythmtarget-receive
\$2 \; rhythmvolume-receive \$3 \; rhythmrate-receive \$4 \; rhythmsinglevalue-receive
\$5 \; rhythmepsilon-receive \$6 \; rhythmnumelems-receive \$7 \; rhythmexponent-receive
\$8 \; rhythmstartstop \$9 \; justvolume \$10 \; walker-preset-zero
bang \;;
#X msg 773 792 0 0 0 125 0 0.01 8 1 0 1;
#X msg 788 773 0 1 0 125 0 0.01 8 10 1 1;
#X msg 804 754 0 2 0 125 0 0.01 8 10 1 1;
#X msg 836 716 0 4 0 125 0 0.01 8 1.5 1 1;
#X msg 852 697 1 3 0 125 0 0.01 8 3 1 1;
#X msg 867 678 0 5 1 125 0 0.01 8 10 1 1;
#X msg 883 659 1 6 0 125 0 0.01 8 3 1 1;
#X msg 899 640 1 7 0 125 0 0.01 8 2.5 1 1;
#X msg 915 621 1 8 0 125 0 0.01 8 2.5 1 1;
#X obj 116 783 r justvolume;
#X msg 820 735 99 99 1 125 0 0.01 8 10 1 2;
#X obj 1032 824 s gliss-length-receive;
#X msg 1032 795 20;
#X obj 1079 887 s to_gliss_presets;
#X msg 1075 852 6;
#X connect 5 0 7 1;
#X connect 5 0 113 1;
#X connect 7 0 6 2;
#X connect 8 0 67 0;
#X connect 9 0 62 0;
#X connect 10 0 63 0;
#X connect 11 0 64 0;
#X connect 12 0 69 0;
#X connect 13 0 7 0;
#X connect 13 1 6 3;
#X connect 14 0 70 0;
#X connect 16 0 106 0;
#X connect 17 0 71 0;
#X connect 18 0 23 0;
#X connect 18 0 24 0;
#X connect 19 0 18 0;
#X connect 19 1 20 0;
#X connect 20 0 21 1;
#X connect 21 0 22 0;
#X connect 21 0 60 0;
#X connect 22 0 21 1;
#X connect 24 0 23 0;
#X connect 25 0 19 0;
#X connect 26 0 21 0;
#X connect 27 0 24 0;
#X connect 28 0 23 0;
#X connect 28 0 24 0;
#X connect 29 0 30 0;
#X connect 30 0 22 0;
#X connect 31 0 73 0;
#X connect 31 1 58 0;
#X connect 32 0 38 0;
#X connect 32 1 39 0;
#X connect 33 0 32 1;
#X connect 34 0 32 2;
#X connect 35 0 32 0;
#X connect 36 0 37 0;
#X connect 37 0 93 0;
#X connect 39 0 89 0;
#X connect 39 1 90 0;
#X connect 39 2 87 0;
#X connect 39 3 88 0;
#X connect 39 4 85 0;
#X connect 39 5 86 0;
#X connect 39 6 82 0;
#X connect 39 7 83 0;
#X connect 41 0 40 1;
#X connect 42 0 40 0;
#X connect 42 1 41 0;
#X connect 43 0 40 0;
#X connect 43 1 44 0;
#X connect 44 0 40 1;
#X connect 45 0 40 0;
#X connect 45 1 51 0;
#X connect 46 0 40 0;
#X connect 46 1 52 0;
#X connect 47 0 40 0;
#X connect 47 1 53 0;
#X connect 48 0 40 0;
#X connect 48 1 54 0;
#X connect 49 0 40 0;
#X connect 49 1 55 0;
#X connect 50 0 40 0;
#X connect 50 1 56 0;
#X connect 51 0 40 1;
#X connect 52 0 40 1;
#X connect 53 0 40 1;
#X connect 54 0 40 1;
#X connect 55 0 40 1;
#X connect 56 0 40 1;
#X connect 58 0 115 0;
#X connect 58 1 116 0;
#X connect 58 2 117 0;
#X connect 58 3 125 0;
#X connect 58 4 118 0;
#X connect 58 5 119 0;
#X connect 58 5 127 0;
#X connect 58 5 129 0;
#X connect 58 6 120 0;
#X connect 58 7 121 0;
#X connect 58 8 122 0;
#X connect 58 9 123 0;
#X connect 59 0 75 0;
#X connect 60 0 28 0;
#X connect 62 0 1 0;
#X connect 62 0 101 1;
#X connect 63 0 2 0;
#X connect 64 0 3 0;
#X connect 67 0 4 0;
#X connect 69 0 13 0;
#X connect 70 0 15 0;
#X connect 71 0 0 0;
#X connect 73 0 35 0;
#X connect 75 0 31 0;
#X connect 82 0 49 0;
#X connect 82 0 57 0;
#X connect 83 0 50 0;
#X connect 84 0 83 1;
#X connect 84 0 82 1;
#X connect 84 0 86 1;
#X connect 84 0 85 1;
#X connect 84 0 88 1;
#X connect 84 0 87 1;
#X connect 84 0 90 1;
#X connect 84 0 89 1;
#X connect 85 0 47 0;
#X connect 86 0 48 0;
#X connect 87 0 45 0;
#X connect 88 0 46 0;
#X connect 89 0 42 0;
#X connect 90 0 43 0;
#X connect 91 0 92 0;
#X connect 92 0 84 0;
#X connect 93 0 32 0;
#X connect 93 1 32 0;
#X connect 94 0 96 0;
#X connect 95 0 97 0;
#X connect 96 0 95 1;
#X connect 96 1 95 0;
#X connect 97 0 98 0;
#X connect 98 0 99 0;
#X connect 98 1 100 0;
#X connect 99 0 101 0;
#X connect 100 0 101 0;
#X connect 101 0 62 0;
#X connect 104 0 105 0;
#X connect 106 0 6 1;
#X connect 113 0 6 0;
#X connect 115 0 114 0;
#X connect 116 0 114 0;
#X connect 117 0 114 0;
#X connect 118 0 114 0;
#X connect 119 0 114 0;
#X connect 120 0 114 0;
#X connect 121 0 114 0;
#X connect 122 0 114 0;
#X connect 123 0 114 0;
#X connect 124 0 113 0;
#X connect 125 0 114 0;
#X connect 127 0 126 0;
#X connect 129 0 128 0;
#X coords 0 -1 1 1 408 260 2 155 400;
