#N canvas 434 212 1245 756 10;
#X obj 471 20 r rhythmtarget-receive;
#X msg 196 355 0;
#X obj 196 155 t b b;
#X obj 208 287 f;
#X obj 244 287 + 1;
#X obj 244 408 s rhythm-presets-receive;
#X floatatom 367 373 5 0 0 0 - - -, f 5;
#X obj 196 119 r rhythmer-presets-zero;
#X obj 208 207 r rhythmer-presets-increment;
#X obj 278 49 r rhythmer-presets-confirm;
#X msg 244 355 set \$1;
#X obj 264 155 r init-loadbang;
#X obj 471 350 t f b;
#X obj 498 385 f;
#X obj 531 385 + 1;
#X msg 513 330 0;
#X obj 788 434 until;
#X obj 788 390 t b b;
#X obj 471 418 tabwrite rhythmer_presets;
#X obj 471 457 table rhythmer_presets;
#X obj 788 518 print;
#X msg 867 500 New Preset;
#X obj 471 90 t b b;
#X obj 471 71 bng 15 250 50 0 empty empty empty 17 7 0 10 -262144 -1
-1;
#X msg 471 112 0 \, 0 \, 0 \, 0 \, 0 \, 0 \, 0 \, 0;
#X obj 788 361 r randomize_rhythm_presets;
#X obj 659 518 s rhythm_seq_now;
#X msg 659 408 set;
#X msg 706 474 add2 \$1;
#X obj 513 90 t b b;
#X obj 513 71 bng 15 250 50 0 empty empty empty 17 7 0 10 -262144 -1
-1;
#X obj 599 90 t b b;
#X obj 599 71 bng 15 250 50 0 empty empty empty 17 7 0 10 -262144 -1
-1;
#X obj 556 90 t b b;
#X obj 556 71 bng 15 250 50 0 empty empty empty 17 7 0 10 -262144 -1
-1;
#X obj 642 90 t b b;
#X obj 642 71 bng 15 250 50 0 empty empty empty 17 7 0 10 -262144 -1
-1;
#X obj 685 90 t b b;
#X obj 685 71 bng 15 250 50 0 empty empty empty 17 7 0 10 -262144 -1
-1;
#X text 921 134 NEW RAND;
#X text 940 178 BEAT SING;
#X text 950 200 DARK GRIND;
#X text 960 222 LIGHT HOP;
#X text 910 113 ALL OFF;
#X msg 599 178 3 \, 6 \, 2 \, 9 \, 2 \, 2 \, 13 \, 10;
#X msg 513 134 15 \, 0 \, 9 \, 4 \, 12 \, 3 \, 6 \, 14;
#X msg 642 200 13 \, 13 \, 5 \, 13 \, 3 \, 7 \, 9 \, 6;
#X obj 727 90 t b b;
#X obj 727 71 bng 15 250 50 0 empty empty empty 17 7 0 10 -262144 -1
-1;
#X obj 769 90 t b b;
#X obj 769 71 bng 15 250 50 0 empty empty empty 17 7 0 10 -262144 -1
-1;
#X obj 813 90 t b b;
#X obj 813 71 bng 15 250 50 0 empty empty empty 17 7 0 10 -262144 -1
-1;
#X text 971 244 FED-BACK 1;
#X text 980 266 FED-BACK 2;
#X text 992 289 FED-BACK 3;
#X msg 727 244 2 \, 3 \, 3 \, 4 \, 5 \, 6 \, 7 \, 8;
#X obj 855 90 t b b;
#X obj 855 71 bng 15 250 50 0 empty empty empty 17 7 0 10 -262144 -1
-1;
#X msg 788 412 8;
#X msg 556 156 12 \, 20 \, 5 \, 23 \, 13 \, 19 \, 23 \, 10;
#X msg 706 496 21 5 17 20 10 19 20 7;
#X msg 685 222 3 \, 12 \, 13 \, 7 \, 2 \, 14 \, 10 \, 3;
#X text 930 157 GRAY GRIND;
#X msg 855 310 17 \, 4 \, 6 \, 11 \, 22 \, 23 \, 11 \, 19;
#X msg 899 332 16 \, 19 \, 20 \, 3 \, 20 \, 5 \, 2 \, 23;
#X obj 471 49 sel 0 1 2 3 4 5 6 7 8 9 10, f 79;
#X obj 899 90 t b b;
#X obj 899 71 bng 15 250 50 0 empty empty empty 17 7 0 10 -262144 -1
-1;
#X msg 769 266 1 \, 2 \, 3 \, 4 \, 5 \, 6 \, 7 \, 8;
#X msg 813 288 7 \, 9 \, 10 \, 7 \, 9 \, 12 \, 5 \, 9;
#X obj 788 456 random 23;
#X obj 208 247 t b f;
#X msg 223 177 100;
#X msg 264 177 100;
#X obj 278 87 tgl 15 0 empty empty empty 17 7 0 10 -262144 -1 -1 0
1;
#X obj 271 229 r rhythmer-presets-decrement;
#X obj 244 313 % 13;
#X obj 313 331 change;
#X msg 400 348 1;
#X msg 400 69 set 0;
#X obj 348 119 sel 0 1;
#X msg 367 172 0;
#X connect 0 0 66 0;
#X connect 1 0 5 0;
#X connect 1 0 6 0;
#X connect 2 0 1 0;
#X connect 2 1 73 0;
#X connect 3 0 4 0;
#X connect 4 0 3 1;
#X connect 4 0 77 0;
#X connect 6 0 5 0;
#X connect 7 0 2 0;
#X connect 8 0 72 0;
#X connect 9 0 75 0;
#X connect 10 0 5 0;
#X connect 10 0 6 0;
#X connect 11 0 74 0;
#X connect 12 0 18 0;
#X connect 12 1 13 0;
#X connect 13 0 14 0;
#X connect 13 0 18 1;
#X connect 14 0 13 1;
#X connect 15 0 13 1;
#X connect 16 0 71 0;
#X connect 17 0 59 0;
#X connect 17 1 15 0;
#X connect 17 1 21 0;
#X connect 17 1 27 0;
#X connect 21 0 20 0;
#X connect 22 0 24 0;
#X connect 22 1 15 0;
#X connect 23 0 22 0;
#X connect 24 0 12 0;
#X connect 25 0 17 0;
#X connect 27 0 26 0;
#X connect 27 0 61 0;
#X connect 28 0 26 0;
#X connect 28 0 61 0;
#X connect 29 0 45 0;
#X connect 29 1 15 0;
#X connect 30 0 29 0;
#X connect 31 0 44 0;
#X connect 31 1 15 0;
#X connect 32 0 31 0;
#X connect 33 0 60 0;
#X connect 33 1 15 0;
#X connect 34 0 33 0;
#X connect 35 0 46 0;
#X connect 35 1 15 0;
#X connect 36 0 35 0;
#X connect 37 0 62 0;
#X connect 37 1 15 0;
#X connect 38 0 37 0;
#X connect 44 0 12 0;
#X connect 45 0 12 0;
#X connect 46 0 12 0;
#X connect 47 0 56 0;
#X connect 47 1 15 0;
#X connect 48 0 47 0;
#X connect 49 0 69 0;
#X connect 49 1 15 0;
#X connect 50 0 49 0;
#X connect 51 0 70 0;
#X connect 51 1 15 0;
#X connect 52 0 51 0;
#X connect 56 0 12 0;
#X connect 57 0 64 0;
#X connect 57 1 15 0;
#X connect 58 0 57 0;
#X connect 59 0 16 0;
#X connect 60 0 12 0;
#X connect 62 0 12 0;
#X connect 64 0 12 0;
#X connect 65 0 12 0;
#X connect 66 0 23 0;
#X connect 66 1 30 0;
#X connect 66 2 34 0;
#X connect 66 3 32 0;
#X connect 66 4 36 0;
#X connect 66 5 38 0;
#X connect 66 6 48 0;
#X connect 66 7 50 0;
#X connect 66 8 52 0;
#X connect 66 9 58 0;
#X connect 66 10 68 0;
#X connect 67 0 65 0;
#X connect 67 1 15 0;
#X connect 68 0 67 0;
#X connect 69 0 12 0;
#X connect 70 0 12 0;
#X connect 71 0 12 0;
#X connect 71 0 20 0;
#X connect 71 0 28 0;
#X connect 72 0 3 0;
#X connect 72 1 4 1;
#X connect 73 0 3 1;
#X connect 74 0 4 0;
#X connect 75 0 81 0;
#X connect 76 0 72 0;
#X connect 77 0 10 0;
#X connect 77 0 78 0;
#X connect 78 0 79 0;
#X connect 79 0 80 0;
#X connect 80 0 75 0;
#X connect 81 0 82 0;
#X connect 81 1 6 0;
#X connect 82 0 6 0;
