#N canvas 695 222 1288 903 10;
#X obj 23 23 r rhythmtarget-receive;
#X obj 23 346 t f b;
#X obj 50 368 f;
#X obj 83 368 + 1;
#X msg 65 326 0;
#X obj 23 390 tabwrite rhythmer_presets;
#X obj 23 412 table rhythmer_presets;
#X obj 23 86 t b b;
#X obj 23 67 bng 15 250 50 0 empty empty empty 17 7 0 10 -262144 -1
-1;
#X msg 23 108 0 \, 0 \, 0 \, 0 \, 0 \, 0 \, 0 \, 0;
#X obj 65 86 t b b;
#X obj 65 67 bng 15 250 50 0 empty empty empty 17 7 0 10 -262144 -1
-1;
#X obj 151 86 t b b;
#X obj 151 67 bng 15 250 50 0 empty empty empty 17 7 0 10 -262144 -1
-1;
#X obj 108 86 t b b;
#X obj 108 67 bng 15 250 50 0 empty empty empty 17 7 0 10 -262144 -1
-1;
#X obj 194 86 t b b;
#X obj 194 67 bng 15 250 50 0 empty empty empty 17 7 0 10 -262144 -1
-1;
#X obj 237 86 t b b;
#X obj 237 67 bng 15 250 50 0 empty empty empty 17 7 0 10 -262144 -1
-1;
#X text 473 130 NEW RAND;
#X text 492 174 BEAT SING;
#X text 502 196 DARK GRIND;
#X text 512 218 LIGHT HOP;
#X text 462 109 ALL OFF;
#X msg 151 174 3 \, 6 \, 2 \, 9 \, 2 \, 2 \, 13 \, 10;
#X msg 65 130 15 \, 0 \, 9 \, 4 \, 12 \, 3 \, 6 \, 14;
#X msg 194 196 13 \, 13 \, 5 \, 13 \, 3 \, 7 \, 9 \, 6;
#X obj 279 86 t b b;
#X obj 279 67 bng 15 250 50 0 empty empty empty 17 7 0 10 -262144 -1
-1;
#X obj 321 86 t b b;
#X obj 321 67 bng 15 250 50 0 empty empty empty 17 7 0 10 -262144 -1
-1;
#X obj 365 86 t b b;
#X obj 365 67 bng 15 250 50 0 empty empty empty 17 7 0 10 -262144 -1
-1;
#X text 523 240 FED-BACK 1;
#X text 532 262 FED-BACK 2;
#X text 544 285 FED-BACK 3;
#X msg 279 240 2 \, 3 \, 3 \, 4 \, 5 \, 6 \, 7 \, 8;
#X obj 407 86 t b b;
#X obj 407 67 bng 15 250 50 0 empty empty empty 17 7 0 10 -262144 -1
-1;
#X msg 108 152 12 \, 20 \, 5 \, 23 \, 13 \, 19 \, 23 \, 10;
#X msg 237 218 3 \, 12 \, 13 \, 7 \, 2 \, 14 \, 10 \, 3;
#X text 482 153 GRAY GRIND;
#X msg 407 306 17 \, 4 \, 6 \, 11 \, 22 \, 23 \, 11 \, 19;
#X msg 451 328 16 \, 19 \, 20 \, 3 \, 20 \, 5 \, 2 \, 23;
#X obj 23 45 sel 0 1 2 3 4 5 6 7 8 9 10, f 79;
#X obj 451 86 t b b;
#X obj 451 67 bng 15 250 50 0 empty empty empty 17 7 0 10 -262144 -1
-1;
#X msg 321 262 1 \, 2 \, 3 \, 4 \, 5 \, 6 \, 7 \, 8;
#X msg 365 284 7 \, 9 \, 10 \, 7 \, 9 \, 12 \, 5 \, 9;
#X obj 653 23 r rhythmtarget-receive;
#X obj 653 346 t f b;
#X obj 680 368 f;
#X obj 713 368 + 1;
#X msg 695 326 0;
#X obj 653 86 t b b;
#X obj 653 67 bng 15 250 50 0 empty empty empty 17 7 0 10 -262144 -1
-1;
#X msg 653 108 0 \, 0 \, 0 \, 0 \, 0 \, 0 \, 0 \, 0;
#X obj 695 86 t b b;
#X obj 695 67 bng 15 250 50 0 empty empty empty 17 7 0 10 -262144 -1
-1;
#X obj 781 86 t b b;
#X obj 781 67 bng 15 250 50 0 empty empty empty 17 7 0 10 -262144 -1
-1;
#X obj 738 86 t b b;
#X obj 738 67 bng 15 250 50 0 empty empty empty 17 7 0 10 -262144 -1
-1;
#X obj 824 86 t b b;
#X obj 824 67 bng 15 250 50 0 empty empty empty 17 7 0 10 -262144 -1
-1;
#X obj 867 86 t b b;
#X obj 867 67 bng 15 250 50 0 empty empty empty 17 7 0 10 -262144 -1
-1;
#X text 1103 130 NEW RAND;
#X text 1122 174 BEAT SING;
#X text 1132 196 DARK GRIND;
#X text 1142 218 LIGHT HOP;
#X text 1092 109 ALL OFF;
#X obj 909 86 t b b;
#X obj 909 67 bng 15 250 50 0 empty empty empty 17 7 0 10 -262144 -1
-1;
#X obj 951 86 t b b;
#X obj 951 67 bng 15 250 50 0 empty empty empty 17 7 0 10 -262144 -1
-1;
#X obj 995 86 t b b;
#X obj 995 67 bng 15 250 50 0 empty empty empty 17 7 0 10 -262144 -1
-1;
#X text 1153 240 FED-BACK 1;
#X text 1192 262 FED-BACK 2;
#X text 1232 285 FED-BACK 3;
#X obj 1037 86 t b b;
#X obj 1037 67 bng 15 250 50 0 empty empty empty 17 7 0 10 -262144
-1 -1;
#X text 1112 153 GRAY GRIND;
#X obj 653 45 sel 0 1 2 3 4 5 6 7 8 9 10, f 79;
#X obj 1081 86 t b b;
#X obj 1081 67 bng 15 250 50 0 empty empty empty 17 7 0 10 -262144
-1 -1;
#X obj 23 451 r rhythmtarget-receive;
#X obj 23 774 t f b;
#X obj 50 796 f;
#X obj 83 796 + 1;
#X msg 65 754 0;
#X obj 23 514 t b b;
#X obj 23 495 bng 15 250 50 0 empty empty empty 17 7 0 10 -262144 -1
-1;
#X msg 23 536 0 \, 0 \, 0 \, 0 \, 0 \, 0 \, 0 \, 0;
#X obj 65 514 t b b;
#X obj 65 495 bng 15 250 50 0 empty empty empty 17 7 0 10 -262144 -1
-1;
#X obj 151 514 t b b;
#X obj 151 495 bng 15 250 50 0 empty empty empty 17 7 0 10 -262144
-1 -1;
#X obj 108 514 t b b;
#X obj 108 495 bng 15 250 50 0 empty empty empty 17 7 0 10 -262144
-1 -1;
#X obj 194 514 t b b;
#X obj 194 495 bng 15 250 50 0 empty empty empty 17 7 0 10 -262144
-1 -1;
#X obj 237 514 t b b;
#X obj 237 495 bng 15 250 50 0 empty empty empty 17 7 0 10 -262144
-1 -1;
#X text 473 558 NEW RAND;
#X text 492 602 BEAT SING;
#X text 502 624 DARK GRIND;
#X text 512 646 LIGHT HOP;
#X text 462 537 ALL OFF;
#X obj 279 514 t b b;
#X obj 279 495 bng 15 250 50 0 empty empty empty 17 7 0 10 -262144
-1 -1;
#X obj 321 514 t b b;
#X obj 321 495 bng 15 250 50 0 empty empty empty 17 7 0 10 -262144
-1 -1;
#X obj 365 514 t b b;
#X obj 365 495 bng 15 250 50 0 empty empty empty 17 7 0 10 -262144
-1 -1;
#X text 523 668 FED-BACK 1;
#X text 532 690 FED-BACK 2;
#X text 544 713 FED-BACK 3;
#X obj 407 514 t b b;
#X obj 407 495 bng 15 250 50 0 empty empty empty 17 7 0 10 -262144
-1 -1;
#X text 482 581 GRAY GRIND;
#X obj 23 473 sel 0 1 2 3 4 5 6 7 8 9 10, f 79;
#X obj 451 514 t b b;
#X obj 451 495 bng 15 250 50 0 empty empty empty 17 7 0 10 -262144
-1 -1;
#X obj 23 818 tabwrite rhythmer_glisses;
#X obj 23 840 table rhythmer_glisses;
#X obj 653 451 r rhythmtarget-receive;
#X obj 653 774 t f b;
#X obj 680 809 f;
#X obj 713 809 + 1;
#X msg 695 754 0;
#X obj 653 514 t b b;
#X obj 653 495 bng 15 250 50 0 empty empty empty 17 7 0 10 -262144
-1 -1;
#X msg 653 536 0 \, 0 \, 0 \, 0 \, 0 \, 0 \, 0 \, 0;
#X obj 695 514 t b b;
#X obj 695 495 bng 15 250 50 0 empty empty empty 17 7 0 10 -262144
-1 -1;
#X obj 781 514 t b b;
#X obj 781 495 bng 15 250 50 0 empty empty empty 17 7 0 10 -262144
-1 -1;
#X obj 738 514 t b b;
#X obj 738 495 bng 15 250 50 0 empty empty empty 17 7 0 10 -262144
-1 -1;
#X obj 824 514 t b b;
#X obj 824 495 bng 15 250 50 0 empty empty empty 17 7 0 10 -262144
-1 -1;
#X obj 867 514 t b b;
#X obj 867 495 bng 15 250 50 0 empty empty empty 17 7 0 10 -262144
-1 -1;
#X text 1103 558 NEW RAND;
#X text 1122 602 BEAT SING;
#X text 1132 624 DARK GRIND;
#X text 1142 646 LIGHT HOP;
#X text 1092 537 ALL OFF;
#X msg 781 602 3 \, 6 \, 2 \, 9 \, 2 \, 2 \, 13 \, 10;
#X msg 824 624 13 \, 13 \, 5 \, 13 \, 3 \, 7 \, 9 \, 6;
#X obj 909 514 t b b;
#X obj 909 495 bng 15 250 50 0 empty empty empty 17 7 0 10 -262144
-1 -1;
#X obj 951 514 t b b;
#X obj 951 495 bng 15 250 50 0 empty empty empty 17 7 0 10 -262144
-1 -1;
#X obj 995 514 t b b;
#X obj 995 495 bng 15 250 50 0 empty empty empty 17 7 0 10 -262144
-1 -1;
#X text 1153 668 FED-BACK 1;
#X text 1162 690 FED-BACK 2;
#X text 1174 713 FED-BACK 3;
#X msg 909 668 2 \, 3 \, 3 \, 4 \, 5 \, 6 \, 7 \, 8;
#X obj 1037 514 t b b;
#X obj 1037 495 bng 15 250 50 0 empty empty empty 17 7 0 10 -262144
-1 -1;
#X msg 738 580 12 \, 20 \, 5 \, 23 \, 13 \, 19 \, 23 \, 10;
#X msg 867 646 3 \, 12 \, 13 \, 7 \, 2 \, 14 \, 10 \, 3;
#X text 1112 581 GRAY GRIND;
#X msg 1037 734 17 \, 4 \, 6 \, 11 \, 22 \, 23 \, 11 \, 19;
#X msg 1081 756 16 \, 19 \, 20 \, 3 \, 20 \, 5 \, 2 \, 23;
#X obj 653 473 sel 0 1 2 3 4 5 6 7 8 9 10, f 79;
#X obj 1081 514 t b b;
#X obj 1081 495 bng 15 250 50 0 empty empty empty 17 7 0 10 -262144
-1 -1;
#X msg 951 690 1 \, 2 \, 3 \, 4 \, 5 \, 6 \, 7 \, 8;
#X msg 995 712 7 \, 9 \, 10 \, 7 \, 9 \, 12 \, 5 \, 9;
#X obj 653 831 tabwrite rhythmer_volumes;
#X obj 653 853 table rhythmer_volumes;
#X obj 653 390 tabwrite rhythmer_durations;
#X obj 653 412 table rhythmer_durations;
#X msg 695 130 125 \, 125 \, 125 \, 125 \, 125 \, 125 \, 125 \, 125
;
#X msg 738 152 125 \, 125 \, 125 \, 125 \, 125 \, 125 \, 125 \, 125
;
#X msg 781 174 125 \, 125 \, 125 \, 125 \, 125 \, 125 \, 125 \, 125
;
#X msg 824 196 125 \, 125 \, 125 \, 125 \, 125 \, 125 \, 125 \, 125
;
#X msg 867 218 125 \, 125 \, 125 \, 125 \, 125 \, 125 \, 125 \, 125
;
#X msg 909 240 125 \, 125 \, 125 \, 125 \, 125 \, 125 \, 125 \, 125
;
#X msg 951 262 125 \, 125 \, 125 \, 125 \, 125 \, 125 \, 125 \, 125
;
#X msg 995 284 125 \, 125 \, 125 \, 125 \, 125 \, 125 \, 125 \, 125
;
#X msg 1037 306 125 \, 125 \, 125 \, 125 \, 125 \, 125 \, 125 \, 125
;
#X msg 1081 328 125 \, 125 \, 125 \, 125 \, 125 \, 125 \, 125 \, 125
;
#X msg 65 558 0 \, 0 \, 0 \, 0 \, 0 \, 0 \, 0 \, 0;
#X msg 108 580 0 \, 0 \, 0 \, 0 \, 0 \, 0 \, 0 \, 0;
#X msg 151 602 0 \, 0 \, 0 \, 0 \, 0 \, 0 \, 0 \, 0;
#X msg 194 624 0 \, 0 \, 0 \, 0 \, 0 \, 0 \, 0 \, 0;
#X msg 279 668 0 \, 0 \, 0 \, 0 \, 0 \, 0 \, 0 \, 0;
#X msg 321 690 0 \, 0 \, 0 \, 0 \, 0 \, 0 \, 0 \, 0;
#X msg 365 712 0 \, 0 \, 0 \, 0 \, 0 \, 0 \, 0 \, 0;
#X msg 407 734 0 \, 0 \, 0 \, 0 \, 0 \, 0 \, 0 \, 0;
#X msg 451 756 0 \, 0 \, 0 \, 0 \, 0 \, 0 \, 0 \, 0;
#X msg 237 646 6 \, 6 \, 6 \, 6 \, 6 \, 6 \, 6 \, 6;
#X msg 695 558 0 \, 1 \, 2 \, 3 \, 4 \, 5 \, 6 \, 7;
#X connect 0 0 45 0;
#X connect 1 0 5 0;
#X connect 1 1 2 0;
#X connect 2 0 3 0;
#X connect 2 0 5 1;
#X connect 3 0 2 1;
#X connect 4 0 2 1;
#X connect 7 0 9 0;
#X connect 7 1 4 0;
#X connect 8 0 7 0;
#X connect 9 0 1 0;
#X connect 10 0 26 0;
#X connect 10 1 4 0;
#X connect 11 0 10 0;
#X connect 12 0 25 0;
#X connect 12 1 4 0;
#X connect 13 0 12 0;
#X connect 14 0 40 0;
#X connect 14 1 4 0;
#X connect 15 0 14 0;
#X connect 16 0 27 0;
#X connect 16 1 4 0;
#X connect 17 0 16 0;
#X connect 18 0 41 0;
#X connect 18 1 4 0;
#X connect 19 0 18 0;
#X connect 25 0 1 0;
#X connect 26 0 1 0;
#X connect 27 0 1 0;
#X connect 28 0 37 0;
#X connect 28 1 4 0;
#X connect 29 0 28 0;
#X connect 30 0 48 0;
#X connect 30 1 4 0;
#X connect 31 0 30 0;
#X connect 32 0 49 0;
#X connect 32 1 4 0;
#X connect 33 0 32 0;
#X connect 37 0 1 0;
#X connect 38 0 43 0;
#X connect 38 1 4 0;
#X connect 39 0 38 0;
#X connect 40 0 1 0;
#X connect 41 0 1 0;
#X connect 43 0 1 0;
#X connect 44 0 1 0;
#X connect 45 0 8 0;
#X connect 45 1 11 0;
#X connect 45 2 15 0;
#X connect 45 3 13 0;
#X connect 45 4 17 0;
#X connect 45 5 19 0;
#X connect 45 6 29 0;
#X connect 45 7 31 0;
#X connect 45 8 33 0;
#X connect 45 9 39 0;
#X connect 45 10 47 0;
#X connect 46 0 44 0;
#X connect 46 1 4 0;
#X connect 47 0 46 0;
#X connect 48 0 1 0;
#X connect 49 0 1 0;
#X connect 50 0 85 0;
#X connect 51 0 177 0;
#X connect 51 1 52 0;
#X connect 52 0 53 0;
#X connect 52 0 177 1;
#X connect 53 0 52 1;
#X connect 54 0 52 1;
#X connect 55 0 57 0;
#X connect 55 1 54 0;
#X connect 56 0 55 0;
#X connect 57 0 51 0;
#X connect 58 0 179 0;
#X connect 58 1 54 0;
#X connect 59 0 58 0;
#X connect 60 0 181 0;
#X connect 60 1 54 0;
#X connect 61 0 60 0;
#X connect 62 0 180 0;
#X connect 62 1 54 0;
#X connect 63 0 62 0;
#X connect 64 0 182 0;
#X connect 64 1 54 0;
#X connect 65 0 64 0;
#X connect 66 0 183 0;
#X connect 66 1 54 0;
#X connect 67 0 66 0;
#X connect 73 0 184 0;
#X connect 73 1 54 0;
#X connect 74 0 73 0;
#X connect 75 0 185 0;
#X connect 75 1 54 0;
#X connect 76 0 75 0;
#X connect 77 0 186 0;
#X connect 77 1 54 0;
#X connect 78 0 77 0;
#X connect 82 0 187 0;
#X connect 82 1 54 0;
#X connect 83 0 82 0;
#X connect 85 0 56 0;
#X connect 85 1 59 0;
#X connect 85 2 63 0;
#X connect 85 3 61 0;
#X connect 85 4 65 0;
#X connect 85 5 67 0;
#X connect 85 6 74 0;
#X connect 85 7 76 0;
#X connect 85 8 78 0;
#X connect 85 9 83 0;
#X connect 85 10 87 0;
#X connect 86 0 188 0;
#X connect 86 1 54 0;
#X connect 87 0 86 0;
#X connect 88 0 123 0;
#X connect 89 0 126 0;
#X connect 89 1 90 0;
#X connect 90 0 91 0;
#X connect 90 0 126 1;
#X connect 91 0 90 1;
#X connect 92 0 90 1;
#X connect 93 0 95 0;
#X connect 93 1 92 0;
#X connect 94 0 93 0;
#X connect 95 0 89 0;
#X connect 96 0 189 0;
#X connect 96 1 92 0;
#X connect 97 0 96 0;
#X connect 98 0 191 0;
#X connect 98 1 92 0;
#X connect 99 0 98 0;
#X connect 100 0 190 0;
#X connect 100 1 92 0;
#X connect 101 0 100 0;
#X connect 102 0 192 0;
#X connect 102 1 92 0;
#X connect 103 0 102 0;
#X connect 104 0 198 0;
#X connect 104 1 92 0;
#X connect 105 0 104 0;
#X connect 111 0 193 0;
#X connect 111 1 92 0;
#X connect 112 0 111 0;
#X connect 113 0 194 0;
#X connect 113 1 92 0;
#X connect 114 0 113 0;
#X connect 115 0 195 0;
#X connect 115 1 92 0;
#X connect 116 0 115 0;
#X connect 120 0 196 0;
#X connect 120 1 92 0;
#X connect 121 0 120 0;
#X connect 123 0 94 0;
#X connect 123 1 97 0;
#X connect 123 2 101 0;
#X connect 123 3 99 0;
#X connect 123 4 103 0;
#X connect 123 5 105 0;
#X connect 123 6 112 0;
#X connect 123 7 114 0;
#X connect 123 8 116 0;
#X connect 123 9 121 0;
#X connect 123 10 125 0;
#X connect 124 0 197 0;
#X connect 124 1 92 0;
#X connect 125 0 124 0;
#X connect 128 0 170 0;
#X connect 129 0 175 0;
#X connect 129 1 130 0;
#X connect 130 0 131 0;
#X connect 130 0 175 1;
#X connect 131 0 130 1;
#X connect 132 0 130 1;
#X connect 133 0 135 0;
#X connect 133 1 132 0;
#X connect 134 0 133 0;
#X connect 135 0 129 0;
#X connect 136 0 199 0;
#X connect 136 1 132 0;
#X connect 137 0 136 0;
#X connect 138 0 151 0;
#X connect 138 1 132 0;
#X connect 139 0 138 0;
#X connect 140 0 165 0;
#X connect 140 1 132 0;
#X connect 141 0 140 0;
#X connect 142 0 152 0;
#X connect 142 1 132 0;
#X connect 143 0 142 0;
#X connect 144 0 166 0;
#X connect 144 1 132 0;
#X connect 145 0 144 0;
#X connect 151 0 129 0;
#X connect 152 0 129 0;
#X connect 153 0 162 0;
#X connect 153 1 132 0;
#X connect 154 0 153 0;
#X connect 155 0 173 0;
#X connect 155 1 132 0;
#X connect 156 0 155 0;
#X connect 157 0 174 0;
#X connect 157 1 132 0;
#X connect 158 0 157 0;
#X connect 162 0 129 0;
#X connect 163 0 168 0;
#X connect 163 1 132 0;
#X connect 164 0 163 0;
#X connect 165 0 129 0;
#X connect 166 0 129 0;
#X connect 168 0 129 0;
#X connect 169 0 129 0;
#X connect 170 0 134 0;
#X connect 170 1 137 0;
#X connect 170 2 141 0;
#X connect 170 3 139 0;
#X connect 170 4 143 0;
#X connect 170 5 145 0;
#X connect 170 6 154 0;
#X connect 170 7 156 0;
#X connect 170 8 158 0;
#X connect 170 9 164 0;
#X connect 170 10 172 0;
#X connect 171 0 169 0;
#X connect 171 1 132 0;
#X connect 172 0 171 0;
#X connect 173 0 129 0;
#X connect 174 0 129 0;
#X connect 179 0 51 0;
#X connect 180 0 51 0;
#X connect 181 0 51 0;
#X connect 182 0 51 0;
#X connect 183 0 51 0;
#X connect 184 0 51 0;
#X connect 185 0 51 0;
#X connect 186 0 51 0;
#X connect 187 0 51 0;
#X connect 188 0 51 0;
#X connect 189 0 89 0;
#X connect 190 0 89 0;
#X connect 191 0 89 0;
#X connect 192 0 89 0;
#X connect 193 0 89 0;
#X connect 194 0 89 0;
#X connect 195 0 89 0;
#X connect 196 0 89 0;
#X connect 197 0 89 0;
#X connect 198 0 89 0;
#X connect 199 0 129 0;
