#N canvas 154 347 631 602 12;
#X obj 61 162 unpack f f f f f f f f;
#X obj 269 428 tabwrite array1;
#X msg 361 406 0;
#X obj 281 388 t f b;
#X obj 292 368 t f b;
#X msg 372 386 1;
#X obj 303 348 t f b;
#X obj 314 328 t f b;
#X obj 325 308 t f b;
#X obj 336 288 t f b;
#X obj 347 268 t f b;
#X obj 358 248 t f b;
#X msg 385 366 2;
#X msg 398 346 3;
#X msg 411 326 4;
#X msg 423 306 5;
#X msg 436 286 6;
#X msg 449 266 7;
#X obj 190 250 expr (pow($f1 \, $f2));
#X obj 212 230 expr (pow($f1 \, $f2));
#X floatatom 342 203 5 0 0 0 - - -;
#X obj 147 290 expr (pow($f1 \, $f2));
#X obj 168 270 expr (pow($f1 \, $f2));
#X obj 104 330 expr (pow($f1 \, $f2));
#X obj 125 310 expr (pow($f1 \, $f2));
#X obj 61 370 expr (pow($f1 \, $f2));
#X obj 82 350 expr (pow($f1 \, $f2));
#X obj 343 133 loadbang;
#X obj 61 330 % 8;
#X obj 79 310 % 8;
#X obj 97 289 % 8;
#X obj 116 269 % 8;
#X obj 134 248 % 8;
#X obj 153 228 % 8;
#X obj 171 207 % 8;
#X obj 190 187 % 8;
#X obj 259 86 r modulo-why;
#X floatatom 259 110 5 0 0 0 - - -;
#X obj 212 63 loadbang;
#X msg 212 92 9999;
#X msg 342 155 0.3;
#X obj 61 33 inlet;
#X connect 0 0 28 0;
#X connect 0 1 29 0;
#X connect 0 2 30 0;
#X connect 0 3 31 0;
#X connect 0 4 32 0;
#X connect 0 5 33 0;
#X connect 0 6 34 0;
#X connect 0 7 35 0;
#X connect 2 0 1 1;
#X connect 3 0 1 0;
#X connect 3 1 2 0;
#X connect 4 0 1 0;
#X connect 4 1 5 0;
#X connect 5 0 1 1;
#X connect 6 0 1 0;
#X connect 6 1 12 0;
#X connect 7 0 1 0;
#X connect 7 1 13 0;
#X connect 8 0 1 0;
#X connect 8 1 14 0;
#X connect 9 0 1 0;
#X connect 9 1 15 0;
#X connect 10 0 1 0;
#X connect 10 1 16 0;
#X connect 11 0 1 0;
#X connect 11 1 17 0;
#X connect 12 0 1 1;
#X connect 13 0 1 1;
#X connect 14 0 1 1;
#X connect 15 0 1 1;
#X connect 16 0 1 1;
#X connect 17 0 1 1;
#X connect 18 0 10 0;
#X connect 19 0 11 0;
#X connect 20 0 19 1;
#X connect 20 0 18 1;
#X connect 20 0 22 1;
#X connect 20 0 21 1;
#X connect 20 0 24 1;
#X connect 20 0 23 1;
#X connect 20 0 26 1;
#X connect 20 0 25 1;
#X connect 21 0 8 0;
#X connect 22 0 9 0;
#X connect 23 0 6 0;
#X connect 24 0 7 0;
#X connect 25 0 3 0;
#X connect 26 0 4 0;
#X connect 27 0 40 0;
#X connect 28 0 25 0;
#X connect 29 0 26 0;
#X connect 30 0 23 0;
#X connect 31 0 24 0;
#X connect 32 0 21 0;
#X connect 33 0 22 0;
#X connect 34 0 18 0;
#X connect 35 0 19 0;
#X connect 36 0 37 0;
#X connect 37 0 35 1;
#X connect 37 0 34 1;
#X connect 37 0 33 1;
#X connect 37 0 32 1;
#X connect 37 0 31 1;
#X connect 37 0 30 1;
#X connect 37 0 29 1;
#X connect 37 0 28 1;
#X connect 38 0 39 0;
#X connect 39 0 37 0;
#X connect 40 0 20 0;
#X connect 41 0 0 0;
