#N canvas 134 186 1675 727 10;
#X obj 268 754 s numelems;
#X obj 268 733 s rhythmrate;
#X obj 268 691 s rhythmsinglevalue;
#X obj 268 712 s rhythmepsilon;
#X obj 268 670 s rhythmexponent;
#X obj 101 747 r rhythmoutput;
#X obj 138 799 Gate;
#X obj 268 372 r rhythmexponent-receive;
#X obj 268 287 r rhythmrate-receive;
#X obj 268 308 r rhythmsinglevalue-receive;
#X obj 268 329 r rhythmepsilon-receive;
#X obj 268 266 r rhythmvolume-receive;
#X obj 140 770 t f f;
#X obj 161 237 r rhythmdriver-receive;
#X obj 161 670 s rhythmdriver;
#X obj 1254 56 r rhythmtarget-receive;
#X obj 268 350 r rhythmnumelems-receive;
#X msg 926 399 0;
#X obj 926 191 t b b;
#X obj 991 331 f;
#X obj 1027 331 + 1;
#X obj 991 442 s rhythm-presets-receive;
#X floatatom 1051 417 5 0 0 0 - - -, f 5;
#X obj 926 163 r rhythmer-presets-zero;
#X obj 991 251 r rhythmer-presets-increment;
#X obj 1071 29 r rhythmer-presets-confirm;
#X msg 991 389 set \$1;
#X obj 1027 199 r init-loadbang;
#X obj 806 563 t b f;
#X obj 552 100 statfeed;
#X obj 574 39 r numelems;
#X obj 597 68 r rhythmexponent;
#X msg 479 100 randomize;
#N canvas 67 143 863 617 drivers 0;
#X obj 185 324 random 999;
#X obj 185 352 / 1000;
#X msg 264 268 set \$1;
#X floatatom 359 285 5 0 0 0 - - -, f 5;
#X obj 359 353 /;
#X obj 377 302 r numelems;
#X obj 377 330 - 1;
#X obj 391 406 == 0;
#X obj 359 519 +;
#X obj 359 571 outlet;
#X floatatom 541 404 5 0 0 0 - - -, f 5;
#X obj 571 347 /;
#X obj 589 304 r numelems;
#X msg 571 375 set \$1;
#X obj 541 537 +;
#X obj 541 425 t f f;
#X obj 359 380 t f f;
#X obj 185 192 spigot;
#X obj 359 114 metro 250;
#X obj 359 192 spigot;
#X obj 391 434 sel 1;
#X floatatom 391 490 5 0 0 0 - - -, f 5;
#X msg 431 462 set \$1;
#X text 427 331 epsilon;
#X text 262 222 single value;
#X obj 541 192 spigot;
#X obj 571 261 r rhythmoutput;
#X obj 44 175 unpack f f f;
#X msg 44 126 1 0 0;
#X msg 64 105 0 1 0;
#X msg 84 84 0 0 1;
#X obj 359 58 tgl 15 0 empty empty empty 17 7 0 10 -262144 -1 -1 0
1;
#X obj 431 350 r rhythmepsilon;
#X obj 264 241 r rhythmsinglevalue;
#X obj 359 23 r rhythmstartstop;
#X obj 419 54 r rhythmrate;
#X obj 589 326 - 1;
#X msg 596 520 0;
#X obj 573 474 sel 1 0;
#X obj 44 23 r rhythmdriver;
#X obj 44 51 sel 0 1 2;
#X obj 573 446 == 1;
#X obj 647 483 bng 15 250 50 0 empty empty empty 17 7 0 10 -262144
-1 -1;
#X msg 557 505 -0.125;
#X connect 0 0 1 0;
#X connect 1 0 9 0;
#X connect 2 0 3 0;
#X connect 3 0 4 0;
#X connect 4 0 16 0;
#X connect 5 0 6 0;
#X connect 6 0 4 1;
#X connect 7 0 20 0;
#X connect 8 0 9 0;
#X connect 10 0 15 0;
#X connect 11 0 13 0;
#X connect 12 0 36 0;
#X connect 13 0 10 0;
#X connect 14 0 9 0;
#X connect 15 0 14 0;
#X connect 15 1 41 0;
#X connect 16 0 8 0;
#X connect 16 1 7 0;
#X connect 17 0 0 0;
#X connect 18 0 17 0;
#X connect 18 0 19 0;
#X connect 18 0 25 0;
#X connect 19 0 3 0;
#X connect 20 0 21 0;
#X connect 21 0 8 1;
#X connect 22 0 21 0;
#X connect 25 0 10 0;
#X connect 26 0 11 0;
#X connect 27 0 17 1;
#X connect 27 1 19 1;
#X connect 27 2 25 1;
#X connect 28 0 27 0;
#X connect 29 0 27 0;
#X connect 30 0 27 0;
#X connect 31 0 18 0;
#X connect 32 0 22 0;
#X connect 33 0 2 0;
#X connect 34 0 31 0;
#X connect 35 0 18 1;
#X connect 36 0 11 1;
#X connect 37 0 14 1;
#X connect 38 0 43 0;
#X connect 38 0 42 0;
#X connect 38 1 37 0;
#X connect 39 0 40 0;
#X connect 40 0 28 0;
#X connect 40 1 29 0;
#X connect 40 2 30 0;
#X connect 41 0 38 0;
#X connect 43 0 14 1;
#X restore 505 15 pd drivers;
#X floatatom 505 43 5 0 0 0 - - -, f 5;
#X obj 512 187 s rhythmoutput;
#X obj 605 125 unpack f f f f f f f f;
#X obj 625 585 tabwrite array1;
#X msg 637 558 0;
#X obj 605 530 t f b;
#X obj 626 493 t f b;
#X msg 658 518 1;
#X obj 646 466 t f b;
#X obj 666 443 t f b;
#X obj 686 420 t f b;
#X obj 706 393 t f b;
#X obj 734 373 t f b;
#X obj 756 347 t f b;
#X msg 678 491 2;
#X msg 698 468 3;
#X msg 718 445 4;
#X msg 738 418 5;
#X msg 766 401 6;
#X msg 788 375 7;
#X obj 161 208 r rhythm-presets-receive;
#X obj 156 401 cnv 15 406 258 empty empty empty 20 12 0 14 -233017
-66577 0;
#X obj 268 490 nbx 3 20 -1e+37 1e+37 0 0 empty empty empty 0 -8 0 15
-262144 -1 -1 0 256;
#X obj 268 526 nbx 3 20 -1e+37 1e+37 0 0 empty empty empty 0 -8 0 15
-262144 -1 -1 0 256;
#X obj 268 563 nbx 4 20 -1e+37 1e+37 0 0 empty empty empty 0 -8 0 15
-262144 -1 -1 0 256;
#X text 266 475 Rate;
#X text 266 548 Epsilon;
#X obj 268 637 nbx 3 20 -1e+37 1e+37 0 0 empty empty empty 0 -8 0 15
-262144 -1 -1 0 256;
#X text 266 622 Exp;
#X obj 268 422 tgl 13 0 empty empty empty 17 7 0 10 -262144 -1 -1 0
1;
#X obj 161 606 vradio 13 1 0 3 empty empty empty 0 -8 0 10 -262144
-1 -1 0;
#X obj 268 601 nbx 3 20 -1e+37 1e+37 0 0 empty empty empty 0 -8 0 15
-262144 -1 -1 0 256;
#X text 266 586 Num Elems;
#X obj 302 422 bng 13 250 50 0 empty empty empty 17 7 0 10 -262144
-1 -1;
#X text 161 591 DRIVERS;
#X obj 161 420 vradio 13 1 0 12 empty empty empty 0 -8 0 10 -262144
-1 -1 10;
#X text 263 404 VOL;
#X text 285 404 SHUFFLE;
#X text 266 511 Sing Val;
#X text 157 402 RHYTHMER PRESETS;
#X obj 343 401 cnv 15 220 258 empty empty empty 20 12 0 14 -262144
-66577 0;
#N canvas 43 85 723 507 (subpatch) 0;
#X array array1 8 float 3;
#A 0 1 1.39474 1.94531 1.69441 0 0 2.36327 0;
#X coords 0 15 8 0 220 258 2 0 0;
#X restore 342 401 graph;
#X obj 734 233 expr (pow($f1 \, $f2));
#X obj 756 213 expr (pow($f1 \, $f2));
#X floatatom 942 132 5 0 0 0 - - -, f 5;
#X obj 691 273 expr (pow($f1 \, $f2));
#X obj 712 253 expr (pow($f1 \, $f2));
#X obj 648 313 expr (pow($f1 \, $f2));
#X obj 669 293 expr (pow($f1 \, $f2));
#X obj 605 353 expr (pow($f1 \, $f2));
#X obj 626 333 expr (pow($f1 \, $f2));
#X obj 942 82 loadbang;
#X msg 942 104 0.48;
#X obj 505 67 t b f;
#X obj 80 243 r auxknob-7;
#X obj 80 301 -;
#X obj 80 272 t f f;
#X obj 80 330 > 0;
#X obj 80 359 sel 1 0;
#X msg 80 417 1;
#X msg 99 388 -1;
#X obj 84 476 +;
#X text 538 401 ''';
#X obj 411 677 s randomize_rhythm_presets;
#X text 175 605 Rand \; Sing \; Feedb;
#X text 574 13 This contains is the metro that runs the Rhythmer;
#X obj 80 776 Gate;
#X msg 869 793 \; rhythmdriver-receive \$1 \; rhythmtarget-receive
\$2 \; rhythmvolume-receive \$3 \; rhythmrate-receive \$4 \; rhythmsinglevalue-receive
\$5 \; rhythmepsilon-receive \$6 \; rhythmnumelems-receive \$7 \; rhythmexponent-receive
\$8 \; rhythmstartstop \$9 \; justvolume \$10 \; walker-preset-zero
bang \;;
#X msg 873 761 0 0 0 125 0 0.01 8 1 0 1;
#X obj 80 714 r justvolume;
#X msg 886 737 99 99 1 125 0 0.01 8 10 1 2;
#X obj 1175 873 s gliss-length-receive;
#X msg 1175 844 20;
#X obj 1175 815 s to_gliss_presets;
#X msg 1175 786 6;
#X text 1055 738 VOLUME;
#X text 1027 762 OFF;
#X text 1064 714 NEW RAND;
#X text 1082 667 BEAT SING;
#X text 1105 642 DARK GRIND;
#X text 1119 618 LIGHT HOP;
#X msg 927 665 1 3 0 125 0 0.01 8 3 1 1;
#X msg 954 617 1 5 0 125 0 0.01 8 2.5 1 1;
#X obj 29 989 sel 0 1 2 3 4 5 6 7;
#X msg 29 1462 \; rhythm-vol-0 \$1;
#X msg 29 1441 0;
#X msg 51 1420 1;
#X msg 63 1345 0;
#X msg 85 1324 1;
#X msg 63 1366 \; rhythm-vol-1 \$1;
#X msg 98 1249 0;
#X msg 120 1227 1;
#X msg 98 1270 \; rhythm-vol-2 \$1;
#X msg 77 1094 1 1 1;
#X msg 94 1073 0 0 0;
#X obj 29 1178 unpack f f f;
#X obj 204 918 == 0;
#X msg 204 971 3;
#X obj 245 940 loadbang;
#X obj 98 1207 sel 0 1;
#X obj 63 1303 sel 0 1;
#X obj 29 1399 sel 0 1;
#X msg 29 1157 1 0 0;
#X msg 45 1136 0 1 0;
#X msg 61 1115 0 0 1;
#X text 238 965 To reset all ugen \; output levels to 1;
#X obj 1254 595 t f b;
#X obj 1297 629 f;
#X obj 1330 629 + 1;
#X msg 1296 575 0;
#X obj 1601 623 until;
#X obj 1601 579 t b b;
#X obj 1601 560 bng 15 250 50 0 empty empty empty 17 7 0 10 -262144
-1 -1;
#X obj 1254 663 tabwrite rhythmer_presets;
#X obj 1254 692 table rhythmer_presets;
#X obj 1601 684 print;
#X msg 1680 658 New Preset;
#X text 43 967 Volume;
#X msg 126 1031 1 0 0;
#X msg 142 1010 0 0 1;
#X obj 31 862 tabread rhythmer_presets;
#X obj 1254 140 t b b;
#X obj 1254 114 bng 15 250 50 0 empty empty empty 17 7 0 10 -262144
-1 -1;
#X msg 1254 169 0 \, 0 \, 0 \, 0 \, 0 \, 0 \, 0 \, 0;
#X obj 31 901 s to_secondary_globals;
#X obj 1601 537 r randomize_rhythm_presets;
#X obj 1492 684 s rhythm_seq_now;
#X msg 1492 597 set;
#X msg 1529 663 add2 \$1;
#X obj 1296 140 t b b;
#X obj 1296 114 bng 15 250 50 0 empty empty empty 17 7 0 10 -262144
-1 -1;
#X obj 1381 140 t b b;
#X obj 1381 114 bng 15 250 50 0 empty empty empty 17 7 0 10 -262144
-1 -1;
#X obj 1338 140 t b b;
#X obj 1338 114 bng 15 250 50 0 empty empty empty 17 7 0 10 -262144
-1 -1;
#X obj 1423 140 t b b;
#X obj 1423 114 bng 15 250 50 0 empty empty empty 17 7 0 10 -262144
-1 -1;
#X obj 1465 140 t b b;
#X obj 1465 114 bng 15 250 50 0 empty empty empty 17 7 0 10 -262144
-1 -1;
#X msg 110 1052 1 1 1;
#X text 1643 198 NEW RAND;
#X text 1646 254 BEAT SING;
#X text 1646 285 DARK GRIND;
#X text 1645 316 LIGHT HOP;
#X text 1642 170 ALL OFF;
#X msg 1381 256 3 \, 6 \, 2 \, 9 \, 2 \, 2 \, 13 \, 10;
#X msg 1296 198 15 \, 0 \, 9 \, 4 \, 12 \, 3 \, 6 \, 14;
#X msg 1423 285 13 \, 13 \, 5 \, 13 \, 3 \, 7 \, 9 \, 6;
#X obj 1175 635 bng 15 250 50 0 empty empty empty 17 7 0 10 -262144
-1 -1;
#X text 1127 594 FED-BACK 1;
#X obj 1508 140 t b b;
#X obj 1508 114 bng 15 250 50 0 empty empty empty 17 7 0 10 -262144
-1 -1;
#X obj 1550 140 t b b;
#X obj 1550 114 bng 15 250 50 0 empty empty empty 17 7 0 10 -262144
-1 -1;
#X text 1145 570 FED-BACK 2;
#X floatatom 512 159 5 0 0 0 - - -, f 5;
#X obj 605 313 % 8;
#X obj 623 293 % 8;
#X obj 641 272 % 8;
#X obj 660 252 % 8;
#X obj 678 231 % 8;
#X obj 697 211 % 8;
#X obj 715 190 % 8;
#X obj 734 170 % 8;
#X obj 1592 140 t b b;
#X obj 1592 114 bng 15 250 50 0 empty empty empty 17 7 0 10 -262144
-1 -1;
#X msg 967 593 2 6 1 125 0 0.01 10 7 1 1;
#X text 1645 347 FED-BACK 1;
#X text 1706 377 FED-BACK 2;
#X text 1741 406 FED-BACK 3;
#X msg 1500 346 2 \, 3 \, 3 \, 4 \, 5 \, 6 \, 7 \, 8;
#X obj 31 815 % 8;
#X floatatom 73 823 5 0 0 0 - - -, f 5;
#X msg 900 713 0 1 0 125 0 0.01 8 6.5 1 1;
#X obj 1634 140 t b b;
#X obj 1634 114 bng 15 250 50 0 empty empty empty 17 7 0 10 -262144
-1 -1;
#X floatatom 793 592 5 0 0 0 - - -, f 5;
#X msg 981 569 2 7 0 125 0 0.01 16 16 1 1;
#X msg 994 545 2 8 0 125 0 0.01 12 2 1 1;
#X msg 1014 525 2 9 0 125 0 0.01 16 2 1 1;
#X msg 1601 601 8;
#X obj 302 458 bng 13 250 50 0 empty empty empty 17 7 0 10 -262144
-1 -1;
#X text 279 440 RANDOMIZE;
#X msg 1338 227 12 \, 20 \, 5 \, 23 \, 13 \, 19 \, 23 \, 10;
#X msg 913 689 1 2 0 125 0 0.01 8 3 1 1;
#X text 1065 690 GRAY GRIND;
#X msg 1529 713 21 5 17 20 10 19 20 7;
#X msg 1464 314 3 \, 12 \, 13 \, 7 \, 2 \, 14 \, 10 \, 3;
#X text 1644 229 GRAY GRIND;
#X msg 1634 434 17 \, 4 \, 6 \, 11 \, 22 \, 23 \, 11 \, 19;
#X msg 1694 463 16 \, 19 \, 20 \, 3 \, 20 \, 5 \, 2 \, 23;
#X obj 1254 85 sel 0 1 2 3 4 5 6 7 8 9 10, f 71;
#X obj 1694 140 t b b;
#X obj 1694 114 bng 15 250 50 0 empty empty empty 17 7 0 10 -262144
-1 -1;
#X obj 873 480 sel 0 1 2 3 4 5 6 7 8 9 10 11;
#X msg 1034 505 2 10 0 125 0 0.01 16 2 1 1;
#X text 176 418 ALL OFF \; VOL \; NEW RAND \; GRAY GRIND \; BEAT SING
\; DARK GRIND \; LIGHT HOP \; FED-BACK 1 \; FED-BACK 2 \; FED-BACK
3 \; FED-BACK 4 \; WHOKNOWS... \;;
#X msg 1550 376 1 \, 2 \, 3 \, 4 \, 5 \, 6 \, 7 \, 8;
#X msg 1592 405 7 \, 9 \, 10 \, 7 \, 9 \, 12 \, 5 \, 9;
#X obj 1601 645 random 23;
#X msg 940 641 1 4 0 125 0 0.01 8 2.3 1 1;
#X obj 991 291 t b f;
#X msg 958 219 100;
#X msg 1027 220 100;
#X obj 1071 88 tgl 15 0 empty empty empty 17 7 0 10 -262144 -1 -1 0
1;
#X obj 302 69 r rhythmer-randomize;
#X obj 302 98 r rhythmer-shuffle;
#X obj 1041 273 r rhythmer-presets-decrement;
#X obj 991 357 % 13;
#X obj 1159 380 spigot;
#X msg 1208 304 2;
#X msg 1210 331 0;
#X floatatom 1179 417 5 0 0 0 - - -, f 5;
#X obj 1096 324 change;
#X msg 1096 353 1;
#X msg 1121 71 set 0;
#X obj 1071 114 sel 0 1;
#X msg 1102 166 0;
#X connect 5 0 6 1;
#X connect 5 0 100 1;
#X connect 6 0 117 0;
#X connect 7 0 61 0;
#X connect 8 0 56 0;
#X connect 9 0 57 0;
#X connect 10 0 58 0;
#X connect 11 0 63 0;
#X connect 12 0 6 0;
#X connect 12 1 130 0;
#X connect 13 0 64 0;
#X connect 15 0 225 0;
#X connect 16 0 65 0;
#X connect 17 0 21 0;
#X connect 17 0 22 0;
#X connect 18 0 17 0;
#X connect 18 1 236 0;
#X connect 19 0 20 0;
#X connect 20 0 19 1;
#X connect 20 0 242 0;
#X connect 22 0 21 0;
#X connect 23 0 18 0;
#X connect 24 0 235 0;
#X connect 25 0 238 0;
#X connect 26 0 21 0;
#X connect 26 0 22 0;
#X connect 27 0 237 0;
#X connect 28 0 67 0;
#X connect 28 1 210 0;
#X connect 28 1 228 0;
#X connect 29 0 189 0;
#X connect 29 1 36 0;
#X connect 30 0 29 1;
#X connect 31 0 29 2;
#X connect 32 0 29 0;
#X connect 33 0 34 0;
#X connect 34 0 87 0;
#X connect 36 0 190 0;
#X connect 36 1 191 0;
#X connect 36 2 192 0;
#X connect 36 3 193 0;
#X connect 36 4 194 0;
#X connect 36 5 195 0;
#X connect 36 6 196 0;
#X connect 36 7 197 0;
#X connect 38 0 37 1;
#X connect 39 0 37 0;
#X connect 39 1 38 0;
#X connect 40 0 37 0;
#X connect 40 1 41 0;
#X connect 41 0 37 1;
#X connect 42 0 37 0;
#X connect 42 1 48 0;
#X connect 43 0 37 0;
#X connect 43 1 49 0;
#X connect 44 0 37 0;
#X connect 44 1 50 0;
#X connect 45 0 37 0;
#X connect 45 1 51 0;
#X connect 46 0 37 0;
#X connect 46 1 52 0;
#X connect 47 0 37 0;
#X connect 47 1 53 0;
#X connect 48 0 37 1;
#X connect 49 0 37 1;
#X connect 50 0 37 1;
#X connect 51 0 37 1;
#X connect 52 0 37 1;
#X connect 53 0 37 1;
#X connect 54 0 69 0;
#X connect 56 0 1 0;
#X connect 56 0 95 1;
#X connect 57 0 2 0;
#X connect 58 0 3 0;
#X connect 61 0 4 0;
#X connect 63 0 12 0;
#X connect 64 0 14 0;
#X connect 65 0 0 0;
#X connect 67 0 32 0;
#X connect 69 0 28 0;
#X connect 76 0 46 0;
#X connect 77 0 47 0;
#X connect 78 0 77 1;
#X connect 78 0 76 1;
#X connect 78 0 80 1;
#X connect 78 0 79 1;
#X connect 78 0 82 1;
#X connect 78 0 81 1;
#X connect 78 0 84 1;
#X connect 78 0 83 1;
#X connect 79 0 44 0;
#X connect 80 0 45 0;
#X connect 81 0 42 0;
#X connect 82 0 43 0;
#X connect 83 0 39 0;
#X connect 84 0 40 0;
#X connect 85 0 86 0;
#X connect 86 0 78 0;
#X connect 87 0 29 0;
#X connect 87 1 29 0;
#X connect 88 0 90 0;
#X connect 89 0 91 0;
#X connect 90 0 89 1;
#X connect 90 1 89 0;
#X connect 91 0 92 0;
#X connect 92 0 93 0;
#X connect 92 1 94 0;
#X connect 93 0 95 0;
#X connect 94 0 95 0;
#X connect 95 0 56 0;
#X connect 100 0 205 0;
#X connect 102 0 101 0;
#X connect 103 0 100 0;
#X connect 104 0 101 0;
#X connect 106 0 105 0;
#X connect 108 0 107 0;
#X connect 115 0 101 0;
#X connect 116 0 101 0;
#X connect 116 0 182 0;
#X connect 117 0 136 0;
#X connect 117 1 137 0;
#X connect 117 2 138 0;
#X connect 117 3 127 0;
#X connect 117 4 128 0;
#X connect 117 5 173 0;
#X connect 117 6 152 0;
#X connect 117 7 153 0;
#X connect 119 0 118 0;
#X connect 120 0 118 0;
#X connect 121 0 123 0;
#X connect 122 0 123 0;
#X connect 124 0 126 0;
#X connect 125 0 126 0;
#X connect 127 0 129 0;
#X connect 128 0 129 0;
#X connect 129 0 135 0;
#X connect 129 1 134 0;
#X connect 129 2 133 0;
#X connect 130 0 131 0;
#X connect 131 0 117 0;
#X connect 132 0 131 0;
#X connect 133 0 124 0;
#X connect 133 1 125 0;
#X connect 134 0 121 0;
#X connect 134 1 122 0;
#X connect 135 0 119 0;
#X connect 135 1 120 0;
#X connect 136 0 129 0;
#X connect 137 0 129 0;
#X connect 138 0 129 0;
#X connect 140 0 147 0;
#X connect 140 1 141 0;
#X connect 141 0 142 0;
#X connect 141 0 147 1;
#X connect 142 0 141 1;
#X connect 143 0 141 1;
#X connect 144 0 233 0;
#X connect 145 0 214 0;
#X connect 145 1 143 0;
#X connect 145 1 150 0;
#X connect 145 1 161 0;
#X connect 146 0 145 0;
#X connect 150 0 149 0;
#X connect 152 0 129 0;
#X connect 153 0 129 0;
#X connect 154 0 158 0;
#X connect 155 0 157 0;
#X connect 155 1 143 0;
#X connect 156 0 155 0;
#X connect 157 0 140 0;
#X connect 159 0 146 0;
#X connect 161 0 160 0;
#X connect 161 0 220 0;
#X connect 162 0 160 0;
#X connect 162 0 220 0;
#X connect 163 0 180 0;
#X connect 163 1 143 0;
#X connect 164 0 163 0;
#X connect 165 0 179 0;
#X connect 165 1 143 0;
#X connect 166 0 165 0;
#X connect 167 0 217 0;
#X connect 167 1 143 0;
#X connect 168 0 167 0;
#X connect 169 0 181 0;
#X connect 169 1 143 0;
#X connect 170 0 169 0;
#X connect 171 0 221 0;
#X connect 171 1 143 0;
#X connect 172 0 171 0;
#X connect 173 0 129 0;
#X connect 179 0 140 0;
#X connect 180 0 140 0;
#X connect 181 0 140 0;
#X connect 182 0 108 0;
#X connect 182 0 106 0;
#X connect 184 0 204 0;
#X connect 184 1 143 0;
#X connect 185 0 184 0;
#X connect 186 0 231 0;
#X connect 186 1 143 0;
#X connect 187 0 186 0;
#X connect 189 0 35 0;
#X connect 190 0 83 0;
#X connect 191 0 84 0;
#X connect 192 0 81 0;
#X connect 193 0 82 0;
#X connect 194 0 79 0;
#X connect 195 0 80 0;
#X connect 196 0 76 0;
#X connect 197 0 77 0;
#X connect 198 0 232 0;
#X connect 198 1 143 0;
#X connect 199 0 198 0;
#X connect 200 0 101 0;
#X connect 204 0 140 0;
#X connect 205 0 154 0;
#X connect 205 0 206 0;
#X connect 207 0 101 0;
#X connect 208 0 223 0;
#X connect 208 1 143 0;
#X connect 209 0 208 0;
#X connect 211 0 101 0;
#X connect 212 0 101 0;
#X connect 213 0 101 0;
#X connect 214 0 144 0;
#X connect 215 0 97 0;
#X connect 217 0 140 0;
#X connect 218 0 101 0;
#X connect 221 0 140 0;
#X connect 223 0 140 0;
#X connect 224 0 140 0;
#X connect 225 0 156 0;
#X connect 225 1 164 0;
#X connect 225 2 168 0;
#X connect 225 3 166 0;
#X connect 225 4 170 0;
#X connect 225 5 172 0;
#X connect 225 6 185 0;
#X connect 225 7 187 0;
#X connect 225 8 199 0;
#X connect 225 9 209 0;
#X connect 225 10 227 0;
#X connect 226 0 224 0;
#X connect 226 1 143 0;
#X connect 227 0 226 0;
#X connect 228 0 102 0;
#X connect 228 1 104 0;
#X connect 228 2 207 0;
#X connect 228 3 218 0;
#X connect 228 4 115 0;
#X connect 228 5 234 0;
#X connect 228 6 116 0;
#X connect 228 7 200 0;
#X connect 228 8 211 0;
#X connect 228 9 212 0;
#X connect 228 10 213 0;
#X connect 228 11 229 0;
#X connect 229 0 101 0;
#X connect 231 0 140 0;
#X connect 232 0 140 0;
#X connect 233 0 140 0;
#X connect 233 0 149 0;
#X connect 233 0 162 0;
#X connect 234 0 101 0;
#X connect 235 0 19 0;
#X connect 235 1 20 1;
#X connect 236 0 19 1;
#X connect 237 0 20 0;
#X connect 238 0 250 0;
#X connect 239 0 215 0;
#X connect 240 0 67 0;
#X connect 241 0 235 0;
#X connect 242 0 26 0;
#X connect 242 0 247 0;
#X connect 243 0 246 0;
#X connect 244 0 243 1;
#X connect 245 0 243 1;
#X connect 247 0 248 0;
#X connect 248 0 249 0;
#X connect 249 0 238 0;
#X connect 250 0 251 0;
#X connect 250 1 22 0;
#X connect 251 0 22 0;
#X coords 0 -1 1 1 408 260 2 155 400;
