#N canvas 0 96 1172 984 10;
#X obj 268 637 s numelems;
#X obj 268 619 s rhythmrate;
#X obj 268 583 s rhythmsinglevalue;
#X obj 268 601 s rhythmepsilon;
#X obj 268 565 s rhythmexponent;
#X obj 268 201 r rhythmexponent-receive;
#X obj 268 129 r rhythmrate-receive;
#X obj 268 147 r rhythmsinglevalue-receive;
#X obj 268 165 r rhythmepsilon-receive;
#X obj 579 314 t f f;
#X obj 106 20 r rhythmdriver-receive;
#X obj 106 516 s rhythmdriver;
#X obj 268 183 r rhythmnumelems-receive;
#X obj 579 416 t b f;
#X obj 106 2 r rhythm-presets-receive;
#X obj 101 241 cnv 15 450 258 empty empty empty 20 12 0 14 -233017
-66577 0;
#X obj 268 371 nbx 3 20 -1e+37 1e+37 0 0 empty empty empty 0 -8 0 15
-262144 -1 -1 0 256;
#X obj 268 399 nbx 3 20 -1e+37 1e+37 0 0 empty empty empty 0 -8 0 15
-262144 -1 -1 0 256;
#X obj 268 425 nbx 3 20 -1e+37 1e+37 0 0 empty empty empty 0 -8 0 15
-262144 -1 -1 0 256;
#X obj 268 477 nbx 3 20 -1e+37 1e+37 0 0 empty empty empty 0 -8 0 15
-262144 -1 -1 0 256;
#X obj 208 301 tgl 13 0 empty empty empty 17 7 0 10 -262144 -1 -1 0
1;
#X obj 106 446 vradio 13 1 0 3 empty empty empty 0 -8 0 10 -262144
-1 -1 1;
#X obj 268 451 nbx 3 20 -1e+37 1e+37 0 0 empty empty empty 0 -8 0 15
-262144 -1 -1 0 256;
#X obj 242 263 bng 13 250 50 0 empty empty empty 17 7 0 10 -262144
-1 -1;
#X text 106 431 DRIVERS;
#X obj 106 260 vradio 13 1 0 12 empty empty empty 0 -8 0 10 -262144
-1 -1 10;
#X text 102 242 RHYTHMER PRESETS;
#X obj 331 241 cnv 15 219 258 empty empty empty 20 12 0 14 -262144
-66577 0;
#N canvas 43 96 723 507 (subpatch) 0;
#X array array1 8 float 3;
#A 0 14.3023 0 1.62066 1.23114 1.39039 1 2.88034 2.68788;
#X coords 0 15 8 0 220 258 2 0 0;
#X restore 331 241 graph;
#X obj 457 17 r auxknob-7;
#X obj 457 69 -;
#X obj 457 47 t f f;
#X obj 457 91 > 0;
#X obj 457 112 sel 1 0;
#X msg 457 136 1;
#X msg 496 136 -1;
#X obj 461 165 +;
#X text 483 241 ''';
#X text 120 445 Rand \; Sing \; Feedb;
#X text 929 679 VOLUME;
#X text 921 703 OFF;
#X text 938 655 NEW RAND;
#X text 958 608 BEAT SING;
#X text 972 583 DARK GRIND;
#X text 986 559 LIGHT HOP;
#X obj 733 332 == 0;
#X msg 733 364 3;
#X text 766 359 To reset all ugen \; output levels to 1;
#X text 995 535 FED-BACK 1;
#X text 1014 511 FED-BACK 2;
#X text 940 631 GRAY GRIND;
#X obj 626 416 sel 0 1 2 3 4 5 6 7 8 9 10 11;
#X obj 417 567 RhythmerSF-ShufflerSF;
#X obj 414 611 Rhythmer-Panel-Control;
#X obj 427 521 RhythmerSF-Targets;
#X obj 294 332 nbx 1 20 -1e+37 1e+37 0 0 empty empty empty 0 -8 0 15
-262144 -1 -1 0 256;
#X obj 293 39 r rhythmgliss-receive;
#X obj 294 511 s rhythmgliss;
#X obj 242 529 s rhythmrandomize;
#X obj 579 245 r rhythmrandomize-receive;
#X obj 579 956 s rhythmrandomize-receive;
#X obj 208 336 tgl 13 0 empty empty empty 17 7 0 10 -262144 -1 -1 0
1;
#X obj 208 374 tgl 13 0 empty empty empty 17 7 0 10 -262144 -1 -1 0
1;
#X text 263 354 DURATION;
#X obj 208 263 tgl 13 0 empty empty empty 17 7 0 10 -262144 -1 -1 0
1;
#X text 233 242 SOURCE;
#X obj 579 276 s rhythmer-source-gate;
#X obj 789 332 s rhythmer-volume-gate;
#X obj 579 349 s rhythmer-gliss-gate;
#X obj 579 387 s rhythmer-duration-gate;
#X text 237 478 EXP;
#X text 225 453 ELEMS;
#X text 237 427 EPS;
#X text 231 399 SING;
#X text 237 315 GLISS;
#X obj 281 294 nbx 2 20 -1e+37 1e+37 0 0 empty empty empty 0 -8 0 15
-262144 -1 -1 0 256;
#X obj 281 259 nbx 2 20 -1e+37 1e+37 0 0 empty empty empty 0 -8 0 15
-262144 -1 -1 0 256;
#X text 231 279 VOLUME;
#X text 453 539 TABLES;
#X text 453 585 STATFEED;
#X obj 281 3 r rhythmsource-receive;
#X obj 281 21 r rhythmvolume-receive;
#X obj 637 314 s rhythmvolume;
#X text 812 415 RHYTHMER PRESETS;
#X obj 208 57 r rhythmer-source-gate-receive;
#X obj 208 75 r rhythmer-volume-gate-receive;
#X obj 208 93 r rhythmer-gliss-gate-receive;
#X obj 208 111 r rhythmer-duration-gate-receive;
#X obj 236 332 nbx 3 20 -1e+37 1e+37 0 0 empty empty empty 0 -8 0 10
-262144 -1 -1 0 256;
#X obj 236 547 s rhythmer-gliss-scaler;
#X text 431 187 To attach to DURATION \, and back into \; addition
right inlet.;
#X obj 236 219 r rhythm-gliss-scaler-receive;
#X msg 626 702 0 0 0 0 0 0 125 0 0.01 8 1 999 999 999 0 1;
#X msg 640 678 99 99 1 1 1 1 125 0 0.01 8 10 999 999 999 0 1;
#X msg 654 654 0 1 1 0 1 1 125 0 0.01 8 6.5 999 999 999 0 1;
#X msg 683 606 1 3 1 0 1 1 125 0 0.01 8 3 999 999 999 0 1;
#X msg 725 534 2 6 1 1 1 1 125 0 0.01 10 7 999 999 999 0 1;
#X msg 740 510 2 7 1 0 1 1 125 0 0.01 16 16 999 999 999 0 1;
#X msg 754 486 2 8 1 0 1 1 125 0 0.01 12 2 999 999 999 0 1;
#X msg 768 462 2 9 1 0 1 1 125 0 0.01 16 2 999 999 999 0 1;
#X msg 782 438 2 10 1 0 1 1 125 0 0.01 16 2 999 999 999 0 1;
#X text 845 736 rhythmdriver-receive: topology \; rhythmtarget-receive:
(RhythmSF-Targets) \; rhythmer-volume-gate-receive: vols on/off \;
rhythmer-gliss-gate-receive: \; rhythmer-duration-gate-receive: \;
rhythmrate-receive: \; rhythmsinglevalue-receive: \; rhythmepsilon-receive:
\; rhythmnumelems-receive: \; rhythmexponent-receive: rhythmsource-receive:
\; rhythmvolume-receive: \; rhythmgliss-receive: \; rhythmstartstop:
starts metro \;;
#X obj 720 279 s rhythmsource;
#X msg 668 630 1 2 1 0 1 1 125 0 0.01 8 3 999 999 999 0 1;
#X msg 622 724 \; rhythmdriver-receive \$1 \; rhythmtarget-receive
\$2 \; rhythmer-source-gate-receive \$3 \; rhythmer-volume-gate-receive
\$4 \; rhythmer-gliss-gate-receive \$5 \; rhythmer-duration-gate-receive
\$6 \; rhythmrate-receive \$7 \; rhythmsinglevalue-receive \$8 \; rhythmepsilon-receive
\$9 \; rhythmnumelems-receive \$10 \; rhythmexponent-receive \$11 \;
rhythmsource-receive \$12 \; rhythmvolume-receive \$13 \; rhythmgliss-receive
\$14 \; rhythm-gliss-scaler-receive \$15 \; rhythmstartstop \$16;
#X msg 697 582 1 4 1 0 1 1 125 0 0.01 8 2.3 999 999 999 0 1;
#X msg 711 558 1 5 1 0 1 1 125 0 0.01 8 2.5 999 999 999 1 1;
#X text 121 258 ALL OFF \; VOL \; NEW RAND \; GRAY GRIND \; BEAT SING
\; DARK GRIND \; LIGHT HOP \; FED-BACK 1 \; FED-BACK 2 \; FED-BACK
3 \; FED-BACK 4 \; WHOKNOWS \;;
#X obj 171 437 tgl 15 0 empty empty empty 17 7 0 10 -262144 -1 -1 0
1;
#X obj 171 655 s rhythmstartstop;
#X obj 106 38 r rhythmstartstop-send;
#X msg 171 219 set \$1;
#X text 160 420 On/Off;
#X connect 5 0 19 0;
#X connect 6 0 16 0;
#X connect 7 0 17 0;
#X connect 8 0 18 0;
#X connect 9 0 67 0;
#X connect 9 1 45 0;
#X connect 10 0 21 0;
#X connect 12 0 22 0;
#X connect 13 0 60 0;
#X connect 13 1 51 0;
#X connect 14 0 25 0;
#X connect 16 0 1 0;
#X connect 17 0 2 0;
#X connect 18 0 3 0;
#X connect 19 0 4 0;
#X connect 20 0 9 0;
#X connect 21 0 11 0;
#X connect 22 0 0 0;
#X connect 23 0 58 0;
#X connect 25 0 13 0;
#X connect 29 0 31 0;
#X connect 30 0 32 0;
#X connect 31 0 30 1;
#X connect 31 1 30 0;
#X connect 32 0 33 0;
#X connect 33 0 34 0;
#X connect 33 1 35 0;
#X connect 34 0 36 0;
#X connect 35 0 36 0;
#X connect 45 0 46 0;
#X connect 46 0 67 0;
#X connect 51 0 92 0;
#X connect 51 1 93 0;
#X connect 51 2 94 0;
#X connect 51 3 103 0;
#X connect 51 4 95 0;
#X connect 51 5 105 0;
#X connect 51 6 106 0;
#X connect 51 7 96 0;
#X connect 51 8 97 0;
#X connect 51 9 98 0;
#X connect 51 10 99 0;
#X connect 51 11 100 0;
#X connect 55 0 57 0;
#X connect 56 0 55 0;
#X connect 59 0 23 0;
#X connect 61 0 68 0;
#X connect 62 0 69 0;
#X connect 64 0 66 0;
#X connect 75 0 82 0;
#X connect 76 0 102 0;
#X connect 80 0 76 0;
#X connect 81 0 75 0;
#X connect 84 0 64 0;
#X connect 85 0 20 0;
#X connect 86 0 61 0;
#X connect 87 0 62 0;
#X connect 88 0 89 0;
#X connect 91 0 88 0;
#X connect 92 0 104 0;
#X connect 93 0 104 0;
#X connect 94 0 104 0;
#X connect 95 0 104 0;
#X connect 96 0 104 0;
#X connect 97 0 104 0;
#X connect 98 0 104 0;
#X connect 99 0 104 0;
#X connect 100 0 104 0;
#X connect 103 0 104 0;
#X connect 105 0 104 0;
#X connect 106 0 104 0;
#X connect 108 0 109 0;
#X connect 110 0 111 0;
#X connect 111 0 108 0;
#X coords 0 -1 1 1 452 260 2 100 240;
