#N canvas 67 130 1265 883 10;
#X obj 379 638 dac~;
#X obj 374 131 r~ ugen0;
#X obj 374 174 *~;
#X obj 684 174 *~;
#X obj 527 174 *~;
#X obj 318 81 vsl 15 70 0 1 0 0 empty empty empty 0 -9 0 10 -262144
-1 -1 3450 1;
#X obj 373 397 *~;
#X obj 403 397 *~;
#X obj 373 450 throw~ dac-left;
#X obj 379 495 catch~ dac-left;
#X obj 430 517 catch~ dac-right;
#X obj 404 426 throw~ dac-right;
#X obj 528 397 *~;
#X obj 560 397 *~;
#X obj 528 450 throw~ dac-left;
#X obj 561 426 throw~ dac-right;
#X obj 683 397 *~;
#X obj 713 397 *~;
#X obj 683 450 throw~ dac-left;
#X obj 714 426 throw~ dac-right;
#X obj 566 517 r sbutton-6;
#X obj 566 540 sel 127;
#X obj 576 610 sel 127;
#X obj 576 587 r mbutton-6;
#X msg 566 563 1;
#X msg 576 641 0;
#X obj 566 671 s stereo-mono;
#X obj 526 130 r~ ugen1;
#X obj 684 130 r~ ugen2;
#X obj 725 357 stereo-lining;
#X floatatom 193 340 5 0 0 0 - - -;
#X obj 272 318 loadbang;
#X msg 272 340 500;
#X obj 409 275 sel 0 1;
#X obj 593 257 r stereo-mono;
#X obj 409 357 stereo-lining;
#X obj 567 357 stereo-lining;
#X obj 567 275 sel 0 1;
#X obj 725 275 sel 0 1;
#X obj 567 495 loadbang;
#X msg 586 322 0.5 0.5;
#X msg 409 297 0.33 0.33;
#X msg 567 297 0.33 0.33;
#X msg 725 297 0.33 0.33;
#X msg 428 321 0.5 0;
#X msg 744 321 0 0.5;
#X obj 193 295 r stereo-mono-transition-time;
#X obj 389 151 r ugen0-external-vol-2;
#X obj 542 150 r ugen1-external-vol-2;
#X obj 699 150 r ugen2-external-vol-2;
#X obj 374 234 *~;
#X obj 527 234 *~;
#X obj 684 234 *~;
#X obj 565 216 r rhythm-vol-1;
#X obj 412 216 r rhythm-vol-0;
#X obj 712 216 r rhythm-vol-2;
#X obj 380 560 freeverb~;
#X msg 683 748 roomsize \$1;
#X msg 706 708 damping \$1;
#X msg 729 667 width \$1;
#X msg 752 628 wet \$1;
#X msg 776 589 dry \$1;
#X msg 675 603 bypass \$1;
#X obj 450 542 r to_freeverb;
#X obj 675 777 s to_freeverb;
#X floatatom 683 729 5 0 0 0 - - -;
#X floatatom 706 688 5 0 0 0 - - -;
#X floatatom 729 649 5 0 0 0 - - -;
#X floatatom 752 610 5 0 0 0 - - -;
#X floatatom 776 571 5 0 0 0 - - -;
#X obj 683 495 loadbang;
#X obj 683 539 unpack f f f f f;
#X obj 675 576 r reverb-bypass;
#X obj 123 97 inlet;
#X obj 123 251 writesf~ 3;
#X obj 123 118 sel 0 1;
#X obj 189 162 random 10000;
#X obj 189 185 t b f;
#X msg 123 203 start;
#X msg 123 144 stop;
#X msg 683 518 0.3 0.6 0.8 0.2 0.7;
#X obj 373 204 *~;
#X obj 528 206 *~;
#X obj 683 206 *~;
#X obj 318 187 line~;
#X obj 318 165 Glisser;
#X obj 357 101 r gliss-length-elems;
#X obj 633 30 key;
#X obj 684 14 ctlin;
#X floatatom 684 36 5 0 0 0 - - -;
#X floatatom 720 36 5 0 0 0 - - -;
#X obj 633 96 +;
#X msg 189 136 seed \$1;
#X obj 633 118 % 1000;
#X obj 684 56 +;
#X obj 633 74 +;
#X obj 633 52 t b f;
#X obj 666 96 f;
#X obj 358 61 inlet;
#X msg 133 227 open /home/joshua/Desktop/SFrec-\$1.wav;
#X text 216 259 TRANSITION TIME B/T \; STEREO AND MONO;
#X obj 379 589 bp~, f 6;
#X obj 431 589 bp~, f 6;
#X msg 492 571 1.2;
#X obj 240 571 r master_bandpass;
#X connect 1 0 2 0;
#X connect 2 0 81 0;
#X connect 3 0 83 0;
#X connect 4 0 82 0;
#X connect 5 0 85 0;
#X connect 6 0 8 0;
#X connect 7 0 11 0;
#X connect 9 0 56 0;
#X connect 10 0 56 1;
#X connect 12 0 14 0;
#X connect 13 0 15 0;
#X connect 16 0 18 0;
#X connect 17 0 19 0;
#X connect 20 0 21 0;
#X connect 21 0 24 0;
#X connect 22 0 25 0;
#X connect 23 0 22 0;
#X connect 24 0 26 0;
#X connect 25 0 26 0;
#X connect 27 0 4 0;
#X connect 28 0 3 0;
#X connect 29 0 16 1;
#X connect 29 1 17 1;
#X connect 30 0 29 1;
#X connect 30 0 36 1;
#X connect 30 0 35 1;
#X connect 31 0 32 0;
#X connect 32 0 30 0;
#X connect 33 0 41 0;
#X connect 33 1 44 0;
#X connect 34 0 33 0;
#X connect 34 0 37 0;
#X connect 34 0 38 0;
#X connect 35 0 6 1;
#X connect 35 1 7 1;
#X connect 36 0 12 1;
#X connect 36 1 13 1;
#X connect 37 0 42 0;
#X connect 37 1 40 0;
#X connect 38 0 43 0;
#X connect 38 1 45 0;
#X connect 39 0 24 0;
#X connect 39 0 103 0;
#X connect 40 0 36 0;
#X connect 41 0 35 0;
#X connect 42 0 36 0;
#X connect 43 0 29 0;
#X connect 44 0 35 0;
#X connect 45 0 29 0;
#X connect 46 0 30 0;
#X connect 47 0 2 1;
#X connect 48 0 4 1;
#X connect 49 0 3 1;
#X connect 50 0 74 0;
#X connect 50 0 6 0;
#X connect 50 0 7 0;
#X connect 51 0 74 1;
#X connect 51 0 12 0;
#X connect 51 0 13 0;
#X connect 52 0 74 2;
#X connect 52 0 16 0;
#X connect 52 0 17 0;
#X connect 53 0 51 1;
#X connect 54 0 50 1;
#X connect 55 0 52 1;
#X connect 56 0 101 0;
#X connect 56 1 102 0;
#X connect 57 0 64 0;
#X connect 58 0 64 0;
#X connect 59 0 64 0;
#X connect 60 0 64 0;
#X connect 61 0 64 0;
#X connect 62 0 64 0;
#X connect 63 0 56 0;
#X connect 65 0 57 0;
#X connect 66 0 58 0;
#X connect 67 0 59 0;
#X connect 68 0 60 0;
#X connect 69 0 61 0;
#X connect 70 0 80 0;
#X connect 71 0 65 0;
#X connect 71 1 66 0;
#X connect 71 2 67 0;
#X connect 71 3 68 0;
#X connect 71 4 69 0;
#X connect 72 0 62 0;
#X connect 73 0 75 0;
#X connect 75 0 79 0;
#X connect 75 1 76 0;
#X connect 76 0 77 0;
#X connect 77 0 78 0;
#X connect 77 1 99 0;
#X connect 78 0 74 0;
#X connect 79 0 74 0;
#X connect 80 0 71 0;
#X connect 81 0 50 0;
#X connect 82 0 51 0;
#X connect 83 0 52 0;
#X connect 84 0 81 1;
#X connect 84 0 82 1;
#X connect 84 0 83 1;
#X connect 85 0 84 0;
#X connect 86 0 85 1;
#X connect 87 0 96 0;
#X connect 88 0 89 0;
#X connect 88 1 90 0;
#X connect 89 0 94 0;
#X connect 90 0 94 1;
#X connect 91 0 97 0;
#X connect 91 0 93 0;
#X connect 92 0 76 0;
#X connect 93 0 92 0;
#X connect 94 0 95 0;
#X connect 95 0 91 0;
#X connect 96 0 95 0;
#X connect 96 1 95 1;
#X connect 97 0 91 1;
#X connect 98 0 5 0;
#X connect 99 0 74 0;
#X connect 101 0 0 0;
#X connect 102 0 0 1;
#X connect 103 0 101 2;
#X connect 103 0 102 2;
#X connect 104 0 101 1;
#X connect 104 0 102 1;
