#N canvas 43 53 1323 715 10;
#X obj 957 674 dac~;
#X obj 284 38 r~ ugen0;
#X obj 284 91 *~;
#X obj 644 81 *~;
#X obj 457 81 *~;
#X obj 283 291 lop~ 300;
#X obj 23 89 vsl 15 128 1 100 1 0 empty empty empty 0 -9 0 10 -262144
-1 -1 12700 1;
#X obj 143 89 vsl 15 128 0 1 0 0 empty empty empty 0 -9 0 10 -262144
-1 -1 12700 1;
#X floatatom 203 156 5 0 0 0 - - -, f 5;
#X obj 458 291 lop~ 300;
#X obj 643 291 lop~ 300;
#X obj 282 557 *~;
#X obj 313 557 *~;
#X obj 282 660 throw~ dac-left;
#X obj 929 555 catch~ dac-left;
#X obj 990 577 catch~ dac-right;
#X obj 314 636 throw~ dac-right;
#X obj 459 557 *~;
#X obj 490 557 *~;
#X obj 459 660 throw~ dac-left;
#X obj 491 636 throw~ dac-right;
#X obj 642 557 *~;
#X obj 673 557 *~;
#X obj 642 660 throw~ dac-left;
#X obj 674 636 throw~ dac-right;
#X obj 91 455 r sbutton-6;
#X obj 91 478 sel 127;
#X obj 101 548 sel 127;
#X obj 101 525 r mbutton-6;
#X msg 91 501 1;
#X msg 101 579 0;
#X obj 91 609 s stereo-mono;
#X obj 456 37 r~ ugen1;
#X obj 644 37 r~ ugen2;
#X obj 685 517 stereo-lining;
#X floatatom 913 503 5 0 0 0 - - -, f 5;
#X obj 931 426 loadbang;
#X msg 931 454 500;
#X text 907 353 Transition time b/t \; stereo and mono;
#X obj 324 425 sel 0 1;
#X obj 800 408 r stereo-mono;
#X obj 319 517 stereo-lining;
#X obj 497 517 stereo-lining;
#X obj 524 425 sel 0 1;
#X obj 714 425 sel 0 1;
#X obj 77 431 loadbang;
#X obj 257 8 loadbang;
#X msg 547 472 0.5 0.5;
#X text 174 395 Need to make the amplitude not go above 1 for each
side...;
#X obj 800 441 bng 15 250 50 0 empty empty empty 17 7 0 10 -262144
-1 -1;
#X msg 324 447 0.33 0.33;
#X msg 524 447 0.33 0.33;
#X msg 714 447 0.33 0.33;
#X msg 346 471 0.5 0;
#X msg 737 471 0 0.5;
#X obj 1147 207 switch~;
#X obj 1147 174 > 0;
#X obj 1147 42 r ugen-0-dsp;
#X obj 1147 62 r ugen-1-dsp;
#X obj 1147 82 r ugen-2-dsp;
#X obj 1147 143 expr $f1 + $f2 + $f3;
#X obj 1252 113 t b f;
#X obj 1183 113 t b f;
#X obj 913 388 r stereo-mono-transition-time;
#X obj 302 58 r ugen0-external-vol-2;
#X obj 475 57 r ugen1-external-vol-2;
#X obj 662 57 r ugen2-external-vol-2;
#X obj 284 254 *~;
#X obj 457 254 *~;
#X obj 644 254 *~;
#X obj 475 223 r rhythm-vol-1;
#X obj 302 223 r rhythm-vol-0;
#X obj 662 223 r rhythm-vol-2;
#X obj 930 603 freeverb~;
#X msg 1147 618 roomsize \$1;
#X msg 1174 578 damping \$1;
#X msg 1201 537 width \$1;
#X msg 1228 498 wet \$1;
#X msg 1256 459 dry \$1;
#X msg 1127 477 bypass \$1;
#X obj 826 586 r to_freeverb;
#X obj 1127 664 s to_freeverb;
#X floatatom 1147 599 5 0 0 0 - - -, f 5;
#X floatatom 1174 558 5 0 0 0 - - -, f 5;
#X floatatom 1201 519 5 0 0 0 - - -, f 5;
#X floatatom 1228 480 5 0 0 0 - - -, f 5;
#X floatatom 1256 441 5 0 0 0 - - -, f 5;
#X obj 1147 365 loadbang;
#X obj 1147 409 unpack f f f f f;
#X obj 1127 450 r reverb-bypass;
#X obj 322 323 s~ to-GEM-0;
#X obj 503 323 s~ to-GEM-1;
#X obj 707 323 s~ to-GEM-2;
#X obj 855 118 inlet;
#X obj 855 271 writesf~ 3;
#X obj 855 139 sel 0 1;
#X obj 901 165 random 10000;
#X obj 901 187 t b f;
#X msg 901 239 start;
#X msg 855 165 stop;
#X msg 933 211 open statfeedrec-\$1.wav;
#X obj 1147 345 bng 15 250 50 0 empty empty empty 17 7 0 10 -262144
-1 -1;
#X msg 1147 388 0.3 0.6 0.8 0.2 0.7;
#X obj 143 7 r auxfader-7;
#X text 27 39 Low-Pass;
#X obj 23 64 / 1.27;
#X obj 143 64 / 127;
#X msg 209 47 127;
#X obj 23 7 r auxknob-7;
#X obj 284 170 *~;
#X obj 458 170 *~;
#X obj 643 170 *~;
#X obj 351 113 dac~;
#X floatatom 58 323 5 0 0 0 - - -, f 5;
#X obj 23 274 * 200;
#X obj 1015 171 print;
#X connect 1 0 2 0;
#X connect 2 0 109 0;
#X connect 3 0 111 0;
#X connect 4 0 110 0;
#X connect 5 0 11 0;
#X connect 5 0 12 0;
#X connect 5 0 90 0;
#X connect 6 0 114 0;
#X connect 7 0 8 0;
#X connect 8 0 109 1;
#X connect 8 0 110 1;
#X connect 8 0 111 1;
#X connect 9 0 17 0;
#X connect 9 0 18 0;
#X connect 9 0 91 0;
#X connect 10 0 21 0;
#X connect 10 0 22 0;
#X connect 10 0 92 0;
#X connect 11 0 13 0;
#X connect 12 0 16 0;
#X connect 14 0 73 0;
#X connect 15 0 73 1;
#X connect 17 0 19 0;
#X connect 18 0 20 0;
#X connect 21 0 23 0;
#X connect 22 0 24 0;
#X connect 25 0 26 0;
#X connect 26 0 29 0;
#X connect 27 0 30 0;
#X connect 28 0 27 0;
#X connect 29 0 31 0;
#X connect 30 0 31 0;
#X connect 32 0 4 0;
#X connect 33 0 3 0;
#X connect 34 0 21 1;
#X connect 34 1 22 1;
#X connect 35 0 34 1;
#X connect 35 0 42 1;
#X connect 35 0 41 1;
#X connect 36 0 37 0;
#X connect 37 0 35 0;
#X connect 39 0 50 0;
#X connect 39 1 53 0;
#X connect 40 0 39 0;
#X connect 40 0 43 0;
#X connect 40 0 44 0;
#X connect 40 0 49 0;
#X connect 41 0 11 1;
#X connect 41 1 12 1;
#X connect 42 0 17 1;
#X connect 42 1 18 1;
#X connect 43 0 51 0;
#X connect 43 1 47 0;
#X connect 44 0 52 0;
#X connect 44 1 54 0;
#X connect 45 0 29 0;
#X connect 46 0 107 0;
#X connect 47 0 42 0;
#X connect 50 0 41 0;
#X connect 51 0 42 0;
#X connect 52 0 34 0;
#X connect 53 0 41 0;
#X connect 54 0 34 0;
#X connect 56 0 55 0;
#X connect 57 0 61 0;
#X connect 58 0 62 0;
#X connect 59 0 60 0;
#X connect 60 0 56 0;
#X connect 61 0 60 0;
#X connect 61 1 60 2;
#X connect 62 0 60 0;
#X connect 62 1 60 1;
#X connect 63 0 35 0;
#X connect 64 0 2 1;
#X connect 65 0 4 1;
#X connect 66 0 3 1;
#X connect 67 0 5 0;
#X connect 67 0 94 0;
#X connect 68 0 9 0;
#X connect 68 0 94 1;
#X connect 69 0 10 0;
#X connect 69 0 94 2;
#X connect 70 0 68 1;
#X connect 71 0 67 1;
#X connect 72 0 69 1;
#X connect 73 0 0 0;
#X connect 73 1 0 1;
#X connect 74 0 81 0;
#X connect 75 0 81 0;
#X connect 76 0 81 0;
#X connect 77 0 81 0;
#X connect 78 0 81 0;
#X connect 79 0 81 0;
#X connect 80 0 73 0;
#X connect 82 0 74 0;
#X connect 83 0 75 0;
#X connect 84 0 76 0;
#X connect 85 0 77 0;
#X connect 86 0 78 0;
#X connect 87 0 102 0;
#X connect 88 0 82 0;
#X connect 88 1 83 0;
#X connect 88 2 84 0;
#X connect 88 3 85 0;
#X connect 88 4 86 0;
#X connect 89 0 79 0;
#X connect 93 0 95 0;
#X connect 95 0 99 0;
#X connect 95 1 96 0;
#X connect 96 0 97 0;
#X connect 96 0 115 0;
#X connect 97 0 98 0;
#X connect 97 1 100 0;
#X connect 98 0 94 0;
#X connect 99 0 94 0;
#X connect 100 0 94 0;
#X connect 101 0 102 0;
#X connect 102 0 88 0;
#X connect 103 0 106 0;
#X connect 105 0 6 0;
#X connect 106 0 7 0;
#X connect 107 0 106 0;
#X connect 107 0 105 0;
#X connect 108 0 105 0;
#X connect 109 0 67 0;
#X connect 110 0 68 0;
#X connect 111 0 69 0;
#X connect 114 0 5 1;
#X connect 114 0 9 1;
#X connect 114 0 10 1;
#X connect 114 0 113 0;
