#N canvas 217 253 450 300 10;
#X obj 162 124 statfeed;
#X obj 162 68 random 1000;
#X obj 162 96 / 999;
#X floatatom 170 190 5 0 0 0 - - -, f 5;
#X floatatom 248 94 5 0 0 0 - - -, f 5;
#X floatatom 301 95 5 0 0 0 - - -, f 5;
#X obj 172 33 bng 15 250 50 0 empty empty empty 17 7 0 10 -262144 -1
-1;
#X connect 0 0 3 0;
#X connect 1 0 2 0;
#X connect 2 0 0 0;
#X connect 4 0 0 1;
#X connect 5 0 0 2;
#X connect 6 0 1 0;
