#N canvas 706 221 566 418 10;
#X obj 160 145 unpack;
#X obj 160 244 line;
#X obj 160 221 pack;
#X msg 290 180 set \$1;
#X floatatom 181 198 5 0 0 0 - - -;
#X obj 160 174 t f b;
#X obj 160 273 outlet;
#X obj 230 244 line;
#X obj 230 221 pack;
#X floatatom 251 198 5 0 0 0 - - -;
#X obj 230 174 t f b;
#X obj 230 273 outlet;
#X obj 290 148 inlet;
#X obj 160 116 inlet;
#X connect 0 0 5 0;
#X connect 0 1 10 0;
#X connect 1 0 6 0;
#X connect 2 0 1 0;
#X connect 3 0 4 0;
#X connect 3 0 9 0;
#X connect 4 0 2 1;
#X connect 5 0 2 0;
#X connect 5 1 4 0;
#X connect 7 0 11 0;
#X connect 8 0 7 0;
#X connect 9 0 8 1;
#X connect 10 0 8 0;
#X connect 10 1 9 0;
#X connect 12 0 3 0;
#X connect 13 0 0 0;
