#N canvas 753 221 450 402 10;
#X obj 171 115 unpack;
#X obj 160 244 line;
#X obj 160 221 pack;
#X msg 366 183 set \$1;
#X floatatom 192 200 5 0 0 0 - - -, f 5;
#X obj 160 174 t f b;
#X obj 160 319 outlet;
#X obj 240 244 line;
#X obj 240 221 pack;
#X floatatom 272 200 5 0 0 0 - - -, f 5;
#X obj 240 174 t f b;
#X obj 240 319 outlet;
#X obj 366 39 inlet;
#X obj 186 86 inlet;
#X connect 0 0 5 0;
#X connect 0 1 10 0;
#X connect 1 0 6 0;
#X connect 2 0 1 0;
#X connect 3 0 4 0;
#X connect 3 0 9 0;
#X connect 4 0 2 1;
#X connect 5 0 2 0;
#X connect 5 1 4 0;
#X connect 7 0 11 0;
#X connect 8 0 7 0;
#X connect 9 0 8 1;
#X connect 10 0 8 0;
#X connect 10 1 9 0;
#X connect 12 0 3 0;
#X connect 13 0 0 0;
