#N canvas 51 91 1256 654 10;
#X obj 517 989 s to_global_presets;
#X obj 33 33 vradio 13 1 0 8 empty empty empty 0 -8 0 10 -262144 -1
-1 7;
#N canvas 41 97 450 250 (subpatch) 0;
#X array DELAY 10 float 3;
#A 0 2500 400 250 1000 1800 7000 0 100 100 100;
#X coords 0 1000 10 0 200 140 1 0 0;
#X restore 1062 25 graph;
#N canvas 41 97 450 250 (subpatch) 0;
#X array GLISS 10 float 3;
#A 0 1700 0 0 1000 0 7000 0 120 13000 120;
#X coords 0 10 10 0 200 140 1 0 0;
#X restore 1062 508 graph;
#X obj 194 301 Array-Setter-Global;
#X obj 194 643 Array-Setter-Delay;
#X obj 611 291 Array-Setter-Gliss;
#X obj 194 395 sel 0 1 2 3 4 5;
#X obj 611 68 sel 0 1 2 3 4 5;
#N canvas 41 97 450 250 (subpatch) 0;
#X array GLOBAL 10 float 3;
#A 0 1 4 1 20 9 5 5 19 19 13;
#X coords 0 10 10 0 200 140 1 0 0;
#X restore 1062 186 graph;
#X obj 976 720 s array-setter-reset;
#X obj 985 775 s array-setters;
#X obj 194 42 r array-setters;
#X obj 611 42 r array-setters;
#X obj 194 369 r array-setters;
#X obj 141 948 tabread DELAY;
#X obj 517 961 tabread GLOBAL;
#X obj 296 960 tabread GLISS;
#X obj 930 686 t b f b;
#X obj 159 758 f;
#X obj 195 758 + 1;
#X msg 177 736 0;
#X obj 177 715 r array-setter-reset;
#X obj 109 976 del;
#X obj 159 785 t f f;
#X msg 62 883 stop;
#X obj 109 920 t b f;
#X obj 62 850 sel 1;
#X obj 62 822 >= 5;
#X text 41 16 TRANSITIONS;
#X msg 296 863 set \$1;
#X floatatom 296 884 5 0 0 0 - - -, f 5;
#X obj 296 902 + 1;
#X obj 954 1009 s seqlen;
#X obj 296 841 r seqlen;
#X obj 87 781 r seqlen;
#X text 359 867 Gliss needs extra \; value to reset it \; for the sake
of \; performance.;
#X text 603 315 Gliss gets extra value \; see below.;
#X obj 930 1047 s triggernext;
#X obj 159 692 r triggernext;
#X obj 109 998 s triggernext;
#X obj 523 889 s globaltabread;
#X obj 583 826 s glisstabread;
#X obj 543 868 s delaytabread;
#X obj 296 932 r glisstabread;
#X obj 109 892 r delaytabread;
#X obj 517 932 r globaltabread;
#X obj 151 867 del 10;
#X obj 953 749 t f f;
#X text 994 986 Note: N-1;
#X obj 296 988 s gliss-length-receive;
#X obj 686 389 sel 0 1 2 3 4 5;
#X obj 686 363 r array-setters;
#X obj 686 612 Array-Setter-Gliss-Presets;
#N canvas 41 97 450 250 (subpatch) 0;
#X array GLISS-PRESETS 10 float 3;
#A 0 2 0 0 1 2 4 0 0 0 0;
#X coords 0 10 10 0 200 140 1 0 0;
#X restore 1062 347 graph;
#X obj 523 802 t f f f f;
#X obj 563 847 s glisspresetstabread;
#X obj 689 934 r glisspresetstabread;
#X obj 689 962 tabread GLISS-PRESETS;
#X obj 689 990 s to_gliss_presets;
#X floatatom 640 922 5 0 0 0 - - -, f 5;
#X floatatom 448 925 5 0 0 0 - - -, f 5;
#X floatatom 242 910 5 0 0 0 - - -, f 5;
#X obj 987 911 t b b;
#X obj 1019 962 s rhythm-presets-receive;
#X msg 1019 932 0;
#X msg 720 549 4 \, 0;
#X msg 645 228 13000 \, 0;
#X msg 986 932 1;
#X msg 228 240 18 \, 18;
#X msg 211 260 6 \, 7 \, 8 \, 7 \, 9 \, 7 \, 8 \, 19 \, 19;
#X msg 703 570 0 \, 0 \, 0 \, 0 \, 0 \, 0 \, 0 \, 4 \, 0;
#X msg 686 591 2 \, 0 \, 0 \, 1 \, 2 \, 4 \, 0;
#X msg 628 249 0 \, 0 \, 0 \, 0 \, 0 \, 0 \, 0 \, 2000 \, 0;
#X msg 970 960 8;
#X msg 953 985 6;
#X msg 211 601 2000 \, 600 \, 2700 \, 400 \, 2300 \, 600 \, 3000 \,
2000 \, 0;
#X msg 228 580 13000 \, 13000;
#X msg 662 207 230 \, 170 \, 130 \, 150 \, 190 \, 100 \, 110 \, 120
;
#X msg 245 560 100 \, 100 \, 100 \, 100 \, 100 \, 100 \, 100 \, 120
;
#X floatatom 79 672 5 0 0 0 - - -, f 5;
#X msg 1004 890 8;
#X msg 262 539 100 \, 100 \, 100 \, 100 \, 350 \, 100 \, 100 \, 100
\, 100 \, 100;
#X msg 1021 869 10;
#X msg 262 200 10 \, 5 \, 4 \, 12 \, 20 \, 0 \, 4 \, 5 \, 2 \, 3 \,
19;
#X msg 679 187 250 \, 250 \, 250 \, 250 \, 250 \, 250 \, 250 \, 250
\, 250 \, 250;
#X msg 754 507 4 \, 4 \, 4 \, 4 \, 4 \, 4 \, 4 \, 4 \, 4 \, 4;
#X msg 279 180 5 \, 1 \, 4 \, 12 \, 1 \, 5 \, 20 \, 4 \, 5 \, 21;
#X msg 696 167 0 \, 0 \, 0 \, 0 \, 0 \, 0 \, 0 \, 0 \, 0 \, 0;
#X msg 737 528 0 \, 0 \, 0 \, 0 \, 0 \, 0 \, 0 \, 0 \, 0 \, 0;
#X msg 1037 842 10;
#X msg 296 160 4 \, 5 \, 13 \, 19 \, 14 \, 5 \, 4 \, 19 \, 14 \, 13
;
#X msg 279 505 80 \, 100 \, 90 \, 80 100 \, 100 \, 160 \, 80 \, 90
\, 100;
#X msg 245 220 1 \, 2 \, 4 \, 5 \, 16 \, 10 \, 4 \, 5 \, 19;
#X msg 194 280 1 \, 4 \, 1 \, 20 \, 9 \, 5 \, 5;
#X msg 611 269 1700 \, 0 \, 0 \, 1000 \, 0 \, 7000 \, 0;
#X msg 194 622 2500 \, 400 \, 250 \, 1000 \, 1800 \, 7000 \, 0;
#X obj 194 68 sel 0 1 2 3 4 5 6 7;
#X obj 953 808 sel 0 1 2 3 4 5 6;
#X obj 33 255 Transition-Randomizer;
#X text 49 31 TO WIND \; TO GRIND \; TO SALT \; FAST \; X \; X \; X
\; Random;
#X obj 33 198 route 7;
#X obj 123 372 bng 15 250 50 0 empty empty empty 17 7 0 10 -262144
-1 -1;
#X obj 399 284 r Array-Setter-Global;
#X obj 856 274 r Array-Setter-Gliss;
#X obj 519 626 r Array-Setter-Delay;
#X obj 857 595 r Array-Setter-Gliss-Presets;
#X connect 1 0 101 0;
#X connect 7 0 96 0;
#X connect 7 1 76 0;
#X connect 7 2 77 0;
#X connect 7 3 79 0;
#X connect 7 4 82 0;
#X connect 7 5 92 0;
#X connect 8 0 95 0;
#X connect 8 1 73 0;
#X connect 8 2 67 0;
#X connect 8 3 78 0;
#X connect 8 4 85 0;
#X connect 8 5 88 0;
#X connect 12 0 97 0;
#X connect 13 0 8 0;
#X connect 14 0 7 0;
#X connect 15 0 23 1;
#X connect 16 0 0 0;
#X connect 17 0 50 0;
#X connect 18 0 38 0;
#X connect 18 1 48 0;
#X connect 18 2 10 0;
#X connect 19 0 20 0;
#X connect 19 0 24 0;
#X connect 20 0 19 1;
#X connect 21 0 19 1;
#X connect 22 0 21 0;
#X connect 23 0 40 0;
#X connect 24 0 28 0;
#X connect 24 1 55 0;
#X connect 25 0 23 0;
#X connect 26 0 23 0;
#X connect 26 1 15 0;
#X connect 27 0 25 0;
#X connect 27 0 47 0;
#X connect 28 0 27 0;
#X connect 30 0 31 0;
#X connect 31 0 32 0;
#X connect 32 0 17 0;
#X connect 34 0 30 0;
#X connect 35 0 28 1;
#X connect 39 0 19 0;
#X connect 44 0 17 0;
#X connect 44 0 62 0;
#X connect 45 0 26 0;
#X connect 46 0 16 0;
#X connect 46 0 61 0;
#X connect 47 0 31 0;
#X connect 48 0 98 0;
#X connect 48 1 11 0;
#X connect 51 0 72 0;
#X connect 51 1 71 0;
#X connect 51 2 66 0;
#X connect 51 3 89 0;
#X connect 51 4 86 0;
#X connect 51 5 89 0;
#X connect 52 0 51 0;
#X connect 55 0 41 0;
#X connect 55 1 43 0;
#X connect 55 2 56 0;
#X connect 55 3 42 0;
#X connect 57 0 58 0;
#X connect 57 0 60 0;
#X connect 58 0 59 0;
#X connect 63 0 68 0;
#X connect 63 1 65 0;
#X connect 65 0 64 0;
#X connect 66 0 53 0;
#X connect 67 0 6 0;
#X connect 68 0 33 0;
#X connect 69 0 4 0;
#X connect 70 0 4 0;
#X connect 71 0 53 0;
#X connect 72 0 53 0;
#X connect 73 0 6 0;
#X connect 74 0 33 0;
#X connect 75 0 33 0;
#X connect 76 0 5 0;
#X connect 77 0 5 0;
#X connect 78 0 6 0;
#X connect 79 0 5 0;
#X connect 80 0 18 0;
#X connect 81 0 33 0;
#X connect 82 0 5 0;
#X connect 83 0 33 0;
#X connect 84 0 4 0;
#X connect 85 0 6 0;
#X connect 86 0 53 0;
#X connect 87 0 4 0;
#X connect 88 0 6 0;
#X connect 89 0 53 0;
#X connect 90 0 33 0;
#X connect 91 0 4 0;
#X connect 92 0 5 0;
#X connect 93 0 4 0;
#X connect 94 0 4 0;
#X connect 95 0 6 0;
#X connect 96 0 5 0;
#X connect 97 0 94 0;
#X connect 97 1 70 0;
#X connect 97 2 69 0;
#X connect 97 3 93 0;
#X connect 97 4 84 0;
#X connect 97 5 87 0;
#X connect 97 6 91 0;
#X connect 98 0 75 0;
#X connect 98 1 74 0;
#X connect 98 2 63 0;
#X connect 98 3 81 0;
#X connect 98 4 83 0;
#X connect 98 5 90 0;
#X connect 98 6 90 0;
#X connect 101 0 99 0;
#X connect 101 1 80 0;
#X connect 101 1 102 0;
#X connect 103 0 4 0;
#X connect 104 0 6 0;
#X connect 105 0 5 0;
#X connect 106 0 53 0;
#X coords 0 -1 1 1 130 140 2 30 15;
