#N canvas 43 53 1323 715 10;
#X msg 78 318 set;
#X msg 267 295 17;
#X msg 191 436 1;
#X msg 207 417 2;
#X msg 223 398 4;
#X msg 239 379 5;
#X msg 256 436 12;
#X msg 272 417 16;
#X msg 288 398 18;
#X msg 304 376 20;
#X obj 191 351 sel 0 1 2 3 4 5 6 7;
#X msg 18 566 16 \, 4 \, 20 \, 12 \, 16 \, 18 \, 5 \, 2 \, 20 \, 1
\, 12 \, 18 \, 4 \, 16 \, 20 \, 12 \, 2 \, 3 \,;
#X msg 432 320 set;
#X obj 491 276 t b b b;
#X msg 518 309 16;
#X obj 514 360 sel 0 1 2 3 4 5 6 7;
#X msg 431 543 50 \, 100 \, 50 \, 100 \, 100 \, 50 \, 100 \, 150 \,
80 \, 150 \, 100 \, 80 \, 50 \, 100 \, 150 \, 50 \, 0;
#X obj 491 229 bng 15 250 50 0 empty empty empty 17 7 0 10 -262144
-1 -1;
#X text 31 207 Global Presets:;
#X msg 530 426 100;
#X msg 579 445 150;
#X msg 627 388 100;
#X msg 899 263 set;
#X obj 930 228 t b b b;
#X msg 962 261 16;
#X msg 953 397 1;
#X msg 971 378 2;
#X msg 990 359 4;
#X msg 921 564 4 \, 2 \, 4 \, 1 \, 2 \, 1 \, 2 \, 2 \, 4 \, 0 \, 1
\, 1 \, 2 \, 1 \, 1 \, 1 \, 0;
#X obj 930 184 bng 15 250 50 0 empty empty empty 17 7 0 10 -262144
-1 -1;
#X msg 1008 340 0;
#X text 949 184 Gliss Presets;
#X obj 18 594 s Array-Setter-Global;
#X obj 431 584 s Array-Setter-Delay;
#X obj 921 616 s Array-Setter-Gliss-Presets;
#X obj 431 612 s Array-Setter-Gliss;
#X obj 147 3 inlet;
#X msg 627 462 add2 \$1;
#X msg 953 421 add2 \$1;
#X msg 191 472 add2 \$1;
#X obj 191 500 t b a;
#X msg 191 528 addcomma;
#X obj 627 490 t b a;
#X msg 627 519 addcomma;
#X obj 953 444 t b a;
#X msg 953 472 addcomma;
#X msg 267 129 set \$1;
#X msg 595 426 50;
#X msg 562 388 100;
#X msg 611 407 100;
#X msg 546 407 50;
#X msg 514 445 80;
#X msg 962 536 add2 0;
#X obj 930 345 t b b;
#X msg 290 101 set \$1;
#X obj 290 80 - 1;
#X obj 491 391 t b b;
#X msg 475 508 add2 0;
#X text 518 228 Delays & Gliss Lengths (same value sent to both);
#X obj 244 10 inlet;
#X text 90 3 Trigger;
#X obj 244 157 s seqlen;
#X text 288 11 Number of transitions.;
#X obj 244 52 t f f f;
#X obj 193 243 t b b b;
#X obj 147 199 bng 15 250 50 0 empty empty empty 17 7 0 10 -262144
-1 -1;
#X obj 105 393 t b b;
#X floatatom 137 441 5 0 0 0 - - -, f 5;
#X text 514 69 last preset;
#X obj 537 95 inlet;
#X msg 537 123 set \$1;
#X obj 147 167 t b b b;
#X obj 422 74 inlet;
#X text 424 56 EXP;
#X obj 83 87 bng 15 250 50 0 empty empty empty 17 7 0 10 -262144 -1
-1;
#X obj 191 323 statrandomizer;
#X obj 514 332 statrandomizer;
#X obj 953 284 statrandomizer;
#X obj 953 312 sel 0 1 2 3 4 5 6 7;
#X connect 0 0 11 0;
#X connect 1 0 75 0;
#X connect 2 0 39 0;
#X connect 3 0 39 0;
#X connect 4 0 39 0;
#X connect 5 0 39 0;
#X connect 6 0 39 0;
#X connect 7 0 39 0;
#X connect 8 0 39 0;
#X connect 9 0 39 0;
#X connect 10 0 2 0;
#X connect 10 1 3 0;
#X connect 10 2 4 0;
#X connect 10 3 5 0;
#X connect 10 4 6 0;
#X connect 10 5 7 0;
#X connect 10 6 8 0;
#X connect 10 7 9 0;
#X connect 11 0 32 0;
#X connect 12 0 16 0;
#X connect 13 0 56 0;
#X connect 13 1 14 0;
#X connect 13 2 12 0;
#X connect 14 0 76 0;
#X connect 15 0 51 0;
#X connect 15 1 19 0;
#X connect 15 2 50 0;
#X connect 15 3 48 0;
#X connect 15 4 20 0;
#X connect 15 5 47 0;
#X connect 15 6 49 0;
#X connect 15 7 21 0;
#X connect 16 0 33 0;
#X connect 16 0 35 0;
#X connect 17 0 13 0;
#X connect 19 0 37 0;
#X connect 20 0 37 0;
#X connect 21 0 37 0;
#X connect 22 0 28 0;
#X connect 23 0 53 0;
#X connect 23 1 24 0;
#X connect 23 2 22 0;
#X connect 24 0 77 0;
#X connect 25 0 38 0;
#X connect 26 0 38 0;
#X connect 27 0 38 0;
#X connect 28 0 34 0;
#X connect 29 0 23 0;
#X connect 30 0 38 0;
#X connect 36 0 71 0;
#X connect 37 0 42 0;
#X connect 38 0 44 0;
#X connect 39 0 40 0;
#X connect 40 0 41 0;
#X connect 40 1 11 0;
#X connect 41 0 11 0;
#X connect 42 0 43 0;
#X connect 42 1 16 0;
#X connect 43 0 16 0;
#X connect 44 0 45 0;
#X connect 44 1 28 0;
#X connect 45 0 28 0;
#X connect 46 0 1 0;
#X connect 47 0 37 0;
#X connect 48 0 37 0;
#X connect 49 0 37 0;
#X connect 50 0 37 0;
#X connect 51 0 37 0;
#X connect 52 0 28 0;
#X connect 53 0 28 0;
#X connect 53 1 52 0;
#X connect 54 0 14 0;
#X connect 54 0 24 0;
#X connect 55 0 54 0;
#X connect 56 0 16 0;
#X connect 56 1 57 0;
#X connect 57 0 16 0;
#X connect 59 0 63 0;
#X connect 63 0 61 0;
#X connect 63 1 46 0;
#X connect 63 2 55 0;
#X connect 64 0 66 0;
#X connect 64 1 1 0;
#X connect 64 2 0 0;
#X connect 65 0 64 0;
#X connect 66 0 11 0;
#X connect 66 1 67 0;
#X connect 67 0 39 0;
#X connect 69 0 70 0;
#X connect 70 0 67 0;
#X connect 71 0 65 0;
#X connect 71 1 17 0;
#X connect 71 2 29 0;
#X connect 72 0 75 1;
#X connect 72 0 76 1;
#X connect 72 0 77 1;
#X connect 74 0 71 0;
#X connect 75 0 10 0;
#X connect 76 0 15 0;
#X connect 77 0 78 0;
#X connect 78 0 25 0;
#X connect 78 1 26 0;
#X connect 78 2 27 0;
#X connect 78 3 30 0;
#X connect 78 4 25 0;
#X connect 78 5 26 0;
#X connect 78 6 27 0;
#X connect 78 7 30 0;
