#N canvas 43 53 1323 715 10;
#X obj 517 989 s to_global_presets;
#X obj 33 33 vradio 13 1 0 8 empty empty empty 0 -8 0 10 -262144 -1
-1 7;
#N canvas 43 105 450 250 (subpatch) 0;
#X array DELAY 100 float 3;
#A 0 200 200 400 200 200 200 600 1000 0 0 0 0 0 0 0 0 100 100 100 50
80 50 50 100 100 100 100 100 100 50 80 80 0 100 100 100 50 100 100
50 50 100 80 150 80 150 100 100 100 0 80 50 150 100 50 50 100 100 100
150 50 100 50 100 80 80 0 50 100 80 100 100 100 80 100 100 50 150 100
80 50 50 80 0 80 100 50 100 50 100 150 100 80 100 100 80 100 50 100
0;
#X coords 0 1000 100 0 200 140 1 0 0;
#X restore 680 260 graph;
#N canvas 43 101 450 250 (subpatch) 0;
#X array GLISS 100 float 3;
#A 0 0 0 400 0 0 0 600 1000 0 0 0 0 0 0 0 0 100 100 100 50 80 50 50
100 100 100 100 100 100 50 80 80 0 100 100 100 50 100 100 50 50 100
80 150 80 150 100 100 100 0 80 50 150 100 50 50 100 100 100 150 50
100 50 100 80 80 0 50 100 80 100 100 100 80 100 100 50 150 100 80 50
50 80 0 80 100 50 100 50 100 150 100 80 100 100 80 100 50 100 0;
#X coords 0 1000 100 0 200 140 1 0 0;
#X restore 680 99 graph;
#X obj 901 298 Array-Setter-Delay;
#X obj 901 137 Array-Setter-Gliss;
#N canvas 43 101 450 250 (subpatch) 0;
#X array GLOBAL 100 float 3;
#A 0 6 7 8 7 6 7 8 19 19 3 3 3 3 3 3 3 3 20 12 20 1 18 4 2 16 12 1
5 18 16 20 2 4 1 3 12 16 20 12 5 18 20 4 1 5 16 2 12 4 5 20 18 3 1
2 5 12 16 20 18 2 5 4 16 12 20 4 1 2 18 3 5 20 2 16 12 1 18 4 5 20
16 12 2 20 1 4 5 3 16 18 2 12 4 20 5 1 2 16 3;
#X coords 0 24 100 0 200 140 1 0 0;
#X restore 680 -62 graph;
#X obj 976 720 s array-setter-reset;
#X obj 985 775 s array-setters;
#X obj 901 99 r array-setters;
#X obj 901 260 r array-setters;
#X obj 141 948 tabread DELAY;
#X obj 517 961 tabread GLOBAL;
#X obj 296 960 tabread GLISS;
#X obj 930 686 t b f b;
#X obj 159 758 f;
#X obj 195 758 + 1;
#X msg 177 736 0;
#X obj 177 715 r array-setter-reset;
#X obj 159 785 t f f;
#X msg 70 873 stop;
#X obj 109 920 t b f;
#X obj 62 850 sel 1;
#X text 41 16 TRANSITIONS;
#X msg 296 863 set \$1;
#X floatatom 296 884 5 0 0 0 - - -, f 5;
#X obj 296 902 + 1;
#X obj 954 1009 s seqlen;
#X obj 296 841 r seqlen;
#X obj 72 759 r seqlen;
#X obj 930 1047 s triggernext;
#X obj 159 692 r triggernext;
#X obj 108 1040 s triggernext;
#X obj 523 889 s globaltabread;
#X obj 583 826 s glisstabread;
#X obj 543 868 s delaytabread;
#X obj 312 928 r glisstabread;
#X obj 109 892 r delaytabread;
#X obj 517 932 r globaltabread;
#X obj 157 864 del 10;
#X obj 953 749 t f f;
#X text 993 986 Note: N-1;
#X obj 296 988 s gliss-length-receive;
#X obj 901 421 r array-setters;
#X obj 901 459 Array-Setter-Gliss-Presets;
#N canvas 43 101 450 250 (subpatch) 0;
#X array GLISS-PRESETS 100 float 3;
#A 0 0 0 0 0 0 0 0 4 0 0 0 0 0 0 0 0 1 2 4 4 4 0 2 1 2 2 1 2 0 4 0
0 1 0 4 4 2 0 2 4 0 4 0 2 1 0 1 0 2 4 2 1 1 1 1 0 0 0 0 2 0 0 4 0 0
0 0 0 4 4 4 4 4 1 2 1 2 0 1 1 0 0 0 4 2 4 1 2 1 2 2 4 0 1 1 2 1 1 1
0;
#X coords 0 10 100 0 200 140 1 0 0;
#X restore 680 421 graph;
#X obj 523 802 t f f f f;
#X obj 563 847 s glisspresetstabread;
#X obj 689 934 r glisspresetstabread;
#X obj 689 962 tabread GLISS-PRESETS;
#X obj 689 990 s to_gliss_presets;
#X floatatom 640 922 5 0 0 0 - - -, f 5;
#X floatatom 448 925 5 0 0 0 - - -, f 5;
#X floatatom 242 910 5 0 0 0 - - -, f 5;
#X obj 986 911 t b b;
#X obj 1018 962 s rhythm-presets-receive;
#X msg 1018 932 0;
#X msg 969 960 8;
#X msg 953 985 6;
#X floatatom 79 672 5 0 0 0 - - -, f 5;
#X msg 1019 869 10;
#X obj 953 808 sel 0 1 2 3 4 5 6;
#X obj 33 255 Transition-Randomizer;
#X obj 65 198 route 7;
#X text 49 31 TO WIND \; TO GRIND \; TO SALT \; FAST TO CHORD \; SWEEP
TO GRIND \; TO STATIC \; TO HUM \; RANDOM;
#X obj 72 167 r to-transitions;
#X text 910 279 Series of delay times in beween preset switches.;
#X floatatom 103 124 5 0 0 0 - - -, f 5;
#X obj 103 -51 r init-loadbang;
#X msg 103 -23 15;
#X text 518 783 This is mainly what happens each transition...;
#X floatatom 76 788 5 0 0 0 - - -, f 5;
#X obj 62 822 >=;
#X msg 1002 890 16;
#X msg 1035 842 9;
#X msg 985 932 1;
#X obj 42 -94 inlet;
#X obj 247 -37 inlet;
#X obj 40 225 bng 15 250 50 0 empty empty empty 17 7 0 10 -262144 -1
-1;
#X obj 109 976 del;
#X obj 57 1011 spigot;
#X obj 37 959 tgl 15 0 empty empty empty 17 7 0 10 -262144 -1 -1 0
1;
#X obj 128 1007 bng 15 250 50 0 empty empty empty 17 7 0 10 -262144
-1 -1;
#X msg 65 956 0;
#X msg 24 903 1;
#X floatatom 104 139 5 0 0 0 - - -, f 5;
#X floatatom 144 231 5 0 0 0 - - -, f 5;
#X text 907 440 Series of glissando presets.;
#X obj 901 -24 Array-Setter-Global;
#X obj 901 -62 r array-setters;
#X text 909 -42 Series of Global Presets to switch to.;
#X text 907 119 Series of glissando times to switch to.;
#X text 965 1014 Put this IN the preset subpatch right \; next tothe
actual sequence...;
#X connect 1 0 63 0;
#X connect 9 0 5 0;
#X connect 10 0 4 0;
#X connect 11 0 79 1;
#X connect 12 0 0 0;
#X connect 13 0 42 0;
#X connect 14 0 30 0;
#X connect 14 1 40 0;
#X connect 14 2 7 0;
#X connect 15 0 16 0;
#X connect 15 0 19 0;
#X connect 16 0 15 1;
#X connect 17 0 15 1;
#X connect 18 0 17 0;
#X connect 18 0 84 0;
#X connect 19 0 72 0;
#X connect 19 1 46 0;
#X connect 20 0 79 0;
#X connect 21 0 79 0;
#X connect 21 1 11 0;
#X connect 22 0 20 0;
#X connect 22 0 39 0;
#X connect 22 0 83 0;
#X connect 24 0 25 0;
#X connect 25 0 26 0;
#X connect 26 0 13 0;
#X connect 28 0 24 0;
#X connect 29 0 71 0;
#X connect 31 0 15 0;
#X connect 36 0 13 0;
#X connect 36 0 53 0;
#X connect 37 0 21 0;
#X connect 38 0 12 0;
#X connect 38 0 52 0;
#X connect 39 0 25 0;
#X connect 40 0 61 0;
#X connect 40 1 8 0;
#X connect 43 0 44 0;
#X connect 46 0 33 0;
#X connect 46 1 35 0;
#X connect 46 2 47 0;
#X connect 46 3 34 0;
#X connect 48 0 49 0;
#X connect 48 0 51 0;
#X connect 49 0 50 0;
#X connect 54 0 75 0;
#X connect 54 1 56 0;
#X connect 56 0 55 0;
#X connect 57 0 27 0;
#X connect 58 0 27 0;
#X connect 59 0 14 0;
#X connect 60 0 27 0;
#X connect 61 0 58 0;
#X connect 61 1 57 0;
#X connect 61 2 54 0;
#X connect 61 3 73 0;
#X connect 61 4 60 0;
#X connect 61 5 74 0;
#X connect 61 6 74 0;
#X connect 63 0 78 0;
#X connect 63 1 59 0;
#X connect 65 0 63 0;
#X connect 67 0 62 1;
#X connect 68 0 69 0;
#X connect 69 0 67 0;
#X connect 71 0 72 1;
#X connect 72 0 22 0;
#X connect 73 0 27 0;
#X connect 74 0 27 0;
#X connect 75 0 27 0;
#X connect 76 0 63 0;
#X connect 77 0 67 0;
#X connect 78 0 62 0;
#X connect 79 0 80 0;
#X connect 79 0 82 0;
#X connect 80 0 32 0;
#X connect 81 0 80 1;
#X connect 83 0 81 0;
#X connect 84 0 81 0;
#X connect 85 0 62 2;
#X connect 86 0 62 3;
#X connect 89 0 88 0;
#X coords 0 -1 1 1 130 140 2 30 15;
