#N canvas 43 53 1323 715 10;
#X msg 71 329 set;
#X obj 188 322 until;
#X obj 165 274 t b b b;
#X msg 188 303 17;
#X msg 188 445 1;
#X msg 204 426 2;
#X msg 220 407 4;
#X msg 236 388 5;
#X msg 253 445 12;
#X msg 269 426 16;
#X msg 285 407 18;
#X msg 301 385 20;
#X obj 188 360 sel 0 1 2 3 4 5 6 7;
#X msg 78 566 5 \, 20 \, 12 \, 16 \, 5 \, 18 \, 4 \, 16 \, 2 \, 12
\, 2 \,;
#X obj 165 256 bng 15 250 50 0 empty empty empty 17 7 0 10 -262144
-1 -1;
#X obj 188 341 random 8;
#X msg 422 146 set;
#X obj 504 158 until;
#X obj 481 101 t b b b;
#X msg 504 134 16;
#X obj 504 196 sel 0 1 2 3 4 5 6 7;
#X msg 421 379 100 \, 100 \, 150 \, 100 \, 50 \, 100 \, 150 \, 100
\, 150 \, 100 \, 100 \, 50 \, 150 \, 100 \, 80 \, 100 \, 0;
#X obj 481 65 bng 15 250 50 0 empty empty empty 17 7 0 10 -262144 -1
-1;
#X obj 504 177 random 8;
#X text 220 255 Global Presets:;
#X msg 520 262 100;
#X msg 569 281 150;
#X msg 617 224 100;
#X msg 898 294 set;
#X obj 953 274 until;
#X obj 930 226 t b b b;
#X msg 953 255 16;
#X msg 953 397 1;
#X msg 971 378 2;
#X msg 990 359 4;
#X msg 921 564 1 \, 2 \, 0 \, 0 \, 2 \, 0 \, 0 \, 1 \, 2 \, 2 \, 0
;
#X obj 930 58 bng 15 250 50 0 empty empty empty 17 7 0 10 -262144 -1
-1;
#X msg 1008 340 0;
#X obj 953 312 sel 0 1 2 3;
#X obj 953 293 random 4;
#X text 945 79 Gliss Presets;
#X obj 78 615 s Array-Setter-Global;
#X obj 421 459 s Array-Setter-Delay;
#X obj 921 616 s Array-Setter-Gliss-Presets;
#X obj 421 487 s Array-Setter-Gliss;
#X obj 555 23 s array-setter-reset;
#X obj 26 138 s triggernext;
#X obj 147 3 inlet;
#X obj 147 41 t b b b b b;
#X msg 617 298 add2 \$1;
#X msg 953 421 add2 \$1;
#X msg 191 472 add2 \$1;
#X obj 191 500 t b a;
#X msg 191 538 addcomma;
#X obj 617 326 t b a;
#X msg 617 355 addcomma;
#X obj 953 444 t b a;
#X msg 953 472 addcomma;
#X msg 248 149 set \$1;
#X msg 585 262 50;
#X msg 552 224 100;
#X msg 601 243 100;
#X msg 536 243 50;
#X msg 504 281 80;
#X msg 862 476 add2 0;
#X obj 930 345 t b b;
#X msg 824 117 set \$1;
#X obj 824 96 - 1;
#X obj 481 227 t b b;
#X msg 465 344 add2 0;
#X text 508 64 Delays & Gliss Lengths (same value sent to both);
#X obj 273 10 inlet;
#X text 317 11 Minimum number of transitions.;
#X text 90 3 Trigger;
#X obj 182 151 s seqlen;
#X obj 229 93 + 10;
#X obj 229 67 random;
#X connect 0 0 13 0;
#X connect 1 0 15 0;
#X connect 2 0 13 0;
#X connect 2 1 3 0;
#X connect 2 2 0 0;
#X connect 3 0 1 0;
#X connect 4 0 51 0;
#X connect 5 0 51 0;
#X connect 6 0 51 0;
#X connect 7 0 51 0;
#X connect 8 0 51 0;
#X connect 9 0 51 0;
#X connect 10 0 51 0;
#X connect 11 0 51 0;
#X connect 12 0 4 0;
#X connect 12 1 5 0;
#X connect 12 2 6 0;
#X connect 12 3 7 0;
#X connect 12 4 8 0;
#X connect 12 5 9 0;
#X connect 12 6 10 0;
#X connect 12 7 11 0;
#X connect 13 0 41 0;
#X connect 14 0 2 0;
#X connect 15 0 12 0;
#X connect 16 0 21 0;
#X connect 17 0 23 0;
#X connect 18 0 68 0;
#X connect 18 1 19 0;
#X connect 18 2 16 0;
#X connect 19 0 17 0;
#X connect 20 0 63 0;
#X connect 20 1 25 0;
#X connect 20 2 62 0;
#X connect 20 3 60 0;
#X connect 20 4 26 0;
#X connect 20 5 59 0;
#X connect 20 6 61 0;
#X connect 20 7 27 0;
#X connect 21 0 42 0;
#X connect 21 0 44 0;
#X connect 22 0 18 0;
#X connect 23 0 20 0;
#X connect 25 0 49 0;
#X connect 26 0 49 0;
#X connect 27 0 49 0;
#X connect 28 0 35 0;
#X connect 29 0 39 0;
#X connect 30 0 65 0;
#X connect 30 1 31 0;
#X connect 30 2 28 0;
#X connect 31 0 29 0;
#X connect 32 0 50 0;
#X connect 33 0 50 0;
#X connect 34 0 50 0;
#X connect 35 0 43 0;
#X connect 36 0 30 0;
#X connect 37 0 50 0;
#X connect 38 0 32 0;
#X connect 38 1 33 0;
#X connect 38 2 34 0;
#X connect 38 3 37 0;
#X connect 39 0 38 0;
#X connect 47 0 48 0;
#X connect 47 0 76 0;
#X connect 48 0 46 0;
#X connect 48 1 14 0;
#X connect 48 2 22 0;
#X connect 48 3 36 0;
#X connect 48 4 45 0;
#X connect 49 0 54 0;
#X connect 50 0 56 0;
#X connect 51 0 52 0;
#X connect 52 0 53 0;
#X connect 52 1 13 0;
#X connect 53 0 13 0;
#X connect 54 0 55 0;
#X connect 54 1 21 0;
#X connect 55 0 21 0;
#X connect 56 0 57 0;
#X connect 56 1 35 0;
#X connect 57 0 35 0;
#X connect 58 0 3 0;
#X connect 59 0 49 0;
#X connect 60 0 49 0;
#X connect 61 0 49 0;
#X connect 62 0 49 0;
#X connect 63 0 49 0;
#X connect 64 0 35 0;
#X connect 65 0 35 0;
#X connect 65 1 64 0;
#X connect 66 0 31 0;
#X connect 66 0 19 0;
#X connect 67 0 66 0;
#X connect 68 0 21 0;
#X connect 68 1 69 0;
#X connect 69 0 21 0;
#X connect 71 0 76 1;
#X connect 75 0 58 0;
#X connect 75 0 67 0;
#X connect 75 0 74 0;
#X connect 76 0 75 0;
