#N canvas 43 104 1256 654 10;
#X obj 517 989 s to_global_presets;
#X obj 33 33 vradio 13 1 0 8 empty empty empty 0 -8 0 10 -262144 -1
-1 7;
#N canvas 43 105 450 250 (subpatch) 0;
#X array DELAY 100 float 3;
#A 0 0 0 0 0 0 0 0 0 0 0 0 0 0 0 0 0 100 100 100 50 80 50 50 100 100
100 100 100 100 50 80 80 0 100 100 100 50 100 100 50 50 100 80 150
80 150 100 100 100 0 80 50 150 100 50 50 100 100 100 150 50 100 50
100 80 80 0 50 100 80 100 100 100 80 100 100 50 150 100 80 50 50 80
0 80 100 50 100 50 100 150 100 80 100 100 80 100 50 100 0;
#X coords 0 1000 100 0 200 140 1 0 0;
#X restore 1062 25 graph;
#N canvas 41 97 450 250 (subpatch) 0;
#X array GLISS 100 float 3;
#A 0 0 0 0 0 0 0 0 0 0 0 0 0 0 0 0 0 100 100 100 50 80 50 50 100 100
100 100 100 100 50 80 80 0 100 100 100 50 100 100 50 50 100 80 150
80 150 100 100 100 0 80 50 150 100 50 50 100 100 100 150 50 100 50
100 80 80 0 50 100 80 100 100 100 80 100 100 50 150 100 80 50 50 80
0 80 100 50 100 50 100 150 100 80 100 100 80 100 50 100 0;
#X coords 0 10 100 0 200 140 1 0 0;
#X restore 1062 508 graph;
#X obj 194 311 Array-Setter-Global;
#X obj 194 643 Array-Setter-Delay;
#X obj 641 291 Array-Setter-Gliss;
#N canvas 43 101 450 250 (subpatch) 0;
#X array GLOBAL 100 float 3;
#A 0 3 3 3 3 3 3 3 3 3 3 3 3 3 3 3 3 3 20 12 20 1 18 4 2 16 12 1 5
18 16 20 2 4 1 3 12 16 20 12 5 18 20 4 1 5 16 2 12 4 5 20 18 3 1 2
5 12 16 20 18 2 5 4 16 12 20 4 1 2 18 3 5 20 2 16 12 1 18 4 5 20 16
12 2 20 1 4 5 3 16 18 2 12 4 20 5 1 2 16 3;
#X coords 0 10 100 0 200 140 1 0 0;
#X restore 1062 186 graph;
#X obj 976 720 s array-setter-reset;
#X obj 985 775 s array-setters;
#X obj 194 42 r array-setters;
#X obj 641 42 r array-setters;
#X obj 194 369 r array-setters;
#X obj 141 948 tabread DELAY;
#X obj 517 961 tabread GLOBAL;
#X obj 296 960 tabread GLISS;
#X obj 930 686 t b f b;
#X obj 159 758 f;
#X obj 195 758 + 1;
#X msg 177 736 0;
#X obj 177 715 r array-setter-reset;
#X obj 159 785 t f f;
#X msg 70 873 stop;
#X obj 109 920 t b f;
#X obj 62 850 sel 1;
#X text 41 16 TRANSITIONS;
#X msg 296 863 set \$1;
#X floatatom 296 884 5 0 0 0 - - -, f 5;
#X obj 296 902 + 1;
#X obj 954 1009 s seqlen;
#X obj 296 841 r seqlen;
#X obj 72 759 r seqlen;
#X obj 930 1047 s triggernext;
#X obj 159 692 r triggernext;
#X obj 108 1040 s triggernext;
#X obj 523 889 s globaltabread;
#X obj 583 826 s glisstabread;
#X obj 543 868 s delaytabread;
#X obj 312 928 r glisstabread;
#X obj 109 892 r delaytabread;
#X obj 517 932 r globaltabread;
#X obj 157 864 del 10;
#X obj 953 749 t f f;
#X text 993 986 Note: N-1;
#X obj 296 988 s gliss-length-receive;
#X obj 686 363 r array-setters;
#X obj 686 612 Array-Setter-Gliss-Presets;
#N canvas 41 97 450 250 (subpatch) 0;
#X array GLISS-PRESETS 100 float 3;
#A 0 0 0 0 0 0 0 0 0 0 0 0 0 0 0 0 0 1 2 4 4 4 0 2 1 2 2 1 2 0 4 0
0 1 0 4 4 2 0 2 4 0 4 0 2 1 0 1 0 2 4 2 1 1 1 1 0 0 0 0 2 0 0 4 0 0
0 0 0 4 4 4 4 4 1 2 1 2 0 1 1 0 0 0 4 2 4 1 2 1 2 2 4 0 1 1 2 1 1 1
0;
#X coords 0 10 100 0 200 140 1 0 0;
#X restore 1062 347 graph;
#X obj 523 802 t f f f f;
#X obj 563 847 s glisspresetstabread;
#X obj 689 934 r glisspresetstabread;
#X obj 689 962 tabread GLISS-PRESETS;
#X obj 689 990 s to_gliss_presets;
#X floatatom 640 922 5 0 0 0 - - -, f 5;
#X floatatom 448 925 5 0 0 0 - - -, f 5;
#X floatatom 242 910 5 0 0 0 - - -, f 5;
#X obj 986 911 t b b;
#X obj 1018 962 s rhythm-presets-receive;
#X msg 1018 932 0;
#X msg 719 549 4 \, 0;
#X msg 227 240 18 \, 18;
#X msg 702 570 0 \, 0 \, 0 \, 0 \, 0 \, 0 \, 0 \, 4 \, 0;
#X msg 686 591 2 \, 0 \, 0 \, 1 \, 2 \, 4 \, 0;
#X msg 969 960 8;
#X msg 953 985 6;
#X floatatom 79 672 5 0 0 0 - - -, f 5;
#X msg 262 519 100 \, 100 \, 100 \, 100 \, 350 \, 100 \, 100 \, 100
\, 100 \, 100;
#X msg 1019 869 10;
#X msg 260 200 10 \, 5 \, 4 \, 12 \, 20 \, 0 \, 4 \, 5 \, 2 \, 3 \,
19;
#X msg 707 187 250 \, 250 \, 250 \, 250 \, 250 \, 250 \, 250 \, 250
\, 250 \, 250;
#X msg 752 507 4 \, 4 \, 4 \, 4 \, 4 \, 4 \, 4 \, 4 \, 4 \, 4;
#X msg 276 180 5 \, 1 \, 4 \, 12 \, 1 \, 5 \, 20 \, 4 \, 5 \, 21;
#X msg 723 167 0 \, 0 \, 0 \, 0 \, 0 \, 0 \, 0 \, 0 \, 0 \, 0;
#X msg 735 528 0 \, 0 \, 0 \, 0 \, 0 \, 0 \, 0 \, 0 \, 0 \, 0;
#X msg 293 160 4 \, 5 \, 13 \, 19 \, 14 \, 5 \, 4 \, 19 \, 14 \, 13
;
#X msg 279 499 80 \, 100 \, 90 \, 80 100 \, 100 \, 160 \, 80 \, 90
\, 100;
#X msg 194 280 1 \, 4 \, 1 \, 20 \, 9 \, 5 \, 5;
#X obj 953 808 sel 0 1 2 3 4 5 6;
#X obj 33 255 Transition-Randomizer;
#X obj 65 198 route 7;
#X obj 392 294 r Array-Setter-Global;
#X obj 886 274 r Array-Setter-Gliss;
#X obj 489 626 r Array-Setter-Delay;
#X obj 857 595 r Array-Setter-Gliss-Presets;
#X msg 690 207 0 \, 0 \, 0 \, 0 \, 0 \, 0 \, 0 \, 0 \, 0 \, 0 \, 0
\, 0 \, 0;
#X msg 768 488 0 \, 0 \, 0 \, 0 \, 0 \, 0 \, 0 \, 0 \, 0 \, 0;
#X msg 785 468 0 \, 0 \, 0 \, 0 \, 0 \, 0 \, 0 \, 0 \, 0 \, 0;
#X msg 740 147 0 \, 0 \, 0 \, 0 \, 0 \, 0 \, 0 \, 0 \, 0 \, 0;
#X text 49 31 TO WIND \; TO GRIND \; TO SALT \; FAST TO CHORD \; SWEEP
TO GRIND \; TO STATIC \; TO HUM \; RANDOM;
#X msg 211 601 200 \, 200 \, 400 \, 200 \, 200 \, 200 \, 600 \, 1000
;
#X msg 194 622 2500 \, 400 \, 250 \, 1000 \, 1800 \, 3500 \, 0;
#X msg 641 269 2500 \, 0 \, 0 \, 1000 \, 0 \, 3500 \, 0;
#X msg 657 249 0 \, 0 \, 400 \, 0 \, 0 \, 0 \, 600 \, 1000 \, 0;
#X msg 210 260 6 \, 7 \, 8 \, 7 \, 6 \, 7 \, 8 \, 19 \, 19;
#X obj 72 167 r to-transitions;
#X text 299 135 Series of Global Presets to switch to.;
#X text 756 124 Series of glissando times to switch to.;
#X text 313 432 Series of delay times in beween preset switches.;
#X floatatom 103 124 5 0 0 0 - - -, f 5;
#X obj 103 -51 r init-loadbang;
#X msg 103 -23 15;
#X text 518 783 This is mainly what happens each transition...;
#X floatatom 76 788 5 0 0 0 - - -, f 5;
#X obj 62 822 >=;
#X msg 243 221 1 \, 2 \, 1 \, 4 \, 1 \, 2 \, 1 \, 2 \, 12 \, 2 \, 1
\, 2 \, 1 \, 2 \, 1 \, 2 \, 10;
#X msg 1002 890 16;
#X msg 245 544 50 \, 70 \, 50 \, 100 \, 100 \, 80 \, 70 \, 50 \, 100
\, 50 \, 70 \, 70 \, 50 \, 70 \, 70 \, 50 \, 20;
#X obj 194 395 sel 0 1 2 3 4 5 6;
#X obj 194 68 sel 0 1 2 3 4 5 6;
#X obj 641 68 sel 0 1 2 3 4 5 6;
#X obj 686 389 sel 0 1 2 3 4 5 6;
#X msg 296 479 80 \, 100 \, 90 \, 80 \, 100 \, 100 \, 160 \, 80 \,
90 \, 100;
#X msg 1035 842 9;
#X msg 985 932 1;
#X msg 674 228 5000 \, 0 \, 0;
#X msg 228 580 5000 \, 0;
#X obj 42 -94 inlet;
#X obj 247 -37 inlet;
#X obj 40 225 bng 15 250 50 0 empty empty empty 17 7 0 10 -262144 -1
-1;
#X obj 109 976 del;
#X obj 57 1011 spigot;
#X obj 37 959 tgl 15 0 empty empty empty 17 7 0 10 -262144 -1 -1 0
1;
#X obj 128 1007 bng 15 250 50 0 empty empty empty 17 7 0 10 -262144
-1 -1;
#X msg 65 956 0;
#X msg 24 903 1;
#X floatatom 104 139 5 0 0 0 - - -, f 5;
#X floatatom 144 231 5 0 0 0 - - -, f 5;
#X text 810 420 Series of glissando presets.;
#X connect 1 0 79 0;
#X connect 10 0 108 0;
#X connect 11 0 109 0;
#X connect 12 0 107 0;
#X connect 13 0 119 1;
#X connect 14 0 0 0;
#X connect 15 0 44 0;
#X connect 16 0 32 0;
#X connect 16 1 42 0;
#X connect 16 2 8 0;
#X connect 17 0 18 0;
#X connect 17 0 21 0;
#X connect 18 0 17 1;
#X connect 19 0 17 1;
#X connect 20 0 19 0;
#X connect 20 0 124 0;
#X connect 21 0 103 0;
#X connect 21 1 48 0;
#X connect 22 0 119 0;
#X connect 23 0 119 0;
#X connect 23 1 13 0;
#X connect 24 0 22 0;
#X connect 24 0 41 0;
#X connect 24 0 123 0;
#X connect 26 0 27 0;
#X connect 27 0 28 0;
#X connect 28 0 15 0;
#X connect 30 0 26 0;
#X connect 31 0 102 0;
#X connect 33 0 17 0;
#X connect 38 0 15 0;
#X connect 38 0 55 0;
#X connect 39 0 23 0;
#X connect 40 0 14 0;
#X connect 40 0 54 0;
#X connect 41 0 27 0;
#X connect 42 0 77 0;
#X connect 42 1 9 0;
#X connect 45 0 110 0;
#X connect 48 0 35 0;
#X connect 48 1 37 0;
#X connect 48 2 49 0;
#X connect 48 3 36 0;
#X connect 50 0 51 0;
#X connect 50 0 53 0;
#X connect 51 0 52 0;
#X connect 56 0 113 0;
#X connect 56 1 58 0;
#X connect 58 0 57 0;
#X connect 59 0 46 0;
#X connect 60 0 4 0;
#X connect 61 0 46 0;
#X connect 62 0 46 0;
#X connect 63 0 29 0;
#X connect 64 0 29 0;
#X connect 65 0 16 0;
#X connect 66 0 5 0;
#X connect 67 0 29 0;
#X connect 68 0 4 0;
#X connect 69 0 6 0;
#X connect 70 0 46 0;
#X connect 71 0 4 0;
#X connect 72 0 6 0;
#X connect 73 0 46 0;
#X connect 74 0 4 0;
#X connect 75 0 5 0;
#X connect 76 0 4 0;
#X connect 77 0 64 0;
#X connect 77 1 63 0;
#X connect 77 2 56 0;
#X connect 77 3 105 0;
#X connect 77 4 67 0;
#X connect 77 5 112 0;
#X connect 77 6 112 0;
#X connect 79 0 118 0;
#X connect 79 1 65 0;
#X connect 80 0 4 0;
#X connect 81 0 6 0;
#X connect 82 0 5 0;
#X connect 83 0 46 0;
#X connect 84 0 6 0;
#X connect 85 0 46 0;
#X connect 86 0 46 0;
#X connect 87 0 6 0;
#X connect 89 0 5 0;
#X connect 90 0 5 0;
#X connect 91 0 6 0;
#X connect 92 0 6 0;
#X connect 93 0 4 0;
#X connect 94 0 79 0;
#X connect 98 0 78 1;
#X connect 99 0 100 0;
#X connect 100 0 98 0;
#X connect 102 0 103 1;
#X connect 103 0 24 0;
#X connect 104 0 4 0;
#X connect 105 0 29 0;
#X connect 106 0 5 0;
#X connect 107 0 90 0;
#X connect 107 1 89 0;
#X connect 107 2 115 0;
#X connect 107 3 106 0;
#X connect 107 4 66 0;
#X connect 107 5 75 0;
#X connect 107 6 111 0;
#X connect 108 0 76 0;
#X connect 108 1 93 0;
#X connect 108 2 60 0;
#X connect 108 3 104 0;
#X connect 108 4 68 0;
#X connect 108 5 71 0;
#X connect 108 6 74 0;
#X connect 109 0 91 0;
#X connect 109 1 92 0;
#X connect 109 2 114 0;
#X connect 109 3 84 0;
#X connect 109 4 69 0;
#X connect 109 5 72 0;
#X connect 109 6 87 0;
#X connect 110 0 62 0;
#X connect 110 1 61 0;
#X connect 110 2 59 0;
#X connect 110 3 73 0;
#X connect 110 4 70 0;
#X connect 110 5 85 0;
#X connect 110 6 86 0;
#X connect 111 0 5 0;
#X connect 112 0 29 0;
#X connect 113 0 29 0;
#X connect 114 0 6 0;
#X connect 115 0 5 0;
#X connect 116 0 79 0;
#X connect 117 0 98 0;
#X connect 118 0 78 0;
#X connect 119 0 120 0;
#X connect 119 0 122 0;
#X connect 120 0 34 0;
#X connect 121 0 120 1;
#X connect 123 0 121 0;
#X connect 124 0 121 0;
#X connect 125 0 78 2;
#X connect 126 0 78 3;
#X coords 0 -1 1 1 130 140 2 30 15;
