#N canvas 43 53 1323 715 10;
#X msg 161 277 set;
#X msg 267 260 38;
#X msg 191 436 1;
#X msg 207 417 2;
#X msg 223 398 4;
#X msg 239 379 5;
#X msg 256 436 12;
#X msg 272 417 16;
#X msg 288 398 18;
#X msg 304 376 20;
#X obj 191 351 sel 0 1 2 3 4 5 6 7;
#X msg 58 596 20 \, 1 \, 2 \, 12 \, 16 \, 5 \, 4 \, 18 \, 20 \, 2 \,
1 \, 12 \, 16 \, 5 \, 4 \, 18 \, 20 \, 2 \, 1 \, 12 \, 16 \, 5 \, 4
\, 18 \, 20 \, 1 \, 2 \, 12 \, 16 \, 5 \, 4 \, 18 \, 20 \, 1 \, 2 \,
12 \, 16 \, 4 \, 2 \,;
#X msg 491 262 set;
#X obj 551 228 t b b b;
#X msg 574 256 37;
#X obj 574 312 sel 0 1 2 3 4 5 6 7;
#X msg 491 595 100 \, 100 \, 100 \, 100 \, 50 \, 80 \, 50 \, 150 \,
100 \, 100 \, 50 \, 100 \, 100 \, 80 \, 50 \, 150 \, 100 \, 100 \,
50 \, 100 \, 100 \, 80 \, 50 \, 100 \, 150 \, 100 \, 100 \, 50 \, 100
\, 80 \, 50 \, 100 \, 150 \, 100 \, 100 \, 50 \, 100 \, 0;
#X obj 551 184 bng 15 250 50 0 empty empty empty 17 7 0 10 -262144
-1 -1;
#X text 214 205 Global Presets:;
#X msg 590 378 100;
#X msg 639 397 150;
#X msg 687 340 100;
#X msg 1109 303 set;
#X obj 930 228 t b b b;
#X msg 953 256 37;
#X msg 953 397 1;
#X msg 969 378 2;
#X msg 985 359 4;
#X msg 930 594 1 \, 2 \, 0 \, 4 \, 1 \, 0 \, 2 \, 4 \, 1 \, 2 \, 0
\, 4 \, 1 \, 0 \, 4 \, 2 \, 1 \, 2 \, 1 \, 0 \, 4 \, 0 \, 4 \, 2 \,
1 \, 2 \, 1 \, 0 \, 4 \, 0 \, 4 \, 2 \, 1 \, 2 \, 1 \, 0 \, 4 \, 0
;
#X obj 930 184 bng 15 250 50 0 empty empty empty 17 7 0 10 -262144
-1 -1;
#X msg 1001 340 0;
#X text 949 184 Gliss Presets;
#X obj 58 684 s Array-Setter-Global;
#X obj 491 656 s Array-Setter-Delay;
#X obj 930 646 s Array-Setter-Gliss-Presets;
#X obj 491 684 s Array-Setter-Gliss;
#X obj 173 3 inlet;
#X msg 687 414 add2 \$1;
#X msg 953 421 add2 \$1;
#X msg 191 472 add2 \$1;
#X obj 191 500 t b a;
#X msg 191 528 addcomma;
#X obj 687 442 t b a;
#X msg 687 471 addcomma;
#X obj 953 444 t b a;
#X msg 953 472 addcomma;
#X msg 267 113 set \$1;
#X msg 655 378 50;
#X msg 622 340 100;
#X msg 671 359 100;
#X msg 606 359 50;
#X msg 574 397 80;
#X msg 962 496 add2 0;
#X obj 930 345 t b b;
#X msg 290 93 set \$1;
#X obj 290 72 - 1;
#X obj 551 343 t b b;
#X msg 583 460 add2 0;
#X text 529 167 Delays & Gliss Lengths (same value sent to both);
#X obj 244 10 inlet;
#X text 113 3 Trigger;
#X obj 244 133 s seqlen;
#X text 288 11 Number of transitions.;
#X obj 244 52 t f f f;
#X obj 193 243 t b b b;
#X obj 193 204 bng 15 250 50 0 empty empty empty 17 7 0 10 -262144
-1 -1;
#X obj 58 260 t b b;
#X floatatom 137 441 5 0 0 0 - - -, f 5;
#X text 490 37 last preset;
#X obj 577 37 inlet;
#X msg 577 65 set \$1;
#X obj 1207 267 inlet;
#X text 1209 249 EXP;
#X obj 953 284 statrandomizer;
#X obj 953 312 sel 0 1 2 3 4 5 6 7;
#X obj 173 167 t b b b b;
#X obj 36 184 outlet;
#X obj 231 284 statrandomizer;
#X obj 574 284 statrandomizer;
#X connect 0 0 11 0;
#X connect 1 0 77 0;
#X connect 2 0 39 0;
#X connect 3 0 39 0;
#X connect 4 0 39 0;
#X connect 5 0 39 0;
#X connect 6 0 39 0;
#X connect 7 0 39 0;
#X connect 8 0 39 0;
#X connect 9 0 39 0;
#X connect 10 0 2 0;
#X connect 10 1 3 0;
#X connect 10 2 4 0;
#X connect 10 3 5 0;
#X connect 10 4 6 0;
#X connect 10 5 7 0;
#X connect 10 6 8 0;
#X connect 10 7 9 0;
#X connect 11 0 32 0;
#X connect 12 0 16 0;
#X connect 13 0 56 0;
#X connect 13 1 14 0;
#X connect 13 2 12 0;
#X connect 14 0 78 0;
#X connect 15 0 51 0;
#X connect 15 1 19 0;
#X connect 15 2 50 0;
#X connect 15 3 48 0;
#X connect 15 4 20 0;
#X connect 15 5 47 0;
#X connect 15 6 49 0;
#X connect 15 7 21 0;
#X connect 16 0 33 0;
#X connect 16 0 35 0;
#X connect 17 0 13 0;
#X connect 19 0 37 0;
#X connect 20 0 37 0;
#X connect 21 0 37 0;
#X connect 22 0 28 0;
#X connect 23 0 53 0;
#X connect 23 1 24 0;
#X connect 23 2 22 0;
#X connect 24 0 73 0;
#X connect 25 0 38 0;
#X connect 26 0 38 0;
#X connect 27 0 38 0;
#X connect 28 0 34 0;
#X connect 29 0 23 0;
#X connect 30 0 38 0;
#X connect 36 0 75 0;
#X connect 37 0 42 0;
#X connect 38 0 44 0;
#X connect 39 0 40 0;
#X connect 40 0 41 0;
#X connect 40 1 11 0;
#X connect 41 0 11 0;
#X connect 42 0 43 0;
#X connect 42 1 16 0;
#X connect 43 0 16 0;
#X connect 44 0 45 0;
#X connect 44 1 28 0;
#X connect 45 0 28 0;
#X connect 46 0 1 0;
#X connect 47 0 37 0;
#X connect 48 0 37 0;
#X connect 49 0 37 0;
#X connect 50 0 37 0;
#X connect 51 0 37 0;
#X connect 52 0 28 0;
#X connect 53 0 28 0;
#X connect 53 1 52 0;
#X connect 54 0 14 0;
#X connect 54 0 24 0;
#X connect 55 0 54 0;
#X connect 56 0 16 0;
#X connect 56 1 57 0;
#X connect 57 0 16 0;
#X connect 59 0 63 0;
#X connect 63 0 61 0;
#X connect 63 1 46 0;
#X connect 63 2 55 0;
#X connect 64 0 66 0;
#X connect 64 1 1 0;
#X connect 64 2 0 0;
#X connect 65 0 64 0;
#X connect 66 0 11 0;
#X connect 66 1 67 0;
#X connect 67 0 39 0;
#X connect 69 0 70 0;
#X connect 70 0 67 0;
#X connect 71 0 73 1;
#X connect 71 0 77 1;
#X connect 71 0 78 1;
#X connect 73 0 74 0;
#X connect 74 0 25 0;
#X connect 74 1 26 0;
#X connect 74 2 27 0;
#X connect 74 3 30 0;
#X connect 74 4 25 0;
#X connect 74 5 26 0;
#X connect 74 6 27 0;
#X connect 74 7 30 0;
#X connect 75 0 76 0;
#X connect 75 1 65 0;
#X connect 75 2 17 0;
#X connect 75 3 29 0;
#X connect 77 0 10 0;
#X connect 78 0 15 0;
