#N canvas 300 254 968 499 10;
#X msg 189 319 set;
#X obj 131 172 until;
#X obj 131 134 t b b b;
#X msg 131 153 22;
#X msg 131 295 1;
#X msg 147 276 2;
#X msg 163 257 4;
#X msg 179 238 5;
#X msg 196 295 12;
#X msg 212 276 16;
#X msg 228 257 18;
#X msg 244 238 20;
#X obj 131 210 sel 0 1 2 3 4 5 6 7;
#X msg 71 546 16 \, 1 \, 18 \, 4 \, 16 \, 4 \, 12 \, 2 \, 2 \, 4 \,
16 \, 18 \, 16 \, 5 \, 4 \, 1 \, 18 \, 16 \, 4 \, 2 \, 1 \, 20 \,;
#X obj 131 116 bng 15 250 50 0 empty empty empty 17 7 0 10 -262144
-1 -1;
#X obj 131 191 random 8;
#X msg 459 319 set;
#X obj 401 172 until;
#X obj 401 134 t b b b;
#X msg 403 153 22;
#X obj 401 210 sel 0 1 2 3 4 5 6 7;
#X msg 400 464 100 \, 80 \, 100 \, 80 \, 80 \, 50 \, 80 \, 100 \, 50
\, 100 \, 50 \, 50 \, 100 \, 80 \, 50 \, 100 \, 80 \, 100 \, 150 \,
50 \, 100 \, 100 \,;
#X obj 401 116 bng 15 250 50 0 empty empty empty 17 7 0 10 -262144
-1 -1;
#X obj 401 191 random 8;
#X text 128 101 Global Presets:;
#X msg 417 276 100;
#X msg 466 295 150;
#X msg 514 238 100;
#X msg 719 319 set;
#X obj 661 172 until;
#X obj 661 134 t b b b;
#X msg 661 153 21;
#X msg 661 295 1;
#X msg 677 276 2;
#X msg 693 257 4;
#X msg 659 408 0 \, 0 \, 2 \, 4 \, 0 \, 0 \, 1 \, 2 \, 4 \, 1 \, 0
\, 0 \, 4 \, 4 \, 0 \, 2 \, 4 \, 2 \, 0 \, 4 \, 4 \, 0;
#X obj 661 116 bng 15 250 50 0 empty empty empty 17 7 0 10 -262144
-1 -1;
#X msg 709 238 0;
#X obj 661 210 sel 0 1 2 3;
#X obj 661 191 random 4;
#X text 398 100 Delays & Gliss Lengths;
#X text 660 98 Gliss Presets;
#X obj 71 588 s Array-Setter-Global;
#X obj 420 505 s Array-Setter-Delay;
#X obj 659 437 s Array-Setter-Gliss-Presets;
#X obj 400 523 s Array-Setter-Gliss;
#X obj 58 319 s seqlen;
#X msg 58 273 22;
#X obj 535 58 s array-setter-reset;
#X obj 26 241 s triggernext;
#X obj 147 -7 inlet;
#X obj 147 41 t b b b b b;
#X obj 26 147 t b b;
#X msg 400 320 add2 \$1;
#X msg 661 319 add2 \$1;
#X msg 134 322 add2 \$1;
#X obj 188 345 t b a;
#X msg 188 364 addcomma;
#X obj 438 345 t b a;
#X msg 438 364 addcomma;
#X obj 688 345 t b a;
#X msg 688 364 addcomma;
#X msg 288 111 set \$1;
#X obj 344 10 random 12;
#X msg 482 276 50;
#X msg 449 238 100;
#X obj 345 31 + 15;
#X msg 498 257 100;
#X msg 433 257 50;
#X msg 401 295 80;
#X msg 804 379 add2 0;
#X obj 590 358 t b b;
#X msg 795 104 set \$1;
#X obj 795 83 - 1;
#X obj 322 391 t b b;
#X msg 464 423 add2 0;
#X connect 0 0 13 0;
#X connect 1 0 15 0;
#X connect 2 0 13 0;
#X connect 2 1 3 0;
#X connect 2 2 0 0;
#X connect 3 0 1 0;
#X connect 4 0 55 0;
#X connect 5 0 55 0;
#X connect 6 0 55 0;
#X connect 7 0 55 0;
#X connect 8 0 55 0;
#X connect 9 0 55 0;
#X connect 10 0 55 0;
#X connect 11 0 55 0;
#X connect 12 0 4 0;
#X connect 12 1 5 0;
#X connect 12 2 6 0;
#X connect 12 3 7 0;
#X connect 12 4 8 0;
#X connect 12 5 9 0;
#X connect 12 6 10 0;
#X connect 12 7 11 0;
#X connect 13 0 42 0;
#X connect 14 0 2 0;
#X connect 15 0 12 0;
#X connect 16 0 21 0;
#X connect 17 0 23 0;
#X connect 18 0 74 0;
#X connect 18 1 19 0;
#X connect 18 2 16 0;
#X connect 19 0 17 0;
#X connect 20 0 69 0;
#X connect 20 1 25 0;
#X connect 20 2 68 0;
#X connect 20 3 65 0;
#X connect 20 4 26 0;
#X connect 20 5 64 0;
#X connect 20 6 67 0;
#X connect 20 7 27 0;
#X connect 21 0 43 0;
#X connect 21 0 45 0;
#X connect 22 0 18 0;
#X connect 23 0 20 0;
#X connect 25 0 53 0;
#X connect 26 0 53 0;
#X connect 27 0 53 0;
#X connect 28 0 35 0;
#X connect 29 0 39 0;
#X connect 30 0 71 0;
#X connect 30 1 31 0;
#X connect 30 2 28 0;
#X connect 31 0 29 0;
#X connect 32 0 54 0;
#X connect 33 0 54 0;
#X connect 34 0 54 0;
#X connect 35 0 44 0;
#X connect 36 0 30 0;
#X connect 37 0 54 0;
#X connect 38 0 32 0;
#X connect 38 1 33 0;
#X connect 38 2 34 0;
#X connect 38 3 37 0;
#X connect 39 0 38 0;
#X connect 47 0 46 0;
#X connect 50 0 51 0;
#X connect 51 0 52 0;
#X connect 51 1 14 0;
#X connect 51 2 22 0;
#X connect 51 3 36 0;
#X connect 51 4 48 0;
#X connect 51 4 63 0;
#X connect 52 0 49 0;
#X connect 52 1 47 0;
#X connect 53 0 58 0;
#X connect 54 0 60 0;
#X connect 55 0 56 0;
#X connect 56 0 57 0;
#X connect 56 1 13 0;
#X connect 57 0 13 0;
#X connect 58 0 59 0;
#X connect 58 1 21 0;
#X connect 59 0 21 0;
#X connect 60 0 61 0;
#X connect 60 1 35 0;
#X connect 61 0 35 0;
#X connect 62 0 3 0;
#X connect 62 0 47 0;
#X connect 63 0 66 0;
#X connect 64 0 53 0;
#X connect 65 0 53 0;
#X connect 66 0 62 0;
#X connect 66 0 73 0;
#X connect 67 0 53 0;
#X connect 68 0 53 0;
#X connect 69 0 53 0;
#X connect 70 0 35 0;
#X connect 71 0 35 0;
#X connect 71 1 70 0;
#X connect 72 0 31 0;
#X connect 72 0 19 0;
#X connect 73 0 72 0;
#X connect 74 0 21 0;
#X connect 74 1 75 0;
#X connect 75 0 21 0;
