#N canvas 288 278 924 675 10;
#X obj 351 201 cnv 15 228 98 empty empty empty 20 12 0 14 -191407 -66577
0;
#X obj 357 369 s trans_time_pow;
#X obj 625 286 s trans_time_add;
#X obj 427 340 s trans_time_mult;
#X obj 500 311 s trans_time_exp;
#X obj 186 267 s trans_presets_exp;
#X obj 186 301 min 27;
#X obj 376 216 nbx 2 25 -1e+37 1e+37 0 0 empty empty empty 0 -8 0 22
-262144 -1 -1 8 256;
#X obj 500 216 nbx 2 25 -1e+37 1e+37 0 0 empty empty empty 0 -8 0 22
-262144 -1 -1 8 256;
#X obj 427 257 nbx 2 25 -1e+37 1e+37 0 0 empty empty empty 0 -8 0 22
-262144 -1 -1 2 256;
#X obj 357 257 nbx 2 25 -1e+37 1e+37 0 0 empty empty empty 0 -8 0 22
-262144 -1 -1 2 256;
#X obj 499 257 nbx 3 25 -1e+37 1e+37 0 0 empty empty empty 0 -8 0 22
-262144 -1 -1 60 256;
#X text 441 283 MULT;
#X text 366 283 POWER;
#X obj 624 198 r to_trans_time_exp;
#X obj 148 198 r to_trans_presets_exp;
#X obj 112 243 r to_trans_power;
#X obj 234 243 r to_trans_mult;
#X obj 618 243 r to_trans_add;
#X text 518 283 ADD;
#X obj 376 108 loadbang;
#X msg 376 149 8;
#X msg 428 149 2;
#X msg 500 149 60;
#X text 498 199 TIME STAB.;
#X text 355 199 PRESET STAB. (EXP);
#X obj 749 96 r auxknob-6;
#X obj 755 255 +;
#X obj 755 152 -;
#X obj 749 123 t f f;
#X floatatom 755 173 5 0 0 0 - - -, f 5;
#X obj 755 276 max 2;
#X text 408 241 TIME (& GLISS TIME);
#X obj 755 193 min 1;
#X obj 755 214 max -1;
#X floatatom 755 235 5 0 0 0 - - -, f 5;
#X connect 6 0 5 0;
#X connect 7 0 6 0;
#X connect 8 0 4 0;
#X connect 9 0 3 0;
#X connect 10 0 1 0;
#X connect 11 0 2 0;
#X connect 11 0 27 1;
#X connect 14 0 8 0;
#X connect 15 0 7 0;
#X connect 16 0 10 0;
#X connect 17 0 9 0;
#X connect 18 0 11 0;
#X connect 20 0 21 0;
#X connect 20 0 22 0;
#X connect 20 0 23 0;
#X connect 21 0 7 0;
#X connect 21 0 8 0;
#X connect 22 0 10 0;
#X connect 22 0 9 0;
#X connect 23 0 11 0;
#X connect 26 0 29 0;
#X connect 27 0 31 0;
#X connect 28 0 30 0;
#X connect 29 0 28 1;
#X connect 29 1 28 0;
#X connect 30 0 33 0;
#X connect 31 0 11 0;
#X connect 33 0 34 0;
#X connect 34 0 35 0;
#X connect 35 0 27 0;
#X coords 0 -1 1 1 230 100 2 350 200;
