#N canvas 69 204 470 400 10;
#X obj 108 19 inlet;
#X obj 299 289 outlet;
#X obj 108 288 outlet;
#X msg 202 272 1;
#X msg 218 252 2;
#X msg 234 232 3;
#X msg 250 212 5;
#X msg 267 192 10;
#X msg 283 172 21;
#X msg 299 152 18;
#X obj 202 96 % 8;
#X obj 202 124 sel 0 1 2 3 4 5 6 7;
#X obj 202 68 - 8;
#X obj 108 51 t f f;
#X connect 0 0 13 0;
#X connect 3 0 1 0;
#X connect 4 0 1 0;
#X connect 5 0 1 0;
#X connect 6 0 1 0;
#X connect 7 0 1 0;
#X connect 8 0 1 0;
#X connect 9 0 1 0;
#X connect 10 0 11 0;
#X connect 11 0 3 0;
#X connect 11 1 4 0;
#X connect 11 2 5 0;
#X connect 11 3 6 0;
#X connect 11 4 7 0;
#X connect 11 5 8 0;
#X connect 11 6 9 0;
#X connect 12 0 10 0;
#X connect 13 0 2 0;
#X connect 13 1 12 0;
