#N canvas 43 89 1323 687 10;
#X obj 406 703 s to_global_presets;
#N canvas 43 105 450 250 (subpatch) 0;
#X array DELAY 100 float 3;
#A 0 0 0 0 0 0 0 0 0 0 0 0 0 0 0 0 0 0 0 0 0 0 0 0 0 0 0 0 0 0 0 0
0 0 0 0 0 0 0 0 0 0 0 0 0 0 0 0 0 0 0 0 0 0 0 0 0 0 0 0 0 0 0 0 0 0
0 0 0 0 0 0 0 0 0 0 0 0 0 0 0 0 0 0 0 0 0 0 0 0 0 0 0 0 0 0 0 0 0 0
0;
#X coords 0 1000 100 0 200 140 1 0 0;
#X restore 770 260 graph;
#N canvas 43 101 450 250 (subpatch) 0;
#X array GLISS 100 float 3;
#A 0 0 0 0 0 0 0 0 0 0 0 0 0 0 0 0 0 0 0 0 0 0 0 0 0 0 0 0 0 0 0 0
0 0 0 0 0 0 0 0 0 0 0 0 0 0 0 0 0 0 0 0 0 0 0 0 0 0 0 0 0 0 0 0 0 0
0 0 0 0 0 0 0 0 0 0 0 0 0 0 0 0 0 0 0 0 0 0 0 0 0 0 0 0 0 0 0 0 0 0
0;
#X coords 0 1000 100 0 200 140 1 0 0;
#X restore 770 99 graph;
#X obj 991 298 Array-Setter-Delay;
#X obj 991 137 Array-Setter-Gliss;
#N canvas 43 101 450 250 (subpatch) 0;
#X array GLOBAL 100 float 3;
#A 0 0 0 0 0 0 0 0 0 0 0 0 0 0 0 0 0 0 0 0 0 0 0 0 0 0 0 0 0 0 0 0
0 0 0 0 0 0 0 0 0 0 0 0 0 0 0 0 0 0 0 0 0 0 0 0 0 0 0 0 0 0 0 0 0 0
0 0 0 0 0 0 0 0 0 0 0 0 0 0 0 0 0 0 0 0 0 0 0 0 0 0 0 0 0 0 0 0 0 0
0;
#X coords 0 24 100 0 200 140 1 0 0;
#X restore 770 -62 graph;
#X obj 403 238 s array-setter-reset;
#X obj 380 266 s array-setters;
#X obj 991 99 r array-setters;
#X obj 991 260 r array-setters;
#X obj 130 595 tabread DELAY;
#X obj 406 675 tabread GLOBAL;
#X obj 406 560 tabread GLISS;
#X obj 357 210 t b f b;
#X obj 112 338 f;
#X obj 148 338 + 1;
#X msg 130 316 0;
#X obj 130 295 r array-setter-reset;
#X obj 112 365 t f f;
#X msg 112 508 stop;
#X obj 17 598 t b f;
#X obj 112 480 sel 1;
#X msg 346 504 set \$1;
#X floatatom 346 525 5 0 0 0 - - -, f 5;
#X obj 346 543 + 1;
#X obj 346 482 r seqlen;
#X obj 130 399 r seqlen;
#X obj 357 294 s triggernext;
#X obj 112 272 r triggernext;
#X obj 112 685 s triggernext;
#X obj 203 469 s globaltabread;
#X obj 263 406 s glisstabread;
#X obj 223 448 s delaytabread;
#X obj 406 511 r glisstabread;
#X obj 17 570 r delaytabread;
#X obj 406 626 r globaltabread;
#X obj 156 508 del 10;
#X obj 406 588 s gliss-length-receive;
#X obj 991 421 r array-setters;
#X obj 991 459 Array-Setter-Gliss-Presets;
#N canvas 43 101 450 250 (subpatch) 0;
#X array GLISS-PRESETS 100 float 3;
#A 0 0 0 0 0 0 0 0 0 0 0 0 0 0 0 0 0 0 0 0 0 0 0 0 0 0 0 0 0 0 0 0
0 0 0 0 0 0 0 0 0 0 0 0 0 0 0 0 0 0 0 0 0 0 0 0 0 0 0 0 0 0 0 0 0 0
0 0 0 0 0 0 0 0 0 0 0 0 0 0 0 0 0 0 0 0 0 0 0 0 0 0 0 0 0 0 0 0 0 0
0;
#X coords 0 10 100 0 200 140 1 0 0;
#X restore 770 421 graph;
#X obj 203 382 t f f f f;
#X obj 243 427 s glisspresetstabread;
#X obj 574 626 r glisspresetstabread;
#X obj 574 675 tabread GLISS-PRESETS;
#X obj 574 703 s to_gliss_presets;
#X floatatom 585 654 5 0 0 0 - - -, f 5;
#X floatatom 417 654 5 0 0 0 - - -, f 5;
#X floatatom 420 539 5 0 0 0 - - -, f 5;
#X floatatom 357 185 5 0 0 0 - - -, f 5;
#X obj 45 205 Transition-Randomizer;
#X obj 61 -41 r to-transitions;
#X floatatom 93 179 5 0 0 0 - - -, f 5;
#X obj 124 91 r init-loadbang;
#X msg 124 119 15;
#X floatatom 130 427 5 0 0 0 - - -, f 5;
#X obj 112 452 >=;
#X obj 45 -65 inlet;
#X obj 45 53 bng 15 250 50 0 empty empty empty 17 7 0 10 -262144 -1
-1;
#X obj 112 629 del;
#X obj 112 657 spigot;
#X obj 130 560 tgl 15 0 empty empty empty 17 7 0 10 -262144 -1 -1 1
1;
#X msg 35 543 0;
#X msg 200 543 1;
#X floatatom 189 179 5 0 0 0 - - -, f 5;
#X floatatom 141 179 5 0 0 0 - - -, f 5;
#X text 997 440 Series of glissando presets.;
#X obj 991 -24 Array-Setter-Global;
#X obj 991 -62 r array-setters;
#X text 999 -42 Series of Global Presets to switch to.;
#X text 997 119 Series of glissando times to switch to.;
#X obj 511 14 s array-setter-reset;
#X obj 479 -40 bng 15 250 50 0 empty empty empty 17 7 0 10 -262144
-1 -1;
#X obj 479 42 until;
#X msg 479 14 101;
#X obj 479 186 s Array-Setter-Global;
#X msg 479 70 0;
#X obj 479 98 t f f f f;
#X obj 499 166 s Array-Setter-Gliss;
#X obj 519 146 s Array-Setter-Delay;
#X obj 539 126 s Array-Setter-Gliss-Presets;
#X obj 479 -14 t b b b;
#X text 1000 279 Series of delay times in beween switches.;
#X text 201 164 EXP;
#X text 139 164 FINAL;
#X text 91 164 #TODO;
#X text 217 685 Back to top.;
#X obj 189 147 r transexp;
#X text 163 360 This is mainly what happens each transition.;
#X obj 93 71 r transnumtodo;
#X obj 141 -65 inlet;
#X obj 45 -14 route 8 9 10 11 12 13 14 15 16 17 18 19 20 21;
#X obj 45 111 t b b;
#X connect 8 0 4 0;
#X connect 9 0 3 0;
#X connect 10 0 59 1;
#X connect 11 0 0 0;
#X connect 12 0 37 0;
#X connect 13 0 27 0;
#X connect 13 1 7 0;
#X connect 13 2 6 0;
#X connect 14 0 15 0;
#X connect 14 0 18 0;
#X connect 15 0 14 1;
#X connect 16 0 14 1;
#X connect 17 0 16 0;
#X connect 17 0 63 0;
#X connect 18 0 56 0;
#X connect 18 1 41 0;
#X connect 19 0 59 0;
#X connect 20 0 59 0;
#X connect 20 1 10 0;
#X connect 21 0 19 0;
#X connect 21 0 36 0;
#X connect 21 0 62 0;
#X connect 22 0 23 0;
#X connect 23 0 24 0;
#X connect 24 0 12 0;
#X connect 25 0 22 0;
#X connect 26 0 55 0;
#X connect 28 0 14 0;
#X connect 33 0 12 0;
#X connect 33 0 48 0;
#X connect 34 0 20 0;
#X connect 35 0 11 0;
#X connect 35 0 47 0;
#X connect 36 0 23 0;
#X connect 38 0 39 0;
#X connect 41 0 30 0;
#X connect 41 1 32 0;
#X connect 41 2 42 0;
#X connect 41 3 31 0;
#X connect 43 0 44 0;
#X connect 43 0 46 0;
#X connect 44 0 45 0;
#X connect 49 0 13 0;
#X connect 50 0 14 0;
#X connect 51 0 91 0;
#X connect 52 0 50 1;
#X connect 53 0 54 0;
#X connect 54 0 52 0;
#X connect 55 0 56 1;
#X connect 56 0 21 0;
#X connect 57 0 91 0;
#X connect 58 0 92 0;
#X connect 59 0 60 0;
#X connect 60 0 29 0;
#X connect 61 0 60 1;
#X connect 62 0 61 0;
#X connect 63 0 61 0;
#X connect 64 0 50 3;
#X connect 65 0 50 2;
#X connect 68 0 67 0;
#X connect 72 0 81 0;
#X connect 73 0 76 0;
#X connect 74 0 73 0;
#X connect 76 0 77 0;
#X connect 77 0 75 0;
#X connect 77 1 78 0;
#X connect 77 2 79 0;
#X connect 77 3 80 0;
#X connect 81 0 71 0;
#X connect 81 1 74 0;
#X connect 81 2 71 0;
#X connect 87 0 64 0;
#X connect 89 0 52 0;
#X connect 90 0 65 0;
#X connect 91 0 58 0;
#X connect 91 1 58 0;
#X connect 91 2 58 0;
#X connect 91 3 58 0;
#X connect 91 4 58 0;
#X connect 91 5 58 0;
#X connect 91 6 58 0;
#X connect 91 7 58 0;
#X connect 91 8 58 0;
#X connect 91 9 58 0;
#X connect 91 10 58 0;
#X connect 91 11 58 0;
#X connect 91 12 58 0;
#X connect 91 13 58 0;
#X connect 91 14 49 0;
#X connect 92 0 50 0;
#X connect 92 1 72 0;
#X coords 0 687 1 686 130 140 0;
