#N canvas 822 244 980 758 10;
#X obj 112 281 random;
#X obj 167 321 abs;
#X obj 112 339 +;
#X floatatom 167 264 5 0 0 0 - - -, f 5;
#X obj 112 245 bng 15 250 50 0 empty empty empty 17 7 0 10 -262144
-1 -1;
#X obj 112 378 /;
#X obj 167 292 -;
#X floatatom 210 275 5 0 0 0 - - -, f 5;
#X floatatom 112 407 5 0 0 0 - - -, f 5;
#X obj 112 484 line;
#X obj 112 445 pack;
#X obj 163 581 *;
#X obj 112 653 outlet;
#X obj 306 653 outlet;
#X obj 606 660 outlet;
#X obj 576 574 *;
#X obj 382 281 random;
#X obj 437 321 abs;
#X obj 382 339 +;
#X floatatom 437 264 5 0 0 0 - - -, f 5;
#X obj 382 245 bng 15 250 50 0 empty empty empty 17 7 0 10 -262144
-1 -1;
#X obj 382 378 /;
#X obj 437 292 -;
#X floatatom 480 275 5 0 0 0 - - -, f 5;
#X floatatom 382 407 5 0 0 0 - - -, f 5;
#X obj 382 484 line;
#X obj 382 445 pack;
#X obj 382 523 *;
#X obj 662 281 random;
#X obj 717 321 abs;
#X obj 662 339 +;
#X floatatom 717 264 5 0 0 0 - - -, f 5;
#X obj 662 245 bng 15 250 50 0 empty empty empty 17 7 0 10 -262144
-1 -1;
#X obj 662 378 /;
#X obj 717 292 -;
#X floatatom 760 275 5 0 0 0 - - -, f 5;
#X floatatom 662 407 5 0 0 0 - - -, f 5;
#X obj 662 484 line;
#X obj 662 445 pack;
#X obj 662 523 *;
#X obj 557 487 unpack;
#X msg 542 456 0 1;
#X msg 492 456 1 0;
#X obj 492 404 r toggle_amp_slider;
#X obj 492 427 sel 0 1;
#X obj 883 257 r max_amp;
#X obj 783 246 r amp_amt_slide;
#X obj 106 203 metro;
#X floatatom 133 165 5 0 0 0 - - -, f 5;
#X obj 106 136 tgl 15 0 empty empty empty 17 7 0 10 -262144 -1 -1 1
1;
#X obj 794 118 r slide_metro_time;
#X obj 133 136 +;
#X obj 148 107 random 200;
#X obj 148 78 loadbang;
#X obj 376 203 metro;
#X floatatom 403 165 5 0 0 0 - - -, f 5;
#X obj 376 136 tgl 15 0 empty empty empty 17 7 0 10 -262144 -1 -1 1
1;
#X obj 403 136 +;
#X obj 418 107 random 200;
#X obj 418 78 loadbang;
#X obj 656 203 metro;
#X floatatom 683 165 5 0 0 0 - - -, f 5;
#X obj 656 136 tgl 15 0 empty empty empty 17 7 0 10 -262144 -1 -1 1
1;
#X obj 683 136 +;
#X obj 698 107 random 200;
#X obj 698 78 loadbang;
#X obj 37 118 inlet;
#X obj 336 614 +;
#X obj 346 574 t b f;
#X obj 617 614 +;
#X obj 617 594 t b f;
#X floatatom 382 658 5 0 0 0 - - -, f 5;
#X floatatom 200 632 5 0 0 0 - - -, f 5;
#X connect 0 0 2 0;
#X connect 1 0 2 1;
#X connect 2 0 5 0;
#X connect 3 0 0 1;
#X connect 3 0 6 0;
#X connect 4 0 0 0;
#X connect 5 0 8 0;
#X connect 6 0 1 0;
#X connect 7 0 6 1;
#X connect 7 0 5 1;
#X connect 8 0 10 0;
#X connect 9 0 12 0;
#X connect 9 0 15 0;
#X connect 9 0 11 0;
#X connect 10 0 9 0;
#X connect 11 0 67 0;
#X connect 15 0 69 0;
#X connect 16 0 18 0;
#X connect 17 0 18 1;
#X connect 18 0 21 0;
#X connect 19 0 16 1;
#X connect 19 0 22 0;
#X connect 20 0 16 0;
#X connect 21 0 24 0;
#X connect 22 0 17 0;
#X connect 23 0 22 1;
#X connect 23 0 21 1;
#X connect 24 0 26 0;
#X connect 25 0 27 0;
#X connect 26 0 25 0;
#X connect 27 0 68 0;
#X connect 28 0 30 0;
#X connect 29 0 30 1;
#X connect 30 0 33 0;
#X connect 31 0 28 1;
#X connect 31 0 34 0;
#X connect 32 0 28 0;
#X connect 33 0 36 0;
#X connect 34 0 29 0;
#X connect 35 0 34 1;
#X connect 35 0 33 1;
#X connect 36 0 38 0;
#X connect 37 0 39 0;
#X connect 38 0 37 0;
#X connect 39 0 70 0;
#X connect 40 0 11 1;
#X connect 40 0 15 1;
#X connect 40 1 27 1;
#X connect 40 1 39 1;
#X connect 41 0 40 0;
#X connect 42 0 40 0;
#X connect 43 0 44 0;
#X connect 44 0 42 0;
#X connect 44 1 41 0;
#X connect 45 0 7 0;
#X connect 45 0 23 0;
#X connect 45 0 35 0;
#X connect 46 0 31 0;
#X connect 46 0 19 0;
#X connect 46 0 3 0;
#X connect 47 0 4 0;
#X connect 48 0 47 1;
#X connect 48 0 10 1;
#X connect 49 0 47 0;
#X connect 50 0 51 0;
#X connect 50 0 57 0;
#X connect 50 0 63 0;
#X connect 51 0 48 0;
#X connect 52 0 51 1;
#X connect 53 0 52 0;
#X connect 54 0 20 0;
#X connect 55 0 54 1;
#X connect 55 0 26 1;
#X connect 56 0 54 0;
#X connect 57 0 55 0;
#X connect 58 0 57 1;
#X connect 59 0 58 0;
#X connect 60 0 32 0;
#X connect 61 0 60 1;
#X connect 61 0 38 1;
#X connect 62 0 60 0;
#X connect 63 0 61 0;
#X connect 64 0 63 1;
#X connect 65 0 64 0;
#X connect 66 0 49 0;
#X connect 66 0 56 0;
#X connect 66 0 62 0;
#X connect 67 0 13 0;
#X connect 67 0 71 0;
#X connect 68 0 67 0;
#X connect 68 1 67 1;
#X connect 69 0 14 0;
#X connect 70 0 69 0;
#X connect 70 1 69 1;
