#N canvas 265 220 1211 758 10;
#X floatatom 202 227 5 0 0 0 - - -, f 5;
#X obj 202 514 line;
#X obj 202 485 pack;
#X obj 202 650 outlet;
#X obj 472 650 outlet;
#X obj 752 647 outlet;
#X floatatom 472 227 5 0 0 0 - - -, f 5;
#X obj 472 504 line;
#X obj 472 475 pack;
#X floatatom 752 227 5 0 0 0 - - -, f 5;
#X obj 752 497 line;
#X obj 752 468 pack;
#X obj 111 52 r sphere_size_actual;
#X obj 100 209 unpack f f f;
#X obj 111 138 t f f f;
#X obj 100 175 pack f f f;
#X connect 0 0 2 0;
#X connect 1 0 3 0;
#X connect 2 0 1 0;
#X connect 6 0 8 0;
#X connect 7 0 4 0;
#X connect 8 0 7 0;
#X connect 9 0 11 0;
#X connect 10 0 5 0;
#X connect 11 0 10 0;
#X connect 12 0 14 0;
#X connect 13 0 0 0;
#X connect 13 1 6 0;
#X connect 13 2 9 0;
#X connect 14 0 15 0;
#X connect 14 1 15 1;
#X connect 14 2 15 2;
#X connect 15 0 13 0;
