#N canvas 339 220 1211 758 10;
#X floatatom 202 227 5 0 0 0 - - -, f 5;
#X obj 202 514 line;
#X obj 202 485 pack;
#X obj 202 650 outlet;
#X obj 472 650 outlet;
#X obj 752 647 outlet;
#X floatatom 472 227 5 0 0 0 - - -, f 5;
#X obj 472 504 line;
#X obj 472 475 pack;
#X floatatom 752 227 5 0 0 0 - - -, f 5;
#X obj 752 497 line;
#X obj 752 468 pack;
#X obj 60 130 loadbang;
#X obj 50 91 r reset_sphere_size;
#X obj 135 52 r sphere_size_actual;
#X obj 910 286 s sphere_size_actual_set;
#X obj 100 209 unpack f f f;
#X obj 910 244 pack f f f;
#X msg 50 169 1 1 1;
#X obj 135 138 t f f f;
#X obj 124 175 pack f f f;
#X connect 0 0 17 0;
#X connect 0 0 2 0;
#X connect 1 0 3 0;
#X connect 2 0 1 0;
#X connect 6 0 17 1;
#X connect 6 0 8 0;
#X connect 7 0 4 0;
#X connect 8 0 7 0;
#X connect 9 0 17 2;
#X connect 9 0 11 0;
#X connect 10 0 5 0;
#X connect 11 0 10 0;
#X connect 12 0 18 0;
#X connect 13 0 18 0;
#X connect 14 0 19 0;
#X connect 16 0 0 0;
#X connect 16 1 6 0;
#X connect 16 2 9 0;
#X connect 17 0 15 0;
#X connect 18 0 16 0;
#X connect 19 0 20 0;
#X connect 19 1 20 1;
#X connect 19 2 20 2;
#X connect 20 0 16 0;
