#N canvas 448 293 826 570 10;
#X obj 136 467 scopeXYZ;
#X obj 150 356 *~;
#X obj 184 394 *~;
#X floatatom 165 199 5 0 0 0 - - -, f 5;
#X obj 150 327 osc~ 10;
#X msg 136 277 draw point;
#X msg 440 449 0;
#X obj 270 375 osc~ 10;
#X obj 250 327 osc~ 330;
#X obj 184 438 +~;
#X obj 151 438 +~;
#X obj 341 375 osc~ 331;
#X floatatom 250 199 5 0 0 0 - - -, f 5;
#X floatatom 341 347 5 0 0 0 - - -, f 5;
#X obj 342 420 *~ 0.1;
#X obj 250 420 *~ 0.1;
#X obj 341 301 + 1;
#X msg 469 357 0.25;
#X obj 469 288 bng 15 250 50 0 empty empty empty 17 7 0 10 -262144
-1 -1;
#X obj 341 237 t b f;
#X floatatom 341 199 5 0 0 0 - - -, f 5;
#X msg 469 309 0;
#X obj 440 259 loadbang;
#X obj 486 449 inlet;
#X obj 165 160 inlet;
#X obj 250 160 inlet;
#X obj 341 160 inlet;
#X obj 52 155 inlet;
#X floatatom 509 191 5 0 0 0 - - -, f 5;
#X obj 509 317 + 0.25;
#X text 507 176 Phase;
#X floatatom 52 403 5 0 0 0 - - -, f 5;
#X connect 1 0 10 0;
#X connect 2 0 9 0;
#X connect 3 0 1 1;
#X connect 3 0 2 1;
#X connect 4 0 1 0;
#X connect 5 0 0 0;
#X connect 6 0 0 3;
#X connect 7 0 2 0;
#X connect 8 0 15 0;
#X connect 9 0 0 2;
#X connect 10 0 0 1;
#X connect 11 0 14 0;
#X connect 12 0 8 0;
#X connect 12 0 16 0;
#X connect 13 0 11 0;
#X connect 14 0 10 1;
#X connect 15 0 9 1;
#X connect 16 0 13 0;
#X connect 17 0 11 1;
#X connect 17 0 7 1;
#X connect 18 0 21 0;
#X connect 19 0 16 0;
#X connect 19 1 16 1;
#X connect 20 0 19 0;
#X connect 21 0 8 1;
#X connect 21 0 17 0;
#X connect 21 0 4 1;
#X connect 22 0 18 0;
#X connect 22 0 5 0;
#X connect 22 0 6 0;
#X connect 23 0 0 0;
#X connect 24 0 3 0;
#X connect 25 0 12 0;
#X connect 26 0 20 0;
#X connect 27 0 31 0;
#X connect 28 0 4 1;
#X connect 28 0 8 1;
#X connect 28 0 29 0;
#X connect 29 0 7 1;
#X connect 29 0 11 1;
#X connect 31 0 15 1;
#X connect 31 0 14 1;
