#N canvas 603 365 854 527 10;
#X obj 535 363 gemhead;
#X floatatom 136 248 5 0 0 0 - - -, f 5;
#X floatatom 182 281 5 0 0 0 - - -, f 5;
#X floatatom 316 122 5 0 0 0 - - -, f 5;
#X msg 454 366 length \$1;
#X obj 454 220 / 400;
#X obj 454 249 * 20000;
#X obj 510 202 loadbang;
#X msg 510 231 0.4;
#X obj 454 173 r fadertrim-6;
#X obj 31 430 big_circle_sfgem, f 71;
#X text 133 67 BIG CIRCLE SIZE;
#X text 176 239 BIG CIRCLE FREQ;
#X text 313 70 BIG CIRCLE FREQ DIFFERENCE;
#X obj 182 255 r fadertrim-4;
#X obj 316 93 r fadertrim-5;
#X floatatom 454 278 5 0 0 0 - - -, f 5;
#X obj 136 179 pack;
#X obj 157 129 r bigC_size_spd;
#X obj 348 236 pack;
#X obj 369 118 r bigC_diff_spd;
#X obj 242 367 pack;
#X obj 263 338 r bigC_freq_spd;
#X obj 136 89 r bigC_size;
#X text 452 154 BIG C STAY TIME;
#X obj 454 306 s bigC_stay_2pnl;
#X obj 454 337 r bigC_stay;
#X obj 316 150 s bigC_fdiff_2pnl;
#X obj 316 179 r bigC_fdiff;
#X obj 182 309 s bigC_freq_2pnl;
#X obj 182 338 r bigC_freq;
#X obj 31 89 r bigC_amp;
#X obj 31 401 liner_sfgem;
#X obj 31 372 pack;
#X obj 52 337 r bigC_amp_spd;
#X text 699 3 No faders here??;
#X obj 535 412 translateXYZ;
#X obj 581 305 loadbang;
#X msg 581 383 0;
#X obj 641 307 r big_circle_on_off;
#X obj 641 339 sel 0 1;
#X msg 641 383 10000;
#X obj 157 150 liner_sfgem;
#X obj 348 265 liner_sfgem;
#X obj 242 390 liner_sfgem;
#X obj 136 208 liner_sfgem;
#X connect 0 0 36 0;
#X connect 1 0 10 1;
#X connect 2 0 29 0;
#X connect 3 0 27 0;
#X connect 4 0 10 4;
#X connect 5 0 6 0;
#X connect 6 0 16 0;
#X connect 7 0 8 0;
#X connect 8 0 6 0;
#X connect 9 0 5 0;
#X connect 14 0 2 0;
#X connect 15 0 3 0;
#X connect 16 0 25 0;
#X connect 17 0 45 0;
#X connect 18 0 42 0;
#X connect 19 0 43 0;
#X connect 20 0 19 1;
#X connect 21 0 44 0;
#X connect 22 0 21 1;
#X connect 23 0 17 0;
#X connect 26 0 4 0;
#X connect 28 0 19 0;
#X connect 30 0 21 0;
#X connect 31 0 33 0;
#X connect 32 0 10 0;
#X connect 33 0 32 0;
#X connect 34 0 33 1;
#X connect 36 0 10 4;
#X connect 37 0 38 0;
#X connect 38 0 36 1;
#X connect 38 0 36 2;
#X connect 39 0 40 0;
#X connect 40 0 41 0;
#X connect 40 1 38 0;
#X connect 41 0 36 1;
#X connect 41 0 36 2;
#X connect 42 0 17 1;
#X connect 43 0 10 3;
#X connect 44 0 10 2;
#X connect 45 0 1 0;
