#N canvas 57 89 581 901 10;
#X obj 57 33 inlet;
#X obj 137 33 inlet;
#X obj 227 33 inlet;
#X obj 317 33 inlet;
#X obj 407 33 inlet;
#X obj 131 777 outlet;
#X obj 221 777 outlet;
#X obj 311 777 outlet;
#X obj 50 777 outlet;
#X obj 401 777 outlet;
#X obj 262 475 gemhead;
#X floatatom 138 308 5 0 0 0 - - -, f 5;
#X floatatom 175 483 5 0 0 0 - - -, f 5;
#X floatatom 259 360 5 0 0 0 - - -, f 5;
#X msg 341 504 length \$1;
#X obj 342 389 / 400;
#X obj 342 418 * 20000;
#X obj 398 371 loadbang;
#X msg 398 400 0.4;
#X text 330 323 STAY-TIME OF POINTS;
#X obj 342 342 r fadertrim-6;
#X obj 61 540 big_circle_sfgem, f 52;
#X text 135 177 BIG CIRCLE SIZE;
#X text 169 438 BIG CIRCLE FREQ;
#X text 256 279 BIG CIRCLE FREQ DIFFERENCE;
#X obj 175 454 r fadertrim-4;
#X obj 259 302 r fadertrim-5;
#X msg 175 511 set \$1;
#X msg 259 331 set \$1;
#X floatatom 342 476 5 0 0 0 - - -, f 5;
#X msg 342 447 set \$1;
#X obj 138 200 r big_circle_size;
#X msg 138 336 set \$1;
#X floatatom 61 376 5 0 0 0 - - -, f 5;
#X obj 159 229 r bigcircle_size_speed;
#X obj 159 250 liner_sfgem;
#X obj 138 279 pack;
#X connect 10 0 21 4;
#X connect 11 0 21 1;
#X connect 11 0 32 0;
#X connect 12 0 21 2;
#X connect 12 0 27 0;
#X connect 13 0 21 3;
#X connect 13 0 28 0;
#X connect 14 0 21 4;
#X connect 15 0 16 0;
#X connect 16 0 29 0;
#X connect 17 0 18 0;
#X connect 18 0 16 0;
#X connect 20 0 15 0;
#X connect 25 0 12 0;
#X connect 26 0 13 0;
#X connect 29 0 14 0;
#X connect 29 0 30 0;
#X connect 31 0 36 0;
#X connect 33 0 21 0;
#X connect 34 0 35 0;
#X connect 35 0 36 1;
#X connect 36 0 11 0;
