#N canvas 67 235 594 737 10;
#X obj 101 502 s cartesian_mult_0;
#X obj 149 522 s cartesian_mult_1;
#X obj 198 542 s cartesian_mult_2;
#X obj 101 562 s cartesian_mult_3;
#X obj 149 582 s cartesian_mult_4;
#X obj 198 602 s cartesian_mult_5;
#X obj 246 562 s cartmult_3_speed_rec;
#X obj 295 582 s cartmult_4_speed_rec;
#X obj 344 602 s cartmult_5_speed_rec;
#X obj 246 502 s cartmult_0_speed_rec;
#X obj 295 522 s cartmult_1_speed_rec;
#X obj 344 542 s cartmult_2_speed_rec;
#X obj 100 52 r cartmult_master_set;
#X obj 134 72 r cartmult_0_set;
#X obj 169 92 r pcartmult_1_set;
#X obj 204 112 r cartmult_2_set;
#X obj 239 53 r cartmult_master_set;
#X obj 274 72 r cartmult_speed_0;
#X obj 309 92 r cartmult_speed_1;
#X obj 344 112 r cartmult_speed_2;
#X obj 101 247 liner_sfgem;
#X obj 101 223 pack;
#X obj 149 317 liner_sfgem;
#X obj 149 293 pack;
#X obj 198 383 liner_sfgem;
#X obj 198 359 pack;
#X obj 101 267 Tarer 0;
#X obj 149 337 Tarer 1;
#X obj 198 403 Tarer 2;
#X msg 101 305 1;
#X obj 74 305 + 1;
#X msg 149 375 1;
#X obj 122 375 + 1;
#X msg 199 445 1;
#X obj 172 445 + 1;
#X obj 101 151 control_numbers_window 999 999 999 999 4;
#X connect 16 0 35 4;
#X connect 17 0 35 5;
#X connect 18 0 35 6;
#X connect 19 0 35 7;
#X connect 20 0 26 0;
#X connect 20 0 26 0;
#X connect 21 0 20 0;
#X connect 22 0 27 0;
#X connect 23 0 22 0;
#X connect 24 0 28 0;
#X connect 25 0 24 0;
#X connect 26 0 30 0;
#X connect 26 1 29 0;
#X connect 27 0 32 0;
#X connect 27 1 31 0;
#X connect 28 0 34 0;
#X connect 28 1 33 0;
#X connect 29 0 0 0;
#X connect 29 0 3 0;
#X connect 30 0 0 0;
#X connect 30 0 3 0;
#X connect 31 0 1 0;
#X connect 31 0 4 0;
#X connect 32 0 1 0;
#X connect 32 0 4 0;
#X connect 33 0 2 0;
#X connect 33 0 5 0;
#X connect 34 0 2 0;
#X connect 34 0 5 0;
#X connect 35 0 21 0;
#X connect 35 1 23 0;
#X connect 35 2 25 0;
#X connect 35 3 9 0;
#X connect 35 3 6 0;
#X connect 35 3 21 1;
#X connect 35 4 10 0;
#X connect 35 4 7 0;
#X connect 35 4 23 1;
#X connect 35 5 11 0;
#X connect 35 5 8 0;
#X connect 35 5 25 1;
#X coords 0 -1 1 1 252 52 2 100 150;
