#N canvas 353 193 808 737 10;
#X obj 263 632 s cartmult_3_speed_rec;
#X obj 303 652 s cartmult_4_speed_rec;
#X obj 344 672 s cartmult_5_speed_rec;
#X obj 263 572 s cartmult_0_speed_rec;
#X obj 303 592 s cartmult_1_speed_rec;
#X obj 344 612 s cartmult_2_speed_rec;
#X obj 101 52 r cartmult_master_set;
#X obj 135 72 r cartmult_0_set;
#X obj 205 112 r cartmult_2_set;
#X obj 239 53 r cartmult_master_set;
#X obj 274 72 r cartmult_speed_0;
#X obj 309 92 r cartmult_speed_1;
#X obj 344 112 r cartmult_speed_2;
#X obj 141 237 liner_sfgem;
#X obj 141 213 pack;
#X obj 182 307 liner_sfgem;
#X obj 182 283 pack;
#X obj 222 379 liner_sfgem;
#X obj 222 355 pack;
#X obj 141 257 Tarer 0;
#X obj 182 327 Tarer 1;
#X obj 222 399 Tarer 2;
#X obj 141 277 + 1;
#X obj 182 347 + 1;
#X obj 222 419 + 1;
#X obj 101 151 control_numbers_window 999 999 999 999 4;
#X obj 101 630 value cartmult_master;
#X obj 141 650 value cartmult_0;
#X obj 182 670 value cartmult_1;
#X obj 222 690 value cartmult_2;
#X obj 170 92 r cartmult_1_set;
#X obj 141 462 s cartmult_3;
#X obj 141 442 s cart_mult_0;
#X obj 182 482 s cart_mult_1;
#X obj 222 522 s cart_mult_2;
#X obj 182 502 s cart_mult_4;
#X obj 222 542 s cart_mult_5;
#X obj 373 152 value cart_mult_random_max;
#X obj 373 181 value cart_mult_random_min;
#X obj 410 239 r cart_mult_tare_0;
#X obj 410 309 r cart_mult_tare_1;
#X obj 410 381 r cart_mult_tare_2;
#X connect 6 0 25 0;
#X connect 7 0 25 1;
#X connect 8 0 25 3;
#X connect 9 0 25 4;
#X connect 10 0 25 5;
#X connect 11 0 25 6;
#X connect 12 0 25 7;
#X connect 13 0 19 0;
#X connect 13 0 19 0;
#X connect 14 0 13 0;
#X connect 15 0 20 0;
#X connect 16 0 15 0;
#X connect 17 0 21 0;
#X connect 18 0 17 0;
#X connect 19 0 22 0;
#X connect 20 0 23 0;
#X connect 21 0 24 0;
#X connect 22 0 27 0;
#X connect 22 0 31 0;
#X connect 22 0 32 0;
#X connect 23 0 28 0;
#X connect 23 0 33 0;
#X connect 23 0 35 0;
#X connect 24 0 29 0;
#X connect 24 0 34 0;
#X connect 24 0 36 0;
#X connect 25 0 26 0;
#X connect 25 1 14 0;
#X connect 25 2 16 0;
#X connect 25 3 18 0;
#X connect 25 4 3 0;
#X connect 25 4 0 0;
#X connect 25 4 14 1;
#X connect 25 5 4 0;
#X connect 25 5 1 0;
#X connect 25 5 16 1;
#X connect 25 6 5 0;
#X connect 25 6 2 0;
#X connect 25 6 18 1;
#X connect 30 0 25 2;
#X connect 39 0 19 1;
#X connect 40 0 20 1;
#X connect 41 0 21 1;
#X coords 0 -1 1 1 252 52 2 100 150;
