#N canvas 263 121 961 737 10;
#X obj 141 213 pack;
#X obj 182 283 pack;
#X obj 222 355 pack;
#X obj 141 277 + 1;
#X obj 182 347 + 1;
#X obj 222 419 + 1;
#X obj 101 151 control_numbers_window 999 999 999 999 4;
#X obj 141 442 s cart_mult_0;
#X obj 182 482 s cart_mult_1;
#X obj 222 522 s cart_mult_2;
#X obj 182 502 s cart_mult_4;
#X obj 222 542 s cart_mult_5;
#X obj 373 152 value cart_mult_random_max;
#X obj 373 181 value cart_mult_random_min;
#X obj 410 239 r cart_mult_tare_0;
#X obj 410 309 r cart_mult_tare_1;
#X obj 410 381 r cart_mult_tare_2;
#X obj 101 52 r cart_mult_master_set;
#X obj 135 72 r cart_mult_0_set;
#X obj 170 92 r cart_mult_1_set;
#X obj 205 112 r cart_mult_2_set;
#X obj 274 72 r cart_mult_speed_0;
#X obj 309 92 r cart_mult_speed_1;
#X obj 344 112 r cart_mult_speed_2;
#X obj 263 572 s cart_mult_0_speed_rec;
#X obj 303 592 s cart_mult_1_speed_rec;
#X obj 344 612 s cart_mult_2_speed_rec;
#X obj 263 632 s cart_mult_3_speed_rec;
#X obj 303 652 s cart_mult_4_speed_rec;
#X obj 344 672 s cart_mult_5_speed_rec;
#X obj 101 630 value cart_mult_master;
#X obj 141 650 value cart_mult_0;
#X obj 182 670 value cart_mult_1;
#X obj 222 690 value cart_mult_2;
#X obj 141 462 s cart_mult_3;
#X obj 554 152 value cart_mult_time_random_max;
#X obj 554 181 value cart_mult_time_random_min;
#X obj 239 53 r cart_mult_speed_all;
#X obj 141 257 Tarer 0;
#X obj 182 327 Tarer 1;
#X obj 222 399 Tarer 2;
#X obj 761 66 loadbang;
#X obj 761 95 t b b b b;
#X msg 812 134 1000;
#X msg 795 163 100;
#X msg 761 134 2;
#X msg 761 163 -2;
#X obj 141 237 liner_sfgem;
#X obj 182 307 liner_sfgem;
#X obj 222 379 liner_sfgem;
#X obj 347 437 r cart_mult_liner_exponent;
#X obj 348 470 r cult_mult_liner_function;
#X connect 0 0 47 0;
#X connect 1 0 48 0;
#X connect 2 0 49 0;
#X connect 3 0 7 0;
#X connect 3 0 31 0;
#X connect 3 0 34 0;
#X connect 4 0 8 0;
#X connect 4 0 10 0;
#X connect 4 0 32 0;
#X connect 5 0 9 0;
#X connect 5 0 11 0;
#X connect 5 0 33 0;
#X connect 6 0 30 0;
#X connect 6 1 0 0;
#X connect 6 2 1 0;
#X connect 6 3 2 0;
#X connect 6 4 0 1;
#X connect 6 4 24 0;
#X connect 6 4 27 0;
#X connect 6 5 1 1;
#X connect 6 5 25 0;
#X connect 6 5 28 0;
#X connect 6 6 2 1;
#X connect 6 6 26 0;
#X connect 6 6 29 0;
#X connect 14 0 38 1;
#X connect 15 0 39 1;
#X connect 16 0 40 1;
#X connect 17 0 6 0;
#X connect 18 0 6 1;
#X connect 19 0 6 2;
#X connect 20 0 6 3;
#X connect 21 0 6 5;
#X connect 22 0 6 6;
#X connect 23 0 6 7;
#X connect 37 0 6 4;
#X connect 38 0 3 0;
#X connect 39 0 4 0;
#X connect 40 0 5 0;
#X connect 41 0 42 0;
#X connect 42 0 46 0;
#X connect 42 1 45 0;
#X connect 42 2 44 0;
#X connect 42 3 43 0;
#X connect 43 0 35 0;
#X connect 44 0 36 0;
#X connect 45 0 12 0;
#X connect 46 0 13 0;
#X connect 47 0 38 0;
#X connect 47 0 38 0;
#X connect 48 0 39 0;
#X connect 49 0 40 0;
#X connect 50 0 47 3;
#X connect 50 0 48 3;
#X connect 50 0 49 3;
#X connect 51 0 47 2;
#X connect 51 0 48 2;
#X connect 51 0 49 2;
#X coords 0 -1 1 1 250 50 2 100 150;
