#N canvas 67 332 575 463 10;
#X obj 101 247 liner_sfgem;
#X obj 101 223 pack;
#X obj 149 300 liner_sfgem;
#X obj 149 276 pack;
#X obj 198 350 liner_sfgem;
#X obj 198 326 pack;
#X obj 101 40 r cent_spin_master_set;
#X obj 135 60 r cent_spin_0_set;
#X obj 170 80 r cent_spin_1_set;
#X obj 205 101 r cent_spin_2_set;
#X obj 239 41 r cent_spin_speed_all;
#X obj 274 62 r cent_spin_speed_0;
#X obj 309 82 r cent_spin_speed_1;
#X obj 344 102 r cent_spin_speed_2;
#X obj 101 408 s cent_spin_0;
#X obj 101 428 s cent_spin_3;
#X obj 149 448 s cent_spin_1;
#X obj 149 468 s cent_spin_4;
#X obj 198 518 s cent_spin_2;
#X obj 198 538 s cent_spin_5;
#X obj 246 428 s cent_spin_0_speed_rec;
#X obj 246 448 s cent_spin_3_speed_rec;
#X obj 295 468 s cent_spin_1_speed_rec;
#X obj 295 488 s cent_spin_4_speed_rec;
#X obj 344 508 s cent_spin_2_speed_rec;
#X obj 344 528 s cent_spin_5_speed_rec;
#X obj 101 151 control_numbers_window 17 18 19 999 16;
#X obj 101 276 Tarer 0;
#X obj 149 329 Tarer 1;
#X obj 198 379 Tarer 2;
#X connect 0 0 27 0;
#X connect 1 0 0 0;
#X connect 2 0 28 0;
#X connect 3 0 2 0;
#X connect 4 0 29 0;
#X connect 5 0 4 0;
#X connect 10 0 26 4;
#X connect 11 0 26 5;
#X connect 12 0 26 6;
#X connect 13 0 26 7;
#X connect 26 0 1 0;
#X connect 26 1 3 0;
#X connect 26 2 5 0;
#X connect 26 3 1 1;
#X connect 26 3 20 0;
#X connect 26 3 21 0;
#X connect 26 4 3 1;
#X connect 26 4 22 0;
#X connect 26 4 23 0;
#X connect 26 5 5 1;
#X connect 26 5 24 0;
#X connect 26 5 25 0;
#X connect 27 0 14 0;
#X connect 27 0 15 0;
#X connect 28 0 16 0;
#X connect 28 0 17 0;
#X connect 29 0 18 0;
#X connect 29 0 19 0;
#X coords 0 -1 1 1 252 52 2 100 150;
