#N canvas 630 217 740 751 10;
#X obj 101 247 liner_sfgem;
#X obj 101 223 pack;
#X obj 149 300 liner_sfgem;
#X obj 149 276 pack;
#X obj 198 350 liner_sfgem;
#X obj 198 326 pack;
#X obj 101 151 control_numbers_window 17 18 19 999 16;
#X obj 101 276 Tarer 0;
#X obj 149 329 Tarer 1;
#X obj 198 379 Tarer 2;
#X obj 101 40 r orbit_master_set;
#X obj 239 41 r orbit_spin_speed_all;
#X obj 274 62 r orbit_spin_speed_0;
#X obj 309 82 r orbit_spin_speed_1;
#X obj 344 102 r orbit_spin_speed_2;
#X obj 101 408 s orbit_0;
#X obj 101 428 s orbit_3;
#X obj 149 448 s orbit_1;
#X obj 149 468 s orbit_4;
#X obj 198 518 s orbit_2;
#X obj 198 538 s orbit_5;
#X obj 246 428 s orbit_0_speed_rec;
#X obj 246 448 s orbit_3_speed_rec;
#X obj 295 468 s orbit_1_speed_rec;
#X obj 295 488 s orbit_4_speed_rec;
#X obj 344 508 s orbit_2_speed_rec;
#X obj 344 528 s orbit_5_speed_rec;
#X obj 410 258 r orbit_tare_0;
#X obj 410 311 r orbit_tare_1;
#X obj 410 361 r orbit_tare_2;
#X obj 135 60 r orbit_0_set;
#X obj 170 80 r orbit_1_set;
#X obj 205 101 r orbit_2_set;
#X obj 104 571 s orbit_rad_type_0;
#X obj 104 591 s orbit_rad_type_3;
#X obj 104 611 s orbit_rad_type_1;
#X obj 104 631 s orbit_rad_type_4;
#X obj 104 651 s orbit_rad_type_2;
#X obj 104 671 s orbit_rad_type_5;
#X obj 104 153 bng 14 250 50 0 empty empty empty 17 7 0 10 -262144
-1 -1;
#X obj 104 168 bng 14 250 50 0 empty empty empty 17 7 0 10 -262144
-1 -1;
#X obj 104 183 bng 14 250 50 0 empty empty empty 17 7 0 10 -262144
-1 -1;
#X connect 0 0 7 0;
#X connect 1 0 0 0;
#X connect 2 0 8 0;
#X connect 3 0 2 0;
#X connect 4 0 9 0;
#X connect 5 0 4 0;
#X connect 6 0 1 0;
#X connect 6 1 3 0;
#X connect 6 2 5 0;
#X connect 6 3 1 1;
#X connect 6 3 21 0;
#X connect 6 3 22 0;
#X connect 6 4 3 1;
#X connect 6 4 23 0;
#X connect 6 4 24 0;
#X connect 6 5 5 1;
#X connect 6 5 25 0;
#X connect 6 5 26 0;
#X connect 7 0 15 0;
#X connect 7 0 16 0;
#X connect 8 0 17 0;
#X connect 8 0 18 0;
#X connect 9 0 19 0;
#X connect 9 0 20 0;
#X connect 10 0 6 0;
#X connect 11 0 6 4;
#X connect 12 0 6 5;
#X connect 13 0 6 6;
#X connect 14 0 6 7;
#X connect 27 0 7 1;
#X connect 28 0 8 1;
#X connect 29 0 9 1;
#X connect 30 0 6 1;
#X connect 31 0 6 2;
#X connect 32 0 6 3;
#X connect 39 0 33 0;
#X connect 39 0 34 0;
#X connect 40 0 35 0;
#X connect 40 0 36 0;
#X connect 41 0 37 0;
#X connect 41 0 38 0;
#X coords 0 -1 1 1 252 52 2 100 150;
