#N canvas 421 287 1272 600 10;
#X obj 225 220 r ctl-42;
#X obj 846 247 r ctl-43;
#X obj 243 86 r ctl-44;
#X obj 90 86 r ctl-45;
#X obj 864 86 r ctl-46;
#X obj 420 86 r ctl-58;
#X obj 645 86 r ctl-59;
#X obj 738 220 r ctl-60;
#X obj 372 220 r ctl-61;
#X obj 555 220 r ctl-62;
#X obj 225 298 s stopbutton;
#X obj 846 279 s rewindbutton;
#X obj 243 142 s fastforwardbutton;
#X obj 90 142 s recordbutton;
#X obj 864 142 s cyclebutton;
#X obj 420 142 s trackbackbutton;
#X obj 645 142 s trackforwardbutton;
#X obj 738 297 s setbutton;
#X obj 372 276 s markerbackbutton;
#X obj 555 278 s markerforwardbutton;
#X obj 420 114 sel 127;
#X obj 645 114 sel 127;
#X obj 420 163 r trackbackbutton;
#X obj 645 163 r trackforwardbutton;
#X obj 555 299 r markerforwardbutton;
#X obj 864 163 r cyclebutton;
#X obj 738 318 r setbutton;
#X obj 555 250 sel 127;
#X obj 864 114 sel 127;
#X obj 738 269 sel 127;
#X obj 372 297 r markerbackbutton;
#X obj 90 220 r ctl-41;
#X obj 90 298 s playbutton;
#X text 815 224 IN USE: NUMB CONTROLLER;
#X obj 243 163 r fastforwardbutton;
#X obj 243 114 sel 127;
#X obj 225 319 r stopbutton;
#X obj 225 270 sel 127;
#X obj 90 319 r playbutton;
#X obj 90 163 r recordbutton;
#X obj 90 114 sel 127;
#X obj 90 270 sel 127;
#X obj 372 248 sel 127;
#X connect 0 0 37 0;
#X connect 1 0 11 0;
#X connect 2 0 35 0;
#X connect 3 0 40 0;
#X connect 4 0 28 0;
#X connect 5 0 20 0;
#X connect 6 0 21 0;
#X connect 7 0 29 0;
#X connect 8 0 42 0;
#X connect 9 0 27 0;
#X connect 20 0 15 0;
#X connect 21 0 16 0;
#X connect 27 0 19 0;
#X connect 28 0 14 0;
#X connect 29 0 17 0;
#X connect 31 0 41 0;
#X connect 35 0 12 0;
#X connect 37 0 10 0;
#X connect 40 0 13 0;
#X connect 41 0 32 0;
#X connect 42 0 18 0;
