#N canvas 764 155 763 580 10;
#X obj 200 250 cnv 15 248 48 empty empty empty 20 12 0 14 -162280 -66577
0;
#X obj 219 253 nbx 2 42 -1e+37 1e+37 0 0 empty empty empty 0 -8 0 25
-262144 -1 -1 0 256;
#X obj 287 253 nbx 3 14 -1e+37 1e+37 0 0 empty empty empty 0 -8 0 10
-262144 -1 -1 1 256;
#X obj 262 228 inlet;
#X obj 222 433 outlet;
#X obj 287 267 nbx 3 14 -1e+37 1e+37 0 0 empty empty empty 0 -8 0 10
-262144 -1 -1 -2 256;
#X obj 341 443 outlet;
#X obj 287 281 nbx 3 14 -1e+37 1e+37 0 0 empty empty empty 0 -8 0 10
-262144 -1 -1 1 256;
#X obj 502 443 outlet;
#X obj 300 229 inlet;
#X obj 339 229 inlet;
#X obj 176 228 inlet;
#X obj 410 253 nbx 3 14 -1e+37 1e+37 0 0 empty empty empty 0 -8 0 10
-262144 -1 -1 1000 256;
#X obj 410 267 nbx 3 14 -1e+37 1e+37 0 0 empty empty empty 0 -8 0 10
-262144 -1 -1 1000 256;
#X obj 410 281 nbx 3 14 -1e+37 1e+37 0 0 empty empty empty 0 -8 0 10
-262144 -1 -1 1000 256;
#X obj 440 229 inlet;
#X obj 479 229 inlet;
#X obj 520 229 inlet;
#X obj 323 259 nbx 4 30 -1e+37 1e+37 0 0 empty empty empty 0 -8 0 20
-262144 -1 -1 1000 256;
#X obj 402 229 inlet;
#X obj 550 267 outlet;
#X obj 601 281 outlet;
#X obj 652 295 outlet;
#X obj 287 112 r fader_or_knob_\$1;
#X obj 287 132 r fader_or_knob_\$2;
#X obj 287 152 r fader_or_knob_\$3;
#X obj 323 172 r fader_or_knob_\$4;
#X obj 219 201 r fader_or_knob_\$5;
#X msg 413 54 0;
#X msg 219 62 0;
#X obj 33 347 outlet;
#X obj 219 32 r reset_function_values;
#X obj 413 25 r reset_function_times;
#X connect 1 0 2 0;
#X connect 1 0 5 0;
#X connect 1 0 7 0;
#X connect 1 0 30 0;
#X connect 2 0 4 0;
#X connect 3 0 2 0;
#X connect 5 0 6 0;
#X connect 7 0 8 0;
#X connect 9 0 5 0;
#X connect 10 0 7 0;
#X connect 11 0 1 0;
#X connect 12 0 20 0;
#X connect 13 0 21 0;
#X connect 14 0 22 0;
#X connect 15 0 12 0;
#X connect 16 0 13 0;
#X connect 17 0 14 0;
#X connect 18 0 12 0;
#X connect 18 0 13 0;
#X connect 18 0 14 0;
#X connect 19 0 18 0;
#X connect 23 0 2 0;
#X connect 24 0 5 0;
#X connect 25 0 7 0;
#X connect 26 0 18 0;
#X connect 27 0 1 0;
#X connect 28 0 12 0;
#X connect 28 0 13 0;
#X connect 28 0 14 0;
#X connect 28 0 18 0;
#X connect 29 0 1 0;
#X connect 29 0 2 0;
#X connect 29 0 5 0;
#X connect 29 0 7 0;
#X connect 31 0 29 0;
#X connect 32 0 28 0;
#X coords 0 -1 1 1 248 48 2 200 250;
