#N canvas 67 367 1179 549 10;
#X obj 343 86 ctlin;
#X floatatom 347 271 5 0 0 0 - - -, f 5;
#X obj 347 313 s;
#X floatatom 408 271 5 0 0 0 - - -, f 5;
#X msg 408 295 symbol ctl-\$1;
#X obj 322 25 loadbang;
#X obj 338 58 s init-loadbang;
#X obj 322 241 Gate;
#X obj 322 222 tgl 15 0 empty empty empty 17 7 0 10 -262144 -1 -1 1
1;
#X obj 370 183 expr ($f2==43 & $f1==127);
#X obj 370 204 sel 1;
#X obj 343 154 t f f;
#X obj 408 144 t f f;
#X text 445 201 rewind button \; toggles controller \;;
#X obj 379 237 s sense-numb;
#X msg 87 378 0;
#X msg 249 378 2;
#X msg 168 378 1;
#X msg 87 436 3;
#X msg 168 436 4;
#X msg 250 436 5;
#X msg 336 405 6;
#X obj 87 349 r rbutton-0;
#X obj 168 349 r rbutton-1;
#X obj 249 349 r rbutton-2;
#X obj 336 376 r rbutton-6;
#X obj 87 407 r rbutton-3;
#X obj 168 407 r rbutton-4;
#X obj 249 407 r rbutton-5;
#X obj 101 478 s trade_2pnl;
#X obj 706 131 bng 15 250 50 0 empty empty empty 17 7 0 10 -262144
-1 -1;
#X obj 706 102 r markerforwardbutton;
#X obj 745 160 bng 15 250 50 0 empty empty empty 17 7 0 10 -262144
-1 -1;
#X obj 745 131 r markerbackbutton;
#X obj 745 235 - 1;
#X obj 706 224 + 1;
#X floatatom 706 253 5 0 0 0 - - -, f 5;
#X obj 706 195 f;
#X obj 745 206 f;
#X obj 706 281 % 3;
#X obj 706 310 s swap_2pnl;
#X obj 112 233 Fader_sfgem 7 23 39 55 71;
#X text 437 58 necessary or remove?;
#X obj 356 115 t f b;
#X obj 533 154 s control_or_comp_receive;
#X msg 533 133 1;
#X obj 112 83 Fader_sfgem 0 16 32 48 64;
#X obj 112 104 Fader_sfgem 1 17 33 49 65;
#X obj 112 126 Fader_sfgem 2 18 34 50 66;
#X obj 112 147 Fader_sfgem 3 19 35 51 67;
#X obj 112 169 Fader_sfgem 4 20 36 52 68;
#X obj 112 190 Fader_sfgem 5 21 37 53 69;
#X obj 112 212 Fader_sfgem 6 22 38 54 70;
#X obj 112 255 controller_side_sfgem;
#X connect 0 0 11 0;
#X connect 0 1 43 0;
#X connect 1 0 2 0;
#X connect 3 0 4 0;
#X connect 4 0 2 1;
#X connect 5 0 8 0;
#X connect 5 0 6 0;
#X connect 7 0 1 0;
#X connect 8 0 7 0;
#X connect 8 0 14 0;
#X connect 9 0 10 0;
#X connect 10 0 8 0;
#X connect 11 0 7 1;
#X connect 11 1 9 0;
#X connect 12 0 3 0;
#X connect 12 1 9 1;
#X connect 15 0 29 0;
#X connect 16 0 29 0;
#X connect 17 0 29 0;
#X connect 18 0 29 0;
#X connect 19 0 29 0;
#X connect 20 0 29 0;
#X connect 21 0 29 0;
#X connect 22 0 15 0;
#X connect 23 0 17 0;
#X connect 24 0 16 0;
#X connect 25 0 21 0;
#X connect 26 0 18 0;
#X connect 27 0 19 0;
#X connect 28 0 20 0;
#X connect 30 0 37 0;
#X connect 31 0 30 0;
#X connect 32 0 38 0;
#X connect 33 0 32 0;
#X connect 34 0 36 0;
#X connect 35 0 36 0;
#X connect 36 0 38 1;
#X connect 36 0 37 1;
#X connect 36 0 39 0;
#X connect 37 0 35 0;
#X connect 38 0 34 0;
#X connect 39 0 40 0;
#X connect 43 0 12 0;
#X connect 43 1 45 0;
#X connect 45 0 44 0;
