#N canvas 1254 199 450 554 10;
#X obj 213 87 inlet;
#X obj 145 321 outlet;
#X obj 213 116 unpack;
#X obj 91 180 cos;
#X obj 201 180 sin;
#X obj 201 209 *;
#X obj 91 209 *;
#X floatatom 246 192 5 0 0 0 - - -, f 5;
#X floatatom 91 238 5 0 0 0 - - -, f 5;
#X floatatom 201 238 5 0 0 0 - - -, f 5;
#X floatatom 137 134 5 0 0 0 - - -, f 5;
#X obj 137 162 t f f;
#X obj 145 292 pack;
#X connect 0 0 2 0;
#X connect 2 0 10 0;
#X connect 2 1 7 0;
#X connect 3 0 6 0;
#X connect 4 0 5 0;
#X connect 5 0 9 0;
#X connect 6 0 8 0;
#X connect 7 0 6 1;
#X connect 7 0 5 1;
#X connect 8 0 12 0;
#X connect 9 0 12 1;
#X connect 10 0 11 0;
#X connect 11 0 3 0;
#X connect 11 1 4 0;
#X connect 12 0 1 0;
