#N canvas 339 97 1236 931 10;
#X obj 121 15 inlet;
#X text 75 15 On/Off;
#X obj 60 402 s rotate0;
#X msg 60 383 0 0 \$1;
#X obj 121 52 tgl 15 0 empty empty empty 17 7 0 10 -262144 -1 -1 0
1;
#X obj 172 83 bng 20 250 50 0 empty empty empty 17 7 0 10 -262144 -1
-1;
#X obj 388 52 tgl 15 0 empty empty empty 17 7 0 10 -262144 -1 -1 0
1;
#X obj 441 83 bng 20 250 50 0 empty empty empty 17 7 0 10 -262144 -1
-1;
#X obj 754 387 pack;
#X floatatom 859 388 5 0 0 0 - - -, f 5;
#X obj 785 389 liner_sfgem;
#X obj 875 366 s disrupt_size_0;
#X obj 875 344 / 100;
#X obj 171 383 s rotate_speed_0;
#X obj 60 272 r rw_onoff;
#X obj 78 293 r rw_time;
#X obj 97 314 r rw_max;
#X obj 115 335 r rw_min;
#X obj 171 314 r rw_reset;
#X obj 152 293 r rw_width;
#X obj 134 272 r rw_center;
#X obj 121 160 s rw_onoff;
#X obj 171 190 s rw_time;
#X obj 192 171 s rw_max;
#X obj 213 152 s rw_min;
#X obj 234 190 s rw_center;
#X obj 255 171 s rw_width;
#X obj 276 152 s rw_reset;
#X msg 60 533 0 0 \$1;
#X obj 60 424 r rw_onoff;
#X obj 80 445 r rw_time;
#X obj 101 466 r rw_max;
#X obj 121 487 r rw_min;
#X obj 183 466 r rw_reset;
#X obj 162 445 r rw_width;
#X obj 142 424 r rw_center;
#X obj 60 552 s rotate1;
#X obj 171 533 s rotate_speed_1;
#X msg 60 683 0 0 \$1;
#X obj 60 574 r rw_onoff;
#X obj 80 595 r rw_time;
#X obj 101 616 r rw_max;
#X obj 121 637 r rw_min;
#X obj 183 616 r rw_reset;
#X obj 162 595 r rw_width;
#X obj 142 574 r rw_center;
#X obj 171 683 s rotate_speed_2;
#X obj 60 702 s rotate2;
#X msg 60 835 0 0 \$1;
#X obj 60 726 r rw_onoff;
#X obj 80 747 r rw_time;
#X obj 101 768 r rw_max;
#X obj 121 789 r rw_min;
#X obj 170 768 r rw_reset;
#X obj 152 747 r rw_width;
#X obj 135 726 r rw_center;
#X msg 60 985 0 0 \$1;
#X obj 60 876 r rw_onoff;
#X obj 80 897 r rw_time;
#X obj 101 918 r rw_max;
#X obj 121 939 r rw_min;
#X obj 170 918 r rw_reset;
#X obj 152 897 r rw_width;
#X obj 134 876 r rw_center;
#X msg 60 1136 0 0 \$1;
#X obj 60 1027 r rw_onoff;
#X obj 80 1048 r rw_time;
#X obj 101 1069 r rw_max;
#X obj 121 1090 r rw_min;
#X obj 183 1069 r rw_reset;
#X obj 162 1048 r rw_width;
#X obj 142 1027 r rw_center;
#X obj 171 835 s rotate_speed_3;
#X obj 60 854 s rotate3;
#X obj 171 985 s rotate_speed_4;
#X obj 60 1005 s rotate4;
#X obj 171 1147 s rotate_speed_5;
#X obj 60 1155 s rotate5;
#X obj 370 274 r rw1_onoff;
#X obj 388 295 r rw1_time;
#X obj 407 316 r rw1_max;
#X obj 425 337 r rw1_min;
#X obj 444 274 r rw1_center;
#X obj 462 295 r rw1_width;
#X obj 481 316 r rw1_reset;
#X obj 447 403 s scope0_phase_offset;
#X obj 370 383 pack;
#X floatatom 409 404 5 0 0 0 - - -, f 5;
#X obj 409 383 liner_sfgem;
#X obj 491 383 f;
#X obj 563 339 tgl 15 0 empty empty empty 17 7 0 10 -262144 -1 -1 0
1;
#X obj 563 365 metro 100;
#X obj 563 281 loadbang;
#X msg 563 310 1;
#X obj 491 364 / 100;
#X obj 388 155 s rw1_onoff;
#X obj 441 189 s rw1_time;
#X obj 462 170 s rw1_max;
#X obj 483 151 s rw1_min;
#X obj 504 189 s rw1_center;
#X obj 525 170 s rw1_width;
#X obj 546 151 s rw1_reset;
#X text 905 103 DIVIDED BY 100;
#X obj 370 424 r rw1_onoff;
#X obj 388 445 r rw1_time;
#X obj 407 466 r rw1_max;
#X obj 425 487 r rw1_min;
#X obj 444 424 r rw1_center;
#X obj 462 445 r rw1_width;
#X obj 481 466 r rw1_reset;
#X obj 370 533 pack;
#X floatatom 409 554 5 0 0 0 - - -, f 5;
#X obj 409 533 liner_sfgem;
#X obj 491 533 f;
#X obj 573 489 tgl 15 0 empty empty empty 17 7 0 10 -262144 -1 -1 0
1;
#X obj 573 515 metro 100;
#X obj 573 431 loadbang;
#X msg 573 460 1;
#X obj 491 514 / 100;
#X obj 370 574 r rw1_onoff;
#X obj 390 595 r rw1_time;
#X obj 411 616 r rw1_max;
#X obj 431 637 r rw1_min;
#X obj 452 574 r rw1_center;
#X obj 472 595 r rw1_width;
#X obj 493 616 r rw1_reset;
#X obj 370 683 pack;
#X floatatom 409 704 5 0 0 0 - - -, f 5;
#X obj 409 683 liner_sfgem;
#X obj 491 683 f;
#X obj 573 639 tgl 15 0 empty empty empty 17 7 0 10 -262144 -1 -1 0
1;
#X obj 573 665 metro 100;
#X obj 573 581 loadbang;
#X msg 573 610 1;
#X obj 491 664 / 100;
#X obj 370 726 r rw1_onoff;
#X obj 390 747 r rw1_time;
#X obj 411 768 r rw1_max;
#X obj 431 789 r rw1_min;
#X obj 452 726 r rw1_center;
#X obj 472 747 r rw1_width;
#X obj 493 768 r rw1_reset;
#X obj 370 835 pack;
#X floatatom 409 856 5 0 0 0 - - -, f 5;
#X obj 409 835 liner_sfgem;
#X obj 491 835 f;
#X obj 569 796 tgl 15 0 empty empty empty 17 7 0 10 -262144 -1 -1 0
1;
#X obj 573 817 metro 100;
#X obj 573 733 loadbang;
#X msg 573 762 1;
#X obj 491 816 / 100;
#X obj 370 876 r rw1_onoff;
#X obj 390 897 r rw1_time;
#X obj 411 918 r rw1_max;
#X obj 431 939 r rw1_min;
#X obj 452 876 r rw1_center;
#X obj 472 897 r rw1_width;
#X obj 493 918 r rw1_reset;
#X obj 370 985 pack;
#X floatatom 409 1006 5 0 0 0 - - -, f 5;
#X obj 409 985 liner_sfgem;
#X obj 491 985 f;
#X obj 573 941 tgl 15 0 empty empty empty 17 7 0 10 -262144 -1 -1 0
1;
#X obj 573 967 metro 100;
#X obj 573 883 loadbang;
#X msg 573 912 1;
#X obj 491 966 / 100;
#X obj 370 1027 r rw1_onoff;
#X obj 390 1048 r rw1_time;
#X obj 411 1069 r rw1_max;
#X obj 431 1090 r rw1_min;
#X obj 452 1027 r rw1_center;
#X obj 472 1048 r rw1_width;
#X obj 493 1069 r rw1_reset;
#X obj 370 1136 pack;
#X floatatom 409 1157 5 0 0 0 - - -, f 5;
#X obj 409 1136 liner_sfgem;
#X obj 491 1136 f;
#X obj 573 1092 tgl 15 0 empty empty empty 17 7 0 10 -262144 -1 -1
0 1;
#X obj 573 1118 metro 100;
#X obj 573 1034 loadbang;
#X msg 573 1063 1;
#X obj 491 1117 / 100;
#X obj 447 553 s scope1_phase_offset;
#X obj 450 705 s scope2_phase_offset;
#X obj 447 855 s scope3_phase_offset;
#X obj 447 1005 s scope4_phase_offset;
#X obj 447 1156 s scope5_phase_offset;
#X obj 717 52 tgl 15 0 empty empty empty 17 7 0 10 -262144 -1 -1 0
1;
#X obj 775 83 bng 20 250 50 0 empty empty empty 17 7 0 10 -262144 -1
-1;
#X obj 60 364 random_walker_sfgem;
#X obj 754 274 r rw2_onoff;
#X obj 772 295 r rw2_time;
#X obj 791 316 r rw2_max;
#X obj 809 337 r rw2_min;
#X obj 828 274 r rw2_center;
#X obj 846 295 r rw2_width;
#X obj 865 316 r rw2_reset;
#X obj 717 157 s rw2_onoff;
#X obj 775 189 s rw2_time;
#X obj 796 170 s rw2_max;
#X obj 817 151 s rw2_min;
#X obj 879 151 s rw2_reset;
#X obj 859 170 s rw2_width;
#X obj 838 189 s rw2_center;
#X obj 754 537 pack;
#X floatatom 859 538 5 0 0 0 - - -, f 5;
#X obj 786 537 liner_sfgem;
#X obj 875 494 / 100;
#X obj 754 424 r rw2_onoff;
#X obj 772 445 r rw2_time;
#X obj 791 466 r rw2_max;
#X obj 809 487 r rw2_min;
#X obj 828 424 r rw2_center;
#X obj 846 445 r rw2_width;
#X obj 865 466 r rw2_reset;
#X obj 875 516 s disrupt_size_1;
#X obj 754 687 pack;
#X floatatom 859 688 5 0 0 0 - - -, f 5;
#X obj 786 687 liner_sfgem;
#X obj 875 644 / 100;
#X obj 754 574 r rw2_onoff;
#X obj 772 595 r rw2_time;
#X obj 791 616 r rw2_max;
#X obj 809 637 r rw2_min;
#X obj 828 574 r rw2_center;
#X obj 846 595 r rw2_width;
#X obj 865 616 r rw2_reset;
#X obj 875 666 s disrupt_size_2;
#X obj 754 839 pack;
#X floatatom 859 840 5 0 0 0 - - -, f 5;
#X obj 786 839 liner_sfgem;
#X obj 875 796 / 100;
#X obj 754 726 r rw2_onoff;
#X obj 772 747 r rw2_time;
#X obj 791 768 r rw2_max;
#X obj 809 789 r rw2_min;
#X obj 828 726 r rw2_center;
#X obj 846 747 r rw2_width;
#X obj 865 768 r rw2_reset;
#X obj 754 989 pack;
#X floatatom 859 990 5 0 0 0 - - -, f 5;
#X obj 786 989 liner_sfgem;
#X obj 875 946 / 100;
#X obj 754 876 r rw2_onoff;
#X obj 772 897 r rw2_time;
#X obj 791 918 r rw2_max;
#X obj 809 939 r rw2_min;
#X obj 828 876 r rw2_center;
#X obj 846 897 r rw2_width;
#X obj 865 918 r rw2_reset;
#X obj 754 1140 pack;
#X floatatom 859 1141 5 0 0 0 - - -, f 5;
#X obj 786 1140 liner_sfgem;
#X obj 875 1097 / 100;
#X obj 754 1027 r rw2_onoff;
#X obj 772 1048 r rw2_time;
#X obj 791 1069 r rw2_max;
#X obj 809 1090 r rw2_min;
#X obj 828 1027 r rw2_center;
#X obj 846 1048 r rw2_width;
#X obj 865 1069 r rw2_reset;
#X obj 875 818 s disrupt_size_3;
#X obj 875 968 s disrupt_size_4;
#X obj 875 1119 s disrupt_size_5;
#X obj 982 65 loadbang;
#X obj 121 34 t f f;
#X msg 171 233 3000;
#X msg 391 233 3000;
#X msg 775 233 3000;
#X obj 849 215 sel 0;
#X obj 928 215 t b f;
#X obj 928 65 del 30;
#X obj 625 298 + 500;
#X obj 619 328 pipe;
#X obj 631 448 + 500;
#X obj 620 475 pipe;
#X obj 637 609 + 500;
#X obj 608 632 pipe;
#X obj 635 755 + 500;
#X obj 614 784 pipe;
#X obj 635 915 + 500;
#X obj 620 937 pipe;
#X obj 635 1066 + 500;
#X obj 620 1088 pipe;
#X obj 775 132 unpack f f f f f f;
#X msg 775 103 1000 110 80 2 2 100;
#X obj 171 133 unpack f f f f f f;
#X msg 171 104 3000 720 0 15 5 0;
#X obj 441 132 unpack f f f f f f;
#X msg 441 103 2000 57 43 1 4 50;
#X obj 754 366 random_walker_sfgem;
#X obj 370 362 random_walker_sfgem;
#X obj 370 512 random_walker_sfgem;
#X obj 370 662 random_walker_sfgem;
#X obj 370 814 random_walker_sfgem;
#X obj 370 964 random_walker_sfgem;
#X obj 370 1115 random_walker_sfgem;
#X obj 754 516 random_walker_sfgem;
#X obj 754 666 random_walker_sfgem;
#X obj 754 818 random_walker_sfgem;
#X obj 754 968 random_walker_sfgem;
#X obj 754 1119 random_walker_sfgem;
#X obj 60 1117 random_walker_sfgem;
#X obj 60 966 random_walker_sfgem;
#X obj 60 816 random_walker_sfgem;
#X obj 60 664 random_walker_sfgem;
#X obj 60 514 random_walker_sfgem;
#X obj 173 34 r disrupt_rotate_onoff;
#X obj 170 11 r disrupt_rotate_values;
#X obj 388 34 r disrupt_scope_onoff;
#X obj 441 11 r disrupt_scope_values;
#X text 204 234 Turn-off speed;
#X obj 15 134 r disrupt_turnoff_speed;
#X obj 35 164 t b f;
#X msg 62 215 set \$1;
#X obj 35 218 bng 15 250 50 0 empty empty empty 17 7 0 10 -262144 -1
-1;
#X obj 775 10 r disrupt_size_values;
#X obj 717 33 r disrupt_size_onoff;
#X connect 0 0 266 0;
#X connect 3 0 2 0;
#X connect 4 0 21 0;
#X connect 5 0 288 0;
#X connect 6 0 95 0;
#X connect 7 0 290 0;
#X connect 8 0 10 0;
#X connect 9 0 12 0;
#X connect 10 0 9 0;
#X connect 12 0 11 0;
#X connect 14 0 190 0;
#X connect 15 0 190 1;
#X connect 16 0 190 2;
#X connect 17 0 190 3;
#X connect 18 0 190 6;
#X connect 19 0 190 5;
#X connect 20 0 190 4;
#X connect 28 0 36 0;
#X connect 29 0 307 0;
#X connect 30 0 307 1;
#X connect 31 0 307 2;
#X connect 32 0 307 3;
#X connect 33 0 307 6;
#X connect 34 0 307 5;
#X connect 35 0 307 4;
#X connect 38 0 47 0;
#X connect 39 0 306 0;
#X connect 40 0 306 1;
#X connect 41 0 306 2;
#X connect 42 0 306 3;
#X connect 43 0 306 6;
#X connect 44 0 306 5;
#X connect 45 0 306 4;
#X connect 48 0 73 0;
#X connect 49 0 305 0;
#X connect 50 0 305 1;
#X connect 51 0 305 2;
#X connect 52 0 305 3;
#X connect 53 0 305 6;
#X connect 54 0 305 5;
#X connect 55 0 305 4;
#X connect 56 0 75 0;
#X connect 57 0 304 0;
#X connect 58 0 304 1;
#X connect 59 0 304 2;
#X connect 60 0 304 3;
#X connect 61 0 304 6;
#X connect 62 0 304 5;
#X connect 63 0 304 4;
#X connect 64 0 77 0;
#X connect 65 0 303 0;
#X connect 66 0 303 1;
#X connect 67 0 303 2;
#X connect 68 0 303 3;
#X connect 69 0 303 6;
#X connect 70 0 303 5;
#X connect 71 0 303 4;
#X connect 78 0 274 0;
#X connect 78 0 292 0;
#X connect 79 0 86 1;
#X connect 79 0 273 0;
#X connect 79 0 292 1;
#X connect 80 0 292 2;
#X connect 81 0 292 3;
#X connect 82 0 292 4;
#X connect 83 0 292 5;
#X connect 84 0 292 6;
#X connect 86 0 88 0;
#X connect 87 0 94 0;
#X connect 88 0 87 0;
#X connect 89 0 85 0;
#X connect 90 0 91 0;
#X connect 91 0 89 0;
#X connect 92 0 93 0;
#X connect 93 0 90 0;
#X connect 94 0 89 1;
#X connect 103 0 276 0;
#X connect 103 0 293 0;
#X connect 104 0 110 1;
#X connect 104 0 275 0;
#X connect 104 0 293 1;
#X connect 105 0 293 2;
#X connect 106 0 293 3;
#X connect 107 0 293 4;
#X connect 108 0 293 5;
#X connect 109 0 293 6;
#X connect 110 0 112 0;
#X connect 111 0 118 0;
#X connect 112 0 111 0;
#X connect 113 0 183 0;
#X connect 114 0 115 0;
#X connect 115 0 113 0;
#X connect 116 0 117 0;
#X connect 117 0 114 0;
#X connect 118 0 113 1;
#X connect 119 0 278 0;
#X connect 119 0 294 0;
#X connect 120 0 126 1;
#X connect 120 0 277 0;
#X connect 120 0 294 1;
#X connect 121 0 294 2;
#X connect 122 0 294 3;
#X connect 123 0 294 4;
#X connect 124 0 294 5;
#X connect 125 0 294 6;
#X connect 126 0 128 0;
#X connect 127 0 134 0;
#X connect 128 0 127 0;
#X connect 129 0 184 0;
#X connect 130 0 131 0;
#X connect 131 0 129 0;
#X connect 132 0 133 0;
#X connect 133 0 130 0;
#X connect 134 0 129 1;
#X connect 135 0 280 0;
#X connect 135 0 295 0;
#X connect 136 0 142 1;
#X connect 136 0 279 0;
#X connect 136 0 295 1;
#X connect 137 0 295 2;
#X connect 138 0 295 3;
#X connect 139 0 295 4;
#X connect 140 0 295 5;
#X connect 141 0 295 6;
#X connect 142 0 144 0;
#X connect 143 0 150 0;
#X connect 144 0 143 0;
#X connect 145 0 185 0;
#X connect 146 0 147 0;
#X connect 147 0 145 0;
#X connect 148 0 149 0;
#X connect 149 0 146 0;
#X connect 150 0 145 1;
#X connect 151 0 282 0;
#X connect 151 0 296 0;
#X connect 152 0 158 1;
#X connect 152 0 281 0;
#X connect 152 0 296 1;
#X connect 153 0 296 2;
#X connect 154 0 296 3;
#X connect 155 0 296 4;
#X connect 156 0 296 5;
#X connect 157 0 296 6;
#X connect 158 0 160 0;
#X connect 159 0 166 0;
#X connect 160 0 159 0;
#X connect 161 0 186 0;
#X connect 162 0 163 0;
#X connect 163 0 161 0;
#X connect 164 0 165 0;
#X connect 165 0 162 0;
#X connect 166 0 161 1;
#X connect 167 0 284 0;
#X connect 167 0 297 0;
#X connect 168 0 174 1;
#X connect 168 0 283 0;
#X connect 168 0 297 1;
#X connect 169 0 297 2;
#X connect 170 0 297 3;
#X connect 171 0 297 4;
#X connect 172 0 297 5;
#X connect 173 0 297 6;
#X connect 174 0 176 0;
#X connect 175 0 182 0;
#X connect 176 0 175 0;
#X connect 177 0 187 0;
#X connect 178 0 179 0;
#X connect 179 0 177 0;
#X connect 180 0 181 0;
#X connect 181 0 178 0;
#X connect 182 0 177 1;
#X connect 188 0 198 0;
#X connect 189 0 286 0;
#X connect 190 0 3 0;
#X connect 190 1 13 0;
#X connect 191 0 291 0;
#X connect 192 0 8 1;
#X connect 192 0 291 1;
#X connect 193 0 291 2;
#X connect 194 0 291 3;
#X connect 195 0 291 4;
#X connect 196 0 291 5;
#X connect 197 0 291 6;
#X connect 205 0 207 0;
#X connect 206 0 208 0;
#X connect 207 0 206 0;
#X connect 208 0 216 0;
#X connect 209 0 298 0;
#X connect 210 0 205 1;
#X connect 210 0 298 1;
#X connect 211 0 298 2;
#X connect 212 0 298 3;
#X connect 213 0 298 4;
#X connect 214 0 298 5;
#X connect 215 0 298 6;
#X connect 217 0 219 0;
#X connect 218 0 220 0;
#X connect 219 0 218 0;
#X connect 220 0 228 0;
#X connect 221 0 299 0;
#X connect 222 0 217 1;
#X connect 222 0 299 1;
#X connect 223 0 299 2;
#X connect 224 0 299 3;
#X connect 225 0 299 4;
#X connect 226 0 299 5;
#X connect 227 0 299 6;
#X connect 229 0 231 0;
#X connect 230 0 232 0;
#X connect 231 0 230 0;
#X connect 232 0 262 0;
#X connect 233 0 300 0;
#X connect 234 0 229 1;
#X connect 234 0 300 1;
#X connect 235 0 300 2;
#X connect 236 0 300 3;
#X connect 237 0 300 4;
#X connect 238 0 300 5;
#X connect 239 0 300 6;
#X connect 240 0 242 0;
#X connect 241 0 243 0;
#X connect 242 0 241 0;
#X connect 243 0 263 0;
#X connect 244 0 301 0;
#X connect 245 0 240 1;
#X connect 245 0 301 1;
#X connect 246 0 301 2;
#X connect 247 0 301 3;
#X connect 248 0 301 4;
#X connect 249 0 301 5;
#X connect 250 0 301 6;
#X connect 251 0 253 0;
#X connect 252 0 254 0;
#X connect 253 0 252 0;
#X connect 254 0 264 0;
#X connect 255 0 302 0;
#X connect 256 0 251 1;
#X connect 256 0 302 1;
#X connect 257 0 302 2;
#X connect 258 0 302 3;
#X connect 259 0 302 4;
#X connect 260 0 302 5;
#X connect 261 0 302 6;
#X connect 265 0 189 0;
#X connect 265 0 7 0;
#X connect 265 0 5 0;
#X connect 266 0 4 0;
#X connect 266 0 6 0;
#X connect 266 0 188 0;
#X connect 266 1 270 0;
#X connect 267 0 13 0;
#X connect 267 0 37 0;
#X connect 267 0 46 0;
#X connect 267 0 72 0;
#X connect 267 0 74 0;
#X connect 267 0 76 0;
#X connect 267 0 22 0;
#X connect 268 0 86 1;
#X connect 268 0 110 1;
#X connect 268 0 126 1;
#X connect 268 0 142 1;
#X connect 268 0 158 1;
#X connect 268 0 174 1;
#X connect 268 0 96 0;
#X connect 269 0 8 1;
#X connect 269 0 205 1;
#X connect 269 0 217 1;
#X connect 269 0 229 1;
#X connect 269 0 240 1;
#X connect 269 0 251 1;
#X connect 269 0 199 0;
#X connect 270 0 267 0;
#X connect 270 0 268 0;
#X connect 270 0 269 0;
#X connect 270 1 271 0;
#X connect 271 0 272 0;
#X connect 271 1 269 0;
#X connect 271 1 268 0;
#X connect 271 1 267 0;
#X connect 272 0 189 0;
#X connect 272 0 7 0;
#X connect 272 0 5 0;
#X connect 273 0 274 1;
#X connect 274 0 90 0;
#X connect 275 0 276 1;
#X connect 276 0 114 0;
#X connect 277 0 278 1;
#X connect 278 0 130 0;
#X connect 279 0 280 1;
#X connect 280 0 146 0;
#X connect 281 0 282 1;
#X connect 282 0 162 0;
#X connect 283 0 284 1;
#X connect 284 0 178 0;
#X connect 285 0 199 0;
#X connect 285 1 200 0;
#X connect 285 2 201 0;
#X connect 285 3 204 0;
#X connect 285 4 203 0;
#X connect 285 5 202 0;
#X connect 286 0 285 0;
#X connect 287 0 22 0;
#X connect 287 1 23 0;
#X connect 287 2 24 0;
#X connect 287 3 25 0;
#X connect 287 4 26 0;
#X connect 287 5 27 0;
#X connect 288 0 287 0;
#X connect 289 0 96 0;
#X connect 289 1 97 0;
#X connect 289 2 98 0;
#X connect 289 3 99 0;
#X connect 289 4 100 0;
#X connect 289 5 101 0;
#X connect 290 0 289 0;
#X connect 291 0 8 0;
#X connect 292 0 86 0;
#X connect 293 0 110 0;
#X connect 294 0 126 0;
#X connect 295 0 142 0;
#X connect 296 0 158 0;
#X connect 297 0 174 0;
#X connect 298 0 205 0;
#X connect 299 0 217 0;
#X connect 300 0 229 0;
#X connect 301 0 240 0;
#X connect 302 0 251 0;
#X connect 303 0 64 0;
#X connect 303 1 76 0;
#X connect 304 0 56 0;
#X connect 304 1 74 0;
#X connect 305 0 48 0;
#X connect 305 1 72 0;
#X connect 306 0 38 0;
#X connect 306 1 46 0;
#X connect 307 0 28 0;
#X connect 307 1 37 0;
#X connect 308 0 4 0;
#X connect 309 0 287 0;
#X connect 310 0 6 0;
#X connect 311 0 289 0;
#X connect 313 0 314 0;
#X connect 314 0 316 0;
#X connect 314 1 315 0;
#X connect 315 0 268 0;
#X connect 315 0 269 0;
#X connect 315 0 267 0;
#X connect 316 0 267 0;
#X connect 316 0 268 0;
#X connect 316 0 269 0;
#X connect 317 0 285 0;
#X connect 318 0 188 0;
