#N canvas 387 194 1236 886 10;
#X obj 539 8 inlet;
#X text 533 -14 On/Off;
#X obj 50 392 s rotate0;
#X msg 50 363 0 0 \$1;
#X obj 41 91 tgl 15 0 empty empty empty 17 7 0 10 -262144 -1 -1 0 1
;
#X msg 200 91 0;
#X obj 59 44 bng 20 250 50 0 empty empty empty 17 7 0 10 -262144 -1
-1;
#X msg 116 91 0;
#X obj 380 75 tgl 15 0 empty empty empty 17 7 0 10 -262144 -1 -1 0
1;
#X obj 398 44 bng 20 250 50 0 empty empty empty 17 7 0 10 -262144 -1
-1;
#X msg 509 124 50;
#X obj 744 357 pack;
#X floatatom 849 358 5 0 0 0 - - -, f 5;
#X obj 775 359 liner_sfgem;
#X obj 865 336 s disrupt_size_0;
#X obj 865 314 / 100;
#X obj 744 336 random_walker_sfgem;
#X msg 59 91 2000;
#X msg 173 91 5;
#X msg 145 91 15;
#X msg 398 75 300;
#X msg 454 94 1;
#X msg 90 91 720;
#X msg 417 104 57;
#X msg 435 75 43;
#X msg 482 102 4;
#X obj 161 363 s rotate_speed_0;
#X obj 50 242 r rw_onoff;
#X obj 68 263 r rw_time;
#X obj 87 284 r rw_max;
#X obj 105 305 r rw_min;
#X obj 161 284 r rw_reset;
#X obj 142 263 r rw_width;
#X obj 124 242 r rw_center;
#X obj 41 183 s rw_onoff;
#X obj 59 162 s rw_time;
#X obj 90 141 s rw_max;
#X obj 116 120 s rw_min;
#X obj 145 173 s rw_center;
#X obj 173 152 s rw_width;
#X obj 200 132 s rw_reset;
#X msg 50 553 0 0 \$1;
#X obj 50 434 r rw_onoff;
#X obj 70 455 r rw_time;
#X obj 91 476 r rw_max;
#X obj 111 497 r rw_min;
#X obj 173 476 r rw_reset;
#X obj 152 455 r rw_width;
#X obj 132 434 r rw_center;
#X obj 50 582 s rotate1;
#X obj 161 553 s rotate_speed_1;
#X msg 50 743 0 0 \$1;
#X obj 50 624 r rw_onoff;
#X obj 70 645 r rw_time;
#X obj 91 666 r rw_max;
#X obj 111 687 r rw_min;
#X obj 173 666 r rw_reset;
#X obj 152 645 r rw_width;
#X obj 132 624 r rw_center;
#X obj 161 743 s rotate_speed_2;
#X obj 50 772 s rotate2;
#X msg 50 943 0 0 \$1;
#X obj 50 824 r rw_onoff;
#X obj 70 845 r rw_time;
#X obj 91 866 r rw_max;
#X obj 111 887 r rw_min;
#X obj 173 866 r rw_reset;
#X obj 152 845 r rw_width;
#X obj 132 824 r rw_center;
#X msg 50 1133 0 0 \$1;
#X obj 50 1014 r rw_onoff;
#X obj 70 1035 r rw_time;
#X obj 91 1056 r rw_max;
#X obj 111 1077 r rw_min;
#X obj 173 1056 r rw_reset;
#X obj 152 1035 r rw_width;
#X obj 132 1014 r rw_center;
#X msg 50 1303 0 0 \$1;
#X obj 50 1184 r rw_onoff;
#X obj 70 1205 r rw_time;
#X obj 91 1226 r rw_max;
#X obj 111 1247 r rw_min;
#X obj 173 1226 r rw_reset;
#X obj 152 1205 r rw_width;
#X obj 132 1184 r rw_center;
#X obj 161 943 s rotate_speed_3;
#X obj 50 972 s rotate3;
#X obj 161 1133 s rotate_speed_4;
#X obj 50 1162 s rotate4;
#X obj 161 1304 s rotate_speed_5;
#X obj 50 1332 s rotate5;
#X obj 360 244 r rw1_onoff;
#X obj 378 265 r rw1_time;
#X obj 397 286 r rw1_max;
#X obj 415 307 r rw1_min;
#X obj 434 244 r rw1_center;
#X obj 452 265 r rw1_width;
#X obj 471 286 r rw1_reset;
#X obj 437 373 s scope0_phase_offset;
#X obj 360 353 pack;
#X floatatom 399 374 5 0 0 0 - - -, f 5;
#X obj 399 353 liner_sfgem;
#X obj 481 353 f;
#X obj 553 309 tgl 15 0 empty empty empty 17 7 0 10 -262144 -1 -1 0
1;
#X obj 553 335 metro 100;
#X obj 553 251 loadbang;
#X msg 553 280 1;
#X obj 481 334 / 100;
#X obj 360 332 random_walker_sfgem;
#X obj 380 193 s rw1_onoff;
#X obj 398 172 s rw1_time;
#X obj 417 151 s rw1_max;
#X obj 435 130 s rw1_min;
#X obj 454 193 s rw1_center;
#X obj 482 172 s rw1_width;
#X obj 509 152 s rw1_reset;
#X text 486 74 DIVIDED BY 100;
#X obj 360 434 r rw1_onoff;
#X obj 380 455 r rw1_time;
#X obj 401 476 r rw1_max;
#X obj 421 497 r rw1_min;
#X obj 442 434 r rw1_center;
#X obj 462 455 r rw1_width;
#X obj 483 476 r rw1_reset;
#X obj 360 543 pack;
#X floatatom 399 564 5 0 0 0 - - -, f 5;
#X obj 399 543 liner_sfgem;
#X obj 481 543 f;
#X obj 563 499 tgl 15 0 empty empty empty 17 7 0 10 -262144 -1 -1 0
1;
#X obj 563 525 metro 100;
#X obj 563 441 loadbang;
#X msg 563 470 1;
#X obj 481 524 / 100;
#X obj 360 522 random_walker_sfgem;
#X obj 360 624 r rw1_onoff;
#X obj 380 645 r rw1_time;
#X obj 401 666 r rw1_max;
#X obj 421 687 r rw1_min;
#X obj 442 624 r rw1_center;
#X obj 462 645 r rw1_width;
#X obj 483 666 r rw1_reset;
#X obj 360 733 pack;
#X floatatom 399 754 5 0 0 0 - - -, f 5;
#X obj 399 733 liner_sfgem;
#X obj 481 733 f;
#X obj 563 689 tgl 15 0 empty empty empty 17 7 0 10 -262144 -1 -1 0
1;
#X obj 563 715 metro 100;
#X obj 563 631 loadbang;
#X msg 563 660 1;
#X obj 481 714 / 100;
#X obj 360 712 random_walker_sfgem;
#X obj 360 824 r rw1_onoff;
#X obj 380 845 r rw1_time;
#X obj 401 866 r rw1_max;
#X obj 421 887 r rw1_min;
#X obj 442 824 r rw1_center;
#X obj 462 845 r rw1_width;
#X obj 483 866 r rw1_reset;
#X obj 360 933 pack;
#X floatatom 399 954 5 0 0 0 - - -, f 5;
#X obj 399 933 liner_sfgem;
#X obj 481 933 f;
#X obj 559 894 tgl 15 0 empty empty empty 17 7 0 10 -262144 -1 -1 0
1;
#X obj 563 915 metro 100;
#X obj 563 831 loadbang;
#X msg 563 860 1;
#X obj 481 914 / 100;
#X obj 360 912 random_walker_sfgem;
#X obj 360 1014 r rw1_onoff;
#X obj 380 1035 r rw1_time;
#X obj 401 1056 r rw1_max;
#X obj 421 1077 r rw1_min;
#X obj 442 1014 r rw1_center;
#X obj 462 1035 r rw1_width;
#X obj 483 1056 r rw1_reset;
#X obj 360 1123 pack;
#X floatatom 399 1144 5 0 0 0 - - -, f 5;
#X obj 399 1123 liner_sfgem;
#X obj 481 1123 f;
#X obj 563 1079 tgl 15 0 empty empty empty 17 7 0 10 -262144 -1 -1
0 1;
#X obj 563 1105 metro 100;
#X obj 563 1021 loadbang;
#X msg 563 1050 1;
#X obj 481 1104 / 100;
#X obj 360 1102 random_walker_sfgem;
#X obj 360 1184 r rw1_onoff;
#X obj 380 1205 r rw1_time;
#X obj 401 1226 r rw1_max;
#X obj 421 1247 r rw1_min;
#X obj 442 1184 r rw1_center;
#X obj 462 1205 r rw1_width;
#X obj 483 1226 r rw1_reset;
#X obj 360 1293 pack;
#X floatatom 399 1314 5 0 0 0 - - -, f 5;
#X obj 399 1293 liner_sfgem;
#X obj 481 1293 f;
#X obj 563 1249 tgl 15 0 empty empty empty 17 7 0 10 -262144 -1 -1
0 1;
#X obj 563 1275 metro 100;
#X obj 563 1191 loadbang;
#X msg 563 1220 1;
#X obj 481 1274 / 100;
#X obj 360 1272 random_walker_sfgem;
#X obj 437 563 s scope1_phase_offset;
#X obj 440 755 s scope2_phase_offset;
#X obj 437 953 s scope3_phase_offset;
#X obj 437 1143 s scope4_phase_offset;
#X obj 437 1313 s scope5_phase_offset;
#X obj 731 91 tgl 15 0 empty empty empty 17 7 0 10 -262144 -1 -1 0
1;
#X obj 749 44 bng 20 250 50 0 empty empty empty 17 7 0 10 -262144 -1
-1;
#X msg 749 91 150;
#X msg 780 91 110;
#X msg 806 91 80;
#X msg 835 91 2;
#X msg 863 91 2;
#X msg 890 91 100;
#X obj 50 334 random_walker_sfgem;
#X obj 744 244 r rw2_onoff;
#X obj 762 265 r rw2_time;
#X obj 781 286 r rw2_max;
#X obj 799 307 r rw2_min;
#X obj 818 244 r rw2_center;
#X obj 836 265 r rw2_width;
#X obj 855 286 r rw2_reset;
#X obj 731 183 s rw2_onoff;
#X obj 749 162 s rw2_time;
#X obj 780 141 s rw2_max;
#X obj 806 120 s rw2_min;
#X obj 890 132 s rw2_reset;
#X obj 863 152 s rw2_width;
#X obj 835 173 s rw2_center;
#X text 797 53 DIVIDED BY 100;
#X obj 744 547 pack;
#X floatatom 849 548 5 0 0 0 - - -, f 5;
#X obj 776 547 liner_sfgem;
#X obj 865 504 / 100;
#X obj 744 526 random_walker_sfgem;
#X obj 744 434 r rw2_onoff;
#X obj 762 455 r rw2_time;
#X obj 781 476 r rw2_max;
#X obj 799 497 r rw2_min;
#X obj 818 434 r rw2_center;
#X obj 836 455 r rw2_width;
#X obj 855 476 r rw2_reset;
#X obj 865 526 s disrupt_size_1;
#X obj 744 737 pack;
#X floatatom 849 738 5 0 0 0 - - -, f 5;
#X obj 776 737 liner_sfgem;
#X obj 865 694 / 100;
#X obj 744 716 random_walker_sfgem;
#X obj 744 624 r rw2_onoff;
#X obj 762 645 r rw2_time;
#X obj 781 666 r rw2_max;
#X obj 799 687 r rw2_min;
#X obj 818 624 r rw2_center;
#X obj 836 645 r rw2_width;
#X obj 855 666 r rw2_reset;
#X obj 865 716 s disrupt_size_2;
#X obj 744 937 pack;
#X floatatom 849 938 5 0 0 0 - - -, f 5;
#X obj 776 937 liner_sfgem;
#X obj 865 894 / 100;
#X obj 744 916 random_walker_sfgem;
#X obj 744 824 r rw2_onoff;
#X obj 762 845 r rw2_time;
#X obj 781 866 r rw2_max;
#X obj 799 887 r rw2_min;
#X obj 818 824 r rw2_center;
#X obj 836 845 r rw2_width;
#X obj 855 866 r rw2_reset;
#X obj 744 1127 pack;
#X floatatom 849 1128 5 0 0 0 - - -, f 5;
#X obj 776 1127 liner_sfgem;
#X obj 865 1084 / 100;
#X obj 744 1106 random_walker_sfgem;
#X obj 744 1014 r rw2_onoff;
#X obj 762 1035 r rw2_time;
#X obj 781 1056 r rw2_max;
#X obj 799 1077 r rw2_min;
#X obj 818 1014 r rw2_center;
#X obj 836 1035 r rw2_width;
#X obj 855 1056 r rw2_reset;
#X obj 744 1297 pack;
#X floatatom 849 1298 5 0 0 0 - - -, f 5;
#X obj 776 1297 liner_sfgem;
#X obj 865 1254 / 100;
#X obj 744 1276 random_walker_sfgem;
#X obj 744 1184 r rw2_onoff;
#X obj 762 1205 r rw2_time;
#X obj 781 1226 r rw2_max;
#X obj 799 1247 r rw2_min;
#X obj 818 1184 r rw2_center;
#X obj 836 1205 r rw2_width;
#X obj 855 1226 r rw2_reset;
#X obj 865 916 s disrupt_size_3;
#X obj 865 1106 s disrupt_size_4;
#X obj 865 1276 s disrupt_size_5;
#X obj 50 1274 random_walker_sfgem;
#X obj 50 1104 random_walker_sfgem;
#X obj 50 914 random_walker_sfgem;
#X obj 50 714 random_walker_sfgem;
#X obj 50 524 random_walker_sfgem;
#X obj 895 -4 loadbang;
#X obj 365 3 t f f;
#X msg 161 217 3000;
#X msg 381 219 3000;
#X msg 765 214 3000;
#X obj 290 60 sel 0;
#X obj 624 200 t b f;
#X obj 636 48 del 30;
#X obj 615 268 + 500;
#X obj 609 298 pipe;
#X obj 621 458 + 500;
#X obj 610 485 pipe;
#X obj 627 659 + 500;
#X obj 598 682 pipe;
#X obj 625 853 + 500;
#X obj 604 882 pipe;
#X obj 625 1053 + 500;
#X obj 610 1075 pipe;
#X obj 625 1223 + 500;
#X obj 610 1245 pipe;
#X connect 0 0 302 0;
#X connect 3 0 2 0;
#X connect 4 0 34 0;
#X connect 5 0 40 0;
#X connect 6 0 17 0;
#X connect 6 0 7 0;
#X connect 6 0 19 0;
#X connect 6 0 18 0;
#X connect 6 0 5 0;
#X connect 6 0 22 0;
#X connect 7 0 37 0;
#X connect 8 0 109 0;
#X connect 9 0 20 0;
#X connect 9 0 24 0;
#X connect 9 0 21 0;
#X connect 9 0 25 0;
#X connect 9 0 10 0;
#X connect 9 0 23 0;
#X connect 10 0 115 0;
#X connect 11 0 13 0;
#X connect 12 0 15 0;
#X connect 13 0 12 0;
#X connect 15 0 14 0;
#X connect 16 0 11 0;
#X connect 17 0 35 0;
#X connect 18 0 39 0;
#X connect 19 0 38 0;
#X connect 20 0 110 0;
#X connect 21 0 113 0;
#X connect 22 0 36 0;
#X connect 23 0 111 0;
#X connect 24 0 112 0;
#X connect 25 0 114 0;
#X connect 27 0 215 0;
#X connect 28 0 215 1;
#X connect 29 0 215 2;
#X connect 30 0 215 3;
#X connect 31 0 215 6;
#X connect 32 0 215 5;
#X connect 33 0 215 4;
#X connect 41 0 49 0;
#X connect 42 0 300 0;
#X connect 43 0 300 1;
#X connect 44 0 300 2;
#X connect 45 0 300 3;
#X connect 46 0 300 6;
#X connect 47 0 300 5;
#X connect 48 0 300 4;
#X connect 51 0 60 0;
#X connect 52 0 299 0;
#X connect 53 0 299 1;
#X connect 54 0 299 2;
#X connect 55 0 299 3;
#X connect 56 0 299 6;
#X connect 57 0 299 5;
#X connect 58 0 299 4;
#X connect 61 0 86 0;
#X connect 62 0 298 0;
#X connect 63 0 298 1;
#X connect 64 0 298 2;
#X connect 65 0 298 3;
#X connect 66 0 298 6;
#X connect 67 0 298 5;
#X connect 68 0 298 4;
#X connect 69 0 88 0;
#X connect 70 0 297 0;
#X connect 71 0 297 1;
#X connect 72 0 297 2;
#X connect 73 0 297 3;
#X connect 74 0 297 6;
#X connect 75 0 297 5;
#X connect 76 0 297 4;
#X connect 77 0 90 0;
#X connect 78 0 296 0;
#X connect 79 0 296 1;
#X connect 80 0 296 2;
#X connect 81 0 296 3;
#X connect 82 0 296 6;
#X connect 83 0 296 5;
#X connect 84 0 296 4;
#X connect 91 0 108 0;
#X connect 91 0 310 0;
#X connect 92 0 108 1;
#X connect 92 0 99 1;
#X connect 92 0 309 0;
#X connect 93 0 108 2;
#X connect 94 0 108 3;
#X connect 95 0 108 4;
#X connect 96 0 108 5;
#X connect 97 0 108 6;
#X connect 99 0 101 0;
#X connect 100 0 107 0;
#X connect 101 0 100 0;
#X connect 102 0 98 0;
#X connect 103 0 104 0;
#X connect 104 0 102 0;
#X connect 105 0 106 0;
#X connect 106 0 103 0;
#X connect 107 0 102 1;
#X connect 108 0 99 0;
#X connect 117 0 133 0;
#X connect 117 0 312 0;
#X connect 118 0 133 1;
#X connect 118 0 124 1;
#X connect 118 0 311 0;
#X connect 119 0 133 2;
#X connect 120 0 133 3;
#X connect 121 0 133 4;
#X connect 122 0 133 5;
#X connect 123 0 133 6;
#X connect 124 0 126 0;
#X connect 125 0 132 0;
#X connect 126 0 125 0;
#X connect 127 0 202 0;
#X connect 128 0 129 0;
#X connect 129 0 127 0;
#X connect 130 0 131 0;
#X connect 131 0 128 0;
#X connect 132 0 127 1;
#X connect 133 0 124 0;
#X connect 134 0 150 0;
#X connect 134 0 314 0;
#X connect 135 0 150 1;
#X connect 135 0 141 1;
#X connect 135 0 313 0;
#X connect 136 0 150 2;
#X connect 137 0 150 3;
#X connect 138 0 150 4;
#X connect 139 0 150 5;
#X connect 140 0 150 6;
#X connect 141 0 143 0;
#X connect 142 0 149 0;
#X connect 143 0 142 0;
#X connect 144 0 203 0;
#X connect 145 0 146 0;
#X connect 146 0 144 0;
#X connect 147 0 148 0;
#X connect 148 0 145 0;
#X connect 149 0 144 1;
#X connect 150 0 141 0;
#X connect 151 0 167 0;
#X connect 151 0 316 0;
#X connect 152 0 167 1;
#X connect 152 0 158 1;
#X connect 152 0 315 0;
#X connect 153 0 167 2;
#X connect 154 0 167 3;
#X connect 155 0 167 4;
#X connect 156 0 167 5;
#X connect 157 0 167 6;
#X connect 158 0 160 0;
#X connect 159 0 166 0;
#X connect 160 0 159 0;
#X connect 161 0 204 0;
#X connect 162 0 163 0;
#X connect 163 0 161 0;
#X connect 164 0 165 0;
#X connect 165 0 162 0;
#X connect 166 0 161 1;
#X connect 167 0 158 0;
#X connect 168 0 184 0;
#X connect 168 0 318 0;
#X connect 169 0 184 1;
#X connect 169 0 175 1;
#X connect 169 0 317 0;
#X connect 170 0 184 2;
#X connect 171 0 184 3;
#X connect 172 0 184 4;
#X connect 173 0 184 5;
#X connect 174 0 184 6;
#X connect 175 0 177 0;
#X connect 176 0 183 0;
#X connect 177 0 176 0;
#X connect 178 0 205 0;
#X connect 179 0 180 0;
#X connect 180 0 178 0;
#X connect 181 0 182 0;
#X connect 182 0 179 0;
#X connect 183 0 178 1;
#X connect 184 0 175 0;
#X connect 185 0 201 0;
#X connect 185 0 320 0;
#X connect 186 0 201 1;
#X connect 186 0 192 1;
#X connect 186 0 319 0;
#X connect 187 0 201 2;
#X connect 188 0 201 3;
#X connect 189 0 201 4;
#X connect 190 0 201 5;
#X connect 191 0 201 6;
#X connect 192 0 194 0;
#X connect 193 0 200 0;
#X connect 194 0 193 0;
#X connect 195 0 206 0;
#X connect 196 0 197 0;
#X connect 197 0 195 0;
#X connect 198 0 199 0;
#X connect 199 0 196 0;
#X connect 200 0 195 1;
#X connect 201 0 192 0;
#X connect 207 0 223 0;
#X connect 208 0 209 0;
#X connect 208 0 211 0;
#X connect 208 0 212 0;
#X connect 208 0 213 0;
#X connect 208 0 214 0;
#X connect 208 0 210 0;
#X connect 209 0 224 0;
#X connect 210 0 225 0;
#X connect 211 0 226 0;
#X connect 212 0 229 0;
#X connect 213 0 228 0;
#X connect 214 0 227 0;
#X connect 215 0 3 0;
#X connect 215 1 26 0;
#X connect 216 0 16 0;
#X connect 217 0 16 1;
#X connect 217 0 11 1;
#X connect 218 0 16 2;
#X connect 219 0 16 3;
#X connect 220 0 16 4;
#X connect 221 0 16 5;
#X connect 222 0 16 6;
#X connect 231 0 233 0;
#X connect 232 0 234 0;
#X connect 233 0 232 0;
#X connect 234 0 243 0;
#X connect 235 0 231 0;
#X connect 236 0 235 0;
#X connect 237 0 235 1;
#X connect 237 0 231 1;
#X connect 238 0 235 2;
#X connect 239 0 235 3;
#X connect 240 0 235 4;
#X connect 241 0 235 5;
#X connect 242 0 235 6;
#X connect 244 0 246 0;
#X connect 245 0 247 0;
#X connect 246 0 245 0;
#X connect 247 0 256 0;
#X connect 248 0 244 0;
#X connect 249 0 248 0;
#X connect 250 0 248 1;
#X connect 250 0 244 1;
#X connect 251 0 248 2;
#X connect 252 0 248 3;
#X connect 253 0 248 4;
#X connect 254 0 248 5;
#X connect 255 0 248 6;
#X connect 257 0 259 0;
#X connect 258 0 260 0;
#X connect 259 0 258 0;
#X connect 260 0 293 0;
#X connect 261 0 257 0;
#X connect 262 0 261 0;
#X connect 263 0 261 1;
#X connect 263 0 257 1;
#X connect 264 0 261 2;
#X connect 265 0 261 3;
#X connect 266 0 261 4;
#X connect 267 0 261 5;
#X connect 268 0 261 6;
#X connect 269 0 271 0;
#X connect 270 0 272 0;
#X connect 271 0 270 0;
#X connect 272 0 294 0;
#X connect 273 0 269 0;
#X connect 274 0 273 0;
#X connect 275 0 273 1;
#X connect 275 0 269 1;
#X connect 276 0 273 2;
#X connect 277 0 273 3;
#X connect 278 0 273 4;
#X connect 279 0 273 5;
#X connect 280 0 273 6;
#X connect 281 0 283 0;
#X connect 282 0 284 0;
#X connect 283 0 282 0;
#X connect 284 0 295 0;
#X connect 285 0 281 0;
#X connect 286 0 285 0;
#X connect 287 0 285 1;
#X connect 287 0 281 1;
#X connect 288 0 285 2;
#X connect 289 0 285 3;
#X connect 290 0 285 4;
#X connect 291 0 285 5;
#X connect 292 0 285 6;
#X connect 296 0 77 0;
#X connect 296 1 89 0;
#X connect 297 0 69 0;
#X connect 297 1 87 0;
#X connect 298 0 61 0;
#X connect 298 1 85 0;
#X connect 299 0 51 0;
#X connect 299 1 59 0;
#X connect 300 0 41 0;
#X connect 300 1 50 0;
#X connect 301 0 208 0;
#X connect 301 0 9 0;
#X connect 301 0 6 0;
#X connect 302 0 4 0;
#X connect 302 0 8 0;
#X connect 302 0 207 0;
#X connect 302 1 306 0;
#X connect 303 0 26 0;
#X connect 303 0 50 0;
#X connect 303 0 59 0;
#X connect 303 0 85 0;
#X connect 303 0 87 0;
#X connect 303 0 89 0;
#X connect 303 0 35 0;
#X connect 304 0 99 1;
#X connect 304 0 124 1;
#X connect 304 0 141 1;
#X connect 304 0 158 1;
#X connect 304 0 175 1;
#X connect 304 0 192 1;
#X connect 304 0 110 0;
#X connect 305 0 11 1;
#X connect 305 0 231 1;
#X connect 305 0 244 1;
#X connect 305 0 257 1;
#X connect 305 0 269 1;
#X connect 305 0 281 1;
#X connect 305 0 224 0;
#X connect 306 0 303 0;
#X connect 306 0 304 0;
#X connect 306 0 305 0;
#X connect 306 1 307 0;
#X connect 307 0 308 0;
#X connect 307 1 305 0;
#X connect 307 1 304 0;
#X connect 307 1 303 0;
#X connect 308 0 208 0;
#X connect 308 0 9 0;
#X connect 308 0 6 0;
#X connect 309 0 310 1;
#X connect 310 0 103 0;
#X connect 311 0 312 1;
#X connect 312 0 128 0;
#X connect 313 0 314 1;
#X connect 314 0 145 0;
#X connect 315 0 316 1;
#X connect 316 0 162 0;
#X connect 317 0 318 1;
#X connect 318 0 179 0;
#X connect 319 0 320 1;
#X connect 320 0 196 0;
