#N canvas 0 87 1865 993 10;
#X obj 343 196 statfeed;
#X obj 215 57 metro;
#X floatatom 489 40 5 0 0 0 - - -, f 5;
#X text 484 13 tempo;
#X floatatom 360 167 5 0 0 0 - - -, f 5;
#X text 364 148 elems;
#X obj 113 330 tabread functions;
#X obj 155 307 table functions;
#X floatatom 113 393 5 0 0 0 - - -, f 5;
#X obj 425 886 s generic_bypass_immediate;
#X obj 425 857 pack f f f f f f f f s;
#X obj 489 144 *;
#X floatatom 568 127 5 0 0 0 - - -, f 5;
#X text 607 127 0 to 1 (staccato legato);
#X obj 425 831 unpack f f f f f f f f s;
#X text 916 836 all 3;
#X text 915 883 2;
#X text 914 924 1 & 3;
#X text 914 860 1;
#X text 915 905 3;
#X msg 781 639 666;
#X obj 781 668 spigot;
#X obj 848 668 spigot;
#X obj 817 425 sel 0 1;
#X msg 814 453 1 0;
#X msg 843 453 0 1;
#X obj 814 489 unpack;
#X obj 848 647 value;
#X obj 875 574 symbol;
#X msg 875 595 \$1_hardcoded;
#X obj 875 616 symbol;
#X obj 124 153 value epsilon;
#X obj 725 42 sel 0 1;
#X msg 722 70 1 0;
#X msg 751 70 0 1;
#X msg 721 10 0;
#X msg 755 11 1;
#X obj 124 117 spigot;
#X obj 215 106 spigot;
#X obj 157 88 unpack;
#X obj 215 153 / 999;
#X obj 215 130 random 1000;
#X floatatom 409 166 5 0 0 0 - - -, f 5;
#X text 412 148 exp;
#X obj 343 225 +;
#X floatatom 535 208 5 0 0 0 - - -, f 5;
#X text 574 211 table offset;
#X obj 343 254 %;
#X floatatom 527 237 5 0 0 0 - - -, f 5;
#X text 572 235 selective modulo;
#X text 374 283 necessary modulo;
#X obj 343 283 %;
#X obj 1222 77 vradio 13 1 0 11 empty empty empty 0 -8 0 10 -262144
-1 -1 0;
#X text 1149 75 RESET ALL \; X_ADD \; Y_ADD \; X&Y ADD \; POL_ADD \;
SPIN \; ORBIT \; REVERSE \; RESET RAND \; SPIN & POL \; ORBIT & X&Y
;
#X obj 1235 77 vradio 13 1 0 11 empty empty empty 0 -8 0 10 -262144
-1 -1 1;
#X obj 1248 77 vradio 13 1 0 11 empty empty empty 0 -8 0 10 -262144
-1 -1 2;
#X obj 1261 77 vradio 13 1 0 11 empty empty empty 0 -8 0 10 -262144
-1 -1 3;
#X obj 1274 77 vradio 13 1 0 11 empty empty empty 0 -8 0 10 -262144
-1 -1 4;
#X obj 1287 77 vradio 13 1 0 11 empty empty empty 0 -8 0 10 -262144
-1 -1 5;
#X obj 1300 77 vradio 13 1 0 11 empty empty empty 0 -8 0 10 -262144
-1 -1 6;
#X obj 1313 77 vradio 13 1 0 11 empty empty empty 0 -8 0 10 -262144
-1 -1 7;
#X text 1223 220 0;
#X text 1236 220 1;
#X text 1249 220 2;
#X text 1262 220 3;
#X text 1275 220 4;
#X text 1288 220 5;
#X text 1301 220 6;
#X text 1314 220 7;
#X msg 1222 390 \$1 0;
#X obj 1222 417 unpack;
#X obj 1184 48 unpack f f f f f f f f;
#X msg 1184 26 0 1 2 3 4 5 6 7;
#X text 1182 -28 PRESETS...;
#X msg 1235 369 \$1 1;
#X msg 1248 349 \$1 2;
#X msg 1261 328 \$1 3;
#X msg 1274 307 \$1 4;
#X msg 1287 286 \$1 5;
#X msg 1300 266 \$1 6;
#X msg 1313 245 \$1 7;
#X obj 113 420 sel 0 1 2 3 4 5 6 7 8 9 10;
#X obj 1337 77 hradio 13 1 0 6 empty empty empty 0 -8 0 10 -262144
-1 -1 2;
#X obj 1463 77 nbx 5 13 -1e+37 1e+37 0 0 empty empty empty 0 -8 0 10
-262144 -1 -1 0 256;
#X obj 1546 90 value reset_hardcoded;
#X obj 1337 567 tabwrite circle_arrangement;
#X obj 1337 528 unpack;
#X text 1338 60 A;
#X text 1351 60 0;
#X text 1365 60 1;
#X text 1378 60 2;
#X text 1427 60 R;
#X text 1440 60 H;
#X text 1462 59 H Value;
#X obj 1337 90 hradio 13 1 0 6 empty empty empty 0 -8 0 10 -262144
-1 -1 3;
#X obj 1463 90 nbx 5 13 -1e+37 1e+37 0 0 empty empty empty 0 -8 0 10
-262144 -1 -1 0 256;
#X obj 1337 103 hradio 13 1 0 6 empty empty empty 0 -8 0 10 -262144
-1 -1 0;
#X obj 1463 103 nbx 5 13 -1e+37 1e+37 0 0 empty empty empty 0 -8 0
10 -262144 -1 -1 0 256;
#X obj 1337 116 hradio 13 1 0 6 empty empty empty 0 -8 0 10 -262144
-1 -1 4;
#X obj 1463 116 nbx 5 13 -1e+37 1e+37 0 0 empty empty empty 0 -8 0
10 -262144 -1 -1 0 256;
#X obj 1337 129 hradio 13 1 0 6 empty empty empty 0 -8 0 10 -262144
-1 -1 5;
#X obj 1463 129 nbx 5 13 -1e+37 1e+37 0 0 empty empty empty 0 -8 0
10 -262144 -1 -1 46 256;
#X obj 1337 142 hradio 13 1 0 6 empty empty empty 0 -8 0 10 -262144
-1 -1 1;
#X obj 1463 142 nbx 5 13 -1e+37 1e+37 0 0 empty empty empty 0 -8 0
10 -262144 -1 -1 0 256;
#X obj 1337 155 hradio 13 1 0 6 empty empty empty 0 -8 0 10 -262144
-1 -1 2;
#X obj 1463 155 nbx 5 13 -1e+37 1e+37 0 0 empty empty empty 0 -8 0
10 -262144 -1 -1 0 256;
#X obj 1337 168 hradio 13 1 0 6 empty empty empty 0 -8 0 10 -262144
-1 -1 4;
#X obj 1463 168 nbx 5 13 -1e+37 1e+37 0 0 empty empty empty 0 -8 0
10 -262144 -1 -1 0 256;
#X obj 1337 181 hradio 13 1 0 6 empty empty empty 0 -8 0 10 -262144
-1 -1 1;
#X obj 1463 181 nbx 5 13 -1e+37 1e+37 0 0 empty empty empty 0 -8 0
10 -262144 -1 -1 0 256;
#X obj 1337 194 hradio 13 1 0 6 empty empty empty 0 -8 0 10 -262144
-1 -1 3;
#X obj 1463 194 nbx 5 13 -1e+37 1e+37 0 0 empty empty empty 0 -8 0
10 -262144 -1 -1 0 256;
#X obj 1337 207 hradio 13 1 0 6 empty empty empty 0 -8 0 10 -262144
-1 -1 5;
#X obj 1463 207 nbx 5 13 -1e+37 1e+37 0 0 empty empty empty 0 -8 0
10 -262144 -1 -1 0 256;
#X msg 1337 499 \$1 0;
#X msg 1337 479 \$1 1;
#X msg 1337 459 \$1 2;
#X msg 1337 439 \$1 3;
#X msg 1337 419 \$1 4;
#X msg 1337 399 \$1 5;
#X msg 1337 379 \$1 6;
#X msg 1337 359 \$1 7;
#X msg 1337 339 \$1 8;
#X msg 1337 319 \$1 9;
#X msg 1337 299 \$1 10;
#X text 1391 60 &;
#X text 1403 60 R;
#X msg 707 835 \$2 999 999 999 999 999 999 999 \$1;
#X msg 707 857 999 \$2 999 999 999 999 999 999 \$1;
#X msg 706 880 999 999 \$2 999 999 999 999 999 \$1;
#X msg 706 903 999 999 999 \$2 999 999 999 999 \$1;
#X msg 706 925 999 \$2 999 \$2 999 999 999 999 \$1;
#X obj 1426 77 hradio 13 1 0 2 empty empty empty 0 -8 0 10 -262144
-1 -1 0;
#X obj 1426 488 unpack;
#X obj 1426 90 hradio 13 1 0 2 empty empty empty 0 -8 0 10 -262144
-1 -1 1;
#X obj 1426 103 hradio 13 1 0 2 empty empty empty 0 -8 0 10 -262144
-1 -1 0;
#X obj 1426 116 hradio 13 1 0 2 empty empty empty 0 -8 0 10 -262144
-1 -1 0;
#X obj 1426 129 hradio 13 1 0 2 empty empty empty 0 -8 0 10 -262144
-1 -1 1;
#X obj 1426 142 hradio 13 1 0 2 empty empty empty 0 -8 0 10 -262144
-1 -1 1;
#X obj 1426 155 hradio 13 1 0 2 empty empty empty 0 -8 0 10 -262144
-1 -1 0;
#X obj 1426 168 hradio 13 1 0 2 empty empty empty 0 -8 0 10 -262144
-1 -1 0;
#X obj 1426 181 hradio 13 1 0 2 empty empty empty 0 -8 0 10 -262144
-1 -1 1;
#X obj 1426 194 hradio 13 1 0 2 empty empty empty 0 -8 0 10 -262144
-1 -1 0;
#X obj 1426 207 hradio 13 1 0 2 empty empty empty 0 -8 0 10 -262144
-1 -1 1;
#X msg 1426 459 \$1 0;
#X msg 1426 439 \$1 1;
#X msg 1426 419 \$1 2;
#X msg 1426 399 \$1 3;
#X msg 1426 379 \$1 4;
#X msg 1426 359 \$1 5;
#X msg 1426 339 \$1 6;
#X msg 1426 319 \$1 7;
#X msg 1426 299 \$1 8;
#X msg 1426 279 \$1 9;
#X msg 1426 259 \$1 10;
#X obj 1426 527 tabwrite rand-hard;
#X obj 1546 108 value x_add_hardcoded;
#X obj 1546 126 value y_add_hardcoded;
#X obj 1546 144 value xandy_hardcoded;
#X obj 1546 162 value pol_add_hardcoded;
#X obj 1546 180 value spin_hardcoded;
#X obj 1546 198 value orbit_hardcoded;
#X obj 1546 216 value reverse_hardcoded;
#X obj 1546 234 value reset_rand_hardcoded;
#X obj 1546 252 value spinandpol_hardcoded;
#X obj 1546 270 value orbitandxandy_hardcoded;
#X obj 1034 95 nbx 4 25 -1e+37 1e+37 0 0 empty empty empty 0 -8 0 20
-262144 -1 -1 500 256;
#X obj 963 95 tgl 25 0 empty empty empty 17 7 0 10 -262144 -1 -1 0
1;
#X obj 963 226 hradio 25 1 0 2 empty empty empty 0 -8 0 10 -262144
-1 -1 1;
#X obj 1034 226 nbx 4 25 -1e+37 1e+37 0 0 empty empty empty 0 -8 0
20 -262144 -1 -1 0 256;
#X text 1049 207 EPSILON;
#X obj 963 175 nbx 2 25 -1e+37 1e+37 0 0 empty empty empty 0 -8 0 20
-262144 -1 -1 8 256;
#X obj 1034 175 nbx 2 25 -1e+37 1e+37 0 0 empty empty empty 0 -8 0
20 -262144 -1 -1 1 256;
#X text 966 158 ELEMS;
#X text 1037 158 EXP;
#X text 954 207 RAND/SINGLE;
#X text 957 78 ON/OFF;
#X text 1031 75 TEMPO;
#X obj 1034 262 value epsilon;
#X obj 963 298 nbx 2 25 -1e+37 1e+37 0 0 empty empty empty 0 -8 0 20
-262144 -1 -1 0 256;
#X obj 1034 298 nbx 2 25 -1e+37 1e+37 0 0 empty empty empty 0 -8 0
20 -262144 -1 -1 8 256;
#X text 966 280 OFFSET;
#X text 1035 280 MODULO;
#X obj 967 140 hsl 128 15 0 1 0 0 empty empty empty -2 -8 0 10 -262144
-1 -1 12700 1;
#X text 994 123 TEMPO SCALE;
#X msg 113 771 reset;
#X msg 126 742 x_add;
#X msg 140 713 y_add;
#X msg 154 684 xandy;
#X msg 168 655 pol_add;
#X msg 182 626 spin;
#X msg 196 597 orbit;
#X msg 210 568 reverse;
#X msg 224 539 reset_rand;
#X msg 238 510 spinandpol;
#X msg 252 481 orbitandxandy;
#X obj 645 377 tabread circle_arrangement;
#X obj 630 715 route 0 1 2 3 4 5;
#X obj 630 406 f;
#X obj 630 686 pack f s f;
#X obj 658 406 r function_name;
#X obj 193 827 s function_name;
#X obj 193 798 symbol;
#X obj 817 377 tabread rand-hard;
#X obj 96 359 t b f f f;
#X obj 817 754 print;
#X obj 229 226 bng 15 250 50 0 empty empty empty 17 7 0 10 -262144
-1 -1;
#X obj 1513 568 table circle_arrangement;
#X obj 1547 529 table rand-hard;
#X floatatom 260 254 5 0 0 0 - - -, f 5;
#X floatatom 372 320 5 0 0 0 - - -, f 5;
#X obj 1222 457 tabwrite functions;
#X obj 658 443 t a b a;
#X connect 0 0 44 0;
#X connect 0 0 206 0;
#X connect 0 0 209 0;
#X connect 1 0 37 0;
#X connect 1 0 38 0;
#X connect 2 0 1 1;
#X connect 2 0 11 0;
#X connect 4 0 0 1;
#X connect 4 0 51 1;
#X connect 6 0 204 0;
#X connect 8 0 81 0;
#X connect 10 0 9 0;
#X connect 11 0 10 4;
#X connect 12 0 11 1;
#X connect 14 0 10 0;
#X connect 14 1 10 1;
#X connect 14 2 10 2;
#X connect 14 3 10 3;
#X connect 14 5 10 5;
#X connect 14 6 10 6;
#X connect 14 7 10 7;
#X connect 14 8 10 8;
#X connect 20 0 21 0;
#X connect 21 0 199 2;
#X connect 22 0 199 2;
#X connect 23 0 24 0;
#X connect 23 1 25 0;
#X connect 24 0 26 0;
#X connect 25 0 26 0;
#X connect 26 0 21 1;
#X connect 26 1 22 1;
#X connect 27 0 22 0;
#X connect 28 0 29 0;
#X connect 29 0 30 0;
#X connect 30 0 27 1;
#X connect 31 0 0 0;
#X connect 32 0 33 0;
#X connect 32 1 34 0;
#X connect 33 0 39 0;
#X connect 34 0 39 0;
#X connect 35 0 32 0;
#X connect 36 0 32 0;
#X connect 37 0 31 0;
#X connect 38 0 41 0;
#X connect 39 0 37 1;
#X connect 39 1 38 1;
#X connect 40 0 0 0;
#X connect 41 0 40 0;
#X connect 42 0 0 2;
#X connect 44 0 47 0;
#X connect 45 0 44 1;
#X connect 47 0 51 0;
#X connect 48 0 47 1;
#X connect 51 0 6 0;
#X connect 51 0 210 0;
#X connect 52 0 69 0;
#X connect 54 0 74 0;
#X connect 55 0 75 0;
#X connect 56 0 76 0;
#X connect 57 0 77 0;
#X connect 58 0 78 0;
#X connect 59 0 79 0;
#X connect 60 0 80 0;
#X connect 69 0 70 0;
#X connect 70 0 211 0;
#X connect 70 1 211 1;
#X connect 71 0 52 0;
#X connect 71 1 54 0;
#X connect 71 2 55 0;
#X connect 71 3 56 0;
#X connect 71 4 57 0;
#X connect 71 5 58 0;
#X connect 71 6 59 0;
#X connect 71 7 60 0;
#X connect 72 0 71 0;
#X connect 74 0 70 0;
#X connect 75 0 70 0;
#X connect 76 0 70 0;
#X connect 77 0 70 0;
#X connect 78 0 70 0;
#X connect 79 0 70 0;
#X connect 80 0 70 0;
#X connect 81 0 185 0;
#X connect 81 1 186 0;
#X connect 81 2 187 0;
#X connect 81 3 188 0;
#X connect 81 4 189 0;
#X connect 81 5 190 0;
#X connect 81 6 191 0;
#X connect 81 7 192 0;
#X connect 81 8 193 0;
#X connect 81 9 194 0;
#X connect 81 10 195 0;
#X connect 82 0 114 0;
#X connect 83 0 84 0;
#X connect 86 0 85 0;
#X connect 86 1 85 1;
#X connect 94 0 115 0;
#X connect 95 0 156 0;
#X connect 96 0 116 0;
#X connect 97 0 157 0;
#X connect 98 0 117 0;
#X connect 99 0 158 0;
#X connect 100 0 118 0;
#X connect 101 0 159 0;
#X connect 102 0 119 0;
#X connect 103 0 160 0;
#X connect 104 0 120 0;
#X connect 105 0 161 0;
#X connect 106 0 121 0;
#X connect 107 0 162 0;
#X connect 108 0 122 0;
#X connect 109 0 163 0;
#X connect 110 0 123 0;
#X connect 111 0 164 0;
#X connect 112 0 124 0;
#X connect 113 0 165 0;
#X connect 114 0 86 0;
#X connect 115 0 86 0;
#X connect 116 0 86 0;
#X connect 117 0 86 0;
#X connect 118 0 86 0;
#X connect 119 0 86 0;
#X connect 120 0 86 0;
#X connect 121 0 86 0;
#X connect 122 0 86 0;
#X connect 123 0 86 0;
#X connect 124 0 86 0;
#X connect 132 0 144 0;
#X connect 133 0 155 0;
#X connect 133 1 155 1;
#X connect 134 0 145 0;
#X connect 135 0 146 0;
#X connect 136 0 147 0;
#X connect 137 0 148 0;
#X connect 138 0 149 0;
#X connect 139 0 150 0;
#X connect 140 0 151 0;
#X connect 141 0 152 0;
#X connect 142 0 153 0;
#X connect 143 0 154 0;
#X connect 144 0 133 0;
#X connect 145 0 133 0;
#X connect 146 0 133 0;
#X connect 147 0 133 0;
#X connect 148 0 133 0;
#X connect 149 0 133 0;
#X connect 150 0 133 0;
#X connect 151 0 133 0;
#X connect 152 0 133 0;
#X connect 153 0 133 0;
#X connect 154 0 133 0;
#X connect 166 0 2 0;
#X connect 167 0 1 0;
#X connect 168 0 32 0;
#X connect 169 0 178 0;
#X connect 171 0 4 0;
#X connect 172 0 42 0;
#X connect 179 0 45 0;
#X connect 180 0 48 0;
#X connect 183 0 12 0;
#X connect 185 0 202 0;
#X connect 186 0 202 0;
#X connect 187 0 202 0;
#X connect 188 0 202 0;
#X connect 189 0 202 0;
#X connect 190 0 202 0;
#X connect 191 0 202 0;
#X connect 192 0 202 0;
#X connect 193 0 202 0;
#X connect 194 0 202 0;
#X connect 195 0 202 0;
#X connect 196 0 198 1;
#X connect 198 0 199 0;
#X connect 199 0 197 0;
#X connect 199 0 205 0;
#X connect 200 0 212 0;
#X connect 202 0 201 0;
#X connect 203 0 23 0;
#X connect 204 0 198 0;
#X connect 204 1 8 0;
#X connect 204 2 196 0;
#X connect 204 3 203 0;
#X connect 212 0 199 1;
#X connect 212 1 27 0;
#X connect 212 1 20 0;
#X connect 212 2 28 0;
