#N canvas 67 89 1229 942 10;
#X obj 111 13 inlet;
#X obj 655 265 outlet;
#X obj 665 199 outlet;
#X obj 111 152 t b b b b b b b b b b b b b, f 67;
#X text 603 128 5 wiggle mod \; 4 wiggle all \; 3 wiggle 0 \; 2 wiggle
1 \; 1 wiggle 2 \;;
#X text 561 209 4 speeds all \; 3 speeds 2 \; 2 speeds 1 \; 1 speeds
2;
#X text 524 269 4 loc speed all \; 3 loc speeds 2 \; 2 loc speeds 1
\; 1 loc speeds 2;
#X obj 645 325 outlet;
#X text 494 329 4 size speed all \; 3 size speeds 2 \; 2 size speeds
1 \; 1 size speeds 2;
#X msg 443 307 -1 -1 -1 -1;
#X msg 410 367 -1 -1 -1 -1;
#X obj 635 385 outlet;
#X text 460 389 4 dist speed all \; 3 dist speeds 2 \; 2 dist speeds
1 \; 1 dist speeds 2;
#X obj 625 445 outlet;
#X msg 377 427 -1 -1 -1 -1;
#X obj 615 505 outlet;
#X msg 343 487 -1 -1 -1 -1;
#X text 426 449 4 spin speed all \; 3 spin speeds 2 \; 2 spin speeds
1 \; 1 spin speeds 2;
#X obj 595 562 outlet;
#X text 423 508 4 size all \; 3 size 2 \; 2 size 1 \; 1 size 2;
#X obj 592 624 outlet;
#X text 439 569 4 dist all \; 3 dist 2 \; 2 dist 1 \; 1 dist 2;
#X obj 582 685 outlet;
#X text 409 630 4 spin all \; 3 spin 2 \; 2 spin 1 \; 1 spin 2;
#X obj 572 725 outlet;
#X obj 562 761 outlet;
#X obj 552 839 outlet;
#X obj 542 913 outlet;
#X text 236 768 5 bigC amp spd \; 4 bigC stay spd \; 3 bigC fdiff spd
\; 2 bigC freq spd \; 1 bigC size spd \;;
#X text 216 843 5 bigC amp \; 4 bigC stay \; 3 bigC fdiff \; 2 bigC
freq \; 1 bigC size \;;
#X msg 144 821 -1 -1 -1 -1 -1;
#X msg 111 895 -1 -1 -1 -1 -1;
#X msg 510 181 -1 -1 -1 -1 -1;
#X text 224 731 2 trade \; 1 swap;
#X text 267 695 2 stay \; 1 lin;
#X msg 177 743 -1 0;
#X msg 244 667 -1 -1 -1 0;
#X msg 276 606 -1 -1 -1 0;
#X obj 310 544 random_3_sfgem;
#X msg 310 573 5.444 0.04 3.569 -1;
#X obj 310 18 r current_instruction_length;
#X obj 242 29 del;
#X obj 391 68 line;
#X obj 300 78 pack;
#X msg 114 91 1;
#X msg 154 91 0;
#X obj 109 42 t b b b;
#X msg 228 88 1;
#X obj 391 126 * 30;
#X obj 453 41 t f f;
#X msg 512 12 0;
#X obj 111 123 metro 400;
#X msg 476 247 -1 -1 -1 500;
#X obj 391 97 expr (pow($f1 \, 5));
#X obj 720 595 pack f f f f;
#X obj 726 536 unpack f f f f;
#X msg 210 707 -1 -1;
#X connect 0 0 46 0;
#X connect 3 0 31 0;
#X connect 3 1 30 0;
#X connect 3 2 35 0;
#X connect 3 3 56 0;
#X connect 3 4 36 0;
#X connect 3 5 37 0;
#X connect 3 6 38 0;
#X connect 3 7 16 0;
#X connect 3 8 14 0;
#X connect 3 9 10 0;
#X connect 3 10 9 0;
#X connect 3 11 52 0;
#X connect 3 12 32 0;
#X connect 9 0 7 0;
#X connect 10 0 11 0;
#X connect 14 0 13 0;
#X connect 16 0 15 0;
#X connect 30 0 26 0;
#X connect 31 0 27 0;
#X connect 32 0 2 0;
#X connect 35 0 25 0;
#X connect 36 0 22 0;
#X connect 37 0 20 0;
#X connect 38 0 39 0;
#X connect 38 1 55 0;
#X connect 40 0 41 1;
#X connect 40 0 43 1;
#X connect 41 0 45 0;
#X connect 42 0 53 0;
#X connect 43 0 42 0;
#X connect 44 0 51 0;
#X connect 45 0 51 0;
#X connect 46 0 44 0;
#X connect 46 1 41 0;
#X connect 46 1 47 0;
#X connect 46 2 50 0;
#X connect 47 0 43 0;
#X connect 48 0 38 1;
#X connect 48 0 54 2;
#X connect 49 0 42 0;
#X connect 49 1 53 0;
#X connect 50 0 49 0;
#X connect 51 0 3 0;
#X connect 52 0 1 0;
#X connect 53 0 48 0;
#X connect 54 0 18 0;
#X connect 55 0 54 0;
#X connect 55 1 54 1;
#X connect 55 3 54 3;
#X connect 56 0 24 0;
