#N canvas 67 112 1102 850 10;
#X floatatom 698 340 5 0 0 0 - - -, f 5;
#X floatatom 87 178 5 0 0 0 - - -, f 5;
#X obj 361 351 / 127;
#X obj 361 423 int;
#X obj 361 374 pow 2;
#X obj 361 399 * 400;
#X obj 361 477 t f f;
#X obj 437 495 f;
#X obj 422 470 t f b;
#X obj 422 517 +;
#X floatatom 361 535 5 0 0 0 - - -, f 5;
#X obj 382 162 r ctl-\$1;
#X obj 698 301 r ctl-\$2;
#X obj 56 125 r ctl-\$3;
#X obj 66 270 s sbutton-\$1;
#X floatatom 487 345 5 0 0 0 - - -, f 5;
#X obj 526 395 f;
#X obj 506 417 -;
#X obj 487 367 t f f b;
#X floatatom 506 438 5 0 0 0 - - -, f 5;
#X obj 571 339 loadbang;
#X msg 561 366 64;
#X obj 533 487 abs;
#X obj 506 460 t f f;
#X obj 506 535 spigot;
#X obj 539 511 < 1.1;
#X floatatom 506 568 5 0 0 0 - - -, f 5;
#X obj 465 438 * 4;
#X text 121 125 BUTTONS;
#X obj 87 206 / 127;
#X text 439 162 ABSOLUTE;
#X text 486 327 RELATIVE;
#X obj 240 192 + 1;
#X obj 240 275 sel 1;
#X floatatom 240 378 5 0 0 0 - - -, f 5;
#X msg 170 475 set \$1;
#X obj 541 276 r fader-\$1-bypass;
#X obj 121 248 s sbutton-\$1-mux;
#X msg 34 86 1;
#X obj 158 183 r multiplex;
#X obj 158 212 + 1;
#X floatatom 87 345 5 0 0 0 - - -, f 5;
#X obj 87 373 / 127;
#X obj 141 353 r multiplex;
#X obj 141 382 + 1;
#X obj 66 440 s mbutton-\$1;
#X obj 121 418 s mbutton-\$1-mux;
#X floatatom 87 520 5 0 0 0 - - -, f 5;
#X obj 87 548 / 127;
#X obj 131 524 r multiplex;
#X obj 131 553 + 1;
#X obj 66 614 s rbutton-\$1;
#X obj 104 589 s rbutton-\$1-mux;
#X obj 56 295 r ctl-\$4;
#X obj 66 465 r ctl-\$5;
#X obj 34 58 r init-loadbang;
#X floatatom 382 186 5 0 0 0 - - -, f 5;
#X obj 361 327 Gate;
#X obj 66 230 Gate;
#X obj 66 400 Gate;
#X obj 66 571 Gate;
#X obj 396 214 s auxfader-\$1;
#X obj 757 319 s auxknob-\$1;
#X obj 447 240 r elem-exp-multiplier-\$1;
#X obj 397 263 r elem-exp-adder-\$1;
#X obj 361 447 + 0;
#X obj 417 373 - 0;
#X obj 417 310 t b f;
#X obj 149 309 r pulse_base;
#X obj 76 149 route 0;
#X obj 75 320 route 0;
#X obj 66 495 route 0;
#X msg 198 76 0;
#X obj 250 554 r bend-amount\$2;
#X obj 361 592 *;
#X obj 361 563 t b f;
#X obj 412 545 loadbang;
#X msg 412 574 1;
#X text 752 300 TRIM;
#X obj 34 212 t f;
#X obj 34 382 t f;
#X obj 34 553 t f;
#X text 550 396 Most recent fader val.;
#X floatatom 498 605 5 0 0 0 - - -, f 5;
#X obj 240 112 r absolute-relative-receive;
#X obj 243 140 bng 15 250 50 0 empty empty empty 17 7 0 10 -262144
-1 -1;
#X obj 243 162 tgl 15 0 empty empty empty 17 7 0 10 -262144 -1 -1 0
1;
#X floatatom 311 356 5 0 0 0 - - -, f 5;
#X text 552 560 Only open if \; smooth motion.;
#X text 449 506 accumulated \; 1's and -1's.;
#X text 773 414 Add back in relative?;
#X obj 361 731 s fader_or_knob_\$1;
#X obj 698 735 s fader_or_knob_\$2;
#X obj 698 550 / 15;
#X obj 361 629 / 15;
#X obj 495 733 s ctrl_or_comp;
#X msg 495 704 0;
#X obj 361 686 t f b;
#X obj 698 684 t f b;
#X connect 0 0 93 0;
#X connect 1 0 29 0;
#X connect 2 0 4 0;
#X connect 3 0 65 0;
#X connect 4 0 5 0;
#X connect 5 0 3 0;
#X connect 6 0 10 0;
#X connect 6 1 7 1;
#X connect 7 0 9 1;
#X connect 8 0 9 0;
#X connect 8 1 7 0;
#X connect 9 0 10 0;
#X connect 9 0 7 1;
#X connect 9 0 83 0;
#X connect 10 0 35 0;
#X connect 10 0 75 0;
#X connect 11 0 56 0;
#X connect 12 0 0 0;
#X connect 12 0 62 0;
#X connect 13 0 69 0;
#X connect 15 0 18 0;
#X connect 16 0 17 1;
#X connect 17 0 19 0;
#X connect 18 0 16 1;
#X connect 18 1 17 0;
#X connect 18 2 16 0;
#X connect 19 0 23 0;
#X connect 20 0 21 0;
#X connect 21 0 16 1;
#X connect 22 0 25 0;
#X connect 23 0 24 0;
#X connect 23 1 22 0;
#X connect 24 0 26 0;
#X connect 25 0 24 1;
#X connect 26 0 27 0;
#X connect 27 0 8 0;
#X connect 29 0 58 1;
#X connect 32 0 33 0;
#X connect 32 0 57 0;
#X connect 33 0 34 0;
#X connect 34 0 16 1;
#X connect 35 0 34 0;
#X connect 36 0 16 1;
#X connect 36 0 6 0;
#X connect 38 0 79 0;
#X connect 38 0 80 0;
#X connect 38 0 81 0;
#X connect 39 0 40 0;
#X connect 40 0 58 0;
#X connect 41 0 42 0;
#X connect 42 0 59 1;
#X connect 43 0 44 0;
#X connect 44 0 59 0;
#X connect 47 0 48 0;
#X connect 48 0 60 1;
#X connect 49 0 50 0;
#X connect 50 0 60 0;
#X connect 53 0 70 0;
#X connect 54 0 71 0;
#X connect 55 0 38 0;
#X connect 55 0 72 0;
#X connect 56 0 61 0;
#X connect 56 0 57 1;
#X connect 57 0 2 0;
#X connect 57 0 87 0;
#X connect 57 1 15 0;
#X connect 58 0 14 0;
#X connect 58 1 37 0;
#X connect 59 0 45 0;
#X connect 59 1 46 0;
#X connect 60 0 51 0;
#X connect 60 1 52 0;
#X connect 63 0 66 0;
#X connect 64 0 65 1;
#X connect 64 0 67 0;
#X connect 65 0 6 0;
#X connect 66 0 5 1;
#X connect 67 0 66 0;
#X connect 67 1 66 1;
#X connect 68 0 57 1;
#X connect 69 1 1 0;
#X connect 70 1 41 0;
#X connect 71 1 47 0;
#X connect 72 0 86 0;
#X connect 73 0 74 0;
#X connect 74 0 94 0;
#X connect 75 0 74 0;
#X connect 75 1 74 1;
#X connect 76 0 77 0;
#X connect 77 0 74 0;
#X connect 79 0 58 0;
#X connect 80 0 59 0;
#X connect 81 0 60 0;
#X connect 84 0 85 0;
#X connect 85 0 86 0;
#X connect 86 0 32 0;
#X connect 93 0 98 0;
#X connect 94 0 97 0;
#X connect 96 0 95 0;
#X connect 97 0 91 0;
#X connect 97 1 96 0;
#X connect 98 0 92 0;
#X connect 98 1 96 0;
