#N canvas 13 89 888 678 10;
#X obj 101 151 control_numbers_window 999 999 999 999 20;
#X obj 141 223 pack;
#X obj 181 293 pack;
#X obj 222 363 pack;
#X obj 701 66 loadbang;
#X obj 701 95 t b b b b;
#X msg 769 134 1000;
#X msg 769 163 100;
#X obj 141 267 Tarer 0;
#X obj 181 337 Tarer 1;
#X obj 222 407 Tarer 2;
#X obj 141 247 liner_sfgem;
#X obj 181 317 liner_sfgem;
#X obj 222 387 liner_sfgem;
#X obj 347 437 r x_add_liner_exponent;
#X obj 348 470 r x_add_liner_function;
#X obj 344 122 r flip_x_speed_2;
#X obj 373 152 value flip_x_random_max;
#X obj 373 181 value flip_x_random_min;
#X obj 520 152 value flip_x_time_random_max;
#X obj 520 181 value flip_x_time_random_min;
#X obj 380 249 r flip_x_tare_0;
#X obj 380 319 r flip_x_tare_1;
#X obj 380 389 r flip_x_tare_2;
#X obj 141 394 s flip_x_0;
#X obj 141 414 s flip_x_3;
#X obj 181 434 s flip_x_1;
#X obj 181 454 s flip_x_4;
#X obj 222 474 s flip_x_2;
#X obj 222 494 s flip_x_5;
#X obj 263 522 s flip_x_0_speed_rec;
#X obj 263 542 s flip_x_3_speed_rec;
#X obj 303 562 s flip_x_1_speed_rec;
#X obj 303 582 s flip_x_4_speed_rec;
#X obj 344 602 s flip_x_2_speed_rec;
#X obj 344 622 s flip_x_5_speed_rec;
#X obj 101 547 value flip_x_master;
#X obj 141 567 value flip_x_0;
#X obj 181 587 value flip_x_1;
#X obj 222 607 value flip_x_2;
#X obj 309 102 r flip_x_speed_1;
#X obj 274 82 r flip_x_speed_0;
#X obj 239 62 r flip_x_speed_all;
#X obj 101 62 r flip_x_master_set;
#X obj 135 82 r flip_x_0_set;
#X obj 170 102 r flip_x_1_set;
#X obj 205 122 r flip_x_2_set;
#X msg 701 134 180;
#X msg 701 163 -180;
#X connect 0 0 36 0;
#X connect 0 1 1 0;
#X connect 0 2 2 0;
#X connect 0 3 3 0;
#X connect 0 4 1 1;
#X connect 0 4 30 0;
#X connect 0 4 31 0;
#X connect 0 5 2 1;
#X connect 0 5 32 0;
#X connect 0 5 33 0;
#X connect 0 6 3 1;
#X connect 0 6 34 0;
#X connect 0 6 35 0;
#X connect 1 0 11 0;
#X connect 2 0 12 0;
#X connect 3 0 13 0;
#X connect 4 0 5 0;
#X connect 5 0 48 0;
#X connect 5 1 47 0;
#X connect 5 2 7 0;
#X connect 5 3 6 0;
#X connect 6 0 19 0;
#X connect 7 0 20 0;
#X connect 8 0 24 0;
#X connect 8 0 25 0;
#X connect 8 0 37 0;
#X connect 9 0 26 0;
#X connect 9 0 27 0;
#X connect 9 0 38 0;
#X connect 10 0 28 0;
#X connect 10 0 29 0;
#X connect 10 0 39 0;
#X connect 11 0 8 0;
#X connect 11 0 8 0;
#X connect 12 0 9 0;
#X connect 12 0 9 0;
#X connect 13 0 10 0;
#X connect 13 0 10 0;
#X connect 14 0 11 3;
#X connect 14 0 12 3;
#X connect 14 0 13 3;
#X connect 15 0 11 2;
#X connect 15 0 12 2;
#X connect 15 0 13 2;
#X connect 16 0 0 7;
#X connect 21 0 8 1;
#X connect 22 0 9 1;
#X connect 23 0 10 1;
#X connect 40 0 0 6;
#X connect 41 0 0 5;
#X connect 42 0 0 4;
#X connect 43 0 0 0;
#X connect 44 0 0 1;
#X connect 45 0 0 2;
#X connect 46 0 0 3;
#X connect 47 0 17 0;
#X connect 48 0 18 0;
#X coords 0 -1 1 1 250 50 2 100 150;
