#N canvas 215 176 1397 727 10;
#X obj 1544 19 Gem;
#X obj 1469 601 dac~;
#X obj 1388 552 r~ channel0;
#X obj 1469 552 r~ channel1;
#X obj 1550 552 r~ channel2;
#X obj 1549 577 *~ 0.666;
#X obj 1388 575 *~ 0.666;
#X obj 1470 575 *~ 0.3;
#X obj 1492 494 s amplitude0;
#X obj 1538 475 s amplitude1;
#X obj 1585 456 s amplitude2;
#X obj 1385 494 s toggle_amp;
#X msg 1385 465 1;
#X obj 1385 436 loadbang;
#X obj 1492 437 amplitude_slider;
#X text 1384 418 MAP AMPS LIN/EXP;
#X obj 1176 448 s wiggle_sphere0;
#X obj 1195 429 s wiggle_sphere1;
#X obj 1215 410 s wiggle_sphere2;
#X obj 1419 523 controller_stuff_sfgem;
#X floatatom 978 470 5 0 0 0 - - -, f 5;
#X floatatom 1059 470 5 0 0 0 - - -, f 5;
#X obj 531 131 cnv 15 698 158 empty empty empty 20 12 0 14 -233017
-66577 0;
#X obj 1059 262 hradio 20 1 0 7 empty empty empty 0 -8 0 10 -262144
-1 -1 1;
#X obj 978 262 hradio 20 1 0 3 empty empty empty 0 -8 0 10 -262144
-1 -1 2;
#X obj 611 151 bng 30 250 50 0 empty empty empty 17 7 0 10 -262144
-1 -1;
#X obj 795 151 tgl 30 0 empty empty empty 17 7 0 10 -262144 -1 -1 1
1;
#X obj 856 151 tgl 30 0 empty empty empty 17 7 0 10 -262144 -1 -1 0
1;
#X text 793 132 NOISE;
#X text 598 132 OPEN REC;
#X text 845 132 PLAY REC;
#X obj 672 151 bng 30 250 50 0 empty empty empty 17 7 0 10 -262144
-1 -1;
#X obj 550 151 bng 30 250 50 0 empty empty empty 17 7 0 10 -262144
-1 -1;
#X obj 731 141 bng 40 250 50 0 empty empty empty 17 7 0 10 -261234
-1 -1;
#X text 663 132 GEM WIN;
#X text 726 122 PLAYBACK;
#X text 543 131 LABELS;
#X text 1172 132 WIGGLE;
#X obj 1176 151 bng 30 250 50 0 empty empty empty 17 7 0 10 -262144
-1 -1;
#X obj 541 257 nbx 3 25 -1e+37 1e+37 0 0 empty empty empty 0 -8 0 20
-262144 -1 -1 0 256;
#X obj 698 257 nbx 3 25 -1e+37 1e+37 0 0 empty empty empty 0 -8 0 20
-262144 -1 -1 80 256;
#X obj 782 257 nbx 3 25 -1e+37 1e+37 0 0 empty empty empty 0 -8 0 20
-262144 -1 -1 64 256;
#X obj 920 151 tgl 30 0 empty empty empty 17 7 0 10 -262144 -1 -1 1
1;
#X text 911 132 LIN/POL;
#X text 697 239 BIG C FREQ;
#X text 768 240 BIG C FREQ DIFF;
#X obj 541 203 nbx 3 30 -1e+37 1e+37 0 0 empty empty empty 0 -8 0 25
-262144 -1 -1 2 256;
#X obj 635 203 nbx 3 30 -1e+37 1e+37 0 0 empty empty empty 0 -8 0 25
-262144 -1 -1 0 256;
#X obj 729 203 nbx 3 30 -1e+37 1e+37 0 0 empty empty empty 0 -8 0 25
-262144 -1 -1 1 256;
#X obj 822 203 nbx 4 30 -1e+37 1e+37 0 0 empty empty empty 0 -8 0 25
-262144 -1 -1 1000 256;
#X text 1001 247 SWAP;
#X text 1108 245 TRADER PRESETS;
#X text 564 185 SIZE;
#X text 670 185 SPIN;
#X text 740 185 DISTANCE;
#X text 850 185 SPEED;
#X obj 865 257 nbx 5 25 -1e+37 1e+37 0 0 empty empty empty 0 -8 0 20
-262144 -1 -1 0 256;
#X text 866 239 STAY TIME;
#X obj 984 151 nbx 5 30 -1e+37 1e+37 0 0 empty empty empty 0 -8 0 25
-262144 -1 -1 10000 256;
#X text 996 131 STAY TIME;
#X obj 550 7 r sbutton-0;
#X obj 611 27 r sbutton-1;
#X obj 672 47 r sbutton-2;
#X obj 1176 76 r rbutton-7;
#X obj 732 67 r sbutton-3;
#X obj 795 17 r sbutton-4;
#X obj 856 37 r sbutton-5;
#X obj 856 66 bng 15 250 50 0 empty empty empty 17 7 0 10 -262144 -1
-1;
#X obj 795 46 bng 15 250 50 0 empty empty empty 17 7 0 10 -262144 -1
-1;
#X obj 732 96 bng 15 250 50 0 empty empty empty 17 7 0 10 -262144 -1
-1;
#X obj 1126 161 bng 20 250 50 0 empty empty empty 17 7 0 10 -262144
-1 -1;
#X text 1119 139 RESET;
#X obj 1176 391 t b b b;
#X obj 1408 143 loadbang;
#X obj 132 110 inlet;
#X obj 63 239 r bigcircle_amplitude;
#X obj 620 257 nbx 3 25 -1e+37 1e+37 0 0 empty empty empty 0 -8 0 20
-262144 -1 -1 0.5 256;
#X text 619 239 BIG C AMP;
#X text 542 239 BIG C SIZE;
#X text 974 77 SBUTTON IS STILL FREE;
#X obj 1285 233 size_spin_distance_speed_router_sfgem;
#X obj 1285 185 t a;
#X obj 1416 185 t a;
#X obj 1547 185 t a;
#X obj 1678 185 t a;
#X obj 203 282 big_circle_features_router_sfgem;
#X obj 203 239 t a;
#X obj 250 239 t a;
#X obj 297 239 t a;
#X obj 344 239 t a;
#X obj 394 239 t a;
#X obj 978 498 swap_trader_presets_router_sfgem;
#X obj 984 634 stay_time_translator_rotator_router_sfgem;
#X obj 75 181 new_buttons_router_sfgem;
#X obj 1059 441 t a;
#X obj 73 133 t a;
#X obj 214 133 t a;
#X connect 2 0 6 0;
#X connect 3 0 7 0;
#X connect 4 0 5 0;
#X connect 5 0 1 1;
#X connect 6 0 1 0;
#X connect 7 0 1 0;
#X connect 7 0 1 1;
#X connect 12 0 11 0;
#X connect 13 0 12 0;
#X connect 14 0 8 0;
#X connect 14 1 9 0;
#X connect 14 2 10 0;
#X connect 20 0 91 0;
#X connect 21 0 91 1;
#X connect 23 0 21 0;
#X connect 24 0 20 0;
#X connect 25 0 93 1;
#X connect 26 0 93 4;
#X connect 27 0 93 5;
#X connect 31 0 93 2;
#X connect 32 0 93 0;
#X connect 33 0 93 3;
#X connect 38 0 72 0;
#X connect 39 0 85 0;
#X connect 40 0 85 2;
#X connect 41 0 85 3;
#X connect 42 0 93 6;
#X connect 46 0 80 0;
#X connect 47 0 80 1;
#X connect 48 0 80 2;
#X connect 49 0 80 3;
#X connect 56 0 85 4;
#X connect 58 0 92 0;
#X connect 60 0 32 0;
#X connect 61 0 25 0;
#X connect 62 0 31 0;
#X connect 63 0 38 0;
#X connect 64 0 69 0;
#X connect 65 0 68 0;
#X connect 66 0 67 0;
#X connect 67 0 27 0;
#X connect 68 0 26 0;
#X connect 69 0 33 0;
#X connect 70 0 93 7;
#X connect 72 0 16 0;
#X connect 72 1 17 0;
#X connect 72 2 18 0;
#X connect 73 0 70 0;
#X connect 74 0 93 8;
#X connect 75 0 76 0;
#X connect 76 0 85 1;
#X connect 80 0 81 0;
#X connect 80 1 82 0;
#X connect 80 2 83 0;
#X connect 80 3 84 0;
#X connect 81 0 46 0;
#X connect 82 0 47 0;
#X connect 83 0 48 0;
#X connect 84 0 49 0;
#X connect 85 0 86 0;
#X connect 85 1 87 0;
#X connect 85 2 88 0;
#X connect 85 3 89 0;
#X connect 85 4 90 0;
#X connect 86 0 39 0;
#X connect 87 0 76 0;
#X connect 88 0 40 0;
#X connect 89 0 41 0;
#X connect 90 0 56 0;
#X connect 91 0 24 0;
#X connect 91 1 94 0;
#X connect 92 0 58 0;
#X connect 93 0 95 0;
#X connect 93 1 96 0;
#X connect 94 0 23 0;
#X connect 95 0 42 0;
#X connect 96 0 27 0;
#X coords 0 -1 1 1 700 160 2 530 130;
