#N canvas 970 153 956 861 10;
#X msg 379 90 destroy;
#X obj 852 24 Gem;
#X obj 80 804 gemhead;
#X obj 113 56 openpanel;
#X obj 113 15 bng 30 250 50 0 empty empty empty 17 7 0 10 -262144 -1
-1;
#X obj 228 970 dac~;
#X obj 113 130 readsf~ 3;
#X obj 193 105 tgl 25 0 empty empty empty 17 7 0 10 -262144 -1 -1 0
1;
#X msg 113 85 open \$1;
#X msg 193 76 0;
#N canvas 57 317 853 379 gemwin 0;
#X obj 67 117 outlet;
#X obj 67 10 inlet;
#X obj 67 41 route create;
#X msg 67 90 set destroy;
#X msg 203 62 set create;
#X msg 172 227 destroy \, reset;
#X obj 322 300 outlet;
#X msg 364 54 dimen 683 384 \, create \, 1;
#X obj 322 260 gemwin;
#X msg 232 162 dimen 1366 768 \, create \, 1;
#X connect 1 0 2 0;
#X connect 2 0 3 0;
#X connect 2 0 9 0;
#X connect 2 1 4 0;
#X connect 2 1 5 0;
#X connect 3 0 0 0;
#X connect 4 0 0 0;
#X connect 5 0 8 0;
#X connect 8 0 6 0;
#X connect 9 0 8 0;
#X restore 379 129 pd gemwin;
#X obj 210 804 gemhead;
#X obj 340 804 gemhead;
#X obj 657 772 trader;
#X obj 657 637 hradio 30 1 0 3 empty empty empty 0 -8 0 10 -262144
-1 -1 1;
#X obj 690 731 hradio 30 1 0 7 empty empty empty 0 -8 0 10 -262144
-1 -1 5;
#X obj 690 702 % 4;
#X obj 80 862 the_scope 0;
#X obj 112 227 s~ channel0;
#X obj 131 198 s~ channel1;
#X obj 148 169 s~ channel2;
#X obj 657 608 r to_trader1;
#X obj 690 673 r to_trader2;
#X obj 127 901 r~ channel0;
#X obj 228 901 r~ channel1;
#X obj 329 901 r~ channel2;
#X obj 328 926 *~ 0.666;
#X obj 127 924 *~ 0.666;
#X obj 229 924 *~ 0.3;
#X obj 107 360 s amplitude0;
#X obj 153 331 s amplitude1;
#X obj 200 302 s amplitude2;
#X obj 529 130 s toggle_amp;
#X msg 529 101 0;
#X msg 529 72 1;
#X obj 529 43 loadbang;
#X obj 107 273 amplitude_slider;
#X obj 236 604 s scale_translation;
#X obj 236 505 loadbang;
#X text 266 536 SPACING;
#X msg 501 844 draw point;
#X text 152 15 OPEN AND PLAY \; SOUNDFILE;
#X obj 501 815 loadbang;
#X obj 236 563 nbx 3 30 -1e+37 1e+37 0 0 empty empty empty 0 -8 0 25
-262144 -1 -1 2 256;
#X text 561 83 MAP AMPS LIN/EXP;
#X obj 53 123 noise~;
#X obj 53 152 *~;
#X obj 14 122 tgl 30 0 empty empty empty 17 7 0 10 -262144 -1 -1 1
1;
#X obj 379 39 bng 30 250 50 0 empty empty empty 17 7 0 10 -262144 -1
-1;
#X msg 236 534 2;
#X obj 91 547 s circle_distance;
#X floatatom 91 519 5 0 0 0 - - -, f 5;
#X obj 325 646 loadbang;
#X obj 325 703 nbx 2 30 -1e+37 1e+37 0 0 empty empty empty 0 -8 0 25
-262144 -1 -1 1 256;
#X text 355 675 SIZE;
#X obj 325 744 s sphere_size_actual;
#X msg 415 685 set \$1;
#X obj 415 656 r sphere_size_actual_set;
#X obj 192 446 s reset_sphere_size;
#X obj 192 420 bng 15 250 50 0 empty empty empty 17 7 0 10 -262144
-1 -1;
#X obj 312 295 s wiggle_sphere0;
#X obj 433 295 s wiggle_sphere1;
#X obj 554 295 s wiggle_sphere2;
#X obj 312 269 bng 15 250 50 0 empty empty empty 17 7 0 10 -262144
-1 -1;
#X obj 433 269 bng 15 250 50 0 empty empty empty 17 7 0 10 -262144
-1 -1;
#X obj 554 269 bng 15 250 50 0 empty empty empty 17 7 0 10 -262144
-1 -1;
#X obj 770 383 s speed;
#X floatatom 770 347 5 0 0 0 - - -, f 5;
#X obj 770 273 loadbang;
#X obj 547 508 s lin_or_pol_motion;
#X obj 551 483 tgl 15 0 empty empty empty 17 7 0 10 -262144 -1 -1 0
1;
#X obj 526 445 loadbang;
#X msg 524 466 0;
#X msg 325 674 1;
#X obj 433 243 bng 15 250 50 0 empty empty empty 17 7 0 10 -262144
-1 -1;
#X obj 91 461 loadbang;
#X msg 91 490 2;
#X obj 80 833 translator-rotator 1;
#X obj 730 491 s spin;
#X floatatom 730 462 5 0 0 0 - - -, f 5;
#X msg 770 310 400;
#X obj 210 833 translator-rotator 2;
#X obj 340 833 translator-rotator 3;
#X obj 210 862 the_scope 1;
#X obj 340 862 the_scope 2;
#X connect 0 0 10 0;
#X connect 2 0 77 0;
#X connect 3 0 8 0;
#X connect 4 0 3 0;
#X connect 6 0 18 0;
#X connect 6 1 19 0;
#X connect 6 2 20 0;
#X connect 6 3 9 0;
#X connect 7 0 6 0;
#X connect 8 0 6 0;
#X connect 9 0 7 0;
#X connect 10 0 0 0;
#X connect 11 0 81 0;
#X connect 12 0 82 0;
#X connect 14 0 13 0;
#X connect 15 0 13 1;
#X connect 16 0 15 0;
#X connect 21 0 14 0;
#X connect 22 0 16 0;
#X connect 23 0 27 0;
#X connect 24 0 28 0;
#X connect 25 0 26 0;
#X connect 26 0 5 1;
#X connect 27 0 5 0;
#X connect 28 0 5 0;
#X connect 28 0 5 1;
#X connect 33 0 32 0;
#X connect 34 0 32 0;
#X connect 35 0 34 0;
#X connect 36 0 29 0;
#X connect 36 1 30 0;
#X connect 36 2 31 0;
#X connect 38 0 49 0;
#X connect 40 0 17 0;
#X connect 40 0 83 0;
#X connect 40 0 84 0;
#X connect 42 0 40 0;
#X connect 43 0 37 0;
#X connect 45 0 46 0;
#X connect 46 0 20 0;
#X connect 46 0 19 0;
#X connect 46 0 18 0;
#X connect 47 0 46 1;
#X connect 48 0 0 0;
#X connect 49 0 43 0;
#X connect 51 0 50 0;
#X connect 52 0 73 0;
#X connect 53 0 55 0;
#X connect 56 0 53 0;
#X connect 57 0 56 0;
#X connect 59 0 58 0;
#X connect 63 0 60 0;
#X connect 64 0 61 0;
#X connect 65 0 62 0;
#X connect 67 0 66 0;
#X connect 68 0 80 0;
#X connect 70 0 69 0;
#X connect 71 0 72 0;
#X connect 72 0 70 0;
#X connect 73 0 53 0;
#X connect 74 0 63 0;
#X connect 74 0 64 0;
#X connect 74 0 65 0;
#X connect 75 0 76 0;
#X connect 76 0 51 0;
#X connect 77 0 17 0;
#X connect 79 0 78 0;
#X connect 80 0 67 0;
#X connect 81 0 83 0;
#X connect 82 0 84 0;
