#N canvas 57 89 1599 857 10;
#X msg 530 229 destroy;
#X obj 1548 70 Gem;
#X obj 11 498 gemhead;
#X obj 149 121 bng 30 250 50 0 empty empty empty 17 7 0 10 -262144
-1 -1;
#X obj 1101 761 dac~;
#N canvas 57 317 853 379 gemwin 0;
#X obj 67 117 outlet;
#X obj 67 10 inlet;
#X obj 67 41 route create;
#X msg 67 90 set destroy;
#X msg 203 62 set create;
#X msg 172 227 destroy \, reset;
#X obj 322 300 outlet;
#X msg 364 54 dimen 683 384 \, create \, 1;
#X obj 322 260 gemwin;
#X msg 232 162 dimen 1366 768 \, create \, 1;
#X connect 1 0 2 0;
#X connect 2 0 3 0;
#X connect 2 0 9 0;
#X connect 2 1 4 0;
#X connect 2 1 5 0;
#X connect 3 0 0 0;
#X connect 4 0 0 0;
#X connect 5 0 8 0;
#X connect 8 0 6 0;
#X connect 9 0 8 0;
#X restore 530 258 pd gemwin;
#X obj 141 498 gemhead;
#X obj 271 498 gemhead;
#X obj 142 823 trader;
#X obj 142 688 hradio 30 1 0 3 empty empty empty 0 -8 0 10 -262144
-1 -1 0;
#X obj 175 782 hradio 30 1 0 7 empty empty empty 0 -8 0 10 -262144
-1 -1 1;
#X obj 175 753 % 4;
#X obj 142 659 r to_trader1;
#X obj 175 724 r to_trader2;
#X obj 1020 712 r~ channel0;
#X obj 1101 712 r~ channel1;
#X obj 1182 712 r~ channel2;
#X obj 1181 737 *~ 0.666;
#X obj 1020 735 *~ 0.666;
#X obj 1102 735 *~ 0.3;
#X obj 515 631 s amplitude0;
#X obj 561 612 s amplitude1;
#X obj 608 593 s amplitude2;
#X obj 185 445 s toggle_amp;
#X msg 185 416 1;
#X obj 185 387 loadbang;
#X obj 515 574 amplitude_slider;
#X msg 416 538 draw point;
#X obj 416 509 loadbang;
#X text 184 369 MAP AMPS LIN/EXP;
#X obj 85 121 tgl 30 0 empty empty empty 17 7 0 10 -262144 -1 -1 0
1;
#X obj 530 188 bng 30 250 50 0 empty empty empty 17 7 0 10 -262144
-1 -1;
#X obj 1270 570 s circle_distance;
#X obj 1270 191 loadbang;
#X obj 1270 265 nbx 4 30 -1e+37 1e+37 0 0 empty empty empty 0 -8 0
25 -262144 -1 -1 1 256;
#X text 1300 237 SIZE;
#X obj 1270 306 s sphere_size_actual;
#X msg 1340 236 set \$1;
#X obj 1340 169 r sphere_size_actual_set;
#X obj 312 444 s reset_sphere_size;
#X obj 312 418 bng 15 250 50 0 empty empty empty 17 7 0 10 -262144
-1 -1;
#X obj 665 769 s wiggle_sphere0;
#X obj 786 769 s wiggle_sphere1;
#X obj 907 769 s wiggle_sphere2;
#X obj 665 743 bng 15 250 50 0 empty empty empty 17 7 0 10 -262144
-1 -1;
#X obj 786 743 bng 15 250 50 0 empty empty empty 17 7 0 10 -262144
-1 -1;
#X obj 907 743 bng 15 250 50 0 empty empty empty 17 7 0 10 -262144
-1 -1;
#X obj 1270 708 s speed;
#X obj 1270 609 loadbang;
#X obj 16 445 s lin_or_pol_motion;
#X obj 16 419 tgl 15 0 empty empty empty 17 7 0 10 -262144 -1 -1 0
1;
#X obj 16 361 loadbang;
#X msg 16 390 0;
#X msg 1270 236 1;
#X obj 779 713 bng 30 250 50 0 empty empty empty 17 7 0 10 -262144
-1 -1;
#X obj 1270 471 loadbang;
#X msg 1270 500 2;
#X obj 1270 415 s spin;
#X msg 1270 638 400;
#X obj 1270 374 nbx 4 30 -1e+37 1e+37 0 0 empty empty empty 0 -8 0
25 -262144 -1 -1 3.14 256;
#X obj 1270 529 nbx 2 30 -1e+37 1e+37 0 0 empty empty empty 0 -8 0
25 -262144 -1 -1 0.975 256;
#X obj 1270 667 nbx 4 30 -1e+37 1e+37 0 0 empty empty empty 0 -8 0
25 -262144 -1 -1 6250 256;
#X obj 1177 591 r fadertrim-3;
#X obj 1215 128 r fadertrim-0;
#X obj 1177 298 r fadertrim-1;
#X obj 1177 453 r fadertrim-2;
#X obj 1215 247 * 2;
#X obj 1215 218 / 400;
#X obj 1177 327 / 400;
#X obj 1177 482 / 400;
#X obj 1177 620 / 400;
#X obj 1177 356 * 6.28;
#X obj 1178 511 * 2.6;
#X obj 307 198 nbx 5 30 -1e+37 1e+37 0 0 empty empty empty 0 -8 0 25
-262144 -1 -1 654 256;
#X obj 358 58 bng 40 250 50 0 empty empty empty 17 7 0 10 -261234 -1
-1;
#X obj 141 527 translator-rotator 2;
#X obj 11 527 translator-rotator 1;
#X obj 271 527 translator-rotator 3;
#X obj 448 121 bng 30 250 50 0 empty empty empty 17 7 0 10 -262144
-1 -1;
#X msg 318 73 1;
#X msg 1451 338 0;
#X obj 1432 309 line;
#X obj 1432 511 * 2;
#X obj 1432 225 bng 15 250 50 0 empty empty empty 17 7 0 10 -262144
-1 -1;
#X obj 1451 367 s circle_distance;
#X obj 1471 452 s to_trader2;
#X msg 1471 406 1;
#X obj 1432 251 t b b b;
#X obj 1388 247 * 1.5;
#X obj 1374 327 log;
#X obj 1374 356 * 3.14;
#X msg 263 706 0;
#X msg 425 706 2;
#X msg 344 706 1;
#X msg 263 764 3;
#X msg 344 764 4;
#X msg 426 764 5;
#X msg 506 734 6;
#X obj 70 630 bng 15 250 50 0 empty empty empty 17 7 0 10 -262144 -1
-1;
#X obj 70 601 r markerforwardbutton;
#X obj 109 659 bng 15 250 50 0 empty empty empty 17 7 0 10 -262144
-1 -1;
#X obj 109 630 r markerbackbutton;
#X obj 109 734 - 1;
#X obj 70 723 + 1;
#X floatatom 70 752 5 0 0 0 - - -, f 5;
#X obj 70 694 f;
#X obj 109 705 f;
#X obj 70 780 % 3;
#X obj 809 552 gemhead;
#X floatatom 840 383 5 0 0 0 - - -, f 5;
#X obj 141 556 the_scope 1;
#X floatatom 871 456 5 0 0 0 - - -, f 5;
#X obj 11 556 the_scope 0;
#X obj 271 556 the_scope 2;
#X obj 307 169 timer_sfgem;
#X obj 307 239 instruction_reader_sfgem;
#X obj 214 121 tgl 30 0 empty empty empty 17 7 0 10 -262144 -1 -1 0
1;
#X obj 85 192 soundfile_player_sfgem;
#X text 83 102 NOISE;
#X text 136 102 OPEN REC;
#X text 203 102 PLAY REC;
#X text 428 104 OPEN LABELS;
#X text 15 342 LINEAR/POLAR;
#X obj 505 450 / 400;
#X obj 505 401 r fadertrim-7;
#X obj 505 479 * 20000;
#X msg 505 538 length \$1;
#X obj 561 432 loadbang;
#X msg 561 461 0.4;
#X text 493 382 STAY-TIME OF POINTS;
#X floatatom 902 533 5 0 0 0 - - -, f 5;
#X msg 708 563 length \$1;
#X obj 708 468 / 400;
#X obj 708 497 * 20000;
#X obj 764 410 loadbang;
#X msg 764 479 0.4;
#X text 696 360 STAY-TIME OF POINTS;
#X obj 708 379 r fadertrim-6;
#X obj 809 581 big_circle_sfgem;
#X obj 848 643 controller_stuff_sfgem;
#X obj 1495 207 loadbang;
#X msg 175 266 set \$1;
#X msg 142 266 set \$1;
#X floatatom 142 309 5 0 0 0 - - -, f 5;
#X floatatom 175 309 5 0 0 0 - - -, f 5;
#X text 520 170 GEM WIN;
#X obj 16 116 tgl 15 0 empty empty empty 17 7 0 10 -262144 -1 -1 0
1;
#X text 833 360 BIG CIRCLE SIZE;
#X text 865 411 BIG CIRCLE FREQ;
#X text 882 489 BIG CIRCLE FREQ DIFFERENCE;
#X msg 1270 167 set \$1;
#X msg 1270 167 set \$1;
#X msg 1270 167 set \$1;
#X obj 1177 649 * 500;
#X msg 1270 167 set \$1;
#X floatatom 1270 215 5 0 0 0 - - -, f 5;
#X floatatom 1270 215 5 0 0 0 - - -, f 5;
#X floatatom 1270 215 5 0 0 0 - - -, f 5;
#X floatatom 1270 215 5 0 0 0 - - -, f 5;
#X obj 871 427 r fadertrim-4;
#X obj 902 505 r fadertrim-5;
#X msg 811 473 set \$1;
#X msg 951 550 set \$1;
#X msg 16 73 set \$1;
#X obj 621 71 cnv 15 448 248 empty empty empty 20 12 0 14 -233017 -66577
0;
#X obj 777 284 hradio 25 1 0 7 empty empty empty 0 -8 0 10 -262144
-1 -1 1;
#X obj 651 284 hradio 25 1 0 3 empty empty empty 0 -8 0 10 -262144
-1 -1 0;
#X obj 701 91 bng 30 250 50 0 empty empty empty 17 7 0 10 -262144 -1
-1;
#X obj 885 91 tgl 30 0 empty empty empty 17 7 0 10 -262144 -1 -1 0
1;
#X obj 946 91 tgl 30 0 empty empty empty 17 7 0 10 -262144 -1 -1 0
1;
#X text 883 72 NOISE;
#X text 688 72 OPEN REC;
#X text 935 72 PLAY REC;
#X obj 762 91 bng 30 250 50 0 empty empty empty 17 7 0 10 -262144 -1
-1;
#X obj 640 91 bng 30 250 50 0 empty empty empty 17 7 0 10 -262144 -1
-1;
#X obj 821 91 bng 40 250 50 0 empty empty empty 17 7 0 10 -261234 -1
-1;
#X text 753 72 GEM WIN;
#X text 816 72 PLAYBACK;
#X text 633 71 LABELS;
#X text 989 265 WIGGLE;
#X obj 993 284 bng 30 250 50 0 empty empty empty 17 7 0 10 -262144
-1 -1;
#X obj 661 238 nbx 3 25 -1e+37 1e+37 0 0 empty empty empty 0 -8 0 20
-262144 -1 -1 6.5 256;
#X obj 759 238 nbx 3 25 -1e+37 1e+37 0 0 empty empty empty 0 -8 0 20
-262144 -1 -1 321 256;
#X obj 857 238 nbx 3 25 -1e+37 1e+37 0 0 empty empty empty 0 -8 0 20
-262144 -1 -1 668 256;
#X obj 1000 91 tgl 25 0 empty empty empty 17 7 0 10 -262144 -1 -1 0
1;
#X text 989 72 LIN/POL;
#X text 654 220 BIG CIRCLE SIZE;
#X text 758 220 BIG C FREQ;
#X text 843 221 BIG C FREQ DIFF;
#X obj 633 185 nbx 3 30 -1e+37 1e+37 0 0 empty empty empty 0 -8 0 25
-262144 -1 -1 1 256;
#X obj 737 185 nbx 3 30 -1e+37 1e+37 0 0 empty empty empty 0 -8 0 25
-262144 -1 -1 3.14 256;
#X obj 851 185 nbx 3 30 -1e+37 1e+37 0 0 empty empty empty 0 -8 0 25
-262144 -1 -1 0.975 256;
#X obj 954 185 nbx 4 30 -1e+37 1e+37 0 0 empty empty empty 0 -8 0 25
-262144 -1 -1 6250 256;
#X text 712 269 SWAP;
#X text 806 268 TRADER PRESETS;
#X text 656 167 SIZE;
#X text 772 167 SPIN;
#X text 862 167 DISTANCE;
#X text 982 167 SPEED;
#X obj 53 416 bng 15 250 50 0 empty empty empty 17 7 0 10 -262144 -1
-1;
#X obj 955 238 nbx 5 25 -1e+37 1e+37 0 0 empty empty empty 0 -8 0 20
-262144 -1 -1 10000 256;
#X text 956 220 STAY TIME;
#X floatatom 505 508 5 0 0 0 - - -, f 5;
#X msg 555 505 set \$1;
#X obj 784 135 nbx 5 30 -1e+37 1e+37 0 0 empty empty empty 0 -8 0 25
-262144 -1 -1 10000 256;
#X text 726 142 STAY TIME;
#X floatatom 708 532 5 0 0 0 - - -, f 5;
#X msg 751 533 set \$1;
#X obj 263 677 r rbutton-0;
#X obj 344 677 r rbutton-1;
#X obj 425 677 r rbutton-2;
#X obj 506 705 r rbutton-6;
#X obj 263 735 r rbutton-3;
#X obj 344 735 r rbutton-4;
#X obj 425 735 r rbutton-5;
#X obj 613 27 r sbutton-0;
#X obj 694 27 r sbutton-1;
#X obj 775 27 r sbutton-2;
#X obj 1080 266 r rbutton-7;
#X obj 856 27 r sbutton-3;
#X obj 937 27 r sbutton-4;
#X obj 1018 27 r sbutton-5;
#X obj 946 49 bng 15 250 50 0 empty empty empty 17 7 0 10 -262144 -1
-1;
#X obj 895 52 bng 15 250 50 0 empty empty empty 17 7 0 10 -262144 -1
-1;
#X obj 842 48 bng 15 250 50 0 empty empty empty 17 7 0 10 -262144 -1
-1;
#X obj 53 387 r sbutton-6;
#X text 1211 27 Sbutton-7 still free;
#X msg 1432 283 0 \, 1 2000;
#X obj 33 658 loadbang;
#X msg 33 681 300;
#X obj 302 134 tgl 30 0 empty empty empty 17 7 0 10 -262144 -1 -1 1
1;
#X msg 392 173 1;
#X obj 358 129 t b b b b;
#X msg 409 151 0;
#X connect 0 0 5 0;
#X connect 2 0 76 0;
#X connect 3 0 117 1;
#X connect 5 0 0 0;
#X connect 6 0 75 0;
#X connect 7 0 77 0;
#X connect 9 0 8 0;
#X connect 9 0 142 0;
#X connect 10 0 8 1;
#X connect 10 0 141 0;
#X connect 11 0 10 0;
#X connect 12 0 9 0;
#X connect 13 0 11 0;
#X connect 14 0 18 0;
#X connect 15 0 19 0;
#X connect 16 0 17 0;
#X connect 17 0 4 1;
#X connect 18 0 4 0;
#X connect 19 0 4 0;
#X connect 19 0 4 1;
#X connect 24 0 23 0;
#X connect 25 0 24 0;
#X connect 26 0 20 0;
#X connect 26 1 21 0;
#X connect 26 2 22 0;
#X connect 27 0 110 0;
#X connect 27 0 112 0;
#X connect 27 0 113 0;
#X connect 28 0 27 0;
#X connect 30 0 117 0;
#X connect 31 0 0 0;
#X connect 33 0 53 0;
#X connect 34 0 36 0;
#X connect 34 0 150 0;
#X connect 37 0 34 0;
#X connect 38 0 37 0;
#X connect 40 0 39 0;
#X connect 44 0 41 0;
#X connect 45 0 42 0;
#X connect 46 0 43 0;
#X connect 48 0 58 0;
#X connect 50 0 49 0;
#X connect 50 0 163 0;
#X connect 51 0 52 0;
#X connect 52 0 50 0;
#X connect 53 0 34 0;
#X connect 54 0 44 0;
#X connect 54 0 45 0;
#X connect 54 0 46 0;
#X connect 55 0 56 0;
#X connect 56 0 60 0;
#X connect 58 0 61 0;
#X connect 59 0 57 0;
#X connect 59 0 151 0;
#X connect 60 0 32 0;
#X connect 60 0 152 0;
#X connect 61 0 47 0;
#X connect 61 0 154 0;
#X connect 62 0 70 0;
#X connect 63 0 67 0;
#X connect 64 0 68 0;
#X connect 65 0 69 0;
#X connect 66 0 34 0;
#X connect 67 0 66 0;
#X connect 68 0 71 0;
#X connect 69 0 72 0;
#X connect 70 0 153 0;
#X connect 71 0 59 0;
#X connect 72 0 60 0;
#X connect 73 0 115 0;
#X connect 74 0 232 0;
#X connect 75 0 110 0;
#X connect 76 0 112 0;
#X connect 77 0 113 0;
#X connect 78 0 115 2;
#X connect 79 0 169 0;
#X connect 80 0 84 0;
#X connect 81 0 89 0;
#X connect 81 0 82 0;
#X connect 81 0 88 0;
#X connect 82 0 60 0;
#X connect 83 0 87 0;
#X connect 86 0 85 0;
#X connect 87 0 227 0;
#X connect 87 1 80 0;
#X connect 87 2 86 0;
#X connect 88 0 34 0;
#X connect 89 0 90 0;
#X connect 90 0 59 0;
#X connect 91 0 10 0;
#X connect 92 0 10 0;
#X connect 93 0 10 0;
#X connect 94 0 10 0;
#X connect 95 0 10 0;
#X connect 96 0 10 0;
#X connect 97 0 10 0;
#X connect 98 0 105 0;
#X connect 99 0 98 0;
#X connect 100 0 106 0;
#X connect 101 0 100 0;
#X connect 102 0 104 0;
#X connect 103 0 104 0;
#X connect 104 0 106 1;
#X connect 104 0 105 1;
#X connect 104 0 107 0;
#X connect 105 0 103 0;
#X connect 106 0 102 0;
#X connect 107 0 9 0;
#X connect 108 0 138 0;
#X connect 109 0 138 1;
#X connect 111 0 138 2;
#X connect 111 0 161 0;
#X connect 114 0 73 0;
#X connect 116 0 117 2;
#X connect 123 0 125 0;
#X connect 124 0 123 0;
#X connect 125 0 202 0;
#X connect 126 0 112 0;
#X connect 126 0 110 0;
#X connect 126 0 113 0;
#X connect 127 0 128 0;
#X connect 128 0 125 0;
#X connect 130 0 138 3;
#X connect 130 0 162 0;
#X connect 131 0 138 0;
#X connect 132 0 133 0;
#X connect 133 0 206 0;
#X connect 134 0 135 0;
#X connect 135 0 133 0;
#X connect 137 0 132 0;
#X connect 140 0 83 0;
#X connect 141 0 165 0;
#X connect 142 0 166 0;
#X connect 143 0 9 0;
#X connect 144 0 10 0;
#X connect 146 0 50 0;
#X connect 150 0 189 0;
#X connect 151 0 190 0;
#X connect 152 0 191 0;
#X connect 153 0 61 0;
#X connect 154 0 192 0;
#X connect 155 0 34 0;
#X connect 156 0 59 0;
#X connect 157 0 60 0;
#X connect 158 0 61 0;
#X connect 159 0 111 0;
#X connect 160 0 130 0;
#X connect 161 0 182 0;
#X connect 162 0 183 0;
#X connect 163 0 184 0;
#X connect 165 0 144 0;
#X connect 166 0 143 0;
#X connect 167 0 3 0;
#X connect 168 0 30 0;
#X connect 169 0 116 0;
#X connect 173 0 31 0;
#X connect 174 0 78 0;
#X connect 175 0 74 0;
#X connect 180 0 54 0;
#X connect 181 0 109 0;
#X connect 182 0 111 0;
#X connect 183 0 130 0;
#X connect 184 0 146 0;
#X connect 189 0 155 0;
#X connect 190 0 156 0;
#X connect 191 0 157 0;
#X connect 192 0 158 0;
#X connect 199 0 50 0;
#X connect 200 0 206 0;
#X connect 202 0 126 0;
#X connect 202 0 203 0;
#X connect 203 0 204 0;
#X connect 204 0 202 0;
#X connect 206 0 131 0;
#X connect 206 0 207 0;
#X connect 207 0 200 0;
#X connect 208 0 91 0;
#X connect 209 0 93 0;
#X connect 210 0 92 0;
#X connect 211 0 97 0;
#X connect 212 0 94 0;
#X connect 213 0 95 0;
#X connect 214 0 96 0;
#X connect 215 0 174 0;
#X connect 216 0 167 0;
#X connect 217 0 173 0;
#X connect 218 0 180 0;
#X connect 219 0 224 0;
#X connect 220 0 223 0;
#X connect 221 0 222 0;
#X connect 222 0 169 0;
#X connect 223 0 168 0;
#X connect 224 0 175 0;
#X connect 225 0 199 0;
#X connect 227 0 81 0;
#X connect 228 0 229 0;
#X connect 229 0 104 0;
#X connect 230 0 114 0;
#X connect 231 0 230 0;
#X connect 232 0 79 0;
#X connect 232 1 115 1;
#X connect 232 2 231 0;
#X connect 232 3 233 0;
#X connect 233 0 230 0;
#X coords 0 -1 1 1 450 250 2 620 70;
