#N canvas 1072 95 778 810 10;
#X msg 249 70 destroy;
#X obj 1462 59 Gem;
#X obj 41 678 gemhead;
#X obj 113 56 openpanel;
#X obj 113 15 bng 30 250 50 0 empty empty empty 17 7 0 10 -262144 -1
-1;
#X obj 189 844 dac~;
#X obj 113 130 readsf~ 3;
#X obj 193 105 tgl 25 0 empty empty empty 17 7 0 10 -262144 -1 -1 0
1;
#X msg 113 85 open \$1;
#X msg 193 76 0;
#N canvas 57 317 853 379 gemwin 0;
#X obj 67 117 outlet;
#X obj 67 10 inlet;
#X obj 67 41 route create;
#X msg 67 90 set destroy;
#X msg 203 62 set create;
#X msg 172 227 destroy \, reset;
#X obj 322 300 outlet;
#X msg 364 54 dimen 683 384 \, create \, 1;
#X obj 322 260 gemwin;
#X msg 232 162 dimen 1366 768 \, create \, 1;
#X connect 1 0 2 0;
#X connect 2 0 3 0;
#X connect 2 0 9 0;
#X connect 2 1 4 0;
#X connect 2 1 5 0;
#X connect 3 0 0 0;
#X connect 4 0 0 0;
#X connect 5 0 8 0;
#X connect 8 0 6 0;
#X connect 9 0 8 0;
#X restore 249 109 pd gemwin;
#X obj 171 678 gemhead;
#X obj 301 678 gemhead;
#X obj 1192 823 trader;
#X obj 1192 688 hradio 30 1 0 3 empty empty empty 0 -8 0 10 -262144
-1 -1 1;
#X obj 1225 782 hradio 30 1 0 7 empty empty empty 0 -8 0 10 -262144
-1 -1 1;
#X obj 1225 753 % 4;
#X obj 112 227 s~ channel0;
#X obj 131 198 s~ channel1;
#X obj 148 169 s~ channel2;
#X obj 1192 659 r to_trader1;
#X obj 1225 724 r to_trader2;
#X obj 88 775 r~ channel0;
#X obj 189 775 r~ channel1;
#X obj 290 775 r~ channel2;
#X obj 289 800 *~ 0.666;
#X obj 88 798 *~ 0.666;
#X obj 190 798 *~ 0.3;
#X obj 222 301 s amplitude0;
#X obj 268 272 s amplitude1;
#X obj 315 243 s amplitude2;
#X obj 210 482 s toggle_amp;
#X msg 210 453 0;
#X msg 210 424 1;
#X obj 210 395 loadbang;
#X obj 222 214 amplitude_slider;
#X msg 462 718 draw point;
#X text 152 15 OPEN AND PLAY \; SOUNDFILE;
#X obj 462 689 loadbang;
#X text 242 435 MAP AMPS LIN/EXP;
#X obj 53 123 noise~;
#X obj 53 152 *~;
#X obj 14 122 tgl 30 0 empty empty empty 17 7 0 10 -262144 -1 -1 0
1;
#X obj 249 19 bng 30 250 50 0 empty empty empty 17 7 0 10 -262144 -1
-1;
#X obj 1240 430 s circle_distance;
#X obj 1240 84 loadbang;
#X obj 1240 142 nbx 4 30 -1e+37 1e+37 0 0 empty empty empty 0 -8 0
25 -262144 -1 -1 3 256;
#X text 1270 114 SIZE;
#X obj 1240 183 s sphere_size_actual;
#X msg 1310 113 set \$1;
#X obj 1310 84 r sphere_size_actual_set;
#X obj 337 501 s reset_sphere_size;
#X obj 337 475 bng 15 250 50 0 empty empty empty 17 7 0 10 -262144
-1 -1;
#X obj 84 602 s wiggle_sphere0;
#X obj 205 602 s wiggle_sphere1;
#X obj 326 602 s wiggle_sphere2;
#X obj 84 576 bng 15 250 50 0 empty empty empty 17 7 0 10 -262144 -1
-1;
#X obj 205 576 bng 15 250 50 0 empty empty empty 17 7 0 10 -262144
-1 -1;
#X obj 326 576 bng 15 250 50 0 empty empty empty 17 7 0 10 -262144
-1 -1;
#X obj 1240 568 s speed;
#X obj 1240 469 loadbang;
#X obj 77 482 s lin_or_pol_motion;
#X obj 77 456 tgl 15 0 empty empty empty 17 7 0 10 -262144 -1 -1 1
1;
#X obj 77 398 loadbang;
#X msg 77 427 0;
#X msg 1240 113 1;
#X obj 198 546 bng 30 250 50 0 empty empty empty 17 7 0 10 -262144
-1 -1;
#X obj 1240 331 loadbang;
#X msg 1240 360 2;
#X obj 1240 292 s spin;
#X msg 1240 498 400;
#X obj 781 147 textfile;
#X obj 781 97 bng 30 250 50 0 empty empty empty 17 7 0 10 -262144 -1
-1;
#X msg 850 118 rewind;
#X obj 893 266 bng 15 250 50 0 empty empty empty 17 7 0 10 -262144
-1 -1;
#X obj 850 266 bng 15 250 50 0 empty empty empty 17 7 0 10 -262144
-1 -1;
#X obj 936 266 bng 15 250 50 0 empty empty empty 17 7 0 10 -262144
-1 -1;
#X obj 850 208 symbol;
#X obj 613 661 ctlin;
#X floatatom 617 806 5 0 0 0 - - -, f 5;
#X obj 617 848 s;
#X floatatom 678 806 5 0 0 0 - - -, f 5;
#X msg 678 830 symbol ctl-\$1;
#X obj 888 661 Fader 0 16 32 48 64;
#X obj 592 609 loadbang;
#X obj 598 632 s init-loadbang;
#X obj 592 776 Gate;
#X obj 592 757 tgl 15 0 empty empty empty 17 7 0 10 -262144 -1 -1 1
1;
#X obj 640 718 expr ($f2==43 & $f1==127);
#X obj 640 739 sel 1;
#X obj 613 689 t f f;
#X obj 678 679 t f f;
#X text 715 736 rewind button \; toggles controller \;;
#X obj 649 772 s sense-numb;
#X obj 888 833 Controller-Side_SF;
#X obj 888 682 Fader 1 17 33 49 65;
#X obj 888 704 Fader 2 18 34 50 66;
#X obj 888 725 Fader 3 19 35 51 67;
#X obj 888 747 Fader 4 20 36 52 68;
#X obj 888 768 Fader 5 21 37 53 69;
#X obj 888 790 Fader 6 22 38 54 70;
#X obj 888 811 Fader 7 23 39 55 71;
#X obj 1240 251 nbx 4 30 -1e+37 1e+37 0 0 empty empty empty 0 -8 0
25 -262144 -1 -1 0 256;
#X obj 1240 389 nbx 2 30 -1e+37 1e+37 0 0 empty empty empty 0 -8 0
25 -262144 -1 -1 2 256;
#X obj 1240 527 nbx 4 30 -1e+37 1e+37 0 0 empty empty empty 0 -8 0
25 -262144 -1 -1 400 256;
#X obj 1147 451 r fadertrim-3;
#X obj 1195 55 r fadertrim-0;
#X obj 1147 175 r fadertrim-1;
#X obj 1147 313 r fadertrim-2;
#X obj 1195 113 * 2;
#X obj 1195 84 / 400;
#X obj 1147 204 / 400;
#X obj 1147 342 / 400;
#X obj 1147 480 / 400;
#X obj 1147 509 * 5000;
#X obj 1147 233 * 6.28;
#X obj 1148 371 * 2.6;
#X obj 823 79 t b b;
#X obj 781 176 unpack f f s;
#X obj 714 405 ==;
#X obj 714 509 s start-instruction;
#X obj 805 451 s end-instruction;
#X obj 800 264 -;
#X obj 800 293 abs;
#X obj 785 412 del;
#X obj 714 463 t b b;
#X obj 773 215 t f f;
#X obj 714 434 sel 1;
#X text 847 282 This should LOAD next values \; for instruction;
#X text 912 453 Probably not used much;
#X text 839 511 Triggers instruction;
#X obj 540 213 timer;
#X obj 567 184 metro 50;
#X msg 540 155 tempo 50 msec;
#X obj 505 375 nbx 5 30 -1e+37 1e+37 0 0 empty empty empty 0 -8 0 25
-262144 -1 -1 0 256;
#X obj 462 137 loadbang;
#X obj 540 117 tgl 30 0 empty empty empty 17 7 0 10 -262144 -1 -1 0
1;
#X obj 545 328 -;
#X obj 559 302 spigot;
#X msg 586 240 1;
#X msg 614 245 0;
#X obj 532 256 t f f;
#X obj 647 212 sel 1;
#X obj 785 480 s trigger_next_textline;
#X obj 781 30 r trigger_next_textline;
#X obj 666 39 bng 40 250 50 0 empty empty empty 17 7 0 10 -261234 -1
-1;
#X msg 540 79 1;
#X obj 729 264 * 1000;
#X obj 729 293 / 50;
#X obj 729 322 int;
#X obj 171 707 translator-rotator 2;
#X obj 41 707 translator-rotator 1;
#X obj 301 707 translator-rotator 3;
#X msg 899 129 read \$1;
#X obj 899 100 openpanel;
#X obj 899 59 bng 30 250 50 0 empty empty empty 17 7 0 10 -262144 -1
-1;
#X msg 446 87 1;
#X floatatom 729 351 5 0 0 0 - - -, f 5;
#X floatatom 800 322 5 0 0 0 - - -, f 5;
#X obj 850 237 sel first second third;
#X obj 979 266 bng 15 250 50 0 empty empty empty 17 7 0 10 -262144
-1 -1;
#X text 361 71 attach to red button;
#X msg 1468 476 0;
#X obj 1610 505 line;
#X obj 1617 583 * 2;
#X obj 1522 369 bng 15 250 50 0 empty empty empty 17 7 0 10 -262144
-1 -1;
#X obj 1468 526 s circle_distance;
#X obj 1382 525 s to_trader2;
#X msg 1388 463 1;
#X obj 1520 411 t b b b;
#X obj 1650 579 * 1.5;
#X obj 1576 556 log;
#X obj 1560 586 * 3.14;
#X msg 1592 457 0 \, 1 10000;
#X obj 1453 677 r sbutton-0;
#X msg 1453 706 0;
#X msg 1615 706 2;
#X msg 1534 706 1;
#X msg 1453 764 3;
#X msg 1534 764 4;
#X msg 1616 764 5;
#X msg 1696 734 6;
#X obj 1534 677 r sbutton-1;
#X obj 1615 677 r sbutton-2;
#X obj 1453 735 r sbutton-3;
#X obj 1534 735 r sbutton-4;
#X obj 1615 735 r sbutton-5;
#X obj 1696 705 r sbutton-6;
#X obj 37 369 r sbutton-7;
#X obj 1059 595 bng 15 250 50 0 empty empty empty 17 7 0 10 -262144
-1 -1;
#X obj 1059 566 r markerforwardbutton;
#X obj 1098 624 bng 15 250 50 0 empty empty empty 17 7 0 10 -262144
-1 -1;
#X obj 1098 595 r markerbackbutton;
#X obj 1098 701 - 1;
#X obj 1059 659 + 1;
#X floatatom 1059 742 5 0 0 0 - - -, f 5;
#X obj 1059 630 f;
#X obj 1098 672 f;
#X obj 1057 796 % 3;
#X obj 367 904 gemhead;
#X obj 443 1040 scopeXYZ;
#X obj 458 902 *~;
#X obj 472 926 *~;
#X floatatom 548 856 5 0 0 0 - - -, f 5;
#X obj 458 863 osc~ 10;
#X msg 324 968 width 10;
#X obj 171 736 the_scope 1;
#X msg 296 996 draw point;
#X msg 463 818 0.5;
#X obj 462 759 bng 15 250 50 0 empty empty empty 17 7 0 10 -262144
-1 -1;
#X msg 528 924 0;
#X msg 502 831 0.25;
#X obj 494 897 osc~ 10;
#X obj 599 939 osc~ 330;
#X obj 474 982 +~;
#X obj 430 960 +~;
#X obj 599 985 osc~ 331;
#X floatatom 600 891 5 0 0 0 - - -, f 5;
#X floatatom 667 938 5 0 0 0 - - -, f 5;
#X obj 552 1029 *~ 0.1;
#X obj 542 989 *~ 0.1;
#X obj 650 913 + 1;
#X obj 41 736 the_scope 0;
#X obj 301 736 the_scope 2;
#X msg 751 930 0.5;
#X msg 740 968 0.25;
#X obj 749 893 bng 15 250 50 0 empty empty empty 17 7 0 10 -262144
-1 -1;
#X msg 226 1013 length 15000;
#X msg 28 854 length 10000;
#X connect 0 0 10 0;
#X connect 2 0 151 0;
#X connect 3 0 8 0;
#X connect 4 0 3 0;
#X connect 6 0 17 0;
#X connect 6 1 18 0;
#X connect 6 2 19 0;
#X connect 6 3 9 0;
#X connect 7 0 6 0;
#X connect 8 0 6 0;
#X connect 9 0 7 0;
#X connect 10 0 0 0;
#X connect 11 0 150 0;
#X connect 12 0 152 0;
#X connect 14 0 13 0;
#X connect 15 0 13 1;
#X connect 16 0 15 0;
#X connect 20 0 14 0;
#X connect 21 0 16 0;
#X connect 22 0 26 0;
#X connect 23 0 27 0;
#X connect 24 0 25 0;
#X connect 25 0 5 1;
#X connect 26 0 5 0;
#X connect 27 0 5 0;
#X connect 27 0 5 1;
#X connect 32 0 31 0;
#X connect 33 0 31 0;
#X connect 34 0 33 0;
#X connect 35 0 28 0;
#X connect 35 1 29 0;
#X connect 35 2 30 0;
#X connect 36 0 206 0;
#X connect 36 0 222 0;
#X connect 36 0 223 0;
#X connect 38 0 36 0;
#X connect 40 0 41 0;
#X connect 41 0 19 0;
#X connect 41 0 18 0;
#X connect 41 0 17 0;
#X connect 42 0 41 1;
#X connect 43 0 0 0;
#X connect 45 0 65 0;
#X connect 46 0 48 0;
#X connect 49 0 46 0;
#X connect 50 0 49 0;
#X connect 52 0 51 0;
#X connect 56 0 53 0;
#X connect 57 0 54 0;
#X connect 58 0 55 0;
#X connect 60 0 70 0;
#X connect 62 0 61 0;
#X connect 63 0 64 0;
#X connect 64 0 62 0;
#X connect 65 0 46 0;
#X connect 66 0 56 0;
#X connect 66 0 57 0;
#X connect 66 0 58 0;
#X connect 67 0 68 0;
#X connect 68 0 103 0;
#X connect 70 0 104 0;
#X connect 71 0 118 0;
#X connect 72 0 71 0;
#X connect 73 0 71 0;
#X connect 77 0 159 0;
#X connect 78 0 90 0;
#X connect 78 1 91 0;
#X connect 79 0 80 0;
#X connect 81 0 82 0;
#X connect 82 0 80 1;
#X connect 84 0 85 0;
#X connect 84 0 87 0;
#X connect 86 0 79 0;
#X connect 87 0 86 0;
#X connect 87 0 93 0;
#X connect 88 0 89 0;
#X connect 89 0 87 0;
#X connect 90 0 86 1;
#X connect 90 1 88 0;
#X connect 91 0 81 0;
#X connect 91 1 88 1;
#X connect 102 0 69 0;
#X connect 103 0 44 0;
#X connect 104 0 59 0;
#X connect 105 0 113 0;
#X connect 106 0 110 0;
#X connect 107 0 111 0;
#X connect 108 0 112 0;
#X connect 109 0 46 0;
#X connect 110 0 109 0;
#X connect 111 0 115 0;
#X connect 112 0 116 0;
#X connect 113 0 114 0;
#X connect 114 0 104 0;
#X connect 115 0 102 0;
#X connect 116 0 103 0;
#X connect 117 0 72 0;
#X connect 117 1 73 0;
#X connect 118 0 126 0;
#X connect 118 1 122 1;
#X connect 118 2 77 0;
#X connect 119 0 127 0;
#X connect 122 0 123 0;
#X connect 123 0 158 0;
#X connect 124 0 121 0;
#X connect 124 0 143 0;
#X connect 125 0 120 0;
#X connect 125 1 124 0;
#X connect 126 0 147 0;
#X connect 126 1 122 0;
#X connect 127 0 125 0;
#X connect 131 0 141 0;
#X connect 132 0 131 1;
#X connect 133 0 131 0;
#X connect 134 0 119 0;
#X connect 135 0 133 0;
#X connect 135 0 139 0;
#X connect 136 0 131 0;
#X connect 136 0 132 0;
#X connect 136 0 142 0;
#X connect 137 0 134 0;
#X connect 138 0 137 1;
#X connect 139 0 138 1;
#X connect 140 0 138 1;
#X connect 141 0 137 0;
#X connect 141 1 138 0;
#X connect 142 0 140 0;
#X connect 142 1 139 0;
#X connect 144 0 72 0;
#X connect 145 0 146 0;
#X connect 145 0 117 0;
#X connect 146 0 136 0;
#X connect 147 0 148 0;
#X connect 148 0 149 0;
#X connect 149 0 157 0;
#X connect 150 0 206 0;
#X connect 151 0 222 0;
#X connect 152 0 223 0;
#X connect 153 0 71 0;
#X connect 154 0 153 0;
#X connect 155 0 154 0;
#X connect 156 0 7 0;
#X connect 157 0 119 1;
#X connect 158 0 124 1;
#X connect 159 0 75 0;
#X connect 159 1 74 0;
#X connect 159 2 76 0;
#X connect 159 3 160 0;
#X connect 162 0 166 0;
#X connect 163 0 171 0;
#X connect 163 0 164 0;
#X connect 163 0 170 0;
#X connect 164 0 103 0;
#X connect 165 0 169 0;
#X connect 168 0 167 0;
#X connect 169 0 173 0;
#X connect 169 1 162 0;
#X connect 169 2 168 0;
#X connect 170 0 46 0;
#X connect 171 0 172 0;
#X connect 172 0 102 0;
#X connect 173 0 163 0;
#X connect 174 0 175 0;
#X connect 175 0 15 0;
#X connect 176 0 15 0;
#X connect 177 0 15 0;
#X connect 178 0 15 0;
#X connect 179 0 15 0;
#X connect 180 0 15 0;
#X connect 181 0 15 0;
#X connect 182 0 177 0;
#X connect 183 0 176 0;
#X connect 184 0 178 0;
#X connect 185 0 179 0;
#X connect 186 0 180 0;
#X connect 187 0 181 0;
#X connect 188 0 62 0;
#X connect 189 0 196 0;
#X connect 190 0 189 0;
#X connect 191 0 197 0;
#X connect 192 0 191 0;
#X connect 193 0 195 0;
#X connect 194 0 195 0;
#X connect 195 0 197 1;
#X connect 195 0 196 1;
#X connect 195 0 198 0;
#X connect 196 0 194 0;
#X connect 197 0 193 0;
#X connect 198 0 14 0;
#X connect 199 0 200 0;
#X connect 201 0 215 0;
#X connect 202 0 214 0;
#X connect 203 0 201 1;
#X connect 203 0 202 1;
#X connect 204 0 201 0;
#X connect 205 0 200 0;
#X connect 207 0 200 0;
#X connect 208 0 204 1;
#X connect 209 0 208 0;
#X connect 209 0 211 0;
#X connect 210 0 200 3;
#X connect 211 0 212 1;
#X connect 212 0 202 0;
#X connect 213 0 220 0;
#X connect 214 0 200 2;
#X connect 215 0 200 1;
#X connect 216 0 219 0;
#X connect 217 0 213 0;
#X connect 217 0 221 0;
#X connect 218 0 216 0;
#X connect 219 0 215 1;
#X connect 220 0 214 1;
#X connect 221 0 218 0;
#X connect 224 0 213 1;
#X connect 224 0 225 0;
#X connect 225 0 216 1;
#X connect 226 0 224 0;
#X connect 227 0 200 0;
#X connect 228 0 222 0;
#X connect 228 0 206 0;
#X connect 228 0 223 0;
