#N canvas 57 87 1863 993 10;
#X msg 560 289 destroy;
#X obj 1544 29 Gem;
#X obj 41 558 gemhead;
#X obj 179 181 bng 30 250 50 0 empty empty empty 17 7 0 10 -262144
-1 -1;
#X obj 1218 906 dac~;
#N canvas 57 317 853 379 gemwin 0;
#X obj 67 117 outlet;
#X obj 67 10 inlet;
#X obj 67 41 route create;
#X msg 67 90 set destroy;
#X msg 203 62 set create;
#X msg 172 227 destroy \, reset;
#X obj 322 300 outlet;
#X msg 364 54 dimen 683 384 \, create \, 1;
#X obj 322 260 gemwin;
#X msg 232 162 dimen 1366 768 \, create \, 1;
#X connect 1 0 2 0;
#X connect 2 0 3 0;
#X connect 2 0 9 0;
#X connect 2 1 4 0;
#X connect 2 1 5 0;
#X connect 3 0 0 0;
#X connect 4 0 0 0;
#X connect 5 0 8 0;
#X connect 8 0 6 0;
#X connect 9 0 8 0;
#X restore 560 318 pd gemwin;
#X obj 171 558 gemhead;
#X obj 301 558 gemhead;
#X obj 172 903 trader;
#X obj 172 768 hradio 30 1 0 3 empty empty empty 0 -8 0 10 -262144
-1 -1 0;
#X obj 205 862 hradio 30 1 0 7 empty empty empty 0 -8 0 10 -262144
-1 -1 3;
#X obj 205 833 % 4;
#X obj 172 739 r to_trader1;
#X obj 205 804 r to_trader2;
#X obj 1137 857 r~ channel0;
#X obj 1218 857 r~ channel1;
#X obj 1299 857 r~ channel2;
#X obj 1298 882 *~ 0.666;
#X obj 1137 880 *~ 0.666;
#X obj 1219 880 *~ 0.3;
#X obj 1490 864 s amplitude0;
#X obj 1536 845 s amplitude1;
#X obj 1583 826 s amplitude2;
#X obj 1411 232 s toggle_amp;
#X msg 1411 203 1;
#X obj 1411 174 loadbang;
#X obj 1490 807 amplitude_slider;
#X msg 446 598 draw point;
#X obj 446 569 loadbang;
#X text 1410 156 MAP AMPS LIN/EXP;
#X obj 115 181 tgl 30 0 empty empty empty 17 7 0 10 -262144 -1 -1 0
1;
#X obj 560 248 bng 30 250 50 0 empty empty empty 17 7 0 10 -262144
-1 -1;
#X obj 1280 325 nbx 4 30 -1e+37 1e+37 0 0 empty empty empty 0 -8 0
25 -262144 -1 -1 1.5 256;
#X obj 1280 366 s sphere_size_actual;
#X obj 1023 448 s wiggle_sphere0;
#X obj 1042 429 s wiggle_sphere1;
#X obj 1062 410 s wiggle_sphere2;
#X obj 46 505 s lin_or_pol_motion;
#X obj 46 479 tgl 15 0 empty empty empty 17 7 0 10 -262144 -1 -1 1
1;
#X obj 46 421 loadbang;
#X msg 46 450 0;
#X obj 1280 434 nbx 4 30 -1e+37 1e+37 0 0 empty empty empty 0 -8 0
25 -262144 -1 -1 0 256;
#X obj 1280 519 nbx 2 30 -1e+37 1e+37 0 0 empty empty empty 0 -8 0
25 -262144 -1 -1 2 256;
#X obj 1280 607 nbx 4 30 -1e+37 1e+37 0 0 empty empty empty 0 -8 0
25 -262144 -1 -1 1000 256;
#X obj 1187 531 r fadertrim-3;
#X obj 1225 198 r fadertrim-0;
#X obj 1187 358 r fadertrim-1;
#X obj 1187 443 r fadertrim-2;
#X obj 1225 307 * 2;
#X obj 1225 278 / 400;
#X obj 1187 387 / 400;
#X obj 1187 472 / 400;
#X obj 1187 560 / 400;
#X obj 1187 416 * 6.28;
#X obj 1188 501 * 2.6;
#X obj 337 258 nbx 5 30 -1e+37 1e+37 0 0 empty empty empty 0 -8 0 25
-262144 -1 -1 0 256;
#X obj 478 181 bng 30 250 50 0 empty empty empty 17 7 0 10 -262144
-1 -1;
#X msg 348 133 1;
#X msg 293 786 0;
#X msg 455 786 2;
#X msg 374 786 1;
#X msg 293 844 3;
#X msg 374 844 4;
#X msg 456 844 5;
#X msg 536 814 6;
#X obj 100 710 bng 15 250 50 0 empty empty empty 17 7 0 10 -262144
-1 -1;
#X obj 100 681 r markerforwardbutton;
#X obj 139 739 bng 15 250 50 0 empty empty empty 17 7 0 10 -262144
-1 -1;
#X obj 139 710 r markerbackbutton;
#X obj 139 814 - 1;
#X obj 100 803 + 1;
#X floatatom 100 832 5 0 0 0 - - -, f 5;
#X obj 100 774 f;
#X obj 139 785 f;
#X obj 100 860 % 3;
#X obj 905 828 gemhead;
#X floatatom 781 661 5 0 0 0 - - -, f 5;
#X floatatom 818 836 5 0 0 0 - - -, f 5;
#X obj 301 616 the_scope 2;
#X obj 337 229 timer_sfgem;
#X obj 337 299 instruction_reader_sfgem;
#X obj 244 181 tgl 30 0 empty empty empty 17 7 0 10 -262144 -1 -1 0
1;
#X obj 115 252 soundfile_player_sfgem;
#X text 113 162 NOISE;
#X text 166 162 OPEN REC;
#X text 233 162 PLAY REC;
#X text 458 164 OPEN LABELS;
#X text 45 402 LINEAR/POLAR;
#X obj 535 510 / 400;
#X obj 535 461 r fadertrim-7;
#X obj 535 539 * 20000;
#X msg 535 598 length \$1;
#X obj 591 492 loadbang;
#X msg 591 521 0.4;
#X text 523 442 STAY-TIME OF POINTS;
#X floatatom 902 713 5 0 0 0 - - -, f 5;
#X msg 984 857 length \$1;
#X obj 985 742 / 400;
#X obj 985 771 * 20000;
#X obj 1041 724 loadbang;
#X msg 1041 753 0.4;
#X text 973 676 STAY-TIME OF POINTS;
#X obj 985 695 r fadertrim-6;
#X obj 704 893 big_circle_sfgem, f 52;
#X obj 1188 820 controller_stuff_sfgem;
#X msg 205 326 set \$1;
#X msg 172 326 set \$1;
#X floatatom 172 369 5 0 0 0 - - -, f 5;
#X floatatom 205 369 5 0 0 0 - - -, f 5;
#X text 550 230 GEM WIN;
#X obj 46 176 tgl 15 0 empty empty empty 17 7 0 10 -262144 -1 -1 0
1;
#X text 778 530 BIG CIRCLE SIZE;
#X text 812 791 BIG CIRCLE FREQ;
#X text 899 632 BIG CIRCLE FREQ DIFFERENCE;
#X msg 1280 227 set \$1;
#X msg 1280 227 set \$1;
#X msg 1280 227 set \$1;
#X obj 1187 589 * 500;
#X msg 1280 227 set \$1;
#X floatatom 1280 275 5 0 0 0 - - -, f 5;
#X floatatom 1280 275 5 0 0 0 - - -, f 5;
#X floatatom 1280 275 5 0 0 0 - - -, f 5;
#X floatatom 1280 275 5 0 0 0 - - -, f 5;
#X obj 818 807 r fadertrim-4;
#X obj 902 655 r fadertrim-5;
#X msg 818 864 set \$1;
#X msg 902 684 set \$1;
#X msg 46 133 set \$1;
#X obj 651 131 cnv 15 448 248 empty empty empty 20 12 0 14 -233017
-66577 0;
#X obj 807 344 hradio 25 1 0 7 empty empty empty 0 -8 0 10 -262144
-1 -1 3;
#X obj 681 344 hradio 25 1 0 3 empty empty empty 0 -8 0 10 -262144
-1 -1 0;
#X obj 731 151 bng 30 250 50 0 empty empty empty 17 7 0 10 -262144
-1 -1;
#X obj 915 151 tgl 30 0 empty empty empty 17 7 0 10 -262144 -1 -1 0
1;
#X obj 976 151 tgl 30 0 empty empty empty 17 7 0 10 -262144 -1 -1 0
1;
#X text 913 132 NOISE;
#X text 718 132 OPEN REC;
#X text 965 132 PLAY REC;
#X obj 792 151 bng 30 250 50 0 empty empty empty 17 7 0 10 -262144
-1 -1;
#X obj 670 151 bng 30 250 50 0 empty empty empty 17 7 0 10 -262144
-1 -1;
#X obj 851 151 bng 40 250 50 0 empty empty empty 17 7 0 10 -261234
-1 -1;
#X text 783 132 GEM WIN;
#X text 846 132 PLAYBACK;
#X text 663 131 LABELS;
#X text 1019 325 WIGGLE;
#X obj 1023 344 bng 30 250 50 0 empty empty empty 17 7 0 10 -262144
-1 -1;
#X obj 661 298 nbx 3 25 -1e+37 1e+37 0 0 empty empty empty 0 -8 0 20
-262144 -1 -1 6.8 256;
#X obj 818 298 nbx 3 25 -1e+37 1e+37 0 0 empty empty empty 0 -8 0 20
-262144 -1 -1 349 256;
#X obj 902 298 nbx 3 25 -1e+37 1e+37 0 0 empty empty empty 0 -8 0 20
-262144 -1 -1 130 256;
#X obj 1030 151 tgl 25 0 empty empty empty 17 7 0 10 -262144 -1 -1
1 1;
#X text 1019 132 LIN/POL;
#X text 817 280 BIG C FREQ;
#X text 888 281 BIG C FREQ DIFF;
#X obj 663 245 nbx 3 30 -1e+37 1e+37 0 0 empty empty empty 0 -8 0 25
-262144 -1 -1 1.5 256;
#X obj 767 245 nbx 3 30 -1e+37 1e+37 0 0 empty empty empty 0 -8 0 25
-262144 -1 -1 0 256;
#X obj 881 245 nbx 3 30 -1e+37 1e+37 0 0 empty empty empty 0 -8 0 25
-262144 -1 -1 2 256;
#X obj 984 245 nbx 4 30 -1e+37 1e+37 0 0 empty empty empty 0 -8 0 25
-262144 -1 -1 1000 256;
#X text 704 329 SWAP;
#X text 836 328 TRADER PRESETS;
#X text 686 227 SIZE;
#X text 802 227 SPIN;
#X text 892 227 DISTANCE;
#X text 1012 227 SPEED;
#X obj 83 476 bng 15 250 50 0 empty empty empty 17 7 0 10 -262144 -1
-1;
#X obj 985 298 nbx 5 25 -1e+37 1e+37 0 0 empty empty empty 0 -8 0 20
-262144 -1 -1 10000 256;
#X text 986 280 STAY TIME;
#X floatatom 535 568 5 0 0 0 - - -, f 5;
#X msg 585 565 set \$1;
#X obj 814 195 nbx 5 30 -1e+37 1e+37 0 0 empty empty empty 0 -8 0 25
-262144 -1 -1 10000 256;
#X text 756 202 STAY TIME;
#X floatatom 985 829 5 0 0 0 - - -, f 5;
#X msg 985 800 set \$1;
#X obj 293 757 r rbutton-0;
#X obj 374 757 r rbutton-1;
#X obj 455 757 r rbutton-2;
#X obj 536 785 r rbutton-6;
#X obj 293 815 r rbutton-3;
#X obj 374 815 r rbutton-4;
#X obj 455 815 r rbutton-5;
#X obj 670 17 r sbutton-0;
#X obj 731 37 r sbutton-1;
#X obj 792 57 r sbutton-2;
#X obj 1110 326 r rbutton-7;
#X obj 852 77 r sbutton-3;
#X obj 915 27 r sbutton-4;
#X obj 976 47 r sbutton-5;
#X obj 976 76 bng 15 250 50 0 empty empty empty 17 7 0 10 -262144 -1
-1;
#X obj 915 56 bng 15 250 50 0 empty empty empty 17 7 0 10 -262144 -1
-1;
#X obj 852 106 bng 15 250 50 0 empty empty empty 17 7 0 10 -262144
-1 -1;
#X obj 83 447 r sbutton-6;
#X obj 63 738 loadbang;
#X msg 63 761 300;
#X obj 337 188 tgl 30 0 empty empty empty 17 7 0 10 -262144 -1 -1 0
1;
#X msg 422 233 1;
#X obj 388 189 t b b b b;
#X msg 439 211 0;
#X obj 337 369 instructor;
#X obj 1015 193 bng 15 250 50 0 empty empty empty 17 7 0 10 -262144
-1 -1;
#X text 1034 192 RESET;
#X msg 487 351 Reset;
#X obj 1023 391 t b b b;
#X obj 1160 175 loadbang;
#X obj 394 340 inlet;
#X text 376 322 To Test Presets;
#X obj 228 461 r lin_or_pol_inst;
#X obj 1457 589 r speed_inst;
#X obj 1419 307 r circle_size_inst;
#X obj 1450 416 r spin_inst;
#X obj 1457 501 r circle_distance_inst;
#X obj 1280 685 r speeds;
#X obj 1280 750 s speed_0;
#X obj 1290 730 s speed_1;
#X obj 1300 710 s speed_2;
#X obj 1563 560 r circle_distances;
#X obj 1563 627 s circle_distance_0;
#X obj 1573 607 s circle_distance_1;
#X obj 1587 587 s circle_distance_2;
#X obj 1280 475 s spins_all;
#X obj 1280 560 s circle_distances;
#X obj 1280 656 s speeds;
#X obj 451 689 r trader_preset;
#X obj 781 553 r big_circle_size;
#X msg 781 689 set \$1;
#X floatatom 704 729 5 0 0 0 - - -, f 5;
#X obj 465 48 r bigcircle_amplitude;
#X obj 171 616 the_scope 1;
#X obj 41 616 the_scope 0;
#X obj 802 582 r bigcircle_size_speed;
#X obj 802 603 liner_sfgem;
#X obj 781 632 pack;
#X obj 41 587 translator-rotator 0;
#X obj 301 587 translator-rotator 2;
#X obj 171 587 translator-rotator 1;
#X obj 740 298 nbx 3 25 -1e+37 1e+37 0 0 empty empty empty 0 -8 0 20
-262144 -1 -1 0.5 256;
#X text 739 280 BIG C AMP;
#X text 662 280 BIG C SIZE;
#X text 1137 39 SBUTTON IS STILL FREE;
#X obj 1377 750 s circle_distance_speed_0;
#X obj 1377 730 s circle_distance_speed_1;
#X obj 1377 710 s circle_distance_speed_2;
#X connect 0 0 5 0;
#X connect 2 0 229 0;
#X connect 3 0 82 1;
#X connect 5 0 0 0;
#X connect 6 0 231 0;
#X connect 7 0 230 0;
#X connect 9 0 8 0;
#X connect 9 0 106 0;
#X connect 10 0 8 1;
#X connect 10 0 105 0;
#X connect 11 0 10 0;
#X connect 12 0 9 0;
#X connect 13 0 11 0;
#X connect 14 0 18 0;
#X connect 15 0 19 0;
#X connect 16 0 17 0;
#X connect 17 0 4 1;
#X connect 18 0 4 0;
#X connect 19 0 4 0;
#X connect 19 0 4 1;
#X connect 24 0 23 0;
#X connect 25 0 24 0;
#X connect 26 0 20 0;
#X connect 26 1 21 0;
#X connect 26 2 22 0;
#X connect 27 0 78 0;
#X connect 27 0 224 0;
#X connect 27 0 225 0;
#X connect 28 0 27 0;
#X connect 30 0 82 0;
#X connect 31 0 0 0;
#X connect 32 0 33 0;
#X connect 32 0 114 0;
#X connect 38 0 37 0;
#X connect 38 0 127 0;
#X connect 39 0 40 0;
#X connect 40 0 38 0;
#X connect 41 0 115 0;
#X connect 41 0 216 0;
#X connect 42 0 116 0;
#X connect 42 0 217 0;
#X connect 43 0 118 0;
#X connect 43 0 218 0;
#X connect 44 0 52 0;
#X connect 45 0 49 0;
#X connect 46 0 50 0;
#X connect 47 0 51 0;
#X connect 48 0 32 0;
#X connect 49 0 48 0;
#X connect 50 0 53 0;
#X connect 51 0 54 0;
#X connect 52 0 117 0;
#X connect 53 0 41 0;
#X connect 54 0 42 0;
#X connect 55 0 80 0;
#X connect 56 0 80 2;
#X connect 57 0 133 0;
#X connect 58 0 10 0;
#X connect 59 0 10 0;
#X connect 60 0 10 0;
#X connect 61 0 10 0;
#X connect 62 0 10 0;
#X connect 63 0 10 0;
#X connect 64 0 10 0;
#X connect 65 0 72 0;
#X connect 66 0 65 0;
#X connect 67 0 73 0;
#X connect 68 0 67 0;
#X connect 69 0 71 0;
#X connect 70 0 71 0;
#X connect 71 0 73 1;
#X connect 71 0 72 1;
#X connect 71 0 74 0;
#X connect 72 0 70 0;
#X connect 73 0 69 0;
#X connect 74 0 9 0;
#X connect 75 0 103 4;
#X connect 76 0 103 1;
#X connect 76 0 221 0;
#X connect 77 0 103 2;
#X connect 77 0 125 0;
#X connect 79 0 55 0;
#X connect 80 0 195 0;
#X connect 81 0 82 2;
#X connect 88 0 90 0;
#X connect 89 0 88 0;
#X connect 90 0 165 0;
#X connect 91 0 78 0;
#X connect 91 0 224 0;
#X connect 91 0 225 0;
#X connect 92 0 93 0;
#X connect 93 0 90 0;
#X connect 95 0 103 3;
#X connect 95 0 126 0;
#X connect 96 0 103 4;
#X connect 97 0 98 0;
#X connect 98 0 169 0;
#X connect 99 0 100 0;
#X connect 100 0 98 0;
#X connect 102 0 97 0;
#X connect 105 0 129 0;
#X connect 106 0 130 0;
#X connect 107 0 9 0;
#X connect 108 0 10 0;
#X connect 110 0 38 0;
#X connect 114 0 152 0;
#X connect 115 0 153 0;
#X connect 116 0 154 0;
#X connect 117 0 43 0;
#X connect 118 0 155 0;
#X connect 119 0 32 0;
#X connect 120 0 41 0;
#X connect 121 0 42 0;
#X connect 122 0 43 0;
#X connect 123 0 77 0;
#X connect 124 0 95 0;
#X connect 125 0 146 0;
#X connect 126 0 147 0;
#X connect 127 0 148 0;
#X connect 129 0 108 0;
#X connect 130 0 107 0;
#X connect 131 0 3 0;
#X connect 132 0 30 0;
#X connect 133 0 81 0;
#X connect 137 0 31 0;
#X connect 138 0 56 0;
#X connect 139 0 193 0;
#X connect 144 0 199 0;
#X connect 145 0 76 0;
#X connect 146 0 77 0;
#X connect 147 0 95 0;
#X connect 148 0 110 0;
#X connect 152 0 119 0;
#X connect 153 0 120 0;
#X connect 154 0 121 0;
#X connect 155 0 122 0;
#X connect 162 0 38 0;
#X connect 163 0 169 0;
#X connect 165 0 91 0;
#X connect 165 0 166 0;
#X connect 166 0 167 0;
#X connect 167 0 165 0;
#X connect 169 0 96 0;
#X connect 169 0 170 0;
#X connect 170 0 163 0;
#X connect 171 0 58 0;
#X connect 172 0 60 0;
#X connect 173 0 59 0;
#X connect 174 0 64 0;
#X connect 175 0 61 0;
#X connect 176 0 62 0;
#X connect 177 0 63 0;
#X connect 178 0 138 0;
#X connect 179 0 131 0;
#X connect 180 0 137 0;
#X connect 181 0 144 0;
#X connect 182 0 187 0;
#X connect 183 0 186 0;
#X connect 184 0 185 0;
#X connect 185 0 133 0;
#X connect 186 0 132 0;
#X connect 187 0 139 0;
#X connect 188 0 162 0;
#X connect 189 0 190 0;
#X connect 190 0 71 0;
#X connect 191 0 79 0;
#X connect 192 0 191 0;
#X connect 193 0 57 0;
#X connect 193 1 80 1;
#X connect 193 2 192 0;
#X connect 193 3 194 0;
#X connect 194 0 191 0;
#X connect 196 0 198 0;
#X connect 198 0 195 1;
#X connect 199 0 34 0;
#X connect 199 1 35 0;
#X connect 199 2 36 0;
#X connect 200 0 196 0;
#X connect 201 0 195 1;
#X connect 203 0 38 0;
#X connect 204 0 43 0;
#X connect 205 0 32 0;
#X connect 206 0 41 0;
#X connect 207 0 42 0;
#X connect 208 0 209 0;
#X connect 208 0 210 0;
#X connect 208 0 211 0;
#X connect 208 0 236 0;
#X connect 208 0 237 0;
#X connect 208 0 238 0;
#X connect 212 0 213 0;
#X connect 212 0 214 0;
#X connect 212 0 215 0;
#X connect 219 0 10 0;
#X connect 220 0 228 0;
#X connect 221 0 145 0;
#X connect 222 0 103 0;
#X connect 223 0 232 0;
#X connect 226 0 227 0;
#X connect 227 0 228 1;
#X connect 228 0 76 0;
#X connect 229 0 225 0;
#X connect 230 0 78 0;
#X connect 231 0 224 0;
#X connect 232 0 222 0;
#X coords 0 -1 1 1 450 250 2 650 130;
