#N canvas 67 160 1695 823 10;
#X obj 213 787 Gem;
#X obj 122 790 dac~;
#X obj 50 723 r~ channel0;
#X obj 131 723 r~ channel1;
#X obj 212 723 r~ channel2;
#X obj 211 748 *~ 0.666;
#X obj 50 746 *~ 0.666;
#X obj 132 746 *~ 0.3;
#X obj 28 595 controller_stuff_sfgem;
#X obj 21 131 cnv 15 1298 379 empty empty empty 20 12 0 14 -233017
-66577 0;
#X obj 931 383 hradio 30 1 0 5 empty empty empty 0 -8 0 10 -262144
-1 -1 1;
#X obj 830 383 hradio 30 1 0 3 empty empty empty 0 -8 0 10 -262144
-1 -1 2;
#X obj 890 172 bng 30 250 50 0 empty empty empty 17 7 0 10 -262144
-1 -1;
#X obj 1055 172 tgl 30 0 empty empty empty 17 7 0 10 -262144 -1 -1
0 1;
#X obj 1106 172 tgl 30 0 empty empty empty 17 7 0 10 -262144 -1 -1
0 1;
#X text 1053 153 NOISE;
#X text 1096 153 PLAY REC;
#X obj 941 172 bng 30 250 50 0 empty empty empty 17 7 0 10 -262144
-1 -1;
#X obj 830 172 bng 30 250 50 0 empty empty empty 17 7 0 10 -262144
-1 -1;
#X obj 990 172 bng 30 250 50 0 empty empty empty 17 7 0 10 -261234
-1 -1;
#X text 932 153 GEM WIN;
#X text 985 153 PLAYBACK;
#X text 562 357 SIZE;
#X text 38 285 SPIN;
#X obj 292 603 stay_time_translator_rotator_router_sfgem;
#X obj 830 91 r swap_2pnl;
#X obj 931 91 r trade_2pnl;
#X obj 830 651 s swap;
#X obj 1476 413 s trade;
#X obj 1332 202 load_run_buttons_and_instruction_reader_router_sfgem
;
#X obj 1215 172 tgl 30 0 empty empty empty 17 7 0 10 -262144 -1 -1
0 1;
#X obj 1215 630 s mirror_on_off;
#X obj 1167 172 tgl 30 0 empty empty empty 17 7 0 10 -262144 -1 -1
0 1;
#X text 1157 153 REC VID;
#X obj 1167 655 s record_video;
#X obj 1215 69 r mirror_on_off_receive;
#X obj 1501 111 r instruction_bypass;
#X obj 1030 666 s timer_on_off;
#X msg 1030 637 0;
#X obj 1030 185 bng 15 250 50 0 empty empty empty 17 7 0 10 -262144
-1 -1;
#X text 1022 170 Stop;
#X obj 1106 91 r play_rec;
#X obj 1483 584 tgl 30 0 empty empty empty 17 7 0 10 -262144 -1 -1
0 1;
#X text 1528 578 TOGGLE AMP;
#X obj 1483 625 s toggle_amp;
#X text 811 152 LOAD LABELS;
#X text 882 152 LOAD REC;
#X text 297 211 X-VALUE ADD;
#X text 296 285 Y-VALUE ADD;
#X text 33 212 POLAR ADD;
#X text 297 358 CARTESIAN MULT;
#X text 560 285 Y-VALUE ABSOLUTE;
#X obj 1260 479 hradio 25 1 0 2 empty empty empty 0 -8 0 10 -262144
-1 -1 0;
#X msg 1347 461 0;
#X obj 31 229 polar_add_subpatch;
#X obj 294 229 x_value_add_subpatch;
#X obj 294 374 cartesian_multiplication_subpatch;
#X obj 557 229 x_value_absolute_subpatch;
#X obj 557 302 y_value_absolute_subpatch;
#X obj 557 374 size_subpatch;
#X obj 1347 432 loadbang;
#X text 562 430 STAYTIME;
#X text 297 431 PHASE OFFSET;
#X text 34 431 ROTATION;
#X obj 294 302 y_value_add_subpatch;
#X obj 557 448 staytime_subpatch;
#X obj 33 448 rotation_subpatch;
#X obj 294 447 phase_offset_subpatch;
#X text 1214 153 MIRROR;
#X obj 33 302 spin_subpatch 16 17 18;
#X obj 31 374 cent_spin_subpatch;
#X text 561 212 X-VALUE ABSOLUTE;
#X text 35 357 ORBIT;
#X obj 1260 578 s ctrl_or_comp;
#X obj 632 792 trader;
#X obj 665 704 r trade;
#X obj 600 708 r swap;
#X obj 31 141 x_y_absolute_subpatch 0;
#X obj 294 141 x_y_absolute_subpatch 1;
#X obj 557 141 x_y_absolute_subpatch 2;
#X connect 2 0 6 0;
#X connect 3 0 7 0;
#X connect 4 0 5 0;
#X connect 5 0 1 1;
#X connect 6 0 1 0;
#X connect 7 0 1 0;
#X connect 7 0 1 1;
#X connect 10 0 28 0;
#X connect 11 0 27 0;
#X connect 12 0 29 1;
#X connect 13 0 29 4;
#X connect 14 0 29 5;
#X connect 17 0 29 2;
#X connect 18 0 29 0;
#X connect 19 0 29 3;
#X connect 25 0 11 0;
#X connect 26 0 10 0;
#X connect 30 0 31 0;
#X connect 32 0 34 0;
#X connect 35 0 30 0;
#X connect 38 0 37 0;
#X connect 39 0 38 0;
#X connect 41 0 14 0;
#X connect 42 0 44 0;
#X connect 52 0 73 0;
#X connect 53 0 52 0;
#X connect 60 0 53 0;
#X connect 75 0 74 1;
#X connect 76 0 74 0;
#X coords 0 -1 1 1 1300 380 1 20 130;
