#N canvas 1182 103 690 501 10;
#X msg 1029 90 destroy;
#X obj 1502 84 Gem;
#X obj 30 594 gemhead;
#X obj 139 57 openpanel;
#X obj 139 16 bng 30 250 50 0 empty empty empty 17 7 0 10 -262144 -1
-1;
#X obj 288 780 dac~;
#X obj 139 131 readsf~ 3;
#X obj 219 106 tgl 25 0 empty empty empty 17 7 0 10 -262144 -1 -1 0
1;
#X msg 139 86 open \$1;
#X msg 219 77 0;
#N canvas 57 317 853 379 gemwin 0;
#X obj 67 117 outlet;
#X obj 67 10 inlet;
#X obj 67 41 route create;
#X msg 67 90 set destroy;
#X msg 203 62 set create;
#X msg 172 227 destroy \, reset;
#X obj 322 300 outlet;
#X msg 364 54 dimen 683 384 \, create \, 1;
#X obj 322 260 gemwin;
#X msg 232 162 dimen 1366 768 \, create \, 1;
#X connect 1 0 2 0;
#X connect 2 0 3 0;
#X connect 2 0 9 0;
#X connect 2 1 4 0;
#X connect 2 1 5 0;
#X connect 3 0 0 0;
#X connect 4 0 0 0;
#X connect 5 0 8 0;
#X connect 8 0 6 0;
#X connect 9 0 8 0;
#X restore 1029 129 pd gemwin;
#X obj 290 594 gemhead;
#X obj 550 594 gemhead;
#X obj 371 208 s speed;
#X floatatom 371 180 5 0 0 0 - - -, f 5;
#X obj 30 471 unpack f f f f f f f;
#X obj 30 515 pack f f f;
#X obj 105 515 pack f f f;
#X obj 165 489 s phase1;
#X obj 30 435 r toring1;
#X obj 290 471 unpack f f f f f f f;
#X obj 290 515 pack f f f;
#X obj 365 515 pack f f f;
#X obj 425 489 s phase2;
#X obj 290 435 r toring2;
#X obj 550 471 unpack f f f f f f f;
#X obj 550 515 pack f f f;
#X obj 625 515 pack f f f;
#X obj 550 435 r toring3;
#X obj 1337 629 trader;
#X obj 1337 494 hradio 30 1 0 3 empty empty empty 0 -8 0 10 -262144
-1 -1 1;
#X obj 385 555 s rotator2;
#X obj 30 555 s translator1;
#X obj 125 555 s rotator1;
#X obj 290 555 s translator2;
#X obj 550 555 s translator3;
#X obj 645 555 s rotator3;
#X obj 1370 588 hradio 30 1 0 5 empty empty empty 0 -8 0 10 -262144
-1 -1 2;
#X obj 355 92 notein;
#X obj 371 121 / 127;
#X obj 371 151 * 800;
#X msg 355 295 0;
#X msg 370 266 1;
#X msg 385 295 2;
#X obj 355 237 sel 0 2 4 5 7 9 11;
#X obj 416 57 metro;
#X obj 396 16 tgl 30 0 empty empty empty 17 7 0 10 -262144 -1 -1 0
1;
#X obj 488 192 statfeed;
#X msg 533 163 8;
#X msg 488 221 \$1 \$1;
#X obj 1370 559 % 4;
#X obj 488 75 random 10;
#X obj 488 104 / 9;
#X obj 30 652 the_scope 0;
#X obj 138 228 s~ channel0;
#X obj 157 199 s~ channel1;
#X obj 174 170 s~ channel2;
#X obj 1337 465 r to_trader1;
#X obj 1370 530 r to_trader2;
#X msg 401 266 3;
#X msg 415 295 4;
#X msg 431 266 5;
#X msg 445 295 6;
#X obj 489 328 s to_trader1;
#X obj 533 301 s to_trader2;
#X obj 355 365 s to_trader1;
#X obj 401 336 s to_trader2;
#X obj 443 28 r speed;
#X obj 187 711 r~ channel0;
#X obj 288 711 r~ channel1;
#X obj 389 711 r~ channel2;
#X obj 388 736 *~ 0.666;
#X obj 187 734 *~ 0.666;
#X obj 289 734 *~ 0.3;
#X obj 685 489 s phase3;
#X obj 552 116 loadbang;
#X obj 748 146 s amplitude0;
#X obj 794 117 s amplitude1;
#X obj 841 88 s amplitude2;
#X obj 30 623 translator-rotator 1;
#X obj 1325 120 s toggle_amp;
#X msg 1325 91 0;
#X msg 1325 62 1;
#X obj 1325 33 loadbang;
#X obj 748 59 amplitude_slider;
#X obj 748 18 tgl 30 0 empty empty empty 17 7 0 10 -262144 -1 -1 1
1;
#X obj 681 240 s toggle_amp_slider;
#X obj 681 214 tgl 15 0 empty empty empty 17 7 0 10 -262144 -1 -1 1
1;
#X obj 810 284 s slide_metro_time;
#X floatatom 810 198 5 0 0 0 - - -, f 5;
#X obj 873 255 s max_amp;
#X floatatom 873 198 5 0 0 0 - - -, f 5;
#X obj 926 226 s amp_amt_slide;
#X floatatom 926 198 5 0 0 0 - - -, f 5;
#X obj 290 652 the_scope 1;
#X obj 550 652 the_scope 2;
#X obj 886 604 s scale_translation;
#X obj 886 505 loadbang;
#X obj 681 151 loadbang;
#X msg 810 169 3000;
#X obj 1127 604 s sphere_size;
#X obj 1127 506 loadbang;
#X msg 926 169 5;
#X msg 873 169 10;
#X text 916 536 SPACING;
#X msg 711 634 draw point;
#X text 178 16 OPEN AND PLAY \; SOUNDFILE;
#X obj 711 605 loadbang;
#X obj 886 563 nbx 3 30 -1e+37 1e+37 0 0 empty empty empty 0 -8 0 25
-262144 -1 -1 3.05 256;
#X text 1357 73 MAP AMPS LIN/EXP;
#X obj 1127 563 nbx 2 30 -1e+37 1e+37 0 0 empty empty empty 0 -8 0
25 -262144 -1 -1 1.06 256;
#X text 698 259 1 OR 3 SIZES;
#X text 1157 535 SIZE;
#X obj 488 260 route 0 1 2 3 4 5 6 7 8 9;
#X msg 510 134 10;
#X obj 79 124 noise~;
#X obj 79 153 *~;
#X obj 40 123 tgl 30 0 empty empty empty 17 7 0 10 -262144 -1 -1 1
1;
#X obj 416 133 random 4000;
#X obj 416 162 + 4000;
#X obj 1029 39 bng 30 250 50 0 empty empty empty 17 7 0 10 -262144
-1 -1;
#X msg 886 534 2;
#X msg 1127 534 2;
#X floatatom 1125 388 5 0 0 0 - - -, f 5;
#X obj 1104 437 s circle_location1;
#X obj 897 412 s circle_distance;
#X floatatom 898 376 5 0 0 0 - - -, f 5;
#X floatatom 1245 388 5 0 0 0 - - -, f 5;
#X floatatom 1365 388 5 0 0 0 - - -, f 5;
#X obj 1224 437 s circle_location2;
#X obj 1344 437 s circle_location3;
#X obj 290 623 translator-rotator 2;
#X obj 550 623 translator-rotator 3;
#X connect 0 0 10 0;
#X connect 2 0 79 0;
#X connect 3 0 8 0;
#X connect 4 0 3 0;
#X connect 6 0 54 0;
#X connect 6 1 55 0;
#X connect 6 2 56 0;
#X connect 6 3 9 0;
#X connect 7 0 6 0;
#X connect 8 0 6 0;
#X connect 9 0 7 0;
#X connect 10 0 0 0;
#X connect 11 0 131 0;
#X connect 12 0 132 0;
#X connect 14 0 13 0;
#X connect 15 0 16 0;
#X connect 15 1 16 1;
#X connect 15 2 16 2;
#X connect 15 3 17 0;
#X connect 15 4 17 1;
#X connect 15 5 17 2;
#X connect 15 6 18 0;
#X connect 16 0 32 0;
#X connect 17 0 33 0;
#X connect 19 0 15 0;
#X connect 20 0 21 0;
#X connect 20 1 21 1;
#X connect 20 2 21 2;
#X connect 20 3 22 0;
#X connect 20 4 22 1;
#X connect 20 5 22 2;
#X connect 20 6 23 0;
#X connect 21 0 34 0;
#X connect 22 0 31 0;
#X connect 24 0 20 0;
#X connect 25 0 26 0;
#X connect 25 1 26 1;
#X connect 25 2 26 2;
#X connect 25 3 27 0;
#X connect 25 4 27 1;
#X connect 25 5 27 2;
#X connect 25 6 74 0;
#X connect 26 0 35 0;
#X connect 27 0 36 0;
#X connect 28 0 25 0;
#X connect 30 0 29 0;
#X connect 37 0 29 1;
#X connect 38 0 44 0;
#X connect 38 1 39 0;
#X connect 39 0 40 0;
#X connect 40 0 14 0;
#X connect 41 0 65 0;
#X connect 42 0 65 0;
#X connect 43 0 65 0;
#X connect 44 0 41 0;
#X connect 44 1 42 0;
#X connect 44 2 43 0;
#X connect 44 3 59 0;
#X connect 44 4 60 0;
#X connect 44 5 61 0;
#X connect 44 6 62 0;
#X connect 45 0 51 0;
#X connect 45 0 118 0;
#X connect 46 0 45 0;
#X connect 47 0 49 0;
#X connect 48 0 47 2;
#X connect 49 0 113 0;
#X connect 50 0 37 0;
#X connect 51 0 52 0;
#X connect 52 0 47 0;
#X connect 57 0 30 0;
#X connect 58 0 50 0;
#X connect 59 0 66 0;
#X connect 60 0 66 0;
#X connect 61 0 66 0;
#X connect 62 0 66 0;
#X connect 67 0 45 1;
#X connect 68 0 72 0;
#X connect 69 0 73 0;
#X connect 70 0 71 0;
#X connect 71 0 5 1;
#X connect 72 0 5 0;
#X connect 73 0 5 0;
#X connect 73 0 5 1;
#X connect 75 0 114 0;
#X connect 75 0 48 0;
#X connect 79 0 53 0;
#X connect 81 0 80 0;
#X connect 82 0 80 0;
#X connect 83 0 82 0;
#X connect 84 0 76 0;
#X connect 84 1 77 0;
#X connect 84 2 78 0;
#X connect 85 0 84 0;
#X connect 87 0 86 0;
#X connect 89 0 88 0;
#X connect 91 0 90 0;
#X connect 93 0 92 0;
#X connect 97 0 121 0;
#X connect 98 0 99 0;
#X connect 98 0 103 0;
#X connect 98 0 102 0;
#X connect 98 0 87 0;
#X connect 99 0 89 0;
#X connect 101 0 122 0;
#X connect 102 0 93 0;
#X connect 103 0 91 0;
#X connect 105 0 53 0;
#X connect 105 0 94 0;
#X connect 105 0 95 0;
#X connect 107 0 105 0;
#X connect 108 0 96 0;
#X connect 110 0 100 0;
#X connect 113 0 63 0;
#X connect 113 1 63 0;
#X connect 113 2 63 0;
#X connect 113 3 64 0;
#X connect 113 4 64 0;
#X connect 113 5 64 0;
#X connect 113 6 64 0;
#X connect 113 7 64 0;
#X connect 114 0 47 1;
#X connect 115 0 116 0;
#X connect 116 0 56 0;
#X connect 116 0 55 0;
#X connect 116 0 54 0;
#X connect 117 0 116 1;
#X connect 118 0 119 0;
#X connect 119 0 14 0;
#X connect 120 0 0 0;
#X connect 121 0 108 0;
#X connect 122 0 110 0;
#X connect 123 0 124 0;
#X connect 126 0 125 0;
#X connect 127 0 129 0;
#X connect 128 0 130 0;
#X connect 131 0 94 0;
#X connect 132 0 95 0;
