#N canvas 224 438 1666 835 10;
#X msg 1219 38 destroy;
#X obj 50 39 Gem;
#X obj 1219 10 inlet;
#X obj 88 664 gemhead;
#X obj 1220 358 pix_record;
#X msg 1219 122 codeclist;
#X msg 1270 221 file /home/joshua/Desktop/Github_Repos/Statfeed_PD_Controller/Statfeed_PD_Controller_GEM-Center/whatever3.mp4
;
#X obj 1189 174 bng 15 250 50 0 empty empty empty 0 -6 0 8 -258699
-1 -1;
#N canvas 0 50 450 300 savepanel 0;
#X obj 114 62 inlet;
#X obj 114 254 outlet;
#X obj 114 199 t b a;
#X obj 114 125 savepanel;
#X msg 114 162 set file \$1;
#X connect 0 0 3 0;
#X connect 2 0 1 0;
#X connect 2 1 1 0;
#X connect 3 0 4 0;
#X connect 4 0 2 0;
#X restore 1270 189 pd savepanel;
#X msg 1219 156 record \$1;
#X obj 1189 141 tgl 15 0 empty empty empty 0 -6 0 8 -262144 -1 -1 0
1;
#X obj 1219 256 t a;
#X floatatom 1248 387 5 0 0 0 - - -, f 5;
#X obj 139 147 openpanel;
#X obj 139 121 bng 15 250 50 0 empty empty empty 17 7 0 10 -262144
-1 -1;
#X obj 1358 760 dac~;
#X obj 139 221 readsf~ 3;
#X obj 219 196 tgl 25 0 empty empty empty 17 7 0 10 -262144 -1 -1 0
1;
#X msg 139 176 open \$1;
#X msg 219 167 0;
#X obj 1307 376 print;
#X obj 1220 302 pix_texture;
#X obj 1220 330 pix_rectangle;
#X msg 1219 94 codec 20;
#X obj 1270 274 pix_video;
#N canvas 67 317 853 379 gemwin 0;
#X obj 67 117 outlet;
#X obj 67 10 inlet;
#X obj 67 41 route create;
#X msg 67 90 set destroy;
#X msg 203 62 set create;
#X msg 172 227 destroy \, reset;
#X obj 322 300 outlet;
#X msg 22 162 dimen 683 384 \, create \, 1;
#X obj 56 246 gemwin;
#X obj 529 139 expr (1366 * 1.5);
#X obj 608 68 bng 15 250 50 0 empty empty empty 17 7 0 10 -262144 -1
-1;
#X floatatom 697 231 5 0 0 0 - - -, f 5;
#X floatatom 531 217 5 0 0 0 - - -, f 5;
#X obj 659 139 expr (768 * 1.5);
#X msg 232 162 dimen 1366 768 \, create \, 1;
#X connect 1 0 2 0;
#X connect 2 0 3 0;
#X connect 2 0 14 0;
#X connect 2 1 4 0;
#X connect 2 1 5 0;
#X connect 3 0 0 0;
#X connect 4 0 0 0;
#X connect 5 0 8 0;
#X connect 8 0 6 0;
#X connect 9 0 12 0;
#X connect 10 0 9 0;
#X connect 10 0 13 0;
#X connect 13 0 11 0;
#X connect 14 0 8 0;
#X restore 1219 66 pd gemwin;
#X obj 348 664 gemhead;
#X obj 608 664 gemhead;
#X obj 397 218 s speed;
#X floatatom 397 190 5 0 0 0 - - -, f 5;
#X obj 88 511 unpack f f f f f f f;
#X obj 88 555 pack f f f;
#X obj 163 555 pack f f f;
#X obj 236 529 s phase1;
#X obj 88 475 r toring1;
#X obj 348 511 unpack f f f f f f f;
#X obj 348 555 pack f f f;
#X obj 423 555 pack f f f;
#X obj 496 529 s phase2;
#X obj 348 475 r toring2;
#X obj 608 511 unpack f f f f f f f;
#X obj 608 555 pack f f f;
#X obj 683 555 pack f f f;
#X obj 608 475 r toring3;
#X obj 1369 613 trader;
#X obj 1369 503 hradio 15 1 0 3 empty empty empty 0 -8 0 10 -262144
-1 -1 2;
#X obj 443 595 s rotator2;
#X obj 88 595 s translator1;
#X obj 183 595 s rotator1;
#X obj 348 595 s translator2;
#X obj 608 595 s translator3;
#X obj 703 595 s rotator3;
#X obj 1402 587 hradio 15 1 0 4 empty empty empty 0 -8 0 10 -262144
-1 -1 1;
#X obj 381 53 notein;
#X obj 397 98 / 127;
#X obj 397 128 * 800;
#X msg 381 315 0;
#X msg 396 286 1;
#X msg 411 315 2;
#X obj 381 257 sel 0 2 4 5 7 9 11;
#X obj 470 67 metro;
#X obj 470 41 tgl 15 0 empty empty empty 17 7 0 10 -262144 -1 -1 0
1;
#X obj 555 260 statfeed;
#X msg 600 231 8;
#X msg 555 289 \$1 \$1;
#X obj 1402 558 % 4;
#X obj 555 328 route 0 1 2 3 4 5 6 7 8 9;
#X msg 577 202 10;
#X obj 555 143 random 10;
#X obj 555 172 / 9;
#X obj 470 172 + 200;
#X obj 470 143 random 400;
#X obj 88 762 the_scope 0;
#X obj 138 318 s~ channel0;
#X obj 157 289 s~ channel1;
#X obj 174 260 s~ channel2;
#X obj 1369 474 r to_trader1;
#X obj 1402 529 r to_trader2;
#X msg 427 286 3;
#X msg 441 315 4;
#X msg 457 286 5;
#X msg 471 315 6;
#X obj 556 396 s to_trader1;
#X obj 600 367 s to_trader2;
#X obj 381 385 s to_trader1;
#X obj 427 356 s to_trader2;
#X obj 497 38 r speed;
#X obj 1257 691 r~ channel0;
#X obj 1358 691 r~ channel1;
#X obj 1459 691 r~ channel2;
#X obj 1458 716 *~ 0.666;
#X obj 1257 714 *~ 0.666;
#X obj 1359 714 *~ 0.3;
#X obj 763 525 s phase3;
#X obj 619 184 loadbang;
#X obj 814 262 s amplitude0;
#X obj 860 233 s amplitude1;
#X obj 907 204 s amplitude2;
#X msg 749 643 draw point;
#X obj 88 713 translator-rotator 1;
#X obj 348 713 translator-rotator 2;
#X obj 608 713 translator-rotator 3;
#X obj 1555 582 s toggle_amp;
#X msg 1518 526 0;
#X msg 1555 526 1;
#X obj 1518 473 loadbang;
#X obj 814 175 amplitude_slider;
#X obj 814 124 tgl 30 0 empty empty empty 17 7 0 10 -262144 -1 -1 1
1;
#X obj 829 376 s toggle_amp_slider;
#X obj 829 350 tgl 15 0 empty empty empty 17 7 0 10 -262144 -1 -1 1
1;
#X obj 876 350 s slide_metro_time;
#X floatatom 876 322 5 0 0 0 - - -, f 5;
#X obj 939 321 s max_amp;
#X floatatom 939 293 5 0 0 0 - - -, f 5;
#X obj 992 292 s amp_amt_slide;
#X floatatom 992 264 5 0 0 0 - - -, f 5;
#X obj 348 762 the_scope 1;
#X obj 608 762 the_scope 2;
#X connect 0 0 25 0;
#X connect 2 0 0 0;
#X connect 3 0 99 0;
#X connect 4 0 20 0;
#X connect 4 1 12 0;
#X connect 4 2 20 0;
#X connect 5 0 11 0;
#X connect 6 0 11 0;
#X connect 7 0 8 0;
#X connect 8 0 6 0;
#X connect 9 0 11 0;
#X connect 10 0 9 0;
#X connect 11 0 4 0;
#X connect 13 0 18 0;
#X connect 14 0 13 0;
#X connect 16 0 73 0;
#X connect 16 1 74 0;
#X connect 16 2 75 0;
#X connect 16 3 19 0;
#X connect 17 0 16 0;
#X connect 18 0 16 0;
#X connect 19 0 17 0;
#X connect 21 0 22 0;
#X connect 22 0 4 0;
#X connect 23 0 11 0;
#X connect 24 0 21 0;
#X connect 25 0 0 0;
#X connect 25 1 24 0;
#X connect 26 0 100 0;
#X connect 27 0 101 0;
#X connect 29 0 28 0;
#X connect 30 0 31 0;
#X connect 30 1 31 1;
#X connect 30 2 31 2;
#X connect 30 3 32 0;
#X connect 30 4 32 1;
#X connect 30 5 32 2;
#X connect 30 6 33 0;
#X connect 31 0 47 0;
#X connect 32 0 48 0;
#X connect 34 0 30 0;
#X connect 35 0 36 0;
#X connect 35 1 36 1;
#X connect 35 2 36 2;
#X connect 35 3 37 0;
#X connect 35 4 37 1;
#X connect 35 5 37 2;
#X connect 35 6 38 0;
#X connect 36 0 49 0;
#X connect 37 0 46 0;
#X connect 39 0 35 0;
#X connect 40 0 41 0;
#X connect 40 1 41 1;
#X connect 40 2 41 2;
#X connect 40 3 42 0;
#X connect 40 4 42 1;
#X connect 40 5 42 2;
#X connect 40 6 93 0;
#X connect 41 0 50 0;
#X connect 42 0 51 0;
#X connect 43 0 40 0;
#X connect 45 0 44 0;
#X connect 52 0 44 1;
#X connect 53 0 59 0;
#X connect 53 1 54 0;
#X connect 54 0 55 0;
#X connect 55 0 29 0;
#X connect 56 0 84 0;
#X connect 57 0 84 0;
#X connect 58 0 84 0;
#X connect 59 0 56 0;
#X connect 59 1 57 0;
#X connect 59 2 58 0;
#X connect 59 3 78 0;
#X connect 59 4 79 0;
#X connect 59 5 80 0;
#X connect 59 6 81 0;
#X connect 60 0 68 0;
#X connect 60 0 71 0;
#X connect 61 0 60 0;
#X connect 62 0 64 0;
#X connect 63 0 62 2;
#X connect 64 0 66 0;
#X connect 65 0 52 0;
#X connect 66 0 82 0;
#X connect 66 1 82 0;
#X connect 66 2 82 0;
#X connect 66 3 83 0;
#X connect 66 4 83 0;
#X connect 66 5 83 0;
#X connect 66 6 83 0;
#X connect 67 0 62 1;
#X connect 68 0 69 0;
#X connect 69 0 62 0;
#X connect 70 0 29 0;
#X connect 71 0 70 0;
#X connect 76 0 45 0;
#X connect 77 0 65 0;
#X connect 78 0 85 0;
#X connect 79 0 85 0;
#X connect 80 0 85 0;
#X connect 81 0 85 0;
#X connect 86 0 60 1;
#X connect 87 0 91 0;
#X connect 88 0 92 0;
#X connect 89 0 90 0;
#X connect 90 0 15 1;
#X connect 91 0 15 0;
#X connect 92 0 15 0;
#X connect 92 0 15 1;
#X connect 94 0 67 0;
#X connect 94 0 63 0;
#X connect 98 0 72 0;
#X connect 98 0 116 0;
#X connect 98 0 117 0;
#X connect 99 0 72 0;
#X connect 100 0 116 0;
#X connect 101 0 117 0;
#X connect 103 0 102 0;
#X connect 104 0 102 0;
#X connect 105 0 103 0;
#X connect 106 0 95 0;
#X connect 106 1 96 0;
#X connect 106 2 97 0;
#X connect 107 0 106 0;
#X connect 109 0 108 0;
#X connect 111 0 110 0;
#X connect 113 0 112 0;
#X connect 115 0 114 0;
