#N canvas 67 385 880 655 10;
#X obj 300 212 textfile;
#X obj 300 162 bng 30 250 50 0 empty empty empty 17 7 0 10 -262144
-1 -1;
#X msg 369 183 rewind;
#X obj 342 144 t b b;
#X obj 252 520 s start-instruction;
#X obj 316 478 s end-instruction;
#X obj 319 329 -;
#X obj 319 358 abs;
#X obj 316 449 del;
#X obj 292 280 t f f;
#X obj 233 461 sel 1;
#X text 423 480 Probably not used much;
#X obj 233 542 s trigger_next_textline;
#X obj 300 115 r trigger_next_textline;
#X obj 418 165 openpanel;
#X floatatom 248 404 5 0 0 0 - - -, f 5;
#X floatatom 319 387 5 0 0 0 - - -, f 5;
#X obj 418 78 inlet;
#X obj 342 78 inlet;
#X obj 233 78 inlet;
#X obj 319 415 * 1000;
#X text 737 82 Make the label time difference a variable. Use it to
determine speed of the movements.;
#X floatatom 233 210 5 0 0 0 - - -, f 5;
#X obj 379 433 s current_instruction_length;
#X obj 233 432 >=;
#X obj 233 490 t b b b;
#X obj 446 326 outlet;
#X obj 601 259 s timer_on_off;
#X msg 601 230 0;
#X msg 519 193 write temp_labels.txt;
#X msg 418 194 read \$1;
#X obj 519 163 bng 15 250 50 0 empty empty empty 17 7 0 10 -262144
-1 -1;
#X text 540 161 Save current labels;
#X obj 700 248 s play_rec;
#X obj 300 241 unpack f f s f f f f;
#X text 447 305 aux 0;
#X obj 497 326 outlet;
#X obj 548 326 outlet;
#X obj 599 326 outlet;
#X text 497 305 aux 1;
#X text 549 305 aux 2;
#X text 599 305 aux 3;
#X obj 389 374 s current_instruction;
#X connect 0 0 34 0;
#X connect 0 1 28 0;
#X connect 1 0 0 0;
#X connect 2 0 0 0;
#X connect 3 0 1 0;
#X connect 3 1 2 0;
#X connect 6 0 7 0;
#X connect 7 0 16 0;
#X connect 8 0 5 0;
#X connect 9 0 15 0;
#X connect 9 1 6 0;
#X connect 10 0 25 0;
#X connect 13 0 1 0;
#X connect 14 0 30 0;
#X connect 15 0 24 1;
#X connect 16 0 20 0;
#X connect 17 0 14 0;
#X connect 18 0 3 0;
#X connect 19 0 22 0;
#X connect 20 0 8 1;
#X connect 20 0 23 0;
#X connect 22 0 24 0;
#X connect 24 0 10 0;
#X connect 25 0 12 0;
#X connect 25 1 4 0;
#X connect 25 2 8 0;
#X connect 28 0 27 0;
#X connect 28 0 33 0;
#X connect 29 0 0 0;
#X connect 30 0 0 0;
#X connect 31 0 29 0;
#X connect 34 0 9 0;
#X connect 34 1 6 1;
#X connect 34 2 42 0;
#X connect 34 3 26 0;
#X connect 34 4 36 0;
#X connect 34 5 37 0;
#X connect 34 6 38 0;
