#N canvas 67 337 1477 550 10;
#X obj 23 7 inlet;
#X obj 105 474 outlet;
#X obj 117 454 outlet;
#X obj 128 514 outlet;
#X obj 140 494 outlet;
#X obj 152 474 outlet;
#X obj 164 454 outlet;
#X obj 34 514 outlet;
#X obj 46 494 outlet;
#X obj 58 474 outlet;
#X obj 70 454 outlet;
#X obj 81 515 outlet;
#X obj 93 495 outlet;
#X obj 23 454 outlet;
#X obj 23 365 r inst_out_0;
#X obj 101 365 r inst_out_4;
#X obj 181 365 r inst_out_8;
#X obj 261 365 r inst_out_12;
#X obj 92 386 r inst_out_3;
#X obj 171 385 r inst_out_7;
#X obj 251 385 r inst_out_11;
#X obj 81 405 r inst_out_2;
#X obj 161 405 r inst_out_6;
#X obj 241 405 r inst_out_10;
#X obj 71 425 r inst_out_1;
#X obj 151 425 r inst_out_5;
#X obj 231 425 r inst_out_9;
#X obj 23 75 reset_preset_sfgem, f 40;
#X obj 23 46 sel reset expand random random_metro, f 223;
#X obj 23 97 preset_outlets_router, f 40;
#X obj 356 97 preset_outlets_router, f 40;
#X obj 356 75 expand_preset_sfgem, f 40;
#X obj 690 97 preset_outlets_router, f 40;
#X obj 690 75 random_locations_preset_sfgem, f 40;
#X obj 1024 97 preset_outlets_router, f 40;
#X obj 1024 75 random_locations_preset_metro_sfgem, f 40;
#X obj 23 197 preset_outlets_router, f 40;
#X obj 356 197 preset_outlets_router, f 40;
#X obj 690 197 preset_outlets_router, f 40;
#X obj 23 175 big_circle_appear_preset_sfgem, f 40;
#X obj 356 175 face_preset_sfgem, f 40;
#X obj 690 175 contract_preset_sfgem, f 40;
#X obj 23 146 sel big_circle_appear face contract return, f 223;
#X obj 1024 197 preset_outlets_router, f 40;
#X obj 1024 175 return_preset_sfgem, f 40;
#X obj 23 297 preset_outlets_router, f 40;
#X obj 356 297 preset_outlets_router, f 40;
#X obj 690 297 preset_outlets_router, f 40;
#X obj 1024 297 preset_outlets_router, f 40;
#X obj 356 275, f 40;
#X obj 690 275, f 40;
#X obj 1024 275, f 40;
#X obj 23 246 sel horizontal something something2 something3, f 223
;
#X obj 23 275 horizontal_preset_sfgem, f 40;
#X connect 0 0 28 0;
#X connect 0 0 42 0;
#X connect 0 0 52 0;
#X connect 14 0 13 0;
#X connect 15 0 10 0;
#X connect 16 0 2 0;
#X connect 17 0 6 0;
#X connect 18 0 9 0;
#X connect 19 0 1 0;
#X connect 20 0 5 0;
#X connect 21 0 8 0;
#X connect 22 0 12 0;
#X connect 23 0 4 0;
#X connect 24 0 7 0;
#X connect 25 0 11 0;
#X connect 26 0 3 0;
#X connect 27 0 29 0;
#X connect 27 1 29 1;
#X connect 27 2 29 2;
#X connect 27 3 29 3;
#X connect 27 4 29 4;
#X connect 27 5 29 5;
#X connect 27 6 29 6;
#X connect 27 7 29 7;
#X connect 27 8 29 8;
#X connect 27 9 29 9;
#X connect 27 10 29 10;
#X connect 27 11 29 11;
#X connect 27 12 29 12;
#X connect 28 0 27 0;
#X connect 28 1 31 0;
#X connect 28 2 33 0;
#X connect 28 3 35 0;
#X connect 31 0 30 0;
#X connect 31 1 30 1;
#X connect 31 2 30 2;
#X connect 31 3 30 3;
#X connect 31 4 30 4;
#X connect 31 5 30 5;
#X connect 31 6 30 6;
#X connect 31 7 30 7;
#X connect 31 8 30 8;
#X connect 31 9 30 9;
#X connect 31 10 30 10;
#X connect 31 11 30 11;
#X connect 31 12 30 12;
#X connect 33 0 32 0;
#X connect 33 1 32 1;
#X connect 33 2 32 2;
#X connect 33 3 32 3;
#X connect 33 4 32 4;
#X connect 33 5 32 5;
#X connect 33 6 32 6;
#X connect 33 7 32 7;
#X connect 33 8 32 8;
#X connect 33 9 32 9;
#X connect 33 10 32 10;
#X connect 33 11 32 11;
#X connect 33 12 32 12;
#X connect 35 0 34 0;
#X connect 35 1 34 1;
#X connect 35 2 34 2;
#X connect 35 3 34 3;
#X connect 35 4 34 4;
#X connect 35 5 34 5;
#X connect 35 6 34 6;
#X connect 35 7 34 7;
#X connect 35 8 34 8;
#X connect 35 9 34 9;
#X connect 35 10 34 10;
#X connect 35 11 34 11;
#X connect 35 12 34 12;
#X connect 39 0 36 0;
#X connect 39 1 36 1;
#X connect 39 2 36 2;
#X connect 39 3 36 3;
#X connect 39 4 36 4;
#X connect 39 5 36 5;
#X connect 39 6 36 6;
#X connect 39 7 36 7;
#X connect 39 8 36 8;
#X connect 39 9 36 9;
#X connect 39 10 36 10;
#X connect 39 11 36 11;
#X connect 39 12 36 12;
#X connect 40 0 37 0;
#X connect 40 1 37 1;
#X connect 40 2 37 2;
#X connect 40 3 37 3;
#X connect 40 4 37 4;
#X connect 40 5 37 5;
#X connect 40 6 37 6;
#X connect 40 7 37 7;
#X connect 40 8 37 8;
#X connect 40 9 37 9;
#X connect 40 10 37 10;
#X connect 40 11 37 11;
#X connect 40 12 37 12;
#X connect 41 0 38 0;
#X connect 41 1 38 1;
#X connect 41 2 38 2;
#X connect 41 3 38 3;
#X connect 41 4 38 4;
#X connect 41 5 38 5;
#X connect 41 6 38 6;
#X connect 41 7 38 7;
#X connect 41 8 38 8;
#X connect 41 9 38 9;
#X connect 41 10 38 10;
#X connect 41 11 38 11;
#X connect 41 12 38 12;
#X connect 42 0 39 0;
#X connect 42 1 40 0;
#X connect 42 2 41 0;
#X connect 42 3 44 0;
#X connect 44 0 43 0;
#X connect 44 1 43 1;
#X connect 44 2 43 2;
#X connect 44 3 43 3;
#X connect 44 4 43 4;
#X connect 44 5 43 5;
#X connect 44 6 43 6;
#X connect 44 7 43 7;
#X connect 44 8 43 8;
#X connect 44 9 43 9;
#X connect 44 10 43 10;
#X connect 44 11 43 11;
#X connect 44 12 43 12;
#X connect 49 0 46 0;
#X connect 49 1 46 1;
#X connect 49 2 46 2;
#X connect 49 3 46 3;
#X connect 49 4 46 4;
#X connect 49 5 46 5;
#X connect 49 6 46 6;
#X connect 49 7 46 7;
#X connect 49 8 46 8;
#X connect 49 9 46 9;
#X connect 49 10 46 10;
#X connect 49 11 46 11;
#X connect 49 12 46 12;
#X connect 50 0 47 0;
#X connect 50 1 47 1;
#X connect 50 2 47 2;
#X connect 50 3 47 3;
#X connect 50 4 47 4;
#X connect 50 5 47 5;
#X connect 50 6 47 6;
#X connect 50 7 47 7;
#X connect 50 8 47 8;
#X connect 50 9 47 9;
#X connect 50 10 47 10;
#X connect 50 11 47 11;
#X connect 50 12 47 12;
#X connect 51 0 48 0;
#X connect 51 1 48 1;
#X connect 51 2 48 2;
#X connect 51 3 48 3;
#X connect 51 4 48 4;
#X connect 51 5 48 5;
#X connect 51 6 48 6;
#X connect 51 7 48 7;
#X connect 51 8 48 8;
#X connect 51 9 48 9;
#X connect 51 10 48 10;
#X connect 51 11 48 11;
#X connect 51 12 48 12;
#X connect 52 0 53 0;
#X connect 52 1 49 0;
#X connect 52 2 50 0;
#X connect 52 3 51 0;
#X connect 53 0 45 0;
#X connect 53 1 45 1;
#X connect 53 2 45 2;
#X connect 53 3 45 3;
#X connect 53 4 45 4;
#X connect 53 5 45 5;
#X connect 53 6 45 6;
#X connect 53 7 45 7;
#X connect 53 8 45 8;
#X connect 53 9 45 9;
#X connect 53 10 45 10;
#X connect 53 11 45 11;
#X connect 53 12 45 12;
