#N canvas 67 402 1610 678 10;
#X obj 23 78 inlet;
#X obj 105 442 outlet;
#X obj 117 422 outlet;
#X obj 128 482 outlet;
#X obj 140 462 outlet;
#X obj 152 442 outlet;
#X obj 23 121 sel Reset FadeIn Turn180 Vertical, f 107;
#X obj 164 422 outlet;
#X obj 34 482 outlet;
#X obj 46 462 outlet;
#X obj 58 442 outlet;
#X obj 70 422 outlet;
#X obj 81 483 outlet;
#X obj 93 463 outlet;
#X obj 23 422 outlet;
#X obj 23 152 reset_preset_sfgem, f 24;
#X obj 182 152 FadeIn, f 24;
#X connect 0 0 6 0;
#X connect 6 0 15 0;
#X connect 6 1 16 0;
#X connect 15 0 14 0;
#X connect 15 1 8 0;
#X connect 15 2 9 0;
#X connect 15 3 10 0;
#X connect 15 4 11 0;
#X connect 15 5 12 0;
#X connect 15 6 13 0;
#X connect 15 7 1 0;
#X connect 15 8 2 0;
#X connect 15 9 3 0;
#X connect 15 10 4 0;
#X connect 15 11 5 0;
#X connect 15 12 7 0;
#X connect 16 0 14 0;
#X connect 16 1 8 0;
#X connect 16 2 9 0;
#X connect 16 3 10 0;
#X connect 16 4 11 0;
#X connect 16 5 12 0;
#X connect 16 6 13 0;
#X connect 16 7 1 0;
#X connect 16 8 2 0;
#X connect 16 9 3 0;
#X connect 16 10 4 0;
#X connect 16 11 5 0;
#X connect 16 12 7 0;
