#N canvas 297 204 1610 678 10;
#X obj 23 78 inlet;
#X obj 23 622 outlet;
#X obj 38 602 outlet;
#X obj 54 582 outlet;
#X obj 70 562 outlet;
#X obj 86 542 outlet;
#X obj 265 150 t b b b;
#X obj 507 150 t b b b;
#X obj 749 150 t b b b;
#X obj 23 121 sel Reset FadeIn Turn180 Vertical, f 162;
#X msg 86 229 -1 -1 1 0;
#X msg 546 173 -1 -1 -1 -1;
#X msg 788 173 -1 -1 -1 -1;
#X msg 304 173 -1 -1 -1 5000;
#X msg 70 249;
#X msg 54 269 -1 -1 -1;
#X msg 265 330 -1 -1 -1;
#X msg 507 330 -1 -1 -1;
#X msg 749 330 -1 -1 -1;
#X msg 38 289;
#X msg 23 309;
#X text 1209 317 TRADER PRESETS: 0 CENTER \; 1 FACE (LINEAR) \; 2 TRIANGLE
(LINEAR) \; 3 HORIZONTAL \; 4 VERTICAL \; 5 FACE (POLAR) \; 6 TRIANGLE
(POLAR) \;;
#X obj 23 150 t b b b b b b, f 14;
#X obj 104 522 outlet;
#X msg 104 209 -1 -1 -1;
#X text 1204 60 1 Speed All \; 2 speed 2 \; 3 speed 1 \; 4 speed 0
\; 5 sphere size speed 2 \; 6 sphere size speed 1 \; 7 sphere size
speed 0 \; 8 circle distance speed 2 \; 9 circle distance speed 1 \;
10 circle distance speed 0 \; 11 big circle size speed \;;
#X text 1296 231 1 Wiggle \; 2 Stay amount \; 3 Linear/Polar \; 4 Rotate
Forward \; 5 Rotate Back;
#X text 1308 418 1 Spin All \; 2 Distance All \; 3 Size (All);
#X text 1209 474 1 Spin 2 \; 2 Spin 1 \; 3 Spin 0 \; 4 Circle distance
2 \; 5 Circle distance 1 \; 6 Circle distance 0;
#X text 1260 563 1 big circle amplitude \; 2 big stay amount \; 3 big
difference \; 4 big frequency \; 5 big size;
#X connect 0 0 9 0;
#X connect 6 0 16 0;
#X connect 6 2 13 0;
#X connect 7 0 17 0;
#X connect 7 2 11 0;
#X connect 8 0 18 0;
#X connect 8 2 12 0;
#X connect 9 0 22 0;
#X connect 9 1 6 0;
#X connect 9 2 7 0;
#X connect 9 3 8 0;
#X connect 10 0 5 0;
#X connect 14 0 4 0;
#X connect 15 0 3 0;
#X connect 19 0 2 0;
#X connect 20 0 1 0;
#X connect 22 0 20 0;
#X connect 22 1 19 0;
#X connect 22 2 15 0;
#X connect 22 3 14 0;
#X connect 22 4 10 0;
#X connect 22 5 24 0;
#X connect 24 0 23 0;
