#N canvas 1028 89 927 991 10;
#X obj 43 7 inlet;
#X obj 118 830 outlet;
#X obj 130 810 outlet;
#X obj 141 870 outlet;
#X obj 153 850 outlet;
#X obj 165 830 outlet;
#X obj 177 810 outlet;
#X obj 47 870 outlet;
#X obj 59 850 outlet;
#X obj 71 830 outlet;
#X obj 83 810 outlet;
#X obj 94 870 outlet;
#X obj 106 850 outlet;
#X obj 36 810 outlet;
#X obj 239 792 r inst_out_0;
#X obj 317 792 r inst_out_4;
#X obj 397 792 r inst_out_8;
#X obj 477 792 r inst_out_12;
#X obj 228 812 r inst_out_3;
#X obj 307 812 r inst_out_7;
#X obj 387 812 r inst_out_11;
#X obj 217 832 r inst_out_2;
#X obj 297 832 r inst_out_6;
#X obj 377 832 r inst_out_10;
#X obj 207 852 r inst_out_1;
#X obj 287 852 r inst_out_5;
#X obj 367 852 r inst_out_9;
#X obj 43 75 reset_preset_sfgem, f 40;
#X obj 43 97 preset_outlets_router, f 40;
#X obj 1096 97 preset_outlets_router, f 40;
#X obj 1096 75 random_locations_preset_metro_sfgem, f 40;
#X obj 604 822 preset_outlets_router, f 40;
#X obj 569 177 preset_outlets_router, f 40;
#X obj 604 800 big_circle_appear_preset_sfgem, f 40;
#X obj 569 155 contract_preset_sfgem, f 40;
#X obj 832 177 preset_outlets_router, f 40;
#X obj 569 97 preset_outlets_router, f 40;
#X obj 833 97 preset_outlets_router, f 40;
#X obj 832 155 horizontal_preset_sfgem, f 40;
#X obj 569 75 expand_random_preset_sfgem, f 40;
#X obj 833 75 expand_stabilize_preset_sfgem, f 40;
#X obj 43 257 preset_outlets_router, f 40;
#X obj 306 257 preset_outlets_router, f 40;
#X obj 43 235 vertical_preset_sfgem, f 40;
#X obj 43 177 preset_outlets_router, f 40;
#X obj 306 97 preset_outlets_router, f 40;
#X obj 43 155 wind_up_1_preset_sfgem, f 40;
#X obj 306 177 preset_outlets_router, f 40;
#X obj 306 155 unwind_1_preset_sfgem, f 40;
#X obj 43 126 sel wind_up_1 unwind_1 contract horizontal, f 176;
#X obj 569 257 preset_outlets_router, f 40;
#X obj 832 257 preset_outlets_router, f 40;
#X obj 569 235 wind_up_2_preset_sfgem, f 40;
#X obj 832 235 unwind_2_preset_sfgem, f 40;
#X obj 43 206 sel vertical triangle wind_up_2 unwind_2, f 176;
#X text 96 25 OVERTURE;
#X text 114 298 WINDY;
#X obj 43 367 preset_outlets_router, f 40;
#X obj 306 75 center_preset_sfgem, f 40;
#X obj 43 345 expand_simple_preset_sfgem, f 40;
#X obj 298 367 preset_outlets_router, f 40;
#X obj 298 345 facial_preset_sfgem, f 40;
#X obj 554 367 preset_outlets_router, f 40;
#X obj 810 367 preset_outlets_router, f 40;
#X obj 810 345 unwind_simple_preset_sfgem, f 40;
#X obj 43 316 sel expand_simple facial wind_up_simple unwind_simple
, f 171;
#X obj 43 447 preset_outlets_router, f 40;
#X obj 43 425 scuff_preset_sfgem, f 40;
#X obj 299 447 preset_outlets_router, f 40;
#X obj 555 447 preset_outlets_router, f 40;
#X obj 555 425 variabletrade_preset_sfgem, f 40;
#X obj 811 447 preset_outlets_router, f 40;
#X obj 811 425 variableswap_preset_sfgem, f 40;
#X obj 43 396 sel scuff variablespin variabletrade variableswap linpol
, f 214;
#X obj 1067 447 preset_outlets_router, f 40;
#X obj 1067 425 linpol_preset_sfgem, f 40;
#X text 110 489 ORBIT;
#X obj 298 557 preset_outlets_router, f 40;
#X obj 554 345 wind_up_simple_preset_sfgem, f 40;
#X obj 306 235 triangle_preset_sfgem, f 40;
#X obj 43 557 preset_outlets_router, f 40;
#X obj 43 46 sel reset center expand_random stabilize random_locations
, f 220;
#X obj 299 425 variable_spin_preset_sfgem, f 40;
#X obj 554 557 preset_outlets_router, f 40;
#X obj 554 535 mirror_triangle_preset_sfgem, f 40;
#X obj 43 606 sel null null null null, f 171;
#X obj 43 535 wind_up_3_preset_sfgem, f 40;
#X obj 43 506 sel wind_up_3 unwind_3 mirror_triangle facial2, f 171
;
#X obj 298 535 unwind_3_preset_sfgem, f 40;
#X connect 0 0 49 0;
#X connect 0 0 54 0;
#X connect 0 0 65 0;
#X connect 0 0 73 0;
#X connect 0 0 81 0;
#X connect 0 0 85 0;
#X connect 0 0 87 0;
#X connect 14 0 13 0;
#X connect 15 0 10 0;
#X connect 16 0 2 0;
#X connect 17 0 6 0;
#X connect 18 0 9 0;
#X connect 19 0 1 0;
#X connect 20 0 5 0;
#X connect 21 0 8 0;
#X connect 22 0 12 0;
#X connect 23 0 4 0;
#X connect 24 0 7 0;
#X connect 25 0 11 0;
#X connect 26 0 3 0;
#X connect 27 0 28 0;
#X connect 27 1 28 1;
#X connect 27 2 28 2;
#X connect 27 3 28 3;
#X connect 27 4 28 4;
#X connect 27 5 28 5;
#X connect 27 6 28 6;
#X connect 27 7 28 7;
#X connect 27 8 28 8;
#X connect 27 9 28 9;
#X connect 27 10 28 10;
#X connect 27 11 28 11;
#X connect 27 12 28 12;
#X connect 30 0 29 0;
#X connect 30 1 29 1;
#X connect 30 2 29 2;
#X connect 30 3 29 3;
#X connect 30 4 29 4;
#X connect 30 5 29 5;
#X connect 30 6 29 6;
#X connect 30 7 29 7;
#X connect 30 8 29 8;
#X connect 30 9 29 9;
#X connect 30 10 29 10;
#X connect 30 11 29 11;
#X connect 30 12 29 12;
#X connect 33 0 31 0;
#X connect 33 1 31 1;
#X connect 33 2 31 2;
#X connect 33 3 31 3;
#X connect 33 4 31 4;
#X connect 33 5 31 5;
#X connect 33 6 31 6;
#X connect 33 7 31 7;
#X connect 33 8 31 8;
#X connect 33 9 31 9;
#X connect 33 10 31 10;
#X connect 33 11 31 11;
#X connect 33 12 31 12;
#X connect 34 0 32 0;
#X connect 34 1 32 1;
#X connect 34 2 32 2;
#X connect 34 3 32 3;
#X connect 34 4 32 4;
#X connect 34 5 32 5;
#X connect 34 6 32 6;
#X connect 34 7 32 7;
#X connect 34 8 32 8;
#X connect 34 9 32 9;
#X connect 34 10 32 10;
#X connect 34 11 32 11;
#X connect 34 12 32 12;
#X connect 38 0 35 0;
#X connect 38 1 35 1;
#X connect 38 2 35 2;
#X connect 38 3 35 3;
#X connect 38 4 35 4;
#X connect 38 5 35 5;
#X connect 38 6 35 6;
#X connect 38 7 35 7;
#X connect 38 8 35 8;
#X connect 38 9 35 9;
#X connect 38 10 35 10;
#X connect 38 11 35 11;
#X connect 38 12 35 12;
#X connect 39 0 36 0;
#X connect 39 1 36 1;
#X connect 39 2 36 2;
#X connect 39 3 36 3;
#X connect 39 4 36 4;
#X connect 39 5 36 5;
#X connect 39 6 36 6;
#X connect 39 7 36 7;
#X connect 39 8 36 8;
#X connect 39 9 36 9;
#X connect 39 10 36 10;
#X connect 39 11 36 11;
#X connect 39 12 36 12;
#X connect 40 0 37 0;
#X connect 40 1 37 1;
#X connect 40 2 37 2;
#X connect 40 3 37 3;
#X connect 40 4 37 4;
#X connect 40 5 37 5;
#X connect 40 6 37 6;
#X connect 40 7 37 7;
#X connect 40 8 37 8;
#X connect 40 9 37 9;
#X connect 40 10 37 10;
#X connect 40 11 37 11;
#X connect 40 12 37 12;
#X connect 43 0 41 0;
#X connect 43 1 41 1;
#X connect 43 2 41 2;
#X connect 43 3 41 3;
#X connect 43 4 41 4;
#X connect 43 5 41 5;
#X connect 43 6 41 6;
#X connect 43 7 41 7;
#X connect 43 8 41 8;
#X connect 43 9 41 9;
#X connect 43 10 41 10;
#X connect 43 11 41 11;
#X connect 43 12 41 12;
#X connect 46 0 44 0;
#X connect 46 1 44 1;
#X connect 46 2 44 2;
#X connect 46 3 44 3;
#X connect 46 4 44 4;
#X connect 46 5 44 5;
#X connect 46 6 44 6;
#X connect 46 7 44 7;
#X connect 46 8 44 8;
#X connect 46 9 44 9;
#X connect 46 10 44 10;
#X connect 46 11 44 11;
#X connect 46 12 44 12;
#X connect 48 0 47 0;
#X connect 48 1 47 1;
#X connect 48 2 47 2;
#X connect 48 3 47 3;
#X connect 48 4 47 4;
#X connect 48 5 47 5;
#X connect 48 6 47 6;
#X connect 48 7 47 7;
#X connect 48 8 47 8;
#X connect 48 9 47 9;
#X connect 48 10 47 10;
#X connect 48 11 47 11;
#X connect 48 12 47 12;
#X connect 49 0 46 0;
#X connect 49 1 48 0;
#X connect 49 2 34 0;
#X connect 49 3 38 0;
#X connect 52 0 50 0;
#X connect 52 1 50 1;
#X connect 52 2 50 2;
#X connect 52 3 50 3;
#X connect 52 4 50 4;
#X connect 52 5 50 5;
#X connect 52 6 50 6;
#X connect 52 7 50 7;
#X connect 52 8 50 8;
#X connect 52 9 50 9;
#X connect 52 10 50 10;
#X connect 52 11 50 11;
#X connect 52 12 50 12;
#X connect 53 0 51 0;
#X connect 53 1 51 1;
#X connect 53 2 51 2;
#X connect 53 3 51 3;
#X connect 53 4 51 4;
#X connect 53 5 51 5;
#X connect 53 6 51 6;
#X connect 53 7 51 7;
#X connect 53 8 51 8;
#X connect 53 9 51 9;
#X connect 53 10 51 10;
#X connect 53 11 51 11;
#X connect 53 12 51 12;
#X connect 54 0 43 0;
#X connect 54 1 79 0;
#X connect 54 2 52 0;
#X connect 54 3 53 0;
#X connect 58 0 45 0;
#X connect 58 1 45 1;
#X connect 58 2 45 2;
#X connect 58 3 45 3;
#X connect 58 4 45 4;
#X connect 58 5 45 5;
#X connect 58 6 45 6;
#X connect 58 7 45 7;
#X connect 58 8 45 8;
#X connect 58 9 45 9;
#X connect 58 10 45 10;
#X connect 58 12 45 12;
#X connect 59 0 57 0;
#X connect 59 1 57 1;
#X connect 59 2 57 2;
#X connect 59 3 57 3;
#X connect 59 4 57 4;
#X connect 59 5 57 5;
#X connect 59 6 57 6;
#X connect 59 7 57 7;
#X connect 59 8 57 8;
#X connect 59 9 57 9;
#X connect 59 10 57 10;
#X connect 59 11 57 11;
#X connect 59 12 57 12;
#X connect 61 0 60 0;
#X connect 61 1 60 1;
#X connect 61 2 60 2;
#X connect 61 3 60 3;
#X connect 61 4 60 4;
#X connect 61 5 60 5;
#X connect 61 6 60 6;
#X connect 61 7 60 7;
#X connect 61 8 60 8;
#X connect 61 9 60 9;
#X connect 61 10 60 10;
#X connect 61 11 60 11;
#X connect 61 12 60 12;
#X connect 64 0 63 0;
#X connect 64 1 63 1;
#X connect 64 2 63 2;
#X connect 64 3 63 3;
#X connect 64 4 63 4;
#X connect 64 5 63 5;
#X connect 64 6 63 6;
#X connect 64 7 63 7;
#X connect 64 8 63 8;
#X connect 64 9 63 9;
#X connect 64 10 63 10;
#X connect 64 11 63 11;
#X connect 64 12 63 12;
#X connect 65 0 59 0;
#X connect 65 1 61 0;
#X connect 65 2 78 0;
#X connect 65 3 64 0;
#X connect 67 0 66 0;
#X connect 67 1 66 1;
#X connect 67 2 66 2;
#X connect 67 3 66 3;
#X connect 67 4 66 4;
#X connect 67 5 66 5;
#X connect 67 6 66 6;
#X connect 67 7 66 7;
#X connect 67 8 66 8;
#X connect 67 9 66 9;
#X connect 67 10 66 10;
#X connect 67 11 66 11;
#X connect 67 12 66 12;
#X connect 70 0 69 0;
#X connect 70 1 69 1;
#X connect 70 2 69 2;
#X connect 70 3 69 3;
#X connect 70 4 69 4;
#X connect 70 5 69 5;
#X connect 70 6 69 6;
#X connect 70 7 69 7;
#X connect 70 8 69 8;
#X connect 70 9 69 9;
#X connect 70 10 69 10;
#X connect 70 11 69 11;
#X connect 70 12 69 12;
#X connect 72 0 71 0;
#X connect 72 1 71 1;
#X connect 72 2 71 2;
#X connect 72 3 71 3;
#X connect 72 4 71 4;
#X connect 72 5 71 5;
#X connect 72 6 71 6;
#X connect 72 7 71 7;
#X connect 72 8 71 8;
#X connect 72 9 71 9;
#X connect 72 10 71 10;
#X connect 72 11 71 11;
#X connect 72 12 71 12;
#X connect 73 0 67 0;
#X connect 73 1 82 0;
#X connect 73 2 70 0;
#X connect 73 3 72 0;
#X connect 73 4 75 0;
#X connect 75 0 74 0;
#X connect 75 1 74 1;
#X connect 75 2 74 2;
#X connect 75 3 74 3;
#X connect 75 4 74 4;
#X connect 75 5 74 5;
#X connect 75 6 74 6;
#X connect 75 7 74 7;
#X connect 75 8 74 8;
#X connect 75 9 74 9;
#X connect 75 10 74 10;
#X connect 75 11 74 11;
#X connect 75 12 74 12;
#X connect 78 0 62 0;
#X connect 78 1 62 1;
#X connect 78 2 62 2;
#X connect 78 3 62 3;
#X connect 78 4 62 4;
#X connect 78 5 62 5;
#X connect 78 6 62 6;
#X connect 78 7 62 7;
#X connect 78 8 62 8;
#X connect 78 9 62 9;
#X connect 78 10 62 10;
#X connect 78 11 62 11;
#X connect 78 12 62 12;
#X connect 79 0 42 0;
#X connect 79 1 42 1;
#X connect 79 2 42 2;
#X connect 79 3 42 3;
#X connect 79 4 42 4;
#X connect 79 5 42 5;
#X connect 79 6 42 6;
#X connect 79 7 42 7;
#X connect 79 8 42 8;
#X connect 79 9 42 9;
#X connect 79 10 42 10;
#X connect 79 11 42 11;
#X connect 79 12 42 12;
#X connect 81 0 27 0;
#X connect 81 1 58 0;
#X connect 81 2 39 0;
#X connect 81 3 40 0;
#X connect 81 4 30 0;
#X connect 82 0 68 0;
#X connect 82 1 68 1;
#X connect 82 2 68 2;
#X connect 82 3 68 3;
#X connect 82 4 68 4;
#X connect 82 5 68 5;
#X connect 82 6 68 6;
#X connect 82 7 68 7;
#X connect 82 8 68 8;
#X connect 82 9 68 9;
#X connect 82 10 68 10;
#X connect 82 11 68 11;
#X connect 82 12 68 12;
#X connect 84 0 83 0;
#X connect 84 1 83 1;
#X connect 84 2 83 2;
#X connect 84 3 83 3;
#X connect 84 4 83 4;
#X connect 84 5 83 5;
#X connect 84 6 83 6;
#X connect 84 7 83 7;
#X connect 84 8 83 8;
#X connect 84 9 83 9;
#X connect 84 10 83 10;
#X connect 84 11 83 11;
#X connect 84 12 83 12;
#X connect 86 0 80 0;
#X connect 86 1 80 1;
#X connect 86 2 80 2;
#X connect 86 3 80 3;
#X connect 86 4 80 4;
#X connect 86 5 80 5;
#X connect 86 6 80 6;
#X connect 86 7 80 7;
#X connect 86 8 80 8;
#X connect 86 9 80 9;
#X connect 86 10 80 10;
#X connect 86 11 80 11;
#X connect 86 12 80 12;
#X connect 87 0 86 0;
#X connect 87 1 88 0;
#X connect 87 2 84 0;
#X connect 88 0 77 0;
#X connect 88 1 77 1;
#X connect 88 2 77 2;
#X connect 88 3 77 3;
#X connect 88 4 77 4;
#X connect 88 5 77 5;
#X connect 88 6 77 6;
#X connect 88 7 77 7;
#X connect 88 8 77 8;
#X connect 88 9 77 9;
#X connect 88 10 77 10;
#X connect 88 11 77 11;
#X connect 88 12 77 12;
