#N canvas 946 89 927 991 10;
#X obj 43 7 inlet;
#X obj 255 894 outlet;
#X obj 267 874 outlet;
#X obj 278 934 outlet;
#X obj 290 914 outlet;
#X obj 302 894 outlet;
#X obj 314 874 outlet;
#X obj 184 934 outlet;
#X obj 196 914 outlet;
#X obj 208 894 outlet;
#X obj 220 874 outlet;
#X obj 231 935 outlet;
#X obj 243 915 outlet;
#X obj 173 874 outlet;
#X obj 173 785 r inst_out_0;
#X obj 251 785 r inst_out_4;
#X obj 331 785 r inst_out_8;
#X obj 411 785 r inst_out_12;
#X obj 242 806 r inst_out_3;
#X obj 321 805 r inst_out_7;
#X obj 401 805 r inst_out_11;
#X obj 231 825 r inst_out_2;
#X obj 311 825 r inst_out_6;
#X obj 391 825 r inst_out_10;
#X obj 221 845 r inst_out_1;
#X obj 301 845 r inst_out_5;
#X obj 381 845 r inst_out_9;
#X obj 43 75 reset_preset_sfgem, f 40;
#X obj 43 97 preset_outlets_router, f 40;
#X obj 881 861 preset_outlets_router, f 40;
#X obj 881 839 random_locations_preset_sfgem, f 40;
#X obj 1156 861 preset_outlets_router, f 40;
#X obj 1156 839 random_locations_preset_metro_sfgem, f 40;
#X obj 729 928 preset_outlets_router, f 40;
#X obj 863 800 preset_outlets_router, f 40;
#X obj 569 177 preset_outlets_router, f 40;
#X obj 729 906 big_circle_appear_preset_sfgem, f 40;
#X obj 569 155 contract_preset_sfgem, f 40;
#X obj 478 924 preset_outlets_router, f 40;
#X obj 478 902 return_preset_sfgem, f 40;
#X obj 832 177 preset_outlets_router, f 40;
#X obj 569 97 preset_outlets_router, f 40;
#X obj 832 97 preset_outlets_router, f 40;
#X obj 578 809 preset_outlets_router, f 40;
#X obj 832 155 horizontal_preset_sfgem, f 40;
#X obj 569 75 expand_random_preset_sfgem, f 40;
#X obj 832 75 expand_stabilize_preset_sfgem, f 40;
#X obj 578 787 polar_to_linear_preset_sfgem, f 40;
#X obj 863 778 slow_spin_preset_sfgem, f 40;
#X obj 43 257 preset_outlets_router, f 40;
#X obj 306 257 preset_outlets_router, f 40;
#X obj 43 235 vertical_preset_sfgem, f 40;
#X obj 43 177 preset_outlets_router, f 40;
#X obj 510 867 preset_outlets_router, f 40;
#X obj 510 845 fluctuate_size_preset_sfgem, f 40;
#X text 1026 645 Use metro to choose random size +/- the previous;
#X obj 1024 717 preset_outlets_router, f 40;
#X obj 1024 695 fluctuate_size_preset_sfgem, f 40;
#X text 1026 745 Use metro to choose random size +/- the previous;
#X obj 306 97 preset_outlets_router, f 40;
#X obj 43 46 sel reset center expand_random stabilize, f 176;
#X obj 43 155 wind_up_1_preset_sfgem, f 40;
#X obj 306 177 preset_outlets_router, f 40;
#X obj 306 155 unwind_1_preset_sfgem, f 40;
#X obj 43 126 sel wind_up_1 unwind_1 contract horizontal, f 176;
#X obj 569 257 preset_outlets_router, f 40;
#X obj 832 257 preset_outlets_router, f 40;
#X obj 569 235 wind_up_2_preset_sfgem, f 40;
#X obj 832 235 unwind_2_preset_sfgem, f 40;
#X obj 43 206 sel vertical triangle wind_up_2 unwind_2, f 176;
#X text 106 26 OVERTURE;
#X text 114 298 WINDY;
#X obj 43 377 preset_outlets_router, f 40;
#X obj 2 74 bng 15 250 50 0 empty empty empty 17 7 0 10 -262144 -1
-1;
#X obj 306 75 center_preset_sfgem, f 40;
#X obj 43 355 expand_simple_preset_sfgem, f 40;
#X obj 298 377 preset_outlets_router, f 40;
#X obj 298 355 facial_preset_sfgem, f 40;
#X obj 554 377 preset_outlets_router, f 40;
#X obj 810 377 preset_outlets_router, f 40;
#X obj 810 355 unwind_simple_preset_sfgem, f 40;
#X obj 43 326 sel expand_simple facial wind_up_simple unwind_simple
, f 171;
#X obj 43 457 preset_outlets_router, f 40;
#X obj 43 435 scuff_preset_sfgem, f 40;
#X obj 299 457 preset_outlets_router, f 40;
#X obj 299 435 variable_spin_preset_sfgem, f 40;
#X obj 342 25 print inside2;
#X obj 555 457 preset_outlets_router, f 40;
#X obj 555 435 variabletrade_preset_sfgem, f 40;
#X obj 811 457 preset_outlets_router, f 40;
#X obj 811 435 variableswap_preset_sfgem, f 40;
#X obj 43 406 sel scuff variablespin variabletrade variableswap linpol
, f 214;
#X obj 1067 457 preset_outlets_router, f 40;
#X obj 1067 435 linpol_preset_sfgem, f 40;
#X text 110 512 ORBIT;
#X text 36 658 - random spins within some range \; - distances difference
\; - unwinds into;
#X obj 554 597 preset_outlets_router, f 40;
#X obj 554 575 unwind_3_preset_sfgem, f 40;
#X obj 298 597 preset_outlets_router, f 40;
#X obj 554 355 wind_up_simple_preset_sfgem, f 40;
#X obj 298 575 wind_up_3_preset_sfgem, f 40;
#X obj 43 597 preset_outlets_router, f 40;
#X obj 306 235 triangle_preset_sfgem, f 40;
#X obj 43 575 triangle_orbit_preset_sfgem, f 40;
#X obj 43 546 sel triangle_orbit wind_up_3 unwind_3 whistle_freeze
, f 171;
#X connect 0 0 60 0;
#X connect 0 0 64 0;
#X connect 0 0 69 0;
#X connect 0 0 81 0;
#X connect 0 0 86 0;
#X connect 0 0 91 0;
#X connect 0 0 104 0;
#X connect 14 0 13 0;
#X connect 15 0 10 0;
#X connect 16 0 2 0;
#X connect 17 0 6 0;
#X connect 18 0 9 0;
#X connect 19 0 1 0;
#X connect 20 0 5 0;
#X connect 21 0 8 0;
#X connect 22 0 12 0;
#X connect 23 0 4 0;
#X connect 24 0 7 0;
#X connect 25 0 11 0;
#X connect 26 0 3 0;
#X connect 27 0 28 0;
#X connect 27 1 28 1;
#X connect 27 2 28 2;
#X connect 27 3 28 3;
#X connect 27 4 28 4;
#X connect 27 5 28 5;
#X connect 27 6 28 6;
#X connect 27 7 28 7;
#X connect 27 8 28 8;
#X connect 27 9 28 9;
#X connect 27 10 28 10;
#X connect 27 11 28 11;
#X connect 27 12 28 12;
#X connect 30 0 29 0;
#X connect 30 1 29 1;
#X connect 30 2 29 2;
#X connect 30 3 29 3;
#X connect 30 4 29 4;
#X connect 30 5 29 5;
#X connect 30 6 29 6;
#X connect 30 7 29 7;
#X connect 30 8 29 8;
#X connect 30 9 29 9;
#X connect 30 10 29 10;
#X connect 30 11 29 11;
#X connect 30 12 29 12;
#X connect 32 0 31 0;
#X connect 32 1 31 1;
#X connect 32 2 31 2;
#X connect 32 3 31 3;
#X connect 32 4 31 4;
#X connect 32 5 31 5;
#X connect 32 6 31 6;
#X connect 32 7 31 7;
#X connect 32 8 31 8;
#X connect 32 9 31 9;
#X connect 32 10 31 10;
#X connect 32 11 31 11;
#X connect 32 12 31 12;
#X connect 36 0 33 0;
#X connect 36 1 33 1;
#X connect 36 2 33 2;
#X connect 36 3 33 3;
#X connect 36 4 33 4;
#X connect 36 5 33 5;
#X connect 36 6 33 6;
#X connect 36 7 33 7;
#X connect 36 8 33 8;
#X connect 36 9 33 9;
#X connect 36 10 33 10;
#X connect 36 11 33 11;
#X connect 36 12 33 12;
#X connect 37 0 35 0;
#X connect 37 1 35 1;
#X connect 37 2 35 2;
#X connect 37 3 35 3;
#X connect 37 4 35 4;
#X connect 37 5 35 5;
#X connect 37 6 35 6;
#X connect 37 7 35 7;
#X connect 37 8 35 8;
#X connect 37 9 35 9;
#X connect 37 10 35 10;
#X connect 37 11 35 11;
#X connect 37 12 35 12;
#X connect 39 0 38 0;
#X connect 39 1 38 1;
#X connect 39 2 38 2;
#X connect 39 3 38 3;
#X connect 39 4 38 4;
#X connect 39 5 38 5;
#X connect 39 6 38 6;
#X connect 39 7 38 7;
#X connect 39 8 38 8;
#X connect 39 9 38 9;
#X connect 39 10 38 10;
#X connect 39 11 38 11;
#X connect 39 12 38 12;
#X connect 44 0 40 0;
#X connect 44 1 40 1;
#X connect 44 2 40 2;
#X connect 44 3 40 3;
#X connect 44 4 40 4;
#X connect 44 5 40 5;
#X connect 44 6 40 6;
#X connect 44 7 40 7;
#X connect 44 8 40 8;
#X connect 44 9 40 9;
#X connect 44 10 40 10;
#X connect 44 11 40 11;
#X connect 44 12 40 12;
#X connect 45 0 41 0;
#X connect 45 1 41 1;
#X connect 45 2 41 2;
#X connect 45 3 41 3;
#X connect 45 4 41 4;
#X connect 45 5 41 5;
#X connect 45 6 41 6;
#X connect 45 7 41 7;
#X connect 45 8 41 8;
#X connect 45 9 41 9;
#X connect 45 10 41 10;
#X connect 45 11 41 11;
#X connect 45 12 41 12;
#X connect 46 0 42 0;
#X connect 46 1 42 1;
#X connect 46 2 42 2;
#X connect 46 3 42 3;
#X connect 46 4 42 4;
#X connect 46 5 42 5;
#X connect 46 6 42 6;
#X connect 46 7 42 7;
#X connect 46 8 42 8;
#X connect 46 9 42 9;
#X connect 46 10 42 10;
#X connect 46 11 42 11;
#X connect 46 12 42 12;
#X connect 47 0 43 0;
#X connect 47 1 43 1;
#X connect 47 2 43 2;
#X connect 47 3 43 3;
#X connect 47 4 43 4;
#X connect 47 5 43 5;
#X connect 47 6 43 6;
#X connect 47 7 43 7;
#X connect 47 8 43 8;
#X connect 47 9 43 9;
#X connect 47 10 43 10;
#X connect 47 11 43 11;
#X connect 47 12 43 12;
#X connect 48 0 34 0;
#X connect 48 1 34 1;
#X connect 48 2 34 2;
#X connect 48 3 34 3;
#X connect 48 4 34 4;
#X connect 48 5 34 5;
#X connect 48 6 34 6;
#X connect 48 7 34 7;
#X connect 48 8 34 8;
#X connect 48 9 34 9;
#X connect 48 10 34 10;
#X connect 48 11 34 11;
#X connect 48 12 34 12;
#X connect 51 0 49 0;
#X connect 51 1 49 1;
#X connect 51 2 49 2;
#X connect 51 3 49 3;
#X connect 51 4 49 4;
#X connect 51 5 49 5;
#X connect 51 6 49 6;
#X connect 51 7 49 7;
#X connect 51 8 49 8;
#X connect 51 9 49 9;
#X connect 51 10 49 10;
#X connect 51 11 49 11;
#X connect 51 12 49 12;
#X connect 54 0 53 0;
#X connect 54 1 53 1;
#X connect 54 2 53 2;
#X connect 54 3 53 3;
#X connect 54 4 53 4;
#X connect 54 5 53 5;
#X connect 54 6 53 6;
#X connect 54 7 53 7;
#X connect 54 8 53 8;
#X connect 54 9 53 9;
#X connect 54 10 53 10;
#X connect 54 11 53 11;
#X connect 54 12 53 12;
#X connect 57 0 56 0;
#X connect 57 1 56 1;
#X connect 57 2 56 2;
#X connect 57 3 56 3;
#X connect 57 4 56 4;
#X connect 57 5 56 5;
#X connect 57 6 56 6;
#X connect 57 7 56 7;
#X connect 57 8 56 8;
#X connect 57 9 56 9;
#X connect 57 10 56 10;
#X connect 57 11 56 11;
#X connect 57 12 56 12;
#X connect 60 0 27 0;
#X connect 60 1 73 0;
#X connect 60 1 74 0;
#X connect 60 2 45 0;
#X connect 60 3 46 0;
#X connect 61 0 52 0;
#X connect 61 1 52 1;
#X connect 61 2 52 2;
#X connect 61 3 52 3;
#X connect 61 4 52 4;
#X connect 61 5 52 5;
#X connect 61 6 52 6;
#X connect 61 7 52 7;
#X connect 61 8 52 8;
#X connect 61 9 52 9;
#X connect 61 10 52 10;
#X connect 61 11 52 11;
#X connect 61 12 52 12;
#X connect 63 0 62 0;
#X connect 63 1 62 1;
#X connect 63 2 62 2;
#X connect 63 3 62 3;
#X connect 63 4 62 4;
#X connect 63 5 62 5;
#X connect 63 6 62 6;
#X connect 63 7 62 7;
#X connect 63 8 62 8;
#X connect 63 9 62 9;
#X connect 63 10 62 10;
#X connect 63 11 62 11;
#X connect 63 12 62 12;
#X connect 64 0 61 0;
#X connect 64 1 63 0;
#X connect 64 2 37 0;
#X connect 64 3 44 0;
#X connect 67 0 65 0;
#X connect 67 1 65 1;
#X connect 67 2 65 2;
#X connect 67 3 65 3;
#X connect 67 4 65 4;
#X connect 67 5 65 5;
#X connect 67 6 65 6;
#X connect 67 7 65 7;
#X connect 67 8 65 8;
#X connect 67 9 65 9;
#X connect 67 10 65 10;
#X connect 67 11 65 11;
#X connect 67 12 65 12;
#X connect 68 0 66 0;
#X connect 68 1 66 1;
#X connect 68 2 66 2;
#X connect 68 3 66 3;
#X connect 68 4 66 4;
#X connect 68 5 66 5;
#X connect 68 6 66 6;
#X connect 68 7 66 7;
#X connect 68 8 66 8;
#X connect 68 9 66 9;
#X connect 68 10 66 10;
#X connect 68 11 66 11;
#X connect 68 12 66 12;
#X connect 69 0 51 0;
#X connect 69 1 102 0;
#X connect 69 2 67 0;
#X connect 69 3 68 0;
#X connect 74 0 59 0;
#X connect 74 1 59 1;
#X connect 74 2 59 2;
#X connect 74 3 59 3;
#X connect 74 4 59 4;
#X connect 74 5 59 5;
#X connect 74 6 59 6;
#X connect 74 7 59 7;
#X connect 74 8 59 8;
#X connect 74 9 59 9;
#X connect 74 10 59 10;
#X connect 74 12 59 12;
#X connect 75 0 72 0;
#X connect 75 1 72 1;
#X connect 75 2 72 2;
#X connect 75 3 72 3;
#X connect 75 4 72 4;
#X connect 75 5 72 5;
#X connect 75 6 72 6;
#X connect 75 7 72 7;
#X connect 75 8 72 8;
#X connect 75 9 72 9;
#X connect 75 10 72 10;
#X connect 75 11 72 11;
#X connect 75 12 72 12;
#X connect 77 0 76 0;
#X connect 77 1 76 1;
#X connect 77 2 76 2;
#X connect 77 3 76 3;
#X connect 77 4 76 4;
#X connect 77 5 76 5;
#X connect 77 6 76 6;
#X connect 77 7 76 7;
#X connect 77 8 76 8;
#X connect 77 9 76 9;
#X connect 77 10 76 10;
#X connect 77 11 76 11;
#X connect 77 12 76 12;
#X connect 80 0 79 0;
#X connect 80 1 79 1;
#X connect 80 2 79 2;
#X connect 80 3 79 3;
#X connect 80 4 79 4;
#X connect 80 5 79 5;
#X connect 80 6 79 6;
#X connect 80 7 79 7;
#X connect 80 8 79 8;
#X connect 80 9 79 9;
#X connect 80 10 79 10;
#X connect 80 11 79 11;
#X connect 80 12 79 12;
#X connect 81 0 75 0;
#X connect 81 1 77 0;
#X connect 81 2 99 0;
#X connect 81 3 80 0;
#X connect 83 0 82 0;
#X connect 83 1 82 1;
#X connect 83 2 82 2;
#X connect 83 3 82 3;
#X connect 83 4 82 4;
#X connect 83 5 82 5;
#X connect 83 6 82 6;
#X connect 83 7 82 7;
#X connect 83 8 82 8;
#X connect 83 9 82 9;
#X connect 83 10 82 10;
#X connect 83 11 82 11;
#X connect 83 12 82 12;
#X connect 85 0 84 0;
#X connect 85 1 84 1;
#X connect 85 2 84 2;
#X connect 85 3 84 3;
#X connect 85 4 84 4;
#X connect 85 5 84 5;
#X connect 85 6 84 6;
#X connect 85 7 84 7;
#X connect 85 8 84 8;
#X connect 85 9 84 9;
#X connect 85 10 84 10;
#X connect 85 11 84 11;
#X connect 85 12 84 12;
#X connect 88 0 87 0;
#X connect 88 1 87 1;
#X connect 88 2 87 2;
#X connect 88 3 87 3;
#X connect 88 4 87 4;
#X connect 88 5 87 5;
#X connect 88 6 87 6;
#X connect 88 7 87 7;
#X connect 88 8 87 8;
#X connect 88 9 87 9;
#X connect 88 10 87 10;
#X connect 88 11 87 11;
#X connect 88 12 87 12;
#X connect 90 0 89 0;
#X connect 90 1 89 1;
#X connect 90 2 89 2;
#X connect 90 3 89 3;
#X connect 90 4 89 4;
#X connect 90 5 89 5;
#X connect 90 6 89 6;
#X connect 90 7 89 7;
#X connect 90 8 89 8;
#X connect 90 9 89 9;
#X connect 90 10 89 10;
#X connect 90 11 89 11;
#X connect 90 12 89 12;
#X connect 91 0 83 0;
#X connect 91 1 85 0;
#X connect 91 2 88 0;
#X connect 91 3 90 0;
#X connect 91 4 93 0;
#X connect 93 0 92 0;
#X connect 93 1 92 1;
#X connect 93 2 92 2;
#X connect 93 3 92 3;
#X connect 93 4 92 4;
#X connect 93 5 92 5;
#X connect 93 6 92 6;
#X connect 93 7 92 7;
#X connect 93 8 92 8;
#X connect 93 9 92 9;
#X connect 93 10 92 10;
#X connect 93 11 92 11;
#X connect 93 12 92 12;
#X connect 97 0 96 0;
#X connect 97 1 96 1;
#X connect 97 2 96 2;
#X connect 97 3 96 3;
#X connect 97 4 96 4;
#X connect 97 5 96 5;
#X connect 97 6 96 6;
#X connect 97 7 96 7;
#X connect 97 8 96 8;
#X connect 97 9 96 9;
#X connect 97 10 96 10;
#X connect 97 11 96 11;
#X connect 97 12 96 12;
#X connect 99 0 78 0;
#X connect 99 1 78 1;
#X connect 99 2 78 2;
#X connect 99 3 78 3;
#X connect 99 4 78 4;
#X connect 99 5 78 5;
#X connect 99 6 78 6;
#X connect 99 7 78 7;
#X connect 99 8 78 8;
#X connect 99 9 78 9;
#X connect 99 10 78 10;
#X connect 99 11 78 11;
#X connect 99 12 78 12;
#X connect 100 0 98 0;
#X connect 100 1 98 1;
#X connect 100 2 98 2;
#X connect 100 3 98 3;
#X connect 100 4 98 4;
#X connect 100 5 98 5;
#X connect 100 6 98 6;
#X connect 100 7 98 7;
#X connect 100 8 98 8;
#X connect 100 9 98 9;
#X connect 100 10 98 10;
#X connect 100 11 98 11;
#X connect 100 12 98 12;
#X connect 102 0 50 0;
#X connect 102 1 50 1;
#X connect 102 2 50 2;
#X connect 102 3 50 3;
#X connect 102 4 50 4;
#X connect 102 5 50 5;
#X connect 102 6 50 6;
#X connect 102 7 50 7;
#X connect 102 8 50 8;
#X connect 102 9 50 9;
#X connect 102 10 50 10;
#X connect 102 11 50 11;
#X connect 102 12 50 12;
#X connect 103 0 101 0;
#X connect 103 1 101 1;
#X connect 103 2 101 2;
#X connect 103 3 101 3;
#X connect 103 4 101 4;
#X connect 103 5 101 5;
#X connect 103 6 101 6;
#X connect 103 7 101 7;
#X connect 103 8 101 8;
#X connect 103 9 101 9;
#X connect 103 10 101 10;
#X connect 103 11 101 11;
#X connect 103 12 101 12;
#X connect 104 0 103 0;
#X connect 104 1 100 0;
#X connect 104 2 97 0;
