#N canvas 229 201 1240 678 10;
#X obj 23 78 inlet;
#X obj 23 632 outlet;
#X obj 38 612 outlet;
#X obj 54 592 outlet;
#X obj 70 572 outlet;
#X obj 86 552 outlet;
#X obj 182 160 t b b b;
#X obj 362 160 t b b b;
#X obj 520 160 t b b b;
#X obj 23 121 sel Reset FadeIn Turn180 Vertical, f 107;
#X msg 86 189 -1 -1 1 0;
#X msg 401 183 -1 -1 -1 -1;
#X msg 559 183 -1 -1 -1 -1;
#X msg 221 183 -1 -1 -1 5000;
#X msg 70 209;
#X msg 54 229 -1 -1 -1;
#X msg 182 340 -1 -1 -1;
#X msg 362 340 -1 -1 -1;
#X msg 520 340 -1 -1 -1;
#X msg 38 249;
#X msg 23 269;
#X obj 23 160 t b b b b b;
#X text 1035 30 TRADER PRESETS: 0 CENTER \; 1 FACE (LINEAR) \; 2 TRIANGLE
(LINEAR) \; 3 HORIZONTAL \; 4 VERTICAL \; 5 FACE (POLAR) \; 6 TRIANGLE
(POLAR) \;;
#X connect 0 0 9 0;
#X connect 6 0 16 0;
#X connect 6 2 13 0;
#X connect 7 0 17 0;
#X connect 7 2 11 0;
#X connect 8 0 18 0;
#X connect 8 2 12 0;
#X connect 9 0 21 0;
#X connect 9 1 6 0;
#X connect 9 2 7 0;
#X connect 9 3 8 0;
#X connect 10 0 5 0;
#X connect 14 0 4 0;
#X connect 15 0 3 0;
#X connect 19 0 2 0;
#X connect 20 0 1 0;
#X connect 21 0 20 0;
#X connect 21 1 19 0;
#X connect 21 2 15 0;
#X connect 21 3 14 0;
#X connect 21 4 10 0;
