#N canvas 67 87 1853 993 10;
#X obj 523 881 sel -1;
#X obj 641 881 sel -1;
#X obj 759 881 sel -1;
#X obj 823 687 sel -1;
#X obj 676 687 sel -1;
#X obj 406 687 sel -1;
#X obj 553 687 sel -1;
#X obj 71 35 inlet;
#X obj 71 122 symbol;
#X msg 71 64 set \$1;
#X msg 71 93 end;
#X obj 123 75 r start-instruction;
#X obj 704 338 sel -1;
#X obj 286 104 inlet;
#X text 255 84 INSTRUCTION BYPASS;
#X obj 406 881 sel -1;
#X obj 407 338 sel -1;
#X obj 506 338 sel -1;
#X obj 605 338 sel -1;
#X obj 71 151 instructor_presets, f 47;
#X obj 406 852 unpack f f f f f, f 79;
#X obj 877 881 sel -1;
#X obj 737 367 s speeds_all_2pnl;
#X obj 1530 367 s size_spd_0_2pnl;
#X obj 1431 367 s size_spd_1_2pnl;
#X obj 1332 367 s size_spd_2_2pnl;
#X obj 407 309 unpack f f f f, f 50;
#X obj 1596 338 sel -1;
#X obj 1299 338 sel -1;
#X obj 1398 338 sel -1;
#X obj 1497 338 sel -1;
#X obj 1299 309 unpack f f f f, f 50;
#X obj 1629 367 s size_spd_all_2pnl;
#X obj 1157 455 sel -1;
#X obj 860 455 sel -1;
#X obj 959 455 sel -1;
#X obj 1058 455 sel -1;
#X obj 860 426 unpack f f f f, f 50;
#X obj 1190 484 s spin_spd_all_2pnl;
#X obj 1091 484 s spin_spd_2_2pnl;
#X obj 992 484 s spin_spd_1_2pnl;
#X obj 893 484 s spin_spd_0_2pnl;
#X obj 703 455 sel -1;
#X obj 406 455 sel -1;
#X obj 505 455 sel -1;
#X obj 604 455 sel -1;
#X obj 406 426 unpack f f f f, f 50;
#X obj 736 484 s dist_spd_all_2pnl;
#X obj 637 484 s dist_spd_2_2pnl;
#X obj 538 484 s dist_spd_1_2pnl;
#X obj 439 484 s dist_spd_0_2pnl;
#X obj 1154 338 sel -1;
#X obj 857 338 sel -1;
#X obj 956 338 sel -1;
#X obj 1055 338 sel -1;
#X obj 857 309 unpack f f f f, f 50;
#X obj 890 367 s loc_spd_0_2pnl;
#X obj 989 367 s loc_spd_1_2pnl;
#X obj 1088 367 s loc_spd_2_2pnl;
#X obj 1187 367 s loc_spd_all_2pnl;
#X obj 703 572 sel -1;
#X obj 406 572 sel -1;
#X obj 505 572 sel -1;
#X obj 604 572 sel -1;
#X obj 406 543 unpack f f f f, f 50;
#X obj 736 601 s size_all_2pnl;
#X obj 637 601 s size_2_2pnl;
#X obj 538 601 s size_1_2pnl;
#X obj 439 601 s size_0_2pnl;
#X obj 1154 572 sel -1;
#X obj 857 572 sel -1;
#X obj 956 572 sel -1;
#X obj 1055 572 sel -1;
#X obj 857 543 unpack f f f f, f 50;
#X obj 1187 601 s dist_all_2pnl;
#X obj 1088 601 s dist_2_2pnl;
#X obj 989 601 s dist_1_2pnl;
#X obj 890 601 s dist_0_2pnl;
#X obj 1594 572 sel -1;
#X obj 1297 572 sel -1;
#X obj 1396 572 sel -1;
#X obj 1495 572 sel -1;
#X obj 1297 543 unpack f f f f, f 50;
#X obj 1627 601 s spin_all_2pnl;
#X obj 1528 601 s spin_2_2pnl;
#X obj 1429 601 s spin_1_2pnl;
#X obj 1330 601 s spin_0_2pnl;
#X obj 638 367 s speeds_2_2pnl;
#X obj 539 367 s speeds_1_2pnl;
#X obj 440 367 s speeds_0_2pnl;
#X obj 856 716 s stay_2pnl;
#X obj 439 716 s swap_2pnl;
#X obj 586 716 s trade_2pnl;
#X obj 406 658 unpack, f 25;
#X obj 676 658 unpack, f 25;
#X obj 408 198 unpack f f f f f, f 73;
#X obj 843 221 sel -1;
#X obj 767 250 s wiggle_all_2pnl;
#X obj 876 250 s wiggle_mod_2pnl;
#X obj 658 250 s wiggle_0_2pnl;
#X obj 440 250 s wiggle_2_2pnl;
#X obj 549 250 s wiggle_1_2pnl;
#X obj 734 221 sel -1;
#X obj 625 221 sel -1;
#X obj 516 221 sel -1;
#X obj 407 221 sel -1;
#X obj 910 910 s bigC_amp_2pnl;
#X obj 792 910 s bigC_stay_2pnl;
#X obj 556 910 s bigC_freq_2pnl;
#X obj 674 910 s bigC_fdiff_2pnl;
#X obj 439 910 s bigC_size_2pnl;
#X obj 544 784 sel -1;
#X obj 683 784 sel -1;
#X obj 822 784 sel -1;
#X obj 406 784 sel -1;
#X obj 406 755 unpack f f f f f, f 93;
#X obj 961 784 sel -1;
#X obj 439 813 s bigC_size_spd_2pnl;
#X obj 577 813 s bigC_freq_spd_2pnl;
#X obj 716 813 s bigC_fdiff_spd_2pnl;
#X obj 855 813 s bigC_stay_spd_2pnl;
#X obj 994 813 s bigC_amp_spd_2pnl;
#X text 384 197 1;
#X text 384 310 2;
#X text 836 309 3;
#X text 1278 309 4;
#X text 385 428 5;
#X text 839 426 6;
#X text 385 544 7;
#X text 836 543 8;
#X text 1276 544 9;
#X text 379 658 10;
#X text 649 658 11;
#X text 379 755 12;
#X text 379 852 13;
#X obj 709 716 s linpol_2pnl;
#X obj 350 180 t a;
#X obj 326 291 t a;
#X obj 303 291 t a;
#X obj 280 291 t a;
#X obj 257 408 t a;
#X obj 233 408 t a;
#X obj 210 525 t a;
#X obj 187 525 t a;
#X obj 164 525 t a;
#X obj 140 640 t a;
#X obj 117 640 t a;
#X obj 94 737 t a;
#X obj 71 834 t a;
#X text 213 132 PRESETS IN HERE:;
#X obj 439 621 s size_3_2pnl;
#X obj 538 621 s size_4_2pnl;
#X obj 637 621 s size_5_2pnl;
#X obj 890 621 s dist_3_2pnl;
#X obj 989 621 s dist_4_2pnl;
#X obj 1088 621 s dist_5_2pnl;
#X obj 1330 621 s spin_3_2pnl;
#X obj 1429 621 s spin_4_2pnl;
#X obj 1528 621 s spin_5_2pnl;
#X obj 439 510 s dist_spd_3_2pnl;
#X obj 538 510 s dist_spd_4_2pnl;
#X obj 637 510 s dist_spd_5_2pnl;
#X obj 893 510 s spin_spd_3_2pnl;
#X obj 992 510 s spin_spd_4_2pnl;
#X obj 1091 510 s spin_spd_5_2pnl;
#X obj 539 389 s speeds_4_2pnl;
#X obj 989 389 s loc_spd_4_2pnl;
#X obj 1088 389 s loc_spd_5_2pnl;
#X obj 440 389 s speeds_3_2pnl;
#X obj 638 389 s speeds_5_2pnl;
#X obj 890 389 s loc_spd_3_2pnl;
#X obj 1332 389 s size_spd_5_2pnl;
#X obj 1431 389 s size_spd_4_2pnl;
#X obj 1530 389 s size_spd_3_2pnl;
#X obj 440 274 s wiggle_5_2pnl;
#X obj 549 274 s wiggle_4_2pnl;
#X obj 658 274 s wiggle_3_2pnl;
#X connect 0 1 108 0;
#X connect 1 1 109 0;
#X connect 2 1 107 0;
#X connect 3 1 90 0;
#X connect 4 1 135 0;
#X connect 5 1 91 0;
#X connect 6 1 92 0;
#X connect 7 0 9 0;
#X connect 8 0 19 0;
#X connect 9 0 10 0;
#X connect 10 0 8 0;
#X connect 11 0 10 0;
#X connect 12 1 22 0;
#X connect 13 0 8 0;
#X connect 15 1 110 0;
#X connect 16 1 89 0;
#X connect 16 1 168 0;
#X connect 17 1 88 0;
#X connect 17 1 165 0;
#X connect 18 1 87 0;
#X connect 18 1 169 0;
#X connect 19 0 148 0;
#X connect 19 1 147 0;
#X connect 19 2 146 0;
#X connect 19 3 145 0;
#X connect 19 4 144 0;
#X connect 19 5 143 0;
#X connect 19 6 142 0;
#X connect 19 7 141 0;
#X connect 19 8 140 0;
#X connect 19 9 139 0;
#X connect 19 10 138 0;
#X connect 19 11 137 0;
#X connect 19 12 136 0;
#X connect 20 0 15 0;
#X connect 20 1 0 0;
#X connect 20 2 1 0;
#X connect 20 3 2 0;
#X connect 20 4 21 0;
#X connect 21 1 106 0;
#X connect 26 0 16 0;
#X connect 26 1 17 0;
#X connect 26 2 18 0;
#X connect 26 3 12 0;
#X connect 27 1 32 0;
#X connect 28 1 25 0;
#X connect 28 1 171 0;
#X connect 29 1 24 0;
#X connect 29 1 172 0;
#X connect 30 1 23 0;
#X connect 30 1 173 0;
#X connect 31 0 28 0;
#X connect 31 1 29 0;
#X connect 31 2 30 0;
#X connect 31 3 27 0;
#X connect 33 1 38 0;
#X connect 34 1 41 0;
#X connect 34 1 162 0;
#X connect 35 1 40 0;
#X connect 35 1 163 0;
#X connect 36 1 39 0;
#X connect 36 1 164 0;
#X connect 37 0 34 0;
#X connect 37 1 35 0;
#X connect 37 2 36 0;
#X connect 37 3 33 0;
#X connect 42 1 47 0;
#X connect 43 1 50 0;
#X connect 43 1 159 0;
#X connect 44 1 49 0;
#X connect 44 1 160 0;
#X connect 45 1 48 0;
#X connect 45 1 161 0;
#X connect 46 0 43 0;
#X connect 46 1 44 0;
#X connect 46 2 45 0;
#X connect 46 3 42 0;
#X connect 51 1 59 0;
#X connect 52 1 56 0;
#X connect 52 1 170 0;
#X connect 53 1 57 0;
#X connect 53 1 166 0;
#X connect 54 1 58 0;
#X connect 54 1 167 0;
#X connect 55 0 52 0;
#X connect 55 1 53 0;
#X connect 55 2 54 0;
#X connect 55 3 51 0;
#X connect 60 1 65 0;
#X connect 61 1 68 0;
#X connect 61 1 150 0;
#X connect 62 1 67 0;
#X connect 62 1 151 0;
#X connect 63 1 66 0;
#X connect 63 1 152 0;
#X connect 64 0 61 0;
#X connect 64 1 62 0;
#X connect 64 2 63 0;
#X connect 64 3 60 0;
#X connect 69 1 74 0;
#X connect 70 1 77 0;
#X connect 70 1 153 0;
#X connect 71 1 76 0;
#X connect 71 1 154 0;
#X connect 72 1 75 0;
#X connect 72 1 155 0;
#X connect 73 0 70 0;
#X connect 73 1 71 0;
#X connect 73 2 72 0;
#X connect 73 3 69 0;
#X connect 78 1 83 0;
#X connect 79 1 86 0;
#X connect 79 1 156 0;
#X connect 80 1 85 0;
#X connect 80 1 157 0;
#X connect 81 1 84 0;
#X connect 81 1 158 0;
#X connect 82 0 79 0;
#X connect 82 1 80 0;
#X connect 82 2 81 0;
#X connect 82 3 78 0;
#X connect 93 0 5 0;
#X connect 93 1 6 0;
#X connect 94 0 4 0;
#X connect 94 1 3 0;
#X connect 95 1 104 0;
#X connect 95 2 103 0;
#X connect 95 3 102 0;
#X connect 95 4 96 0;
#X connect 96 1 98 0;
#X connect 102 1 97 0;
#X connect 103 1 99 0;
#X connect 103 1 176 0;
#X connect 104 1 101 0;
#X connect 104 1 175 0;
#X connect 105 1 100 0;
#X connect 105 1 174 0;
#X connect 111 1 118 0;
#X connect 112 1 119 0;
#X connect 113 1 120 0;
#X connect 114 1 117 0;
#X connect 115 0 114 0;
#X connect 115 1 111 0;
#X connect 115 2 112 0;
#X connect 115 3 113 0;
#X connect 115 4 116 0;
#X connect 116 1 121 0;
#X connect 136 0 95 0;
#X connect 137 0 26 0;
#X connect 138 0 55 0;
#X connect 139 0 31 0;
#X connect 140 0 46 0;
#X connect 141 0 37 0;
#X connect 142 0 64 0;
#X connect 143 0 73 0;
#X connect 144 0 82 0;
#X connect 145 0 94 0;
#X connect 146 0 93 0;
#X connect 147 0 115 0;
#X connect 148 0 20 0;
