#N canvas 202 402 1610 678 10;
#X obj 23 78 inlet;
#X obj 23 622 outlet;
#X obj 44 602 outlet;
#X obj 65 582 outlet;
#X obj 86 562 outlet;
#X obj 107 542 outlet;
#X obj 265 150 t b b b;
#X obj 507 150 t b b b;
#X obj 749 150 t b b b;
#X obj 23 121 sel Reset FadeIn Turn180 Vertical, f 162;
#X msg 546 173 -1 -1 -1 -1;
#X msg 788 173 -1 -1 -1 -1;
#X msg 304 173 -1 -1 -1 5000;
#X msg 265 330 -1 -1 -1;
#X msg 507 330 -1 -1 -1;
#X msg 749 330 -1 -1 -1;
#X obj 128 522 outlet;
#X obj 23 352 reset_preset_sfgem;
#X connect 0 0 9 0;
#X connect 6 0 13 0;
#X connect 6 2 12 0;
#X connect 7 0 14 0;
#X connect 7 2 10 0;
#X connect 8 0 15 0;
#X connect 8 2 11 0;
#X connect 9 0 17 0;
#X connect 9 1 6 0;
#X connect 9 2 7 0;
#X connect 9 3 8 0;
#X connect 17 0 1 0;
#X connect 17 1 2 0;
#X connect 17 2 3 0;
#X connect 17 3 4 0;
#X connect 17 4 5 0;
#X connect 17 5 16 0;
