#N canvas 57 119 1848 929 10;
#X obj 951 620 sel -1;
#X obj 685 757 sel -1;
#X obj 1018 757 sel -1;
#X obj 851 757 sel -1;
#X obj 812 974 sel -1;
#X obj 930 974 sel -1;
#X obj 1048 974 sel -1;
#X obj 801 620 sel -1;
#X obj 845 1003 s fadertrim-4;
#X obj 963 1003 s fadertrim-5;
#X obj 1081 1003 s fadertrim-6;
#X obj 834 649 s fadertrim-7;
#X obj 652 620 sel -1;
#X obj 354 620 sel -1;
#X obj 503 620 sel -1;
#X obj 387 649 s markerbackbutton;
#X obj 536 649 s markerforwardbutton;
#X obj 51 5 inlet;
#X obj 51 92 symbol;
#X text 405 669 ROTATE BACK;
#X text 559 669 ROTATE FORWARD;
#X text 683 669 LINEAR/POLAR;
#X text 860 1025 BIG FREQ;
#X text 980 1025 BIG DIFF;
#X text 1093 1025 BIG STAY;
#X text 847 670 3 STAY;
#X text 740 807 3 SIZE;
#X text 1074 807 3 SPIN;
#X text 894 807 3 DISTANCE;
#X text 996 672 WIGGLE;
#X obj 984 649 s rbutton-7;
#X msg 51 34 set \$1;
#X msg 51 63 Vertical;
#X obj 116 34 r start-instruction;
#X obj 824 168 sel -1;
#X obj 159 74 inlet;
#X text 126 56 INSTRUCTION BYPASS;
#X obj 718 786 s circle_size_inst;
#X obj 1051 786 s spin_inst;
#X obj 884 786 s circle_distance_inst;
#X obj 685 649 s lin_or_pol_inst;
#X obj 487 919 s circle_distance_0;
#X obj 508 899 s circle_distance_1;
#X obj 529 879 s circle_distance_2;
#X floatatom 1129 699 5 0 0 0 - - -, f 5;
#X obj 685 728 unpack f f f, f 56;
#X obj 454 761 unpack f f f f f f;
#X obj 728 1003 s big_circle_size;
#X obj 454 890 sel -1;
#X obj 475 870 sel -1;
#X obj 496 850 sel -1;
#X obj 517 830 sel -1;
#X obj 538 810 sel -1;
#X obj 559 790 sel -1;
#X obj 695 974 sel -1;
#X text 746 1025 BIG SIZE;
#X obj 527 168 sel -1;
#X obj 626 168 sel -1;
#X obj 725 168 sel -1;
#X obj 592 819 s spin_2;
#X obj 571 839 s spin_1;
#X obj 550 859 s spin_0;
#X obj 51 121 instructor_presets, f 65;
#X msg 114 681 \$1;
#X msg 93 710 \$1 \$2 \$3;
#X msg 72 743 \$1 \$2 \$3 \$4 \$5 \$6;
#X obj 695 945 unpack f f f f f, f 79;
#X obj 1166 974 sel -1;
#X obj 1199 1003 s bigcircle_amplitude;
#X text 1211 1025 AMPLITUDE;
#X msg 344 348 \$1 \$2 \$3 \$4 \$5;
#X obj 354 591 unpack f f f f f, f 100;
#X msg 51 927 \$1 \$2 \$3 \$4 \$5;
#X text 1214 928 NEED SPEEDS FOR THESE?;
#X obj 1129 727 s trader_preset;
#X obj 857 197 s speeds_all_2pnl;
#X obj 1650 197 s size_spd_0_2pnl;
#X obj 1551 197 s size_spd_1_2pnl;
#X obj 1452 197 s size_spd_2_2pnl;
#X obj 527 139 unpack f f f f, f 50;
#X obj 1716 168 sel -1;
#X obj 1419 168 sel -1;
#X obj 1518 168 sel -1;
#X obj 1617 168 sel -1;
#X obj 1419 139 unpack f f f f, f 50;
#X obj 1749 197 s size_spd_all_2pnl;
#X obj 1277 265 sel -1;
#X obj 980 265 sel -1;
#X obj 1079 265 sel -1;
#X obj 1178 265 sel -1;
#X obj 980 236 unpack f f f f, f 50;
#X obj 1310 294 s spin_spd_all_2pnl;
#X obj 1211 294 s spin_spd_2_2pnl;
#X obj 1112 294 s spin_spd_1_2pnl;
#X obj 1013 294 s spin_spd_0_2pnl;
#X obj 823 265 sel -1;
#X obj 526 265 sel -1;
#X obj 625 265 sel -1;
#X obj 724 265 sel -1;
#X obj 526 236 unpack f f f f, f 50;
#X obj 856 294 s dist_spd_all_2pnl;
#X obj 757 294 s dist_spd_2_2pnl;
#X obj 658 294 s dist_spd_1_2pnl;
#X obj 559 294 s dist_spd_0_2pnl;
#X obj 1274 168 sel -1;
#X obj 977 168 sel -1;
#X obj 1076 168 sel -1;
#X obj 1175 168 sel -1;
#X obj 977 139 unpack f f f f, f 50;
#X obj 1010 197 s loc_spd_0_2pnl;
#X obj 1109 197 s loc_spd_1_2pnl;
#X obj 1208 197 s loc_spd_2_2pnl;
#X obj 1307 197 s loc_spd_all_2pnl;
#X obj 823 362 sel -1;
#X obj 526 362 sel -1;
#X obj 625 362 sel -1;
#X obj 724 362 sel -1;
#X obj 526 333 unpack f f f f, f 50;
#X obj 856 391 s size_all_2pnl;
#X obj 757 391 s size_2_2pnl;
#X obj 658 391 s size_1_2pnl;
#X obj 559 391 s size_0_2pnl;
#X obj 1254 362 sel -1;
#X obj 957 362 sel -1;
#X obj 1056 362 sel -1;
#X obj 1155 362 sel -1;
#X obj 957 333 unpack f f f f, f 50;
#X obj 1287 391 s dist_all_2pnl;
#X obj 1188 391 s dist_2_2pnl;
#X obj 1089 391 s dist_1_2pnl;
#X obj 990 391 s dist_0_2pnl;
#X obj 1694 362 sel -1;
#X obj 1397 362 sel -1;
#X obj 1496 362 sel -1;
#X obj 1595 362 sel -1;
#X obj 1397 333 unpack f f f f, f 50;
#X obj 1727 391 s spin_all_2pnl;
#X obj 1628 391 s spin_2_2pnl;
#X obj 1529 391 s spin_1_2pnl;
#X obj 1430 391 s spin_0_2pnl;
#X obj 758 197 s speeds_2_2pnl;
#X obj 659 197 s speeds_1_2pnl;
#X obj 560 197 s speeds_0_2pnl;
#X connect 0 1 30 0;
#X connect 1 1 37 0;
#X connect 2 1 38 0;
#X connect 3 1 39 0;
#X connect 4 1 8 0;
#X connect 5 1 9 0;
#X connect 6 1 10 0;
#X connect 7 1 11 0;
#X connect 12 1 40 0;
#X connect 13 1 15 0;
#X connect 14 1 16 0;
#X connect 17 0 31 0;
#X connect 18 0 62 0;
#X connect 31 0 32 0;
#X connect 32 0 18 0;
#X connect 33 0 32 0;
#X connect 34 1 75 0;
#X connect 35 0 18 0;
#X connect 44 0 74 0;
#X connect 45 0 1 0;
#X connect 45 1 3 0;
#X connect 45 2 2 0;
#X connect 46 0 48 0;
#X connect 46 1 49 0;
#X connect 46 2 50 0;
#X connect 46 3 51 0;
#X connect 46 4 52 0;
#X connect 46 5 53 0;
#X connect 48 1 41 0;
#X connect 49 1 42 0;
#X connect 50 1 43 0;
#X connect 51 1 61 0;
#X connect 52 1 60 0;
#X connect 53 1 59 0;
#X connect 54 1 47 0;
#X connect 56 1 142 0;
#X connect 57 1 141 0;
#X connect 58 1 140 0;
#X connect 62 0 72 0;
#X connect 62 1 65 0;
#X connect 62 2 64 0;
#X connect 62 3 63 0;
#X connect 62 4 70 0;
#X connect 63 0 44 0;
#X connect 64 0 45 0;
#X connect 65 0 46 0;
#X connect 66 0 54 0;
#X connect 66 1 4 0;
#X connect 66 2 5 0;
#X connect 66 3 6 0;
#X connect 66 4 67 0;
#X connect 67 1 68 0;
#X connect 70 0 71 0;
#X connect 71 0 13 0;
#X connect 71 1 14 0;
#X connect 71 2 12 0;
#X connect 71 3 7 0;
#X connect 71 4 0 0;
#X connect 72 0 66 0;
#X connect 79 0 56 0;
#X connect 79 1 57 0;
#X connect 79 2 58 0;
#X connect 79 3 34 0;
#X connect 80 1 85 0;
#X connect 81 1 78 0;
#X connect 82 1 77 0;
#X connect 83 1 76 0;
#X connect 84 0 81 0;
#X connect 84 1 82 0;
#X connect 84 2 83 0;
#X connect 84 3 80 0;
#X connect 86 1 91 0;
#X connect 87 1 94 0;
#X connect 88 1 93 0;
#X connect 89 1 92 0;
#X connect 90 0 87 0;
#X connect 90 1 88 0;
#X connect 90 2 89 0;
#X connect 90 3 86 0;
#X connect 95 1 100 0;
#X connect 96 1 103 0;
#X connect 97 1 102 0;
#X connect 98 1 101 0;
#X connect 99 0 96 0;
#X connect 99 1 97 0;
#X connect 99 2 98 0;
#X connect 99 3 95 0;
#X connect 104 1 112 0;
#X connect 105 1 109 0;
#X connect 106 1 110 0;
#X connect 107 1 111 0;
#X connect 108 0 105 0;
#X connect 108 1 106 0;
#X connect 108 2 107 0;
#X connect 108 3 104 0;
#X connect 113 1 118 0;
#X connect 114 1 121 0;
#X connect 115 1 120 0;
#X connect 116 1 119 0;
#X connect 117 0 114 0;
#X connect 117 1 115 0;
#X connect 117 2 116 0;
#X connect 117 3 113 0;
#X connect 122 1 127 0;
#X connect 123 1 130 0;
#X connect 124 1 129 0;
#X connect 125 1 128 0;
#X connect 126 0 123 0;
#X connect 126 1 124 0;
#X connect 126 2 125 0;
#X connect 126 3 122 0;
#X connect 131 1 136 0;
#X connect 132 1 139 0;
#X connect 133 1 138 0;
#X connect 134 1 137 0;
#X connect 135 0 132 0;
#X connect 135 1 133 0;
#X connect 135 2 134 0;
#X connect 135 3 131 0;
