#N canvas 76 154 1547 847 10;
#X obj 1424 230 sel -1;
#X obj 1025 387 sel -1;
#X obj 1358 387 sel -1;
#X obj 1191 387 sel -1;
#X obj 1142 604 sel -1;
#X obj 1259 604 sel -1;
#X obj 1376 604 sel -1;
#X obj 1181 230 sel -1;
#X obj 1142 633 s fadertrim-4;
#X obj 1259 633 s fadertrim-5;
#X obj 1376 633 s fadertrim-6;
#X obj 1181 259 s fadertrim-7;
#X obj 719 230 sel -1;
#X obj 455 230 sel -1;
#X obj 576 230 sel -1;
#X obj 455 259 s markerbackbutton;
#X obj 576 259 s markerforwardbutton;
#X obj 51 23 inlet;
#X obj 51 88 symbol;
#X text 473 279 ROTATE BACK;
#X text 599 279 ROTATE FORWARD;
#X text 717 279 LINEAR/POLAR;
#X text 1157 655 BIG FREQ;
#X text 1276 655 BIG DIFF;
#X text 1388 655 BIG STAY;
#X text 1194 280 3 STAY;
#X text 1047 437 3 SIZE;
#X text 1381 437 3 SPIN;
#X text 1201 437 3 DISTANCE;
#X text 1436 282 WIGGLE;
#X obj 1424 259 s rbutton-7;
#X msg 51 52 set \$1;
#X msg 158 70 Vertical;
#X obj 158 41 r start-instruction;
#X text 1322 279 SPEED;
#X obj 1302 230 sel -1;
#X obj 549 70 inlet;
#X text 516 42 INSTRUCTION BYPASS;
#X obj 1025 416 s circle_size_inst;
#X obj 1358 416 s spin_inst;
#X obj 1191 416 s circle_distance_inst;
#X obj 1302 259 s speed_inst;
#X obj 719 259 s lin_or_pol_inst;
#X obj 827 549 s circle_distance_0;
#X obj 848 529 s circle_distance_1;
#X obj 869 509 s circle_distance_2;
#X floatatom 869 309 5 0 0 0 - - -, f 5;
#X obj 869 337 s trader_presets;
#X obj 1025 358 unpack f f f, f 56;
#X obj 794 391 unpack f f f f f f;
#X obj 1025 575 unpack f f f f, f 59;
#X obj 1025 633 s big_circle_size;
#X obj 794 520 sel -1;
#X obj 815 500 sel -1;
#X obj 836 480 sel -1;
#X obj 857 460 sel -1;
#X obj 878 440 sel -1;
#X obj 899 420 sel -1;
#X obj 1025 604 sel -1;
#X text 1043 655 BIG SIZE;
#X obj 863 259 s speed_0;
#X obj 972 259 s speed_1;
#X obj 1093 259 s speed_2;
#X obj 830 230 sel -1;
#X obj 939 230 sel -1;
#X obj 1060 230 sel -1;
#X obj 932 449 s spin_2;
#X obj 911 469 s spin_1;
#X obj 890 489 s spin_0;
#X obj 455 201 unpack f f f f f f f f f, f 162;
#X obj 51 154 instructor_presets;
#X msg 156 183 \$1 \$2 \$3 \$4 \$5 \$6 \$7 \$8 \$9;
#X msg 129 291 \$1;
#X msg 103 340 \$1 \$2 \$3;
#X msg 77 373 \$1 \$2 \$3 \$4 \$5 \$6;
#X msg 51 557 \$1 \$2 \$3 \$4;
#X connect 0 1 30 0;
#X connect 1 1 38 0;
#X connect 2 1 39 0;
#X connect 3 1 40 0;
#X connect 4 1 8 0;
#X connect 5 1 9 0;
#X connect 6 1 10 0;
#X connect 7 1 11 0;
#X connect 12 1 42 0;
#X connect 13 1 15 0;
#X connect 14 1 16 0;
#X connect 17 0 31 0;
#X connect 18 0 70 0;
#X connect 31 0 32 0;
#X connect 32 0 18 0;
#X connect 33 0 32 0;
#X connect 35 1 41 0;
#X connect 36 0 18 0;
#X connect 46 0 47 0;
#X connect 48 0 1 0;
#X connect 48 1 3 0;
#X connect 48 2 2 0;
#X connect 49 0 52 0;
#X connect 49 1 53 0;
#X connect 49 2 54 0;
#X connect 49 3 55 0;
#X connect 49 4 56 0;
#X connect 49 5 57 0;
#X connect 50 0 58 0;
#X connect 50 1 4 0;
#X connect 50 2 5 0;
#X connect 50 3 6 0;
#X connect 52 1 43 0;
#X connect 53 1 44 0;
#X connect 54 1 45 0;
#X connect 55 1 68 0;
#X connect 56 1 67 0;
#X connect 57 1 66 0;
#X connect 58 1 51 0;
#X connect 63 1 60 0;
#X connect 64 1 61 0;
#X connect 65 1 62 0;
#X connect 69 0 13 0;
#X connect 69 1 14 0;
#X connect 69 2 12 0;
#X connect 69 3 63 0;
#X connect 69 4 64 0;
#X connect 69 5 65 0;
#X connect 69 6 7 0;
#X connect 69 7 35 0;
#X connect 69 8 0 0;
#X connect 70 0 75 0;
#X connect 70 1 74 0;
#X connect 70 2 73 0;
#X connect 70 3 72 0;
#X connect 70 4 71 0;
#X connect 71 0 69 0;
#X connect 72 0 46 0;
#X connect 73 0 48 0;
#X connect 74 0 49 0;
#X connect 75 0 50 0;
