#N canvas 67 130 880 655 10;
#X obj 300 212 textfile;
#X obj 300 162 bng 30 250 50 0 empty empty empty 17 7 0 10 -262144
-1 -1;
#X msg 369 183 rewind;
#X obj 342 144 t b b;
#X obj 252 558 s start-instruction;
#X obj 343 519 s end-instruction;
#X obj 319 329 -;
#X obj 319 358 abs;
#X obj 316 461 del;
#X obj 292 280 t f f;
#X obj 233 499 sel 1;
#X text 450 521 Probably not used much;
#X obj 233 580 s trigger_next_textline;
#X obj 300 95 r trigger_next_textline;
#X obj 418 165 openpanel;
#X floatatom 248 416 5 0 0 0 - - -, f 5;
#X floatatom 319 387 5 0 0 0 - - -, f 5;
#X obj 418 18 inlet;
#X obj 342 18 inlet;
#X obj 233 18 inlet;
#X obj 178 566 bng 15 250 50 0 empty empty empty 17 7 0 10 -262144
-1 -1;
#X obj 319 427 * 1000;
#X text 541 71 Make the label time difference a variable. Use it to
determine speed of the movements.;
#X floatatom 233 210 5 0 0 0 - - -, f 5;
#X obj 455 316 outlet;
#X obj 429 461 s current_instruction_length;
#X obj 233 470 >=;
#X obj 233 528 t b b b;
#X obj 233 334 nbx 5 14 -1e+37 1e+37 0 0 empty empty empty 0 -8 0 10
-262144 -1 -1 72 256;
#X obj 470 126 bng 15 250 50 0 empty empty empty 17 7 0 10 -262144
-1 -1;
#X floatatom 368 332 5 0 0 0 - - -, f 5;
#X obj 520 303 outlet;
#X text 454 339 instruction;
#X text 569 313 extra instruction;
#X obj 300 241 unpack f f s f;
#X obj 601 259 s timer_on_off;
#X msg 601 230 0;
#X msg 519 193 write temp_labels.txt;
#X msg 418 194 read \$1;
#X obj 519 133 bng 15 250 50 0 empty empty empty 17 7 0 10 -262144
-1 -1;
#X text 540 131 Save current labels;
#X floatatom 475 275 5 0 0 0 - - -, f 5;
#X connect 0 0 34 0;
#X connect 0 1 36 0;
#X connect 1 0 0 0;
#X connect 2 0 0 0;
#X connect 3 0 1 0;
#X connect 3 1 2 0;
#X connect 6 0 7 0;
#X connect 7 0 16 0;
#X connect 8 0 5 0;
#X connect 9 0 15 0;
#X connect 9 1 6 0;
#X connect 10 0 27 0;
#X connect 13 0 1 0;
#X connect 14 0 38 0;
#X connect 15 0 26 1;
#X connect 16 0 21 0;
#X connect 17 0 14 0;
#X connect 18 0 3 0;
#X connect 19 0 23 0;
#X connect 21 0 8 1;
#X connect 21 0 25 0;
#X connect 23 0 28 0;
#X connect 26 0 10 0;
#X connect 27 0 20 0;
#X connect 27 0 12 0;
#X connect 27 1 4 0;
#X connect 27 2 8 0;
#X connect 28 0 26 0;
#X connect 29 0 14 0;
#X connect 34 0 9 0;
#X connect 34 1 6 1;
#X connect 34 1 30 0;
#X connect 34 2 24 0;
#X connect 34 3 41 0;
#X connect 36 0 35 0;
#X connect 37 0 0 0;
#X connect 38 0 0 0;
#X connect 39 0 37 0;
#X connect 41 0 31 0;
