#N canvas 151 144 1754 847 10;
#X obj 951 390 sel -1;
#X obj 685 527 sel -1;
#X obj 1018 527 sel -1;
#X obj 851 527 sel -1;
#X obj 812 744 sel -1;
#X obj 930 744 sel -1;
#X obj 1048 744 sel -1;
#X obj 801 390 sel -1;
#X obj 845 773 s fadertrim-4;
#X obj 963 773 s fadertrim-5;
#X obj 1081 773 s fadertrim-6;
#X obj 834 419 s fadertrim-7;
#X obj 652 390 sel -1;
#X obj 354 390 sel -1;
#X obj 503 390 sel -1;
#X obj 387 419 s markerbackbutton;
#X obj 536 419 s markerforwardbutton;
#X obj 51 23 inlet;
#X obj 51 88 symbol;
#X text 405 439 ROTATE BACK;
#X text 559 439 ROTATE FORWARD;
#X text 683 439 LINEAR/POLAR;
#X text 860 795 BIG FREQ;
#X text 980 795 BIG DIFF;
#X text 1093 795 BIG STAY;
#X text 847 440 3 STAY;
#X text 740 577 3 SIZE;
#X text 1074 577 3 SPIN;
#X text 894 577 3 DISTANCE;
#X text 996 442 WIGGLE;
#X obj 984 419 s rbutton-7;
#X msg 51 52 set \$1;
#X msg 158 70 Vertical;
#X obj 158 41 r start-instruction;
#X obj 1341 250 sel -1;
#X obj 549 70 inlet;
#X text 516 42 INSTRUCTION BYPASS;
#X obj 718 556 s circle_size_inst;
#X obj 1051 556 s spin_inst;
#X obj 884 556 s circle_distance_inst;
#X obj 1374 279 s speed_inst;
#X obj 685 419 s lin_or_pol_inst;
#X obj 487 689 s circle_distance_0;
#X obj 508 669 s circle_distance_1;
#X obj 529 649 s circle_distance_2;
#X floatatom 1129 469 5 0 0 0 - - -, f 5;
#X obj 1129 497 s trader_presets;
#X obj 685 498 unpack f f f, f 56;
#X obj 454 531 unpack f f f f f f;
#X obj 728 773 s big_circle_size;
#X obj 454 660 sel -1;
#X obj 475 640 sel -1;
#X obj 496 620 sel -1;
#X obj 517 600 sel -1;
#X obj 538 580 sel -1;
#X obj 559 560 sel -1;
#X obj 695 744 sel -1;
#X text 746 795 BIG SIZE;
#X obj 1018 279 s speed_0;
#X obj 1137 279 s speed_1;
#X obj 1255 279 s speed_2;
#X obj 985 250 sel -1;
#X obj 1104 250 sel -1;
#X obj 1222 250 sel -1;
#X obj 592 589 s spin_2;
#X obj 571 609 s spin_1;
#X obj 550 629 s spin_0;
#X obj 51 154 instructor_presets;
#X msg 114 451 \$1;
#X msg 93 480 \$1 \$2 \$3;
#X msg 72 513 \$1 \$2 \$3 \$4 \$5 \$6;
#X obj 695 715 unpack f f f f f, f 79;
#X obj 1166 744 sel -1;
#X obj 1199 773 s bigcircle_amplitude;
#X text 1211 795 AMPLITUDE;
#X obj 274 270 s circle_distance_speed_0;
#X obj 393 319 s circle_distance_speed_1;
#X obj 511 279 s circle_distance_speed_2;
#X obj 274 241 sel -1;
#X obj 393 290 sel -1;
#X obj 511 250 sel -1;
#X obj 156 290 s bigcircle_size_speed;
#X obj 156 261 sel -1;
#X obj 630 328 s sphere_size_speed_0;
#X obj 630 300 sel -1;
#X obj 748 270 sel -1;
#X obj 867 250 sel -1;
#X obj 156 221 unpack f f f f f f f f f f f, f 198;
#X msg 156 192 \$1 \$2 \$3 \$4 \$5 \$6 \$7 \$8 \$9 \$10 \$11;
#X msg 135 343 \$1 \$2 \$3 \$4 \$5;
#X obj 354 361 unpack f f f f f, f 100;
#X msg 51 697 \$1 \$2 \$3 \$4 \$5;
#X obj 867 278 s sphere_size_speed_2;
#X obj 748 299 s sphere_size_speed_1;
#X text 1214 698 NEED SPEEDS FOR THESE?;
#X connect 0 1 30 0;
#X connect 1 1 37 0;
#X connect 2 1 38 0;
#X connect 3 1 39 0;
#X connect 4 1 8 0;
#X connect 5 1 9 0;
#X connect 6 1 10 0;
#X connect 7 1 11 0;
#X connect 12 1 41 0;
#X connect 13 1 15 0;
#X connect 14 1 16 0;
#X connect 17 0 31 0;
#X connect 18 0 67 0;
#X connect 31 0 32 0;
#X connect 32 0 18 0;
#X connect 33 0 32 0;
#X connect 34 1 40 0;
#X connect 35 0 18 0;
#X connect 45 0 46 0;
#X connect 47 0 1 0;
#X connect 47 1 3 0;
#X connect 47 2 2 0;
#X connect 48 0 50 0;
#X connect 48 1 51 0;
#X connect 48 2 52 0;
#X connect 48 3 53 0;
#X connect 48 4 54 0;
#X connect 48 5 55 0;
#X connect 50 1 42 0;
#X connect 51 1 43 0;
#X connect 52 1 44 0;
#X connect 53 1 66 0;
#X connect 54 1 65 0;
#X connect 55 1 64 0;
#X connect 56 1 49 0;
#X connect 61 1 58 0;
#X connect 62 1 59 0;
#X connect 63 1 60 0;
#X connect 67 0 91 0;
#X connect 67 1 70 0;
#X connect 67 2 69 0;
#X connect 67 3 68 0;
#X connect 67 4 89 0;
#X connect 67 5 88 0;
#X connect 68 0 45 0;
#X connect 69 0 47 0;
#X connect 70 0 48 0;
#X connect 71 0 56 0;
#X connect 71 1 4 0;
#X connect 71 2 5 0;
#X connect 71 3 6 0;
#X connect 71 4 72 0;
#X connect 72 1 73 0;
#X connect 78 0 75 0;
#X connect 79 0 76 0;
#X connect 80 0 77 0;
#X connect 82 0 81 0;
#X connect 84 0 83 0;
#X connect 85 0 93 0;
#X connect 86 0 92 0;
#X connect 87 0 82 0;
#X connect 87 1 78 0;
#X connect 87 2 79 0;
#X connect 87 3 80 0;
#X connect 87 4 84 0;
#X connect 87 5 85 0;
#X connect 87 6 86 0;
#X connect 87 7 61 0;
#X connect 87 8 62 0;
#X connect 87 9 63 0;
#X connect 87 10 34 0;
#X connect 88 0 87 0;
#X connect 89 0 90 0;
#X connect 90 0 13 0;
#X connect 90 1 14 0;
#X connect 90 2 12 0;
#X connect 90 3 7 0;
#X connect 90 4 0 0;
#X connect 91 0 71 0;
