#N canvas 563 289 1056 655 10;
#X obj 300 212 textfile;
#X obj 300 162 bng 30 250 50 0 empty empty empty 17 7 0 10 -262144
-1 -1;
#X msg 369 183 rewind;
#X obj 342 144 t b b;
#X obj 238 510 s start-instruction;
#X obj 306 369 -;
#X obj 306 398 abs;
#X obj 279 320 t f f;
#X obj 211 451 sel 1;
#X obj 211 532 s trigger_next_textline;
#X obj 300 115 r trigger_next_textline;
#X obj 418 165 openpanel;
#X floatatom 226 394 5 0 0 0 - - -, f 5;
#X floatatom 306 427 5 0 0 0 - - -, f 5;
#X obj 418 78 inlet;
#X obj 342 78 inlet;
#X obj 211 68 inlet;
#X obj 306 455 * 1000;
#X floatatom 211 120 5 0 0 0 - - -, f 5;
#X obj 306 484 s current_instruction_length;
#X obj 211 422 >=;
#X obj 621 259 s timer_on_off;
#X msg 621 230 0;
#X msg 649 193 write temp_labels.txt;
#X msg 418 194 read \$1;
#X obj 649 163 bng 15 250 50 0 empty empty empty 17 7 0 10 -262144
-1 -1;
#X text 670 161 Save current labels;
#X obj 720 248 s play_rec;
#X obj 342 398 s current_instruction;
#X obj 211 480 t b b;
#X obj 363 369 s aux_inst_0;
#X obj 300 241 unpack f f s f f f f f f f f, f 36;
#X obj 385 340 s aux_inst_1;
#X obj 406 311 s aux_inst_2;
#X obj 427 282 s aux_inst_3;
#X obj 449 369 s aux_inst_4;
#X obj 470 340 s aux_inst_5;
#X obj 491 311 s aux_inst_6;
#X obj 513 282 s aux_inst_7;
#X connect 0 0 31 0;
#X connect 0 1 22 0;
#X connect 1 0 0 0;
#X connect 2 0 0 0;
#X connect 3 0 1 0;
#X connect 3 1 2 0;
#X connect 5 0 6 0;
#X connect 6 0 13 0;
#X connect 7 0 12 0;
#X connect 7 1 5 0;
#X connect 8 0 29 0;
#X connect 10 0 1 0;
#X connect 11 0 24 0;
#X connect 12 0 20 1;
#X connect 13 0 17 0;
#X connect 14 0 11 0;
#X connect 15 0 3 0;
#X connect 16 0 18 0;
#X connect 17 0 19 0;
#X connect 18 0 20 0;
#X connect 20 0 8 0;
#X connect 22 0 21 0;
#X connect 22 0 27 0;
#X connect 23 0 0 0;
#X connect 24 0 0 0;
#X connect 25 0 23 0;
#X connect 29 0 9 0;
#X connect 29 1 4 0;
#X connect 31 0 7 0;
#X connect 31 1 5 1;
#X connect 31 2 28 0;
#X connect 31 3 30 0;
#X connect 31 4 32 0;
#X connect 31 5 33 0;
#X connect 31 6 34 0;
#X connect 31 7 35 0;
#X connect 31 8 36 0;
#X connect 31 9 37 0;
#X connect 31 10 38 0;
