#N canvas 67 156 1477 855 10;
#X obj 23 7 inlet;
#X obj 105 784 outlet;
#X obj 117 764 outlet;
#X obj 128 824 outlet;
#X obj 140 804 outlet;
#X obj 152 784 outlet;
#X obj 164 764 outlet;
#X obj 34 824 outlet;
#X obj 46 804 outlet;
#X obj 58 784 outlet;
#X obj 70 764 outlet;
#X obj 81 825 outlet;
#X obj 93 805 outlet;
#X obj 23 764 outlet;
#X obj 23 675 r inst_out_0;
#X obj 101 675 r inst_out_4;
#X obj 181 675 r inst_out_8;
#X obj 261 675 r inst_out_12;
#X obj 92 696 r inst_out_3;
#X obj 171 695 r inst_out_7;
#X obj 251 695 r inst_out_11;
#X obj 81 715 r inst_out_2;
#X obj 161 715 r inst_out_6;
#X obj 241 715 r inst_out_10;
#X obj 71 735 r inst_out_1;
#X obj 151 735 r inst_out_5;
#X obj 231 735 r inst_out_9;
#X obj 23 75 reset_preset_sfgem, f 40;
#X obj 23 46 sel reset expand random random_metro, f 223;
#X obj 23 97 preset_outlets_router, f 40;
#X obj 356 97 preset_outlets_router, f 40;
#X obj 356 75 expand_preset_sfgem, f 40;
#X obj 690 97 preset_outlets_router, f 40;
#X obj 690 75 random_locations_preset_sfgem, f 40;
#X obj 1024 97 preset_outlets_router, f 40;
#X obj 1024 75 random_locations_preset_metro_sfgem, f 40;
#X obj 23 197 preset_outlets_router, f 40;
#X obj 356 197 preset_outlets_router, f 40;
#X obj 690 197 preset_outlets_router, f 40;
#X obj 23 175 big_circle_appear_preset_sfgem, f 40;
#X obj 690 175 contract_preset_sfgem, f 40;
#X obj 1024 197 preset_outlets_router, f 40;
#X obj 1024 175 return_preset_sfgem, f 40;
#X obj 23 297 preset_outlets_router, f 40;
#X obj 356 297 preset_outlets_router, f 40;
#X obj 690 297 preset_outlets_router, f 40;
#X obj 1024 297 preset_outlets_router, f 40;
#X obj 23 275 horizontal_preset_sfgem, f 40;
#X obj 356 275 expand_random_preset_sfgem, f 40;
#X obj 690 275 expand_stabilize_preset_sfgem, f 40;
#X obj 1024 275 polar_to_linear_preset_sfgem, f 40;
#X obj 23 246 sel horizontal expand_random expand_stabilize polar_to_linear
, f 223;
#X obj 356 175 slow_spin_preset_sfgem, f 40;
#X obj 23 397 preset_outlets_router, f 40;
#X obj 356 397 preset_outlets_router, f 40;
#X obj 23 375 vertical_preset_sfgem, f 40;
#X obj 356 375 triangle_preset_sfgem, f 40;
#X obj 23 146 sel big_circle_appear slow_spin contract return, f 223
;
#X obj 690 397 preset_outlets_router, f 40;
#X obj 690 375 wind_up_preset_sfgem, f 40;
#X obj 1024 397 preset_outlets_router, f 40;
#X obj 1024 375 fluctuate_size_preset_sfgem, f 40;
#X obj 23 346 sel vertical triangle wind_up fluctuate_size, f 223
;
#X text 1026 425 Use metro to choose random size +/- the previous;
#X obj 23 497 preset_outlets_router, f 40;
#X obj 356 497 preset_outlets_router, f 40;
#X obj 23 475 vertical_preset_sfgem, f 40;
#X obj 356 475 triangle_preset_sfgem, f 40;
#X obj 690 497 preset_outlets_router, f 40;
#X obj 1024 497 preset_outlets_router, f 40;
#X obj 1024 475 fluctuate_size_preset_sfgem, f 40;
#X text 1026 525 Use metro to choose random size +/- the previous;
#X obj 23 446 sel whipout_one whipout_two whipout_three whipout_four
, f 223;
#X obj 690 475 wind_up_preset_sfgem, f 40;
#X connect 0 0 28 0;
#X connect 0 0 51 0;
#X connect 0 0 57 0;
#X connect 0 0 62 0;
#X connect 0 0 72 0;
#X connect 14 0 13 0;
#X connect 15 0 10 0;
#X connect 16 0 2 0;
#X connect 17 0 6 0;
#X connect 18 0 9 0;
#X connect 19 0 1 0;
#X connect 20 0 5 0;
#X connect 21 0 8 0;
#X connect 22 0 12 0;
#X connect 23 0 4 0;
#X connect 24 0 7 0;
#X connect 25 0 11 0;
#X connect 26 0 3 0;
#X connect 27 0 29 0;
#X connect 27 1 29 1;
#X connect 27 2 29 2;
#X connect 27 3 29 3;
#X connect 27 4 29 4;
#X connect 27 5 29 5;
#X connect 27 6 29 6;
#X connect 27 7 29 7;
#X connect 27 8 29 8;
#X connect 27 9 29 9;
#X connect 27 10 29 10;
#X connect 27 11 29 11;
#X connect 27 12 29 12;
#X connect 28 0 27 0;
#X connect 28 1 31 0;
#X connect 28 2 33 0;
#X connect 28 3 35 0;
#X connect 31 0 30 0;
#X connect 31 1 30 1;
#X connect 31 2 30 2;
#X connect 31 3 30 3;
#X connect 31 4 30 4;
#X connect 31 5 30 5;
#X connect 31 6 30 6;
#X connect 31 7 30 7;
#X connect 31 8 30 8;
#X connect 31 9 30 9;
#X connect 31 10 30 10;
#X connect 31 11 30 11;
#X connect 31 12 30 12;
#X connect 33 0 32 0;
#X connect 33 1 32 1;
#X connect 33 2 32 2;
#X connect 33 3 32 3;
#X connect 33 4 32 4;
#X connect 33 5 32 5;
#X connect 33 6 32 6;
#X connect 33 7 32 7;
#X connect 33 8 32 8;
#X connect 33 9 32 9;
#X connect 33 10 32 10;
#X connect 33 11 32 11;
#X connect 33 12 32 12;
#X connect 35 0 34 0;
#X connect 35 1 34 1;
#X connect 35 2 34 2;
#X connect 35 3 34 3;
#X connect 35 4 34 4;
#X connect 35 5 34 5;
#X connect 35 6 34 6;
#X connect 35 7 34 7;
#X connect 35 8 34 8;
#X connect 35 9 34 9;
#X connect 35 10 34 10;
#X connect 35 11 34 11;
#X connect 35 12 34 12;
#X connect 39 0 36 0;
#X connect 39 1 36 1;
#X connect 39 2 36 2;
#X connect 39 3 36 3;
#X connect 39 4 36 4;
#X connect 39 5 36 5;
#X connect 39 6 36 6;
#X connect 39 7 36 7;
#X connect 39 8 36 8;
#X connect 39 9 36 9;
#X connect 39 10 36 10;
#X connect 39 11 36 11;
#X connect 39 12 36 12;
#X connect 40 0 38 0;
#X connect 40 1 38 1;
#X connect 40 2 38 2;
#X connect 40 3 38 3;
#X connect 40 4 38 4;
#X connect 40 5 38 5;
#X connect 40 6 38 6;
#X connect 40 7 38 7;
#X connect 40 8 38 8;
#X connect 40 9 38 9;
#X connect 40 10 38 10;
#X connect 40 11 38 11;
#X connect 40 12 38 12;
#X connect 42 0 41 0;
#X connect 42 1 41 1;
#X connect 42 2 41 2;
#X connect 42 3 41 3;
#X connect 42 4 41 4;
#X connect 42 5 41 5;
#X connect 42 6 41 6;
#X connect 42 7 41 7;
#X connect 42 8 41 8;
#X connect 42 9 41 9;
#X connect 42 10 41 10;
#X connect 42 11 41 11;
#X connect 42 12 41 12;
#X connect 47 0 43 0;
#X connect 47 1 43 1;
#X connect 47 2 43 2;
#X connect 47 3 43 3;
#X connect 47 4 43 4;
#X connect 47 5 43 5;
#X connect 47 6 43 6;
#X connect 47 7 43 7;
#X connect 47 8 43 8;
#X connect 47 9 43 9;
#X connect 47 10 43 10;
#X connect 47 11 43 11;
#X connect 47 12 43 12;
#X connect 48 0 44 0;
#X connect 48 1 44 1;
#X connect 48 2 44 2;
#X connect 48 3 44 3;
#X connect 48 4 44 4;
#X connect 48 5 44 5;
#X connect 48 6 44 6;
#X connect 48 7 44 7;
#X connect 48 8 44 8;
#X connect 48 9 44 9;
#X connect 48 10 44 10;
#X connect 48 11 44 11;
#X connect 48 12 44 12;
#X connect 49 0 45 0;
#X connect 49 1 45 1;
#X connect 49 2 45 2;
#X connect 49 3 45 3;
#X connect 49 4 45 4;
#X connect 49 5 45 5;
#X connect 49 6 45 6;
#X connect 49 7 45 7;
#X connect 49 8 45 8;
#X connect 49 9 45 9;
#X connect 49 10 45 10;
#X connect 49 11 45 11;
#X connect 49 12 45 12;
#X connect 50 0 46 0;
#X connect 50 1 46 1;
#X connect 50 2 46 2;
#X connect 50 3 46 3;
#X connect 50 4 46 4;
#X connect 50 5 46 5;
#X connect 50 6 46 6;
#X connect 50 7 46 7;
#X connect 50 8 46 8;
#X connect 50 9 46 9;
#X connect 50 10 46 10;
#X connect 50 11 46 11;
#X connect 50 12 46 12;
#X connect 51 0 47 0;
#X connect 51 1 48 0;
#X connect 51 2 49 0;
#X connect 51 3 50 0;
#X connect 52 0 37 0;
#X connect 52 1 37 1;
#X connect 52 2 37 2;
#X connect 52 3 37 3;
#X connect 52 4 37 4;
#X connect 52 5 37 5;
#X connect 52 6 37 6;
#X connect 52 7 37 7;
#X connect 52 8 37 8;
#X connect 52 9 37 9;
#X connect 52 10 37 10;
#X connect 52 11 37 11;
#X connect 52 12 37 12;
#X connect 55 0 53 0;
#X connect 55 1 53 1;
#X connect 55 2 53 2;
#X connect 55 3 53 3;
#X connect 55 4 53 4;
#X connect 55 5 53 5;
#X connect 55 6 53 6;
#X connect 55 7 53 7;
#X connect 55 8 53 8;
#X connect 55 9 53 9;
#X connect 55 10 53 10;
#X connect 55 11 53 11;
#X connect 55 12 53 12;
#X connect 56 0 54 0;
#X connect 56 1 54 1;
#X connect 56 2 54 2;
#X connect 56 3 54 3;
#X connect 56 4 54 4;
#X connect 56 5 54 5;
#X connect 56 6 54 6;
#X connect 56 7 54 7;
#X connect 56 8 54 8;
#X connect 56 9 54 9;
#X connect 56 10 54 10;
#X connect 56 11 54 11;
#X connect 56 12 54 12;
#X connect 57 0 39 0;
#X connect 57 1 52 0;
#X connect 57 2 40 0;
#X connect 57 3 42 0;
#X connect 59 0 58 0;
#X connect 59 1 58 1;
#X connect 59 2 58 2;
#X connect 59 3 58 3;
#X connect 59 4 58 4;
#X connect 59 5 58 5;
#X connect 59 6 58 6;
#X connect 59 7 58 7;
#X connect 59 8 58 8;
#X connect 59 9 58 9;
#X connect 59 10 58 10;
#X connect 59 11 58 11;
#X connect 59 12 58 12;
#X connect 61 0 60 0;
#X connect 61 1 60 1;
#X connect 61 2 60 2;
#X connect 61 3 60 3;
#X connect 61 4 60 4;
#X connect 61 5 60 5;
#X connect 61 6 60 6;
#X connect 61 7 60 7;
#X connect 61 8 60 8;
#X connect 61 9 60 9;
#X connect 61 10 60 10;
#X connect 61 11 60 11;
#X connect 61 12 60 12;
#X connect 62 0 55 0;
#X connect 62 1 56 0;
#X connect 62 2 59 0;
#X connect 62 3 61 0;
#X connect 66 0 64 0;
#X connect 66 1 64 1;
#X connect 66 2 64 2;
#X connect 66 3 64 3;
#X connect 66 4 64 4;
#X connect 66 5 64 5;
#X connect 66 6 64 6;
#X connect 66 7 64 7;
#X connect 66 8 64 8;
#X connect 66 9 64 9;
#X connect 66 10 64 10;
#X connect 66 11 64 11;
#X connect 66 12 64 12;
#X connect 67 0 65 0;
#X connect 67 1 65 1;
#X connect 67 2 65 2;
#X connect 67 3 65 3;
#X connect 67 4 65 4;
#X connect 67 5 65 5;
#X connect 67 6 65 6;
#X connect 67 7 65 7;
#X connect 67 8 65 8;
#X connect 67 9 65 9;
#X connect 67 10 65 10;
#X connect 67 11 65 11;
#X connect 67 12 65 12;
#X connect 70 0 69 0;
#X connect 70 1 69 1;
#X connect 70 2 69 2;
#X connect 70 3 69 3;
#X connect 70 4 69 4;
#X connect 70 5 69 5;
#X connect 70 6 69 6;
#X connect 70 7 69 7;
#X connect 70 8 69 8;
#X connect 70 9 69 9;
#X connect 70 10 69 10;
#X connect 70 11 69 11;
#X connect 70 12 69 12;
#X connect 72 0 66 0;
#X connect 72 1 67 0;
#X connect 72 2 73 0;
#X connect 72 3 70 0;
#X connect 73 0 68 0;
#X connect 73 1 68 1;
#X connect 73 2 68 2;
#X connect 73 3 68 3;
#X connect 73 4 68 4;
#X connect 73 5 68 5;
#X connect 73 6 68 6;
#X connect 73 7 68 7;
#X connect 73 8 68 8;
#X connect 73 9 68 9;
#X connect 73 10 68 10;
#X connect 73 11 68 11;
#X connect 73 12 68 12;
