#N canvas 90 89 1792 639 10;
#X obj 1085 406 s rbutton-0;
#X obj 1085 346 unpack f f f f f f f f, f 95;
#X obj 1085 377 sel -1;
#X obj 1166 377 sel -1;
#X obj 1247 377 sel -1;
#X obj 1328 377 sel -1;
#X obj 1409 377 sel -1;
#X obj 1490 377 sel -1;
#X obj 1571 377 sel -1;
#X obj 1652 377 sel -1;
#X obj 1085 458 unpack f f f f f f f f, f 95;
#X obj 1085 487 sel -1;
#X obj 1166 487 sel -1;
#X obj 1247 487 sel -1;
#X obj 1328 487 sel -1;
#X obj 1409 487 sel -1;
#X obj 1490 487 sel -1;
#X obj 1571 487 sel -1;
#X obj 1652 487 sel -1;
#X obj 1085 516 s fadertrim-0;
#X obj 1166 516 s fadertrim-1;
#X obj 1247 516 s fadertrim-2;
#X obj 1328 516 s fadertrim-3;
#X obj 1409 516 s fadertrim-4;
#X obj 1490 516 s fadertrim-5;
#X obj 1571 516 s fadertrim-6;
#X obj 1652 516 s fadertrim-7;
#X obj 1085 241 unpack f f f, f 46;
#X obj 1085 270 sel -1;
#X obj 1221 270 sel -1;
#X obj 1358 270 sel -1;
#X obj 1085 299 s sbutton-7;
#X obj 1221 299 s markerbackbutton;
#X obj 1358 299 s markerforwardbutton;
#X obj 51 23 inlet;
#X obj 51 88 symbol;
#X obj 51 121 sel FadeIn Turn180 Vertical, f 85;
#X obj 51 160 t b b b;
#X msg 90 223 -1 -1 -1;
#X msg 220 440 -1 -1 -1 -1 -1 -1 -1 -1;
#X msg 259 223 -1 -1 -1;
#X obj 220 160 t b b b;
#X obj 389 160 t b b b;
#X msg 389 440 -1 -1 -1 -1 -1 -1 -1 -1;
#X msg 428 223 -1 -1 -1;
#X text 1084 319 ROTATE BACK;
#X text 1236 319 ROTATE FORWARD;
#X text 1388 319 LINEAR/POLAR;
#X text 1348 537 SPEED;
#X text 1424 537 BIG FREQ;
#X text 1507 537 BIG DIFF;
#X text 1583 537 BIG STAY;
#X text 1665 537 3 STAY;
#X text 1107 537 3 SIZE;
#X text 1189 537 3 SPIN;
#X text 1257 537 3 DISTANCE;
#X text 1183 427 FACE;
#X text 1095 427 CENTER;
#X text 1257 427 TRIANGLE;
#X text 1330 427 HORIZONTAL;
#X text 1419 427 VERTICAL;
#X text 1507 427 FACE;
#X text 1581 427 TRIANGLE;
#X text 1664 429 WIGGLE;
#X obj 1166 406 s rbutton-1;
#X obj 1247 406 s rbutton-2;
#X obj 1328 406 s rbutton-3;
#X obj 1409 406 s rbutton-4;
#X obj 1490 406 s rbutton-5;
#X obj 1571 406 s rbutton-6;
#X obj 1652 406 s rbutton-7;
#X msg 70 328 -1 -1 -1 -1 -1 -1 -1 0;
#X msg 239 328 -1 -1 -1 -1 -1 -1 -1 0;
#X msg 408 328 -1 -1 -1 -1 -1 -1 -1 0;
#X msg 51 52 set \$1;
#X msg 158 70 Vertical;
#X obj 158 41 r start-instruction;
#X msg 51 440 200 200 150 5000 -1 -1 -1 -1;
#X connect 1 0 2 0;
#X connect 1 1 3 0;
#X connect 1 2 4 0;
#X connect 1 3 5 0;
#X connect 1 4 6 0;
#X connect 1 5 7 0;
#X connect 1 6 8 0;
#X connect 1 7 9 0;
#X connect 2 1 0 0;
#X connect 3 1 64 0;
#X connect 4 1 65 0;
#X connect 5 1 66 0;
#X connect 6 1 67 0;
#X connect 7 1 68 0;
#X connect 8 1 69 0;
#X connect 9 1 70 0;
#X connect 10 0 11 0;
#X connect 10 1 12 0;
#X connect 10 2 13 0;
#X connect 10 3 14 0;
#X connect 10 4 15 0;
#X connect 10 5 16 0;
#X connect 10 6 17 0;
#X connect 10 7 18 0;
#X connect 11 1 19 0;
#X connect 12 1 20 0;
#X connect 13 1 21 0;
#X connect 14 1 22 0;
#X connect 15 1 23 0;
#X connect 16 1 24 0;
#X connect 17 1 25 0;
#X connect 18 1 26 0;
#X connect 27 0 28 0;
#X connect 27 1 29 0;
#X connect 27 2 30 0;
#X connect 28 1 31 0;
#X connect 29 1 32 0;
#X connect 30 1 33 0;
#X connect 34 0 74 0;
#X connect 35 0 36 0;
#X connect 36 0 37 0;
#X connect 36 1 41 0;
#X connect 36 2 42 0;
#X connect 37 0 77 0;
#X connect 37 1 71 0;
#X connect 37 2 38 0;
#X connect 38 0 27 0;
#X connect 39 0 10 0;
#X connect 40 0 27 0;
#X connect 41 0 39 0;
#X connect 41 1 72 0;
#X connect 41 2 40 0;
#X connect 42 0 43 0;
#X connect 42 1 73 0;
#X connect 42 2 44 0;
#X connect 43 0 10 0;
#X connect 44 0 27 0;
#X connect 71 0 1 0;
#X connect 72 0 1 0;
#X connect 73 0 1 0;
#X connect 74 0 75 0;
#X connect 75 0 35 0;
#X connect 76 0 75 0;
#X connect 77 0 10 0;
