#N canvas 57 186 1461 733 10;
#X obj 1085 406 s rbutton-0;
#X obj 1085 346 unpack f f f f f f f f, f 95;
#X obj 1085 377 sel -1;
#X obj 1166 377 sel -1;
#X obj 1247 377 sel -1;
#X obj 1328 377 sel -1;
#X obj 1409 377 sel -1;
#X obj 1490 377 sel -1;
#X obj 1571 377 sel -1;
#X obj 1652 377 sel -1;
#X obj 1085 458 unpack f f f f f f f f, f 95;
#X obj 1085 527 sel -1;
#X obj 1166 487 sel -1;
#X obj 1247 547 sel -1;
#X obj 1409 487 sel -1;
#X obj 1490 487 sel -1;
#X obj 1571 487 sel -1;
#X obj 1652 487 sel -1;
#X obj 1409 516 s fadertrim-4;
#X obj 1490 516 s fadertrim-5;
#X obj 1571 516 s fadertrim-6;
#X obj 1652 516 s fadertrim-7;
#X obj 1379 270 sel -1;
#X obj 1085 270 sel -1;
#X obj 1222 270 sel -1;
#X obj 1085 299 s markerbackbutton;
#X obj 1222 299 s markerforwardbutton;
#X obj 51 23 inlet;
#X obj 51 88 symbol;
#X obj 210 160 t b b b;
#X msg 390 440 -1 -1 -1 -1 -1 -1 -1 -1;
#X obj 390 160 t b b b;
#X obj 548 160 t b b b;
#X msg 548 440 -1 -1 -1 -1 -1 -1 -1 -1;
#X text 1103 319 ROTATE BACK;
#X text 1245 319 ROTATE FORWARD;
#X text 1377 319 LINEAR/POLAR;
#X text 1424 537 BIG FREQ;
#X text 1507 537 BIG DIFF;
#X text 1583 537 BIG STAY;
#X text 1665 537 3 STAY;
#X text 1107 577 3 SIZE;
#X text 1189 537 3 SPIN;
#X text 1257 597 3 DISTANCE;
#X text 1183 427 FACE;
#X text 1095 427 CENTER;
#X text 1257 427 TRIANGLE;
#X text 1330 427 HORIZONTAL;
#X text 1419 427 VERTICAL;
#X text 1507 427 FACE;
#X text 1581 427 TRIANGLE;
#X text 1664 429 WIGGLE;
#X obj 1166 406 s rbutton-1;
#X obj 1247 406 s rbutton-2;
#X obj 1328 406 s rbutton-3;
#X obj 1409 406 s rbutton-4;
#X obj 1490 406 s rbutton-5;
#X obj 1571 406 s rbutton-6;
#X obj 1652 406 s rbutton-7;
#X msg 409 328 -1 -1 -1 -1 -1 -1 -1 0;
#X msg 567 328 -1 -1 -1 -1 -1 -1 -1 0;
#X msg 51 52 set \$1;
#X msg 158 70 Vertical;
#X obj 158 41 r start-instruction;
#X text 1516 319 SPEED;
#X obj 1496 270 sel -1;
#X obj 1085 241 unpack f f f f, f 69;
#X text 1338 497 FORMER \; LOCATION \; OF SPEED;
#X obj 51 121 sel Reset FadeIn Turn180 Vertical, f 107;
#X obj 51 160 t b b b;
#X msg 70 328 0 -1 -1 -1 -1 -1 -1 -1;
#X obj 549 70 inlet;
#X text 516 42 INSTRUCTION BYPASS;
#X msg 51 440 0 0 0 -1 1 5 200 200;
#X msg 90 223 -1 -1 1 0;
#X msg 429 223 -1 -1 -1 -1;
#X msg 587 223 -1 -1 -1 -1;
#X msg 229 328 -1 -1 -1 -1 -1 0 -1 -1;
#X obj 1085 556 s circle_size_inst;
#X obj 1166 516 s spin_inst;
#X obj 1247 576 s circle_distance_inst;
#X obj 1496 299 s speed_inst;
#X obj 1379 299 s lin_or_pol_inst;
#X msg 249 223 -1 -1 -1 5000;
#X msg 210 440 2.5 6 150 5000 -1 -1 -1 -1;
#X connect 1 0 2 0;
#X connect 1 1 3 0;
#X connect 1 2 4 0;
#X connect 1 3 5 0;
#X connect 1 4 6 0;
#X connect 1 5 7 0;
#X connect 1 6 8 0;
#X connect 1 7 9 0;
#X connect 2 1 0 0;
#X connect 3 1 52 0;
#X connect 4 1 53 0;
#X connect 5 1 54 0;
#X connect 6 1 55 0;
#X connect 7 1 56 0;
#X connect 8 1 57 0;
#X connect 9 1 58 0;
#X connect 10 0 11 0;
#X connect 10 1 12 0;
#X connect 10 2 13 0;
#X connect 10 4 14 0;
#X connect 10 5 15 0;
#X connect 10 6 16 0;
#X connect 10 7 17 0;
#X connect 11 1 78 0;
#X connect 12 1 79 0;
#X connect 13 1 80 0;
#X connect 14 1 18 0;
#X connect 15 1 19 0;
#X connect 16 1 20 0;
#X connect 17 1 21 0;
#X connect 22 1 82 0;
#X connect 23 1 25 0;
#X connect 24 1 26 0;
#X connect 27 0 61 0;
#X connect 28 0 68 0;
#X connect 29 0 84 0;
#X connect 29 1 77 0;
#X connect 29 2 83 0;
#X connect 30 0 10 0;
#X connect 31 0 30 0;
#X connect 31 1 59 0;
#X connect 31 2 75 0;
#X connect 32 0 33 0;
#X connect 32 1 60 0;
#X connect 32 2 76 0;
#X connect 33 0 10 0;
#X connect 59 0 1 0;
#X connect 60 0 1 0;
#X connect 61 0 62 0;
#X connect 62 0 28 0;
#X connect 63 0 62 0;
#X connect 65 1 81 0;
#X connect 66 0 23 0;
#X connect 66 1 24 0;
#X connect 66 2 22 0;
#X connect 66 3 65 0;
#X connect 68 0 69 0;
#X connect 68 1 29 0;
#X connect 68 2 31 0;
#X connect 68 3 32 0;
#X connect 69 0 73 0;
#X connect 69 1 70 0;
#X connect 69 2 74 0;
#X connect 70 0 1 0;
#X connect 71 0 28 0;
#X connect 73 0 10 0;
#X connect 74 0 66 0;
#X connect 75 0 66 0;
#X connect 76 0 66 0;
#X connect 77 0 1 0;
#X connect 83 0 66 0;
#X connect 84 0 10 0;
