#N canvas 67 190 1772 678 10;
#X obj 23 7 inlet;
#X obj 105 614 outlet;
#X obj 117 594 outlet;
#X obj 128 654 outlet;
#X obj 140 634 outlet;
#X obj 152 614 outlet;
#X obj 164 594 outlet;
#X obj 34 654 outlet;
#X obj 46 634 outlet;
#X obj 58 614 outlet;
#X obj 70 594 outlet;
#X obj 81 655 outlet;
#X obj 93 635 outlet;
#X obj 23 594 outlet;
#X obj 1359 114 s inst_out_0;
#X obj 1407 174 s inst_out_1;
#X obj 1417 154 s inst_out_2;
#X obj 1428 135 s inst_out_3;
#X obj 1437 114 s inst_out_4;
#X obj 1487 174 s inst_out_5;
#X obj 1497 154 s inst_out_6;
#X obj 1507 134 s inst_out_7;
#X obj 1517 114 s inst_out_8;
#X obj 1567 174 s inst_out_9;
#X obj 1577 154 s inst_out_10;
#X obj 1587 134 s inst_out_11;
#X obj 1597 114 s inst_out_12;
#X obj 23 505 r inst_out_0;
#X obj 101 505 r inst_out_4;
#X obj 181 505 r inst_out_8;
#X obj 261 505 r inst_out_12;
#X obj 92 526 r inst_out_3;
#X obj 171 525 r inst_out_7;
#X obj 251 525 r inst_out_11;
#X obj 81 545 r inst_out_2;
#X obj 161 545 r inst_out_6;
#X obj 241 545 r inst_out_10;
#X obj 71 565 r inst_out_1;
#X obj 151 565 r inst_out_5;
#X obj 231 565 r inst_out_9;
#X obj 23 114 s inst_out_0;
#X obj 71 174 s inst_out_1;
#X obj 81 154 s inst_out_2;
#X obj 92 135 s inst_out_3;
#X obj 101 114 s inst_out_4;
#X obj 151 174 s inst_out_5;
#X obj 161 154 s inst_out_6;
#X obj 171 134 s inst_out_7;
#X obj 181 114 s inst_out_8;
#X obj 231 174 s inst_out_9;
#X obj 241 154 s inst_out_10;
#X obj 251 134 s inst_out_11;
#X obj 261 114 s inst_out_12;
#X obj 23 85 reset_preset_sfgem, f 40;
#X obj 357 114 s inst_out_0;
#X obj 405 174 s inst_out_1;
#X obj 415 154 s inst_out_2;
#X obj 426 135 s inst_out_3;
#X obj 435 114 s inst_out_4;
#X obj 485 174 s inst_out_5;
#X obj 495 154 s inst_out_6;
#X obj 505 134 s inst_out_7;
#X obj 515 114 s inst_out_8;
#X obj 565 174 s inst_out_9;
#X obj 575 154 s inst_out_10;
#X obj 585 134 s inst_out_11;
#X obj 595 114 s inst_out_12;
#X obj 357 85 fadein_preset_sfgem, f 40;
#X obj 692 114 s inst_out_0;
#X obj 740 174 s inst_out_1;
#X obj 750 154 s inst_out_2;
#X obj 761 135 s inst_out_3;
#X obj 770 114 s inst_out_4;
#X obj 820 174 s inst_out_5;
#X obj 830 154 s inst_out_6;
#X obj 840 134 s inst_out_7;
#X obj 850 114 s inst_out_8;
#X obj 900 174 s inst_out_9;
#X obj 910 154 s inst_out_10;
#X obj 920 134 s inst_out_11;
#X obj 930 114 s inst_out_12;
#X obj 1025 114 s inst_out_0;
#X obj 1073 174 s inst_out_1;
#X obj 1083 154 s inst_out_2;
#X obj 1094 135 s inst_out_3;
#X obj 1103 114 s inst_out_4;
#X obj 1153 174 s inst_out_5;
#X obj 1163 154 s inst_out_6;
#X obj 1173 134 s inst_out_7;
#X obj 1183 114 s inst_out_8;
#X obj 1233 174 s inst_out_9;
#X obj 1243 154 s inst_out_10;
#X obj 1253 134 s inst_out_11;
#X obj 1263 114 s inst_out_12;
#X obj 691 84 random_locations_preset_sfgem, f 40;
#X obj 1025 85 random_locations_preset_metro_sfgem, f 40;
#X obj 23 46 sel Reset FadeIn Random Random_Metro, f 223;
#X obj 23 283 s inst_out_0;
#X obj 71 343 s inst_out_1;
#X obj 81 323 s inst_out_2;
#X obj 92 304 s inst_out_3;
#X obj 101 283 s inst_out_4;
#X obj 151 343 s inst_out_5;
#X obj 161 323 s inst_out_6;
#X obj 171 303 s inst_out_7;
#X obj 181 283 s inst_out_8;
#X obj 231 343 s inst_out_9;
#X obj 241 323 s inst_out_10;
#X obj 251 303 s inst_out_11;
#X obj 261 283 s inst_out_12;
#X obj 23 254 blowup_preset_sfgem, f 40;
#X obj 23 215 sel Blowup Face Triangle, f 223;
#X obj 1359 85 blowup_preset_sfgem, f 40;
#X obj 468 283 s inst_out_0;
#X obj 516 343 s inst_out_1;
#X obj 526 323 s inst_out_2;
#X obj 537 304 s inst_out_3;
#X obj 546 283 s inst_out_4;
#X obj 596 343 s inst_out_5;
#X obj 606 323 s inst_out_6;
#X obj 616 303 s inst_out_7;
#X obj 626 283 s inst_out_8;
#X obj 676 343 s inst_out_9;
#X obj 686 323 s inst_out_10;
#X obj 696 303 s inst_out_11;
#X obj 706 283 s inst_out_12;
#X obj 468 254 face_preset_sfgem, f 40;
#X connect 0 0 96 0;
#X connect 0 0 111 0;
#X connect 27 0 13 0;
#X connect 28 0 10 0;
#X connect 29 0 2 0;
#X connect 30 0 6 0;
#X connect 31 0 9 0;
#X connect 32 0 1 0;
#X connect 33 0 5 0;
#X connect 34 0 8 0;
#X connect 35 0 12 0;
#X connect 36 0 4 0;
#X connect 37 0 7 0;
#X connect 38 0 11 0;
#X connect 39 0 3 0;
#X connect 53 0 40 0;
#X connect 53 1 41 0;
#X connect 53 2 42 0;
#X connect 53 3 43 0;
#X connect 53 4 44 0;
#X connect 53 5 45 0;
#X connect 53 6 46 0;
#X connect 53 7 47 0;
#X connect 53 8 48 0;
#X connect 53 9 49 0;
#X connect 53 10 50 0;
#X connect 53 11 51 0;
#X connect 53 12 52 0;
#X connect 67 0 54 0;
#X connect 67 1 55 0;
#X connect 67 2 56 0;
#X connect 67 3 57 0;
#X connect 67 4 58 0;
#X connect 67 5 59 0;
#X connect 67 6 60 0;
#X connect 67 7 61 0;
#X connect 67 8 62 0;
#X connect 67 9 63 0;
#X connect 67 10 64 0;
#X connect 67 11 65 0;
#X connect 67 12 66 0;
#X connect 94 0 68 0;
#X connect 94 1 69 0;
#X connect 94 2 70 0;
#X connect 94 3 71 0;
#X connect 94 4 72 0;
#X connect 94 5 73 0;
#X connect 94 6 74 0;
#X connect 94 7 75 0;
#X connect 94 8 76 0;
#X connect 94 9 77 0;
#X connect 94 10 78 0;
#X connect 94 11 79 0;
#X connect 94 12 80 0;
#X connect 95 0 81 0;
#X connect 95 1 82 0;
#X connect 95 2 83 0;
#X connect 95 3 84 0;
#X connect 95 4 85 0;
#X connect 95 5 86 0;
#X connect 95 6 87 0;
#X connect 95 7 88 0;
#X connect 95 8 89 0;
#X connect 95 9 90 0;
#X connect 95 10 91 0;
#X connect 95 11 92 0;
#X connect 95 12 93 0;
#X connect 96 0 53 0;
#X connect 96 1 67 0;
#X connect 96 2 94 0;
#X connect 96 3 95 0;
#X connect 96 4 112 0;
#X connect 110 0 97 0;
#X connect 110 1 98 0;
#X connect 110 2 99 0;
#X connect 110 3 100 0;
#X connect 110 4 101 0;
#X connect 110 5 102 0;
#X connect 110 6 103 0;
#X connect 110 7 104 0;
#X connect 110 8 105 0;
#X connect 110 9 106 0;
#X connect 110 10 107 0;
#X connect 110 11 108 0;
#X connect 110 12 109 0;
#X connect 111 0 110 0;
#X connect 111 1 126 0;
#X connect 112 0 14 0;
#X connect 112 1 15 0;
#X connect 112 2 16 0;
#X connect 112 3 17 0;
#X connect 112 4 18 0;
#X connect 112 5 19 0;
#X connect 112 6 20 0;
#X connect 112 7 21 0;
#X connect 112 8 22 0;
#X connect 112 9 23 0;
#X connect 112 10 24 0;
#X connect 112 11 25 0;
#X connect 112 12 26 0;
#X connect 126 0 113 0;
#X connect 126 1 114 0;
#X connect 126 2 115 0;
#X connect 126 3 116 0;
#X connect 126 4 117 0;
#X connect 126 5 118 0;
#X connect 126 6 119 0;
#X connect 126 7 120 0;
#X connect 126 8 121 0;
#X connect 126 9 122 0;
#X connect 126 10 123 0;
#X connect 126 11 124 0;
#X connect 126 12 125 0;
