#N canvas 67 222 1610 678 10;
#X obj 23 78 inlet;
#X obj 105 472 outlet;
#X obj 117 452 outlet;
#X obj 128 512 outlet;
#X obj 140 492 outlet;
#X obj 152 472 outlet;
#X obj 164 452 outlet;
#X obj 34 512 outlet;
#X obj 46 492 outlet;
#X obj 58 472 outlet;
#X obj 70 452 outlet;
#X obj 81 513 outlet;
#X obj 93 493 outlet;
#X obj 23 452 outlet;
#X obj 23 152 reset_preset_sfgem, f 24;
#X obj 372 152 random_locations_preset_sfgem;
#X obj 23 121 sel Reset FadeIn Random Random_Metro, f 156;
#X obj 197 152 fadein_preset_sfgem, f 24;
#X obj 567 152 random_locations_preset_metro_sfgem;
#X connect 0 0 16 0;
#X connect 14 0 13 0;
#X connect 14 1 7 0;
#X connect 14 2 8 0;
#X connect 14 3 9 0;
#X connect 14 4 10 0;
#X connect 14 5 11 0;
#X connect 14 6 12 0;
#X connect 14 7 1 0;
#X connect 14 8 2 0;
#X connect 14 9 3 0;
#X connect 14 10 4 0;
#X connect 14 11 5 0;
#X connect 14 12 6 0;
#X connect 15 0 13 0;
#X connect 15 1 7 0;
#X connect 15 2 8 0;
#X connect 15 3 9 0;
#X connect 15 4 10 0;
#X connect 15 5 11 0;
#X connect 15 6 12 0;
#X connect 15 7 1 0;
#X connect 15 8 2 0;
#X connect 15 9 3 0;
#X connect 15 10 4 0;
#X connect 15 11 5 0;
#X connect 15 12 6 0;
#X connect 16 0 14 0;
#X connect 16 1 17 0;
#X connect 16 2 15 0;
#X connect 16 3 18 0;
#X connect 17 0 13 0;
#X connect 17 1 7 0;
#X connect 17 2 8 0;
#X connect 17 3 9 0;
#X connect 17 4 10 0;
#X connect 17 5 11 0;
#X connect 17 6 12 0;
#X connect 17 7 1 0;
#X connect 17 8 2 0;
#X connect 17 9 3 0;
#X connect 17 10 4 0;
#X connect 17 11 5 0;
#X connect 17 12 6 0;
#X connect 18 0 13 0;
#X connect 18 1 7 0;
#X connect 18 2 8 0;
#X connect 18 3 9 0;
#X connect 18 4 10 0;
#X connect 18 5 11 0;
#X connect 18 6 12 0;
#X connect 18 7 1 0;
#X connect 18 8 2 0;
#X connect 18 9 3 0;
#X connect 18 10 4 0;
#X connect 18 11 5 0;
#X connect 18 12 6 0;
