#N canvas 573 217 824 749 10;
#X obj 137 320 sin;
#X obj 137 349 + 1;
#X obj 137 378 / 2;
#X obj 137 291 + 4.71239;
#X obj 137 262 * 3.14;
#X obj 137 233 line;
#X obj 137 522 outlet;
#X obj 119 78 inlet;
#X msg 137 204 0 \, 1 \$1;
#X obj 119 107 unpack;
#X obj 137 175 f;
#X obj 137 493 +;
#X obj 137 436 *;
#X obj 186 411 -;
#X floatatom 137 465 5 0 0 0 - - -, f 5;
#X obj 298 393 f;
#X obj 167 144 t b f b;
#X obj 137 407 pow;
#X obj 182 342 r liner_exponent;
#X obj 262 171 r stop_all_liners;
#X msg 262 200 stop;
#X obj 301 308 r reset_liner_memory;
#X msg 368 347 0;
#X connect 0 0 1 0;
#X connect 1 0 2 0;
#X connect 2 0 17 0;
#X connect 3 0 0 0;
#X connect 4 0 3 0;
#X connect 5 0 4 0;
#X connect 7 0 9 0;
#X connect 8 0 5 0;
#X connect 9 0 16 0;
#X connect 9 1 10 1;
#X connect 10 0 8 0;
#X connect 11 0 6 0;
#X connect 11 0 15 1;
#X connect 12 0 14 0;
#X connect 13 0 12 1;
#X connect 14 0 11 0;
#X connect 15 0 13 1;
#X connect 15 0 11 1;
#X connect 16 0 10 0;
#X connect 16 1 13 0;
#X connect 16 2 15 0;
#X connect 17 0 12 0;
#X connect 18 0 17 1;
#X connect 19 0 20 0;
#X connect 20 0 5 0;
#X connect 21 0 22 0;
#X connect 22 0 15 1;
