#N canvas 675 134 824 749 10;
#X obj 340 266 -;
#X floatatom 340 351 5 0 0 0 - - -, f 5;
#X obj 185 458 *;
#X obj 185 494 +;
#X floatatom 70 540 5 0 0 0 - - -, f 5;
#X obj 349 317 * -1;
#X msg 92 71 set \$1;
#X obj 312 100 t b b f;
#X obj 158 343 sin;
#X obj 158 381 + 1;
#X obj 161 414 / 2;
#X obj 158 317 + 4.71239;
#X obj 157 286 * 3.14;
#X obj 148 251 line;
#X obj 185 563 outlet;
#X obj 270 24 inlet;
#X msg 148 211 0 \, 1 \$1;
#X obj 273 63 unpack;
#X obj 137 175 * 1000;
#X obj 161 125 abs;
#X obj 344 288 t f f;
#X msg 232 231 1.00001;
#X obj 248 569 nbx 8 14 -1e+37 1e+37 0 0 empty empty empty 0 -8 0 10
-262144 -1 -1 0 256;
#X obj 161 91 f;
#X obj 241 347 t f f;
#X connect 0 0 20 0;
#X connect 1 0 2 1;
#X connect 2 0 3 0;
#X connect 3 0 14 0;
#X connect 3 0 22 0;
#X connect 3 0 4 0;
#X connect 4 0 6 0;
#X connect 5 0 1 0;
#X connect 6 0 21 0;
#X connect 7 0 23 0;
#X connect 7 1 21 0;
#X connect 7 2 0 1;
#X connect 8 0 9 0;
#X connect 9 0 10 0;
#X connect 10 0 2 0;
#X connect 11 0 8 0;
#X connect 12 0 11 0;
#X connect 13 0 12 0;
#X connect 15 0 17 0;
#X connect 16 0 13 0;
#X connect 17 0 7 0;
#X connect 17 1 18 1;
#X connect 18 0 16 0;
#X connect 19 0 18 0;
#X connect 20 0 23 1;
#X connect 20 1 5 0;
#X connect 21 0 24 0;
#X connect 23 0 19 0;
#X connect 24 0 3 1;
#X connect 24 1 0 0;
