#N canvas 490 134 824 749 10;
#X obj 137 320 sin;
#X obj 137 349 + 1;
#X obj 137 378 / 2;
#X obj 137 291 + 4.71239;
#X obj 137 262 * 3.14;
#X obj 137 233 line;
#X obj 187 643 outlet;
#X obj 222 11 inlet;
#X msg 137 204 0 \, 1 \$1;
#X obj 223 75 unpack;
#X obj 137 118 f;
#X obj 187 536 +;
#X obj 235 431 *;
#X obj 396 397 -;
#X msg 340 35 5 1000;
#X msg 418 30 3 1000;
#X floatatom 187 463 5 0 0 0 - - -, f 5;
#X msg 296 35 0 1000;
#X obj 338 321 f;
#X obj 377 167 t b f b;
#X connect 0 0 1 0;
#X connect 1 0 2 0;
#X connect 2 0 12 0;
#X connect 3 0 0 0;
#X connect 4 0 3 0;
#X connect 5 0 4 0;
#X connect 7 0 9 0;
#X connect 8 0 5 0;
#X connect 9 0 19 0;
#X connect 9 1 10 1;
#X connect 10 0 8 0;
#X connect 11 0 6 0;
#X connect 11 0 18 1;
#X connect 12 0 16 0;
#X connect 13 0 12 1;
#X connect 14 0 9 0;
#X connect 15 0 9 0;
#X connect 16 0 11 0;
#X connect 17 0 9 0;
#X connect 18 0 13 1;
#X connect 18 0 11 1;
#X connect 19 0 10 0;
#X connect 19 1 13 0;
#X connect 19 2 18 0;
