#N canvas 294 307 880 602 10;
#X obj 65 28 inlet;
#X obj 150 28 inlet;
#X obj 245 28 inlet;
#X obj 330 28 inlet;
#X obj 425 28 inlet;
#X obj 401 393 outlet;
#X msg 573 240 destroy;
#X obj 192 132 bng 30 250 50 0 empty empty empty 17 7 0 10 -262144
-1 -1;
#N canvas 645 206 1064 500 gemwin 1;
#X obj 67 117 outlet;
#X obj 67 10 inlet;
#X obj 67 41 route create;
#X msg 67 90 set destroy;
#X msg 203 62 set create;
#X msg 172 227 destroy \, reset;
#X obj 321 300 outlet;
#X obj 321 260 gemwin;
#X msg 232 162 dimen 1366 768 \, create \, 1;
#X obj 495 331 pix_record;
#X msg 527 280 record \$1;
#X obj 527 256 tgl 15 1 empty empty empty 0 -6 0 8 -262144 -1 -1 0
1;
#X obj 495 213 pix_snap;
#X msg 517 144 0 0;
#X obj 517 115 loadbang;
#X msg 468 180 snap;
#X obj 468 103 t b a;
#X obj 680 158 r record_video;
#X obj 680 197 t f b;
#X obj 603 123 loadbang;
#X obj 468 77 gemhead -99;
#X obj 320 8 loadbang;
#X obj 552 360 print;
#X floatatom 523 389 5 0 0 0 - - -, f 5;
#X msg 320 66 frame \$1;
#X msg 320 37 40;
#X obj 462 18 r new_frame_rate;
#X msg 603 192 1366 768;
#X msg 603 152 1366 768;
#X msg 707 313 file /home/joshua/Desktop/Statfeeder_SFGEM_video_\$1.avi
;
#X obj 912 73 key;
#X obj 854 73 ctlin;
#X floatatom 854 130 5 0 0 0 - - -, f 5;
#X floatatom 867 102 5 0 0 0 - - -, f 5;
#X obj 884 220 +;
#X obj 884 249 % 1000;
#X obj 851 155 +;
#X obj 882 184 +;
#X obj 912 166 t b f;
#X obj 917 220 f;
#X msg 734 211 seed \$1;
#X obj 707 252 random 10000;
#X connect 1 0 2 0;
#X connect 2 0 3 0;
#X connect 2 0 8 0;
#X connect 2 1 4 0;
#X connect 2 1 5 0;
#X connect 3 0 0 0;
#X connect 4 0 0 0;
#X connect 5 0 7 0;
#X connect 7 0 6 0;
#X connect 8 0 7 0;
#X connect 9 1 23 0;
#X connect 9 2 22 0;
#X connect 10 0 9 0;
#X connect 11 0 10 0;
#X connect 12 0 9 0;
#X connect 14 0 13 0;
#X connect 15 0 12 0;
#X connect 16 0 15 0;
#X connect 16 1 12 0;
#X connect 17 0 18 0;
#X connect 18 0 11 0;
#X connect 18 1 41 0;
#X connect 19 0 28 0;
#X connect 20 0 16 0;
#X connect 21 0 25 0;
#X connect 24 0 7 0;
#X connect 25 0 24 0;
#X connect 26 0 24 0;
#X connect 28 0 12 2;
#X connect 29 0 9 0;
#X connect 30 0 38 0;
#X connect 31 0 32 0;
#X connect 31 1 33 0;
#X connect 32 0 36 0;
#X connect 33 0 36 1;
#X connect 34 0 39 0;
#X connect 34 0 35 0;
#X connect 35 0 40 0;
#X connect 36 0 37 0;
#X connect 37 0 34 0;
#X connect 38 0 37 0;
#X connect 38 1 37 1;
#X connect 39 0 34 1;
#X connect 40 0 41 0;
#X connect 41 0 29 0;
#X restore 573 269 pd gemwin;
#X obj 128 132 tgl 30 0 empty empty empty 17 7 0 10 -262144 -1 -1 0
1;
#X obj 573 199 bng 30 250 50 0 empty empty empty 17 7 0 10 -262144
-1 -1;
#X obj 350 209 nbx 5 30 -1e+37 1e+37 0 0 empty empty empty 0 -8 0 25
-262144 -1 -1 0 256;
#X obj 491 132 bng 30 250 50 0 empty empty empty 17 7 0 10 -262144
-1 -1;
#X msg 401 364 1;
#X obj 350 180 timer_sfgem;
#X obj 350 250 instruction_reader_sfgem;
#X obj 257 132 tgl 30 0 empty empty empty 17 7 0 10 -262144 -1 -1 0
1;
#X obj 128 203 soundfile_player_sfgem;
#X text 126 113 NOISE;
#X text 179 113 OPEN REC;
#X text 246 113 PLAY REC;
#X text 471 115 OPEN LABELS;
#X text 563 181 GEM WIN;
#X obj 350 139 tgl 30 0 empty empty empty 17 7 0 10 -262144 -1 -1 0
1;
#X msg 435 184 1;
#X obj 401 140 t b b b b;
#X msg 452 162 0;
#X obj 350 320 instructor;
#X obj 755 31 inlet;
#X text 389 273 To Test Presets;
#X obj 510 28 inlet;
#X obj 79 268 s current_instruction;
#X obj 281 199 sel end;
#X obj 493 70 r timer_on_off;
#X text 323 9 Playback;
#X text 242 320 PRESETS IN HERE:;
#X text 35 183 SIGNAL STUFF IN HERE:;
#X obj 98 381 route disrupton disruptoff;
#X text 525 301 When refactoring: make this a named sub-patch \; And
also maybe locate it somewhere more accessible.;
#X obj 491 353 s aux_instruction;
#X floatatom 491 315 5 0 0 0 - - -, f 5;
#X connect 0 0 12 0;
#X connect 1 0 7 0;
#X connect 2 0 10 0;
#X connect 3 0 25 0;
#X connect 4 0 9 0;
#X connect 6 0 8 0;
#X connect 7 0 17 1;
#X connect 8 0 6 0;
#X connect 9 0 17 0;
#X connect 10 0 6 0;
#X connect 11 0 15 0;
#X connect 12 0 15 2;
#X connect 13 0 5 0;
#X connect 14 0 11 0;
#X connect 15 0 27 0;
#X connect 15 0 31 0;
#X connect 15 0 32 0;
#X connect 15 0 37 0;
#X connect 15 1 40 0;
#X connect 16 0 17 2;
#X connect 23 0 14 0;
#X connect 24 0 23 0;
#X connect 25 0 13 0;
#X connect 25 1 15 1;
#X connect 25 2 24 0;
#X connect 25 3 26 0;
#X connect 26 0 23 0;
#X connect 28 0 27 1;
#X connect 30 0 16 0;
#X connect 32 0 26 0;
#X connect 33 0 23 0;
#X connect 40 0 39 0;
