#N canvas 96 336 1184 627 10;
#X obj 155 104 inlet;
#X obj 212 144 inlet;
#X obj 265 78 inlet;
#X obj 421 34 inlet;
#X obj 535 168 inlet;
#X obj 212 212 bng 30 250 50 0 empty empty empty 17 7 0 10 -262144
-1 -1;
#X obj 148 186 tgl 30 0 empty empty empty 17 7 0 10 -262144 -1 -1 0
1;
#X obj 370 289 nbx 5 30 -1e+37 1e+37 0 0 empty empty empty 0 -8 0 25
-262144 -1 -1 7.05 256;
#X obj 511 122 bng 30 250 50 0 empty empty empty 17 7 0 10 -262144
-1 -1;
#X msg 421 404 1;
#X obj 370 260 timer_sfgem;
#X obj 370 330 instruction_reader_sfgem;
#X obj 277 212 tgl 30 0 empty empty empty 17 7 0 10 -262144 -1 -1 0
1;
#X obj 148 283 soundfile_player_sfgem;
#X text 146 167 NOISE;
#X text 199 193 OPEN REC;
#X text 266 193 PLAY REC;
#X text 491 105 OPEN LABELS;
#X obj 370 219 tgl 30 0 empty empty empty 17 7 0 10 -262144 -1 -1 0
1;
#X msg 448 264 1;
#X msg 487 242 0;
#X obj 610 194 inlet;
#X obj 688 173 r timer_on_off;
#X text 164 86 0;
#X text 223 129 1;
#X text 275 61 2;
#X text 545 150 4;
#X text 618 176 5;
#X obj 421 433 s play_rec;
#X obj 699 331 inlet;
#X obj 593 96 tgl 15 0 empty empty empty 17 7 0 10 -262144 -1 -1 1
1;
#X obj 335 366 s timer_2pnl;
#X text 150 305 SIGNAL STUFF IN HERE;
#X msg 370 152 0;
#X obj 88 477 s timer_on_off_receive;
#X msg 88 454 set \$1;
#X obj 421 63 t b b;
#X obj 448 220 t b b b;
#X text 408 16 3 PLAY ALL;
#X obj 688 202 sel 0 1;
#X msg 688 230 0;
#X obj 593 349 sfgem_pdwindow;
#X connect 0 0 8 0;
#X connect 1 0 5 0;
#X connect 2 0 30 0;
#X connect 3 0 36 0;
#X connect 4 0 6 0;
#X connect 5 0 13 1;
#X connect 6 0 13 0;
#X connect 7 0 31 0;
#X connect 7 0 11 0;
#X connect 8 0 11 2;
#X connect 8 0 33 0;
#X connect 9 0 28 0;
#X connect 10 0 7 0;
#X connect 12 0 13 2;
#X connect 18 0 10 0;
#X connect 18 0 35 0;
#X connect 19 0 18 0;
#X connect 20 0 18 0;
#X connect 21 0 12 0;
#X connect 22 0 39 0;
#X connect 29 0 41 1;
#X connect 30 0 41 0;
#X connect 33 0 18 0;
#X connect 35 0 34 0;
#X connect 36 0 9 0;
#X connect 36 1 37 0;
#X connect 37 0 19 0;
#X connect 37 1 11 1;
#X connect 37 2 20 0;
#X connect 39 0 40 0;
#X connect 39 1 37 0;
#X connect 40 0 18 0;
