#N canvas 639 227 880 602 10;
#X obj 65 28 inlet;
#X obj 150 28 inlet;
#X obj 245 28 inlet;
#X obj 330 28 inlet;
#X obj 425 28 inlet;
#X obj 401 393 outlet;
#X msg 573 240 destroy;
#X obj 192 132 bng 30 250 50 0 empty empty empty 17 7 0 10 -262144
-1 -1;
#N canvas 57 317 853 379 gemwin 0;
#X obj 67 117 outlet;
#X obj 67 10 inlet;
#X obj 67 41 route create;
#X msg 67 90 set destroy;
#X msg 203 62 set create;
#X msg 172 227 destroy \, reset;
#X obj 322 300 outlet;
#X msg 364 54 dimen 683 384 \, create \, 1;
#X obj 322 260 gemwin;
#X msg 232 162 dimen 1366 768 \, create \, 1;
#X connect 1 0 2 0;
#X connect 2 0 3 0;
#X connect 2 0 9 0;
#X connect 2 1 4 0;
#X connect 2 1 5 0;
#X connect 3 0 0 0;
#X connect 4 0 0 0;
#X connect 5 0 8 0;
#X connect 8 0 6 0;
#X connect 9 0 8 0;
#X restore 573 269 pd gemwin;
#X obj 128 132 tgl 30 0 empty empty empty 17 7 0 10 -262144 -1 -1 0
1;
#X obj 573 199 bng 30 250 50 0 empty empty empty 17 7 0 10 -262144
-1 -1;
#X obj 350 209 nbx 5 30 -1e+37 1e+37 0 0 empty empty empty 0 -8 0 25
-262144 -1 -1 0.8 256;
#X obj 491 132 bng 30 250 50 0 empty empty empty 17 7 0 10 -262144
-1 -1;
#X msg 401 364 1;
#X obj 350 180 timer_sfgem;
#X obj 350 250 instruction_reader_sfgem;
#X obj 257 132 tgl 30 0 empty empty empty 17 7 0 10 -262144 -1 -1 0
1;
#X obj 128 203 soundfile_player_sfgem;
#X text 126 113 NOISE;
#X text 179 113 OPEN REC;
#X text 246 113 PLAY REC;
#X text 471 115 OPEN LABELS;
#X text 563 181 GEM WIN;
#X obj 350 139 tgl 30 0 empty empty empty 17 7 0 10 -262144 -1 -1 0
1;
#X msg 435 184 1;
#X obj 401 140 t b b b b;
#X msg 452 162 0;
#X obj 350 320 instructor;
#X msg 500 302 Reset;
#X obj 755 31 inlet;
#X text 389 273 To Test Presets;
#X obj 510 28 inlet;
#X obj 671 32 inlet;
#X obj 139 300 s current_instruction;
#X obj 78 383 sel end;
#X obj 493 70 r timer_on_off;
#X text 323 9 Playback;
#X connect 0 0 12 0;
#X connect 1 0 7 0;
#X connect 2 0 10 0;
#X connect 3 0 25 0;
#X connect 4 0 9 0;
#X connect 6 0 8 0;
#X connect 7 0 17 1;
#X connect 8 0 6 0;
#X connect 9 0 17 0;
#X connect 10 0 6 0;
#X connect 11 0 15 0;
#X connect 12 0 15 2;
#X connect 13 0 5 0;
#X connect 14 0 11 0;
#X connect 15 0 27 0;
#X connect 15 0 33 0;
#X connect 15 0 34 0;
#X connect 16 0 17 2;
#X connect 23 0 14 0;
#X connect 24 0 23 0;
#X connect 25 0 13 0;
#X connect 25 1 15 1;
#X connect 25 2 24 0;
#X connect 25 3 26 0;
#X connect 26 0 23 0;
#X connect 28 0 27 1;
#X connect 29 0 27 1;
#X connect 31 0 16 0;
#X connect 32 0 28 0;
#X connect 34 0 26 0;
#X connect 35 0 23 0;
