#N canvas 285 129 999 751 10;
#X obj 141 223 pack;
#X obj 183 296 pack;
#X obj 222 365 pack;
#X obj 101 10 r orbit_master_set;
#X obj 141 458 s orbit_0;
#X obj 141 478 s orbit_3;
#X obj 183 518 s orbit_1;
#X obj 183 538 s orbit_4;
#X obj 222 558 s orbit_2;
#X obj 222 578 s orbit_5;
#X obj 263 518 s orbit_0_speed_rec;
#X obj 263 538 s orbit_3_speed_rec;
#X obj 303 558 s orbit_1_speed_rec;
#X obj 303 578 s orbit_4_speed_rec;
#X obj 344 598 s orbit_2_speed_rec;
#X obj 344 618 s orbit_5_speed_rec;
#X obj 410 258 r orbit_tare_0;
#X obj 410 322 r orbit_tare_1;
#X obj 410 400 r orbit_tare_2;
#X obj 135 30 r orbit_0_set;
#X obj 170 50 r orbit_1_set;
#X obj 205 71 r orbit_2_set;
#X obj 104 661 s freeze_orbit_0;
#X obj 104 681 s freeze_orbit_1;
#X obj 104 701 s freeze_orbit_2;
#X obj 104 721 s freeze_orbit_3;
#X obj 104 741 s freeze_orbit_4;
#X obj 104 761 s freeze_orbit_5;
#X obj 104 100 r freeze_orbit_0_rec;
#X obj 104 120 r freeze_orbit_1_rec;
#X obj 104 140 r freeze_orbit_2_rec;
#X obj 101 161 control_numbers_window 17 18 19 999 16;
#X obj 101 589 value orbit_master;
#X obj 141 609 value orbit_0;
#X obj 183 629 value orbit_1;
#X obj 222 649 value orbit_2;
#X obj 373 163 value orbit_random_max;
#X obj 373 192 value orbit_random_min;
#X obj 239 11 r orbit_speed_all;
#X obj 274 32 r orbit_speed_0;
#X obj 309 52 r orbit_speed_1;
#X obj 344 72 r orbit_speed_2;
#X obj 104 166 tgl 13 0 empty empty empty 17 7 0 10 -262144 -1 -1 0
1;
#X obj 104 179 tgl 13 0 empty empty empty 17 7 0 10 -262144 -1 -1 0
1;
#X obj 104 192 tgl 13 0 empty empty empty 17 7 0 10 -262144 -1 -1 0
1;
#X obj 32 27 loadbang;
#X msg 32 56 0;
#X obj 530 163 value orbit_time_random_max;
#X obj 530 192 value orbit_time_random_min;
#X obj 141 276 Tarer 0;
#X obj 183 340 Tarer 1;
#X obj 222 418 Tarer 2;
#X obj 731 77 loadbang;
#X obj 731 106 t b b b b;
#X msg 782 145 1000;
#X msg 775 174 100;
#X msg 731 145 12.56;
#X msg 721 174 -12.56;
#X obj 141 247 liner_sfgem;
#X obj 183 320 liner_sfgem;
#X obj 222 389 liner_sfgem;
#X obj 347 437 r orbit_liner_exponent;
#X obj 348 470 r orbit_liner_function;
#X connect 0 0 58 0;
#X connect 1 0 59 0;
#X connect 2 0 60 0;
#X connect 3 0 31 0;
#X connect 16 0 49 1;
#X connect 17 0 50 1;
#X connect 18 0 51 1;
#X connect 19 0 31 1;
#X connect 20 0 31 2;
#X connect 21 0 31 3;
#X connect 28 0 42 0;
#X connect 29 0 43 0;
#X connect 30 0 44 0;
#X connect 31 0 32 0;
#X connect 31 1 0 0;
#X connect 31 2 1 0;
#X connect 31 3 2 0;
#X connect 31 4 10 0;
#X connect 31 4 11 0;
#X connect 31 4 0 1;
#X connect 31 5 12 0;
#X connect 31 5 13 0;
#X connect 31 5 1 1;
#X connect 31 6 14 0;
#X connect 31 6 15 0;
#X connect 31 6 2 1;
#X connect 38 0 31 4;
#X connect 39 0 31 5;
#X connect 40 0 31 6;
#X connect 41 0 31 7;
#X connect 42 0 22 0;
#X connect 42 0 25 0;
#X connect 43 0 23 0;
#X connect 43 0 26 0;
#X connect 44 0 24 0;
#X connect 44 0 27 0;
#X connect 45 0 46 0;
#X connect 46 0 42 0;
#X connect 46 0 43 0;
#X connect 46 0 44 0;
#X connect 49 0 4 0;
#X connect 49 0 5 0;
#X connect 49 0 33 0;
#X connect 50 0 6 0;
#X connect 50 0 7 0;
#X connect 50 0 34 0;
#X connect 51 0 8 0;
#X connect 51 0 9 0;
#X connect 51 0 35 0;
#X connect 52 0 53 0;
#X connect 53 0 57 0;
#X connect 53 1 56 0;
#X connect 53 2 55 0;
#X connect 53 3 54 0;
#X connect 54 0 47 0;
#X connect 55 0 48 0;
#X connect 56 0 36 0;
#X connect 57 0 37 0;
#X connect 58 0 49 0;
#X connect 59 0 50 0;
#X connect 60 0 51 0;
#X connect 61 0 58 3;
#X connect 61 0 59 3;
#X connect 61 0 60 3;
#X connect 62 0 58 2;
#X connect 62 0 59 2;
#X connect 62 0 60 2;
#X coords 0 -1 1 1 250 50 2 100 160;
