#N canvas 905 176 576 710 10;
#X obj 135 82 r polar_mult_0_set;
#X obj 170 102 r polar_mult_1_set;
#X obj 205 122 r polar_mult_2_set;
#X obj 101 473 s polar_mult_0;
#X obj 149 513 s polar_mult_1;
#X obj 198 553 s polar_mult_2;
#X obj 101 493 s polar_mult_3;
#X obj 198 573 s polar_mult_5;
#X obj 101 62 r polar_mult_master_set;
#X obj 274 82 r polmult_speed_0;
#X obj 309 102 r polmult_speed_1;
#X obj 344 122 r polmult_speed_2;
#X obj 239 63 r polmult_master_set;
#X obj 246 513 s polmult_0_speed_rec;
#X obj 246 533 s polmult_3_speed_rec;
#X obj 295 553 s polmult_1_speed_rec;
#X obj 295 573 s polmult_4_speed_rec;
#X obj 344 593 s polmult_2_speed_rec;
#X obj 344 613 s polmult_5_speed_rec;
#X obj 101 151 control_numbers_window;
#X obj 101 233 pack;
#X obj 149 293 pack;
#X obj 198 359 pack;
#X obj 101 257 liner_sfgem;
#X obj 149 317 liner_sfgem;
#X obj 198 383 liner_sfgem;
#X obj 101 277 Tarer 0;
#X obj 149 337 Tarer 1;
#X obj 198 403 Tarer 2;
#X msg 101 315 1;
#X obj 74 315 + 1;
#X msg 149 370 1;
#X obj 122 370 + 1;
#X msg 198 435 1;
#X obj 171 435 + 1;
#X obj 149 533 s polar_mult_4;
#X connect 0 0 19 1;
#X connect 1 0 19 2;
#X connect 2 0 19 3;
#X connect 8 0 19 0;
#X connect 9 0 19 5;
#X connect 10 0 19 6;
#X connect 11 0 19 7;
#X connect 12 0 19 4;
#X connect 19 0 20 0;
#X connect 19 1 21 0;
#X connect 19 2 22 0;
#X connect 19 3 13 0;
#X connect 19 3 14 0;
#X connect 19 3 20 1;
#X connect 19 4 15 0;
#X connect 19 4 16 0;
#X connect 19 4 21 1;
#X connect 19 5 17 0;
#X connect 19 5 18 0;
#X connect 19 5 22 1;
#X connect 20 0 23 0;
#X connect 21 0 24 0;
#X connect 22 0 25 0;
#X connect 23 0 26 0;
#X connect 23 0 26 0;
#X connect 24 0 27 0;
#X connect 25 0 28 0;
#X connect 26 0 30 0;
#X connect 26 1 29 0;
#X connect 27 0 32 0;
#X connect 27 1 31 0;
#X connect 28 0 34 0;
#X connect 28 1 33 0;
#X connect 29 0 3 0;
#X connect 29 0 6 0;
#X connect 30 0 3 0;
#X connect 30 0 6 0;
#X connect 31 0 4 0;
#X connect 31 0 35 0;
#X connect 32 0 4 0;
#X connect 32 0 35 0;
#X connect 33 0 5 0;
#X connect 33 0 7 0;
#X connect 34 0 5 0;
#X connect 34 0 7 0;
#X coords 0 -1 1 1 252 52 2 100 150;
