#N canvas 27 246 898 701 10;
#X obj 274 48 r pol_add_speed_0;
#X obj 309 68 r pol_add_speed_1;
#X obj 344 88 r pol_add_speed_2;
#X obj 141 217 pack;
#X obj 182 279 pack;
#X obj 222 340 pack;
#X obj 141 257 Tarer 0;
#X obj 450 239 r pol_add_tare_0;
#X obj 222 380 Tarer 2;
#X obj 182 319 Tarer 1;
#X obj 450 301 r pol_add_tare_1;
#X obj 450 362 r pol_add_tare_2;
#X obj 239 28 r pol_add_speed_all;
#X obj 101 151 control_numbers_window 1 2 3 999 0;
#X obj 101 569 value pol_add_master;
#X obj 373 153 value pol_add_random_max;
#X obj 373 182 value pol_add_random_min;
#X obj 263 540 s pol_add_0_speed_rec;
#X obj 303 560 s pol_add_1_speed_rec;
#X obj 263 580 s pol_add_3_speed_rec;
#X obj 303 600 s pol_add_4_speed_rec;
#X obj 344 620 s pol_add_2_speed_rec;
#X obj 344 640 s pol_add_5_speed_rec;
#X obj 101 28 r pol_add_master_set;
#X obj 135 48 r pol_add_0_set;
#X obj 170 69 r pol_add_1_set;
#X obj 205 89 r pol_add_2_set;
#X obj 141 410 s pol_add_0;
#X obj 141 430 s pol_add_3;
#X obj 182 450 s pol_add_1;
#X obj 182 470 s pol_add_4;
#X obj 222 490 s pol_add_2;
#X obj 222 510 s pol_add_5;
#X obj 141 589 value pol_add_0;
#X obj 182 609 value pol_add_1;
#X obj 222 629 value pol_add_2;
#X obj 542 153 value pol_add_time_random_max;
#X obj 542 182 value pol_add_time_random_min;
#X obj 741 67 loadbang;
#X obj 741 96 t b b b b;
#X msg 741 135 5;
#X msg 809 135 1000;
#X msg 809 164 100;
#X msg 741 164 -5;
#X obj 348 470 r pol_add_liner_function;
#X obj 347 437 r pol_add_liner_exponent;
#X obj 182 299 liner_sfgem;
#X obj 141 237 liner_sfgem;
#X obj 222 360 liner_sfgem;
#X connect 0 0 13 5;
#X connect 1 0 13 6;
#X connect 2 0 13 7;
#X connect 3 0 47 0;
#X connect 4 0 46 0;
#X connect 5 0 48 0;
#X connect 6 0 27 0;
#X connect 6 0 28 0;
#X connect 7 0 6 1;
#X connect 8 0 31 0;
#X connect 8 0 32 0;
#X connect 9 0 29 0;
#X connect 9 0 30 0;
#X connect 10 0 9 1;
#X connect 11 0 8 1;
#X connect 12 0 13 4;
#X connect 13 0 14 0;
#X connect 13 1 3 0;
#X connect 13 1 33 0;
#X connect 13 2 4 0;
#X connect 13 2 34 0;
#X connect 13 3 5 0;
#X connect 13 3 35 0;
#X connect 13 4 3 1;
#X connect 13 4 17 0;
#X connect 13 4 19 0;
#X connect 13 5 4 1;
#X connect 13 5 18 0;
#X connect 13 5 20 0;
#X connect 13 6 5 1;
#X connect 13 6 21 0;
#X connect 13 6 22 0;
#X connect 23 0 13 0;
#X connect 24 0 13 1;
#X connect 25 0 13 2;
#X connect 26 0 13 3;
#X connect 38 0 39 0;
#X connect 39 0 43 0;
#X connect 39 1 40 0;
#X connect 39 2 42 0;
#X connect 39 3 41 0;
#X connect 40 0 15 0;
#X connect 41 0 36 0;
#X connect 42 0 37 0;
#X connect 43 0 16 0;
#X connect 44 0 46 2;
#X connect 44 0 47 2;
#X connect 44 0 48 2;
#X connect 45 0 46 3;
#X connect 45 0 47 3;
#X connect 45 0 48 3;
#X connect 46 0 9 0;
#X connect 47 0 6 0;
#X connect 47 0 6 0;
#X connect 48 0 8 0;
#X coords 0 -1 1 1 250 50 1 100 150;
