#N canvas 230 294 898 701 10;
#X obj 135 48 r polar_add_0_set;
#X obj 170 69 r polar_add_1_set;
#X obj 205 89 r polar_add_2_set;
#X obj 61 480 s polar_add_0;
#X obj 109 460 s polar_add_1;
#X obj 158 480 s polar_add_2;
#X obj 61 520 s polar_add_3;
#X obj 109 500 s polar_add_4;
#X obj 158 520 s polar_add_5;
#X obj 101 28 r polar_add_master_set;
#X obj 274 48 r pol_add_speed_0;
#X obj 309 68 r pol_add_speed_1;
#X obj 344 88 r pol_add_speed_2;
#X obj 263 480 s poladd_0_speed_rec;
#X obj 303 500 s poladd_1_speed_rec;
#X obj 344 560 s poladd_2_speed_rec;
#X obj 263 520 s poladd_3_speed_rec;
#X obj 303 540 s poladd_4_speed_rec;
#X obj 344 580 s poladd_5_speed_rec;
#X obj 141 277 liner_sfgem;
#X obj 141 253 pack;
#X obj 189 323 pack;
#X obj 238 389 pack;
#X obj 141 297 Tarer 0;
#X obj 410 279 r pol_add_tare_0;
#X obj 238 433 Tarer 2;
#X obj 189 367 Tarer 1;
#X obj 410 349 r pol_add_tare_1;
#X obj 410 415 r pol_add_tare_2;
#X obj 239 28 r pol_add_speed_all;
#X obj 189 347 liner_sfgem;
#X obj 238 413 liner_sfgem;
#X obj 101 151 control_numbers_window 1 2 3 999 0;
#X obj 100 569 value spin_master;
#X obj 141 589 value spin_0;
#X obj 181 609 value spin_1;
#X obj 222 629 value spin_2;
#X obj 27 355 s pol_add_master;
#X connect 0 0 32 1;
#X connect 1 0 32 2;
#X connect 2 0 32 3;
#X connect 9 0 32 0;
#X connect 10 0 32 5;
#X connect 11 0 32 6;
#X connect 12 0 32 7;
#X connect 19 0 23 0;
#X connect 19 0 23 0;
#X connect 20 0 19 0;
#X connect 21 0 30 0;
#X connect 22 0 31 0;
#X connect 23 0 3 0;
#X connect 23 0 6 0;
#X connect 24 0 23 1;
#X connect 25 0 5 0;
#X connect 25 0 8 0;
#X connect 26 0 4 0;
#X connect 26 0 7 0;
#X connect 27 0 26 1;
#X connect 28 0 25 1;
#X connect 29 0 32 4;
#X connect 30 0 26 0;
#X connect 31 0 25 0;
#X connect 32 0 33 0;
#X connect 32 0 37 0;
#X connect 32 1 20 0;
#X connect 32 1 34 0;
#X connect 32 2 21 0;
#X connect 32 2 35 0;
#X connect 32 3 22 0;
#X connect 32 3 36 0;
#X connect 32 4 20 1;
#X connect 32 4 13 0;
#X connect 32 4 16 0;
#X connect 32 5 21 1;
#X connect 32 5 14 0;
#X connect 32 5 17 0;
#X connect 32 6 22 1;
#X connect 32 6 15 0;
#X connect 32 6 18 0;
#X coords 0 -1 1 1 252 52 1 100 150;
