#N canvas 77 113 1173 644 10;
#X obj 53 49 r current_instruction;
#X obj 21 20 r start-instruction;
#X msg 53 175 symbol reset;
#X msg 119 146 set symbol;
#X msg 53 146 add2 \$1;
#X obj 53 117 symbol;
#X obj 21 78 bng 15 250 50 0 empty empty empty 17 7 0 10 -262144 -1
-1;
#X obj 53 78 t a b;
#X obj 702 421 preset_sfgem_reset;
#X obj 775 401 preset_sfgem_threeincenter;
#X msg 53 233 x_add;
#X obj 53 251 preset_sfgem_generic;
#X msg 101 233 spin;
#X msg 149 233 pol_add;
#X msg 254 233 y_add;
#X msg 294 233 orbit;
#X msg 343 233 size;
#X msg 391 233 rot;
#X msg 439 233 phase;
#X msg 53 329 x_add;
#X msg 118 329 spin;
#X msg 184 329 pol_add;
#X msg 315 329 y_add;
#X msg 381 329 orbit;
#X msg 447 329 size;
#X msg 512 329 rot;
#X msg 578 329 phase;
#X obj 53 300 sel x_addplus spinplus pol_addplus cartmultplus y_addplus
orbitplus sizeplus rotplus phaseplus, f 99;
#X obj 53 347 preset_sfgem_genericplus;
#X obj 211 18 inlet;
#X obj 211 60 t b a;
#X obj 702 372 sel reset threeincenter, f 25;
#X obj 53 204 sel x_add spin pol_add cart_mult y_add orbit size rot
phase, f 76;
#X msg 250 329 cart_mult;
#X msg 198 233 cart_mult;
#X text 835 524 Lower Left;
#X text 833 554 Upper Middle;
#X text 834 582 Lower Right;
#X obj 246 475 t b b b;
#X obj 149 475 t b b b;
#X obj 439 475 t b b b;
#X obj 342 475 t b b b;
#X obj 53 475 t b b b;
#X text 59 452 CENTER;
#X msg 53 562 0 0;
#X msg 92 504 0 0;
#X msg 72 533 0 0;
#X text 158 452 FACE;
#X text 255 452 TRIANGLE;
#X text 350 452 HORIZONTAL;
#X text 448 452 VERTICAL;
#X msg 188 504 -0.867 0.5;
#X msg 168 533 0 -1;
#X msg 149 562 0.867 0.5;
#X msg 246 562 0.867 -0.5;
#X msg 265 533 0 1;
#X msg 285 504 -0.867 -0.5;
#X msg 342 562 1 0;
#X msg 361 533 0 0;
#X msg 381 504 -1 0;
#X msg 439 562 0 -1;
#X msg 458 533 0 0;
#X msg 478 504 0 1;
#X obj 523 522 s x_y_absolute-2-receive;
#X obj 523 551 s x_y_absolute-1-receive;
#X obj 523 580 s x_y_absolute-0-receive;
#X obj 684 522 s x_y_absolute-5-receive;
#X obj 684 551 s x_y_absolute-4-receive;
#X obj 684 580 s x_y_absolute-3-receive;
#X obj 53 426 sel center face triangle horizontal vertical, f 81;
#X connect 0 0 7 0;
#X connect 1 0 6 0;
#X connect 2 0 27 0;
#X connect 2 0 32 0;
#X connect 2 0 69 0;
#X connect 2 0 31 0;
#X connect 3 0 2 0;
#X connect 4 0 2 0;
#X connect 5 0 4 0;
#X connect 6 0 2 0;
#X connect 7 0 5 0;
#X connect 7 1 3 0;
#X connect 10 0 11 0;
#X connect 12 0 11 0;
#X connect 13 0 11 0;
#X connect 14 0 11 0;
#X connect 15 0 11 0;
#X connect 16 0 11 0;
#X connect 17 0 11 0;
#X connect 18 0 11 0;
#X connect 19 0 28 0;
#X connect 20 0 28 0;
#X connect 21 0 28 0;
#X connect 22 0 28 0;
#X connect 23 0 28 0;
#X connect 24 0 28 0;
#X connect 25 0 28 0;
#X connect 26 0 28 0;
#X connect 27 0 19 0;
#X connect 27 1 20 0;
#X connect 27 2 21 0;
#X connect 27 3 33 0;
#X connect 27 4 22 0;
#X connect 27 5 23 0;
#X connect 27 6 24 0;
#X connect 27 7 25 0;
#X connect 27 8 26 0;
#X connect 29 0 30 0;
#X connect 30 0 6 0;
#X connect 30 1 7 0;
#X connect 31 0 8 0;
#X connect 31 1 9 0;
#X connect 32 0 10 0;
#X connect 32 1 12 0;
#X connect 32 2 13 0;
#X connect 32 3 34 0;
#X connect 32 4 14 0;
#X connect 32 5 15 0;
#X connect 32 6 16 0;
#X connect 32 7 17 0;
#X connect 32 8 18 0;
#X connect 33 0 28 0;
#X connect 34 0 11 0;
#X connect 38 0 54 0;
#X connect 38 1 55 0;
#X connect 38 2 56 0;
#X connect 39 0 53 0;
#X connect 39 1 52 0;
#X connect 39 2 51 0;
#X connect 40 0 60 0;
#X connect 40 1 61 0;
#X connect 40 2 62 0;
#X connect 41 0 57 0;
#X connect 41 1 58 0;
#X connect 41 2 59 0;
#X connect 42 0 44 0;
#X connect 42 1 46 0;
#X connect 42 2 45 0;
#X connect 44 0 65 0;
#X connect 44 0 68 0;
#X connect 45 0 63 0;
#X connect 45 0 66 0;
#X connect 46 0 64 0;
#X connect 46 0 67 0;
#X connect 51 0 63 0;
#X connect 51 0 66 0;
#X connect 52 0 64 0;
#X connect 52 0 67 0;
#X connect 53 0 65 0;
#X connect 53 0 68 0;
#X connect 54 0 65 0;
#X connect 54 0 68 0;
#X connect 55 0 64 0;
#X connect 55 0 67 0;
#X connect 56 0 63 0;
#X connect 56 0 66 0;
#X connect 57 0 65 0;
#X connect 57 0 68 0;
#X connect 58 0 64 0;
#X connect 58 0 67 0;
#X connect 59 0 63 0;
#X connect 59 0 66 0;
#X connect 60 0 65 0;
#X connect 60 0 68 0;
#X connect 61 0 64 0;
#X connect 61 0 67 0;
#X connect 62 0 63 0;
#X connect 62 0 66 0;
#X connect 69 0 42 0;
#X connect 69 1 39 0;
#X connect 69 2 38 0;
#X connect 69 3 41 0;
#X connect 69 4 40 0;
