#N canvas 179 246 1579 296 10;
#X obj 41 38 inlet;
#X obj 1362 77 r aux_inst_0;
#X obj 1449 77 r aux_inst_1;
#X obj 41 95 f;
#X obj 74 95 f;
#X obj 41 75 t b b;
#X obj 41 115 s x_add_random_max;
#X obj 41 135 s x_add_random_min;
#X obj 197 95 f;
#X obj 230 95 f;
#X obj 197 75 t b b;
#X obj 343 95 f;
#X obj 376 95 f;
#X obj 343 75 t b b;
#X obj 510 95 f;
#X obj 543 95 f;
#X obj 510 75 t b b;
#X obj 676 95 f;
#X obj 709 95 f;
#X obj 676 75 t b b;
#X obj 822 95 f;
#X obj 855 95 f;
#X obj 822 75 t b b;
#X obj 969 95 f;
#X obj 1002 95 f;
#X obj 969 75 t b b;
#X obj 1115 95 f;
#X obj 1148 95 f;
#X obj 1115 75 t b b;
#X obj 1251 95 f;
#X obj 1284 95 f;
#X obj 1251 75 t b b;
#X obj 197 115 s spin_random_max;
#X obj 197 135 s spin_random_min;
#X obj 343 115 s pol_add_random_max;
#X obj 343 135 s pol_add_random_min;
#X obj 510 115 s cartmult_random_max;
#X obj 510 135 s cartmult_random_min;
#X obj 676 115 s y_add_random_max;
#X obj 676 135 s y_add_random_min;
#X obj 822 115 s orbit_random_max;
#X obj 822 135 s orbit_random_min;
#X obj 969 115 s size_random_max;
#X obj 969 135 s size_random_min;
#X obj 1115 115 s rot_random_max;
#X obj 1251 115 s phase_random_max;
#X obj 1251 135 s phase_random_min;
#X obj 197 38 inlet;
#X obj 343 38 inlet;
#X obj 510 38 inlet;
#X obj 676 38 inlet;
#X obj 822 38 inlet;
#X obj 969 38 inlet;
#X obj 1115 38 inlet;
#X obj 1251 38 inlet;
#X obj 1362 167 r aux_inst_2;
#X obj 1449 167 r aux_inst_3;
#X obj 41 185 f;
#X obj 74 185 f;
#X obj 41 165 t b b;
#X obj 197 185 f;
#X obj 230 185 f;
#X obj 197 165 t b b;
#X obj 343 185 f;
#X obj 376 185 f;
#X obj 343 165 t b b;
#X obj 510 185 f;
#X obj 543 185 f;
#X obj 510 165 t b b;
#X obj 676 185 f;
#X obj 709 185 f;
#X obj 676 165 t b b;
#X obj 822 185 f;
#X obj 855 185 f;
#X obj 822 165 t b b;
#X obj 969 185 f;
#X obj 1002 185 f;
#X obj 969 165 t b b;
#X obj 1115 185 f;
#X obj 1148 185 f;
#X obj 1115 165 t b b;
#X obj 1251 185 f;
#X obj 1284 185 f;
#X obj 1251 165 t b b;
#X obj 41 225 s x_add_time_random_min;
#X obj 1251 205 s phase_time_random_max;
#X obj 1251 225 s phase_time_random_min;
#X obj 1115 135 s rot_random_min;
#X obj 1115 205 s rot_time_random_max;
#X obj 1115 225 s rot_time_random_min;
#X obj 969 205 s size_time_random_max;
#X obj 969 225 s size_time_random_min;
#X obj 822 205 s orbit_time_random_max;
#X obj 822 225 s orbit_time_random_min;
#X obj 676 205 s y_add_time_random_max;
#X obj 676 225 s y_add_time_random_min;
#X obj 510 205 s cartmult_time_random_max;
#X obj 510 225 s cartmult_time_random_min;
#X obj 343 205 s pol_add_time_random_max;
#X obj 343 225 s pol_add_time_random_min;
#X obj 197 205 s spin_time_random_max;
#X obj 197 225 s spin_time_random_min;
#X obj 41 205 s x_add_time_random_max;
#X connect 0 0 5 0;
#X connect 0 0 59 0;
#X connect 1 0 3 1;
#X connect 1 0 8 1;
#X connect 1 0 11 1;
#X connect 1 0 14 1;
#X connect 1 0 17 1;
#X connect 1 0 20 1;
#X connect 1 0 23 1;
#X connect 1 0 26 1;
#X connect 1 0 29 1;
#X connect 2 0 4 1;
#X connect 2 0 9 1;
#X connect 2 0 12 1;
#X connect 2 0 15 1;
#X connect 2 0 18 1;
#X connect 2 0 21 1;
#X connect 2 0 24 1;
#X connect 2 0 27 1;
#X connect 2 0 30 1;
#X connect 3 0 6 0;
#X connect 4 0 7 0;
#X connect 5 0 3 0;
#X connect 5 1 4 0;
#X connect 8 0 32 0;
#X connect 9 0 33 0;
#X connect 10 0 8 0;
#X connect 10 1 9 0;
#X connect 11 0 34 0;
#X connect 12 0 35 0;
#X connect 13 0 11 0;
#X connect 13 1 12 0;
#X connect 14 0 36 0;
#X connect 15 0 37 0;
#X connect 16 0 14 0;
#X connect 16 1 15 0;
#X connect 17 0 38 0;
#X connect 18 0 39 0;
#X connect 19 0 17 0;
#X connect 19 1 18 0;
#X connect 20 0 40 0;
#X connect 21 0 41 0;
#X connect 22 0 20 0;
#X connect 22 1 21 0;
#X connect 23 0 42 0;
#X connect 24 0 43 0;
#X connect 25 0 23 0;
#X connect 25 1 24 0;
#X connect 26 0 44 0;
#X connect 27 0 87 0;
#X connect 28 0 26 0;
#X connect 28 1 27 0;
#X connect 29 0 45 0;
#X connect 30 0 46 0;
#X connect 31 0 29 0;
#X connect 31 1 30 0;
#X connect 47 0 10 0;
#X connect 47 0 62 0;
#X connect 48 0 13 0;
#X connect 48 0 65 0;
#X connect 49 0 16 0;
#X connect 49 0 68 0;
#X connect 50 0 19 0;
#X connect 50 0 71 0;
#X connect 51 0 22 0;
#X connect 51 0 74 0;
#X connect 52 0 25 0;
#X connect 52 0 77 0;
#X connect 53 0 28 0;
#X connect 53 0 80 0;
#X connect 54 0 31 0;
#X connect 54 0 83 0;
#X connect 55 0 81 1;
#X connect 55 0 78 1;
#X connect 55 0 75 1;
#X connect 55 0 72 1;
#X connect 55 0 69 1;
#X connect 55 0 66 1;
#X connect 55 0 60 1;
#X connect 55 0 57 1;
#X connect 55 0 63 1;
#X connect 56 0 82 1;
#X connect 56 0 79 1;
#X connect 56 0 76 1;
#X connect 56 0 73 1;
#X connect 56 0 70 1;
#X connect 56 0 67 1;
#X connect 56 0 64 1;
#X connect 56 0 61 1;
#X connect 56 0 58 1;
#X connect 57 0 102 0;
#X connect 58 0 84 0;
#X connect 59 0 57 0;
#X connect 59 1 58 0;
#X connect 60 0 100 0;
#X connect 61 0 101 0;
#X connect 62 0 60 0;
#X connect 62 1 61 0;
#X connect 63 0 98 0;
#X connect 64 0 99 0;
#X connect 65 0 63 0;
#X connect 65 1 64 0;
#X connect 66 0 96 0;
#X connect 67 0 97 0;
#X connect 68 0 66 0;
#X connect 68 1 67 0;
#X connect 69 0 94 0;
#X connect 70 0 95 0;
#X connect 71 0 69 0;
#X connect 71 1 70 0;
#X connect 72 0 92 0;
#X connect 73 0 93 0;
#X connect 74 0 72 0;
#X connect 74 1 73 0;
#X connect 75 0 90 0;
#X connect 76 0 91 0;
#X connect 77 0 75 0;
#X connect 77 1 76 0;
#X connect 78 0 88 0;
#X connect 79 0 89 0;
#X connect 80 0 78 0;
#X connect 80 1 79 0;
#X connect 81 0 85 0;
#X connect 82 0 86 0;
#X connect 83 0 81 0;
#X connect 83 1 82 0;
