#N canvas 330 109 1171 727 10;
#X obj 288 41 r current_instruction_length;
#X obj 49 22 inlet;
#X obj 593 183 route 999;
#X msg 593 204 0;
#X obj 593 43 r aux_inst_all;
#X obj 593 72 unpack f f f f, f 41;
#X obj 559 259 f;
#X obj 204 157 del;
#X floatatom 755 101 5 0 0 0 - - -, f 5;
#X floatatom 593 101 5 0 0 0 - - -, f 5;
#X floatatom 674 101 5 0 0 0 - - -, f 5;
#X floatatom 836 101 5 0 0 0 - - -, f 5;
#X obj 318 277 metro;
#X obj 318 222 spigot;
#X msg 661 204 1;
#X msg 318 184 1;
#X msg 273 233 0;
#X obj 532 166 t b b;
#X obj 318 251 tgl 15 0 empty empty empty 17 7 0 10 -262144 -1 -1 0
1;
#X obj 426 360 bng 15 250 50 0 empty empty empty 17 7 0 10 -262144
-1 -1;
#X floatatom 511 320 5 0 0 0 - - -, f 5;
#X obj 561 494 r aux_inst_4;
#X msg 466 462 666 999 999 999;
#X obj 466 513 unpack f f f f;
#X obj 497 630 s generic_bypass_immediate;
#X obj 49 87 t b b a;
#X obj 497 585 pack f f f f f f f f s;
#X obj 577 514 r aux_inst_5;
#X obj 593 534 r aux_inst_6;
#X obj 609 554 r aux_inst_7;
#X obj 316 493 symbol;
#X connect 0 0 7 1;
#X connect 1 0 25 0;
#X connect 2 0 3 0;
#X connect 2 1 6 1;
#X connect 2 1 14 0;
#X connect 3 0 13 1;
#X connect 4 0 5 0;
#X connect 5 0 9 0;
#X connect 5 1 10 0;
#X connect 5 2 8 0;
#X connect 5 3 11 0;
#X connect 6 0 12 1;
#X connect 6 0 20 0;
#X connect 7 0 16 0;
#X connect 9 0 2 0;
#X connect 12 0 19 0;
#X connect 13 0 18 0;
#X connect 14 0 13 1;
#X connect 15 0 13 0;
#X connect 16 0 18 0;
#X connect 17 0 15 0;
#X connect 17 1 6 0;
#X connect 18 0 12 0;
#X connect 19 0 22 0;
#X connect 21 0 26 4;
#X connect 22 0 23 0;
#X connect 23 0 26 0;
#X connect 23 1 26 1;
#X connect 23 2 26 2;
#X connect 23 3 26 3;
#X connect 25 0 17 0;
#X connect 25 1 7 0;
#X connect 25 2 30 0;
#X connect 26 0 24 0;
#X connect 27 0 26 5;
#X connect 28 0 26 6;
#X connect 29 0 26 7;
#X connect 30 0 26 8;
