#N canvas 869 412 741 530 10;
#X obj 134 54 inlet;
#X obj 264 414 s spin_master_set;
#X obj 291 434 s spin_0_set;
#X obj 318 454 s spin_1_set;
#X obj 345 476 s spin_2_set;
#X obj 388 384 s spin_speed_all;
#X obj 415 404 s spin_speed_0;
#X obj 442 424 s spin_speed_1;
#X obj 469 444 s spin_speed_2;
#X obj 213 299 route 999;
#X obj 240 270 route 999;
#X obj 267 241 route 999;
#X obj 294 212 route 999;
#X obj 337 299 route 999;
#X obj 364 270 route 999;
#X obj 391 241 route 999;
#X obj 418 212 route 999;
#X obj 213 52 r aux_inst_all;
#X obj 523 42 r current_instruction_length;
#X msg 213 101 set \$1 \$2 \$3 \$4;
#X msg 337 101 \$5 \$6 \$7 \$8 \$9;
#X obj 213 160 unpack f f f f;
#X obj 337 160 unpack f f f f;
#X text 371 81 TIMES;
#X obj 523 143 t f f f f;
#X obj 134 112 t b b;
#X msg 213 130;
#X msg 337 130;
#X obj 264 386 +;
#X obj 345 386 +;
#X obj 318 386 +;
#X obj 291 386 +;
#X obj 13 368 r spin_master;
#X obj 96 368 r spin_0;
#X obj 149 368 r spin_1;
#X obj 202 368 r spin_2;
#X obj 559 317 f;
#X obj 542 288 f;
#X obj 525 259 f;
#X obj 508 230 f;
#X connect 0 0 25 0;
#X connect 9 1 28 0;
#X connect 10 1 31 0;
#X connect 11 1 30 0;
#X connect 12 1 29 0;
#X connect 13 0 36 0;
#X connect 13 1 5 0;
#X connect 14 0 37 0;
#X connect 14 1 6 0;
#X connect 15 0 38 0;
#X connect 15 1 7 0;
#X connect 16 0 39 0;
#X connect 16 1 8 0;
#X connect 17 0 19 0;
#X connect 17 0 20 0;
#X connect 18 0 24 0;
#X connect 19 0 26 0;
#X connect 20 0 27 0;
#X connect 21 0 9 0;
#X connect 21 1 10 0;
#X connect 21 2 11 0;
#X connect 21 3 12 0;
#X connect 22 0 13 0;
#X connect 22 1 14 0;
#X connect 22 2 15 0;
#X connect 22 3 16 0;
#X connect 24 0 39 1;
#X connect 24 1 38 1;
#X connect 24 2 37 1;
#X connect 24 3 36 1;
#X connect 25 0 26 0;
#X connect 25 1 27 0;
#X connect 26 0 21 0;
#X connect 27 0 22 0;
#X connect 28 0 1 0;
#X connect 29 0 4 0;
#X connect 30 0 3 0;
#X connect 31 0 2 0;
#X connect 32 0 28 1;
#X connect 33 0 31 1;
#X connect 34 0 30 1;
#X connect 35 0 29 1;
#X connect 36 0 8 0;
#X connect 37 0 7 0;
#X connect 38 0 6 0;
#X connect 39 0 5 0;
