#N canvas 236 109 1171 727 10;
#X obj 219 72 r current_instruction_length;
#X obj 49 72 inlet;
#X obj 593 139 route 999;
#X msg 593 160 0;
#X obj 593 43 r aux_inst_all;
#X obj 593 72 unpack f f f f, f 41;
#X obj 559 199 f;
#X obj 204 163 del;
#X floatatom 755 101 5 0 0 0 - - -, f 5;
#X floatatom 593 101 5 0 0 0 - - -, f 5;
#X floatatom 674 101 5 0 0 0 - - -, f 5;
#X floatatom 836 101 5 0 0 0 - - -, f 5;
#X obj 444 217 metro;
#X obj 444 178 spigot;
#X msg 644 160 1;
#X msg 444 157 1;
#X msg 399 181 0;
#X obj 532 139 t b b;
#X obj 444 199 tgl 15 0 empty empty empty 17 7 0 10 -262144 -1 -1 0
1;
#X obj 541 534 r aux_inst_4;
#X msg 444 442 666 999 999 999;
#X obj 444 563 unpack f f f f;
#X obj 49 121 t b b a;
#X obj 477 625 pack f f f f f f f f s;
#X obj 557 554 r aux_inst_5;
#X obj 573 574 r aux_inst_6;
#X obj 589 594 r aux_inst_7;
#X obj 88 313 symbol;
#X obj 674 229 route 999;
#X msg 674 250 0;
#X obj 640 289 f;
#X obj 525 307 metro;
#X obj 525 268 spigot;
#X msg 725 250 1;
#X msg 525 247 1;
#X msg 480 271 0;
#X obj 613 229 t b b;
#X obj 525 289 tgl 15 0 empty empty empty 17 7 0 10 -262144 -1 -1 0
1;
#X msg 444 463 999 666 999 999;
#X obj 755 319 route 999;
#X msg 755 340 0;
#X obj 721 379 f;
#X obj 606 397 metro;
#X obj 606 358 spigot;
#X msg 806 340 1;
#X msg 606 337 1;
#X msg 561 361 0;
#X obj 694 319 t b b;
#X obj 606 379 tgl 15 0 empty empty empty 17 7 0 10 -262144 -1 -1 0
1;
#X msg 444 484 999 999 666 999;
#X obj 836 409 route 999;
#X msg 836 430 0;
#X obj 802 469 f;
#X obj 687 487 metro;
#X obj 687 448 spigot;
#X msg 904 430 1;
#X msg 687 427 1;
#X msg 642 451 0;
#X obj 775 409 t b b;
#X obj 687 469 tgl 15 0 empty empty empty 17 7 0 10 -262144 -1 -1 0
1;
#X msg 444 505 999 999 999 666;
#X text 682 127 METRO RATES;
#X obj 477 654 s generic2_bypass_immediate;
#X connect 0 0 7 1;
#X connect 1 0 22 0;
#X connect 2 0 3 0;
#X connect 2 1 6 1;
#X connect 2 1 14 0;
#X connect 3 0 13 1;
#X connect 4 0 5 0;
#X connect 5 0 9 0;
#X connect 5 1 10 0;
#X connect 5 2 8 0;
#X connect 5 3 11 0;
#X connect 6 0 12 1;
#X connect 7 0 16 0;
#X connect 7 0 35 0;
#X connect 7 0 46 0;
#X connect 7 0 57 0;
#X connect 8 0 39 0;
#X connect 9 0 2 0;
#X connect 10 0 28 0;
#X connect 11 0 50 0;
#X connect 12 0 20 0;
#X connect 13 0 18 0;
#X connect 14 0 13 1;
#X connect 15 0 13 0;
#X connect 16 0 18 0;
#X connect 17 0 15 0;
#X connect 17 1 6 0;
#X connect 17 1 36 0;
#X connect 18 0 12 0;
#X connect 19 0 23 4;
#X connect 20 0 21 0;
#X connect 21 0 23 0;
#X connect 21 1 23 1;
#X connect 21 2 23 2;
#X connect 21 3 23 3;
#X connect 22 0 17 0;
#X connect 22 1 7 0;
#X connect 22 2 27 0;
#X connect 23 0 62 0;
#X connect 24 0 23 5;
#X connect 25 0 23 6;
#X connect 26 0 23 7;
#X connect 27 0 23 8;
#X connect 28 0 29 0;
#X connect 28 1 30 1;
#X connect 28 1 33 0;
#X connect 29 0 32 1;
#X connect 30 0 31 1;
#X connect 31 0 38 0;
#X connect 32 0 37 0;
#X connect 33 0 32 1;
#X connect 34 0 32 0;
#X connect 35 0 37 0;
#X connect 36 0 34 0;
#X connect 36 1 30 0;
#X connect 36 1 47 0;
#X connect 37 0 31 0;
#X connect 38 0 21 0;
#X connect 39 0 40 0;
#X connect 39 1 41 1;
#X connect 39 1 44 0;
#X connect 40 0 43 1;
#X connect 41 0 42 1;
#X connect 42 0 49 0;
#X connect 43 0 48 0;
#X connect 44 0 43 1;
#X connect 45 0 43 0;
#X connect 46 0 48 0;
#X connect 47 0 45 0;
#X connect 47 1 41 0;
#X connect 47 1 58 0;
#X connect 48 0 42 0;
#X connect 49 0 21 0;
#X connect 50 0 51 0;
#X connect 50 1 52 1;
#X connect 50 1 55 0;
#X connect 51 0 54 1;
#X connect 52 0 53 1;
#X connect 53 0 60 0;
#X connect 54 0 59 0;
#X connect 55 0 54 1;
#X connect 56 0 54 0;
#X connect 57 0 59 0;
#X connect 58 0 56 0;
#X connect 58 1 52 0;
#X connect 59 0 53 0;
#X connect 60 0 21 0;
