#N canvas 248 378 1049 656 10;
#X obj 98 44 inlet;
#X obj 277 289 route 999;
#X obj 304 260 route 999;
#X obj 331 231 route 999;
#X obj 358 202 route 999;
#X obj 551 289 route 999;
#X obj 578 260 route 999;
#X obj 605 231 route 999;
#X obj 632 202 route 999;
#X obj 277 42 r aux_inst_all;
#X obj 767 32 r current_instruction_length;
#X msg 277 80 set \$1 \$2 \$3 \$4;
#X obj 277 150 unpack f f f f;
#X obj 551 150 unpack f f f f;
#X text 585 40 TIMES;
#X msg 277 120 222 999 999 999;
#X msg 551 120;
#X obj 767 133 t f f f f;
#X obj 803 307 f;
#X obj 786 278 f;
#X obj 769 249 f;
#X obj 752 220 f;
#X obj 98 102 t b b a;
#X obj 137 442 symbol;
#X msg 137 466 \$1_master_set;
#X obj 328 484 s;
#X msg 137 486 \$1_0_set;
#X obj 355 504 s;
#X msg 137 506 \$1_1_set;
#X obj 382 524 s;
#X msg 137 526 \$1_2_set;
#X obj 409 544 s;
#X msg 460 486 \$1_speed_all;
#X obj 602 504 s;
#X obj 460 460 t a;
#X msg 460 506 \$1_speed_0;
#X obj 227 466 symbol;
#X obj 227 486 symbol;
#X obj 227 506 symbol;
#X obj 227 526 symbol;
#X obj 548 486 symbol;
#X obj 548 506 symbol;
#X obj 548 526 symbol;
#X obj 548 546 symbol;
#X obj 629 524 s;
#X msg 460 526 \$1_speed_1;
#X obj 656 544 s;
#X msg 460 546 \$1_speed_2;
#X obj 683 564 s;
#X obj 328 328 +;
#X obj 381 310 value;
#X obj 381 281 t b a;
#X msg 461 281 \$1_master;
#X obj 418 281 symbol;
#X obj 355 376 +;
#X obj 381 360 value;
#X obj 381 331 t b a;
#X obj 418 331 symbol;
#X obj 382 405 +;
#X obj 418 389 value;
#X obj 418 360 t b a;
#X obj 455 360 symbol;
#X obj 409 435 +;
#X obj 458 417 value;
#X obj 458 388 t b a;
#X obj 495 388 symbol;
#X obj 461 186 t a;
#X msg 461 331 \$1_0;
#X msg 498 360 \$1_1;
#X msg 538 388 \$1_2;
#X obj 155 168 symbol;
#X msg 551 60 set \$5 \$6 \$7 \$8;
#X connect 0 0 22 0;
#X connect 1 1 49 0;
#X connect 2 1 54 0;
#X connect 3 1 58 0;
#X connect 4 1 62 0;
#X connect 5 0 18 0;
#X connect 5 1 33 0;
#X connect 6 0 19 0;
#X connect 6 1 44 0;
#X connect 7 0 20 0;
#X connect 7 1 46 0;
#X connect 8 0 21 1;
#X connect 8 1 48 0;
#X connect 9 0 11 0;
#X connect 9 0 71 0;
#X connect 10 0 17 0;
#X connect 11 0 15 0;
#X connect 12 0 1 0;
#X connect 12 1 2 0;
#X connect 12 2 3 0;
#X connect 12 3 4 0;
#X connect 13 0 5 0;
#X connect 13 1 6 0;
#X connect 13 2 7 0;
#X connect 13 3 8 0;
#X connect 15 0 12 0;
#X connect 16 0 13 0;
#X connect 17 0 21 1;
#X connect 17 1 20 1;
#X connect 17 2 19 1;
#X connect 17 3 18 1;
#X connect 18 0 48 0;
#X connect 19 0 46 0;
#X connect 20 0 44 0;
#X connect 21 0 33 0;
#X connect 22 0 15 0;
#X connect 22 1 16 0;
#X connect 22 2 23 0;
#X connect 22 2 70 0;
#X connect 23 0 24 0;
#X connect 23 0 26 0;
#X connect 23 0 28 0;
#X connect 23 0 30 0;
#X connect 23 0 34 0;
#X connect 24 0 36 0;
#X connect 26 0 37 0;
#X connect 28 0 38 0;
#X connect 30 0 39 0;
#X connect 32 0 40 0;
#X connect 34 0 32 0;
#X connect 34 0 35 0;
#X connect 34 0 47 0;
#X connect 35 0 41 0;
#X connect 36 0 25 1;
#X connect 37 0 27 1;
#X connect 38 0 29 1;
#X connect 39 0 31 1;
#X connect 40 0 33 1;
#X connect 41 0 44 1;
#X connect 42 0 46 1;
#X connect 43 0 48 1;
#X connect 45 0 42 0;
#X connect 47 0 43 0;
#X connect 49 0 25 0;
#X connect 50 0 49 1;
#X connect 51 0 50 0;
#X connect 51 1 50 1;
#X connect 52 0 53 0;
#X connect 53 0 51 0;
#X connect 54 0 27 0;
#X connect 55 0 54 1;
#X connect 56 0 55 0;
#X connect 56 1 55 1;
#X connect 57 0 56 0;
#X connect 58 0 29 0;
#X connect 59 0 58 1;
#X connect 60 0 59 0;
#X connect 60 1 59 1;
#X connect 61 0 60 0;
#X connect 62 0 31 0;
#X connect 63 0 62 1;
#X connect 64 0 63 0;
#X connect 64 1 63 1;
#X connect 65 0 64 0;
#X connect 66 0 52 0;
#X connect 66 0 67 0;
#X connect 66 0 68 0;
#X connect 66 0 69 0;
#X connect 67 0 57 0;
#X connect 68 0 61 0;
#X connect 69 0 65 0;
#X connect 70 0 66 0;
#X connect 71 0 16 0;
