#N canvas 406 113 1173 644 10;
#X obj 53 49 r current_instruction;
#X obj 21 20 r start-instruction;
#X msg 53 175 symbol spinplus;
#X msg 119 146 set symbol;
#X msg 53 146 add2 \$1;
#X obj 53 117 symbol;
#X obj 21 160 bng 15 250 50 0 empty empty empty 17 7 0 10 -262144 -1
-1;
#X obj 53 78 t a b;
#X obj 53 543 preset_sfgem_reset;
#X obj 106 523 preset_sfgem_threeincenter;
#X msg 53 233 x_add;
#X obj 53 251 preset_sfgem_generic;
#X msg 101 233 spin;
#X msg 149 233 pol_add;
#X msg 198 233 cartmult;
#X msg 254 233 y_add;
#X obj 53 204 sel x_add spin pol_add cartmult y_add orbit size rot
phase, f 73;
#X msg 294 233 orbit;
#X msg 343 233 size;
#X msg 391 233 rot;
#X msg 439 233 phase;
#X msg 53 329 x_add;
#X msg 118 329 spin;
#X msg 184 329 pol_add;
#X msg 250 329 cartmult;
#X msg 315 329 y_add;
#X msg 381 329 orbit;
#X msg 447 329 size;
#X msg 512 329 rot;
#X msg 578 329 phase;
#X obj 53 300 sel x_addplus spinplus pol_addplus cartmultplus y_addplus
orbitplus sizeplus rotplus phaseplus, f 99;
#X obj 53 347 preset_sfgem_genericplus;
#X obj 321 51 inlet;
#X obj 331 97 t b a;
#X obj 53 414 sel reset threeincenter, f 90;
#X connect 0 0 7 0;
#X connect 1 0 6 0;
#X connect 2 0 16 0;
#X connect 2 0 30 0;
#X connect 3 0 2 0;
#X connect 4 0 2 0;
#X connect 5 0 4 0;
#X connect 6 0 2 0;
#X connect 7 0 5 0;
#X connect 7 1 3 0;
#X connect 10 0 11 0;
#X connect 12 0 11 0;
#X connect 13 0 11 0;
#X connect 14 0 11 0;
#X connect 15 0 11 0;
#X connect 16 0 10 0;
#X connect 16 1 12 0;
#X connect 16 2 13 0;
#X connect 16 3 14 0;
#X connect 16 4 15 0;
#X connect 16 5 17 0;
#X connect 16 6 18 0;
#X connect 16 7 19 0;
#X connect 16 8 20 0;
#X connect 17 0 11 0;
#X connect 18 0 11 0;
#X connect 19 0 11 0;
#X connect 20 0 11 0;
#X connect 21 0 31 0;
#X connect 22 0 31 0;
#X connect 23 0 31 0;
#X connect 24 0 31 0;
#X connect 25 0 31 0;
#X connect 26 0 31 0;
#X connect 27 0 31 0;
#X connect 28 0 31 0;
#X connect 29 0 31 0;
#X connect 30 0 21 0;
#X connect 30 1 22 0;
#X connect 30 2 23 0;
#X connect 30 3 24 0;
#X connect 30 4 25 0;
#X connect 30 5 26 0;
#X connect 30 6 27 0;
#X connect 30 7 28 0;
#X connect 30 8 29 0;
#X connect 32 0 33 0;
#X connect 33 0 6 0;
#X connect 33 1 7 0;
#X connect 34 0 8 0;
#X connect 34 1 9 0;
