#N canvas 208 346 1355 656 10;
#X obj 98 44 inlet;
#X obj 277 289 route 999;
#X obj 304 260 route 999;
#X obj 331 231 route 999;
#X obj 358 202 route 999;
#X obj 277 42 r aux_inst_all;
#X msg 277 80 set \$1 \$2 \$3 \$4;
#X obj 277 150 unpack f f f f;
#X obj 551 150 unpack f f f f;
#X text 585 40 TIMES;
#X msg 277 120 999 12.56 6.28 999;
#X msg 551 120 999 5000 5000 999;
#X obj 98 102 t b b a;
#X obj 137 442 symbol;
#X msg 137 466 \$1_master_set;
#X obj 328 484 s;
#X msg 137 486 \$1_0_set;
#X obj 355 504 s;
#X msg 137 506 \$1_1_set;
#X obj 382 524 s;
#X msg 137 526 \$1_2_set;
#X obj 409 544 s;
#X msg 460 486 \$1_speed_all;
#X obj 626 504 s;
#X obj 460 460 t a;
#X msg 460 506 \$1_speed_0;
#X obj 227 466 symbol;
#X obj 227 486 symbol;
#X obj 227 506 symbol;
#X obj 227 526 symbol;
#X obj 548 486 symbol;
#X obj 548 506 symbol;
#X obj 548 526 symbol;
#X obj 548 546 symbol;
#X obj 653 524 s;
#X msg 460 526 \$1_speed_1;
#X obj 680 544 s;
#X msg 460 546 \$1_speed_2;
#X obj 707 564 s;
#X obj 328 328 +;
#X obj 381 310 value;
#X obj 381 281 t b a;
#X msg 461 281 \$1_master;
#X obj 418 281 symbol;
#X obj 355 376 +;
#X obj 381 360 value;
#X obj 381 331 t b a;
#X obj 418 331 symbol;
#X obj 382 405 +;
#X obj 418 389 value;
#X obj 418 360 t b a;
#X obj 455 360 symbol;
#X obj 409 435 +;
#X obj 458 417 value;
#X obj 458 388 t b a;
#X obj 495 388 symbol;
#X obj 461 186 t a;
#X msg 461 331 \$1_0;
#X msg 498 360 \$1_1;
#X msg 538 388 \$1_2;
#X obj 155 168 symbol;
#X msg 551 60 set \$5 \$6 \$7 \$8;
#X obj 824 32 r current_instruction_length;
#X obj 851 163 t f f f f;
#X text 837 53 999 - do nothing \; 666 - random \; 333 - current instruction
length;
#X obj 906 238 spigot;
#X msg 813 220 1;
#X msg 975 118 0;
#X obj 824 100 t b f;
#X obj 886 287 spigot;
#X msg 813 269 1;
#X obj 869 336 spigot;
#X msg 813 318 1;
#X obj 852 385 spigot;
#X msg 813 367 1;
#X obj 906 216 f;
#X obj 886 265 f;
#X obj 869 313 f;
#X obj 852 363 f;
#X obj 930 120 bng 15 250 50 0 empty empty empty 17 7 0 10 -262144
-1 -1;
#X obj 632 202 route 999 333;
#X obj 605 251 route 999 333;
#X obj 578 300 route 999 333;
#X obj 551 349 route 999 333;
#X connect 0 0 12 0;
#X connect 1 1 39 0;
#X connect 2 1 44 0;
#X connect 3 1 48 0;
#X connect 4 1 52 0;
#X connect 5 0 6 0;
#X connect 5 0 61 0;
#X connect 6 0 10 0;
#X connect 7 0 1 0;
#X connect 7 1 2 0;
#X connect 7 2 3 0;
#X connect 7 3 4 0;
#X connect 8 0 83 0;
#X connect 8 1 82 0;
#X connect 8 2 81 0;
#X connect 8 3 80 0;
#X connect 10 0 7 0;
#X connect 11 0 8 0;
#X connect 12 0 10 0;
#X connect 12 1 11 0;
#X connect 12 1 79 0;
#X connect 12 2 13 0;
#X connect 12 2 60 0;
#X connect 13 0 14 0;
#X connect 13 0 16 0;
#X connect 13 0 18 0;
#X connect 13 0 20 0;
#X connect 13 0 24 0;
#X connect 14 0 26 0;
#X connect 16 0 27 0;
#X connect 18 0 28 0;
#X connect 20 0 29 0;
#X connect 22 0 30 0;
#X connect 24 0 22 0;
#X connect 24 0 25 0;
#X connect 24 0 37 0;
#X connect 25 0 31 0;
#X connect 26 0 15 1;
#X connect 27 0 17 1;
#X connect 28 0 19 1;
#X connect 29 0 21 1;
#X connect 30 0 23 1;
#X connect 31 0 34 1;
#X connect 32 0 36 1;
#X connect 33 0 38 1;
#X connect 35 0 32 0;
#X connect 37 0 33 0;
#X connect 39 0 15 0;
#X connect 40 0 39 1;
#X connect 41 0 40 0;
#X connect 41 1 40 1;
#X connect 42 0 43 0;
#X connect 43 0 41 0;
#X connect 44 0 17 0;
#X connect 45 0 44 1;
#X connect 46 0 45 0;
#X connect 46 1 45 1;
#X connect 47 0 46 0;
#X connect 48 0 19 0;
#X connect 49 0 48 1;
#X connect 50 0 49 0;
#X connect 50 1 49 1;
#X connect 51 0 50 0;
#X connect 52 0 21 0;
#X connect 53 0 52 1;
#X connect 54 0 53 0;
#X connect 54 1 53 1;
#X connect 55 0 54 0;
#X connect 56 0 42 0;
#X connect 56 0 57 0;
#X connect 56 0 58 0;
#X connect 56 0 59 0;
#X connect 57 0 47 0;
#X connect 58 0 51 0;
#X connect 59 0 55 0;
#X connect 60 0 56 0;
#X connect 61 0 11 0;
#X connect 62 0 68 0;
#X connect 63 0 78 1;
#X connect 63 1 77 1;
#X connect 63 2 76 1;
#X connect 63 3 75 1;
#X connect 65 0 38 0;
#X connect 66 0 65 1;
#X connect 67 0 65 1;
#X connect 67 0 69 1;
#X connect 67 0 71 1;
#X connect 67 0 73 1;
#X connect 68 0 67 0;
#X connect 68 1 63 0;
#X connect 69 0 36 0;
#X connect 70 0 69 1;
#X connect 71 0 34 0;
#X connect 72 0 71 1;
#X connect 73 0 23 0;
#X connect 74 0 73 1;
#X connect 75 0 65 0;
#X connect 76 0 69 0;
#X connect 77 0 71 0;
#X connect 78 0 73 0;
#X connect 79 0 75 0;
#X connect 79 0 76 0;
#X connect 79 0 77 0;
#X connect 79 0 78 0;
#X connect 80 1 66 0;
#X connect 80 2 38 0;
#X connect 81 1 70 0;
#X connect 81 2 36 0;
#X connect 82 1 72 0;
#X connect 82 2 34 0;
#X connect 83 1 74 0;
#X connect 83 2 23 0;
