#N canvas 821 381 982 530 10;
#X obj 164 54 inlet;
#X obj 243 299 route 999;
#X obj 270 270 route 999;
#X obj 297 241 route 999;
#X obj 324 212 route 999;
#X obj 367 299 route 999;
#X obj 394 270 route 999;
#X obj 421 241 route 999;
#X obj 448 212 route 999;
#X obj 243 52 r aux_inst_all;
#X obj 553 42 r current_instruction_length;
#X msg 243 101 set \$1 \$2 \$3 \$4;
#X msg 367 101 \$5 \$6 \$7 \$8 \$9;
#X obj 243 160 unpack f f f f;
#X obj 367 160 unpack f f f f;
#X text 401 81 TIMES;
#X obj 553 143 t f f f f;
#X obj 164 112 t b b;
#X msg 243 130;
#X msg 367 130;
#X obj 294 386 +;
#X obj 375 386 +;
#X obj 348 386 +;
#X obj 321 386 +;
#X obj 589 317 f;
#X obj 572 288 f;
#X obj 555 259 f;
#X obj 538 230 f;
#X obj 37 368 r x_add_master;
#X obj 126 368 r xadd_0;
#X obj 179 368 r xadd_1;
#X obj 232 368 r xadd_2;
#X obj 294 406 s x_add_master_set;
#X obj 321 426 s x_add_0_set;
#X obj 348 446 s x_add_1_set;
#X obj 375 466 s x_add_2_set;
#X obj 418 406 s x_add_speed_all;
#X obj 445 426 s x_add_speed_0;
#X obj 472 446 s x_add_speed_1;
#X obj 499 466 s x_add_speed_2;
#X connect 0 0 17 0;
#X connect 1 1 20 0;
#X connect 2 1 23 0;
#X connect 3 1 22 0;
#X connect 4 1 21 0;
#X connect 5 0 24 0;
#X connect 5 1 36 0;
#X connect 6 0 25 0;
#X connect 6 1 37 0;
#X connect 7 0 26 0;
#X connect 7 1 38 0;
#X connect 8 0 27 0;
#X connect 8 1 39 0;
#X connect 9 0 11 0;
#X connect 9 0 12 0;
#X connect 10 0 16 0;
#X connect 11 0 18 0;
#X connect 12 0 19 0;
#X connect 13 0 1 0;
#X connect 13 1 2 0;
#X connect 13 2 3 0;
#X connect 13 3 4 0;
#X connect 14 0 5 0;
#X connect 14 1 6 0;
#X connect 14 2 7 0;
#X connect 14 3 8 0;
#X connect 16 0 27 1;
#X connect 16 1 26 1;
#X connect 16 2 25 1;
#X connect 16 3 24 1;
#X connect 17 0 18 0;
#X connect 17 1 19 0;
#X connect 18 0 13 0;
#X connect 19 0 14 0;
#X connect 20 0 32 0;
#X connect 21 0 35 0;
#X connect 22 0 34 0;
#X connect 23 0 33 0;
#X connect 24 0 39 0;
#X connect 25 0 38 0;
#X connect 26 0 37 0;
#X connect 27 0 36 0;
#X connect 28 0 20 1;
#X connect 29 0 23 1;
#X connect 30 0 22 1;
#X connect 31 0 21 1;
