#N canvas 133 149 1513 777 10;
#X obj 63 49 r current_instruction;
#X obj 31 20 r start-instruction;
#X msg 63 175 symbol orbit;
#X msg 129 146 set symbol;
#X msg 63 146 add2 \$1;
#X obj 63 117 symbol;
#X obj 31 78 bng 15 250 50 0 empty empty empty 17 7 0 10 -262144 -1
-1;
#X obj 63 78 t a b;
#X obj 63 283 preset_sfgem_reset;
#X obj 177 283 preset_sfgem_threeincenter;
#X msg 63 481 x_add;
#X obj 63 499 preset_sfgem_generic;
#X msg 125 481 spin;
#X msg 187 481 pol_add;
#X msg 312 481 y_add;
#X msg 374 481 orbit;
#X msg 437 481 size;
#X msg 499 481 rot;
#X msg 561 481 phase;
#X msg 63 567 x_add;
#X msg 132 567 spin;
#X msg 202 567 pol_add;
#X msg 341 567 y_add;
#X msg 411 567 orbit;
#X msg 481 567 size;
#X msg 550 567 rot;
#X msg 620 567 phase;
#X obj 63 585 preset_sfgem_genericplus;
#X obj 221 18 inlet;
#X obj 196 61 t b a;
#X msg 272 567 cart_mult;
#X msg 250 481 cart_mult;
#X text 845 393 Lower Left;
#X text 843 415 Upper Middle;
#X text 844 435 Lower Right;
#X obj 256 352 t b b b;
#X obj 159 352 t b b b;
#X obj 449 352 t b b b;
#X obj 352 352 t b b b;
#X obj 63 352 t b b b;
#X msg 72 415 0 0;
#X msg 102 373 0 0;
#X msg 82 394 0 0;
#X msg 198 373 -0.867 0.5;
#X msg 178 394 0 -1;
#X msg 159 415 0.867 0.5;
#X msg 256 415 0.867 -0.5;
#X msg 275 394 0 1;
#X msg 295 373 -0.867 -0.5;
#X msg 352 415 1 0;
#X msg 371 394 0 0;
#X msg 391 373 -1 0;
#X msg 449 415 0 -1;
#X msg 468 394 0 0;
#X msg 488 373 0 1;
#X obj 533 391 s x_y_absolute-2-receive;
#X obj 533 412 s x_y_absolute-1-receive;
#X obj 533 433 s x_y_absolute-0-receive;
#X obj 694 391 s x_y_absolute-5-receive;
#X obj 694 412 s x_y_absolute-4-receive;
#X obj 694 433 s x_y_absolute-3-receive;
#X obj 1370 225 r aux_inst_0;
#X obj 272 243 f;
#X obj 272 263 s noise_onoff;
#X obj 377 243 f;
#X obj 482 243 f;
#X obj 377 263 s dsp_onoff;
#X obj 586 243 f;
#X obj 482 263 s staytime;
#X obj 691 243 f;
#X obj 816 243 f;
#X obj 901 243 f;
#X obj 901 263 s liner_exp_rec;
#X obj 816 263 s amp_exp;
#X obj 586 263 s swapper_rec;
#X obj 63 634 sel x_add_maxmin spin_maxmin pol_add_maxmin cart_mult_maxmin
y_add_maxmin orbit_maxmin size_maxmin rot_maxmin phase_maxmin, f 124
;
#X obj 63 738 preset_sfgem_pulser;
#X msg 63 720 x_add;
#X msg 142 720 spin;
#X msg 221 720 pol_add;
#X msg 379 720 y_add;
#X msg 458 720 orbit;
#X msg 537 720 size;
#X msg 616 720 rot;
#X msg 695 720 phase;
#X msg 300 720 cart_mult;
#X obj 63 701 sel x_add_pulse spin_pulse pol_add_pulse cart_mult_pulse
y_add_pulse orbit_pulse size_pulse rot_pulse phase_pulse, f 119;
#X obj 63 462 sel x_add spin pol_add cart_mult y_add orbit size rot
phase, f 94;
#X obj 691 263 s mirror_on_off_rec;
#X text 815 635 Set the maxima and minima for random values.;
#X obj 63 652 preset_sfgem_random_maxmins, f 110;
#X obj 1005 263 preset_sfgem_freeze_orbit;
#X obj 63 332 sel center face triangle horizontal vertical x_y_absolute_0
x_y_absolute_1 x_y_absolute_2, f 129;
#X obj 948 368 f;
#X obj 981 368 f;
#X obj 1349 350 r aux_inst_0;
#X obj 1429 350 r aux_inst_1;
#X obj 948 389 pack;
#X obj 896 350 t b b;
#X obj 948 410 s x_y_absolute-0-receive;
#X obj 1108 368 f;
#X obj 1141 368 f;
#X obj 1108 389 pack;
#X obj 1056 350 t b b;
#X obj 1108 410 s x_y_absolute-1-receive;
#X obj 1268 368 f;
#X obj 1301 368 f;
#X obj 1268 389 pack;
#X obj 1216 350 t b b;
#X obj 1268 410 s x_y_absolute-2-receive;
#X obj 63 548 sel x_add_plus spin_plus pol_add_plus cart_mult_plus
y_add_plus orbit_plus size_plus rot_plus phase_plus, f 105;
#X obj 1164 263 s reset_all_tarers;
#X obj 63 214 sel reset threeincenter noise dsp staytime swap mirror
amp_exp liner_exp freeze_orbit reset_all_tarers reset_liner_memory
, f 210;
#X obj 1287 263 s reset_liner_memory;
#X obj 814 719 print FUNCTION NOT FOUND:;
#X connect 0 0 7 0;
#X connect 1 0 6 0;
#X connect 2 0 112 0;
#X connect 3 0 2 0;
#X connect 4 0 2 0;
#X connect 5 0 4 0;
#X connect 6 0 2 0;
#X connect 7 0 5 0;
#X connect 7 1 3 0;
#X connect 10 0 11 0;
#X connect 12 0 11 0;
#X connect 13 0 11 0;
#X connect 14 0 11 0;
#X connect 15 0 11 0;
#X connect 16 0 11 0;
#X connect 17 0 11 0;
#X connect 18 0 11 0;
#X connect 19 0 27 0;
#X connect 20 0 27 0;
#X connect 21 0 27 0;
#X connect 22 0 27 0;
#X connect 23 0 27 0;
#X connect 24 0 27 0;
#X connect 25 0 27 0;
#X connect 26 0 27 0;
#X connect 28 0 29 0;
#X connect 29 0 6 0;
#X connect 29 1 7 0;
#X connect 30 0 27 0;
#X connect 31 0 11 0;
#X connect 35 0 46 0;
#X connect 35 1 47 0;
#X connect 35 2 48 0;
#X connect 36 0 45 0;
#X connect 36 1 44 0;
#X connect 36 2 43 0;
#X connect 37 0 52 0;
#X connect 37 1 53 0;
#X connect 37 2 54 0;
#X connect 38 0 49 0;
#X connect 38 1 50 0;
#X connect 38 2 51 0;
#X connect 39 0 40 0;
#X connect 39 1 42 0;
#X connect 39 2 41 0;
#X connect 40 0 57 0;
#X connect 40 0 60 0;
#X connect 41 0 55 0;
#X connect 41 0 58 0;
#X connect 42 0 56 0;
#X connect 42 0 59 0;
#X connect 43 0 55 0;
#X connect 43 0 58 0;
#X connect 44 0 56 0;
#X connect 44 0 59 0;
#X connect 45 0 57 0;
#X connect 45 0 60 0;
#X connect 46 0 57 0;
#X connect 46 0 60 0;
#X connect 47 0 56 0;
#X connect 47 0 59 0;
#X connect 48 0 55 0;
#X connect 48 0 58 0;
#X connect 49 0 57 0;
#X connect 49 0 60 0;
#X connect 50 0 56 0;
#X connect 50 0 59 0;
#X connect 51 0 55 0;
#X connect 51 0 58 0;
#X connect 52 0 57 0;
#X connect 52 0 60 0;
#X connect 53 0 56 0;
#X connect 53 0 59 0;
#X connect 54 0 55 0;
#X connect 54 0 58 0;
#X connect 61 0 62 1;
#X connect 61 0 64 1;
#X connect 61 0 65 1;
#X connect 61 0 67 1;
#X connect 61 0 69 1;
#X connect 61 0 70 1;
#X connect 61 0 71 1;
#X connect 62 0 63 0;
#X connect 64 0 66 0;
#X connect 65 0 68 0;
#X connect 67 0 74 0;
#X connect 69 0 88 0;
#X connect 70 0 73 0;
#X connect 71 0 72 0;
#X connect 75 0 90 0;
#X connect 75 1 90 1;
#X connect 75 2 90 2;
#X connect 75 3 90 3;
#X connect 75 4 90 4;
#X connect 75 5 90 5;
#X connect 75 6 90 6;
#X connect 75 7 90 7;
#X connect 75 8 90 8;
#X connect 75 9 86 0;
#X connect 77 0 76 0;
#X connect 78 0 76 0;
#X connect 79 0 76 0;
#X connect 80 0 76 0;
#X connect 81 0 76 0;
#X connect 82 0 76 0;
#X connect 83 0 76 0;
#X connect 84 0 76 0;
#X connect 85 0 76 0;
#X connect 86 0 77 0;
#X connect 86 1 78 0;
#X connect 86 2 79 0;
#X connect 86 3 85 0;
#X connect 86 4 80 0;
#X connect 86 5 81 0;
#X connect 86 6 82 0;
#X connect 86 7 83 0;
#X connect 86 8 84 0;
#X connect 86 9 114 0;
#X connect 87 0 10 0;
#X connect 87 1 12 0;
#X connect 87 2 13 0;
#X connect 87 3 31 0;
#X connect 87 4 14 0;
#X connect 87 5 15 0;
#X connect 87 6 16 0;
#X connect 87 7 17 0;
#X connect 87 8 18 0;
#X connect 87 9 110 0;
#X connect 92 0 39 0;
#X connect 92 1 36 0;
#X connect 92 2 35 0;
#X connect 92 3 38 0;
#X connect 92 4 37 0;
#X connect 92 5 98 0;
#X connect 92 6 103 0;
#X connect 92 7 108 0;
#X connect 92 8 87 0;
#X connect 93 0 97 0;
#X connect 94 0 97 1;
#X connect 95 0 93 1;
#X connect 95 0 100 1;
#X connect 95 0 105 1;
#X connect 96 0 94 1;
#X connect 96 0 101 1;
#X connect 96 0 106 1;
#X connect 97 0 99 0;
#X connect 98 0 93 0;
#X connect 98 1 94 0;
#X connect 100 0 102 0;
#X connect 101 0 102 1;
#X connect 102 0 104 0;
#X connect 103 0 100 0;
#X connect 103 1 101 0;
#X connect 105 0 107 0;
#X connect 106 0 107 1;
#X connect 107 0 109 0;
#X connect 108 0 105 0;
#X connect 108 1 106 0;
#X connect 110 0 19 0;
#X connect 110 1 20 0;
#X connect 110 2 21 0;
#X connect 110 3 30 0;
#X connect 110 4 22 0;
#X connect 110 5 23 0;
#X connect 110 6 24 0;
#X connect 110 7 25 0;
#X connect 110 8 26 0;
#X connect 110 9 75 0;
#X connect 112 0 8 0;
#X connect 112 1 9 0;
#X connect 112 2 62 0;
#X connect 112 3 64 0;
#X connect 112 4 65 0;
#X connect 112 5 67 0;
#X connect 112 6 69 0;
#X connect 112 7 70 0;
#X connect 112 8 71 0;
#X connect 112 9 91 0;
#X connect 112 10 111 0;
#X connect 112 11 113 0;
#X connect 112 12 92 0;
