#N canvas 740 480 732 300 10;
#X obj 22 44 inlet;
#X obj 62 44 inlet;
#X obj 102 44 inlet;
#X obj 142 44 inlet;
#X obj 182 44 inlet;
#X obj 222 44 inlet;
#X obj 262 44 inlet;
#X obj 302 44 inlet;
#X obj 342 44 inlet;
#X obj 382 44 inlet;
#X obj 422 44 inlet;
#X obj 462 44 inlet;
#X obj 502 44 inlet;
#X obj 22 154 s inst_out_0;
#X obj 62 134 s inst_out_1;
#X obj 102 114 s inst_out_2;
#X obj 142 94 s inst_out_3;
#X obj 182 74 s inst_out_4;
#X obj 222 153 s inst_out_5;
#X obj 262 133 s inst_out_6;
#X obj 302 113 s inst_out_7;
#X obj 342 93 s inst_out_8;
#X obj 382 142 s inst_out_9;
#X obj 422 122 s inst_out_10;
#X obj 462 102 s inst_out_11;
#X obj 502 82 s inst_out_12;
#X connect 0 0 13 0;
#X connect 1 0 14 0;
#X connect 2 0 15 0;
#X connect 3 0 16 0;
#X connect 4 0 17 0;
#X connect 5 0 18 0;
#X connect 6 0 19 0;
#X connect 7 0 20 0;
#X connect 8 0 21 0;
#X connect 9 0 22 0;
#X connect 10 0 23 0;
#X connect 11 0 24 0;
#X connect 12 0 25 0;
