#N canvas 67 119 1029 645 10;
#X obj 24 44 inlet;
#X obj 161 42 r aux_inst_all;
#X obj 741 32 r current_instruction_length;
#X msg 161 91 set \$1 \$2 \$3 \$4;
#X obj 161 150 unpack f f f f;
#X obj 435 150 unpack f f f f;
#X text 469 71 TIMES;
#X msg 161 120 222 999 999 999;
#X msg 435 120 333 999 999 999;
#X obj 741 133 t f f f f;
#X obj 777 367 f;
#X obj 760 318 f;
#X obj 743 269 f;
#X obj 726 220 f;
#X obj 24 102 t b b a;
#X obj 63 462 symbol;
#X msg 63 486 \$1_master_set;
#X obj 254 504 s;
#X msg 63 506 \$1_0_set;
#X obj 281 524 s;
#X msg 63 526 \$1_1_set;
#X obj 308 544 s;
#X msg 63 546 \$1_2_set;
#X obj 335 564 s;
#X msg 386 506 \$1_speed_all;
#X obj 528 524 s;
#X obj 386 480 t a;
#X msg 386 526 \$1_speed_0;
#X obj 153 486 symbol;
#X obj 153 506 symbol;
#X obj 153 526 symbol;
#X obj 153 546 symbol;
#X obj 474 506 symbol;
#X obj 474 526 symbol;
#X obj 474 546 symbol;
#X obj 474 566 symbol;
#X obj 555 544 s;
#X msg 386 546 \$1_speed_1;
#X obj 582 564 s;
#X msg 386 566 \$1_speed_2;
#X msg 435 91 set \$5 \$6 \$7 \$8;
#X obj 161 370 randomer_sfgem;
#X obj 242 202 route random 999;
#X obj 215 251 route random 999;
#X obj 188 300 route random 999;
#X obj 161 349 route random 999;
#X obj 188 320 randomer_sfgem;
#X obj 215 271 randomer_sfgem;
#X obj 242 222 randomer_sfgem;
#X obj 369 120 t a;
#X obj 609 584 s;
#X obj 516 222 randomer_sfgem;
#X obj 516 202 route random 999;
#X obj 489 271 randomer_sfgem;
#X obj 489 251 route random 999;
#X obj 462 300 route random 999;
#X obj 435 349 route random 999;
#X text 747 58 If no time length given \, no time \; If 999 given \,
current_instruction_length \; is used.;
#X obj 462 320 randomer_sfgem;
#X obj 435 369 randomer_sfgem;
#X obj 643 120 t a;
#X connect 0 0 14 0;
#X connect 1 0 3 0;
#X connect 1 0 40 0;
#X connect 2 0 9 0;
#X connect 3 0 7 0;
#X connect 4 0 45 0;
#X connect 4 1 44 0;
#X connect 4 2 43 0;
#X connect 4 3 42 0;
#X connect 5 0 56 0;
#X connect 5 1 55 0;
#X connect 5 2 54 0;
#X connect 5 3 52 0;
#X connect 7 0 4 0;
#X connect 8 0 5 0;
#X connect 9 0 13 1;
#X connect 9 1 12 1;
#X connect 9 2 11 1;
#X connect 9 3 10 1;
#X connect 10 0 50 0;
#X connect 11 0 38 0;
#X connect 12 0 36 0;
#X connect 13 0 25 0;
#X connect 14 0 7 0;
#X connect 14 1 8 0;
#X connect 14 2 15 0;
#X connect 14 2 49 0;
#X connect 14 2 60 0;
#X connect 15 0 16 0;
#X connect 15 0 18 0;
#X connect 15 0 20 0;
#X connect 15 0 22 0;
#X connect 15 0 26 0;
#X connect 16 0 28 0;
#X connect 18 0 29 0;
#X connect 20 0 30 0;
#X connect 22 0 31 0;
#X connect 24 0 32 0;
#X connect 26 0 24 0;
#X connect 26 0 27 0;
#X connect 26 0 39 0;
#X connect 27 0 33 0;
#X connect 28 0 17 1;
#X connect 29 0 19 1;
#X connect 30 0 21 1;
#X connect 31 0 23 1;
#X connect 32 0 25 1;
#X connect 33 0 36 1;
#X connect 34 0 38 1;
#X connect 35 0 50 1;
#X connect 37 0 34 0;
#X connect 39 0 35 0;
#X connect 40 0 8 0;
#X connect 41 0 17 0;
#X connect 42 0 48 0;
#X connect 42 2 23 0;
#X connect 43 0 47 0;
#X connect 43 2 21 0;
#X connect 44 0 46 0;
#X connect 44 2 19 0;
#X connect 45 0 41 0;
#X connect 45 2 17 0;
#X connect 46 0 19 0;
#X connect 47 0 21 0;
#X connect 48 0 23 0;
#X connect 49 0 48 1;
#X connect 49 0 47 1;
#X connect 49 0 46 1;
#X connect 49 0 41 1;
#X connect 51 0 50 0;
#X connect 52 0 51 0;
#X connect 52 1 13 0;
#X connect 52 2 50 0;
#X connect 53 0 38 0;
#X connect 54 0 53 0;
#X connect 54 1 12 0;
#X connect 54 2 38 0;
#X connect 55 0 58 0;
#X connect 55 1 11 0;
#X connect 55 2 36 0;
#X connect 56 0 59 0;
#X connect 56 1 10 0;
#X connect 56 2 25 0;
#X connect 58 0 36 0;
#X connect 59 0 25 0;
#X connect 60 0 51 1;
#X connect 60 0 53 1;
#X connect 60 0 58 1;
#X connect 60 0 59 1;
