#N canvas 466 264 1343 722 10;
#X obj 257 12 r current_instruction_length;
#X obj 111 203 metro;
#X obj 242 90 del;
#X obj 49 22 inlet;
#X obj 111 177 tgl 15 0 empty empty empty 17 7 0 10 -262144 -1 -1 0
1;
#X obj 487 573 s aux_inst_0;
#X obj 568 573 s aux_inst_1;
#X obj 649 573 s aux_inst_2;
#X obj 730 573 s aux_inst_3;
#X obj 76 594 s current_instruction;
#X obj 320 95 route 999;
#X obj 111 148 spigot;
#X msg 320 130 0;
#X obj 567 527 unpack f f f f;
#X msg 567 504 999 999 999 999;
#X obj 468 486 t b b b;
#X msg 487 550 666;
#X msg 49 471 set \$1;
#X obj 49 54 t a b;
#X msg 49 504;
#X obj 111 293 metro;
#X obj 111 267 tgl 15 0 empty empty empty 17 7 0 10 -262144 -1 -1 0
1;
#X obj 401 185 route 999;
#X obj 111 238 spigot;
#X msg 401 220 0;
#X obj 111 203 metro;
#X obj 111 177 tgl 15 0 empty empty empty 17 7 0 10 -262144 -1 -1 0
1;
#X obj 320 95 route 999;
#X obj 111 148 spigot;
#X msg 320 130 0;
#X obj 111 378 metro;
#X obj 111 352 tgl 15 0 empty empty empty 17 7 0 10 -262144 -1 -1 0
1;
#X obj 482 305 route 999;
#X obj 111 323 spigot;
#X msg 482 340 0;
#X obj 111 468 metro;
#X obj 111 442 tgl 15 0 empty empty empty 17 7 0 10 -262144 -1 -1 0
1;
#X obj 563 395 route 999;
#X obj 111 413 spigot;
#X msg 563 430 0;
#X obj 111 378 metro;
#X obj 111 352 tgl 15 0 empty empty empty 17 7 0 10 -262144 -1 -1 0
1;
#X obj 482 305 route 999;
#X obj 111 323 spigot;
#X msg 482 340 0;
#X obj 549 486 t b b b;
#X obj 630 486 t b b b;
#X obj 711 486 t b b b;
#X msg 568 550 666;
#X obj 49 615 s start-instruction;
#X msg 649 550 666;
#X msg 730 550 666;
#X obj 111 72 t b b;
#X obj 49 543 t b a;
#X msg 242 159 0;
#X obj 320 37 r aux_inst_all;
#X text 507 16 - Metro needs rate-time variance control \; -;
#X obj 320 66 unpack f f f f, f 41;
#X obj 166 471 bng 15 250 50 0 empty empty empty 17 7 0 10 -262144
-1 -1;
#X obj 202 471 bng 15 250 50 0 empty empty empty 17 7 0 10 -262144
-1 -1;
#X obj 238 471 bng 15 250 50 0 empty empty empty 17 7 0 10 -262144
-1 -1;
#X obj 567 627 unpack f f f f;
#X msg 567 604 999 999 999 999;
#X msg 487 650 666;
#X msg 568 650 666;
#X msg 649 650 666;
#X msg 730 650 666;
#X obj 487 673 s aux_inst_4;
#X obj 568 673 s aux_inst_5;
#X obj 649 673 s aux_inst_6;
#X obj 730 673 s aux_inst_7;
#X connect 0 0 2 1;
#X connect 1 0 60 0;
#X connect 2 0 54 0;
#X connect 3 0 18 0;
#X connect 4 0 1 0;
#X connect 10 0 12 0;
#X connect 10 1 11 1;
#X connect 10 1 1 1;
#X connect 11 0 4 0;
#X connect 12 0 11 1;
#X connect 13 0 5 0;
#X connect 13 1 6 0;
#X connect 13 2 7 0;
#X connect 13 3 8 0;
#X connect 14 0 13 0;
#X connect 15 0 19 0;
#X connect 15 1 16 0;
#X connect 15 1 63 0;
#X connect 15 2 14 0;
#X connect 15 2 62 0;
#X connect 16 0 5 0;
#X connect 17 0 19 0;
#X connect 18 0 17 0;
#X connect 18 1 52 0;
#X connect 19 0 53 0;
#X connect 20 0 59 0;
#X connect 21 0 20 0;
#X connect 22 0 24 0;
#X connect 22 1 23 1;
#X connect 22 1 20 1;
#X connect 23 0 21 0;
#X connect 24 0 23 1;
#X connect 26 0 25 0;
#X connect 27 0 29 0;
#X connect 27 1 28 1;
#X connect 27 1 25 1;
#X connect 28 0 26 0;
#X connect 29 0 28 1;
#X connect 30 0 58 0;
#X connect 31 0 30 0;
#X connect 32 0 34 0;
#X connect 32 1 33 1;
#X connect 32 1 30 1;
#X connect 33 0 31 0;
#X connect 34 0 33 1;
#X connect 35 0 47 0;
#X connect 36 0 35 0;
#X connect 37 0 39 0;
#X connect 37 1 38 1;
#X connect 37 1 35 1;
#X connect 38 0 36 0;
#X connect 39 0 38 1;
#X connect 41 0 40 0;
#X connect 42 0 44 0;
#X connect 42 1 43 1;
#X connect 42 1 40 1;
#X connect 43 0 41 0;
#X connect 44 0 43 1;
#X connect 45 0 19 0;
#X connect 45 1 48 0;
#X connect 45 1 64 0;
#X connect 45 2 14 0;
#X connect 45 2 62 0;
#X connect 46 0 19 0;
#X connect 46 1 50 0;
#X connect 46 1 65 0;
#X connect 46 2 14 0;
#X connect 46 2 62 0;
#X connect 47 0 19 0;
#X connect 47 1 51 0;
#X connect 47 1 66 0;
#X connect 47 2 14 0;
#X connect 47 2 62 0;
#X connect 48 0 6 0;
#X connect 50 0 7 0;
#X connect 51 0 8 0;
#X connect 52 0 11 0;
#X connect 52 0 23 0;
#X connect 52 0 33 0;
#X connect 52 0 38 0;
#X connect 52 1 2 0;
#X connect 53 0 49 0;
#X connect 53 1 9 0;
#X connect 54 0 4 0;
#X connect 54 0 21 0;
#X connect 54 0 31 0;
#X connect 54 0 36 0;
#X connect 55 0 57 0;
#X connect 57 0 10 0;
#X connect 57 1 22 0;
#X connect 57 2 32 0;
#X connect 57 3 37 0;
#X connect 58 0 46 0;
#X connect 59 0 45 0;
#X connect 60 0 15 0;
#X connect 61 0 67 0;
#X connect 61 1 68 0;
#X connect 61 2 69 0;
#X connect 61 3 70 0;
#X connect 62 0 61 0;
#X connect 63 0 67 0;
#X connect 64 0 68 0;
#X connect 65 0 69 0;
#X connect 66 0 70 0;
