#N canvas 483 457 1179 573 10;
#X obj 132 376 f;
#X obj 165 376 f;
#X obj 705 34 r aux_inst_0;
#X obj 735 63 r aux_inst_1;
#X obj 132 413 pack;
#X obj 132 434 s x_y_absolute-0-receive;
#X obj 410 373 f;
#X obj 443 373 f;
#X obj 410 410 pack;
#X obj 410 431 s x_y_absolute-1-receive;
#X obj 690 373 f;
#X obj 720 373 f;
#X obj 690 410 pack;
#X obj 690 431 s x_y_absolute-2-receive;
#X obj 768 92 r current_instruction_length;
#X obj 198 376 f;
#X obj 475 373 f;
#X obj 753 373 f;
#X obj 909 225 t b b b;
#X obj 198 405 s x_y_absolute-0-time-receive;
#X obj 475 402 s x_y_absolute-1-time-receive;
#X obj 753 402 s x_y_absolute-2-time-receive;
#X obj 692 243 t b b b;
#X obj 410 243 t b b b;
#X obj 133 243 t b b b;
#X obj 909 160 inlet;
#X obj 909 189 bng 15 250 50 0 empty empty empty 17 7 0 10 -262144
-1 -1;
#X obj 359 160 inlet;
#X obj 359 189 bng 15 250 50 0 empty empty empty 17 7 0 10 -262144
-1 -1;
#X obj 249 160 inlet;
#X obj 249 189 bng 15 250 50 0 empty empty empty 17 7 0 10 -262144
-1 -1;
#X obj 99 160 inlet;
#X obj 99 189 bng 15 250 50 0 empty empty empty 17 7 0 10 -262144 -1
-1;
#X connect 0 0 4 0;
#X connect 1 0 4 1;
#X connect 2 0 6 1;
#X connect 2 0 10 1;
#X connect 2 0 0 1;
#X connect 3 0 1 1;
#X connect 3 0 7 1;
#X connect 3 0 11 1;
#X connect 4 0 5 0;
#X connect 6 0 8 0;
#X connect 7 0 8 1;
#X connect 8 0 9 0;
#X connect 10 0 12 0;
#X connect 11 0 12 1;
#X connect 12 0 13 0;
#X connect 14 0 17 1;
#X connect 14 0 16 1;
#X connect 14 0 15 1;
#X connect 15 0 19 0;
#X connect 16 0 20 0;
#X connect 17 0 21 0;
#X connect 18 0 24 0;
#X connect 18 1 23 0;
#X connect 18 2 22 0;
#X connect 22 0 10 0;
#X connect 22 1 11 0;
#X connect 22 2 17 0;
#X connect 23 0 6 0;
#X connect 23 1 7 0;
#X connect 23 2 16 0;
#X connect 24 0 0 0;
#X connect 24 1 1 0;
#X connect 24 2 15 0;
#X connect 25 0 26 0;
#X connect 26 0 18 0;
#X connect 27 0 28 0;
#X connect 28 0 22 0;
#X connect 29 0 30 0;
#X connect 30 0 23 0;
#X connect 31 0 32 0;
#X connect 32 0 24 0;
