#N canvas 91 265 1022 566 10;
#X obj 101 101 cnv 15 488 98 empty empty empty 20 12 0 14 -162280 -66577
0;
#X obj 102 484 s start-instruction;
#X obj 129 455 s current_instruction;
#X obj 102 397 t b b;
#X msg 129 426 reset;
#X obj 102 113 bng 20 250 50 0 empty empty empty 17 7 0 10 -262144
-1 -1;
#X text 127 115 RESET;
#X obj 102 144 bng 20 250 50 0 empty empty empty 17 7 0 10 -262144
-1 -1;
#X text 124 146 THREEINCENTER;
#X obj 102 358 s start-instruction;
#X obj 129 329 s current_instruction;
#X obj 102 271 t b b;
#X msg 129 300 threeincenter;
#X obj 102 175 bng 20 250 50 0 empty empty empty 17 7 0 10 -262144
-1 -1;
#X text 124 176 SPIN 360;
#X obj 269 428 s start-instruction;
#X obj 286 399 s current_instruction;
#X obj 303 370 s current_instruction_length;
#X obj 320 341 s aux_inst_all;
#X obj 269 271 t b b b b;
#X msg 320 300 6.282 999 999 999 999 999 999 999;
#X msg 303 321 5000;
#X msg 286 341 spin;
#X connect 3 0 1 0;
#X connect 3 1 4 0;
#X connect 4 0 2 0;
#X connect 5 0 3 0;
#X connect 7 0 11 0;
#X connect 11 0 9 0;
#X connect 11 1 12 0;
#X connect 12 0 10 0;
#X connect 13 0 19 0;
#X connect 19 0 15 0;
#X connect 19 1 22 0;
#X connect 19 2 21 0;
#X connect 19 3 20 0;
#X connect 20 0 18 0;
#X connect 21 0 17 0;
#X connect 22 0 16 0;
#X coords 0 -1 1 1 490 100 2 100 100;
