#N canvas 90 130 971 776 10;
#X obj 106 105 tgl 15 0 empty empty empty 17 7 0 10 -262144 -1 -1 0
1;
#X floatatom 164 127 5 0 0 0 - - -, f 5;
#X obj 106 76 inlet;
#X obj 164 76 inlet;
#X obj 208 76 inlet;
#X obj 258 76 inlet;
#X obj 502 76 inlet;
#X obj 146 336 random 2;
#X obj 146 365 sel 0 1;
#X obj 146 589 f;
#X obj 243 553 max;
#X obj 193 571 min;
#X obj 225 514 +;
#X obj 146 496 t b f;
#X obj 227 478 * -1;
#X obj 193 610 outlet;
#X obj 327 76 inlet;
#X obj 407 76 inlet;
#X obj 297 238 f;
#X obj 237 120 sel 0;
#X obj 297 474 t f b;
#X msg 324 496 0;
#X obj 146 390 random 1000;
#X obj 227 390 random 1000;
#X obj 146 412 / 1000;
#X obj 227 412 / 1000;
#X obj 407 416 / 2;
#X obj 146 434 *;
#X obj 327 438 t f;
#X obj 146 456 +;
#X obj 227 434 *;
#X obj 227 456 +;
#X obj 146 165 random;
#X floatatom 146 231 5 0 0 0 - - -, f 5;
#X obj 109 230 bng 15 250 50 0 empty empty empty 17 7 0 10 -262144
-1 -1;
#X msg 237 289 stop;
#X obj 146 252 t b f;
#X obj 464 299 outlet;
#X obj 146 209 +;
#X obj 164 187 / 2;
#X obj 176 281 * 1.1;
#X text 102 56 ON/OFF;
#X text 166 56 RATE;
#X text 212 56 MAX;
#X text 261 56 MIN;
#X text 306 56 LEAP CENTER;
#X text 394 56 LEAP WIDTH;
#X text 482 56 RESET VALUE;
#X text 441 320 CURRENT DELAY;
#X text 171 629 CURRENT VALUE;
#X floatatom 507 168 5 0 0 0 - - -, f 5;
#X obj 146 307 del 100;
#X connect 0 0 19 0;
#X connect 1 0 32 1;
#X connect 1 0 39 0;
#X connect 2 0 0 0;
#X connect 3 0 1 0;
#X connect 4 0 11 1;
#X connect 5 0 10 1;
#X connect 6 0 18 1;
#X connect 6 0 50 0;
#X connect 7 0 8 0;
#X connect 8 0 22 0;
#X connect 8 1 23 0;
#X connect 9 0 12 0;
#X connect 10 0 11 0;
#X connect 11 0 9 1;
#X connect 11 0 15 0;
#X connect 12 0 10 0;
#X connect 13 0 9 0;
#X connect 13 1 12 1;
#X connect 14 0 13 0;
#X connect 16 0 28 0;
#X connect 17 0 26 0;
#X connect 18 0 20 0;
#X connect 19 0 18 0;
#X connect 19 0 35 0;
#X connect 19 1 51 0;
#X connect 20 0 9 0;
#X connect 20 1 21 0;
#X connect 21 0 12 1;
#X connect 22 0 24 0;
#X connect 23 0 25 0;
#X connect 24 0 27 0;
#X connect 25 0 30 0;
#X connect 26 0 27 1;
#X connect 26 0 30 1;
#X connect 27 0 29 0;
#X connect 28 0 29 1;
#X connect 28 0 31 1;
#X connect 29 0 13 0;
#X connect 30 0 31 0;
#X connect 31 0 14 0;
#X connect 32 0 38 0;
#X connect 33 0 36 0;
#X connect 34 0 32 0;
#X connect 35 0 51 0;
#X connect 36 0 51 0;
#X connect 36 1 37 0;
#X connect 36 1 40 0;
#X connect 38 0 33 0;
#X connect 39 0 38 1;
#X connect 40 0 51 1;
#X connect 51 0 7 0;
#X connect 51 0 34 0;
