#N canvas 1026 227 802 525 10;
#X obj 141 159 value;
#X msg 168 109 \$1_random_max;
#X msg 222 198 \$1_random_min;
#X obj 181 258 value;
#X obj 168 80 symbol;
#X obj 168 137 symbol;
#X obj 136 135 bng 15 250 50 0 empty empty empty 17 7 0 10 -262144
-1 -1;
#X obj 222 170 symbol;
#X obj 222 227 symbol;
#X obj 177 235 bng 15 250 50 0 empty empty empty 17 7 0 10 -262144
-1 -1;
#X floatatom 48 340 5 0 0 0 - - -, f 5;
#X obj 48 285 bng 15 250 50 0 empty empty empty 17 7 0 10 -262144 -1
-1;
#X obj 48 311 random 1000;
#X floatatom 141 280 5 0 0 0 - - -, f 5;
#X floatatom 181 308 5 0 0 0 - - -, f 5;
#X obj 141 364 -;
#X obj 100 398 *;
#X obj 50 364 / 1000;
#X floatatom 153 442 5 0 0 0 - - -, f 5;
#X obj 153 413 +;
#X obj 136 14 inlet;
#X obj 48 105 inlet;
#X obj 136 43 t b b a;
#X obj 153 470 outlet;
#X connect 0 0 13 0;
#X connect 1 0 5 0;
#X connect 2 0 8 0;
#X connect 3 0 14 0;
#X connect 4 0 1 0;
#X connect 5 0 0 1;
#X connect 6 0 0 0;
#X connect 7 0 2 0;
#X connect 8 0 3 1;
#X connect 9 0 3 0;
#X connect 10 0 17 0;
#X connect 11 0 12 0;
#X connect 12 0 10 0;
#X connect 13 0 15 0;
#X connect 14 0 15 1;
#X connect 14 0 19 1;
#X connect 15 0 16 1;
#X connect 16 0 19 0;
#X connect 17 0 16 0;
#X connect 18 0 23 0;
#X connect 19 0 18 0;
#X connect 20 0 22 0;
#X connect 21 0 11 0;
#X connect 22 0 6 0;
#X connect 22 1 9 0;
#X connect 22 2 4 0;
#X connect 22 2 7 0;
