#N canvas 154 304 971 776 10;
#X obj 146 119 tgl 15 0 empty empty empty 17 7 0 10 -262144 -1 -1 0
1;
#X floatatom 173 141 5 0 0 0 - - -, f 5;
#X obj 146 76 inlet;
#X text 142 56 On/Off;
#X obj 173 101 inlet;
#X obj 317 84 inlet;
#X obj 387 84 inlet;
#X text 321 66 Max;
#X text 392 66 Min;
#X obj 642 86 inlet;
#X text 622 67 reset value;
#X obj 146 210 random 2;
#X obj 146 239 sel 0 1;
#X obj 146 452 f;
#X obj 193 486 max;
#X obj 193 515 min;
#X obj 189 452 +;
#X obj 146 413 t b f;
#X obj 227 395 * -1;
#X text 188 28 rate and reset value;
#X text 227 498 PD'S LABELING ISSUE \, NOT MINE;
#X obj 193 646 outlet;
#X text 186 82 rate;
#X obj 457 84 inlet;
#X obj 537 84 inlet;
#X text 524 65 leap width;
#X obj 627 174 f;
#X obj 627 134 sel 0;
#X obj 627 412 t f b;
#X msg 654 434 0;
#X obj 146 278 random 1000;
#X obj 227 278 random 1000;
#X obj 146 307 / 1000;
#X obj 227 307 / 1000;
#X text 446 66 leap center;
#X obj 537 318 / 2;
#X obj 146 336 *;
#X obj 457 347 t f;
#X obj 146 365 +;
#X obj 227 336 *;
#X obj 227 365 +;
#X floatatom 331 299 5 0 0 0 - - -, f 5;
#X obj 49 189 random;
#X floatatom 45 287 5 0 0 0 - - -, f 5;
#X obj 49 162 bng 15 250 50 0 empty empty empty 17 7 0 10 -262144 -1
-1;
#X obj 146 181 del;
#X msg 417 254 stop;
#X obj 45 312 t b f;
#X obj 323 630 outlet;
#X obj 43 255 +;
#X obj 65 226 / 2;
#X obj 69 364 * 1.1;
#X connect 0 0 27 0;
#X connect 1 0 42 1;
#X connect 1 0 50 0;
#X connect 2 0 0 0;
#X connect 4 0 1 0;
#X connect 5 0 15 1;
#X connect 6 0 14 1;
#X connect 9 0 26 1;
#X connect 11 0 12 0;
#X connect 12 0 30 0;
#X connect 12 1 31 0;
#X connect 13 0 16 0;
#X connect 14 0 15 0;
#X connect 15 0 13 1;
#X connect 15 0 21 0;
#X connect 16 0 14 0;
#X connect 17 0 13 0;
#X connect 17 1 16 1;
#X connect 18 0 17 0;
#X connect 23 0 37 0;
#X connect 24 0 35 0;
#X connect 26 0 28 0;
#X connect 27 0 26 0;
#X connect 27 0 46 0;
#X connect 27 1 45 0;
#X connect 28 0 13 0;
#X connect 28 1 29 0;
#X connect 29 0 16 1;
#X connect 30 0 32 0;
#X connect 31 0 33 0;
#X connect 31 0 41 0;
#X connect 32 0 36 0;
#X connect 33 0 39 0;
#X connect 35 0 36 1;
#X connect 35 0 39 1;
#X connect 36 0 38 0;
#X connect 37 0 38 1;
#X connect 37 0 40 1;
#X connect 38 0 17 0;
#X connect 39 0 40 0;
#X connect 40 0 18 0;
#X connect 42 0 49 0;
#X connect 43 0 47 0;
#X connect 44 0 42 0;
#X connect 45 0 11 0;
#X connect 45 0 44 0;
#X connect 46 0 45 0;
#X connect 47 0 45 0;
#X connect 47 1 48 0;
#X connect 47 1 51 0;
#X connect 49 0 43 0;
#X connect 50 0 49 1;
#X connect 51 0 45 1;
