#N canvas 962 355 479 382 10;
#X obj 116 60 inlet;
#X obj 173 60 inlet;
#X obj 56 60 inlet;
#X obj 246 60 inlet;
#X text 53 32 ON/OFF;
#X text 116 32 TIME;
#X text 162 32 LOADBANG;
#X floatatom 114 205 5 0 0 0 - - -, f 5;
#X obj 114 183 liner_sfgem;
#X obj 173 244 f;
#X obj 173 157 tgl 15 0 empty empty empty 17 7 0 10 -262144 -1 -1 0
1;
#X obj 173 214 metro 100;
#X obj 114 226 / 100;
#X obj 164 88 + 500;
#X obj 143 135 pipe;
#X obj 246 165 pack;
#X obj 311 60 inlet;
#X text 303 32 TURN-OFF SPEED;
#X obj 173 273 outlet;
#X text 231 32 RW OUTPUT;
#X connect 0 0 13 0;
#X connect 0 0 15 1;
#X connect 1 0 10 0;
#X connect 2 0 14 0;
#X connect 3 0 15 0;
#X connect 7 0 12 0;
#X connect 8 0 7 0;
#X connect 9 0 18 0;
#X connect 10 0 11 0;
#X connect 11 0 9 0;
#X connect 12 0 9 1;
#X connect 13 0 14 1;
#X connect 14 0 10 0;
#X connect 15 0 8 0;
#X connect 16 0 15 1;
