#N canvas 1446 635 450 300 10;
#X text 173 32 TIME;
#X text 77 32 RW OUTPUT;
#X obj 135 97 pack;
#X floatatom 135 155 5 0 0 0 - - -, f 5;
#X obj 135 126 liner_sfgem;
#X obj 135 183 / 100;
#X obj 135 232 outlet;
#X obj 174 56 inlet;
#X obj 89 56 inlet;
#X connect 2 0 4 0;
#X connect 3 0 5 0;
#X connect 4 0 3 0;
#X connect 5 0 6 0;
#X connect 7 0 2 1;
#X connect 8 0 2 0;
