#N canvas 311 268 942 766 10;
#X obj 155 96 inlet;
#X text 148 75 trigger;
#X text 255 75 max;
#X obj 216 277 random;
#X obj 216 346 / 1000;
#X obj 155 174 until;
#X msg 155 145 4;
#X obj 155 203 bng 15 250 50 0 empty empty empty 17 7 0 10 -262144
-1 -1;
#X obj 155 229 t b b;
#X obj 155 372 f;
#X obj 198 372 + 1;
#X obj 195 435 pack;
#X floatatom 244 526 5 0 0 0 - - -, f 5;
#X floatatom 158 526 5 0 0 0 - - -, f 5;
#X floatatom 201 526 5 0 0 0 - - -, f 5;
#X obj 192 575 pack f f f f;
#X obj 275 659 outlet;
#X obj 103 710 outlet;
#X msg 98 661 set \$1 \$2 \$3 \$4;
#X obj 249 96 inlet;
#X obj 249 145 * 1000;
#X obj 155 404 % 3;
#X obj 195 470 route 2 1 0;
#X obj 244 498 t f b;
#X msg 304 546 -1;
#X obj 216 306 +;
#X obj 249 193 t f f;
#X obj 249 235 * 0.7;
#X obj 304 235 * 0.3;
#X connect 0 0 6 0;
#X connect 3 0 25 0;
#X connect 4 0 11 1;
#X connect 5 0 7 0;
#X connect 6 0 5 0;
#X connect 7 0 8 0;
#X connect 8 0 9 0;
#X connect 8 1 3 0;
#X connect 9 0 10 0;
#X connect 9 0 21 0;
#X connect 10 0 9 1;
#X connect 11 0 22 0;
#X connect 12 0 15 2;
#X connect 13 0 15 0;
#X connect 14 0 15 1;
#X connect 15 0 16 0;
#X connect 15 0 18 0;
#X connect 18 0 17 0;
#X connect 19 0 20 0;
#X connect 20 0 26 0;
#X connect 21 0 11 0;
#X connect 22 0 13 0;
#X connect 22 1 14 0;
#X connect 22 2 23 0;
#X connect 23 0 12 0;
#X connect 23 1 24 0;
#X connect 24 0 15 3;
#X connect 25 0 4 0;
#X connect 26 0 27 0;
#X connect 26 1 28 0;
#X connect 27 0 3 1;
#X connect 28 0 25 1;
