#N canvas 920 445 479 382 10;
#X obj 116 60 inlet;
#X obj 56 60 inlet;
#X obj 246 60 inlet;
#X text 53 32 ON/OFF;
#X text 116 32 TIME;
#X text 162 32 LOADBANG;
#X floatatom 114 225 5 0 0 0 - - -, f 5;
#X obj 114 203 liner_sfgem;
#X obj 99 284 f;
#X obj 114 246 / 100;
#X obj 84 118 + 500;
#X obj 56 159 pipe;
#X obj 246 185 pack;
#X obj 311 60 inlet;
#X text 303 32 TURN-OFF SPEED;
#X obj 99 313 outlet;
#X text 231 32 RW OUTPUT;
#X obj 173 60 loadbang;
#X msg 163 140 1;
#X obj 173 234 metro 100;
#X connect 0 0 10 0;
#X connect 0 0 12 1;
#X connect 1 0 11 0;
#X connect 2 0 12 0;
#X connect 6 0 9 0;
#X connect 7 0 6 0;
#X connect 8 0 15 0;
#X connect 9 0 8 1;
#X connect 10 0 11 1;
#X connect 12 0 7 0;
#X connect 13 0 12 1;
#X connect 17 0 18 0;
#X connect 18 0 19 0;
#X connect 19 0 8 0;
