#N canvas 159 138 863 942 10;
#X obj 54 3 inlet;
#X obj 605 215 outlet;
#X obj 615 149 outlet;
#X obj 61 102 t b b b b b b b b b b b b b, f 67;
#X text 553 78 5 wiggle mod \; 4 wiggle all \; 3 wiggle 0 \; 2 wiggle
1 \; 1 wiggle 2 \;;
#X text 511 159 4 speeds all \; 3 speeds 2 \; 2 speeds 1 \; 1 speeds
2;
#X text 474 219 4 loc speed all \; 3 loc speeds 2 \; 2 loc speeds 1
\; 1 loc speeds 2;
#X obj 595 275 outlet;
#X text 444 279 4 size speed all \; 3 size speeds 2 \; 2 size speeds
1 \; 1 size speeds 2;
#X msg 393 257 -1 -1 -1 -1;
#X msg 360 317 -1 -1 -1 -1;
#X obj 585 335 outlet;
#X text 410 339 4 dist speed all \; 3 dist speeds 2 \; 2 dist speeds
1 \; 1 dist speeds 2;
#X obj 575 395 outlet;
#X msg 327 377 -1 -1 -1 -1;
#X obj 565 455 outlet;
#X msg 293 437 -1 -1 -1 -1;
#X text 376 399 4 spin speed all \; 3 spin speeds 2 \; 2 spin speeds
1 \; 1 spin speeds 2;
#X obj 555 514 outlet;
#X text 383 459 4 size all \; 3 size 2 \; 2 size 1 \; 1 size 2;
#X msg 260 517 1.018 2.206 1.817 1.751;
#X obj 542 574 outlet;
#X text 409 519 4 dist all \; 3 dist 2 \; 2 dist 1 \; 1 dist 2;
#X obj 532 635 outlet;
#X msg 196 638 0.017 1.347 2.334 0.774;
#X text 389 580 4 spin all \; 3 spin 2 \; 2 spin 1 \; 1 spin 2;
#X obj 522 725 outlet;
#X obj 512 761 outlet;
#X obj 502 839 outlet;
#X obj 492 913 outlet;
#X text 186 768 5 bigC amp spd \; 4 bigC stay spd \; 3 bigC fdiff spd
\; 2 bigC freq spd \; 1 bigC size spd \;;
#X text 166 843 5 bigC amp \; 4 bigC stay \; 3 bigC fdiff \; 2 bigC
freq \; 1 bigC size \;;
#X msg 227 577 2.199 0.619 1.039 1.435;
#X msg 426 197 -1 -1 -1 100;
#X msg 94 821 -1 -1 -1 -1 -1;
#X msg 61 895 -1 -1 -1 -1 -1;
#X obj 61 56 metro 120;
#X obj 183 39 del;
#X obj 111 21 t b b;
#X msg 51 31 1;
#X msg 185 62 0;
#X text 171 732 2 trade \; 1 swap;
#X text 232 694 2 stay \; 1 linpol;
#X msg 160 707 0 20000;
#X obj 261 21 r current_instruction_length;
#X msg 460 131 -1 -1 -1 -1 -1;
#X msg 127 743 -1 1;
#X obj 260 496 random_4_sfgem 7;
#X obj 227 556 random_4_sfgem 5;
#X obj 196 617 random_4_sfgem 10;
#X connect 0 0 38 0;
#X connect 3 0 35 0;
#X connect 3 1 34 0;
#X connect 3 2 46 0;
#X connect 3 3 43 0;
#X connect 3 4 49 0;
#X connect 3 5 48 0;
#X connect 3 6 47 0;
#X connect 3 7 16 0;
#X connect 3 8 14 0;
#X connect 3 9 10 0;
#X connect 3 10 9 0;
#X connect 3 11 33 0;
#X connect 3 12 45 0;
#X connect 9 0 7 0;
#X connect 10 0 11 0;
#X connect 14 0 13 0;
#X connect 16 0 15 0;
#X connect 33 0 1 0;
#X connect 34 0 28 0;
#X connect 35 0 29 0;
#X connect 36 0 3 0;
#X connect 37 0 40 0;
#X connect 38 0 39 0;
#X connect 38 1 37 0;
#X connect 39 0 36 0;
#X connect 40 0 36 0;
#X connect 43 0 26 0;
#X connect 44 0 37 1;
#X connect 45 0 2 0;
#X connect 46 0 27 0;
#X connect 47 0 20 0;
#X connect 47 1 18 0;
#X connect 48 0 32 0;
#X connect 48 1 21 0;
#X connect 49 0 24 0;
#X connect 49 1 23 0;
