#N canvas 893 209 774 831 10;
#X obj 231 130 t b b b b b b, f 14;
#X obj 231 31 inlet;
#X obj 231 731 outlet;
#X obj 247 711 outlet;
#X obj 263 691 outlet;
#X obj 279 671 outlet;
#X obj 295 651 outlet;
#X obj 312 631 outlet;
#X text 537 83 1 big circle size speed \; 2 circle distance speed 0
\; 3 circle distance speed 1 \; 4 circle distance speed 2 \; 5 sphere
size speed 0 \; 6 sphere size speed 1 \; 7 sphere size speed 2 \; 8
speed 0 \; 9 speed 1 \; 10 speed 2 \; 11 Speed All \;;
#X text 324 342 TRADER PRESETS: 0 = center \, 1 = face (linear) \,
2 = triangle \, 3 = horizontal \, 4 = vertical \, 5 = face (polar)
\, 6 = triangle (polar).;
#X text 110 429 1 circle distance 0 \; 2 circle distance 1 \; 3 circle
distance 2 \; 4 spin 0 \; 5 spin 1 \; 6 spin 2;
#X msg 247 459 1.5 1.5 1.5 0 0 0;
#X text 401 255 1 rotate back \; 2 rotate forward \; 3 linear/polar
\; 4 stay amount (0 - 400) \; 5 wiggle;
#X text 68 560 1 big size \; 2 big frequency \; 3 big difference (0
- 400) \; 4 big stay amount (0-400) \; 5 big circle amplitude;
#X msg 279 349 3;
#X msg 263 399 1.5 2 0;
#X text 334 391 1 circle size inst (all) \; 2 circle distance inst
(all) \; 3 spin inst (all);
#X msg 312 189 -1 -1 -1 -1 -1 -1 -1 -1 -1 -1 1000;
#X msg 295 289 -1 -1 1 200 -1;
#X msg 231 539 6.8 349 130 200 0.5;
#X connect 0 0 19 0;
#X connect 0 1 11 0;
#X connect 0 2 15 0;
#X connect 0 3 14 0;
#X connect 0 4 18 0;
#X connect 0 5 17 0;
#X connect 1 0 0 0;
#X connect 11 0 3 0;
#X connect 14 0 5 0;
#X connect 15 0 4 0;
#X connect 17 0 7 0;
#X connect 18 0 6 0;
#X connect 19 0 2 0;
