#N canvas 116 110 1405 954 10;
#X obj 61 43 inlet;
#X obj 605 215 outlet;
#X obj 615 149 outlet;
#X obj 61 102 t b b b b b b b b b b b b b, f 67;
#X text 553 78 5 wiggle mod \; 4 wiggle all \; 3 wiggle 0 \; 2 wiggle
1 \; 1 wiggle 2 \;;
#X text 511 159 4 speeds all \; 3 speeds 2 \; 2 speeds 1 \; 1 speeds
2;
#X text 474 219 4 loc speed all \; 3 loc speeds 2 \; 2 loc speeds 1
\; 1 loc speeds 2;
#X obj 595 275 outlet;
#X text 444 279 4 size speed all \; 3 size speeds 2 \; 2 size speeds
1 \; 1 size speeds 2;
#X msg 393 257 -1 -1 -1 -1;
#X msg 360 317 -1 -1 -1 -1;
#X obj 585 335 outlet;
#X text 410 339 4 dist speed all \; 3 dist speeds 2 \; 2 dist speeds
1 \; 1 dist speeds 2;
#X obj 575 395 outlet;
#X msg 327 377 -1 -1 -1 -1;
#X obj 565 455 outlet;
#X msg 293 437 -1 -1 -1 -1;
#X text 376 399 4 spin speed all \; 3 spin speeds 2 \; 2 spin speeds
1 \; 1 spin speeds 2;
#X obj 555 514 outlet;
#X text 383 459 4 size all \; 3 size 2 \; 2 size 1 \; 1 size 2;
#X msg 260 517 3.787 0.499 0.467 0.913;
#X obj 542 574 outlet;
#X text 409 519 4 dist all \; 3 dist 2 \; 2 dist 1 \; 1 dist 2;
#X obj 532 635 outlet;
#X msg 196 638 1.999 1.428 0.853 1.777;
#X text 389 580 4 spin all \; 3 spin 2 \; 2 spin 1 \; 1 spin 2;
#X obj 522 725 outlet;
#X obj 512 761 outlet;
#X obj 502 839 outlet;
#X obj 492 913 outlet;
#X text 186 768 5 bigC amp spd \; 4 bigC stay spd \; 3 bigC fdiff spd
\; 2 bigC freq spd \; 1 bigC size spd \;;
#X text 166 843 5 bigC amp \; 4 bigC stay \; 3 bigC fdiff \; 2 bigC
freq \; 1 bigC size \;;
#X msg 227 577 0.676 1.179 3.416 1.452;
#X msg 94 821 -1 -1 -1 -1 -1;
#X msg 61 895 -1 -1 -1 -1 -1;
#X text 171 732 2 trade \; 1 swap;
#X text 232 694 2 stay \; 1 linpol;
#X msg 460 131 -1 -1 -1 -1 -1;
#X msg 127 743 -1 1;
#X obj 260 496 random_4_sfgem 4;
#X obj 227 556 random_4_sfgem 4;
#X obj 196 617 random_4_sfgem 3;
#X msg 160 707 0 -1;
#X msg 426 197 -1 -1 -1 -1;
#X obj 967 821 s aux_instruction;
#X obj 959 248 statfeed;
#X obj 959 134 bng 15 250 50 0 empty empty empty 17 7 0 10 -262144
-1 -1;
#X obj 959 79 tgl 15 0 empty empty empty 17 7 0 10 -262144 -1 -1 0
1;
#X floatatom 959 277 5 0 0 0 - - -, f 5;
#X obj 959 161 random 999;
#X obj 959 190 / 999;
#X obj 959 105 metro 500;
#X msg 773 543 reset;
#X msg 789 514 expand_random;
#X msg 806 485 stabilize;
#X msg 840 427 contract;
#X msg 856 398 horizontal;
#X msg 873 369 vertical;
#X msg 890 543 triangle;
#X msg 907 514 expand_simple;
#X msg 924 485 scuff;
#X obj 940 676 t a b;
#X obj 967 734 / 999;
#X obj 967 705 random 999;
#X obj 967 763 * 2;
#X obj 967 792 - 1;
#X msg 940 456 variablespin;
#X msg 957 427 variabletrade;
#X obj 957 647 t a b;
#X obj 1021 792 random 7;
#X msg 974 398 variableswap;
#X obj 974 619 t a b;
#X obj 1021 763 random 3;
#X obj 753 90 r current_instruction_length;
#X msg 991 369 linpol;
#X msg 1007 543 mirror_triangle;
#X msg 1024 514 variabledistance;
#X obj 1024 619 t a b;
#X obj 1051 705 random 250;
#X obj 1051 734 / 100;
#X msg 1041 485 variablesize;
#X obj 1041 590 t a b;
#X obj 1068 653 random 300;
#X obj 1068 676 / 100;
#X obj 1108 456 s mirror_on_off;
#X msg 1108 427 0;
#X msg 1125 398 random_single;
#X obj 738 119 del;
#X msg 738 148 0;
#X obj 773 694 s commander_sfgem;
#X obj 1064 70 loadbang;
#X obj 773 334 sel 0 1 2 3 4 5 6 7 8 9 10 11 12 13 14 15 16 17 18 19
20 21, f 62;
#X msg 981 219 21;
#X msg 1014 218 14;
#X msg 823 456 scuff;
#X obj 719 206 s current_instruction_length;
#X msg 719 177 400;
#X obj 719 61 t b b b;
#X connect 0 0 97 0;
#X connect 3 0 34 0;
#X connect 3 1 33 0;
#X connect 3 2 38 0;
#X connect 3 3 42 0;
#X connect 3 4 41 0;
#X connect 3 5 40 0;
#X connect 3 6 39 0;
#X connect 3 7 16 0;
#X connect 3 8 14 0;
#X connect 3 9 10 0;
#X connect 3 10 9 0;
#X connect 3 11 43 0;
#X connect 3 12 37 0;
#X connect 9 0 7 0;
#X connect 10 0 11 0;
#X connect 14 0 13 0;
#X connect 16 0 15 0;
#X connect 33 0 28 0;
#X connect 34 0 29 0;
#X connect 37 0 2 0;
#X connect 38 0 27 0;
#X connect 39 0 20 0;
#X connect 39 1 18 0;
#X connect 40 0 32 0;
#X connect 40 1 21 0;
#X connect 41 0 24 0;
#X connect 41 1 23 0;
#X connect 42 0 26 0;
#X connect 43 0 1 0;
#X connect 45 0 48 0;
#X connect 46 0 49 0;
#X connect 47 0 51 0;
#X connect 48 0 91 0;
#X connect 49 0 50 0;
#X connect 50 0 45 0;
#X connect 51 0 46 0;
#X connect 52 0 89 0;
#X connect 53 0 89 0;
#X connect 54 0 89 0;
#X connect 55 0 89 0;
#X connect 56 0 89 0;
#X connect 57 0 89 0;
#X connect 58 0 89 0;
#X connect 59 0 89 0;
#X connect 60 0 89 0;
#X connect 61 0 89 0;
#X connect 61 1 63 0;
#X connect 62 0 64 0;
#X connect 63 0 62 0;
#X connect 64 0 65 0;
#X connect 65 0 44 0;
#X connect 66 0 61 0;
#X connect 67 0 68 0;
#X connect 68 0 89 0;
#X connect 68 1 69 0;
#X connect 69 0 44 0;
#X connect 70 0 71 0;
#X connect 71 0 89 0;
#X connect 71 1 72 0;
#X connect 72 0 44 0;
#X connect 73 0 87 1;
#X connect 74 0 89 0;
#X connect 75 0 89 0;
#X connect 76 0 77 0;
#X connect 77 0 89 0;
#X connect 77 1 78 0;
#X connect 78 0 79 0;
#X connect 79 0 44 0;
#X connect 80 0 81 0;
#X connect 81 0 89 0;
#X connect 81 1 82 0;
#X connect 82 0 83 0;
#X connect 83 0 44 0;
#X connect 85 0 84 0;
#X connect 86 0 89 0;
#X connect 87 0 88 0;
#X connect 88 0 47 0;
#X connect 90 0 92 0;
#X connect 90 0 93 0;
#X connect 91 0 52 0;
#X connect 91 1 53 0;
#X connect 91 2 54 0;
#X connect 91 3 94 0;
#X connect 91 4 55 0;
#X connect 91 5 56 0;
#X connect 91 6 57 0;
#X connect 91 7 58 0;
#X connect 91 8 59 0;
#X connect 91 9 60 0;
#X connect 91 10 66 0;
#X connect 91 11 67 0;
#X connect 91 12 70 0;
#X connect 91 13 74 0;
#X connect 91 14 75 0;
#X connect 91 15 76 0;
#X connect 91 16 80 0;
#X connect 91 17 41 0;
#X connect 91 18 40 0;
#X connect 91 19 39 0;
#X connect 91 20 85 0;
#X connect 91 21 86 0;
#X connect 92 0 45 1;
#X connect 93 0 45 2;
#X connect 94 0 89 0;
#X connect 96 0 95 0;
#X connect 97 0 96 0;
#X connect 97 1 47 0;
#X connect 97 1 87 0;
