#N canvas 57 192 938 757 10;
#X obj 141 210 pack;
#X obj 182 276 pack;
#X obj 222 348 pack;
#X obj 101 40 r rot_master_set;
#X obj 135 60 r rot_0_set;
#X obj 170 80 r rot_1_set;
#X obj 205 101 r rot_2_set;
#X obj 239 41 r rot_speed_all;
#X obj 274 62 r rot_speed_0;
#X obj 309 82 r rot_speed_1;
#X obj 344 102 r rot_speed_2;
#X obj 141 468 s rot_0;
#X obj 141 488 s rot_3;
#X obj 182 508 s rot_1;
#X obj 182 528 s rot_4;
#X obj 222 548 s rot_2;
#X obj 222 568 s rot_5;
#X obj 263 508 s rot_0_speed_rec;
#X obj 263 528 s rot_3_speed_rec;
#X obj 303 548 s rot_1_speed_rec;
#X obj 303 568 s rot_4_speed_rec;
#X obj 344 588 s rot_2_speed_rec;
#X obj 344 608 s rot_5_speed_rec;
#X obj 101 151 control_numbers_window 999 999 999 999 22;
#X obj 390 236 r rot_tare_0;
#X obj 390 302 r rot_tare_1;
#X obj 390 374 r rot_tare_2;
#X obj 101 579 value rot_master;
#X obj 141 599 value rot_0;
#X obj 182 619 value rot_1;
#X obj 222 639 value rot_2;
#X obj 373 153 value rot_random_max;
#X obj 373 182 value rot_random_min;
#X obj 518 153 value rot_time_random_max;
#X obj 518 182 value rot_time_random_min;
#X obj 141 254 Tarer 0;
#X obj 182 320 Tarer 1;
#X obj 222 392 Tarer 2;
#X obj 731 67 loadbang;
#X obj 731 96 t b b b b;
#X msg 782 135 1000;
#X msg 775 164 100;
#X msg 731 135 360;
#X msg 721 164 -360;
#X obj 141 234 liner_sfgem;
#X obj 182 300 liner_sfgem;
#X obj 222 372 liner_sfgem;
#X obj 347 437 r rot_liner_exponent;
#X obj 348 470 r rot_liner_function;
#X connect 0 0 44 0;
#X connect 1 0 45 0;
#X connect 2 0 46 0;
#X connect 3 0 23 0;
#X connect 4 0 23 1;
#X connect 5 0 23 2;
#X connect 6 0 23 3;
#X connect 7 0 23 4;
#X connect 8 0 23 5;
#X connect 9 0 23 6;
#X connect 10 0 23 7;
#X connect 23 0 27 0;
#X connect 23 1 28 0;
#X connect 23 1 0 0;
#X connect 23 2 29 0;
#X connect 23 2 1 0;
#X connect 23 3 30 0;
#X connect 23 3 2 0;
#X connect 23 4 17 0;
#X connect 23 4 18 0;
#X connect 23 4 0 1;
#X connect 23 5 19 0;
#X connect 23 5 20 0;
#X connect 23 5 1 1;
#X connect 23 6 21 0;
#X connect 23 6 22 0;
#X connect 23 6 2 1;
#X connect 24 0 35 1;
#X connect 25 0 36 1;
#X connect 26 0 37 1;
#X connect 35 0 11 0;
#X connect 35 0 12 0;
#X connect 36 0 13 0;
#X connect 36 0 14 0;
#X connect 37 0 15 0;
#X connect 37 0 16 0;
#X connect 38 0 39 0;
#X connect 39 0 43 0;
#X connect 39 1 42 0;
#X connect 39 2 41 0;
#X connect 39 3 40 0;
#X connect 40 0 33 0;
#X connect 41 0 34 0;
#X connect 42 0 31 0;
#X connect 43 0 32 0;
#X connect 44 0 35 0;
#X connect 44 0 35 0;
#X connect 45 0 36 0;
#X connect 46 0 37 0;
#X connect 47 0 44 3;
#X connect 47 0 45 3;
#X connect 47 0 46 3;
#X connect 48 0 44 2;
#X connect 48 0 45 2;
#X connect 48 0 46 2;
#X coords 0 -1 1 1 252 52 2 100 150;
