#N canvas 67 197 1389 727 10;
#X obj 61 3 inlet;
#X obj 615 139 outlet;
#X obj 61 92 t b b b b b b b b b b b b b, f 67;
#X text 553 68 5 wiggle mod \; 4 wiggle all \; 3 wiggle 0 \; 2 wiggle
1 \; 1 wiggle 2 \;;
#X text 511 149 4 speeds all \; 3 speeds 2 \; 2 speeds 1 \; 1 speeds
2;
#X text 474 209 4 loc speed all \; 3 loc speeds 2 \; 2 loc speeds 1
\; 1 loc speeds 2;
#X obj 595 265 outlet;
#X text 444 269 4 size speed all \; 3 size speeds 2 \; 2 size speeds
1 \; 1 size speeds 2;
#X msg 393 247 -1 -1 -1 -1;
#X msg 360 307 -1 -1 -1 -1;
#X obj 585 325 outlet;
#X text 410 329 4 dist speed all \; 3 dist speeds 2 \; 2 dist speeds
1 \; 1 dist speeds 2;
#X obj 575 385 outlet;
#X msg 327 367 -1 -1 -1 -1;
#X obj 565 445 outlet;
#X msg 293 427 -1 -1 -1 -1;
#X text 376 389 4 spin speed all \; 3 spin speeds 2 \; 2 spin speeds
1 \; 1 spin speeds 2;
#X obj 551 505 outlet;
#X text 343 448 4 size all \; 3 size 2 \; 2 size 1 \; 1 size 2;
#X obj 542 564 outlet;
#X text 389 509 4 dist all \; 3 dist 2 \; 2 dist 1 \; 1 dist 2;
#X obj 532 625 outlet;
#X text 359 570 4 spin all \; 3 spin 2 \; 2 spin 1 \; 1 spin 2;
#X obj 522 665 outlet;
#X obj 512 701 outlet;
#X obj 502 779 outlet;
#X obj 492 853 outlet;
#X text 186 708 5 bigC amp spd \; 4 bigC stay spd \; 3 bigC fdiff spd
\; 2 bigC freq spd \; 1 bigC size spd \;;
#X text 166 783 5 bigC amp \; 4 bigC stay \; 3 bigC fdiff \; 2 bigC
freq \; 1 bigC size \;;
#X msg 94 761 -1 -1 -1 -1 -1;
#X msg 61 835 -1 -1 -1 -1 -1;
#X msg 460 121 -1 -1 -1 -1 -1;
#X text 174 671 2 trade \; 1 swap;
#X text 217 635 2 stay \; 1 lin;
#X obj 608 243 outlet;
#X obj 847 239 r current_instruction_length;
#X obj 832 268 del;
#X obj 805 51 t b b;
#X msg 805 320 1;
#X msg 832 297 0;
#X obj 805 353 s disrupt_rotate_onoff;
#X obj 805 382 s disrupt_scope_onoff;
#X obj 805 411 s disrupt_size_onoff;
#X obj 1024 369 s disrupt_turnoff_speed;
#X obj 1093 134 s disrupt_rotate_values;
#X obj 1093 193 s disrupt_scope_values;
#X obj 1093 252 s disrupt_size_values;
#X obj 61 33 t b b;
#X obj 832 322 t f b;
#X obj 1093 51 t b b b;
#X text 1083 292 time \, max \, min \, center \, width \, reset;
#X msg 1105 479 1000 110 80 2 2 100;
#X msg 863 479 3000 720 0 15 5 0;
#X msg 981 479 2000 57 43 1 4 50;
#X msg 261 487 -1 -1 -1 -1;
#X msg 227 546 -1 -1 -1 -1;
#X msg 196 607 -1 -1 -1 -1;
#X msg 160 647 -1 -1;
#X msg 127 683 -1 -1;
#X msg 1093 99 20 720 500 15 5 0;
#X msg 1112 164 20 60 40 1 4 50;
#X msg 1132 224 20 200 80 2 2 100;
#X msg 1024 340 100;
#X msg 426 187 -1 -1 -1 20;
#X connect 0 0 47 0;
#X connect 2 0 30 0;
#X connect 2 1 29 0;
#X connect 2 2 58 0;
#X connect 2 3 57 0;
#X connect 2 4 56 0;
#X connect 2 5 55 0;
#X connect 2 6 54 0;
#X connect 2 7 15 0;
#X connect 2 8 13 0;
#X connect 2 9 9 0;
#X connect 2 11 63 0;
#X connect 2 12 31 0;
#X connect 8 0 6 0;
#X connect 9 0 10 0;
#X connect 13 0 12 0;
#X connect 15 0 14 0;
#X connect 29 0 25 0;
#X connect 30 0 26 0;
#X connect 31 0 1 0;
#X connect 35 0 36 1;
#X connect 36 0 39 0;
#X connect 37 0 38 0;
#X connect 37 1 36 0;
#X connect 38 0 41 0;
#X connect 38 0 42 0;
#X connect 39 0 48 0;
#X connect 47 0 37 0;
#X connect 47 0 2 0;
#X connect 47 1 49 0;
#X connect 48 0 40 0;
#X connect 48 0 41 0;
#X connect 48 0 42 0;
#X connect 48 1 62 0;
#X connect 49 0 59 0;
#X connect 49 1 60 0;
#X connect 49 2 61 0;
#X connect 54 0 17 0;
#X connect 55 0 19 0;
#X connect 56 0 21 0;
#X connect 57 0 23 0;
#X connect 58 0 24 0;
#X connect 59 0 44 0;
#X connect 60 0 45 0;
#X connect 61 0 46 0;
#X connect 62 0 43 0;
#X connect 63 0 34 0;
