#N canvas 67 89 882 443 10;
#X msg 32 301 destroy \, reset;
#X obj 220 358 outlet;
#X obj 220 319 gemwin;
#X msg 51 256 dimen 1366 768 \, create \, 1;
#X obj 374 325 pix_record;
#X msg 406 274 record \$1;
#X obj 406 250 tgl 15 1 empty empty empty 0 -6 0 8 -262144 -1 -1 0
1;
#X obj 374 207 pix_snap;
#X msg 347 174 snap;
#X obj 347 87 t b a;
#X obj 476 191 t f b;
#X obj 419 97 loadbang;
#X obj 347 61 gemhead -99;
#X obj 220 222 loadbang;
#X obj 431 354 print;
#X floatatom 402 383 5 0 0 0 - - -, f 5;
#X msg 220 280 frame \$1;
#X msg 220 251 40;
#X obj 261 251 r new_frame_rate;
#X msg 419 126 1366 768;
#X msg 503 307 file /home/joshua/Desktop/Statfeeder_SFGEM_video_\$1.avi
;
#X obj 603 76 key;
#X obj 563 30 ctlin;
#X floatatom 563 73 5 0 0 0 - - -, f 5;
#X floatatom 576 52 5 0 0 0 - - -, f 5;
#X obj 563 145 +;
#X obj 563 167 % 1000;
#X obj 563 94 +;
#X obj 563 123 +;
#X obj 603 105 t b f;
#X obj 596 145 f;
#X msg 530 205 seed \$1;
#X obj 503 246 random 10000;
#X obj 476 31 inlet;
#X text 459 11 record video;
#X obj 32 177 inlet;
#X obj 32 206 sel 0 1;
#X connect 0 0 2 0;
#X connect 2 0 1 0;
#X connect 3 0 2 0;
#X connect 4 1 15 0;
#X connect 4 2 14 0;
#X connect 5 0 4 0;
#X connect 6 0 5 0;
#X connect 7 0 4 0;
#X connect 8 0 7 0;
#X connect 9 0 8 0;
#X connect 9 1 7 0;
#X connect 10 0 6 0;
#X connect 10 1 32 0;
#X connect 11 0 19 0;
#X connect 12 0 9 0;
#X connect 13 0 17 0;
#X connect 16 0 2 0;
#X connect 17 0 16 0;
#X connect 18 0 16 0;
#X connect 19 0 7 2;
#X connect 20 0 4 0;
#X connect 21 0 29 0;
#X connect 22 0 23 0;
#X connect 22 1 24 0;
#X connect 23 0 27 0;
#X connect 24 0 27 1;
#X connect 25 0 30 0;
#X connect 25 0 26 0;
#X connect 26 0 31 0;
#X connect 27 0 28 0;
#X connect 28 0 25 0;
#X connect 29 0 28 0;
#X connect 29 1 28 1;
#X connect 30 0 25 1;
#X connect 31 0 32 0;
#X connect 32 0 20 0;
#X connect 33 0 10 0;
#X connect 35 0 36 0;
#X connect 36 0 0 0;
#X connect 36 1 3 0;
