#N canvas 67 267 584 496 10;
#X obj 101 443 s amplitude0;
#X obj 149 463 s amplitude1;
#X obj 198 483 s amplitude2;
#X obj 101 483 s amplitude3;
#X obj 149 503 s amplitude4;
#X obj 198 523 s amplitude5;
#X obj 239 50 r size_speed_all;
#X obj 273 72 r size_speed_0;
#X obj 309 92 r size_speed_1;
#X obj 344 112 r size_speed_2;
#X obj 246 463 s amplitude0_speed_rec;
#X obj 295 483 s amplitude1_speed_rec;
#X obj 344 543 s amplitude2_speed_rec;
#X obj 246 503 s amplitude3_speed_rec;
#X obj 295 523 s amplitude4_speed_rec;
#X obj 344 563 s amplitude5_speed_rec;
#X obj 101 218 pack;
#X obj 149 293 pack;
#X obj 198 359 pack;
#X obj 101 267 Tarer \$1;
#X obj 149 337 Tarer \$1;
#X obj 198 403 Tarer \$1;
#X obj 101 247 liner_sfgem;
#X obj 149 317 liner_sfgem;
#X obj 198 383 liner_sfgem;
#X obj 101 151 control_numbers_window 999 999 999 999 23;
#X obj 101 50 r size_all_set;
#X obj 135 72 r size_0_set;
#X obj 170 92 r size_1_set;
#X obj 205 112 r size_2_set;
#X connect 6 0 25 4;
#X connect 7 0 25 5;
#X connect 8 0 25 6;
#X connect 9 0 25 7;
#X connect 16 0 22 0;
#X connect 17 0 23 0;
#X connect 18 0 24 0;
#X connect 19 0 0 0;
#X connect 19 0 3 0;
#X connect 20 0 1 0;
#X connect 20 0 4 0;
#X connect 21 0 2 0;
#X connect 21 0 5 0;
#X connect 22 0 19 0;
#X connect 22 0 19 0;
#X connect 23 0 20 0;
#X connect 24 0 21 0;
#X connect 25 0 16 0;
#X connect 25 1 17 0;
#X connect 25 2 18 0;
#X connect 25 3 10 0;
#X connect 25 3 13 0;
#X connect 25 3 16 1;
#X connect 25 4 11 0;
#X connect 25 4 14 0;
#X connect 25 4 17 1;
#X connect 25 5 12 0;
#X connect 25 5 15 0;
#X connect 25 5 18 1;
#X connect 26 0 25 0;
#X connect 27 0 25 1;
#X connect 28 0 25 2;
#X connect 29 0 25 3;
#X coords 0 -1 1 1 252 52 2 100 150;
