#N canvas 430 104 874 690 10;
#X obj 141 393 s amplitude0;
#X obj 182 433 s amplitude1;
#X obj 222 473 s amplitude2;
#X obj 141 413 s amplitude3;
#X obj 182 453 s amplitude4;
#X obj 222 493 s amplitude5;
#X obj 239 50 r size_speed_all;
#X obj 273 72 r size_speed_0;
#X obj 309 92 r size_speed_1;
#X obj 344 112 r size_speed_2;
#X obj 263 523 s amplitude0_speed_rec;
#X obj 303 543 s amplitude1_speed_rec;
#X obj 344 603 s amplitude2_speed_rec;
#X obj 263 563 s amplitude3_speed_rec;
#X obj 303 583 s amplitude4_speed_rec;
#X obj 344 623 s amplitude5_speed_rec;
#X obj 141 217 pack;
#X obj 182 277 pack;
#X obj 222 337 pack;
#X obj 101 151 control_numbers_window 999 999 999 999 23;
#X obj 135 72 r size_0_set;
#X obj 170 92 r size_1_set;
#X obj 205 112 r size_2_set;
#X obj 101 50 r size_master_set;
#X obj 101 549 value size_master;
#X obj 141 569 value size_0;
#X obj 182 589 value size_1;
#X obj 222 609 value size_2;
#X obj 373 153 value size_random_max;
#X obj 373 182 value size_random_min;
#X obj 524 153 value size_time_random_max;
#X obj 524 182 value size_time_random_min;
#X obj 141 257 Tarer \$1;
#X obj 182 317 Tarer \$1;
#X obj 222 377 Tarer \$1;
#X obj 731 67 loadbang;
#X obj 731 96 t b b b b;
#X msg 782 135 1000;
#X msg 775 164 100;
#X msg 721 164 1;
#X msg 731 135 8;
#X obj 141 237 liner_sfgem;
#X obj 182 297 liner_sfgem;
#X obj 222 357 liner_sfgem;
#X obj 347 437 r size_liner_exponent;
#X obj 347 470 r size_liner_function;
#X connect 6 0 19 4;
#X connect 7 0 19 5;
#X connect 8 0 19 6;
#X connect 9 0 19 7;
#X connect 16 0 41 0;
#X connect 17 0 42 0;
#X connect 18 0 43 0;
#X connect 19 0 24 0;
#X connect 19 1 25 0;
#X connect 19 1 16 0;
#X connect 19 2 26 0;
#X connect 19 2 17 0;
#X connect 19 3 27 0;
#X connect 19 3 18 0;
#X connect 19 4 10 0;
#X connect 19 4 13 0;
#X connect 19 4 16 1;
#X connect 19 5 11 0;
#X connect 19 5 14 0;
#X connect 19 5 17 1;
#X connect 19 6 15 0;
#X connect 19 6 12 0;
#X connect 19 6 18 1;
#X connect 20 0 19 1;
#X connect 21 0 19 2;
#X connect 22 0 19 3;
#X connect 23 0 19 0;
#X connect 32 0 0 0;
#X connect 32 0 3 0;
#X connect 33 0 1 0;
#X connect 33 0 4 0;
#X connect 34 0 2 0;
#X connect 34 0 5 0;
#X connect 35 0 36 0;
#X connect 36 0 39 0;
#X connect 36 1 40 0;
#X connect 36 2 38 0;
#X connect 36 3 37 0;
#X connect 37 0 30 0;
#X connect 38 0 31 0;
#X connect 39 0 29 0;
#X connect 40 0 28 0;
#X connect 41 0 32 0;
#X connect 41 0 32 0;
#X connect 42 0 33 0;
#X connect 43 0 34 0;
#X connect 44 0 43 3;
#X connect 44 0 42 3;
#X connect 44 0 41 3;
#X connect 45 0 43 2;
#X connect 45 0 42 2;
#X connect 45 0 41 2;
#X coords 0 -1 1 1 250 50 2 100 150;
