#N canvas 57 480 1371 475 10;
#X obj 177 173 inlet;
#X obj 525 173 inlet;
#X obj 814 173 inlet;
#X obj 1144 173 inlet;
#X obj 177 318 nbx 4 30 -1e+37 1e+37 0 0 empty empty empty 0 -8 0 25
-262144 -1 -1 1 256;
#X obj 177 359 s sphere_size_actual;
#X obj 525 318 nbx 4 30 -1e+37 1e+37 0 0 empty empty empty 0 -8 0 25
-262144 -1 -1 0 256;
#X obj 814 318 nbx 2 30 -1e+37 1e+37 0 0 empty empty empty 0 -8 0 25
-262144 -1 -1 2 256;
#X obj 1144 318 nbx 4 30 -1e+37 1e+37 0 0 empty empty empty 0 -8 0
25 -262144 -1 -1 2000 256;
#X obj 1051 242 r fadertrim-3;
#X obj 122 221 r fadertrim-0;
#X obj 419 242 r fadertrim-1;
#X obj 721 242 r fadertrim-2;
#X obj 122 300 * 2;
#X obj 122 271 / 400;
#X obj 419 271 / 400;
#X obj 721 271 / 400;
#X obj 1051 271 / 400;
#X obj 419 300 * 6.28;
#X obj 722 300 * 2.6;
#X msg 97 348 set \$1;
#X msg 460 348 set \$1;
#X msg 751 359 set \$1;
#X obj 1051 300 * 500;
#X msg 1064 367 set \$1;
#X floatatom 177 254 5 0 0 0 - - -, f 5;
#X floatatom 525 280 5 0 0 0 - - -, f 5;
#X floatatom 814 247 5 0 0 0 - - -, f 5;
#X floatatom 1144 240 5 0 0 0 - - -, f 5;
#X obj 1208 256 r speed_inst;
#X obj 240 250 r circle_size_inst;
#X obj 587 243 r spin_inst;
#X obj 862 268 r circle_distance_inst;
#X obj 899 29 r speeds;
#X obj 899 94 s speed_0;
#X obj 909 74 s speed_1;
#X obj 919 54 s speed_2;
#X obj 1176 27 r circle_distances;
#X obj 1176 94 s circle_distance_0;
#X obj 1186 74 s circle_distance_1;
#X obj 1200 54 s circle_distance_2;
#X obj 525 365 s spins_all;
#X obj 814 359 s circle_distances;
#X obj 1144 367 s speeds;
#X obj 996 87 s circle_distance_speed_0;
#X obj 996 67 s circle_distance_speed_1;
#X obj 996 47 s circle_distance_speed_2;
#X obj 97 418 outlet;
#X obj 460 418 outlet;
#X obj 751 418 outlet;
#X obj 1064 418 outlet;
#X text 392 84 circle_distance_inst - speed_inst;
#X text 200 84 circle_size_inst - spin_inst;
#X text 348 51 circle_distances - circle_distance0 \, 1 \, 2;
#X text 202 51 speeds - speed_0 \, 1 \, 2 -;
#X text 315 67 circle_distance_speed_0 \, 1 \, 2;
#X obj 659 47 s sphere_size_speed_0;
#X obj 659 67 s sphere_size_speed_1;
#X obj 659 87 s sphere_size_speed_2;
#X connect 0 0 25 0;
#X connect 1 0 26 0;
#X connect 2 0 27 0;
#X connect 3 0 28 0;
#X connect 4 0 5 0;
#X connect 4 0 20 0;
#X connect 6 0 21 0;
#X connect 6 0 41 0;
#X connect 7 0 22 0;
#X connect 7 0 42 0;
#X connect 8 0 24 0;
#X connect 8 0 43 0;
#X connect 9 0 17 0;
#X connect 10 0 14 0;
#X connect 11 0 15 0;
#X connect 12 0 16 0;
#X connect 13 0 4 0;
#X connect 14 0 13 0;
#X connect 15 0 18 0;
#X connect 16 0 19 0;
#X connect 17 0 23 0;
#X connect 18 0 6 0;
#X connect 19 0 7 0;
#X connect 20 0 47 0;
#X connect 21 0 48 0;
#X connect 22 0 49 0;
#X connect 23 0 8 0;
#X connect 24 0 50 0;
#X connect 25 0 4 0;
#X connect 26 0 6 0;
#X connect 27 0 7 0;
#X connect 28 0 8 0;
#X connect 29 0 8 0;
#X connect 30 0 4 0;
#X connect 31 0 6 0;
#X connect 32 0 7 0;
#X connect 33 0 34 0;
#X connect 33 0 35 0;
#X connect 33 0 36 0;
#X connect 33 0 44 0;
#X connect 33 0 45 0;
#X connect 33 0 46 0;
#X connect 33 0 56 0;
#X connect 33 0 57 0;
#X connect 33 0 58 0;
#X connect 37 0 38 0;
#X connect 37 0 39 0;
#X connect 37 0 40 0;
#X coords 0 -1 1 1 400 52 2 200 50;
