#N canvas 57 89 957 797 10;
#X obj 102 40 inlet;
#X obj 252 40 inlet;
#X obj 392 40 inlet;
#X obj 552 40 inlet;
#X obj 327 270 nbx 4 30 -1e+37 1e+37 0 0 empty empty empty 0 -8 0 25
-262144 -1 -1 0 256;
#X obj 327 311 s sphere_size_actual;
#X obj 327 379 nbx 4 30 -1e+37 1e+37 0 0 empty empty empty 0 -8 0 25
-262144 -1 -1 0 256;
#X obj 327 464 nbx 2 30 -1e+37 1e+37 0 0 empty empty empty 0 -8 0 25
-262144 -1 -1 0 256;
#X obj 327 552 nbx 4 30 -1e+37 1e+37 0 0 empty empty empty 0 -8 0 25
-262144 -1 -1 0 256;
#X obj 234 476 r fadertrim-3;
#X obj 272 143 r fadertrim-0;
#X obj 234 303 r fadertrim-1;
#X obj 234 388 r fadertrim-2;
#X obj 272 252 * 2;
#X obj 272 223 / 400;
#X obj 234 332 / 400;
#X obj 234 417 / 400;
#X obj 234 505 / 400;
#X obj 234 361 * 6.28;
#X obj 235 446 * 2.6;
#X msg 475 170 set \$1;
#X msg 618 159 set \$1;
#X msg 743 181 set \$1;
#X obj 234 534 * 500;
#X msg 832 166 set \$1;
#X floatatom 327 224 5 0 0 0 - - -, f 5;
#X floatatom 327 224 5 0 0 0 - - -, f 5;
#X floatatom 327 224 5 0 0 0 - - -, f 5;
#X floatatom 327 224 5 0 0 0 - - -, f 5;
#X obj 504 534 r speed_inst;
#X obj 466 252 r circle_size_inst;
#X obj 497 361 r spin_inst;
#X obj 504 446 r circle_distance_inst;
#X obj 327 630 r speeds;
#X obj 327 695 s speed_0;
#X obj 337 675 s speed_1;
#X obj 347 655 s speed_2;
#X obj 610 505 r circle_distances;
#X obj 610 572 s circle_distance_0;
#X obj 620 552 s circle_distance_1;
#X obj 634 532 s circle_distance_2;
#X obj 327 420 s spins_all;
#X obj 327 505 s circle_distances;
#X obj 327 601 s speeds;
#X obj 424 695 s circle_distance_speed_0;
#X obj 424 675 s circle_distance_speed_1;
#X obj 424 655 s circle_distance_speed_2;
#X obj 633 236 outlet;
#X obj 698 233 outlet;
#X obj 798 233 outlet;
#X obj 888 233 outlet;
#X connect 0 0 25 0;
#X connect 1 0 26 0;
#X connect 2 0 27 0;
#X connect 3 0 28 0;
#X connect 4 0 5 0;
#X connect 4 0 20 0;
#X connect 6 0 21 0;
#X connect 6 0 41 0;
#X connect 7 0 22 0;
#X connect 7 0 42 0;
#X connect 8 0 24 0;
#X connect 8 0 43 0;
#X connect 9 0 17 0;
#X connect 10 0 14 0;
#X connect 11 0 15 0;
#X connect 12 0 16 0;
#X connect 13 0 4 0;
#X connect 14 0 13 0;
#X connect 15 0 18 0;
#X connect 16 0 19 0;
#X connect 17 0 23 0;
#X connect 18 0 6 0;
#X connect 19 0 7 0;
#X connect 20 0 47 0;
#X connect 21 0 48 0;
#X connect 22 0 49 0;
#X connect 23 0 8 0;
#X connect 24 0 50 0;
#X connect 25 0 4 0;
#X connect 26 0 6 0;
#X connect 27 0 7 0;
#X connect 28 0 8 0;
#X connect 29 0 8 0;
#X connect 30 0 4 0;
#X connect 31 0 6 0;
#X connect 32 0 7 0;
#X connect 33 0 34 0;
#X connect 33 0 35 0;
#X connect 33 0 36 0;
#X connect 33 0 44 0;
#X connect 33 0 45 0;
#X connect 33 0 46 0;
#X connect 37 0 38 0;
#X connect 37 0 39 0;
#X connect 37 0 40 0;
