#N canvas 324 267 584 496 10;
#X obj 101 443 s amplitude0;
#X obj 149 463 s amplitude1;
#X obj 198 483 s amplitude2;
#X obj 101 50 r size_all_2pnl;
#X obj 135 72 r size_0_2pnl;
#X obj 170 92 r size_1_2pnl;
#X obj 205 112 r size_2_2pnl;
#X obj 101 483 s amplitude3;
#X obj 149 503 s amplitude4;
#X obj 198 523 s amplitude5;
#X obj 239 50 r size_speed_all;
#X obj 273 72 r size_speed_0;
#X obj 309 92 r size_speed_1;
#X obj 344 112 r size_speed_2;
#X obj 246 463 s amplitude0_speed_rec;
#X obj 295 483 s amplitude1_speed_rec;
#X obj 344 543 s amplitude2_speed_rec;
#X obj 246 503 s amplitude3_speed_rec;
#X obj 295 523 s amplitude4_speed_rec;
#X obj 344 563 s amplitude5_speed_rec;
#X obj 101 247 liner_sfgem;
#X obj 101 218 pack;
#X obj 149 317 liner_sfgem;
#X obj 149 293 pack;
#X obj 198 383 liner_sfgem;
#X obj 198 359 pack;
#X obj 101 267 Tarer \$1;
#X obj 149 337 Tarer \$1;
#X obj 198 403 Tarer \$1;
#X obj 101 151 control_numbers_window 999 999 999 999 23;
#X connect 3 0 29 0;
#X connect 4 0 29 1;
#X connect 5 0 29 2;
#X connect 6 0 29 3;
#X connect 10 0 29 4;
#X connect 11 0 29 5;
#X connect 12 0 29 6;
#X connect 13 0 29 7;
#X connect 20 0 26 0;
#X connect 20 0 26 0;
#X connect 21 0 20 0;
#X connect 22 0 27 0;
#X connect 23 0 22 0;
#X connect 24 0 28 0;
#X connect 25 0 24 0;
#X connect 26 0 0 0;
#X connect 26 0 7 0;
#X connect 26 1 0 0;
#X connect 26 1 7 0;
#X connect 27 0 1 0;
#X connect 27 0 8 0;
#X connect 27 1 1 0;
#X connect 27 1 8 0;
#X connect 28 0 2 0;
#X connect 28 0 9 0;
#X connect 28 1 2 0;
#X connect 28 1 9 0;
#X connect 29 0 21 0;
#X connect 29 1 23 0;
#X connect 29 2 25 0;
#X connect 29 3 14 0;
#X connect 29 3 17 0;
#X connect 29 3 21 1;
#X connect 29 4 15 0;
#X connect 29 4 18 0;
#X connect 29 5 16 0;
#X connect 29 5 19 0;
#X coords 0 -1 1 1 252 52 2 100 150;
