#N canvas 451 419 649 574 10;
#X obj 274 169 openpanel;
#X obj 274 243 readsf~ 3;
#X obj 354 218 tgl 25 0 empty empty empty 17 7 0 10 -262144 -1 -1 0
1;
#X msg 274 198 open \$1;
#X msg 354 189 0;
#X obj 273 340 s~ channel0;
#X obj 292 311 s~ channel1;
#X obj 309 282 s~ channel2;
#X obj 214 236 noise~;
#X obj 214 265 *~;
#X obj 229 104 inlet;
#X obj 274 104 inlet;
#X obj 354 104 inlet;
#X obj 273 430 s~ channel3;
#X obj 292 401 s~ channel4;
#X obj 309 372 s~ channel5;
#X connect 0 0 3 0;
#X connect 1 0 5 0;
#X connect 1 0 13 0;
#X connect 1 1 6 0;
#X connect 1 1 14 0;
#X connect 1 2 7 0;
#X connect 1 2 15 0;
#X connect 1 3 4 0;
#X connect 2 0 1 0;
#X connect 3 0 1 0;
#X connect 4 0 2 0;
#X connect 8 0 9 0;
#X connect 9 0 7 0;
#X connect 9 0 6 0;
#X connect 9 0 5 0;
#X connect 9 0 13 0;
#X connect 9 0 14 0;
#X connect 9 0 15 0;
#X connect 10 0 9 1;
#X connect 11 0 0 0;
#X connect 12 0 2 0;
