#N canvas 394 411 649 574 10;
#X obj 274 169 openpanel;
#X obj 274 243 readsf~ 3;
#X obj 354 218 tgl 25 0 empty empty empty 17 7 0 10 -262144 -1 -1 0
1;
#X msg 274 198 open \$1;
#X msg 354 189 0;
#X obj 273 340 s~ channel0;
#X obj 292 311 s~ channel1;
#X obj 309 282 s~ channel2;
#X obj 214 236 noise~;
#X obj 214 265 *~;
#X obj 229 124 inlet;
#X obj 274 124 inlet;
#X obj 354 124 inlet;
#X obj 273 510 s~ channel3;
#X obj 292 481 s~ channel4;
#X obj 309 452 s~ channel5;
#X obj 90 299 r mirror_on_off;
#X obj 214 406 *~;
#X obj 273 406 *~;
#X obj 292 406 *~;
#X obj 308 406 *~;
#X obj 90 355 sel 0 1;
#X msg 90 388 0;
#X msg 122 388 1;
#X connect 0 0 3 0;
#X connect 1 0 5 0;
#X connect 1 0 18 0;
#X connect 1 1 6 0;
#X connect 1 1 19 0;
#X connect 1 2 7 0;
#X connect 1 2 20 0;
#X connect 1 3 4 0;
#X connect 2 0 1 0;
#X connect 3 0 1 0;
#X connect 4 0 2 0;
#X connect 8 0 9 0;
#X connect 9 0 7 0;
#X connect 9 0 6 0;
#X connect 9 0 5 0;
#X connect 9 0 17 0;
#X connect 10 0 9 1;
#X connect 11 0 0 0;
#X connect 12 0 2 0;
#X connect 16 0 21 0;
#X connect 17 0 15 0;
#X connect 17 0 14 0;
#X connect 17 0 13 0;
#X connect 18 0 13 0;
#X connect 19 0 14 0;
#X connect 20 0 15 0;
#X connect 21 0 22 0;
#X connect 21 1 23 0;
#X connect 22 0 17 1;
#X connect 22 0 18 1;
#X connect 22 0 19 1;
#X connect 22 0 20 1;
#X connect 23 0 17 1;
#X connect 23 0 18 1;
#X connect 23 0 19 1;
#X connect 23 0 20 1;
