#N canvas 279 89 575 579 10;
#X obj 101 40 r spin_master_set;
#X obj 135 60 r spin_0_set;
#X obj 170 80 r spin_1_set;
#X obj 205 101 r spin_2_set;
#X obj 239 41 r spin_speed_all;
#X obj 274 62 r spin_speed_0;
#X obj 309 82 r spin_speed_1;
#X obj 344 102 r spin_speed_2;
#X obj 141 408 s spin_0;
#X obj 141 428 s spin_3;
#X obj 182 448 s spin_1;
#X obj 182 468 s spin_4;
#X obj 222 488 s spin_2;
#X obj 222 508 s spin_5;
#X obj 263 428 s spin_0_speed_rec;
#X obj 263 448 s spin_3_speed_rec;
#X obj 303 488 s spin_4_speed_rec;
#X obj 303 468 s spin_1_speed_rec;
#X obj 344 508 s spin_2_speed_rec;
#X obj 344 528 s spin_5_speed_rec;
#X obj 141 237 liner_sfgem;
#X obj 141 213 pack;
#X obj 182 307 liner_sfgem;
#X obj 182 283 pack;
#X obj 222 373 liner_sfgem;
#X obj 222 349 pack;
#X obj 141 257 Tarer 0;
#X obj 182 327 Tarer 1;
#X obj 222 393 Tarer 2;
#X obj 410 239 r spin_tare_0;
#X obj 410 309 r spin_tare_1;
#X obj 410 375 r spin_tare_2;
#X obj 101 374 s spin_master;
#X obj 101 151 control_numbers_window;
#X obj 101 537 value spin_master;
#X obj 141 557 value spin_0;
#X obj 181 577 value spin_1;
#X obj 222 597 value spin_2;
#X connect 0 0 33 0;
#X connect 1 0 33 1;
#X connect 2 0 33 2;
#X connect 3 0 33 3;
#X connect 4 0 33 4;
#X connect 5 0 33 5;
#X connect 6 0 33 6;
#X connect 7 0 33 7;
#X connect 20 0 26 0;
#X connect 20 0 26 0;
#X connect 21 0 20 0;
#X connect 22 0 27 0;
#X connect 23 0 22 0;
#X connect 24 0 28 0;
#X connect 25 0 24 0;
#X connect 26 0 8 0;
#X connect 26 0 9 0;
#X connect 27 0 10 0;
#X connect 27 0 11 0;
#X connect 28 0 12 0;
#X connect 28 0 13 0;
#X connect 29 0 26 1;
#X connect 30 0 27 1;
#X connect 31 0 28 1;
#X connect 33 0 32 0;
#X connect 33 0 34 0;
#X connect 33 1 21 0;
#X connect 33 1 35 0;
#X connect 33 2 23 0;
#X connect 33 2 36 0;
#X connect 33 3 25 0;
#X connect 33 3 37 0;
#X connect 33 4 14 0;
#X connect 33 4 15 0;
#X connect 33 4 21 1;
#X connect 33 5 16 0;
#X connect 33 5 17 0;
#X connect 33 5 23 1;
#X connect 33 6 18 0;
#X connect 33 6 19 0;
#X connect 33 6 25 1;
#X coords 0 -1 1 1 252 52 2 100 150;
