#N canvas 1219 89 575 579 10;
#X obj 101 40 r spin_master_set;
#X obj 135 60 r spin_0_set;
#X obj 170 80 r spin_1_set;
#X obj 205 101 r spin_2_set;
#X obj 239 41 r spin_speed_all;
#X obj 274 62 r spin_speed_0;
#X obj 309 82 r spin_speed_1;
#X obj 344 102 r spin_speed_2;
#X obj 101 408 s spin_0;
#X obj 101 428 s spin_3;
#X obj 149 448 s spin_1;
#X obj 149 468 s spin_4;
#X obj 198 488 s spin_2;
#X obj 198 508 s spin_5;
#X obj 246 428 s spin_0_speed_rec;
#X obj 246 448 s spin_3_speed_rec;
#X obj 295 488 s spin_4_speed_rec;
#X obj 295 468 s spin_1_speed_rec;
#X obj 344 508 s spin_2_speed_rec;
#X obj 344 528 s spin_5_speed_rec;
#X obj 101 151 control_numbers_window;
#X connect 0 0 20 0;
#X connect 1 0 20 1;
#X connect 2 0 20 2;
#X connect 3 0 20 3;
#X connect 4 0 20 4;
#X connect 5 0 20 5;
#X connect 6 0 20 6;
#X connect 7 0 20 7;
#X connect 20 0 8 0;
#X connect 20 0 9 0;
#X connect 20 1 10 0;
#X connect 20 1 11 0;
#X connect 20 2 12 0;
#X connect 20 2 13 0;
#X connect 20 3 14 0;
#X connect 20 3 15 0;
#X connect 20 4 16 0;
#X connect 20 4 17 0;
#X connect 20 5 18 0;
#X connect 20 5 19 0;
#X coords 0 -1 1 1 252 52 2 100 150;
