#N canvas 47 89 885 686 10;
#X obj 101 40 r spin_master_set;
#X obj 135 60 r spin_0_set;
#X obj 170 80 r spin_1_set;
#X obj 205 101 r spin_2_set;
#X obj 239 41 r spin_speed_all;
#X obj 274 62 r spin_speed_0;
#X obj 309 82 r spin_speed_1;
#X obj 344 102 r spin_speed_2;
#X obj 141 458 s spin_0;
#X obj 141 478 s spin_3;
#X obj 182 498 s spin_1;
#X obj 182 518 s spin_4;
#X obj 222 538 s spin_2;
#X obj 222 558 s spin_5;
#X obj 263 488 s spin_0_speed_rec;
#X obj 263 508 s spin_3_speed_rec;
#X obj 303 548 s spin_4_speed_rec;
#X obj 303 528 s spin_1_speed_rec;
#X obj 344 568 s spin_2_speed_rec;
#X obj 344 588 s spin_5_speed_rec;
#X obj 141 213 pack;
#X obj 182 283 pack;
#X obj 222 349 pack;
#X obj 141 257 Tarer 0;
#X obj 182 327 Tarer 1;
#X obj 222 393 Tarer 2;
#X obj 410 239 r spin_tare_0;
#X obj 410 309 r spin_tare_1;
#X obj 410 375 r spin_tare_2;
#X obj 101 151 control_numbers_window;
#X obj 101 557 value spin_master;
#X obj 141 577 value spin_0;
#X obj 182 597 value spin_1;
#X obj 222 617 value spin_2;
#X obj 373 152 value spin_random_max;
#X obj 373 181 value spin_random_min;
#X obj 514 152 value spin_time_random_max;
#X obj 514 181 value spin_time_random_min;
#X obj 701 66 loadbang;
#X obj 701 95 t b b b b;
#X msg 769 134 1000;
#X msg 769 163 100;
#X msg 701 134 6.24;
#X msg 701 163 -6.24;
#X obj 141 237 liner_sfgem;
#X obj 182 307 liner_sfgem;
#X obj 222 373 liner_sfgem;
#X obj 347 427 r spin_liner_exponent;
#X obj 348 460 r spin_liner_function;
#X connect 0 0 29 0;
#X connect 1 0 29 1;
#X connect 2 0 29 2;
#X connect 3 0 29 3;
#X connect 4 0 29 4;
#X connect 5 0 29 5;
#X connect 6 0 29 6;
#X connect 7 0 29 7;
#X connect 20 0 44 0;
#X connect 21 0 45 0;
#X connect 22 0 46 0;
#X connect 23 0 8 0;
#X connect 23 0 9 0;
#X connect 24 0 10 0;
#X connect 24 0 11 0;
#X connect 25 0 12 0;
#X connect 25 0 13 0;
#X connect 26 0 23 1;
#X connect 27 0 24 1;
#X connect 28 0 25 1;
#X connect 29 0 30 0;
#X connect 29 1 20 0;
#X connect 29 1 31 0;
#X connect 29 2 21 0;
#X connect 29 2 32 0;
#X connect 29 3 22 0;
#X connect 29 3 33 0;
#X connect 29 4 14 0;
#X connect 29 4 15 0;
#X connect 29 4 20 1;
#X connect 29 5 16 0;
#X connect 29 5 17 0;
#X connect 29 5 21 1;
#X connect 29 6 18 0;
#X connect 29 6 19 0;
#X connect 29 6 22 1;
#X connect 38 0 39 0;
#X connect 39 0 43 0;
#X connect 39 1 42 0;
#X connect 39 2 41 0;
#X connect 39 3 40 0;
#X connect 40 0 36 0;
#X connect 41 0 37 0;
#X connect 42 0 34 0;
#X connect 43 0 35 0;
#X connect 44 0 23 0;
#X connect 44 0 23 0;
#X connect 45 0 24 0;
#X connect 46 0 25 0;
#X connect 47 0 44 3;
#X connect 47 0 45 3;
#X connect 47 0 46 3;
#X connect 48 0 44 2;
#X connect 48 0 45 2;
#X connect 48 0 46 2;
#X coords 0 -1 1 1 252 52 2 100 150;
