#N canvas 67 267 584 496 10;
#X obj 121 90 r fader_or_knob_7;
#X obj 101 151 cnv 15 198 50 empty empty empty 20 12 0 14 -162280 -66577
0;
#X obj 121 157 nbx 6 37 -1e+37 1e+37 0 0 empty empty empty 0 -8 0 25
-262144 -1 -1 0 256;
#X obj 121 257 s stay;
#X obj 311 70 r staytime;
#X connect 0 0 2 0;
#X connect 2 0 3 0;
#X connect 4 0 2 0;
#X coords 0 -1 1 1 200 52 2 100 150;
