#N canvas 67 90 1100 476 10;
#X obj 24 217 gemhead;
#X obj 194 217 gemhead;
#X obj 354 217 gemhead;
#X msg 519 257 draw point;
#X obj 519 228 loadbang;
#X obj 600 109 / 400;
#X obj 600 138 * 20000;
#X msg 600 257 length \$1;
#X obj 656 91 loadbang;
#X msg 656 120 0.4;
#X text 588 41 STAY-TIME OF POINTS;
#X floatatom 600 227 5 0 0 0 - - -, f 5;
#X obj 24 275 the_scope 0;
#X obj 600 167 s stay_2pnl;
#X obj 600 198 r stay;
#X obj 24 307 gemhead;
#X obj 194 307 gemhead;
#X obj 354 307 gemhead;
#X msg 519 347 draw point;
#X msg 600 347 length \$1;
#X obj 797 241 s mirror0;
#X obj 868 241 s mirror1;
#X obj 937 241 s mirror2;
#X obj 783 320 s mirror3;
#X obj 854 320 s mirror4;
#X obj 923 320 s mirror5;
#X obj 837 167 loadbang;
#X msg 876 203 1;
#X obj 706 128 r mirror_on_off;
#X obj 706 168 sel 0 1;
#X msg 706 232 0;
#X msg 725 302 -1;
#X obj 600 60 r fillin;
#X obj 354 275 the_scope 2;
#X obj 194 275 the_scope 1;
#X obj 24 365 the_scope 3;
#X obj 194 365 the_scope 4;
#X obj 354 365 the_scope 5;
#X obj 24 246 translator-rotator 0 1 2;
#X obj 194 246 translator-rotator 1 2 0;
#X obj 354 246 translator-rotator 2 0 1;
#X obj 24 336 translator-rotator 3 4 5;
#X obj 194 336 translator-rotator 4 5 3;
#X obj 354 336 translator-rotator 5 3 4;
#X connect 0 0 38 0;
#X connect 1 0 39 0;
#X connect 2 0 40 0;
#X connect 3 0 12 0;
#X connect 3 0 33 0;
#X connect 3 0 34 0;
#X connect 4 0 3 0;
#X connect 4 0 18 0;
#X connect 5 0 6 0;
#X connect 6 0 13 0;
#X connect 7 0 12 0;
#X connect 7 0 33 0;
#X connect 7 0 34 0;
#X connect 8 0 9 0;
#X connect 9 0 6 0;
#X connect 11 0 7 0;
#X connect 11 0 19 0;
#X connect 14 0 11 0;
#X connect 15 0 41 0;
#X connect 16 0 42 0;
#X connect 17 0 43 0;
#X connect 18 0 35 0;
#X connect 18 0 36 0;
#X connect 18 0 37 0;
#X connect 19 0 35 0;
#X connect 19 0 36 0;
#X connect 19 0 37 0;
#X connect 26 0 27 0;
#X connect 26 0 30 0;
#X connect 27 0 20 0;
#X connect 27 0 21 0;
#X connect 27 0 22 0;
#X connect 28 0 29 0;
#X connect 29 0 30 0;
#X connect 29 1 31 0;
#X connect 30 0 23 0;
#X connect 30 0 24 0;
#X connect 30 0 25 0;
#X connect 31 0 24 0;
#X connect 31 0 25 0;
#X connect 31 0 23 0;
#X connect 32 0 5 0;
#X connect 38 0 12 0;
#X connect 39 0 34 0;
#X connect 40 0 33 0;
#X connect 41 0 35 0;
#X connect 42 0 36 0;
#X connect 43 0 37 0;
