#N canvas 404 554 871 300 10;
#X obj 64 187 gemhead;
#X obj 194 187 gemhead;
#X obj 324 187 gemhead;
#X msg 469 227 draw point;
#X obj 469 198 loadbang;
#X obj 324 245 the_scope 2;
#X obj 550 139 / 400;
#X obj 550 90 r fadertrim-7;
#X obj 550 168 * 20000;
#X msg 550 227 length \$1;
#X obj 606 121 loadbang;
#X msg 606 150 0.4;
#X text 538 71 STAY-TIME OF POINTS;
#X floatatom 550 197 5 0 0 0 - - -, f 5;
#X msg 600 194 set \$1;
#X obj 194 245 the_scope 1;
#X obj 64 245 the_scope 0;
#X obj 64 216 translator-rotator 0;
#X obj 324 216 translator-rotator 2;
#X obj 194 216 translator-rotator 1;
#X obj 397 44 inlet;
#X obj 711 253 outlet;
#X connect 0 0 17 0;
#X connect 1 0 19 0;
#X connect 2 0 18 0;
#X connect 3 0 5 0;
#X connect 3 0 15 0;
#X connect 3 0 16 0;
#X connect 4 0 3 0;
#X connect 6 0 8 0;
#X connect 7 0 6 0;
#X connect 8 0 13 0;
#X connect 9 0 5 0;
#X connect 9 0 15 0;
#X connect 9 0 16 0;
#X connect 10 0 11 0;
#X connect 11 0 8 0;
#X connect 13 0 9 0;
#X connect 13 0 14 0;
#X connect 14 0 21 0;
#X connect 17 0 16 0;
#X connect 18 0 5 0;
#X connect 19 0 15 0;
#X connect 20 0 13 0;
