#N canvas 753 585 658 440 10;
#X obj 129 79 inlet;
#X obj 379 76 inlet;
#X obj 95 490 outlet;
#X obj 325 488 outlet;
#X obj 180 367 trader;
#X obj 180 232 hradio 30 1 0 3 empty empty empty 0 -8 0 10 -262144
-1 -1 0;
#X obj 213 326 hradio 30 1 0 7 empty empty empty 0 -8 0 10 -262144
-1 -1 3;
#X obj 213 297 % 4;
#X obj 180 203 r to_trader1;
#X obj 213 268 r to_trader2;
#X msg 301 250 0;
#X msg 463 250 2;
#X msg 382 250 1;
#X msg 301 308 3;
#X msg 382 308 4;
#X msg 464 308 5;
#X msg 544 278 6;
#X obj 102 164 bng 15 250 50 0 empty empty empty 17 7 0 10 -262144
-1 -1;
#X obj 102 135 r markerforwardbutton;
#X obj 141 193 bng 15 250 50 0 empty empty empty 17 7 0 10 -262144
-1 -1;
#X obj 141 164 r markerbackbutton;
#X obj 141 268 - 1;
#X obj 102 257 + 1;
#X floatatom 102 286 5 0 0 0 - - -, f 5;
#X obj 102 228 f;
#X obj 141 239 f;
#X obj 102 314 % 3;
#X obj 301 221 r rbutton-0;
#X obj 382 221 r rbutton-1;
#X obj 463 221 r rbutton-2;
#X obj 544 249 r rbutton-6;
#X obj 301 279 r rbutton-3;
#X obj 382 279 r rbutton-4;
#X obj 463 279 r rbutton-5;
#X obj 65 192 loadbang;
#X msg 65 215 300;
#X obj 459 153 r trader_preset;
#X msg 126 445 set \$1;
#X msg 306 440 set \$1;
#X connect 0 0 5 0;
#X connect 1 0 6 0;
#X connect 5 0 4 0;
#X connect 5 0 37 0;
#X connect 6 0 4 1;
#X connect 6 0 38 0;
#X connect 7 0 6 0;
#X connect 8 0 5 0;
#X connect 9 0 7 0;
#X connect 10 0 6 0;
#X connect 11 0 6 0;
#X connect 12 0 6 0;
#X connect 13 0 6 0;
#X connect 14 0 6 0;
#X connect 15 0 6 0;
#X connect 16 0 6 0;
#X connect 17 0 24 0;
#X connect 18 0 17 0;
#X connect 19 0 25 0;
#X connect 20 0 19 0;
#X connect 21 0 23 0;
#X connect 22 0 23 0;
#X connect 23 0 25 1;
#X connect 23 0 24 1;
#X connect 23 0 26 0;
#X connect 24 0 22 0;
#X connect 25 0 21 0;
#X connect 26 0 5 0;
#X connect 27 0 10 0;
#X connect 28 0 12 0;
#X connect 29 0 11 0;
#X connect 30 0 16 0;
#X connect 31 0 13 0;
#X connect 32 0 14 0;
#X connect 33 0 15 0;
#X connect 34 0 35 0;
#X connect 35 0 23 0;
#X connect 36 0 6 0;
#X connect 37 0 2 0;
#X connect 38 0 3 0;
