#N canvas 284 404 873 527 10;
#X obj 230 337 trader;
#X obj 230 182 hradio 30 1 0 3 empty empty empty 0 -8 0 10 -262144
-1 -1 0;
#X obj 263 276 hradio 30 1 0 7 empty empty empty 0 -8 0 10 -262144
-1 -1 2;
#X msg 342 100 0;
#X msg 504 100 2;
#X msg 423 100 1;
#X msg 342 158 3;
#X msg 423 158 4;
#X msg 505 158 5;
#X msg 591 127 6;
#X obj 132 64 bng 15 250 50 0 empty empty empty 17 7 0 10 -262144 -1
-1;
#X obj 132 35 r markerforwardbutton;
#X obj 171 93 bng 15 250 50 0 empty empty empty 17 7 0 10 -262144 -1
-1;
#X obj 171 64 r markerbackbutton;
#X obj 171 168 - 1;
#X obj 132 157 + 1;
#X floatatom 132 186 5 0 0 0 - - -, f 5;
#X obj 132 128 f;
#X obj 171 139 f;
#X obj 132 214 % 3;
#X obj 342 71 r rbutton-0;
#X obj 423 71 r rbutton-1;
#X obj 504 71 r rbutton-2;
#X obj 591 98 r rbutton-6;
#X obj 342 129 r rbutton-3;
#X obj 423 129 r rbutton-4;
#X obj 504 129 r rbutton-5;
#X obj 95 92 loadbang;
#X msg 95 115 300;
#X obj 356 200 s trade_2pnl;
#X obj 263 249 r trade;
#X obj 132 243 s swap_2pnl;
#X obj 230 148 r swap;
#X connect 1 0 0 0;
#X connect 2 0 0 1;
#X connect 3 0 29 0;
#X connect 4 0 29 0;
#X connect 5 0 29 0;
#X connect 6 0 29 0;
#X connect 7 0 29 0;
#X connect 8 0 29 0;
#X connect 9 0 29 0;
#X connect 10 0 17 0;
#X connect 11 0 10 0;
#X connect 12 0 18 0;
#X connect 13 0 12 0;
#X connect 14 0 16 0;
#X connect 15 0 16 0;
#X connect 16 0 18 1;
#X connect 16 0 17 1;
#X connect 16 0 19 0;
#X connect 17 0 15 0;
#X connect 18 0 14 0;
#X connect 19 0 31 0;
#X connect 20 0 3 0;
#X connect 21 0 5 0;
#X connect 22 0 4 0;
#X connect 23 0 9 0;
#X connect 24 0 6 0;
#X connect 25 0 7 0;
#X connect 26 0 8 0;
#X connect 27 0 28 0;
#X connect 28 0 16 0;
#X connect 30 0 2 0;
#X connect 32 0 1 0;
