#N canvas 632 682 450 300 10;
#X obj 110 122 -;
#X obj 125 98 f;
#X obj 110 68 inlet;
#X obj 110 151 outlet;
#X obj 175 151 outlet;
#X msg 175 122 0;
#X obj 175 68 r tarer_master;
#X connect 0 0 3 0;
#X connect 1 0 0 1;
#X connect 2 0 1 1;
#X connect 2 0 0 0;
#X connect 5 0 4 0;
#X connect 6 0 1 0;
#X connect 6 0 5 0;
