#N canvas 67 246 751 637 10;
#X obj 113 387 -;
#X obj 128 353 f;
#X obj 143 60 inlet;
#X obj 113 566 outlet;
#X floatatom 143 269 5 0 0 0 - - -, f 5;
#X floatatom 113 525 5 0 0 0 - - -, f 5;
#X obj 196 260 inlet;
#X obj 200 303 r reset_all_tarers;
#X msg 200 335 0;
#X connect 0 0 5 0;
#X connect 1 0 0 1;
#X connect 2 0 4 0;
#X connect 4 0 1 1;
#X connect 4 0 0 0;
#X connect 5 0 3 0;
#X connect 6 0 1 0;
#X connect 7 0 8 0;
#X connect 8 0 1 1;
#X connect 8 0 0 1;
