#N canvas 67 286 751 637 10;
#X obj 113 387 -;
#X obj 128 353 f;
#X obj 143 60 inlet;
#X obj 113 566 outlet;
#X floatatom 143 269 5 0 0 0 - - -, f 5;
#X floatatom 186 269 5 0 0 0 - - -, f 5;
#X text 99 269 CTRL;
#X text 219 270 COMP;
#X obj 236 111 sel 0 1;
#X obj 236 82 r ctrl_or_comp;
#X obj 143 187 spigot;
#X obj 236 227 spigot;
#X obj 236 169 unpack;
#X msg 236 140 1 0;
#X msg 269 140 0 1;
#X obj 186 315 t b f f;
#X floatatom 113 525 5 0 0 0 - - -, f 5;
#X text 147 385 reposition current state of fader or knob at zero after
a tare message;
#X obj 475 167 inlet;
#X connect 0 0 16 0;
#X connect 1 0 0 1;
#X connect 2 0 10 0;
#X connect 2 0 11 0;
#X connect 4 0 1 1;
#X connect 4 0 0 0;
#X connect 5 0 15 0;
#X connect 8 0 13 0;
#X connect 8 1 14 0;
#X connect 9 0 8 0;
#X connect 10 0 4 0;
#X connect 11 0 5 0;
#X connect 12 0 10 1;
#X connect 12 1 11 1;
#X connect 13 0 12 0;
#X connect 14 0 12 0;
#X connect 15 0 1 0;
#X connect 16 0 3 0;
#X connect 18 0 1 0;
