#N canvas 57 89 950 768 10;
#X obj 206 561 scopeXYZ~ 2048;
#X obj 65 543 inlet;
#X obj 632 340 *~;
#X obj 633 272 r~ channel\$1;
#X obj 234 287 r frequency\$1;
#X obj 429 236 r reset-phase\$1;
#X obj 647 301 r amplitude\$1;
#X msg 206 100 draw line;
#X msg 206 140 draw fill;
#X msg 206 77 draw point;
#X msg 206 120 draw linestrip;
#X msg 206 160 draw tri;
#X msg 206 182 draw tristrip;
#X msg 206 205 draw trifan;
#X msg 206 226 draw quad;
#X msg 206 248 draw quadstrip;
#X obj 206 9 r linestyle\$1;
#X obj 206 38 sel 0 1 2 3 4 5 6 7 8;
#X obj 234 489 *~;
#X obj 259 490 *~;
#X floatatom 346 523 5 0 0 0 - - -, f 5;
#X obj 375 148 loadbang;
#X floatatom 350 256 5 0 0 0 - - -, f 5;
#X obj 423 297 * 0.5;
#X obj 260 434 osc~ 30;
#X obj 234 403 osc~ 30;
#X msg 375 201 0.5;
#X obj 569 357 *~;
#X obj 632 455 *~;
#X obj 775 339 unpack;
#X msg 794 294 0 1;
#X msg 775 265 1 0;
#X obj 570 472 +~;
#X obj 775 194 r toggle_amp;
#X obj 775 220 sel 0 1;
#X obj 633 379 expr~ (pow($v1 \, 0.5));
#X connect 1 0 0 0;
#X connect 2 0 27 0;
#X connect 2 0 35 0;
#X connect 3 0 2 0;
#X connect 4 0 25 0;
#X connect 5 0 23 0;
#X connect 5 0 25 1;
#X connect 6 0 2 1;
#X connect 7 0 0 0;
#X connect 8 0 0 0;
#X connect 9 0 0 0;
#X connect 10 0 0 0;
#X connect 11 0 0 0;
#X connect 12 0 0 0;
#X connect 13 0 0 0;
#X connect 14 0 0 0;
#X connect 15 0 0 0;
#X connect 16 0 17 0;
#X connect 17 0 9 0;
#X connect 17 1 7 0;
#X connect 17 2 10 0;
#X connect 17 3 8 0;
#X connect 17 4 11 0;
#X connect 17 5 12 0;
#X connect 17 6 13 0;
#X connect 17 7 14 0;
#X connect 17 8 15 0;
#X connect 18 0 0 1;
#X connect 19 0 0 2;
#X connect 20 0 0 3;
#X connect 21 0 26 0;
#X connect 22 0 23 0;
#X connect 22 0 25 1;
#X connect 23 0 24 1;
#X connect 24 0 19 0;
#X connect 25 0 18 0;
#X connect 26 0 22 0;
#X connect 26 0 20 0;
#X connect 27 0 32 0;
#X connect 28 0 32 1;
#X connect 29 0 27 1;
#X connect 29 1 28 1;
#X connect 30 0 29 0;
#X connect 31 0 29 0;
#X connect 32 0 18 1;
#X connect 32 0 19 1;
#X connect 33 0 34 0;
#X connect 34 0 31 0;
#X connect 34 1 30 0;
#X connect 35 0 28 0;
