#N canvas 288 284 1240 768 10;
#X obj 206 561 scopeXYZ~ 2048;
#X obj 65 543 inlet;
#X obj 632 340 *~;
#X obj 633 162 r~ channel\$1;
#X obj 234 287 r frequency\$1;
#X obj 381 203 r reset-phase\$1;
#X obj 659 209 r amplitude\$1;
#X obj 234 489 *~;
#X obj 260 490 *~;
#X floatatom 381 544 5 0 0 0 - - -, f 5;
#X obj 405 232 loadbang;
#X floatatom 273 354 5 0 0 0 - - -, f 5;
#X obj 299 386 * 0.5;
#X msg 381 336 0.5;
#X obj 569 357 *~;
#X obj 632 455 *~;
#X obj 855 339 unpack;
#X msg 874 294 0 1;
#X msg 855 265 1 0;
#X obj 570 472 +~;
#X obj 855 194 r toggle_amp;
#X obj 855 220 sel 0 1;
#X obj 633 379 expr~ (pow($v1 \, 0.5));
#X obj 51 385 line;
#X obj 110 336 line;
#X obj 233 463 *~;
#X msg 416 445 1;
#X obj 105 445 line;
#X msg 110 307 0 \, 0.5 100;
#X obj 259 463 *~;
#X obj 172 482 line;
#X obj 416 416 loadbang;
#X obj 33 45 r wiggle_sphere\$1;
#X obj 260 434 osc~ 30;
#X obj 100 99 del 200;
#X obj 234 403 osc~ 30;
#X obj 58 182 random 100;
#X obj 99 210 random 300;
#X obj 58 153 t b b;
#X obj 58 228 pack;
#X msg 52 275 \$1 \, 30 \$2;
#X obj 33 74 t b b b;
#X obj 190 121 + 3;
#X obj 28 583 t b b;
#X obj 26 671 pack;
#X obj 69 640 random 170;
#X obj 28 612 random 300;
#X obj 27 642 / 100;
#X obj 158 603 t b b;
#X obj 156 691 pack;
#X obj 199 660 random 170;
#X obj 158 632 random 300;
#X obj 157 662 / 100;
#X msg 43 448 \$1 \, 1 \$2;
#X msg 43 478 \$1 \, 1 \$2;
#X obj 659 267 pack;
#X obj 655 293 liner_sfgem;
#X obj 680 238 r size_speed_\$1;
#X connect 1 0 0 0;
#X connect 2 0 14 0;
#X connect 2 0 22 0;
#X connect 3 0 2 0;
#X connect 4 0 35 0;
#X connect 5 0 13 0;
#X connect 6 0 55 0;
#X connect 7 0 0 1;
#X connect 8 0 0 2;
#X connect 9 0 0 3;
#X connect 10 0 13 0;
#X connect 11 0 12 0;
#X connect 11 0 35 1;
#X connect 12 0 33 1;
#X connect 13 0 11 0;
#X connect 13 0 9 0;
#X connect 14 0 19 0;
#X connect 15 0 19 1;
#X connect 16 0 14 1;
#X connect 16 1 15 1;
#X connect 17 0 16 0;
#X connect 18 0 16 0;
#X connect 19 0 7 1;
#X connect 19 0 8 1;
#X connect 20 0 21 0;
#X connect 21 0 18 0;
#X connect 21 1 17 0;
#X connect 22 0 15 0;
#X connect 23 0 35 0;
#X connect 24 0 11 0;
#X connect 25 0 7 0;
#X connect 26 0 25 1;
#X connect 26 0 29 1;
#X connect 27 0 25 1;
#X connect 28 0 24 0;
#X connect 29 0 8 0;
#X connect 30 0 29 1;
#X connect 31 0 26 0;
#X connect 32 0 41 0;
#X connect 33 0 29 0;
#X connect 34 0 28 0;
#X connect 35 0 25 0;
#X connect 36 0 39 0;
#X connect 37 0 39 1;
#X connect 37 0 42 0;
#X connect 38 0 36 0;
#X connect 38 1 37 0;
#X connect 39 0 40 0;
#X connect 40 0 23 0;
#X connect 41 0 43 0;
#X connect 41 0 48 0;
#X connect 41 1 34 0;
#X connect 41 2 38 0;
#X connect 42 0 34 1;
#X connect 43 0 46 0;
#X connect 43 1 45 0;
#X connect 44 0 53 0;
#X connect 45 0 44 1;
#X connect 46 0 47 0;
#X connect 47 0 44 0;
#X connect 48 0 51 0;
#X connect 48 1 50 0;
#X connect 49 0 54 0;
#X connect 50 0 49 1;
#X connect 51 0 52 0;
#X connect 52 0 49 0;
#X connect 53 0 27 0;
#X connect 54 0 30 0;
#X connect 55 0 56 0;
#X connect 56 0 2 1;
#X connect 57 0 55 1;
