#N canvas 67 438 942 473 10;
#X obj 246 408 scopeXYZ~ 2048;
#X obj 194 390 inlet;
#X obj 542 200 *~;
#X obj 543 74 r~ channel\$1;
#X obj 272 194 r frequency\$1;
#X obj 421 186 r reset-phase\$1;
#X obj 557 103 r amplitude\$1;
#X obj 272 354 *~;
#X obj 300 354 *~;
#X floatatom 421 391 5 0 0 0 - - -, f 5;
#X obj 362 186 loadbang;
#X floatatom 311 231 5 0 0 0 - - -, f 5;
#X msg 421 213 0.5;
#X obj 499 227 *~;
#X obj 542 320 *~;
#X obj 680 209 unpack;
#X msg 699 164 0 1;
#X msg 680 135 1 0;
#X obj 500 337 +~;
#X obj 680 64 r toggle_amp;
#X obj 680 90 sel 0 1;
#X obj 543 259 expr~ (pow($v1 \, 0.5));
#X obj 271 327 *~;
#X msg 387 309 1, f 2;
#X obj 299 327 *~;
#X obj 387 286 loadbang;
#X obj 557 147 pack;
#X obj 557 173 liner_sfgem;
#X obj 578 125 r size_speed_\$1;
#X obj 300 284 osc~ 30;
#X obj 273 383 +~;
#X obj 301 383 +~;
#X obj 272 263 osc~ 30;
#X obj 339 256 * 0.5;
#X obj 311 145 r scope\$1_phase_offset;
#X obj 383 258 r disrupt_size_\$1;
#X obj 632 39 loadbang;
#X msg 632 72 1;
#X text 333 384 USE?;
#X connect 1 0 0 0;
#X connect 2 0 13 0;
#X connect 2 0 21 0;
#X connect 3 0 2 0;
#X connect 4 0 32 0;
#X connect 5 0 12 0;
#X connect 6 0 26 0;
#X connect 7 0 30 0;
#X connect 8 0 31 0;
#X connect 9 0 0 3;
#X connect 10 0 12 0;
#X connect 11 0 33 0;
#X connect 11 0 32 1;
#X connect 12 0 11 0;
#X connect 12 0 9 0;
#X connect 13 0 18 0;
#X connect 14 0 18 1;
#X connect 15 0 13 1;
#X connect 15 1 14 1;
#X connect 16 0 15 0;
#X connect 17 0 15 0;
#X connect 18 0 7 1;
#X connect 18 0 8 1;
#X connect 19 0 20 0;
#X connect 20 0 17 0;
#X connect 20 1 16 0;
#X connect 21 0 14 0;
#X connect 22 0 7 0;
#X connect 23 0 24 1;
#X connect 23 0 22 1;
#X connect 24 0 8 0;
#X connect 25 0 23 0;
#X connect 26 0 27 0;
#X connect 27 0 2 1;
#X connect 28 0 26 1;
#X connect 29 0 24 0;
#X connect 30 0 0 1;
#X connect 31 0 0 2;
#X connect 32 0 22 0;
#X connect 33 0 29 1;
#X connect 34 0 11 0;
#X connect 35 0 22 1;
#X connect 35 0 24 1;
#X connect 36 0 37 0;
#X connect 37 0 20 0;
