#N canvas 903 300 942 473 10;
#X obj 196 431 scopeXYZ~ 2048;
#X obj 84 413 inlet;
#X obj 622 210 *~;
#X obj 623 32 r~ channel\$1;
#X obj 224 157 r frequency\$1;
#X obj 371 73 r reset-phase\$1;
#X obj 649 79 r amplitude\$1;
#X obj 224 359 *~;
#X obj 250 360 *~;
#X floatatom 371 414 5 0 0 0 - - -, f 5;
#X obj 395 102 loadbang;
#X floatatom 263 224 5 0 0 0 - - -, f 5;
#X msg 371 206 0.5;
#X obj 559 227 *~;
#X obj 622 325 *~;
#X obj 845 209 unpack;
#X msg 864 164 0 1;
#X msg 845 135 1 0;
#X obj 560 342 +~;
#X obj 845 64 r toggle_amp;
#X obj 845 90 sel 0 1;
#X obj 623 249 expr~ (pow($v1 \, 0.5));
#X obj 223 333 *~;
#X msg 427 315 1;
#X obj 249 333 *~;
#X obj 427 286 loadbang;
#X obj 85 148 random 100;
#X obj 85 119 t b b;
#X obj 85 177 pack;
#X msg 85 206 \$1 \, 30 \$2;
#X obj 46 80 t b b b;
#X obj 649 137 pack;
#X obj 645 163 liner_sfgem;
#X obj 670 108 r size_speed_\$1;
#X obj 46 25 r wiggle_\$1;
#X obj 250 304 osc~ 30;
#X obj 225 396 +~;
#X obj 255 396 +~;
#X floatatom 153 301 5 0 0 0 - - -, f 5;
#X obj 224 273 osc~ 30;
#X obj 289 256 * 0.5;
#X obj 263 32 r scope\$1_phase_offset;
#X obj 423 258 r disrupt_size_\$1;
#X connect 1 0 0 0;
#X connect 2 0 13 0;
#X connect 2 0 21 0;
#X connect 3 0 2 0;
#X connect 4 0 39 0;
#X connect 5 0 12 0;
#X connect 6 0 31 0;
#X connect 7 0 36 0;
#X connect 8 0 37 0;
#X connect 9 0 0 3;
#X connect 10 0 12 0;
#X connect 11 0 40 0;
#X connect 11 0 39 1;
#X connect 12 0 11 0;
#X connect 12 0 9 0;
#X connect 13 0 18 0;
#X connect 14 0 18 1;
#X connect 15 0 13 1;
#X connect 15 1 14 1;
#X connect 16 0 15 0;
#X connect 17 0 15 0;
#X connect 18 0 7 1;
#X connect 18 0 8 1;
#X connect 19 0 20 0;
#X connect 20 0 17 0;
#X connect 20 1 16 0;
#X connect 21 0 14 0;
#X connect 22 0 7 0;
#X connect 23 0 22 1;
#X connect 23 0 24 1;
#X connect 24 0 8 0;
#X connect 25 0 23 0;
#X connect 26 0 28 0;
#X connect 27 0 26 0;
#X connect 28 0 29 0;
#X connect 30 2 27 0;
#X connect 31 0 32 0;
#X connect 32 0 2 1;
#X connect 33 0 31 1;
#X connect 34 0 30 0;
#X connect 35 0 24 0;
#X connect 36 0 0 1;
#X connect 37 0 0 2;
#X connect 38 0 0 3;
#X connect 39 0 22 0;
#X connect 40 0 35 1;
#X connect 41 0 11 0;
#X connect 42 0 22 1;
#X connect 42 0 24 1;
