#N canvas 767 149 1040 768 10;
#X obj 206 561 scopeXYZ~ 2048;
#X obj 65 543 inlet;
#X obj 632 340 *~;
#X obj 633 272 r~ channel\$1;
#X obj 234 287 r frequency\$1;
#X obj 381 203 r reset-phase\$1;
#X obj 647 301 r amplitude\$1;
#X obj 234 489 *~;
#X obj 260 490 *~;
#X floatatom 381 544 5 0 0 0 - - -, f 5;
#X obj 405 232 loadbang;
#X floatatom 273 354 5 0 0 0 - - -, f 5;
#X obj 299 386 * 0.5;
#X msg 381 336 0.5;
#X obj 569 357 *~;
#X obj 632 455 *~;
#X obj 775 339 unpack;
#X msg 794 294 0 1;
#X msg 775 265 1 0;
#X obj 570 472 +~;
#X obj 775 194 r toggle_amp;
#X obj 775 220 sel 0 1;
#X obj 633 379 expr~ (pow($v1 \, 0.5));
#X obj 51 385 line;
#X obj 110 336 line;
#X obj 31 104 bng 15 250 50 0 empty empty empty 17 7 0 10 -262144 -1
-1;
#X obj 233 463 *~;
#X msg 416 445 1;
#X obj 105 445 line;
#X msg 110 307 0 \, 0.5 100;
#X obj 259 463 *~;
#X obj 172 482 line;
#X obj 416 416 loadbang;
#X obj 31 65 r wiggle_sphere\$1;
#X obj 260 434 osc~ 30;
#X msg 31 464 2.1 \, 1 150;
#X msg 31 427 1.9 \, 1 100;
#X msg 51 177 40 \, 30 200;
#X obj 110 119 del 200;
#X obj 234 403 osc~ 30;
#X connect 1 0 0 0;
#X connect 2 0 14 0;
#X connect 2 0 22 0;
#X connect 3 0 2 0;
#X connect 4 0 39 0;
#X connect 5 0 13 0;
#X connect 6 0 2 1;
#X connect 7 0 0 1;
#X connect 8 0 0 2;
#X connect 9 0 0 3;
#X connect 10 0 13 0;
#X connect 11 0 12 0;
#X connect 11 0 39 1;
#X connect 12 0 34 1;
#X connect 13 0 11 0;
#X connect 13 0 9 0;
#X connect 14 0 19 0;
#X connect 15 0 19 1;
#X connect 16 0 14 1;
#X connect 16 1 15 1;
#X connect 17 0 16 0;
#X connect 18 0 16 0;
#X connect 19 0 7 1;
#X connect 19 0 8 1;
#X connect 20 0 21 0;
#X connect 21 0 18 0;
#X connect 21 1 17 0;
#X connect 22 0 15 0;
#X connect 23 0 39 0;
#X connect 24 0 11 0;
#X connect 25 0 37 0;
#X connect 25 0 36 0;
#X connect 25 0 35 0;
#X connect 25 0 38 0;
#X connect 26 0 7 0;
#X connect 27 0 26 1;
#X connect 27 0 30 1;
#X connect 28 0 26 1;
#X connect 29 0 24 0;
#X connect 30 0 8 0;
#X connect 31 0 30 1;
#X connect 32 0 27 0;
#X connect 33 0 25 0;
#X connect 34 0 30 0;
#X connect 35 0 31 0;
#X connect 36 0 28 0;
#X connect 37 0 23 0;
#X connect 38 0 29 0;
#X connect 39 0 26 0;
