#N canvas 822 154 942 473 10;
#X obj 246 408 scopeXYZ~ 2048;
#X obj 227 369 inlet;
#X obj 542 200 *~;
#X obj 543 74 r~ channel\$1;
#X obj 272 194 r frequency\$1;
#X obj 557 103 r amplitude\$1;
#X obj 272 354 *~;
#X obj 300 354 *~;
#X obj 393 36 loadbang;
#X floatatom 310 227 5 0 0 0 - - -, f 5;
#X msg 452 63 0.5;
#X obj 499 227 *~;
#X obj 542 320 *~;
#X obj 680 209 unpack;
#X msg 699 164 0 1;
#X msg 680 135 1 0;
#X obj 500 337 +~;
#X obj 680 64 r toggle_amp;
#X obj 680 90 sel 0 1;
#X obj 543 259 expr~ (pow($v1 \, 0.5));
#X obj 339 256 * 0.5;
#X obj 632 39 loadbang;
#X msg 632 72 1;
#X obj 272 263 osc~ 30;
#X obj 300 284 osc~ 30;
#X obj 452 36 r reset_phase\$1;
#X obj 310 95 r phase_\$1;
#X msg 391 294 0;
#X text 417 295 REMOVE?;
#X text 367 69 REMOVE?;
#X obj 169 114 metro 100;
#X obj 177 86 tgl 15 0 empty empty empty 17 7 0 10 -262144 -1 -1 1
1;
#X obj 192 21 loadbang;
#X msg 183 51 1;
#X obj 245 143 f;
#X connect 1 0 0 0;
#X connect 2 0 11 0;
#X connect 2 0 19 0;
#X connect 3 0 2 0;
#X connect 4 0 23 0;
#X connect 5 0 2 1;
#X connect 6 0 0 1;
#X connect 7 0 0 2;
#X connect 8 0 10 0;
#X connect 9 0 20 0;
#X connect 9 0 23 1;
#X connect 10 0 9 0;
#X connect 10 0 27 0;
#X connect 11 0 16 0;
#X connect 12 0 16 1;
#X connect 13 0 11 1;
#X connect 13 1 12 1;
#X connect 14 0 13 0;
#X connect 15 0 13 0;
#X connect 16 0 6 1;
#X connect 16 0 7 1;
#X connect 17 0 18 0;
#X connect 18 0 15 0;
#X connect 18 1 14 0;
#X connect 19 0 12 0;
#X connect 20 0 24 1;
#X connect 21 0 22 0;
#X connect 22 0 18 0;
#X connect 23 0 6 0;
#X connect 24 0 7 0;
#X connect 25 0 10 0;
#X connect 26 0 34 1;
#X connect 27 0 0 3;
#X connect 30 0 34 0;
#X connect 31 0 30 0;
#X connect 32 0 33 0;
#X connect 33 0 31 0;
#X connect 34 0 9 0;
