#N canvas 864 89 450 521 10;
#X obj 135 41 inlet;
#X obj 140 412 outlet;
#X obj 135 234 timer;
#X obj 162 205 metro 50;
#X msg 135 176 tempo 50 msec;
#X obj 57 158 loadbang;
#X obj 135 128 tgl 30 0 empty empty empty 17 7 0 10 -262144 -1 -1 0
1;
#X obj 140 349 -;
#X obj 154 323 spigot;
#X msg 181 261 1;
#X msg 209 266 0;
#X obj 127 277 t f f;
#X obj 242 233 sel 1;
#X connect 0 0 6 0;
#X connect 2 0 11 0;
#X connect 3 0 2 1;
#X connect 4 0 2 0;
#X connect 5 0 4 0;
#X connect 5 0 9 0;
#X connect 6 0 2 0;
#X connect 6 0 3 0;
#X connect 6 0 12 0;
#X connect 7 0 1 0;
#X connect 8 0 7 1;
#X connect 9 0 8 1;
#X connect 10 0 8 1;
#X connect 11 0 7 0;
#X connect 11 1 8 0;
#X connect 12 0 10 0;
#X connect 12 1 9 0;
