#N canvas 691 209 700 759 10;
#X obj 135 11 inlet;
#X obj 135 461 outlet;
#X obj 135 48 tgl 30 0 empty empty empty 17 7 0 10 -262144 -1 -1 0
1;
#X obj 135 201 bng 15 250 50 0 empty empty empty 17 7 0 10 -262144
-1 -1;
#X floatatom 135 273 5 0 0 0 - - -, f 5;
#X obj 135 311 int;
#X floatatom 135 350 5 0 0 0 - - -, f 5;
#X obj 135 234 timer;
#X obj 135 89 sel 0 1;
#X msg 194 154 1;
#X msg 156 154 0;
#X obj 162 190 metro 50;
#X obj 135 388 / 1000;
#X floatatom 135 423 5 0 0 0 - - -, f 5;
#X obj 72 130 t b b;
#X obj 166 117 t b b;
#X connect 0 0 2 0;
#X connect 2 0 8 0;
#X connect 3 0 7 0;
#X connect 4 0 5 0;
#X connect 5 0 6 0;
#X connect 6 0 12 0;
#X connect 7 0 4 0;
#X connect 8 0 14 0;
#X connect 8 1 15 0;
#X connect 9 0 11 0;
#X connect 10 0 11 0;
#X connect 11 0 7 1;
#X connect 12 0 13 0;
#X connect 13 0 1 0;
#X connect 14 0 3 0;
#X connect 14 1 10 0;
#X connect 15 0 9 0;
#X connect 15 1 3 0;
