#N canvas 67 320 1770 727 10;
#X obj 294 324 unpack s s s;
#X msg 284 232 right center left;
#X obj 267 319 bng 15 250 50 0 empty empty empty 17 7 0 10 -262144
-1 -1;
#X obj 267 346 s push;
#X msg 301 203 center right left;
#X obj 267 290 t b a;
#X text 397 232 Swap;
#X text 413 203 Shift Right;
#X msg 267 261 right left center;
#X text 376 261 Shift Left;
#X text 422 328 Lower Left;
#X text 420 358 Upper Middle;
#X text 421 386 Lower Right;
#X obj 267 136 inlet;
#X obj 267 174 sel 0 1 2;
#X obj 500 136 inlet;
#X obj 692 279 t b b b;
#X obj 596 279 t b b b;
#X obj 885 279 t b b b;
#X obj 789 279 t b b b;
#X obj 500 279 t b b b;
#X text 506 256 CENTER;
#X obj 500 180 sel 0 1 2 3 4 5 6, f 113;
#X obj 294 375 trader-switchers;
#X msg 500 386 0 0;
#X msg 539 328 0 0;
#X msg 519 357 0 0;
#X text 605 256 FACE;
#X text 701 256 TRIANGLE;
#X text 797 256 HORIZONTAL;
#X text 894 256 VERTICAL;
#X msg 635 328 -0.867 0.5;
#X msg 615 357 0 -1;
#X msg 596 386 0.867 0.5;
#X msg 692 386 0.867 -0.5;
#X msg 711 357 0 1;
#X msg 731 328 -0.867 -0.5;
#X msg 789 386 1 0;
#X msg 808 357 0 0;
#X msg 828 328 -1 0;
#X msg 885 386 0 -1;
#X msg 904 357 0 0;
#X msg 924 328 0 1;
#X obj 1000 346 s x_y_absolute-2-receive;
#X obj 1000 375 s x_y_absolute-1-receive;
#X obj 1000 404 s x_y_absolute-0-receive;
#X obj 1161 346 s x_y_absolute-5-receive;
#X obj 1161 375 s x_y_absolute-4-receive;
#X obj 1161 404 s x_y_absolute-3-receive;
#X connect 0 0 23 0;
#X connect 0 1 23 1;
#X connect 0 2 23 2;
#X connect 1 0 5 0;
#X connect 2 0 3 0;
#X connect 4 0 5 0;
#X connect 5 0 2 0;
#X connect 5 1 0 0;
#X connect 8 0 5 0;
#X connect 13 0 14 0;
#X connect 14 0 8 0;
#X connect 14 1 1 0;
#X connect 14 2 4 0;
#X connect 15 0 22 0;
#X connect 16 0 34 0;
#X connect 16 1 35 0;
#X connect 16 2 36 0;
#X connect 17 0 33 0;
#X connect 17 1 32 0;
#X connect 17 2 31 0;
#X connect 18 0 40 0;
#X connect 18 1 41 0;
#X connect 18 2 42 0;
#X connect 19 0 37 0;
#X connect 19 1 38 0;
#X connect 19 2 39 0;
#X connect 20 0 24 0;
#X connect 20 1 26 0;
#X connect 20 2 25 0;
#X connect 22 0 20 0;
#X connect 22 1 17 0;
#X connect 22 2 16 0;
#X connect 22 3 19 0;
#X connect 22 4 18 0;
#X connect 24 0 45 0;
#X connect 24 0 48 0;
#X connect 25 0 43 0;
#X connect 25 0 46 0;
#X connect 26 0 44 0;
#X connect 26 0 47 0;
#X connect 31 0 43 0;
#X connect 31 0 46 0;
#X connect 32 0 44 0;
#X connect 32 0 47 0;
#X connect 33 0 45 0;
#X connect 33 0 48 0;
#X connect 34 0 45 0;
#X connect 34 0 48 0;
#X connect 35 0 44 0;
#X connect 35 0 47 0;
#X connect 36 0 43 0;
#X connect 36 0 46 0;
#X connect 37 0 45 0;
#X connect 37 0 48 0;
#X connect 38 0 44 0;
#X connect 38 0 47 0;
#X connect 39 0 43 0;
#X connect 39 0 46 0;
#X connect 40 0 45 0;
#X connect 40 0 48 0;
#X connect 41 0 44 0;
#X connect 41 0 47 0;
#X connect 42 0 43 0;
#X connect 42 0 46 0;
