#N canvas 382 186 1164 802 10;
#X obj 42 294 inlet;
#X obj 288 294 inlet;
#X obj 566 294 inlet;
#X msg 120 457 right -1 0 \;;
#X obj 120 486 route left center right;
#X msg 376 457 left 0 0 \;;
#X obj 376 486 route left center right;
#X msg 654 457 center 1 0 \;;
#X msg 608 397 set;
#X msg 585 418 set \$1;
#X obj 654 486 route left center right;
#X msg 120 387 -0.867 -0.5;
#X msg 654 386 0.867 -0.5;
#X msg 376 382 0 1;
#X obj 566 368 t b a b;
#X obj 562 439 r push;
#X msg 327 393 set;
#X msg 307 415 set \$1;
#X obj 288 364 t b a b;
#X obj 284 438 r push;
#X msg 81 398 set;
#X msg 61 427 set \$1;
#X obj 42 369 t b a b;
#X obj 62 449 r push;
#X obj 421 545 s translator1_linear;
#X obj 699 541 s translator1_linear;
#X obj 210 507 s translator2_linear;
#X obj 130 329 r translator0_linear;
#X obj 396 324 r translator1_linear;
#X obj 674 324 r translator2_linear;
#X obj 120 549 s translator0_linear;
#X obj 165 528 s translator1_linear;
#X obj 376 523 s translator0_linear;
#X obj 504 522 s translator2_linear;
#X obj 654 519 s translator0_linear;
#X obj 791 520 s translator2_linear;
#X obj 93 178 r translator0_polar;
#X obj 93 207 unpack;
#X obj 93 289 *;
#X obj 156 289 *;
#X obj 120 307 pack;
#X obj 93 236 t f f;
#X obj 348 203 unpack;
#X obj 348 284 *;
#X obj 411 284 *;
#X obj 376 302 pack;
#X obj 348 232 t f f;
#X obj 625 203 unpack;
#X obj 625 284 *;
#X obj 688 284 *;
#X obj 654 302 pack;
#X obj 625 232 t f f;
#X obj 348 174 r translator1_polar;
#X obj 625 174 r translator2_polar;
#X msg 120 358 set \$1 \$2;
#X msg 376 353 set \$1 \$2;
#X msg 654 355 set \$1 \$2;
#X msg 120 416 add \$1 \$2;
#X msg 376 414 add \$1 \$2;
#X msg 654 417 add \$1 \$2;
#X obj 93 260 cos;
#X obj 156 260 sin;
#X obj 348 255 cos;
#X obj 411 255 sin;
#X obj 625 255 cos;
#X obj 688 255 sin;
#X obj 851 490 s from_trader_switchers;
#X obj 824 475 bng 15 250 50 0 empty empty empty 17 7 0 10 -262144
-1 -1;
#X obj 120 619 s translator3_linear;
#X obj 165 598 s translator4_linear;
#X obj 210 577 s translator5_linear;
#X obj 376 623 s translator3_linear;
#X obj 421 602 s translator4_linear;
#X obj 466 581 s translator5_linear;
#X obj 654 608 s translator3_linear;
#X obj 699 587 s translator4_linear;
#X obj 744 566 s translator5_linear;
#X connect 0 0 22 0;
#X connect 1 0 18 0;
#X connect 2 0 14 0;
#X connect 3 0 4 0;
#X connect 3 0 67 0;
#X connect 4 0 30 0;
#X connect 4 0 68 0;
#X connect 4 1 31 0;
#X connect 4 1 69 0;
#X connect 4 2 26 0;
#X connect 4 2 70 0;
#X connect 5 0 6 0;
#X connect 5 0 67 0;
#X connect 6 0 32 0;
#X connect 6 0 71 0;
#X connect 6 1 24 0;
#X connect 6 1 72 0;
#X connect 6 2 33 0;
#X connect 6 2 73 0;
#X connect 7 0 10 0;
#X connect 7 0 67 0;
#X connect 8 0 7 0;
#X connect 9 0 7 0;
#X connect 10 0 34 0;
#X connect 10 0 74 0;
#X connect 10 1 25 0;
#X connect 10 1 75 0;
#X connect 10 2 35 0;
#X connect 10 2 76 0;
#X connect 11 0 57 0;
#X connect 12 0 59 0;
#X connect 13 0 58 0;
#X connect 14 0 12 0;
#X connect 14 1 9 0;
#X connect 14 2 8 0;
#X connect 15 0 7 0;
#X connect 16 0 5 0;
#X connect 17 0 5 0;
#X connect 18 0 13 0;
#X connect 18 1 17 0;
#X connect 18 2 16 0;
#X connect 19 0 5 0;
#X connect 20 0 3 0;
#X connect 21 0 3 0;
#X connect 22 0 11 0;
#X connect 22 1 21 0;
#X connect 22 2 20 0;
#X connect 23 0 3 0;
#X connect 27 0 54 0;
#X connect 28 0 55 0;
#X connect 29 0 56 0;
#X connect 36 0 37 0;
#X connect 37 0 41 0;
#X connect 37 1 38 1;
#X connect 37 1 39 1;
#X connect 38 0 40 0;
#X connect 39 0 40 1;
#X connect 40 0 54 0;
#X connect 41 0 60 0;
#X connect 41 1 61 0;
#X connect 42 0 46 0;
#X connect 42 1 43 1;
#X connect 42 1 44 1;
#X connect 43 0 45 0;
#X connect 44 0 45 1;
#X connect 45 0 55 0;
#X connect 46 0 62 0;
#X connect 46 1 63 0;
#X connect 47 0 51 0;
#X connect 47 1 48 1;
#X connect 47 1 49 1;
#X connect 48 0 50 0;
#X connect 49 0 50 1;
#X connect 50 0 56 0;
#X connect 51 0 64 0;
#X connect 51 1 65 0;
#X connect 52 0 42 0;
#X connect 53 0 47 0;
#X connect 54 0 11 0;
#X connect 55 0 13 0;
#X connect 56 0 12 0;
#X connect 57 0 3 0;
#X connect 58 0 5 0;
#X connect 59 0 7 0;
#X connect 60 0 38 0;
#X connect 61 0 39 0;
#X connect 62 0 43 0;
#X connect 63 0 44 0;
#X connect 64 0 48 0;
#X connect 65 0 49 0;
#X connect 67 0 66 0;
