#N canvas 67 320 1770 727 10;
#X text 422 328 Lower Left;
#X text 420 358 Upper Middle;
#X text 421 386 Lower Right;
#X obj 500 136 inlet;
#X obj 693 279 t b b b;
#X obj 596 279 t b b b;
#X obj 886 279 t b b b;
#X obj 789 279 t b b b;
#X obj 500 279 t b b b;
#X text 506 256 CENTER;
#X msg 500 386 0 0;
#X msg 539 328 0 0;
#X msg 519 357 0 0;
#X text 605 256 FACE;
#X text 702 256 TRIANGLE;
#X text 797 256 HORIZONTAL;
#X text 895 256 VERTICAL;
#X msg 635 328 -0.867 0.5;
#X msg 615 357 0 -1;
#X msg 596 386 0.867 0.5;
#X msg 693 386 0.867 -0.5;
#X msg 712 357 0 1;
#X msg 732 328 -0.867 -0.5;
#X msg 789 386 1 0;
#X msg 808 357 0 0;
#X msg 828 328 -1 0;
#X msg 886 386 0 -1;
#X msg 905 357 0 0;
#X msg 925 328 0 1;
#X obj 1000 346 s x_y_absolute-2-receive;
#X obj 1000 375 s x_y_absolute-1-receive;
#X obj 1000 404 s x_y_absolute-0-receive;
#X obj 1161 346 s x_y_absolute-5-receive;
#X obj 1161 375 s x_y_absolute-4-receive;
#X obj 1161 404 s x_y_absolute-3-receive;
#X obj 500 180 sel center face triangle horizontal vertical, f 81
;
#X connect 3 0 35 0;
#X connect 4 0 20 0;
#X connect 4 1 21 0;
#X connect 4 2 22 0;
#X connect 5 0 19 0;
#X connect 5 1 18 0;
#X connect 5 2 17 0;
#X connect 6 0 26 0;
#X connect 6 1 27 0;
#X connect 6 2 28 0;
#X connect 7 0 23 0;
#X connect 7 1 24 0;
#X connect 7 2 25 0;
#X connect 8 0 10 0;
#X connect 8 1 12 0;
#X connect 8 2 11 0;
#X connect 10 0 31 0;
#X connect 10 0 34 0;
#X connect 11 0 29 0;
#X connect 11 0 32 0;
#X connect 12 0 30 0;
#X connect 12 0 33 0;
#X connect 17 0 29 0;
#X connect 17 0 32 0;
#X connect 18 0 30 0;
#X connect 18 0 33 0;
#X connect 19 0 31 0;
#X connect 19 0 34 0;
#X connect 20 0 31 0;
#X connect 20 0 34 0;
#X connect 21 0 30 0;
#X connect 21 0 33 0;
#X connect 22 0 29 0;
#X connect 22 0 32 0;
#X connect 23 0 31 0;
#X connect 23 0 34 0;
#X connect 24 0 30 0;
#X connect 24 0 33 0;
#X connect 25 0 29 0;
#X connect 25 0 32 0;
#X connect 26 0 31 0;
#X connect 26 0 34 0;
#X connect 27 0 30 0;
#X connect 27 0 33 0;
#X connect 28 0 29 0;
#X connect 28 0 32 0;
#X connect 35 0 8 0;
#X connect 35 1 5 0;
#X connect 35 2 4 0;
#X connect 35 3 7 0;
#X connect 35 4 6 0;
