#N canvas 57 128 1502 818 10;
#X msg 99 616 right 0 0.5 0 \;;
#X obj 257 356 unpack s s s;
#X obj 88 652 route left center right;
#X msg 230 237 right center left;
#X msg 379 616 center 0 0 0 \;;
#X obj 368 652 route left center right;
#X msg 697 630 left 0 -0.5 0 \;;
#X msg 648 557 set;
#X msg 628 586 set \$1;
#X obj 686 666 route left center right;
#X msg 99 532 -1 -1 1;
#X obj 99 456 r toring1;
#X obj 379 453 r toring2;
#X obj 697 454 r toring3;
#X obj 178 689 s toring3;
#X obj 133 711 s toring2;
#X obj 88 689 s toring1;
#X obj 458 689 s toring3;
#X obj 413 711 s toring2;
#X obj 368 689 s toring1;
#X obj 776 703 s toring3;
#X obj 731 725 s toring2;
#X obj 686 703 s toring1;
#X msg 697 546 1 -1 1;
#X msg 379 532 0 1 1;
#X obj 230 358 bng 15 250 50 0 empty empty empty 17 7 0 10 -262144
-1 -1;
#X obj 230 392 s push;
#X obj 609 528 t b a b;
#X obj 605 612 r push;
#X msg 330 543 set;
#X msg 310 572 set \$1;
#X obj 291 514 t b a b;
#X obj 287 598 r push;
#X msg 60 543 set;
#X msg 40 572 set \$1;
#X obj 41 428 t b a b;
#X obj 17 598 r push;
#X msg 230 264 center right left;
#X obj 230 322 t b a;
#X text 343 237 Swap;
#X text 342 264 Shift Right;
#X msg 230 206 right left center;
#X text 339 206 Shift Left;
#X text 1017 232 Lower Left;
#X text 1012 272 Upper Middle;
#X text 1019 310 Lower Right;
#X obj 230 46 inlet;
#X obj 230 134 sel 0 1 2;
#X obj 816 7 inlet;
#X obj 1134 249 s toring1;
#X obj 1134 289 s toring2;
#X obj 1134 328 s toring3;
#X obj 946 151 t b b b;
#X obj 1136 54 t b b b;
#X text 997 150 Triangle;
#X text 1188 52 Face;
#X obj 1254 185 t b b b;
#X text 1307 185 Vertical;
#X obj 1162 396 t b b b;
#X text 1188 385 Horizontal;
#X msg 1152 502 0 0 0;
#X msg 1273 271 0 0 0;
#X msg 99 494 set \$1 \$2 \$3;
#X msg 379 494 set \$1 \$2 \$3;
#X msg 697 508 set \$1 \$2 \$3;
#X msg 99 571 add \$1 \$2 \$3;
#X msg 379 571 add \$1 \$2 \$3;
#X msg 697 585 add \$1 \$2 \$3;
#X msg 964 468 0 0 0;
#X msg 965 497 0 0 0;
#X msg 965 526 0 0 0;
#X obj 964 439 t b b b;
#X obj 1121 25 sel 0 1 2 3 4;
#X text 919 415 CENTER;
#X msg 1115 467 -1 0 1;
#X msg 1134 554 1 0 1;
#X msg 1253 310 0 -1 1;
#X msg 1253 231 0 1 1;
#X msg 1134 121 0 -0.5 1;
#X msg 946 231 -1 -0.5 1;
#X msg 946 310 1 -0.5 1;
#X msg 946 271 0 0.5 1;
#X msg 1135 91 -1 0.5 1;
#X msg 1134 160 1 0.5 1;
#X connect 0 0 2 0;
#X connect 1 0 35 0;
#X connect 1 1 31 0;
#X connect 1 2 27 0;
#X connect 2 0 16 0;
#X connect 2 1 15 0;
#X connect 2 2 14 0;
#X connect 3 0 38 0;
#X connect 4 0 5 0;
#X connect 5 0 19 0;
#X connect 5 1 18 0;
#X connect 5 2 17 0;
#X connect 6 0 9 0;
#X connect 7 0 6 0;
#X connect 8 0 6 0;
#X connect 9 0 22 0;
#X connect 9 1 21 0;
#X connect 9 2 20 0;
#X connect 10 0 65 0;
#X connect 11 0 62 0;
#X connect 12 0 63 0;
#X connect 13 0 64 0;
#X connect 23 0 67 0;
#X connect 24 0 66 0;
#X connect 25 0 26 0;
#X connect 27 0 23 0;
#X connect 27 1 8 0;
#X connect 27 2 7 0;
#X connect 28 0 6 0;
#X connect 29 0 4 0;
#X connect 30 0 4 0;
#X connect 31 0 24 0;
#X connect 31 1 30 0;
#X connect 31 2 29 0;
#X connect 32 0 4 0;
#X connect 33 0 0 0;
#X connect 34 0 0 0;
#X connect 35 0 10 0;
#X connect 35 1 34 0;
#X connect 35 2 33 0;
#X connect 36 0 0 0;
#X connect 37 0 38 0;
#X connect 38 0 25 0;
#X connect 38 1 1 0;
#X connect 41 0 38 0;
#X connect 46 0 47 0;
#X connect 47 0 41 0;
#X connect 47 1 3 0;
#X connect 47 2 37 0;
#X connect 48 0 72 0;
#X connect 52 0 80 0;
#X connect 52 1 81 0;
#X connect 52 2 79 0;
#X connect 53 0 83 0;
#X connect 53 1 78 0;
#X connect 53 2 82 0;
#X connect 56 0 76 0;
#X connect 56 1 61 0;
#X connect 56 2 77 0;
#X connect 58 0 74 0;
#X connect 58 1 75 0;
#X connect 58 2 60 0;
#X connect 60 0 50 0;
#X connect 61 0 50 0;
#X connect 62 0 10 0;
#X connect 63 0 24 0;
#X connect 64 0 23 0;
#X connect 65 0 0 0;
#X connect 66 0 4 0;
#X connect 67 0 6 0;
#X connect 68 0 49 0;
#X connect 69 0 50 0;
#X connect 70 0 51 0;
#X connect 71 0 70 0;
#X connect 71 1 69 0;
#X connect 71 2 68 0;
#X connect 72 0 52 0;
#X connect 72 1 53 0;
#X connect 72 2 56 0;
#X connect 72 3 58 0;
#X connect 72 4 71 0;
#X connect 74 0 49 0;
#X connect 75 0 51 0;
#X connect 76 0 51 0;
#X connect 77 0 49 0;
#X connect 78 0 50 0;
#X connect 79 0 49 0;
#X connect 80 0 51 0;
#X connect 81 0 50 0;
#X connect 82 0 49 0;
#X connect 83 0 51 0;
