#N canvas 313 217 1164 802 10;
#X obj 72 164 inlet;
#X obj 318 164 inlet;
#X obj 596 164 inlet;
#X msg 150 327 center 0.867 0.5 \;;
#X obj 150 356 route left center right;
#X msg 406 327 right 0 -1 \;;
#X obj 406 356 route left center right;
#X msg 684 327 left -0.867 0.5 \;;
#X msg 638 267 set;
#X msg 615 288 set \$1;
#X obj 684 356 route left center right;
#X msg 150 257 0.867 0.5;
#X msg 684 256 -0.867 0.5;
#X msg 406 252 0 -1;
#X obj 596 238 t b a b;
#X obj 592 309 r push;
#X msg 357 263 set;
#X msg 337 285 set \$1;
#X obj 318 234 t b a b;
#X obj 324 309 r push;
#X msg 120 264 set;
#X msg 91 297 set \$1;
#X obj 72 239 t b a b;
#X obj 43 309 r push;
#X msg 150 228 set \$1 \$2;
#X msg 406 223 set \$1 \$2;
#X msg 684 225 set \$1 \$2;
#X msg 150 286 add \$1 \$2;
#X msg 406 284 add \$1 \$2;
#X msg 684 287 add \$1 \$2;
#X obj 254 477 r absolute_splitter_0;
#X obj 444 477 r absolute_splitter_1;
#X obj 634 477 r absolute_splitter_2;
#X obj 150 429 s absolute_splitter_0;
#X obj 240 387 s absolute_splitter_2;
#X obj 195 408 s absolute_splitter_1;
#X obj 406 429 s absolute_splitter_0;
#X obj 496 387 s absolute_splitter_2;
#X obj 451 408 s absolute_splitter_1;
#X obj 684 427 s absolute_splitter_0;
#X obj 774 385 s absolute_splitter_2;
#X obj 729 406 s absolute_splitter_1;
#X obj 254 516 s x_y_absolute-0-receive;
#X obj 254 546 s x_y_absolute-3-receive;
#X obj 444 516 s x_y_absolute-1-receive;
#X obj 444 546 s x_y_absolute-4-receive;
#X obj 634 516 s x_y_absolute-2-receive;
#X obj 634 546 s x_y_absolute-5-receive;
#X obj 150 199 r x_y_absolute-0-input;
#X obj 407 195 r x_y_absolute-1-input;
#X obj 684 196 r x_y_absolute-2-input;
#X connect 0 0 22 0;
#X connect 1 0 18 0;
#X connect 2 0 14 0;
#X connect 3 0 4 0;
#X connect 4 0 33 0;
#X connect 4 1 35 0;
#X connect 4 2 34 0;
#X connect 5 0 6 0;
#X connect 6 0 36 0;
#X connect 6 1 38 0;
#X connect 6 2 37 0;
#X connect 7 0 10 0;
#X connect 8 0 7 0;
#X connect 9 0 7 0;
#X connect 10 0 39 0;
#X connect 10 1 41 0;
#X connect 10 2 40 0;
#X connect 11 0 27 0;
#X connect 12 0 29 0;
#X connect 13 0 28 0;
#X connect 14 0 12 0;
#X connect 14 1 9 0;
#X connect 14 2 8 0;
#X connect 15 0 7 0;
#X connect 16 0 5 0;
#X connect 17 0 5 0;
#X connect 18 0 13 0;
#X connect 18 1 17 0;
#X connect 18 2 16 0;
#X connect 19 0 5 0;
#X connect 20 0 3 0;
#X connect 21 0 3 0;
#X connect 22 0 11 0;
#X connect 22 1 21 0;
#X connect 22 2 20 0;
#X connect 23 0 3 0;
#X connect 24 0 11 0;
#X connect 25 0 13 0;
#X connect 26 0 12 0;
#X connect 27 0 3 0;
#X connect 28 0 5 0;
#X connect 29 0 7 0;
#X connect 30 0 42 0;
#X connect 30 0 43 0;
#X connect 31 0 44 0;
#X connect 31 0 45 0;
#X connect 32 0 46 0;
#X connect 32 0 47 0;
#X connect 48 0 24 0;
#X connect 49 0 25 0;
#X connect 50 0 26 0;
