#N canvas 67 411 1164 669 10;
#X obj 42 190 inlet;
#X obj 288 190 inlet;
#X obj 606 198 inlet;
#X msg 120 484 right -0.867 0.5 \;;
#X obj 120 505 route left center right;
#X msg 376 465 center 0 -1 \;;
#X obj 365 501 route left center right;
#X msg 694 470 left 0.867 0.5 \;;
#X msg 648 397 set;
#X msg 625 426 set \$1;
#X obj 683 506 route left center right;
#X msg 120 394 -1 0;
#X msg 694 386 1 0;
#X msg 376 382 0 0;
#X obj 606 368 t b a b;
#X obj 602 452 r push;
#X msg 327 393 set;
#X msg 307 421 set \$1;
#X obj 288 364 t b a b;
#X obj 284 447 r push;
#X msg 81 405 set;
#X msg 61 434 set \$1;
#X obj 42 376 t b a b;
#X obj 62 466 r push;
#X obj 410 560 s translator1_linear;
#X obj 728 561 s translator1_linear;
#X obj 210 526 s translator2_linear;
#X obj 130 272 r translator0_linear;
#X obj 396 272 r translator1_linear;
#X obj 714 274 r translator2_linear;
#X obj 120 568 s translator0_linear;
#X obj 165 547 s translator1_linear;
#X obj 365 538 s translator0_linear;
#X obj 493 537 s translator2_linear;
#X obj 683 539 s translator0_linear;
#X obj 820 540 s translator2_linear;
#X obj 96 31 r translator0_polar;
#X obj 96 60 unpack;
#X obj 96 168 *;
#X obj 159 168 *;
#X obj 120 198 pack;
#X obj 96 89 t f f;
#X obj 352 60 unpack;
#X obj 352 168 *;
#X obj 415 168 *;
#X obj 376 198 pack;
#X obj 352 89 t f f;
#X obj 670 60 unpack;
#X obj 670 168 *;
#X obj 733 168 *;
#X obj 694 198 pack;
#X obj 670 89 t f f;
#X obj 352 31 r translator1_polar;
#X obj 670 31 r translator2_polar;
#X msg 120 311 set \$1 \$2;
#X msg 376 311 set \$1 \$2;
#X msg 694 313 set \$1 \$2;
#X msg 120 433 add \$1 \$2;
#X msg 376 420 add \$1 \$2;
#X msg 694 425 add \$1 \$2;
#X obj 96 129 cos;
#X obj 159 129 sin;
#X obj 352 129 cos;
#X obj 415 129 sin;
#X obj 670 129 cos;
#X obj 733 129 sin;
#X obj 695 686 s from_trader_switchers;
#X obj 695 661 bng 15 250 50 0 empty empty empty 17 7 0 10 -262144
-1 -1;
#X obj 120 638 s translator3_linear;
#X obj 165 617 s translator4_linear;
#X obj 210 596 s translator5_linear;
#X obj 365 638 s translator3_linear;
#X obj 410 617 s translator4_linear;
#X obj 455 596 s translator5_linear;
#X obj 683 628 s translator3_linear;
#X obj 728 607 s translator4_linear;
#X obj 773 586 s translator5_linear;
#X connect 0 0 22 0;
#X connect 1 0 18 0;
#X connect 2 0 14 0;
#X connect 3 0 4 0;
#X connect 3 0 67 0;
#X connect 4 0 30 0;
#X connect 4 0 68 0;
#X connect 4 1 31 0;
#X connect 4 1 69 0;
#X connect 4 2 26 0;
#X connect 4 2 70 0;
#X connect 5 0 6 0;
#X connect 5 0 67 0;
#X connect 6 0 32 0;
#X connect 6 0 71 0;
#X connect 6 1 24 0;
#X connect 6 1 72 0;
#X connect 6 2 33 0;
#X connect 6 2 73 0;
#X connect 7 0 10 0;
#X connect 7 0 67 0;
#X connect 8 0 7 0;
#X connect 9 0 7 0;
#X connect 10 0 34 0;
#X connect 10 0 74 0;
#X connect 10 1 25 0;
#X connect 10 1 75 0;
#X connect 10 2 35 0;
#X connect 10 2 76 0;
#X connect 11 0 57 0;
#X connect 12 0 59 0;
#X connect 13 0 58 0;
#X connect 14 0 12 0;
#X connect 14 1 9 0;
#X connect 14 2 8 0;
#X connect 15 0 7 0;
#X connect 16 0 5 0;
#X connect 17 0 5 0;
#X connect 18 0 13 0;
#X connect 18 1 17 0;
#X connect 18 2 16 0;
#X connect 19 0 5 0;
#X connect 20 0 3 0;
#X connect 21 0 3 0;
#X connect 22 0 11 0;
#X connect 22 1 21 0;
#X connect 22 2 20 0;
#X connect 23 0 3 0;
#X connect 27 0 54 0;
#X connect 28 0 55 0;
#X connect 29 0 56 0;
#X connect 36 0 37 0;
#X connect 37 0 41 0;
#X connect 37 1 38 1;
#X connect 37 1 39 1;
#X connect 38 0 40 0;
#X connect 39 0 40 1;
#X connect 40 0 54 0;
#X connect 41 0 60 0;
#X connect 41 1 61 0;
#X connect 42 0 46 0;
#X connect 42 1 43 1;
#X connect 42 1 44 1;
#X connect 43 0 45 0;
#X connect 44 0 45 1;
#X connect 45 0 55 0;
#X connect 46 0 62 0;
#X connect 46 1 63 0;
#X connect 47 0 51 0;
#X connect 47 1 48 1;
#X connect 47 1 49 1;
#X connect 48 0 50 0;
#X connect 49 0 50 1;
#X connect 50 0 56 0;
#X connect 51 0 64 0;
#X connect 51 1 65 0;
#X connect 52 0 42 0;
#X connect 53 0 47 0;
#X connect 54 0 11 0;
#X connect 55 0 13 0;
#X connect 56 0 12 0;
#X connect 57 0 3 0;
#X connect 58 0 5 0;
#X connect 59 0 7 0;
#X connect 60 0 38 0;
#X connect 61 0 39 0;
#X connect 62 0 43 0;
#X connect 63 0 44 0;
#X connect 64 0 48 0;
#X connect 65 0 49 0;
#X connect 67 0 66 0;
