#N canvas 67 202 1770 727 10;
#X obj 294 324 unpack s s s;
#X msg 284 232 right center left;
#X obj 267 319 bng 15 250 50 0 empty empty empty 17 7 0 10 -262144
-1 -1;
#X obj 267 346 s push;
#X msg 301 203 center right left;
#X obj 267 290 t b a;
#X text 397 232 Swap;
#X text 413 203 Shift Right;
#X msg 267 261 right left center;
#X text 376 261 Shift Left;
#X text 422 328 Lower Left;
#X text 420 358 Upper Middle;
#X text 421 386 Lower Right;
#X obj 267 136 inlet;
#X obj 267 174 sel 0 1 2;
#X obj 500 136 inlet;
#X obj 692 265 t b b b;
#X obj 596 238 t b b b;
#X text 697 243 Triangle;
#X obj 885 261 t b b b;
#X text 892 238 Vertical;
#X obj 789 257 t b b b;
#X text 795 236 Horizontal;
#X msg 808 357 0 0 0;
#X msg 904 357 0 0 0;
#X msg 539 328 0 0 0;
#X msg 519 357 0 0 0;
#X msg 500 386 0 0 0;
#X obj 500 299 t b b b;
#X text 512 273 CENTER;
#X msg 828 328 -1 0 1;
#X msg 789 386 1 0 1;
#X floatatom 603 496 5 0 0 0 - - -, f 5;
#X obj 603 524 * 6.28;
#X obj 603 550 pack;
#X floatatom 650 486 5 0 0 0 - - -, f 5;
#X floatatom 743 496 5 0 0 0 - - -, f 5;
#X obj 743 524 * 6.28;
#X obj 743 550 pack;
#X floatatom 790 486 5 0 0 0 - - -, f 5;
#X floatatom 893 492 5 0 0 0 - - -, f 5;
#X obj 893 520 * 6.28;
#X obj 893 550 pack;
#X floatatom 940 486 5 0 0 0 - - -, f 5;
#X floatatom 1106 469 5 0 0 0 - - -, f 5;
#X obj 1078 441 bng 15 250 50 0 empty empty empty 17 7 0 10 -262144
-1 -1;
#X obj 982 412 bng 15 250 50 0 empty empty empty 17 7 0 10 -262144
-1 -1;
#X obj 500 180 sel 0 1 2 3 4 5 6, f 113;
#X obj 1106 411 loadbang;
#X msg 1106 440 1;
#X msg 615 357 0 -1 0;
#X msg 711 357 0 1 0;
#X msg 924 328 0 1 0;
#X msg 885 386 0 -1 0;
#X msg 596 386 0.867 0.5 0;
#X msg 635 328 -0.867 0.5 0;
#X msg 731 328 -0.867 -0.5 0;
#X msg 692 386 0.867 -0.5 0;
#X msg 603 427 0.75;
#X msg 893 427 0.08333;
#X msg 744 427 0.42;
#X obj 294 375 trader-switchers;
#X text 604 217 Face Linear;
#X text 1135 441 Radius;
#X obj 603 579 s translator0_polar;
#X obj 743 579 s translator1_polar;
#X obj 893 579 s translator2_polar;
#X obj 1170 346 s translator0_linear;
#X obj 1170 375 s translator1_linear;
#X obj 1170 404 s translator2_linear;
#X msg 893 456 0.916;
#X msg 603 456 0.5833;
#X msg 743 456 0.25;
#X obj 1310 346 s translator3_linear;
#X obj 1310 375 s translator4_linear;
#X obj 1310 404 s translator5_linear;
#X obj 602 608 s translator3_polar;
#X obj 743 608 s translator4_polar;
#X obj 893 608 s translator5_polar;
#X connect 0 0 61 0;
#X connect 0 1 61 1;
#X connect 0 2 61 2;
#X connect 1 0 5 0;
#X connect 2 0 3 0;
#X connect 4 0 5 0;
#X connect 5 0 2 0;
#X connect 5 1 0 0;
#X connect 8 0 5 0;
#X connect 13 0 14 0;
#X connect 14 0 8 0;
#X connect 14 1 1 0;
#X connect 14 2 4 0;
#X connect 15 0 47 0;
#X connect 16 0 57 0;
#X connect 16 1 51 0;
#X connect 16 2 56 0;
#X connect 17 0 54 0;
#X connect 17 1 50 0;
#X connect 17 2 55 0;
#X connect 19 0 53 0;
#X connect 19 1 24 0;
#X connect 19 2 52 0;
#X connect 21 0 31 0;
#X connect 21 1 23 0;
#X connect 21 2 30 0;
#X connect 23 0 68 0;
#X connect 23 0 74 0;
#X connect 24 0 68 0;
#X connect 24 0 74 0;
#X connect 25 0 67 0;
#X connect 25 0 73 0;
#X connect 26 0 68 0;
#X connect 26 0 74 0;
#X connect 27 0 69 0;
#X connect 27 0 75 0;
#X connect 28 0 27 0;
#X connect 28 1 26 0;
#X connect 28 2 25 0;
#X connect 30 0 67 0;
#X connect 30 0 73 0;
#X connect 31 0 69 0;
#X connect 31 0 75 0;
#X connect 32 0 33 0;
#X connect 33 0 34 0;
#X connect 34 0 64 0;
#X connect 34 0 76 0;
#X connect 35 0 34 1;
#X connect 36 0 37 0;
#X connect 37 0 38 0;
#X connect 38 0 65 0;
#X connect 38 0 77 0;
#X connect 39 0 38 1;
#X connect 40 0 41 0;
#X connect 41 0 42 0;
#X connect 42 0 66 0;
#X connect 42 0 78 0;
#X connect 43 0 42 1;
#X connect 44 0 35 0;
#X connect 44 0 39 0;
#X connect 44 0 43 0;
#X connect 45 0 71 0;
#X connect 45 0 72 0;
#X connect 45 0 70 0;
#X connect 46 0 59 0;
#X connect 46 0 58 0;
#X connect 46 0 60 0;
#X connect 47 0 28 0;
#X connect 47 1 17 0;
#X connect 47 2 16 0;
#X connect 47 3 21 0;
#X connect 47 4 19 0;
#X connect 47 5 46 0;
#X connect 47 6 45 0;
#X connect 48 0 49 0;
#X connect 49 0 44 0;
#X connect 50 0 68 0;
#X connect 50 0 74 0;
#X connect 51 0 68 0;
#X connect 51 0 74 0;
#X connect 52 0 67 0;
#X connect 52 0 73 0;
#X connect 53 0 69 0;
#X connect 53 0 75 0;
#X connect 54 0 69 0;
#X connect 54 0 75 0;
#X connect 55 0 67 0;
#X connect 55 0 73 0;
#X connect 56 0 67 0;
#X connect 56 0 73 0;
#X connect 57 0 69 0;
#X connect 57 0 75 0;
#X connect 58 0 32 0;
#X connect 59 0 40 0;
#X connect 60 0 36 0;
#X connect 70 0 40 0;
#X connect 71 0 32 0;
#X connect 72 0 36 0;
