#N canvas 67 320 1770 727 10;
#X obj 294 324 unpack s s s;
#X msg 284 232 right center left;
#X obj 267 319 bng 15 250 50 0 empty empty empty 17 7 0 10 -262144
-1 -1;
#X obj 267 346 s push;
#X msg 301 203 center right left;
#X obj 267 290 t b a;
#X text 397 232 Swap;
#X text 413 203 Shift Right;
#X msg 267 261 right left center;
#X text 376 261 Shift Left;
#X text 422 328 Lower Left;
#X text 420 358 Upper Middle;
#X text 421 386 Lower Right;
#X obj 267 136 inlet;
#X obj 267 174 sel 0 1 2;
#X obj 500 136 inlet;
#X obj 692 279 t b b b;
#X obj 596 279 t b b b;
#X obj 885 279 t b b b;
#X obj 789 279 t b b b;
#X obj 500 279 t b b b;
#X text 506 256 CENTER;
#X msg 828 328 -1 0 1;
#X msg 789 386 1 0 1;
#X obj 500 180 sel 0 1 2 3 4 5 6, f 113;
#X msg 924 328 0 1 0;
#X msg 885 386 0 -1 0;
#X msg 596 386 0.867 0.5 0;
#X msg 635 328 -0.867 0.5 0;
#X msg 731 328 -0.867 -0.5 0;
#X msg 692 386 0.867 -0.5 0;
#X obj 294 375 trader-switchers;
#X obj 980 404 unpack;
#X msg 500 386 0 0;
#X msg 539 328 0 0;
#X obj 1136 375 unpack;
#X msg 519 357 0 0;
#X msg 615 357 0 -1 0;
#X msg 711 357 0 1 0;
#X msg 808 357 0 0 0;
#X msg 904 357 0 0 0;
#X obj 1292 346 unpack;
#X text 605 256 FACE;
#X text 701 256 TRIANGLE;
#X text 797 256 HORIZONTAL;
#X text 894 256 VERTICAL;
#X obj 980 493 s x_absolute_3;
#X obj 980 473 s x_absolute_0;
#X obj 1013 453 s y_absolute_3;
#X obj 1013 433 s y_absolute_0;
#X obj 1136 464 s x_absolute_4;
#X obj 1136 444 s x_absolute_1;
#X obj 1169 424 s y_absolute_4;
#X obj 1169 404 s y_absolute_1;
#X obj 1292 435 s x_absolute_5;
#X obj 1292 415 s x_absolute_2;
#X obj 1325 395 s y_absolute_5;
#X obj 1325 375 s y_absolute_2;
#X connect 0 0 31 0;
#X connect 0 1 31 1;
#X connect 0 2 31 2;
#X connect 1 0 5 0;
#X connect 2 0 3 0;
#X connect 4 0 5 0;
#X connect 5 0 2 0;
#X connect 5 1 0 0;
#X connect 8 0 5 0;
#X connect 13 0 14 0;
#X connect 14 0 8 0;
#X connect 14 1 1 0;
#X connect 14 2 4 0;
#X connect 15 0 24 0;
#X connect 16 0 30 0;
#X connect 16 1 38 0;
#X connect 16 2 29 0;
#X connect 17 0 27 0;
#X connect 17 1 37 0;
#X connect 17 2 28 0;
#X connect 18 0 26 0;
#X connect 18 1 40 0;
#X connect 18 2 25 0;
#X connect 19 0 23 0;
#X connect 19 1 39 0;
#X connect 19 2 22 0;
#X connect 20 0 33 0;
#X connect 20 1 36 0;
#X connect 20 2 34 0;
#X connect 22 0 41 0;
#X connect 23 0 32 0;
#X connect 24 0 20 0;
#X connect 24 1 17 0;
#X connect 24 2 16 0;
#X connect 24 3 19 0;
#X connect 24 4 18 0;
#X connect 25 0 41 0;
#X connect 26 0 32 0;
#X connect 27 0 32 0;
#X connect 28 0 41 0;
#X connect 29 0 41 0;
#X connect 30 0 32 0;
#X connect 32 0 46 0;
#X connect 32 0 47 0;
#X connect 32 1 48 0;
#X connect 32 1 49 0;
#X connect 33 0 32 0;
#X connect 34 0 41 0;
#X connect 35 0 50 0;
#X connect 35 0 51 0;
#X connect 35 1 52 0;
#X connect 35 1 53 0;
#X connect 36 0 35 0;
#X connect 37 0 35 0;
#X connect 38 0 35 0;
#X connect 39 0 35 0;
#X connect 40 0 35 0;
#X connect 41 0 54 0;
#X connect 41 0 55 0;
#X connect 41 1 56 0;
#X connect 41 1 57 0;
