#N canvas 651 259 980 669 10;
#X obj 40 46 inlet;
#X obj 281 60 inlet;
#X obj 610 68 inlet;
#X msg 120 354 center 0.867 0.5 0 \;;
#X obj 120 375 route left center right;
#X msg 376 335 right -0.867 0.5 0 \;;
#X obj 365 371 route left center right;
#X msg 694 340 left 0 -1 0 \;;
#X msg 645 267 set;
#X msg 625 296 set \$1;
#X obj 683 376 route left center right;
#X msg 120 312 -0.867 -0.5 0;
#X msg 694 256 0.867 -0.5 0;
#X msg 376 252 0 1 0;
#X obj 606 238 t b a b;
#X obj 602 322 r push;
#X msg 327 263 set;
#X msg 307 291 set \$1;
#X obj 288 234 t b a b;
#X obj 284 317 r push;
#X msg 81 275 set;
#X msg 61 304 set \$1;
#X obj 42 246 t b a b;
#X obj 62 336 r push;
#X msg 120 291 set \$1 \$2 \$3;
#X msg 376 231 set \$1 \$2 \$3;
#X msg 694 218 set \$1 \$2 \$3;
#X msg 120 333 add \$1 \$2 \$3;
#X msg 376 290 add \$1 \$2 \$3;
#X msg 694 295 add \$1 \$2 \$3;
#X obj 120 438 s translator1_linear;
#X obj 165 417 s translator2_linear;
#X obj 210 396 s translator3_linear;
#X obj 365 408 s translator1_linear;
#X obj 410 430 s translator2_linear;
#X obj 493 407 s translator3_linear;
#X obj 683 409 s translator1_linear;
#X obj 728 431 s translator2_linear;
#X obj 820 410 s translator3_linear;
#X obj 120 270 r translator1_linear;
#X obj 376 210 r translator2_linear;
#X obj 694 174 r translator3_linear;
#X connect 0 0 22 0;
#X connect 1 0 18 0;
#X connect 2 0 14 0;
#X connect 3 0 4 0;
#X connect 4 0 30 0;
#X connect 4 1 31 0;
#X connect 4 2 32 0;
#X connect 5 0 6 0;
#X connect 6 0 33 0;
#X connect 6 1 34 0;
#X connect 6 2 35 0;
#X connect 7 0 10 0;
#X connect 8 0 7 0;
#X connect 9 0 7 0;
#X connect 10 0 36 0;
#X connect 10 1 37 0;
#X connect 10 2 38 0;
#X connect 11 0 27 0;
#X connect 12 0 29 0;
#X connect 13 0 28 0;
#X connect 14 0 12 0;
#X connect 14 1 9 0;
#X connect 14 2 8 0;
#X connect 15 0 7 0;
#X connect 16 0 5 0;
#X connect 17 0 5 0;
#X connect 18 0 13 0;
#X connect 18 1 17 0;
#X connect 18 2 16 0;
#X connect 19 0 5 0;
#X connect 20 0 3 0;
#X connect 21 0 3 0;
#X connect 22 0 11 0;
#X connect 22 1 21 0;
#X connect 22 2 20 0;
#X connect 23 0 3 0;
#X connect 24 0 11 0;
#X connect 25 0 13 0;
#X connect 26 0 12 0;
#X connect 27 0 3 0;
#X connect 28 0 5 0;
#X connect 29 0 7 0;
#X connect 39 0 24 0;
#X connect 40 0 25 0;
#X connect 41 0 26 0;
