#N canvas 57 130 1766 818 10;
#X msg 99 626 right 0 -1 1 \;;
#X obj 257 356 unpack s s s;
#X obj 99 647 route left center right;
#X msg 230 237 right center left;
#X msg 379 616 left 0 0 0 \;;
#X obj 368 652 route left center right;
#X msg 697 620 center 0 1 1 \;;
#X msg 648 547 set;
#X msg 628 576 set \$1;
#X obj 686 656 route left center right;
#X msg 99 584 -1 0 1;
#X msg 697 536 1 0 1;
#X msg 379 532 0 0 0;
#X obj 230 358 bng 15 250 50 0 empty empty empty 17 7 0 10 -262144
-1 -1;
#X obj 230 392 s push;
#X obj 609 518 t b a b;
#X obj 605 602 r push;
#X msg 330 543 set;
#X msg 310 572 set \$1;
#X obj 291 514 t b a b;
#X obj 287 598 r push;
#X msg 60 573 set;
#X msg 40 602 set \$1;
#X obj 21 544 t b a b;
#X obj 41 634 r push;
#X msg 230 264 center right left;
#X obj 230 322 t b a;
#X text 343 237 Swap;
#X text 342 264 Shift Right;
#X msg 230 206 right left center;
#X text 339 206 Shift Left;
#X text 1017 232 Lower Left;
#X text 1012 272 Upper Middle;
#X text 1019 310 Lower Right;
#X obj 230 46 inlet;
#X obj 230 134 sel 0 1 2;
#X obj 816 7 inlet;
#X obj 946 151 t b b b;
#X obj 1045 79 t b b b;
#X text 951 129 Triangle;
#X text 1058 59 Face;
#X obj 1254 185 t b b b;
#X text 1307 185 Vertical;
#X obj 1162 396 t b b b;
#X text 1188 385 Horizontal;
#X msg 1152 502 0 0 0;
#X msg 1273 271 0 0 0;
#X msg 99 563 set \$1 \$2 \$3;
#X msg 379 494 set \$1 \$2 \$3;
#X msg 697 498 set \$1 \$2 \$3;
#X msg 99 605 add \$1 \$2 \$3;
#X msg 379 571 add \$1 \$2 \$3;
#X msg 697 575 add \$1 \$2 \$3;
#X msg 1345 93 0 0 0;
#X msg 1346 122 0 0 0;
#X msg 1346 151 0 0 0;
#X obj 1345 64 t b b b;
#X text 1300 40 CENTER;
#X msg 1115 467 -1 0 1;
#X msg 1134 554 1 0 1;
#X msg 1253 310 0 -1 1;
#X msg 1253 231 0 1 1;
#X msg 1043 146 0 -0.5 1;
#X msg 946 231 -1 -0.5 1;
#X msg 946 310 1 -0.5 1;
#X msg 946 271 0 0.5 1;
#X msg 1044 116 -1 0.5 1;
#X msg 1043 185 1 0.5 1;
#X obj 1134 249 s translator1_linear;
#X obj 1134 289 s translator2_linear;
#X obj 1134 328 s translator3_linear;
#X obj 99 710 s translator1_linear;
#X obj 144 689 s translator2_linear;
#X obj 189 668 s translator3_linear;
#X obj 368 689 s translator1_linear;
#X obj 413 711 s translator2_linear;
#X obj 496 688 s translator3_linear;
#X obj 686 689 s translator1_linear;
#X obj 731 711 s translator2_linear;
#X obj 823 690 s translator3_linear;
#X obj 99 542 r translator1_linear;
#X obj 379 453 r translator2_linear;
#X obj 697 454 r translator3_linear;
#X obj 1062 773 s translator1_polar;
#X obj 1208 774 s translator2_polar;
#X obj 1351 772 s translator3_polar;
#X floatatom 1066 630 5 0 0 0 - - -, f 5;
#X obj 1066 671 * 6.28;
#X obj 1066 737 pack;
#X floatatom 1113 624 5 0 0 0 - - -, f 5;
#X floatatom 1206 630 5 0 0 0 - - -, f 5;
#X obj 1206 671 * 6.28;
#X obj 1206 737 pack;
#X floatatom 1253 624 5 0 0 0 - - -, f 5;
#X floatatom 1356 630 5 0 0 0 - - -, f 5;
#X obj 1356 667 * 6.28;
#X obj 1356 737 pack;
#X floatatom 1403 624 5 0 0 0 - - -, f 5;
#X floatatom 1325 494 5 0 0 0 - - -, f 5;
#X msg 1041 594 0;
#X msg 1196 602 0.333;
#X msg 1311 579 0.666;
#X obj 1218 492 bng 15 250 50 0 empty empty empty 17 7 0 10 -262144
-1 -1;
#X obj 1245 493 bng 15 250 50 0 empty empty empty 17 7 0 10 -262144
-1 -1;
#X msg 1329 549 0.1;
#X msg 1227 572 0.4;
#X msg 1043 567 0.75;
#X obj 946 21 sel 0 1 2 3 4 5 6, f 117;
#X obj 1342 398 loadbang;
#X msg 1339 454 1;
#X connect 0 0 2 0;
#X connect 1 0 23 0;
#X connect 1 1 19 0;
#X connect 1 2 15 0;
#X connect 2 0 71 0;
#X connect 2 1 72 0;
#X connect 2 2 73 0;
#X connect 3 0 26 0;
#X connect 4 0 5 0;
#X connect 5 0 74 0;
#X connect 5 1 75 0;
#X connect 5 2 76 0;
#X connect 6 0 9 0;
#X connect 7 0 6 0;
#X connect 8 0 6 0;
#X connect 9 0 77 0;
#X connect 9 1 78 0;
#X connect 9 2 79 0;
#X connect 10 0 50 0;
#X connect 11 0 52 0;
#X connect 12 0 51 0;
#X connect 13 0 14 0;
#X connect 15 0 11 0;
#X connect 15 1 8 0;
#X connect 15 2 7 0;
#X connect 16 0 6 0;
#X connect 17 0 4 0;
#X connect 18 0 4 0;
#X connect 19 0 12 0;
#X connect 19 1 18 0;
#X connect 19 2 17 0;
#X connect 20 0 4 0;
#X connect 21 0 0 0;
#X connect 22 0 0 0;
#X connect 23 0 10 0;
#X connect 23 1 22 0;
#X connect 23 2 21 0;
#X connect 24 0 0 0;
#X connect 25 0 26 0;
#X connect 26 0 13 0;
#X connect 26 1 1 0;
#X connect 29 0 26 0;
#X connect 34 0 35 0;
#X connect 35 0 29 0;
#X connect 35 1 3 0;
#X connect 35 2 25 0;
#X connect 36 0 107 0;
#X connect 37 0 64 0;
#X connect 37 1 65 0;
#X connect 37 2 63 0;
#X connect 38 0 67 0;
#X connect 38 1 62 0;
#X connect 38 2 66 0;
#X connect 41 0 60 0;
#X connect 41 1 46 0;
#X connect 41 2 61 0;
#X connect 43 0 58 0;
#X connect 43 1 59 0;
#X connect 43 2 45 0;
#X connect 45 0 69 0;
#X connect 46 0 69 0;
#X connect 47 0 10 0;
#X connect 48 0 12 0;
#X connect 49 0 11 0;
#X connect 50 0 0 0;
#X connect 51 0 4 0;
#X connect 52 0 6 0;
#X connect 53 0 68 0;
#X connect 54 0 69 0;
#X connect 55 0 70 0;
#X connect 56 0 55 0;
#X connect 56 1 54 0;
#X connect 56 2 53 0;
#X connect 58 0 68 0;
#X connect 59 0 70 0;
#X connect 60 0 70 0;
#X connect 61 0 68 0;
#X connect 62 0 69 0;
#X connect 63 0 68 0;
#X connect 64 0 70 0;
#X connect 65 0 69 0;
#X connect 66 0 68 0;
#X connect 67 0 70 0;
#X connect 80 0 47 0;
#X connect 81 0 48 0;
#X connect 82 0 49 0;
#X connect 86 0 87 0;
#X connect 87 0 88 0;
#X connect 88 0 83 0;
#X connect 89 0 88 1;
#X connect 90 0 91 0;
#X connect 91 0 92 0;
#X connect 92 0 84 0;
#X connect 93 0 92 1;
#X connect 94 0 95 0;
#X connect 95 0 96 0;
#X connect 96 0 85 0;
#X connect 97 0 96 1;
#X connect 98 0 89 0;
#X connect 98 0 93 0;
#X connect 98 0 97 0;
#X connect 99 0 86 0;
#X connect 100 0 90 0;
#X connect 101 0 94 0;
#X connect 102 0 99 0;
#X connect 102 0 100 0;
#X connect 102 0 101 0;
#X connect 103 0 104 0;
#X connect 103 0 105 0;
#X connect 103 0 106 0;
#X connect 104 0 94 0;
#X connect 105 0 90 0;
#X connect 106 0 86 0;
#X connect 107 0 37 0;
#X connect 107 1 38 0;
#X connect 107 2 41 0;
#X connect 107 3 43 0;
#X connect 107 4 56 0;
#X connect 107 5 102 0;
#X connect 107 6 103 0;
#X connect 108 0 109 0;
#X connect 109 0 98 0;
