#N canvas 597 197 1164 802 10;
#X obj 72 164 inlet;
#X obj 318 164 inlet;
#X obj 596 164 inlet;
#X msg 150 327 right 6.82121e-13 0.999999 \;;
#X obj 150 356 route left center right;
#X msg 406 327 left 6.82121e-13 0.999999 \;;
#X obj 406 356 route left center right;
#X msg 684 327 center 6.82121e-13 0.999999 \;;
#X msg 638 267 set;
#X msg 615 288 set \$1;
#X obj 684 356 route left center right;
#X msg 150 257 6.82121e-13 0.999999;
#X msg 684 256 6.82121e-13 0.999999;
#X msg 406 252 6.82121e-13 0.999999;
#X obj 596 238 t b a b;
#X obj 592 309 r push;
#X msg 357 263 set;
#X msg 337 285 set \$1;
#X obj 318 234 t b a b;
#X obj 324 309 r push;
#X msg 111 268 set;
#X msg 91 297 set \$1;
#X obj 72 239 t b a b;
#X obj 43 309 r push;
#X obj 150 197 pack;
#X obj 406 194 pack;
#X obj 684 196 pack;
#X msg 150 228 set \$1 \$2;
#X msg 406 223 set \$1 \$2;
#X msg 684 225 set \$1 \$2;
#X msg 150 286 add \$1 \$2;
#X msg 406 284 add \$1 \$2;
#X msg 684 287 add \$1 \$2;
#X obj 150 117 r x_absolute_0;
#X obj 171 137 r y_absolute_0;
#X obj 171 166 t b f;
#X obj 254 477 r absolute_splitter_0;
#X obj 254 507 unpack;
#X obj 444 507 unpack;
#X obj 444 477 r absolute_splitter_1;
#X obj 634 507 unpack;
#X obj 634 477 r absolute_splitter_2;
#X obj 150 429 s absolute_splitter_0;
#X obj 240 387 s absolute_splitter_2;
#X obj 195 408 s absolute_splitter_1;
#X obj 406 429 s absolute_splitter_0;
#X obj 496 387 s absolute_splitter_2;
#X obj 451 408 s absolute_splitter_1;
#X obj 684 427 s absolute_splitter_0;
#X obj 774 385 s absolute_splitter_2;
#X obj 729 406 s absolute_splitter_1;
#X obj 427 166 t b f;
#X obj 705 170 t b f;
#X obj 406 117 r x_absolute_1;
#X obj 427 137 r y_absolute_1;
#X obj 287 536 s y_absolute_0_set;
#X obj 254 556 s x_absolute_0_set;
#X obj 287 576 s y_absolute_3_set;
#X obj 254 596 s x_absolute_3_set;
#X obj 477 536 s y_absolute_1_set;
#X obj 444 556 s x_absolute_1_set;
#X obj 477 576 s y_absolute_4_set;
#X obj 444 596 s x_absolute_4_set;
#X obj 667 536 s y_absolute_2_set;
#X obj 634 556 s x_absolute_2_set;
#X obj 667 576 s y_absolute_5_set;
#X obj 634 596 s x_absolute_5_set;
#X obj 684 121 r x_absolute_2;
#X obj 705 141 r y_absolute_2;
#X connect 0 0 22 0;
#X connect 1 0 18 0;
#X connect 2 0 14 0;
#X connect 3 0 4 0;
#X connect 4 0 42 0;
#X connect 4 1 44 0;
#X connect 4 2 43 0;
#X connect 5 0 6 0;
#X connect 6 0 45 0;
#X connect 6 1 47 0;
#X connect 6 2 46 0;
#X connect 7 0 10 0;
#X connect 8 0 7 0;
#X connect 9 0 7 0;
#X connect 10 0 48 0;
#X connect 10 1 50 0;
#X connect 10 2 49 0;
#X connect 11 0 30 0;
#X connect 12 0 32 0;
#X connect 13 0 31 0;
#X connect 14 0 12 0;
#X connect 14 1 9 0;
#X connect 14 2 8 0;
#X connect 15 0 7 0;
#X connect 16 0 5 0;
#X connect 17 0 5 0;
#X connect 18 0 13 0;
#X connect 18 1 17 0;
#X connect 18 2 16 0;
#X connect 19 0 5 0;
#X connect 20 0 3 0;
#X connect 21 0 3 0;
#X connect 22 0 11 0;
#X connect 22 1 21 0;
#X connect 22 2 20 0;
#X connect 23 0 3 0;
#X connect 24 0 27 0;
#X connect 25 0 28 0;
#X connect 26 0 29 0;
#X connect 27 0 11 0;
#X connect 28 0 13 0;
#X connect 29 0 12 0;
#X connect 30 0 3 0;
#X connect 31 0 5 0;
#X connect 32 0 7 0;
#X connect 33 0 24 0;
#X connect 34 0 35 0;
#X connect 35 0 24 0;
#X connect 35 1 24 1;
#X connect 36 0 37 0;
#X connect 37 0 56 0;
#X connect 37 0 58 0;
#X connect 37 1 55 0;
#X connect 37 1 57 0;
#X connect 38 0 60 0;
#X connect 38 0 62 0;
#X connect 38 1 59 0;
#X connect 38 1 61 0;
#X connect 39 0 38 0;
#X connect 40 0 64 0;
#X connect 40 0 66 0;
#X connect 40 1 63 0;
#X connect 40 1 65 0;
#X connect 41 0 40 0;
#X connect 51 0 25 0;
#X connect 51 1 25 1;
#X connect 52 0 26 0;
#X connect 52 1 26 1;
#X connect 53 0 25 0;
#X connect 54 0 51 0;
#X connect 67 0 26 0;
#X connect 68 0 52 0;
