#N canvas 57 311 1013 769 10;
#X obj 117 348 translateXYZ, f 16;
#X obj 144 319 line;
#X obj 213 319 line;
#X floatatom 144 165 5 0 0 0 - - -, f 5;
#X floatatom 179 165 5 0 0 0 - - -, f 5;
#X floatatom 213 165 5 0 0 0 - - -, f 5;
#X obj 144 66 unpack f f f;
#X obj 179 319 line;
#X obj 117 8 inlet;
#X obj 117 697 outlet;
#X obj 144 619 line;
#X obj 213 619 line;
#X floatatom 144 465 5 0 0 0 - - -, f 5;
#X floatatom 179 465 5 0 0 0 - - -, f 5;
#X floatatom 213 465 5 0 0 0 - - -, f 5;
#X obj 144 436 unpack f f f;
#X obj 144 589 pack;
#X obj 165 503 r speed;
#X obj 179 590 pack;
#X obj 200 532 r speed;
#X obj 213 590 pack;
#X obj 234 561 r speed;
#X obj 179 619 line;
#X obj 117 648 rotateXYZ, f 16;
#X obj 144 407 r rotate\$1;
#X obj 144 37 r translator\$1;
#X obj 361 172 sin;
#X obj 431 184 cos;
#X floatatom 400 62 5 0 0 0 - - -, f 5;
#X obj 424 234 *;
#X obj 335 232 *;
#X floatatom 519 214 5 0 0 0 - - -, f 5;
#X obj 586 47 r circle_location\$1;
#X obj 630 153 r circle_distance;
#X obj 460 210 t b f;
#X obj 372 205 t b f;
#X obj 360 146 line;
#X obj 442 153 line;
#X obj 490 8 r speed;
#X obj 463 113 pack;
#X obj 149 220 atan2;
#X obj 206 268 *;
#X obj 240 266 *;
#X obj 220 228 line;
#X obj 224 203 pack;
#X connect 0 0 23 0;
#X connect 1 0 0 1;
#X connect 2 0 0 3;
#X connect 3 0 40 0;
#X connect 4 0 40 1;
#X connect 5 0 44 0;
#X connect 6 0 3 0;
#X connect 6 1 4 0;
#X connect 6 2 5 0;
#X connect 7 0 0 2;
#X connect 8 0 0 0;
#X connect 10 0 23 1;
#X connect 11 0 23 3;
#X connect 12 0 16 0;
#X connect 13 0 18 0;
#X connect 14 0 20 0;
#X connect 15 0 12 0;
#X connect 15 1 13 0;
#X connect 15 2 14 0;
#X connect 16 0 10 0;
#X connect 17 0 16 1;
#X connect 18 0 22 0;
#X connect 19 0 18 1;
#X connect 20 0 11 0;
#X connect 21 0 20 1;
#X connect 22 0 23 2;
#X connect 23 0 9 0;
#X connect 24 0 15 0;
#X connect 25 0 6 0;
#X connect 26 0 30 0;
#X connect 27 0 29 0;
#X connect 28 0 39 0;
#X connect 29 0 42 0;
#X connect 30 0 41 0;
#X connect 31 0 34 0;
#X connect 31 0 35 0;
#X connect 32 0 28 0;
#X connect 33 0 31 0;
#X connect 34 0 29 0;
#X connect 34 1 29 1;
#X connect 35 0 30 0;
#X connect 35 1 30 1;
#X connect 36 0 26 0;
#X connect 37 0 27 0;
#X connect 38 0 39 1;
#X connect 38 0 44 1;
#X connect 39 0 36 0;
#X connect 39 0 37 0;
#X connect 40 0 28 0;
#X connect 41 0 1 0;
#X connect 42 0 7 0;
#X connect 43 0 41 1;
#X connect 43 0 42 1;
#X connect 44 0 43 0;
