#N canvas 718 106 1004 890 10;
#X obj 100 803 translateXYZ, f 16;
#X obj 21 698 inlet;
#X obj 301 851 outlet;
#X floatatom 392 728 5 0 0 0 - - -, f 5;
#X floatatom 483 728 5 0 0 0 - - -, f 5;
#X floatatom 574 728 5 0 0 0 - - -, f 5;
#X obj 392 704 unpack f f f;
#X obj 392 778 pack;
#X obj 483 778 pack;
#X obj 574 778 pack;
#X obj 301 822 rotateXYZ, f 46;
#X obj 491 196 r translator\$1_polar;
#X obj 816 168 +;
#X floatatom 816 216 5 0 0 0 - - -, f 5;
#X obj 741 214 unpack;
#X obj 698 577 *;
#X obj 759 577 *;
#X obj 177 363 pack;
#X obj 287 363 pack;
#X obj 698 254 pack;
#X obj 774 254 pack;
#X obj 825 395 sel 0 1, f 10;
#X obj 698 140 atan2;
#X obj 698 550 cos;
#X obj 759 538 sin;
#X obj 825 359 tgl 15 0 empty empty empty 17 7 0 10 -262144 -1 -1 0
1;
#X obj 131 699 *;
#X obj 131 643 t b f;
#X obj 162 667 t b f;
#X obj 162 699 *;
#X obj 222 13 r translator\$1_linear;
#X obj 377 214 unpack;
#X obj 177 271 cos;
#X obj 287 271 sin;
#X obj 287 293 *;
#X obj 177 293 *;
#X obj 696 111 unpack;
#X obj 211 681 spigot;
#X obj 244 656 tgl 15 0 empty empty empty 17 7 0 10 -262144 -1 -1 1
1;
#X obj 276 681 spigot;
#X obj 698 681 spigot;
#X obj 731 656 tgl 15 0 empty empty empty 17 7 0 10 -262144 -1 -1 0
1;
#X obj 759 681 spigot;
#X obj 792 656 tgl 15 0 empty empty empty 17 7 0 10 -262144 -1 -1 0
1;
#X obj 309 656 tgl 15 0 empty empty empty 17 7 0 10 -262144 -1 -1 1
1;
#X msg 825 603 1 0;
#X msg 853 603 0 1;
#X obj 825 638 unpack;
#X obj 696 53 t a a;
#X obj 816 71 unpack;
#X obj 816 129 expr (pow($f1 \, 2));
#X obj 849 100 expr (pow($f1 \, 2));
#X obj 816 190 expr (pow($f1 \, 0.5));
#X msg 696 82 \$2 \$1;
#X obj 332 125 +;
#X floatatom 332 276 5 0 0 0 - - -, f 5;
#X obj 332 58 unpack;
#X obj 332 103 expr (pow($f1 \, 2));
#X obj 365 81 expr (pow($f1 \, 2));
#X obj 332 151 expr (pow($f1 \, 0.5));
#X obj 223 125 atan2;
#X obj 222 101 unpack;
#X obj 222 40 t a a;
#X msg 222 79 \$2 \$1;
#X obj 21 620 pack;
#X obj 392 670 r rotate\$1;
#X obj 531 432 pack;
#X obj 531 454 liner_sfgem;
#X obj 531 388 r spin_\$1;
#X obj 631 502 t b f;
#X floatatom 177 315 5 0 0 0 - - -, f 5;
#X floatatom 287 315 5 0 0 0 - - -, f 5;
#X obj 287 392 liner_sfgem;
#X obj 177 392 liner_sfgem;
#X obj 698 286 liner_sfgem;
#X obj 774 286 liner_sfgem;
#X obj 21 649 liner_sfgem;
#X floatatom 410 276 5 0 0 0 - - -, f 5;
#X text 367 195 polar amplitude;
#X text 267 38 CONVERSION;
#X text 756 44 CONVERSION;
#X text 814 266 SPEED AS POLAR;
#X text 331 305 RECONVERSION;
#X text 368 391 SPEED AS LINEAR;
#X text 747 510 RECONVERSION;
#X obj 696 31 t a;
#X obj 531 518 t b f;
#X floatatom 223 232 5 0 0 0 - - -, f 5;
#X floatatom 698 380 5 0 0 0 - - -, f 5;
#X obj 432 345 r location_speed_\$1;
#X obj 593 414 r spin_speed_\$1;
#X obj 558 236 r location_speed_\$1;
#X obj 42 581 r distance_speed_\$1;
#X obj 21 552 r distance_\$1;
#X obj 698 520 +;
#X obj 825 320 r linpol;
#X obj 531 410 * 6.28318;
#X obj 320 547 +;
#X floatatom 320 601 5 0 0 0 - - -, f 5;
#X obj 211 514 atan2;
#X obj 211 492 unpack;
#X obj 211 448 t a a;
#X obj 320 466 unpack;
#X obj 320 510 expr (pow($f1 \, 2));
#X obj 353 488 expr (pow($f1 \, 2));
#X obj 320 569 expr (pow($f1 \, 0.5));
#X msg 211 470 \$2 \$1;
#X obj 211 426 pack;
#X obj 211 536 +;
#X obj 211 629 *;
#X obj 276 629 *;
#X obj 211 590 cos;
#X obj 276 590 sin;
#X obj 131 729 *;
#X obj 162 729 *;
#X obj 200 711 r mirror\$1;
#X obj 131 773 +;
#X obj 162 773 +;
#X msg 281 737 10000;
#X msg 319 736 0;
#X obj 281 713 sel 0 -1 1;
#X obj 194 755 t b f;
#X obj 319 755 t b f;
#X obj 574 800 liner_sfgem;
#X obj 483 800 liner_sfgem;
#X obj 392 800 liner_sfgem;
#X obj 413 749 r rotate_speed_\$1;
#X obj 655 749 r rotate_speed_\$1;
#X obj 534 749 r rotate_speed_\$1;
#X obj 223 253 t f f;
#X text 464 538 The spin is causing the problem... \; convert and reconvert??
;
#X text 407 594 NEEDED?;
#X obj 488 616 loadbang;
#X msg 573 632 0;
#X connect 0 0 10 0;
#X connect 1 0 0 0;
#X connect 3 0 7 0;
#X connect 4 0 8 0;
#X connect 5 0 9 0;
#X connect 6 0 3 0;
#X connect 6 1 4 0;
#X connect 6 2 5 0;
#X connect 7 0 125 0;
#X connect 8 0 124 0;
#X connect 9 0 123 0;
#X connect 10 0 2 0;
#X connect 11 0 14 0;
#X connect 11 0 31 0;
#X connect 12 0 52 0;
#X connect 13 0 20 0;
#X connect 14 0 19 0;
#X connect 14 1 20 0;
#X connect 15 0 40 0;
#X connect 16 0 42 0;
#X connect 17 0 73 0;
#X connect 18 0 72 0;
#X connect 19 0 74 0;
#X connect 20 0 75 0;
#X connect 21 0 45 0;
#X connect 21 1 46 0;
#X connect 22 0 19 0;
#X connect 23 0 15 0;
#X connect 24 0 16 0;
#X connect 25 0 21 0;
#X connect 26 0 113 0;
#X connect 27 0 26 0;
#X connect 27 1 26 1;
#X connect 28 0 29 0;
#X connect 28 1 29 1;
#X connect 29 0 114 0;
#X connect 30 0 62 0;
#X connect 30 0 85 0;
#X connect 31 0 87 0;
#X connect 31 1 77 0;
#X connect 32 0 35 0;
#X connect 33 0 34 0;
#X connect 34 0 71 0;
#X connect 35 0 70 0;
#X connect 36 0 22 0;
#X connect 36 1 22 1;
#X connect 37 0 26 0;
#X connect 38 0 37 1;
#X connect 39 0 29 0;
#X connect 40 0 26 0;
#X connect 41 0 40 1;
#X connect 42 0 29 0;
#X connect 43 0 42 1;
#X connect 44 0 39 1;
#X connect 45 0 47 0;
#X connect 46 0 47 0;
#X connect 47 0 38 0;
#X connect 47 0 44 0;
#X connect 47 1 41 0;
#X connect 47 1 43 0;
#X connect 48 0 53 0;
#X connect 48 1 49 0;
#X connect 49 0 50 0;
#X connect 49 1 51 0;
#X connect 50 0 12 0;
#X connect 51 0 12 1;
#X connect 52 0 13 0;
#X connect 53 0 36 0;
#X connect 54 0 59 0;
#X connect 55 0 35 1;
#X connect 55 0 34 1;
#X connect 56 0 57 0;
#X connect 56 1 58 0;
#X connect 57 0 54 0;
#X connect 58 0 54 1;
#X connect 59 0 55 0;
#X connect 60 0 87 0;
#X connect 61 0 60 0;
#X connect 61 1 60 1;
#X connect 62 0 63 0;
#X connect 62 1 56 0;
#X connect 63 0 61 0;
#X connect 64 0 76 0;
#X connect 65 0 6 0;
#X connect 66 0 67 0;
#X connect 67 0 69 0;
#X connect 67 0 86 0;
#X connect 68 0 96 0;
#X connect 69 0 94 0;
#X connect 69 1 94 1;
#X connect 70 0 17 0;
#X connect 71 0 18 0;
#X connect 72 0 107 1;
#X connect 73 0 107 0;
#X connect 74 0 88 0;
#X connect 75 0 16 1;
#X connect 75 0 15 1;
#X connect 76 0 27 0;
#X connect 76 0 28 0;
#X connect 77 0 35 1;
#X connect 77 0 34 1;
#X connect 85 0 48 0;
#X connect 86 0 108 0;
#X connect 86 1 108 1;
#X connect 87 0 129 0;
#X connect 88 0 94 0;
#X connect 89 0 17 1;
#X connect 89 0 18 1;
#X connect 90 0 66 1;
#X connect 91 0 19 1;
#X connect 91 0 20 1;
#X connect 92 0 64 1;
#X connect 93 0 64 0;
#X connect 94 0 23 0;
#X connect 94 0 24 0;
#X connect 95 0 25 0;
#X connect 96 0 66 0;
#X connect 97 0 105 0;
#X connect 98 0 109 1;
#X connect 98 0 110 1;
#X connect 99 0 108 0;
#X connect 100 0 99 0;
#X connect 100 1 99 1;
#X connect 101 0 106 0;
#X connect 101 1 102 0;
#X connect 102 0 103 0;
#X connect 102 1 104 0;
#X connect 103 0 97 0;
#X connect 104 0 97 1;
#X connect 105 0 98 0;
#X connect 106 0 100 0;
#X connect 107 0 101 0;
#X connect 108 0 111 0;
#X connect 108 0 112 0;
#X connect 109 0 37 0;
#X connect 110 0 39 0;
#X connect 111 0 109 0;
#X connect 112 0 110 0;
#X connect 113 0 116 0;
#X connect 114 0 117 0;
#X connect 115 0 113 1;
#X connect 115 0 114 1;
#X connect 115 0 120 0;
#X connect 116 0 0 1;
#X connect 117 0 0 2;
#X connect 118 0 121 0;
#X connect 119 0 122 0;
#X connect 120 0 118 0;
#X connect 120 1 119 0;
#X connect 120 2 119 0;
#X connect 121 0 117 0;
#X connect 121 0 116 0;
#X connect 121 1 117 1;
#X connect 121 1 116 1;
#X connect 122 0 117 0;
#X connect 122 0 116 0;
#X connect 122 1 117 1;
#X connect 122 1 116 1;
#X connect 123 0 10 3;
#X connect 124 0 10 2;
#X connect 125 0 10 1;
#X connect 126 0 7 1;
#X connect 127 0 9 1;
#X connect 128 0 8 1;
#X connect 129 0 32 0;
#X connect 129 1 33 0;
#X connect 132 0 133 0;
#X connect 133 0 5 0;
#X connect 133 0 4 0;
#X connect 133 0 3 0;
