#N canvas 946 89 927 991 10;
#X obj 220 155 unpack;
#X obj 331 79 r translator\$1_polar;
#X obj 220 40 r translator\$1_linear;
#X text 136 959 Outlet: send absolute cartesian and polar coordinates
;
#X msg 88 79 0.5 2;
#X msg 88 51 3 2;
#X floatatom 253 186 5 0 0 0 - - -, f 5;
#X obj 220 298 pack;
#X obj 253 263 t b f;
#X obj 220 217 +;
#X obj 141 199 t b f;
#X obj 141 141 r spin_\$1;
#X obj 253 224 +;
#X obj 361 206 t b f;
#X obj 220 327 convert-to-linear;
#X obj 220 356 unpack;
#X obj 141 170 Tarer \$1;
#X obj 247 126 s tare_\$1;
#X obj 343 329 r y_add_\$1;
#X obj 361 138 r polar_distance_\$1;
#X obj 220 405 +;
#X obj 253 405 +;
#X obj 103 387 t b f;
#X obj 343 387 t b f;
#X obj 103 329 r x_add_\$1;
#X obj 220 97 t a b;
#X floatatom 100 153 5 0 0 0 - - -, f 5;
#X floatatom 427 160 5 0 0 0 - - -, f 5;
#X floatatom 413 341 5 0 0 0 - - -, f 5;
#X floatatom 220 857 5 0 0 0 - - -, f 5;
#X obj 220 905 pack, f 24;
#X floatatom 310 857 5 0 0 0 - - -, f 5;
#X obj 220 929 s translator\$1_linear;
#X floatatom 99 217 5 0 0 0 - - -, f 5;
#X floatatom 425 224 5 0 0 0 - - -, f 5;
#X floatatom 412 405 5 0 0 0 - - -, f 5;
#X floatatom 60 405 5 0 0 0 - - -, f 5;
#X obj 220 69 convert-to-polar;
#X obj 310 882 t b f;
#X floatatom 60 341 5 0 0 0 - - -, f 5;
#X floatatom 361 746 5 0 0 0 - - -, f 5;
#X floatatom 220 751 5 0 0 0 - - -, f 5;
#X obj 532 320 r cartesian_distance_\$1;
#X obj 220 444 *;
#X obj 253 444 *;
#X obj 532 426 t b f;
#X msg 559 388 1;
#X floatatom 596 342 5 0 0 0 - - -, f 5;
#X floatatom 596 444 5 0 0 0 - - -, f 5;
#X obj 532 388 + 1;
#X obj 220 532 convert-to-polar;
#X obj 220 503 pack;
#X obj 253 473 t b f;
#X obj 452 505 r polar_distance_multiplicative_\$1;
#X obj 452 606 t b f;
#X msg 479 575 1;
#X floatatom 521 527 5 0 0 0 - - -, f 5;
#X floatatom 516 624 5 0 0 0 - - -, f 5;
#X obj 452 575 + 1;
#X obj 220 624 *;
#X obj 253 624 *;
#X obj 220 683 pack;
#X obj 253 653 t b f;
#X obj 220 558 unpack;
#X obj 220 705 convert-to-linear;
#X obj 220 728 unpack;
#X obj 361 177 Tarer \$1;
#X obj 103 358 Tarer \$1;
#X obj 343 358 Tarer \$1;
#X obj 532 359 Tarer \$1;
#X obj 452 544 Tarer \$1;
#X text 542 69 NOW PUT THE LINERS IN...;
#X text 22 452 SEND THESE VALUES TO PANEL \, TOO;
#X obj 696 190 r location_speed_\$1;
#X obj 702 222 r spin_speed_\$1;
#X obj 725 255 liner_sfgem;
#X obj 220 800 s x-val-\$1-set;
#X obj 253 777 s y-val-\$1-set;
#X obj 220 835 r x-val-\$1;
#X obj 310 835 r y-val-\$1;
#X connect 0 0 9 0;
#X connect 0 1 6 0;
#X connect 1 0 25 0;
#X connect 2 0 37 0;
#X connect 4 0 25 0;
#X connect 5 0 37 0;
#X connect 6 0 12 0;
#X connect 7 0 14 0;
#X connect 8 0 7 0;
#X connect 8 1 7 1;
#X connect 9 0 7 0;
#X connect 10 0 9 0;
#X connect 10 1 9 1;
#X connect 10 1 33 0;
#X connect 11 0 16 0;
#X connect 12 0 8 0;
#X connect 13 0 12 0;
#X connect 13 1 12 1;
#X connect 13 1 34 0;
#X connect 14 0 15 0;
#X connect 15 0 20 0;
#X connect 15 1 21 0;
#X connect 16 0 10 0;
#X connect 16 1 10 0;
#X connect 18 0 68 0;
#X connect 19 0 66 0;
#X connect 20 0 43 0;
#X connect 21 0 44 0;
#X connect 22 0 20 0;
#X connect 22 1 20 1;
#X connect 22 1 36 0;
#X connect 23 0 21 0;
#X connect 23 1 21 1;
#X connect 23 1 35 0;
#X connect 24 0 67 0;
#X connect 25 0 0 0;
#X connect 25 1 17 0;
#X connect 26 0 16 0;
#X connect 27 0 66 0;
#X connect 28 0 68 0;
#X connect 29 0 30 0;
#X connect 30 0 32 0;
#X connect 31 0 38 0;
#X connect 37 0 25 0;
#X connect 38 0 29 0;
#X connect 38 1 30 1;
#X connect 39 0 67 0;
#X connect 40 0 30 1;
#X connect 41 0 76 0;
#X connect 42 0 69 0;
#X connect 43 0 51 0;
#X connect 44 0 52 0;
#X connect 45 0 43 0;
#X connect 45 0 44 0;
#X connect 45 1 44 1;
#X connect 45 1 43 1;
#X connect 45 1 48 0;
#X connect 46 0 45 0;
#X connect 47 0 69 0;
#X connect 49 0 45 0;
#X connect 50 0 63 0;
#X connect 51 0 50 0;
#X connect 52 0 51 0;
#X connect 52 1 51 1;
#X connect 53 0 70 0;
#X connect 54 0 60 0;
#X connect 54 0 59 0;
#X connect 54 1 57 0;
#X connect 54 1 60 1;
#X connect 54 1 59 1;
#X connect 55 0 54 0;
#X connect 56 0 70 0;
#X connect 58 0 54 0;
#X connect 59 0 61 0;
#X connect 60 0 62 0;
#X connect 61 0 64 0;
#X connect 62 0 61 0;
#X connect 62 1 61 1;
#X connect 63 0 59 0;
#X connect 63 1 60 0;
#X connect 64 0 65 0;
#X connect 65 0 41 0;
#X connect 65 1 40 0;
#X connect 65 1 77 0;
#X connect 66 0 13 0;
#X connect 66 1 13 0;
#X connect 67 0 22 0;
#X connect 67 1 22 0;
#X connect 68 0 23 0;
#X connect 68 1 23 0;
#X connect 69 0 49 0;
#X connect 69 1 46 0;
#X connect 70 0 58 0;
#X connect 70 1 55 0;
#X connect 78 0 29 0;
#X connect 79 0 31 0;
