#N canvas 67 87 1853 993 10;
#X obj 1220 774 translateXYZ, f 16;
#X obj 1180 697 inlet;
#X obj 1462 841 outlet;
#X obj 1553 671 pack;
#X obj 1644 671 pack;
#X obj 1735 741 pack;
#X obj 1251 638 *;
#X obj 1284 638 *;
#X obj 1299 609 r mirror\$1;
#X obj 1251 697 +;
#X obj 1284 697 +;
#X msg 1382 657 10000;
#X msg 1420 656 0;
#X obj 1382 633 sel 0 -1 1;
#X obj 1314 679 t b f;
#X obj 1419 679 t b f;
#X obj 1735 763 liner_sfgem;
#X obj 1644 693 liner_sfgem;
#X obj 1553 693 liner_sfgem;
#X obj 1574 642 r rotate_speed_\$1;
#X obj 1691 642 r rotate_speed_\$1;
#X obj 1462 792 rotateXYZ, f 46;
#X obj 480 280 unpack;
#X obj 465 314 +;
#X obj 385 104 r spin_\$1;
#X obj 480 251 convert-to-polar;
#X obj 1305 96 r polar_add_\$1;
#X obj 492 350 pack;
#X obj 492 373 convert-to-linear;
#X obj 1251 558 unpack;
#X obj 1251 529 r x_y_absolute-\$1;
#X obj 480 132 r x_y_absolute-\$1;
#X obj 480 223 spigot;
#X msg 520 195 0;
#X obj 839 232 r x_y_absolute-\$1;
#X msg 888 261 0;
#X obj 819 133 t f b b;
#X obj 819 84 r x_add_\$1;
#X obj 839 318 unpack;
#X obj 824 357 +;
#X obj 824 386 pack;
#X obj 385 153 t f b b;
#X msg 629 171 1;
#X msg 878 158 1;
#X obj 629 99 loadbang;
#X obj 839 279 spigot;
#X obj 627 198 s all_spigots-\$1;
#X obj 633 298 r all_spigots-\$1;
#X obj 933 271 r all_spigots-\$1;
#X obj 878 183 s all_spigots-\$1;
#X obj 1109 232 r x_y_absolute-\$1;
#X msg 1158 261 0;
#X obj 1089 133 t f b b;
#X obj 1109 318 unpack;
#X obj 1127 347 +;
#X obj 1109 434 pack;
#X msg 1148 158 1;
#X obj 1109 279 spigot;
#X obj 1203 271 r all_spigots-\$1;
#X obj 1148 183 s all_spigots-\$1;
#X obj 1089 84 r y_add_\$1;
#X obj 1094 405 f;
#X obj 1127 376 t b f;
#X obj 1400 280 unpack;
#X obj 1400 251 convert-to-polar;
#X obj 1412 433 convert-to-linear;
#X obj 1400 132 r x_y_absolute-\$1;
#X obj 1400 223 spigot;
#X msg 1440 195 0;
#X obj 1305 153 t f b b;
#X msg 1509 171 1;
#X obj 1509 99 loadbang;
#X obj 1507 198 s all_spigots-\$1;
#X obj 1628 205 r all_spigots-\$1;
#X obj 1418 309 +;
#X obj 1412 404 pack;
#X obj 1385 371 f;
#X obj 1418 338 t b f;
#X obj 1412 462 s x_y_absolute-\$1;
#X obj 1109 463 s x_y_absolute-\$1;
#X obj 824 415 s x_y_absolute-\$1;
#X obj 492 402 s x_y_absolute-\$1;
#X obj 978 700 r x_y_absolute-\$1;
#X msg 1027 729 0;
#X obj 909 608 t f b b;
#X obj 978 786 unpack;
#X obj 963 850 pack;
#X msg 978 626 1;
#X obj 978 747 spigot;
#X obj 1072 739 r all_spigots-\$1;
#X obj 978 651 s all_spigots-\$1;
#X obj 963 879 s x_y_absolute-\$1;
#X obj 909 697 t f f;
#X obj 963 821 *;
#X obj 996 821 *;
#X text 507 87 SPIN;
#X text 901 107 X ADDITION;
#X text 1172 110 Y ADDITION;
#X text 1560 132 POLAR ADDITION;
#X text 333 573 ORBIT SPIN;
#X text 1016 585 CARTESIAN MULTIPLICATION;
#X obj 909 559 r cartesian_mult_\$1;
#X msg 1077 1059 1 \, 2 \, 3 \, 4 \, 5;
#X obj 670 171 s tare_preset_0_\$1;
#X obj 1077 1030 r tare_preset_0_\$1;
#X obj 954 1210 s spin_tare_\$1;
#X msg 1472 1062 0 \, 1 \, 2 \, 4 \, 5;
#X obj 1053 1210 s pol_add_tare_\$1;
#X obj 1086 1189 s orbit_tare_\$1;
#X obj 1735 683 r rot_\$1;
#X obj 1798 683 r rot_speed_\$1;
#X obj 1826 218 r x_y_absolute-\$1-out;
#X obj 2252 417 r x_y_absolute-\$1-time;
#X obj 1975 464 liner_sfgem;
#X obj 2055 464 liner_sfgem;
#X obj 2129 464 liner_sfgem;
#X obj 2209 464 liner_sfgem;
#X obj 2141 322 convert-to-polar;
#X obj 2015 400 unpack;
#X obj 2145 400 unpack;
#X obj 2047 283 spigot;
#X obj 2141 272 spigot;
#X obj 2119 247 unpack;
#X msg 2119 218 1 0;
#X msg 2153 218 0 1;
#X obj 2119 189 sel 0 1;
#X obj 1975 435 pack;
#X obj 2055 435 pack;
#X obj 2129 435 pack;
#X obj 2209 435 pack;
#X obj 2129 511 pack;
#X obj 1975 512 pack;
#X obj 2055 494 t b f;
#X obj 2209 493 t b f;
#X obj 1826 345 s x_y_absolute-\$1;
#X obj 2119 160 r x_y_absolute-\$1-cartpol;
#X obj 1826 247 t a b;
#X msg 1853 276 1;
#X obj 1904 294 s all_spigots-\$1;
#X obj 1853 316 s tare_preset_99_\$1;
#X obj 2005 327 convert-to-linear;
#X obj 954 1110 sel 0 1 2 3 4 5, f 32;
#X obj 906 1025 r tare_preset_99_\$1;
#X msg 906 1054 0 \, 1 \, 2 \, 3 \, 4 \, 5;
#X obj 1447 1033 r tare_preset_3_\$1;
#X obj 1197 1030 r tare_preset_1_\$1;
#X msg 1197 1059 0 \, 2 \, 3 \, 4 \, 5;
#X obj 1317 1030 r tare_preset_2_\$1;
#X msg 1317 1059 0 \, 1 \, 3 \, 4 \, 5;
#X obj 1577 1030 r tare_preset_4_\$1;
#X msg 1577 1059 0 \, 1 \, 2 \, 3 \, 5;
#X obj 1707 1033 r tare_preset_5_\$1;
#X msg 1732 1062 0 \, 1 \, 2 \, 3 \, 4;
#X obj 987 1189 s x_add_tare_\$1;
#X obj 1020 1168 s y_add_tare_\$1;
#X obj 1119 1168 s cartesian_mult_tare_\$1;
#X obj 927 158 s tare_preset_1_\$1;
#X obj 1147 208 s tare_preset_2_\$1;
#X obj 1596 162 s tare_preset_3_\$1;
#X obj 1058 624 s tare_preset_5_\$1;
#X obj 63 1425 convert-to-linear;
#X obj 63 1454 unpack;
#X obj 63 1396 pack;
#X obj 63 1483 +;
#X obj 96 1483 +;
#X floatatom 84 1374 5 0 0 0 - - -, f 5;
#X obj 63 1512 pack;
#X obj 326 622 r x_y_absolute-\$2;
#X obj 63 1541 s x_y_absolute-\$1;
#X obj 562 622 r x_y_absolute-\$1;
#X obj 397 918 unpack;
#X obj 561 1026 -;
#X obj 594 1026 -;
#X obj 561 1055 pack;
#X obj 561 1084 convert-to-polar;
#X obj 561 1332 unpack;
#X obj 189 534 s tare_preset_4_\$1;
#X obj 63 448 r orbit_\$1;
#X msg 149 496 1;
#X obj 326 1465 unpack;
#X obj 189 514 s all_spigots-\$1;
#X obj 562 907 unpack;
#X obj 606 966 t b f;
#X obj 561 966 t b f;
#X obj 63 1287 +;
#X obj 562 694 spigot;
#X msg 82 676 0;
#X obj 189 492 s all_spigots-\$2;
#X obj 189 472 s all_spigots-\$3;
#X obj 326 900 t a b;
#X obj 63 478 t f b b;
#X obj 725 622 r x_y_absolute-\$3;
#X obj 326 694 spigot;
#X obj 725 694 spigot;
#X msg 326 723 set \$1 \$2;
#X msg 326 872 -1.90484 -0.887293;
#X msg 562 723 set \$1 \$2;
#X msg 562 872 -2.06764 -0.655461;
#X msg 725 723 set \$1 \$2;
#X msg 725 872 -0.867 0.5;
#X obj 835 890 s x_y_absolute-\$3;
#X obj 431 890 s x_y_absolute-\$2;
#X obj 63 854 t f b b b;
#X obj 359 665 r all_spigots-\$1;
#X obj 595 665 r all_spigots-\$1;
#X obj 758 665 r all_spigots-\$1;
#X obj 189 555 s tare_preset_99_\$2;
#X obj 189 575 s tare_preset_99_\$3;
#X obj 99 1269 spigot;
#X obj 99 1350 spigot;
#X obj 132 756 r freeze_orbit_\$1;
#X obj 63 945 spigot;
#X obj 260 1035 spigot;
#X obj 260 1093 t f b;
#X obj 362 1160 s tare_preset_99_\$1;
#X obj 260 1269 +;
#X obj 286 1269 f;
#X obj 63 1316 +;
#X text 316 1262 ACCUMULATOR;
#X msg 188 1142 0;
#X obj 63 994 t f b;
#X obj 260 1298 t b f;
#X text 183 796 ABSOLUTE ORBIT;
#X text 35 795 RELATIVE ORBIT;
#X obj 362 1131 s all_spigots-\$1;
#X msg 362 1111 1;
#X obj 132 794 sel 0 1;
#X msg 132 927 1;
#X text 158 927 Open Spigots to input # \, radius \, angle.;
#X text 102 995 Zero Accumulator;
#X msg 293 1004 0;
#X text 318 1005 Close accumulator;
#X msg 265 1004 1;
#X msg 132 899 0;
#X obj 151 854 t b b;
#X connect 0 0 21 0;
#X connect 1 0 0 0;
#X connect 3 0 18 0;
#X connect 4 0 17 0;
#X connect 5 0 16 0;
#X connect 6 0 9 0;
#X connect 7 0 10 0;
#X connect 8 0 6 1;
#X connect 8 0 7 1;
#X connect 8 0 13 0;
#X connect 9 0 0 1;
#X connect 10 0 0 2;
#X connect 11 0 14 0;
#X connect 12 0 15 0;
#X connect 13 0 11 0;
#X connect 13 1 12 0;
#X connect 13 2 12 0;
#X connect 14 0 10 0;
#X connect 14 0 9 0;
#X connect 14 1 10 1;
#X connect 14 1 9 1;
#X connect 15 0 10 0;
#X connect 15 0 9 0;
#X connect 15 1 10 1;
#X connect 15 1 9 1;
#X connect 16 0 21 3;
#X connect 17 0 21 2;
#X connect 18 0 21 1;
#X connect 19 0 3 1;
#X connect 20 0 4 1;
#X connect 21 0 2 0;
#X connect 22 0 23 1;
#X connect 22 1 27 1;
#X connect 23 0 27 0;
#X connect 24 0 41 0;
#X connect 25 0 22 0;
#X connect 26 0 69 0;
#X connect 27 0 28 0;
#X connect 28 0 81 0;
#X connect 29 0 6 0;
#X connect 29 1 7 0;
#X connect 30 0 29 0;
#X connect 31 0 32 0;
#X connect 32 0 25 0;
#X connect 33 0 32 1;
#X connect 34 0 45 0;
#X connect 35 0 45 1;
#X connect 36 0 39 0;
#X connect 36 1 35 0;
#X connect 36 2 43 0;
#X connect 37 0 36 0;
#X connect 38 0 39 1;
#X connect 38 1 40 1;
#X connect 39 0 40 0;
#X connect 40 0 80 0;
#X connect 41 0 23 0;
#X connect 41 1 33 0;
#X connect 41 2 42 0;
#X connect 42 0 46 0;
#X connect 42 0 103 0;
#X connect 43 0 49 0;
#X connect 43 0 156 0;
#X connect 44 0 42 0;
#X connect 45 0 38 0;
#X connect 47 0 32 1;
#X connect 48 0 45 1;
#X connect 50 0 57 0;
#X connect 51 0 57 1;
#X connect 52 0 54 0;
#X connect 52 1 51 0;
#X connect 52 2 56 0;
#X connect 53 0 61 1;
#X connect 53 1 54 1;
#X connect 54 0 62 0;
#X connect 55 0 79 0;
#X connect 56 0 59 0;
#X connect 56 0 157 0;
#X connect 57 0 53 0;
#X connect 58 0 57 1;
#X connect 60 0 52 0;
#X connect 61 0 55 0;
#X connect 62 0 61 0;
#X connect 62 1 55 1;
#X connect 63 0 76 1;
#X connect 63 1 74 1;
#X connect 64 0 63 0;
#X connect 65 0 78 0;
#X connect 66 0 67 0;
#X connect 67 0 64 0;
#X connect 68 0 67 1;
#X connect 69 0 74 0;
#X connect 69 1 68 0;
#X connect 69 2 70 0;
#X connect 70 0 72 0;
#X connect 70 0 158 0;
#X connect 71 0 70 0;
#X connect 73 0 67 1;
#X connect 74 0 77 0;
#X connect 75 0 65 0;
#X connect 76 0 75 0;
#X connect 77 0 76 0;
#X connect 77 1 75 1;
#X connect 82 0 88 0;
#X connect 83 0 88 1;
#X connect 84 0 92 0;
#X connect 84 1 83 0;
#X connect 84 2 87 0;
#X connect 85 0 93 1;
#X connect 85 1 94 1;
#X connect 86 0 91 0;
#X connect 87 0 90 0;
#X connect 87 0 159 0;
#X connect 88 0 85 0;
#X connect 89 0 88 1;
#X connect 92 0 93 0;
#X connect 92 1 94 0;
#X connect 93 0 86 0;
#X connect 94 0 86 1;
#X connect 101 0 84 0;
#X connect 102 0 141 0;
#X connect 104 0 102 0;
#X connect 106 0 141 0;
#X connect 109 0 5 0;
#X connect 110 0 5 1;
#X connect 111 0 136 0;
#X connect 112 0 129 1;
#X connect 112 0 128 1;
#X connect 112 0 127 1;
#X connect 112 0 126 1;
#X connect 113 0 131 0;
#X connect 114 0 132 0;
#X connect 115 0 130 0;
#X connect 116 0 133 0;
#X connect 118 0 126 0;
#X connect 118 1 127 0;
#X connect 119 0 128 0;
#X connect 119 1 129 0;
#X connect 121 0 117 0;
#X connect 122 1 121 1;
#X connect 123 0 122 0;
#X connect 124 0 122 0;
#X connect 125 0 123 0;
#X connect 125 1 124 0;
#X connect 126 0 113 0;
#X connect 127 0 114 0;
#X connect 128 0 115 0;
#X connect 129 0 116 0;
#X connect 132 0 131 0;
#X connect 132 1 131 1;
#X connect 133 0 130 0;
#X connect 133 1 130 1;
#X connect 135 0 125 0;
#X connect 136 0 134 0;
#X connect 136 1 137 0;
#X connect 137 0 138 0;
#X connect 137 0 139 0;
#X connect 141 0 105 0;
#X connect 141 1 153 0;
#X connect 141 2 154 0;
#X connect 141 3 107 0;
#X connect 141 4 108 0;
#X connect 141 5 155 0;
#X connect 142 0 143 0;
#X connect 143 0 141 0;
#X connect 144 0 106 0;
#X connect 145 0 146 0;
#X connect 146 0 141 0;
#X connect 147 0 148 0;
#X connect 148 0 141 0;
#X connect 149 0 150 0;
#X connect 150 0 141 0;
#X connect 151 0 152 0;
#X connect 152 0 141 0;
#X connect 160 0 161 0;
#X connect 161 0 163 0;
#X connect 161 1 164 0;
#X connect 162 0 160 0;
#X connect 163 0 166 0;
#X connect 164 0 166 1;
#X connect 165 0 162 1;
#X connect 166 0 168 0;
#X connect 167 0 192 0;
#X connect 169 0 185 0;
#X connect 170 0 183 0;
#X connect 170 1 182 0;
#X connect 171 0 173 0;
#X connect 172 0 173 1;
#X connect 173 0 174 0;
#X connect 174 0 175 0;
#X connect 175 0 208 0;
#X connect 175 1 209 0;
#X connect 177 0 190 0;
#X connect 178 0 176 0;
#X connect 178 0 180 0;
#X connect 178 0 187 0;
#X connect 178 0 188 0;
#X connect 178 0 206 0;
#X connect 178 0 207 0;
#X connect 179 0 163 1;
#X connect 179 1 164 1;
#X connect 181 0 171 0;
#X connect 181 1 172 0;
#X connect 182 0 172 0;
#X connect 182 1 172 1;
#X connect 183 0 171 0;
#X connect 183 1 171 1;
#X connect 184 0 217 0;
#X connect 185 0 196 0;
#X connect 186 0 192 1;
#X connect 186 0 185 1;
#X connect 186 0 193 1;
#X connect 189 0 179 0;
#X connect 189 0 170 0;
#X connect 190 0 202 0;
#X connect 190 1 186 0;
#X connect 190 2 178 0;
#X connect 191 0 193 0;
#X connect 192 0 194 0;
#X connect 193 0 198 0;
#X connect 194 0 195 0;
#X connect 195 0 201 0;
#X connect 195 0 189 0;
#X connect 196 0 197 0;
#X connect 197 0 181 0;
#X connect 198 0 199 0;
#X connect 199 0 200 0;
#X connect 202 0 211 0;
#X connect 202 0 212 0;
#X connect 202 1 195 0;
#X connect 202 2 197 0;
#X connect 202 3 199 0;
#X connect 203 0 192 1;
#X connect 204 0 185 1;
#X connect 205 0 193 1;
#X connect 208 0 184 1;
#X connect 209 0 165 0;
#X connect 210 0 226 0;
#X connect 211 0 220 0;
#X connect 212 0 213 0;
#X connect 213 0 215 0;
#X connect 213 1 214 0;
#X connect 213 1 225 0;
#X connect 215 0 216 0;
#X connect 215 0 221 0;
#X connect 216 0 215 1;
#X connect 217 0 162 0;
#X connect 219 0 215 1;
#X connect 219 0 217 1;
#X connect 220 0 184 0;
#X connect 220 1 219 0;
#X connect 221 0 217 0;
#X connect 221 1 217 1;
#X connect 225 0 224 0;
#X connect 226 0 227 0;
#X connect 226 0 230 0;
#X connect 226 1 234 0;
#X connect 227 0 211 1;
#X connect 227 0 208 1;
#X connect 227 0 209 1;
#X connect 230 0 212 1;
#X connect 232 0 212 1;
#X connect 233 0 211 1;
#X connect 233 0 208 1;
#X connect 233 0 209 1;
#X connect 234 0 233 0;
#X connect 234 0 232 0;
#X connect 234 1 197 0;
#X connect 234 1 195 0;
