#N canvas 516 353 1389 727 10;
#X obj 900 724 translateXYZ, f 16;
#X obj 900 689 inlet;
#X obj 1053 760 outlet;
#X floatatom 1233 641 5 0 0 0 - - -, f 5;
#X floatatom 1324 641 5 0 0 0 - - -, f 5;
#X floatatom 1415 641 5 0 0 0 - - -, f 5;
#X obj 1290 611 unpack f f f;
#X obj 1233 691 pack;
#X obj 1324 691 pack;
#X obj 1415 691 pack;
#X obj 1290 587 r rotate\$1;
#X obj 931 588 *;
#X obj 964 588 *;
#X obj 979 559 r mirror\$1;
#X obj 931 647 +;
#X obj 964 647 +;
#X msg 1030 612 10000;
#X msg 1068 611 0;
#X obj 1030 588 sel 0 -1 1;
#X obj 994 629 t b f;
#X obj 1099 629 t b f;
#X obj 1415 713 liner_sfgem;
#X obj 1324 713 liner_sfgem;
#X obj 1233 713 liner_sfgem;
#X obj 1254 662 r rotate_speed_\$1;
#X obj 1488 662 r rotate_speed_\$1;
#X obj 1371 662 r rotate_speed_\$1;
#X obj 1254 555 loadbang;
#X msg 1324 555 0;
#X obj 1142 742 rotateXYZ, f 46;
#X obj 260 230 unpack;
#X obj 245 264 +;
#X obj 165 54 r spin_\$1;
#X obj 278 757 convert-to-linear;
#X obj 278 786 unpack;
#X obj 260 201 convert-to-polar;
#X obj 1496 331 r polar_add_\$1;
#X obj 278 728 pack;
#X obj 278 815 +;
#X obj 311 815 +;
#X obj 141 525 r cent_spin_\$1;
#X floatatom 516 711 5 0 0 0 - - -, f 5;
#X obj 516 682 r radius-\$1;
#X obj 272 350 pack;
#X obj 272 373 convert-to-linear;
#X obj 931 508 unpack;
#X obj 931 479 r x_y_absolute-\$1;
#X obj 260 82 r x_y_absolute-\$1;
#X obj 272 402 s x_y_absolute-\$1;
#X obj 1272 80 r x_absolute_\$1;
#X obj 1392 80 r y_absolute_\$1;
#X obj 1344 162 pack;
#X obj 1420 124 t b f;
#X obj 1326 194 s x_y_absolute-\$1;
#X obj 285 838 pack;
#X obj 474 565 t b f;
#X obj 441 507 r x_y_absolute-\$2;
#X obj 441 536 unpack;
#X text 1263 58 Change this in trader ... should all be in new format...
;
#X obj 260 173 spigot;
#X msg 300 145 0;
#X obj 566 636 loadbang;
#X msg 611 680 1;
#X obj 441 565 t b f;
#X obj 629 202 r x_y_absolute-\$1;
#X msg 678 231 0;
#X obj 609 103 t f b b;
#X obj 609 54 r x_add_\$1;
#X obj 629 288 unpack;
#X obj 614 327 +;
#X obj 629 382 pack;
#X obj 629 411 s x_y_absolute-\$1;
#X obj 165 103 t f b b;
#X msg 409 121 1;
#X msg 509 155 1;
#X obj 409 49 loadbang;
#X obj 629 249 spigot;
#X obj 398 191 print spigot;
#X connect 0 0 29 0;
#X connect 1 0 0 0;
#X connect 3 0 7 0;
#X connect 4 0 8 0;
#X connect 5 0 9 0;
#X connect 6 0 3 0;
#X connect 6 1 4 0;
#X connect 6 2 5 0;
#X connect 7 0 23 0;
#X connect 8 0 22 0;
#X connect 9 0 21 0;
#X connect 10 0 6 0;
#X connect 11 0 14 0;
#X connect 12 0 15 0;
#X connect 13 0 11 1;
#X connect 13 0 12 1;
#X connect 13 0 18 0;
#X connect 14 0 0 1;
#X connect 15 0 0 2;
#X connect 16 0 19 0;
#X connect 17 0 20 0;
#X connect 18 0 16 0;
#X connect 18 1 17 0;
#X connect 18 2 17 0;
#X connect 19 0 15 0;
#X connect 19 0 14 0;
#X connect 19 1 15 1;
#X connect 19 1 14 1;
#X connect 20 0 15 0;
#X connect 20 0 14 0;
#X connect 20 1 15 1;
#X connect 20 1 14 1;
#X connect 21 0 29 3;
#X connect 22 0 29 2;
#X connect 23 0 29 1;
#X connect 24 0 7 1;
#X connect 25 0 9 1;
#X connect 26 0 8 1;
#X connect 27 0 28 0;
#X connect 28 0 5 0;
#X connect 28 0 4 0;
#X connect 28 0 3 0;
#X connect 29 0 2 0;
#X connect 30 0 31 1;
#X connect 30 0 77 0;
#X connect 30 1 43 1;
#X connect 31 0 43 0;
#X connect 32 0 72 0;
#X connect 33 0 34 0;
#X connect 34 0 38 0;
#X connect 34 1 39 0;
#X connect 35 0 30 0;
#X connect 37 0 33 0;
#X connect 38 0 54 0;
#X connect 39 0 54 1;
#X connect 41 0 37 1;
#X connect 42 0 41 0;
#X connect 43 0 44 0;
#X connect 44 0 48 0;
#X connect 45 0 11 0;
#X connect 45 1 12 0;
#X connect 46 0 45 0;
#X connect 47 0 59 0;
#X connect 49 0 51 0;
#X connect 50 0 52 0;
#X connect 51 0 53 0;
#X connect 52 0 51 0;
#X connect 52 1 51 1;
#X connect 55 1 39 1;
#X connect 56 0 57 0;
#X connect 57 0 63 0;
#X connect 57 1 55 0;
#X connect 59 0 35 0;
#X connect 60 0 59 1;
#X connect 61 0 62 0;
#X connect 62 0 41 0;
#X connect 63 1 38 1;
#X connect 64 0 76 0;
#X connect 65 0 76 1;
#X connect 66 0 69 0;
#X connect 66 1 65 0;
#X connect 66 2 74 0;
#X connect 67 0 66 0;
#X connect 68 0 69 1;
#X connect 68 1 70 1;
#X connect 69 0 70 0;
#X connect 70 0 71 0;
#X connect 72 0 31 0;
#X connect 72 1 60 0;
#X connect 72 2 73 0;
#X connect 73 0 76 1;
#X connect 74 0 59 1;
#X connect 75 0 73 0;
#X connect 75 0 74 0;
#X connect 76 0 68 0;
