#N canvas 0 349 1701 727 10;
#X obj 910 764 translateXYZ, f 16;
#X obj 910 691 inlet;
#X obj 1082 811 outlet;
#X obj 941 658 *;
#X obj 974 658 *;
#X obj 989 629 r mirror\$1;
#X obj 941 717 +;
#X obj 974 717 +;
#X msg 1072 677 10000;
#X msg 1110 676 0;
#X obj 1072 653 sel 0 -1 1;
#X obj 1004 699 t b f;
#X obj 1109 699 t b f;
#X obj 1082 782 rotateXYZ, f 46;
#X obj 110 200 unpack;
#X obj 95 234 +;
#X obj 55 24 r spin_\$1;
#X obj 110 171 convert-to-polar;
#X obj 122 270 pack;
#X obj 122 293 convert-to-linear;
#X obj 941 548 unpack;
#X obj 110 143 spigot;
#X msg 150 115 0;
#X msg 518 201 0;
#X obj 449 73 t f b b;
#X obj 449 24 r x_add_\$1;
#X obj 469 258 unpack;
#X obj 454 297 +;
#X obj 454 326 pack;
#X obj 55 73 t f b b;
#X msg 229 91 1;
#X msg 508 98 1;
#X obj 229 19 loadbang;
#X obj 469 219 spigot;
#X obj 227 118 s all_spigots-\$1;
#X obj 233 218 r all_spigots-\$1;
#X obj 563 211 r all_spigots-\$1;
#X obj 508 123 s all_spigots-\$1;
#X msg 788 201 0;
#X obj 719 73 t f b b;
#X obj 739 258 unpack;
#X obj 757 287 +;
#X obj 739 374 pack;
#X msg 778 98 1;
#X obj 739 219 spigot;
#X obj 833 211 r all_spigots-\$1;
#X obj 778 123 s all_spigots-\$1;
#X obj 719 24 r y_add_\$1;
#X obj 724 345 f;
#X obj 757 316 t b f;
#X obj 1030 220 unpack;
#X obj 1030 191 convert-to-polar;
#X obj 1042 373 convert-to-linear;
#X obj 1030 163 spigot;
#X msg 1070 135 0;
#X obj 935 93 t f b b;
#X msg 1139 111 1;
#X obj 1139 39 loadbang;
#X obj 1137 138 s all_spigots-\$1;
#X obj 1258 145 r all_spigots-\$1;
#X obj 1048 249 +;
#X obj 1042 344 pack;
#X obj 1015 311 f;
#X obj 1048 278 t b f;
#X msg 657 669 0;
#X obj 539 548 t f b b;
#X obj 608 726 unpack;
#X obj 593 790 pack;
#X msg 608 566 1;
#X obj 608 687 spigot;
#X obj 704 669 r all_spigots-\$1;
#X obj 608 591 s all_spigots-\$1;
#X obj 539 637 t f f;
#X obj 593 761 *;
#X obj 626 761 *;
#X text 137 7 SPIN;
#X text 531 47 X ADDITION;
#X text 802 50 Y ADDITION;
#X text 1190 72 POLAR ADDITION;
#X text 646 525 CARTESIAN MULTIPLICATION;
#X msg 677 889 1 \, 2 \, 3 \, 4 \, 5;
#X obj 270 91 s tare_preset_0_\$1;
#X obj 677 860 r tare_preset_0_\$1;
#X obj 554 1010 s spin_tare_\$1;
#X msg 1072 892 0 \, 1 \, 2 \, 4 \, 5;
#X obj 653 1010 s pol_add_tare_\$1;
#X obj 686 989 s orbit_tare_\$1;
#X obj 1355 703 r rot_\$1;
#X obj 1428 99 r x_y_absolute-\$1-out;
#X obj 1428 128 t a b;
#X msg 1455 157 1;
#X obj 1506 175 s all_spigots-\$1;
#X obj 1455 197 s tare_preset_99_\$1;
#X obj 554 940 sel 0 1 2 3 4 5, f 32;
#X obj 554 860 r tare_preset_99_\$1;
#X msg 554 889 0 \, 1 \, 2 \, 3 \, 4 \, 5;
#X obj 1047 863 r tare_preset_3_\$1;
#X obj 797 860 r tare_preset_1_\$1;
#X msg 797 889 0 \, 2 \, 3 \, 4 \, 5;
#X obj 917 860 r tare_preset_2_\$1;
#X msg 917 889 0 \, 1 \, 3 \, 4 \, 5;
#X obj 1177 860 r tare_preset_4_\$1;
#X msg 1177 889 0 \, 1 \, 2 \, 3 \, 5;
#X obj 1307 863 r tare_preset_5_\$1;
#X msg 1332 892 0 \, 1 \, 2 \, 3 \, 4;
#X obj 587 989 s x_add_tare_\$1;
#X obj 620 968 s y_add_tare_\$1;
#X obj 557 98 s tare_preset_1_\$1;
#X obj 777 148 s tare_preset_2_\$1;
#X obj 1226 102 s tare_preset_3_\$1;
#X obj 718 584 s tare_preset_5_\$1;
#X obj 93 885 convert-to-linear;
#X obj 93 914 unpack;
#X obj 93 856 pack;
#X obj 93 943 +;
#X obj 126 943 +;
#X obj 93 972 pack;
#X obj 265 660 unpack;
#X obj 362 696 -;
#X obj 395 696 -;
#X obj 361 725 pack;
#X obj 361 754 convert-to-polar;
#X obj 361 865 unpack;
#X obj 93 404 r orbit_\$1;
#X msg 282 471 1;
#X obj 228 883 unpack;
#X obj 339 489 s all_spigots-\$1;
#X obj 362 647 unpack;
#X obj 93 797 +;
#X obj 93 428 t f b b;
#X floatatom 114 834 5 0 0 0 - - -, f 5;
#X obj 282 446 t b b;
#X obj 315 678 t b f;
#X obj 434 678 t b f;
#X obj 361 810 spigot;
#X obj 145 475 r freeze_orbit_\$1;
#X obj 115 751 f;
#X obj 122 779 spigot;
#X obj 112 543 spigot;
#X msg 155 619 1;
#X obj 411 781 r all_spigots-\$1;
#X obj 184 554 sel 0;
#X msg 168 722 0;
#X msg 112 619 0;
#X msg 184 779 1;
#X obj 935 36 r pol_add_\$1;
#X obj 539 499 r cart_mult_\$1;
#X obj 719 968 s cart_mult_tare_\$1;
#X obj 1173 711 loadbang;
#X msg 1173 734 0;
#X obj 93 691 -;
#X obj 126 691 f;
#X obj 93 657 t f f b;
#X obj 339 464 s tare_preset_4_\$1;
#X obj 276 537 r orbit_tare_\$1;
#X msg 267 567 0;
#X obj 1428 255 r x_y_absolute-\$1-output;
#X obj 941 490 s x_y_absolute-\$1-input;
#X obj 122 322 s x_y_absolute-\$1-output;
#X obj 454 355 s x_y_absolute-\$1-output;
#X obj 739 403 s x_y_absolute-\$1-output;
#X obj 1042 402 s x_y_absolute-\$1-output;
#X obj 1428 226 s x_y_absolute-\$1-output;
#X obj 593 819 s x_y_absolute-\$1-output;
#X obj 93 1001 s x_y_absolute-\$1-output;
#X obj 608 640 r x_y_absolute-\$1-input;
#X obj 941 519 r x_y_absolute-\$1-input;
#X obj 372 612 r x_y_absolute-\$1-input;
#X obj 226 612 r x_y_absolute-\$2-input;
#X obj 110 52 r x_y_absolute-\$1-input;
#X obj 469 172 r x_y_absolute-\$1-input;
#X obj 739 172 r x_y_absolute-\$1-input;
#X obj 1030 72 r x_y_absolute-\$1-input;
#X msg 1508 150 1;
#X obj 941 592 +;
#X obj 974 592 +;
#X obj 1021 574 t b f;
#X obj 1061 574 t b f;
#X obj 1106 556 r x_offset_\$1;
#X obj 1206 556 r y_offset_\$1;
#X floatatom 1214 607 5 0 0 0 - - -, f 5;
#X floatatom 1102 608 5 0 0 0 - - -, f 5;
#X text 187 411 ORBIT;
#X obj 346 927 r orbit-radius-set;
#X connect 0 0 13 0;
#X connect 1 0 0 0;
#X connect 3 0 6 0;
#X connect 4 0 7 0;
#X connect 5 0 3 1;
#X connect 5 0 4 1;
#X connect 5 0 10 0;
#X connect 6 0 0 1;
#X connect 7 0 0 2;
#X connect 8 0 11 0;
#X connect 9 0 12 0;
#X connect 10 0 8 0;
#X connect 10 1 9 0;
#X connect 10 2 9 0;
#X connect 11 0 7 0;
#X connect 11 0 6 0;
#X connect 11 1 7 1;
#X connect 11 1 6 1;
#X connect 12 0 7 0;
#X connect 12 0 6 0;
#X connect 12 1 7 1;
#X connect 12 1 6 1;
#X connect 13 0 2 0;
#X connect 14 0 15 1;
#X connect 14 1 18 1;
#X connect 15 0 18 0;
#X connect 16 0 29 0;
#X connect 17 0 14 0;
#X connect 18 0 19 0;
#X connect 19 0 158 0;
#X connect 20 0 174 0;
#X connect 20 1 175 0;
#X connect 21 0 17 0;
#X connect 22 0 21 1;
#X connect 23 0 33 1;
#X connect 24 0 27 0;
#X connect 24 1 23 0;
#X connect 24 2 31 0;
#X connect 25 0 24 0;
#X connect 26 0 27 1;
#X connect 26 1 28 1;
#X connect 27 0 28 0;
#X connect 28 0 159 0;
#X connect 29 0 15 0;
#X connect 29 1 22 0;
#X connect 29 2 30 0;
#X connect 30 0 34 0;
#X connect 30 0 81 0;
#X connect 31 0 37 0;
#X connect 31 0 107 0;
#X connect 32 0 30 0;
#X connect 33 0 26 0;
#X connect 35 0 21 1;
#X connect 36 0 33 1;
#X connect 38 0 44 1;
#X connect 39 0 41 0;
#X connect 39 1 38 0;
#X connect 39 2 43 0;
#X connect 40 0 48 1;
#X connect 40 1 41 1;
#X connect 41 0 49 0;
#X connect 42 0 160 0;
#X connect 43 0 46 0;
#X connect 43 0 108 0;
#X connect 44 0 40 0;
#X connect 45 0 44 1;
#X connect 47 0 39 0;
#X connect 48 0 42 0;
#X connect 49 0 48 0;
#X connect 49 1 42 1;
#X connect 50 0 62 1;
#X connect 50 1 60 1;
#X connect 51 0 50 0;
#X connect 52 0 161 0;
#X connect 53 0 51 0;
#X connect 54 0 53 1;
#X connect 55 0 60 0;
#X connect 55 1 54 0;
#X connect 55 2 56 0;
#X connect 56 0 58 0;
#X connect 56 0 109 0;
#X connect 57 0 56 0;
#X connect 59 0 53 1;
#X connect 60 0 63 0;
#X connect 61 0 52 0;
#X connect 62 0 61 0;
#X connect 63 0 62 0;
#X connect 63 1 61 1;
#X connect 64 0 69 1;
#X connect 65 0 72 0;
#X connect 65 1 64 0;
#X connect 65 2 68 0;
#X connect 66 0 73 1;
#X connect 66 1 74 1;
#X connect 67 0 163 0;
#X connect 68 0 71 0;
#X connect 68 0 110 0;
#X connect 69 0 66 0;
#X connect 70 0 69 1;
#X connect 72 0 73 0;
#X connect 72 1 74 0;
#X connect 73 0 67 0;
#X connect 74 0 67 1;
#X connect 80 0 93 0;
#X connect 82 0 80 0;
#X connect 84 0 93 0;
#X connect 87 0 13 3;
#X connect 88 0 89 0;
#X connect 89 0 162 0;
#X connect 89 1 173 0;
#X connect 89 1 90 0;
#X connect 90 0 92 0;
#X connect 93 0 83 0;
#X connect 93 1 105 0;
#X connect 93 2 106 0;
#X connect 93 3 85 0;
#X connect 93 4 86 0;
#X connect 93 5 147 0;
#X connect 94 0 95 0;
#X connect 95 0 93 0;
#X connect 96 0 84 0;
#X connect 97 0 98 0;
#X connect 98 0 93 0;
#X connect 99 0 100 0;
#X connect 100 0 93 0;
#X connect 101 0 102 0;
#X connect 102 0 93 0;
#X connect 103 0 104 0;
#X connect 104 0 93 0;
#X connect 111 0 112 0;
#X connect 112 0 114 0;
#X connect 112 1 115 0;
#X connect 113 0 111 0;
#X connect 114 0 116 0;
#X connect 115 0 116 1;
#X connect 116 0 164 0;
#X connect 117 0 132 0;
#X connect 117 1 133 0;
#X connect 118 0 120 0;
#X connect 119 0 120 1;
#X connect 120 0 121 0;
#X connect 121 0 134 0;
#X connect 122 0 128 1;
#X connect 122 1 130 0;
#X connect 123 0 129 0;
#X connect 124 0 126 0;
#X connect 125 0 114 1;
#X connect 125 1 115 1;
#X connect 127 0 118 0;
#X connect 127 1 119 0;
#X connect 128 0 113 0;
#X connect 128 0 136 0;
#X connect 129 0 152 0;
#X connect 129 1 138 0;
#X connect 129 2 131 0;
#X connect 130 0 113 1;
#X connect 131 0 124 0;
#X connect 131 1 153 0;
#X connect 132 0 118 0;
#X connect 132 1 118 1;
#X connect 133 0 119 0;
#X connect 133 1 119 1;
#X connect 134 0 122 0;
#X connect 135 0 138 1;
#X connect 135 0 141 0;
#X connect 136 0 137 0;
#X connect 137 0 128 1;
#X connect 138 0 139 0;
#X connect 138 0 143 0;
#X connect 139 0 137 1;
#X connect 140 0 134 1;
#X connect 141 0 142 0;
#X connect 141 0 144 0;
#X connect 141 1 143 0;
#X connect 142 0 137 1;
#X connect 143 0 134 1;
#X connect 144 0 134 1;
#X connect 145 0 55 0;
#X connect 146 0 65 0;
#X connect 148 0 149 0;
#X connect 149 0 13 1;
#X connect 149 0 13 2;
#X connect 150 0 128 0;
#X connect 151 0 150 1;
#X connect 152 0 150 0;
#X connect 152 1 151 1;
#X connect 152 2 151 0;
#X connect 154 0 155 0;
#X connect 155 0 151 1;
#X connect 156 0 157 0;
#X connect 165 0 69 0;
#X connect 166 0 20 0;
#X connect 167 0 127 0;
#X connect 168 0 117 0;
#X connect 168 0 125 0;
#X connect 169 0 21 0;
#X connect 170 0 33 0;
#X connect 171 0 44 0;
#X connect 172 0 53 0;
#X connect 173 0 91 0;
#X connect 174 0 3 0;
#X connect 175 0 4 0;
#X connect 176 0 174 0;
#X connect 176 1 174 1;
#X connect 176 1 181 0;
#X connect 177 0 175 0;
#X connect 177 1 175 1;
#X connect 177 1 180 0;
#X connect 178 0 176 0;
#X connect 179 0 177 0;
#X connect 183 0 130 0;
