#N canvas 231 157 1039 903 10;
#X obj 220 924 translateXYZ, f 16;
#X obj 220 889 inlet;
#X obj 373 960 outlet;
#X floatatom 553 841 5 0 0 0 - - -, f 5;
#X floatatom 644 841 5 0 0 0 - - -, f 5;
#X floatatom 735 841 5 0 0 0 - - -, f 5;
#X obj 610 811 unpack f f f;
#X obj 553 891 pack;
#X obj 644 891 pack;
#X obj 735 891 pack;
#X obj 610 787 r rotate\$1;
#X obj 251 788 *;
#X obj 284 788 *;
#X obj 299 759 r mirror\$1;
#X obj 251 847 +;
#X obj 284 847 +;
#X msg 350 812 10000;
#X msg 388 811 0;
#X obj 350 788 sel 0 -1 1;
#X obj 314 829 t b f;
#X obj 419 829 t b f;
#X obj 735 913 liner_sfgem;
#X obj 644 913 liner_sfgem;
#X obj 553 913 liner_sfgem;
#X obj 574 862 r rotate_speed_\$1;
#X obj 808 862 r rotate_speed_\$1;
#X obj 691 862 r rotate_speed_\$1;
#X obj 574 755 loadbang;
#X msg 644 755 0;
#X obj 462 942 rotateXYZ, f 46;
#X obj 251 132 unpack;
#X obj 251 154 +;
#X obj 72 136 t b f;
#X obj 72 64 r spin_\$1;
#X obj 284 155 +;
#X obj 582 137 t b f;
#X obj 251 525 convert-to-linear;
#X obj 251 554 unpack;
#X obj 324 624 r y_add_\$1;
#X obj 251 707 +;
#X obj 284 707 +;
#X obj 64 689 t b f;
#X obj 324 689 t b f;
#X obj 31 634 r x_add_\$1;
#X obj 251 74 pack, f 6;
#X floatatom 30 154 5 0 0 0 - - -, f 5;
#X floatatom 626 155 5 0 0 0 - - -, f 5;
#X floatatom 393 707 5 0 0 0 - - -, f 5;
#X floatatom 21 707 5 0 0 0 - - -, f 5;
#X obj 251 103 convert-to-polar;
#X obj 251 618 *;
#X obj 284 618 *;
#X obj 443 600 t b f;
#X floatatom 507 618 5 0 0 0 - - -, f 5;
#X obj 284 184 *;
#X obj 251 245 pack;
#X obj 284 213 t b f;
#X obj 443 549 r cartesian_mult_\$1;
#X obj 582 65 r polar_add_\$1;
#X obj 78 887 s x_absolute_\$1_set;
#X obj 325 887 s y_absolute_\$1_set;
#X obj 251 16 r x_absolute_\$1;
#X obj 284 45 r y_absolute_\$1;
#X obj 626 216 s polar_add_\$1_set;
#X obj 30 212 s spin_\$1_set;
#X obj 21 759 s x_add_\$1_set;
#X obj 507 668 s cartesian_mult_\$1_set;
#X obj 393 755 s y_add_\$1_set;
#X msg 30 186 set \$1;
#X msg 626 193 set \$1;
#X msg 393 735 set \$1;
#X msg 21 735 set \$1;
#X msg 507 646 set \$1;
#X msg 78 865 set \$1;
#X msg 325 865 set \$1;
#X obj 615 89 r poladd_\$1_speed_rec;
#X obj 582 107 pack;
#X obj 72 103 pack;
#X obj 110 85 r spin_\$1_speed_rec;
#X obj 64 656 pack;
#X obj 324 664 pack;
#X obj 351 646 r y_add_\$1_speed_rec;
#X obj 106 638 r x_add_\$1_speed_rec;
#X obj 443 571 pack;
#X obj 564 553 r cartmult_\$1_speed_rec;
#X floatatom 387 185 5 0 0 0 - - -, f 5;
#X obj 360 115 r polar_mult_\$1;
#X obj 387 238 s polar_mult_\$1_set;
#X msg 387 216 set \$1;
#X obj 360 166 t b f;
#X obj 360 137 pack;
#X obj 404 139 r polmult_\$1_speed_rec;
#X obj 251 274 convert-to-linear;
#X obj 251 299 unpack;
#X obj 251 351 -;
#X obj 251 409 convert-to-polar;
#X obj 251 380 pack;
#X obj 284 351 -;
#X obj 251 438 unpack;
#X obj 251 467 +;
#X obj 251 496 pack;
#X obj 251 583 +;
#X obj 284 583 +;
#X obj 7 300 r cent_spin_\$1;
#X floatatom 405 334 5 0 0 0 - - -, f 5;
#X floatatom 544 334 5 0 0 0 - - -, f 5;
#X obj 388 276 r x_absolute_\$2_set;
#X obj 527 276 r y_absolute_\$2_set;
#X obj 7 329 t b b f;
#X obj 388 305 t b b a b;
#X obj 527 305 t b b a b;
#X floatatom 489 479 5 0 0 0 - - -, f 5;
#X obj 489 450 r radius-\$1;
#X connect 0 0 29 0;
#X connect 1 0 0 0;
#X connect 3 0 7 0;
#X connect 4 0 8 0;
#X connect 5 0 9 0;
#X connect 6 0 3 0;
#X connect 6 1 4 0;
#X connect 6 2 5 0;
#X connect 7 0 23 0;
#X connect 8 0 22 0;
#X connect 9 0 21 0;
#X connect 10 0 6 0;
#X connect 11 0 14 0;
#X connect 12 0 15 0;
#X connect 13 0 11 1;
#X connect 13 0 12 1;
#X connect 13 0 18 0;
#X connect 14 0 0 1;
#X connect 14 0 73 0;
#X connect 15 0 0 2;
#X connect 15 0 74 0;
#X connect 16 0 19 0;
#X connect 17 0 20 0;
#X connect 18 0 16 0;
#X connect 18 1 17 0;
#X connect 18 2 17 0;
#X connect 19 0 15 0;
#X connect 19 0 14 0;
#X connect 19 1 15 1;
#X connect 19 1 14 1;
#X connect 20 0 15 0;
#X connect 20 0 14 0;
#X connect 20 1 15 1;
#X connect 20 1 14 1;
#X connect 21 0 29 3;
#X connect 22 0 29 2;
#X connect 23 0 29 1;
#X connect 24 0 7 1;
#X connect 25 0 9 1;
#X connect 26 0 8 1;
#X connect 27 0 28 0;
#X connect 28 0 5 0;
#X connect 28 0 4 0;
#X connect 28 0 3 0;
#X connect 29 0 2 0;
#X connect 30 0 31 0;
#X connect 30 1 34 0;
#X connect 31 0 55 0;
#X connect 32 0 31 0;
#X connect 32 1 31 1;
#X connect 32 1 45 0;
#X connect 33 0 77 0;
#X connect 34 0 54 0;
#X connect 35 0 34 0;
#X connect 35 1 34 1;
#X connect 35 1 46 0;
#X connect 36 0 37 0;
#X connect 37 0 101 0;
#X connect 37 1 102 0;
#X connect 38 0 80 0;
#X connect 39 0 11 0;
#X connect 40 0 12 0;
#X connect 41 0 39 0;
#X connect 41 1 39 1;
#X connect 41 1 48 0;
#X connect 42 0 40 0;
#X connect 42 1 40 1;
#X connect 42 1 47 0;
#X connect 43 0 79 0;
#X connect 44 0 49 0;
#X connect 49 0 30 0;
#X connect 50 0 39 0;
#X connect 51 0 40 0;
#X connect 52 0 50 0;
#X connect 52 0 51 0;
#X connect 52 1 51 1;
#X connect 52 1 50 1;
#X connect 52 1 53 0;
#X connect 54 0 56 0;
#X connect 55 0 92 0;
#X connect 56 0 55 0;
#X connect 56 1 55 1;
#X connect 57 0 83 0;
#X connect 58 0 76 0;
#X connect 61 0 44 0;
#X connect 62 0 44 1;
#X connect 68 0 64 0;
#X connect 69 0 63 0;
#X connect 70 0 67 0;
#X connect 71 0 65 0;
#X connect 72 0 66 0;
#X connect 73 0 59 0;
#X connect 74 0 60 0;
#X connect 75 0 76 1;
#X connect 76 0 35 0;
#X connect 77 0 32 0;
#X connect 78 0 77 1;
#X connect 79 0 41 0;
#X connect 80 0 42 0;
#X connect 81 0 80 1;
#X connect 82 0 79 1;
#X connect 83 0 52 0;
#X connect 84 0 83 1;
#X connect 86 0 90 0;
#X connect 88 0 87 0;
#X connect 89 1 85 0;
#X connect 89 1 54 1;
#X connect 90 0 89 0;
#X connect 91 0 90 1;
#X connect 92 0 93 0;
#X connect 93 0 94 0;
#X connect 93 1 97 0;
#X connect 94 0 96 0;
#X connect 95 0 98 0;
#X connect 96 0 95 0;
#X connect 97 0 96 1;
#X connect 98 0 99 0;
#X connect 98 1 100 1;
#X connect 99 0 100 0;
#X connect 100 0 36 0;
#X connect 101 0 50 0;
#X connect 102 0 51 0;
#X connect 103 0 108 0;
#X connect 104 0 94 1;
#X connect 104 0 101 1;
#X connect 105 0 97 1;
#X connect 105 0 102 1;
#X connect 106 0 109 0;
#X connect 107 0 110 0;
#X connect 108 0 94 0;
#X connect 108 1 97 0;
#X connect 108 2 99 1;
#X connect 109 1 104 0;
#X connect 109 2 104 0;
#X connect 110 1 105 0;
#X connect 110 2 105 0;
#X connect 111 0 100 1;
#X connect 112 0 111 0;
