#N canvas 330 95 1391 838 10;
#X obj 289 1011 translateXYZ, f 16;
#X obj 289 976 inlet;
#X obj 681 1188 outlet;
#X floatatom 772 1058 5 0 0 0 - - -, f 5;
#X floatatom 863 1058 5 0 0 0 - - -, f 5;
#X floatatom 954 1058 5 0 0 0 - - -, f 5;
#X obj 829 1028 unpack f f f;
#X obj 772 1108 pack;
#X obj 863 1108 pack;
#X obj 954 1108 pack;
#X obj 829 1004 r rotate\$1;
#X obj 320 861 *;
#X obj 351 861 *;
#X obj 395 843 r mirror\$1;
#X obj 320 921 +;
#X obj 351 921 +;
#X msg 470 885 10000;
#X msg 508 884 0;
#X obj 470 861 sel 0 -1 1;
#X obj 383 903 t b f;
#X obj 508 903 t b f;
#X obj 954 1130 liner_sfgem;
#X obj 863 1130 liner_sfgem;
#X obj 772 1130 liner_sfgem;
#X obj 793 1079 r rotate_speed_\$1;
#X obj 1027 1079 r rotate_speed_\$1;
#X obj 910 1079 r rotate_speed_\$1;
#X obj 863 943 loadbang;
#X msg 863 972 0;
#X obj 681 1159 rotateXYZ, f 46;
#X obj 320 115 unpack;
#X obj 431 49 r translator\$1_polar;
#X obj 320 10 r translator\$1_linear;
#X obj 320 238 pack;
#X obj 353 210 t b f;
#X obj 320 137 +;
#X obj 71 119 t b f;
#X obj 71 61 r spin_\$1;
#X obj 353 144 +;
#X obj 641 126 t b f;
#X obj 320 262 convert-to-linear;
#X obj 320 286 unpack;
#X obj 71 90 Tarer \$1;
#X obj 347 96 s tare_\$1;
#X obj 553 259 r y_add_\$1;
#X obj 320 335 +;
#X obj 353 335 +;
#X obj 63 317 t b f;
#X obj 553 317 t b f;
#X obj 63 259 r x_add_\$1;
#X obj 320 67 t a b;
#X floatatom 30 73 5 0 0 0 - - -, f 5;
#X floatatom 737 80 5 0 0 0 - - -, f 5;
#X floatatom 623 271 5 0 0 0 - - -, f 5;
#X floatatom 690 830 5 0 0 0 - - -, f 5;
#X obj 690 878 pack, f 24;
#X floatatom 804 830 5 0 0 0 - - -, f 5;
#X obj 690 902 s translator\$1_linear;
#X floatatom 29 137 5 0 0 0 - - -, f 5;
#X floatatom 705 144 5 0 0 0 - - -, f 5;
#X floatatom 622 335 5 0 0 0 - - -, f 5;
#X floatatom 20 335 5 0 0 0 - - -, f 5;
#X obj 320 39 convert-to-polar;
#X obj 804 855 t b f;
#X floatatom 20 271 5 0 0 0 - - -, f 5;
#X floatatom 645 841 5 0 0 0 - - -, f 5;
#X obj 320 451 *;
#X obj 353 451 *;
#X obj 752 433 t b f;
#X msg 779 388 1;
#X floatatom 816 342 5 0 0 0 - - -, f 5;
#X floatatom 816 451 5 0 0 0 - - -, f 5;
#X obj 752 388 + 1;
#X obj 320 569 convert-to-polar;
#X obj 320 547 pack;
#X obj 353 529 t b f;
#X msg 689 577 1;
#X floatatom 731 529 5 0 0 0 - - -, f 5;
#X floatatom 666 613 5 0 0 0 - - -, f 5;
#X obj 662 577 + 1;
#X obj 353 613 *;
#X obj 320 723 pack;
#X obj 353 695 t b f;
#X obj 320 591 unpack;
#X obj 320 745 convert-to-linear;
#X obj 320 823 unpack;
#X obj 641 97 Tarer \$1;
#X obj 63 288 Tarer \$1;
#X obj 553 288 Tarer \$1;
#X obj 752 359 Tarer \$1;
#X obj 662 546 Tarer \$1;
#X obj 752 320 r cartesian_mult_\$1;
#X obj 641 57 r polar_add_\$1;
#X obj 662 507 r polar_mult_\$1;
#X obj 449 957 s x_absolute_\$1_set;
#X obj 395 984 s y_absolute_\$1_set;
#X obj 690 728 r x_absolute_\$1;
#X obj 804 728 r y_absolute_\$1;
#X obj 705 192 s polar_add_\$1_set;
#X obj 29 195 s spin_\$1_set;
#X obj 20 381 s x_add_\$1_set;
#X obj 816 494 s cartesian_mult_\$1_set;
#X obj 666 656 s polar_mult_\$1_set;
#X obj 622 376 s y_add_\$1_set;
#X msg 29 169 set \$1;
#X msg 705 169 set \$1;
#X msg 666 634 set \$1;
#X msg 622 356 set \$1;
#X msg 20 357 set \$1;
#X msg 816 472 set \$1;
#X msg 395 939 set \$1;
#X msg 395 962 set \$1;
#X obj 547 595 t b f;
#X msg 508 21 1 1;
#X floatatom 320 311 5 0 0 0 - - -, f 5;
#X floatatom 353 311 5 0 0 0 - - -, f 5;
#X obj 353 190 liner_sfgem;
#X obj 537 148 r poladd_\$1_speed_rec;
#X obj 353 166 pack;
#X obj 943 230 t b f;
#X obj 943 210 liner_sfgem;
#X obj 997 168 r poladd_\$1_speed_rec;
#X obj 943 186 pack;
#X obj 273 190 liner_sfgem;
#X obj 273 166 pack;
#X obj 87 148 r spin_\$1_speed_rec;
#X obj 273 410 liner_sfgem;
#X obj 273 386 pack;
#X obj 353 410 liner_sfgem;
#X obj 353 386 pack;
#X obj 490 368 r y_add_\$1_speed_rec;
#X obj 109 368 r x_add_\$1_speed_rec;
#X obj 353 502 liner_sfgem;
#X obj 353 478 pack;
#X obj 667 460 r cartmult_\$1_speed_rec;
#X obj 353 670 liner_sfgem;
#X obj 353 646 pack;
#X text 733 590 WHY NOT ABOVE WITH THE OTHER POLAR STUFF?;
#X obj 517 628 r polmult_\$1_speed_rec;
#X obj 804 790 liner_sfgem;
#X obj 804 766 pack;
#X obj 690 790 liner_sfgem;
#X obj 690 766 pack;
#X obj 527 748 r x_absolute_\$1_speed_rec;
#X obj 907 748 r y_absolute_\$1_speed_rec;
#X connect 0 0 29 0;
#X connect 1 0 0 0;
#X connect 3 0 7 0;
#X connect 4 0 8 0;
#X connect 5 0 9 0;
#X connect 6 0 3 0;
#X connect 6 1 4 0;
#X connect 6 2 5 0;
#X connect 7 0 23 0;
#X connect 8 0 22 0;
#X connect 9 0 21 0;
#X connect 10 0 6 0;
#X connect 11 0 14 0;
#X connect 12 0 15 0;
#X connect 13 0 11 1;
#X connect 13 0 12 1;
#X connect 13 0 18 0;
#X connect 14 0 0 1;
#X connect 14 0 110 0;
#X connect 15 0 0 2;
#X connect 15 0 111 0;
#X connect 16 0 19 0;
#X connect 17 0 20 0;
#X connect 18 0 16 0;
#X connect 18 1 17 0;
#X connect 18 2 17 0;
#X connect 19 0 15 0;
#X connect 19 0 14 0;
#X connect 19 1 15 1;
#X connect 19 1 14 1;
#X connect 20 0 15 0;
#X connect 20 0 14 0;
#X connect 20 1 15 1;
#X connect 20 1 14 1;
#X connect 21 0 29 3;
#X connect 22 0 29 2;
#X connect 23 0 29 1;
#X connect 24 0 7 1;
#X connect 25 0 9 1;
#X connect 26 0 8 1;
#X connect 27 0 28 0;
#X connect 28 0 5 0;
#X connect 28 0 4 0;
#X connect 28 0 3 0;
#X connect 29 0 2 0;
#X connect 30 0 35 0;
#X connect 30 1 38 0;
#X connect 31 0 50 0;
#X connect 32 0 62 0;
#X connect 33 0 40 0;
#X connect 34 0 33 0;
#X connect 34 1 33 1;
#X connect 35 0 124 0;
#X connect 36 0 35 0;
#X connect 36 1 35 1;
#X connect 36 1 58 0;
#X connect 37 0 42 0;
#X connect 38 0 118 0;
#X connect 39 0 38 0;
#X connect 39 1 38 1;
#X connect 39 1 59 0;
#X connect 40 0 41 0;
#X connect 41 0 114 0;
#X connect 41 1 115 0;
#X connect 42 0 36 0;
#X connect 42 1 36 0;
#X connect 44 0 88 0;
#X connect 45 0 127 0;
#X connect 46 0 129 0;
#X connect 47 0 45 0;
#X connect 47 1 45 1;
#X connect 47 1 61 0;
#X connect 48 0 46 0;
#X connect 48 1 46 1;
#X connect 48 1 60 0;
#X connect 49 0 87 0;
#X connect 50 0 30 0;
#X connect 50 1 43 0;
#X connect 51 0 42 0;
#X connect 52 0 86 0;
#X connect 53 0 88 0;
#X connect 54 0 55 0;
#X connect 55 0 57 0;
#X connect 56 0 63 0;
#X connect 58 0 104 0;
#X connect 59 0 105 0;
#X connect 60 0 107 0;
#X connect 61 0 108 0;
#X connect 62 0 50 0;
#X connect 63 0 54 0;
#X connect 63 1 55 1;
#X connect 64 0 87 0;
#X connect 65 0 55 1;
#X connect 66 0 74 0;
#X connect 67 0 133 0;
#X connect 68 0 66 0;
#X connect 68 0 67 0;
#X connect 68 1 67 1;
#X connect 68 1 66 1;
#X connect 68 1 71 0;
#X connect 69 0 68 0;
#X connect 70 0 89 0;
#X connect 71 0 109 0;
#X connect 72 0 68 0;
#X connect 73 0 83 0;
#X connect 74 0 73 0;
#X connect 75 0 74 0;
#X connect 75 1 74 1;
#X connect 76 0 112 0;
#X connect 77 0 90 0;
#X connect 78 0 106 0;
#X connect 79 0 112 0;
#X connect 80 0 136 0;
#X connect 81 0 84 0;
#X connect 82 0 81 0;
#X connect 82 1 81 1;
#X connect 83 0 81 0;
#X connect 83 1 80 0;
#X connect 84 0 85 0;
#X connect 85 0 11 0;
#X connect 85 1 65 0;
#X connect 85 1 12 0;
#X connect 86 0 39 0;
#X connect 86 1 39 0;
#X connect 87 0 47 0;
#X connect 87 1 47 0;
#X connect 88 0 48 0;
#X connect 88 1 48 0;
#X connect 89 0 72 0;
#X connect 89 1 69 0;
#X connect 90 0 79 0;
#X connect 90 1 76 0;
#X connect 91 0 89 0;
#X connect 92 0 86 0;
#X connect 93 0 90 0;
#X connect 96 0 142 0;
#X connect 97 0 140 0;
#X connect 104 0 99 0;
#X connect 105 0 98 0;
#X connect 106 0 102 0;
#X connect 107 0 103 0;
#X connect 108 0 100 0;
#X connect 109 0 101 0;
#X connect 110 0 94 0;
#X connect 111 0 95 0;
#X connect 112 0 80 0;
#X connect 112 1 78 0;
#X connect 112 1 80 1;
#X connect 113 0 62 0;
#X connect 114 0 45 0;
#X connect 115 0 46 0;
#X connect 116 0 34 0;
#X connect 117 0 118 1;
#X connect 118 0 116 0;
#X connect 120 0 119 0;
#X connect 121 0 122 1;
#X connect 122 0 120 0;
#X connect 123 0 33 0;
#X connect 124 0 123 0;
#X connect 125 0 124 1;
#X connect 126 0 66 0;
#X connect 127 0 126 0;
#X connect 128 0 67 0;
#X connect 129 0 128 0;
#X connect 130 0 129 1;
#X connect 131 0 127 1;
#X connect 132 0 75 0;
#X connect 133 0 132 0;
#X connect 134 0 133 1;
#X connect 135 0 82 0;
#X connect 136 0 135 0;
#X connect 138 0 136 1;
#X connect 139 0 56 0;
#X connect 140 0 139 0;
#X connect 141 0 54 0;
#X connect 142 0 141 0;
#X connect 143 0 142 1;
#X connect 144 0 140 1;
