#N canvas 173 227 1597 727 10;
#X obj 900 724 translateXYZ, f 16;
#X obj 860 647 inlet;
#X obj 1142 791 outlet;
#X floatatom 1233 641 5 0 0 0 - - -, f 5;
#X floatatom 1324 641 5 0 0 0 - - -, f 5;
#X floatatom 1415 641 5 0 0 0 - - -, f 5;
#X obj 1290 611 unpack f f f;
#X obj 1233 691 pack;
#X obj 1324 691 pack;
#X obj 1415 691 pack;
#X obj 1290 587 r rotate\$1;
#X obj 931 588 *;
#X obj 964 588 *;
#X obj 979 559 r mirror\$1;
#X obj 931 647 +;
#X obj 964 647 +;
#X msg 1030 612 10000;
#X msg 1068 611 0;
#X obj 1030 588 sel 0 -1 1;
#X obj 994 629 t b f;
#X obj 1099 629 t b f;
#X obj 1415 713 liner_sfgem;
#X obj 1324 713 liner_sfgem;
#X obj 1233 713 liner_sfgem;
#X obj 1254 662 r rotate_speed_\$1;
#X obj 1488 662 r rotate_speed_\$1;
#X obj 1371 662 r rotate_speed_\$1;
#X obj 1254 555 loadbang;
#X msg 1324 555 0;
#X obj 1142 742 rotateXYZ, f 46;
#X obj 160 230 unpack;
#X obj 145 264 +;
#X obj 65 54 r spin_\$1;
#X obj 98 607 convert-to-linear;
#X obj 98 636 unpack;
#X obj 160 201 convert-to-polar;
#X obj 1045 46 r polar_add_\$1;
#X obj 98 578 pack;
#X obj 98 665 +;
#X obj 131 665 +;
#X obj 98 525 r cent_spin_\$1;
#X floatatom 296 561 5 0 0 0 - - -, f 5;
#X obj 296 532 r radius-\$1;
#X obj 172 300 pack;
#X obj 172 323 convert-to-linear;
#X obj 931 508 unpack;
#X obj 931 479 r x_y_absolute-\$1;
#X obj 160 82 r x_y_absolute-\$1;
#X obj 1436 431 r x_absolute_\$1;
#X obj 1556 431 r y_absolute_\$1;
#X obj 1508 513 pack;
#X obj 1584 475 t b f;
#X obj 1490 545 s x_y_absolute-\$1;
#X obj 98 694 pack;
#X obj 234 535 t b f;
#X obj 201 477 r x_y_absolute-\$2;
#X obj 201 506 unpack;
#X text 1427 409 Change this in trader ... should all be in new format...
;
#X obj 160 173 spigot;
#X msg 200 145 0;
#X obj 377 514 loadbang;
#X msg 377 543 1;
#X obj 201 535 t b f;
#X obj 519 182 r x_y_absolute-\$1;
#X msg 568 211 0;
#X obj 499 83 t f b b;
#X obj 499 34 r x_add_\$1;
#X obj 519 268 unpack;
#X obj 504 307 +;
#X obj 504 336 pack;
#X obj 65 103 t f b b;
#X msg 309 121 1;
#X msg 558 108 1;
#X obj 309 49 loadbang;
#X obj 519 229 spigot;
#X obj 307 148 s all_spigots-\$1;
#X obj 313 248 r all_spigots-\$1;
#X obj 613 221 r all_spigots-\$1;
#X obj 558 133 s all_spigots-\$1;
#X obj 789 182 r x_y_absolute-\$1;
#X msg 838 211 0;
#X obj 769 83 t f b b;
#X obj 789 268 unpack;
#X obj 807 297 +;
#X obj 789 384 pack;
#X msg 828 108 1;
#X obj 789 229 spigot;
#X obj 883 221 r all_spigots-\$1;
#X obj 828 133 s all_spigots-\$1;
#X obj 769 34 r y_add_\$1;
#X obj 774 355 f;
#X obj 807 326 t b f;
#X obj 1140 230 unpack;
#X obj 1140 201 convert-to-polar;
#X obj 1152 383 convert-to-linear;
#X obj 1140 82 r x_y_absolute-\$1;
#X obj 1140 173 spigot;
#X msg 1180 145 0;
#X obj 1045 103 t f b b;
#X msg 1289 121 1;
#X obj 1289 49 loadbang;
#X obj 1287 148 s all_spigots-\$1;
#X obj 1408 155 r all_spigots-\$1;
#X obj 1158 259 +;
#X obj 1152 354 pack;
#X obj 1125 321 f;
#X obj 1158 288 t b f;
#X obj 1152 412 s x_y_absolute-\$1;
#X obj 789 413 s x_y_absolute-\$1;
#X obj 504 365 s x_y_absolute-\$1;
#X obj 172 352 s x_y_absolute-\$1;
#X obj 572 608 r x_y_absolute-\$1;
#X msg 621 637 0;
#X obj 503 516 t f b b;
#X obj 572 694 unpack;
#X obj 557 758 pack;
#X msg 572 534 1;
#X obj 572 655 spigot;
#X obj 666 647 r all_spigots-\$1;
#X obj 572 559 s all_spigots-\$1;
#X obj 557 787 s x_y_absolute-\$1;
#X obj 503 555 t f f;
#X obj 557 729 *;
#X obj 590 729 *;
#X text 187 37 SPIN;
#X text 581 57 X ADDITION;
#X text 852 60 Y ADDITION;
#X text 1340 82 POLAR ADDITION;
#X text 101 452 ORBIT SPIN;
#X text 610 493 CARTESIAN MULTIPLICATION;
#X obj 98 723 s x_y_absolute-\$1;
#X obj 503 467 r cartesian_mult_\$1;
#X obj 784 928 s tare_x_add_\$1;
#X obj 817 907 s tare_y_add_\$1;
#X obj 883 928 s tare_orbit_\$1;
#X obj 916 907 s tare_cartesian_mult_\$1;
#X obj 751 849 sel 0 1 2 3 4 5, f 32;
#X obj 1006 859 bng 15 250 50 0 empty empty empty 17 7 0 10 -262144
-1 -1;
#X obj 687 901 bng 15 250 50 0 empty empty empty 17 7 0 10 -262144
-1 -1;
#X obj 762 904 bng 15 250 50 0 empty empty empty 17 7 0 10 -262144
-1 -1;
#X msg 874 798 1 \, 2 \, 3 \, 4 \, 5;
#X text 663 847 Resetter;
#X text 290 598 Make option to \; use current radius (but freeze) \;
use input radius \;;
#X obj 344 427 r x_y_absolute-\$1;
#X obj 346 657 unpack;
#X obj 332 693 -;
#X obj 382 695 -;
#X obj 343 736 pack;
#X obj 345 766 convert-to-polar;
#X obj 346 796 unpack;
#X obj 364 838 f;
#X text 345 869 send to radius;
#X text 121 829 PD needs a bang that only fires once \; then doesn't
fire again until it gets \; a "reset" message.;
#X obj 357 118 s tare_preset_0_\$1;
#X obj 1376 112 s tare_preset_1_\$1;
#X obj 754 767 r tare_preset_1_\$1;
#X obj 874 769 r tare_preset_0_\$1;
#X obj 751 949 s spin_tare_\$1;
#X msg 779 796 0 \, 1 \, 2 \, 4 \, 5;
#X obj 850 949 s pol_add_tare_\$1;
#X connect 0 0 29 0;
#X connect 1 0 0 0;
#X connect 3 0 7 0;
#X connect 4 0 8 0;
#X connect 5 0 9 0;
#X connect 6 0 3 0;
#X connect 6 1 4 0;
#X connect 6 2 5 0;
#X connect 7 0 23 0;
#X connect 8 0 22 0;
#X connect 9 0 21 0;
#X connect 10 0 6 0;
#X connect 11 0 14 0;
#X connect 12 0 15 0;
#X connect 13 0 11 1;
#X connect 13 0 12 1;
#X connect 13 0 18 0;
#X connect 14 0 0 1;
#X connect 15 0 0 2;
#X connect 16 0 19 0;
#X connect 17 0 20 0;
#X connect 18 0 16 0;
#X connect 18 1 17 0;
#X connect 18 2 17 0;
#X connect 19 0 15 0;
#X connect 19 0 14 0;
#X connect 19 1 15 1;
#X connect 19 1 14 1;
#X connect 20 0 15 0;
#X connect 20 0 14 0;
#X connect 20 1 15 1;
#X connect 20 1 14 1;
#X connect 21 0 29 3;
#X connect 22 0 29 2;
#X connect 23 0 29 1;
#X connect 24 0 7 1;
#X connect 25 0 9 1;
#X connect 26 0 8 1;
#X connect 27 0 28 0;
#X connect 28 0 5 0;
#X connect 28 0 4 0;
#X connect 28 0 3 0;
#X connect 29 0 2 0;
#X connect 30 0 31 1;
#X connect 30 1 43 1;
#X connect 31 0 43 0;
#X connect 32 0 70 0;
#X connect 33 0 34 0;
#X connect 34 0 38 0;
#X connect 34 1 39 0;
#X connect 35 0 30 0;
#X connect 36 0 98 0;
#X connect 37 0 33 0;
#X connect 38 0 53 0;
#X connect 39 0 53 1;
#X connect 40 0 37 0;
#X connect 41 0 37 1;
#X connect 42 0 41 0;
#X connect 43 0 44 0;
#X connect 44 0 110 0;
#X connect 45 0 11 0;
#X connect 45 1 12 0;
#X connect 46 0 45 0;
#X connect 47 0 58 0;
#X connect 48 0 50 0;
#X connect 49 0 51 0;
#X connect 50 0 52 0;
#X connect 51 0 50 0;
#X connect 51 1 50 1;
#X connect 53 0 130 0;
#X connect 54 1 39 1;
#X connect 54 1 146 1;
#X connect 55 0 56 0;
#X connect 56 0 62 0;
#X connect 56 1 54 0;
#X connect 58 0 35 0;
#X connect 59 0 58 1;
#X connect 60 0 61 0;
#X connect 61 0 41 0;
#X connect 62 1 38 1;
#X connect 62 1 145 1;
#X connect 63 0 74 0;
#X connect 64 0 74 1;
#X connect 65 0 68 0;
#X connect 65 1 64 0;
#X connect 65 2 72 0;
#X connect 66 0 65 0;
#X connect 67 0 68 1;
#X connect 67 1 69 1;
#X connect 68 0 69 0;
#X connect 69 0 109 0;
#X connect 70 0 31 0;
#X connect 70 1 59 0;
#X connect 70 2 71 0;
#X connect 71 0 75 0;
#X connect 71 0 153 0;
#X connect 72 0 78 0;
#X connect 73 0 71 0;
#X connect 74 0 67 0;
#X connect 76 0 58 1;
#X connect 77 0 74 1;
#X connect 79 0 86 0;
#X connect 80 0 86 1;
#X connect 81 0 83 0;
#X connect 81 1 80 0;
#X connect 81 2 85 0;
#X connect 82 0 90 1;
#X connect 82 1 83 1;
#X connect 83 0 91 0;
#X connect 84 0 108 0;
#X connect 85 0 88 0;
#X connect 86 0 82 0;
#X connect 87 0 86 1;
#X connect 89 0 81 0;
#X connect 90 0 84 0;
#X connect 91 0 90 0;
#X connect 91 1 84 1;
#X connect 92 0 105 1;
#X connect 92 1 103 1;
#X connect 93 0 92 0;
#X connect 94 0 107 0;
#X connect 95 0 96 0;
#X connect 96 0 93 0;
#X connect 97 0 96 1;
#X connect 98 0 103 0;
#X connect 98 1 97 0;
#X connect 98 2 99 0;
#X connect 99 0 101 0;
#X connect 99 0 154 0;
#X connect 100 0 99 0;
#X connect 102 0 96 1;
#X connect 103 0 106 0;
#X connect 104 0 94 0;
#X connect 105 0 104 0;
#X connect 106 0 105 0;
#X connect 106 1 104 1;
#X connect 111 0 117 0;
#X connect 112 0 117 1;
#X connect 113 0 121 0;
#X connect 113 1 112 0;
#X connect 113 2 116 0;
#X connect 114 0 122 1;
#X connect 114 1 123 1;
#X connect 115 0 120 0;
#X connect 116 0 119 0;
#X connect 117 0 114 0;
#X connect 118 0 117 1;
#X connect 121 0 122 0;
#X connect 121 1 123 0;
#X connect 122 0 115 0;
#X connect 123 0 115 1;
#X connect 131 0 113 0;
#X connect 136 0 138 0;
#X connect 136 0 157 0;
#X connect 136 1 132 0;
#X connect 136 1 139 0;
#X connect 136 2 133 0;
#X connect 136 3 159 0;
#X connect 136 4 134 0;
#X connect 136 5 135 0;
#X connect 136 5 137 0;
#X connect 140 0 136 0;
#X connect 143 0 144 0;
#X connect 144 0 145 0;
#X connect 144 1 146 0;
#X connect 145 0 147 0;
#X connect 146 0 147 1;
#X connect 147 0 148 0;
#X connect 148 0 149 0;
#X connect 149 1 150 1;
#X connect 155 0 158 0;
#X connect 156 0 140 0;
#X connect 158 0 136 0;
