#N canvas 57 87 1863 993 10;
#X obj 150 921 translateXYZ, f 16;
#X obj 150 101 inlet;
#X obj 1365 939 outlet;
#X obj 1632 861 line;
#X obj 1701 861 line;
#X floatatom 1632 707 5 0 0 0 - - -, f 5;
#X floatatom 1667 707 5 0 0 0 - - -, f 5;
#X floatatom 1701 707 5 0 0 0 - - -, f 5;
#X obj 1632 678 unpack f f f;
#X obj 1632 831 pack;
#X obj 1653 745 r speed;
#X obj 1667 832 pack;
#X obj 1688 774 r speed;
#X obj 1701 832 pack;
#X obj 1722 803 r speed;
#X obj 1667 861 line;
#X obj 1605 890 rotateXYZ, f 16;
#X obj 801 362 r translator\$1_polar;
#X obj 1244 366 +;
#X floatatom 1244 444 5 0 0 0 - - -, f 5;
#X obj 1091 380 unpack;
#X obj 1048 665 *;
#X obj 1109 665 *;
#X obj 277 781 pack;
#X obj 387 781 pack;
#X obj 1046 461 pack;
#X obj 1124 461 pack;
#X obj 1495 208 sel 0 1, f 10;
#X obj 1046 330 atan2;
#X obj 1048 636 cos;
#X obj 1109 636 sin;
#X obj 1495 133 r lin_or_pol_motion;
#X obj 1495 172 tgl 15 0 empty empty empty 17 7 0 10 -262144 -1 -1
1 1;
#X obj 181 892 *;
#X obj 51 874 t b f;
#X obj 94 874 t b f;
#X obj 212 892 *;
#X obj 322 12 r translator\$1_linear;
#X obj 477 380 unpack;
#X obj 277 635 cos;
#X obj 387 635 sin;
#X obj 387 664 *;
#X obj 277 664 *;
#X obj 1046 301 unpack;
#X obj 277 874 spigot;
#X obj 310 839 tgl 15 0 empty empty empty 17 7 0 10 -262144 -1 -1 0
1;
#X obj 387 874 spigot;
#X obj 1048 874 spigot;
#X obj 1081 839 tgl 15 0 empty empty empty 17 7 0 10 -262144 -1 -1
1 1;
#X obj 1109 874 spigot;
#X obj 1142 839 tgl 15 0 empty empty empty 17 7 0 10 -262144 -1 -1
1 1;
#X obj 421 839 tgl 15 0 empty empty empty 17 7 0 10 -262144 -1 -1 0
1;
#X msg 1495 646 1 0;
#X msg 1523 646 0 1;
#X obj 1495 821 unpack;
#X obj 1046 243 t a a;
#X obj 1244 261 unpack;
#X obj 1244 327 expr (pow($f1 \, 2));
#X obj 1277 298 expr (pow($f1 \, 2));
#X obj 1244 405 expr (pow($f1 \, 0.5));
#X msg 1046 272 \$2 \$1;
#X obj 321 494 +;
#X obj 697 511 +;
#X obj 686 480 t b f;
#X obj 454 476 t b f;
#X obj 432 245 +;
#X floatatom 432 300 5 0 0 0 - - -, f 5;
#X obj 432 164 unpack;
#X obj 432 216 expr (pow($f1 \, 2));
#X obj 465 187 expr (pow($f1 \, 2));
#X obj 432 271 expr (pow($f1 \, 0.5));
#X obj 321 253 atan2;
#X obj 322 222 unpack;
#X obj 322 146 t a a;
#X msg 322 185 \$2 \$1;
#X obj 51 816 pack;
#X obj 51 501 r circle_distance_\$1;
#X obj 928 443 r speed_\$1;
#X obj 1632 649 r rotate\$1;
#X obj 541 531 pack;
#X obj 541 560 liner_sfgem;
#X obj 541 502 r spin_\$1;
#X obj 1048 607 +;
#X obj 1048 578 t b f;
#X obj 321 617 +;
#X obj 321 578 t b f;
#X floatatom 277 693 5 0 0 0 - - -, f 5;
#X floatatom 387 693 5 0 0 0 - - -, f 5;
#X obj 387 810 liner_sfgem;
#X obj 566 418 liner_sfgem;
#X obj 277 810 liner_sfgem;
#X obj 1046 493 liner_sfgem;
#X obj 1124 493 liner_sfgem;
#X obj 51 845 liner_sfgem;
#X obj 72 530 r circle_distance_speed_\$1;
#X obj 72 715 r speed_\$1;
#X obj 532 763 r speed_\$1;
#X obj 610 513 r speed_\$1;
#X floatatom 510 647 5 0 0 0 - - -, f 5;
#X text 467 301 polar amplitude;
#X text 562 398 what is this???;
#X text 367 145 CONVERSION;
#X text 1096 244 CONVERSION;
#X text 1205 493 SPEED AS POLAR;
#X text 431 676 RECONVERSION;
#X text 468 809 SPEED AS LINEAR;
#X text 1142 648 RECONVERSION;
#X obj 1046 30 t a;
#X connect 0 0 2 0;
#X connect 1 0 0 0;
#X connect 3 0 16 1;
#X connect 4 0 16 3;
#X connect 5 0 9 0;
#X connect 6 0 11 0;
#X connect 7 0 13 0;
#X connect 8 0 5 0;
#X connect 8 1 6 0;
#X connect 8 2 7 0;
#X connect 9 0 3 0;
#X connect 10 0 9 1;
#X connect 11 0 15 0;
#X connect 12 0 11 1;
#X connect 13 0 4 0;
#X connect 14 0 13 1;
#X connect 15 0 16 2;
#X connect 17 0 20 0;
#X connect 17 0 38 0;
#X connect 18 0 59 0;
#X connect 19 0 26 0;
#X connect 20 0 25 0;
#X connect 20 1 26 0;
#X connect 21 0 47 0;
#X connect 22 0 49 0;
#X connect 23 0 90 0;
#X connect 24 0 88 0;
#X connect 25 0 91 0;
#X connect 26 0 92 0;
#X connect 27 0 52 0;
#X connect 27 1 53 0;
#X connect 28 0 25 0;
#X connect 29 0 21 0;
#X connect 30 0 22 0;
#X connect 31 0 32 0;
#X connect 32 0 27 0;
#X connect 33 0 0 1;
#X connect 34 0 33 0;
#X connect 34 1 33 1;
#X connect 35 0 36 0;
#X connect 35 1 36 1;
#X connect 36 0 0 2;
#X connect 37 0 73 0;
#X connect 37 0 107 0;
#X connect 38 0 61 0;
#X connect 38 1 98 0;
#X connect 39 0 42 0;
#X connect 40 0 41 0;
#X connect 41 0 24 0;
#X connect 41 0 87 0;
#X connect 42 0 23 0;
#X connect 42 0 86 0;
#X connect 43 0 28 0;
#X connect 43 1 28 1;
#X connect 44 0 33 0;
#X connect 45 0 44 1;
#X connect 46 0 36 0;
#X connect 47 0 33 0;
#X connect 48 0 47 1;
#X connect 49 0 36 0;
#X connect 50 0 49 1;
#X connect 51 0 46 1;
#X connect 52 0 54 0;
#X connect 53 0 54 0;
#X connect 54 0 45 0;
#X connect 54 0 51 0;
#X connect 54 1 48 0;
#X connect 54 1 50 0;
#X connect 55 0 60 0;
#X connect 55 1 56 0;
#X connect 56 0 57 0;
#X connect 56 1 58 0;
#X connect 57 0 18 0;
#X connect 58 0 18 1;
#X connect 59 0 19 0;
#X connect 60 0 43 0;
#X connect 61 0 84 0;
#X connect 62 0 82 0;
#X connect 63 0 62 0;
#X connect 63 1 62 1;
#X connect 64 0 61 0;
#X connect 64 1 61 1;
#X connect 65 0 70 0;
#X connect 66 0 42 1;
#X connect 66 0 41 1;
#X connect 67 0 68 0;
#X connect 67 1 69 0;
#X connect 68 0 65 0;
#X connect 69 0 65 1;
#X connect 70 0 66 0;
#X connect 71 0 61 0;
#X connect 72 0 71 0;
#X connect 72 1 71 1;
#X connect 73 0 74 0;
#X connect 73 1 67 0;
#X connect 74 0 72 0;
#X connect 75 0 93 0;
#X connect 76 0 75 0;
#X connect 77 0 25 1;
#X connect 77 0 26 1;
#X connect 78 0 8 0;
#X connect 79 0 80 0;
#X connect 80 0 83 0;
#X connect 80 0 85 0;
#X connect 81 0 79 0;
#X connect 82 0 30 0;
#X connect 82 0 29 0;
#X connect 83 0 82 0;
#X connect 83 1 82 1;
#X connect 84 0 40 0;
#X connect 84 0 39 0;
#X connect 85 0 84 0;
#X connect 85 1 84 1;
#X connect 88 0 46 0;
#X connect 89 0 64 0;
#X connect 89 0 63 0;
#X connect 90 0 44 0;
#X connect 91 0 62 0;
#X connect 92 0 22 1;
#X connect 92 0 21 1;
#X connect 93 0 34 0;
#X connect 93 0 35 0;
#X connect 94 0 75 1;
#X connect 95 0 75 1;
#X connect 96 0 23 1;
#X connect 96 0 24 1;
#X connect 97 0 79 1;
#X connect 98 0 42 1;
#X connect 98 0 41 1;
#X connect 107 0 55 0;
