#N canvas 448 138 925 804 10;
#X obj 182 424 s x_add_1;
#X obj 222 464 s x_add_2;
#X obj 263 522 s x_add_0_speed_rec;
#X obj 303 542 s x_add_1_speed_rec;
#X obj 344 562 s x_add_2_speed_rec;
#X obj 141 384 s x_add_0;
#X obj 141 404 s x_add_3;
#X obj 182 444 s x_add_4;
#X obj 222 484 s x_add_5;
#X obj 263 582 s x_add_3_speed_rec;
#X obj 303 602 s x_add_4_speed_rec;
#X obj 344 622 s x_add_5_speed_rec;
#X obj 101 62 r x_add_master_set;
#X obj 135 82 r x_add_0_set;
#X obj 170 102 r x_add_1_set;
#X obj 205 122 r x_add_2_set;
#X obj 239 62 r x_add_speed_all;
#X obj 274 82 r x_add_speed_0;
#X obj 309 102 r x_add_speed_1;
#X obj 344 122 r x_add_speed_2;
#X obj 101 151 control_numbers_window 999 999 999 999 20;
#X obj 101 314 s x_add_master;
#X obj 101 577 value x_add_master;
#X obj 141 597 value x_add_0;
#X obj 181 617 value x_add_1;
#X obj 222 637 value x_add_2;
#X connect 12 0 20 0;
#X connect 13 0 20 1;
#X connect 14 0 20 2;
#X connect 15 0 20 3;
#X connect 16 0 20 4;
#X connect 17 0 20 5;
#X connect 18 0 20 6;
#X connect 19 0 20 7;
#X connect 20 0 21 0;
#X connect 20 0 22 0;
#X connect 20 1 5 0;
#X connect 20 1 6 0;
#X connect 20 1 23 0;
#X connect 20 2 0 0;
#X connect 20 2 7 0;
#X connect 20 2 24 0;
#X connect 20 3 1 0;
#X connect 20 3 8 0;
#X connect 20 3 25 0;
#X connect 20 4 2 0;
#X connect 20 4 9 0;
#X connect 20 5 3 0;
#X connect 20 5 10 0;
#X connect 20 6 4 0;
#X connect 20 6 11 0;
#X coords 0 -1 1 1 252 52 2 100 150;
