#N canvas 801 120 563 758 10;
#X obj 149 422 s x_absolute_1;
#X obj 101 402 s x_absolute_0;
#X obj 198 442 s x_absolute_2;
#X obj 135 72 r x_absolute_0_set;
#X obj 170 92 r x_absolute_1_set;
#X obj 205 112 r x_absolute_2_set;
#X obj 101 52 r x_absolute_master_set;
#X obj 240 52 r x_absolute_speed_all;
#X obj 274 72 r x_absolute_speed_0;
#X obj 344 112 r x_absolute_speed_2;
#X obj 309 92 r x_absolute_speed_1;
#X obj 246 402 s x_absolute_0_speed_rec;
#X obj 295 422 s x_absolute_1_speed_rec;
#X obj 344 442 s x_absolute_2_speed_rec;
#X obj 101 462 s x_absolute_3;
#X obj 149 482 s x_absolute_4;
#X obj 198 502 s x_absolute_5;
#X obj 246 462 s x_absolute_3_speed_rec;
#X obj 295 482 s x_absolute_4_speed_rec;
#X obj 344 502 s x_absolute_5_speed_rec;
#X obj 101 245 liner_sfgem;
#X obj 101 221 pack;
#X obj 149 298 liner_sfgem;
#X obj 149 274 pack;
#X obj 198 352 liner_sfgem;
#X obj 198 328 pack;
#X obj 33 254 s tare_0;
#X obj 33 228 bng 15 250 50 0 empty empty empty 17 7 0 10 -262144 -1
-1;
#X obj 33 308 bng 15 250 50 0 empty empty empty 17 7 0 10 -262144 -1
-1;
#X obj 33 388 bng 15 250 50 0 empty empty empty 17 7 0 10 -262144 -1
-1;
#X obj 33 334 s tare_1;
#X obj 33 414 s tare_2;
#X obj 101 151 control_numbers_window_absolutes;
#X connect 3 0 32 1;
#X connect 4 0 32 2;
#X connect 5 0 32 3;
#X connect 6 0 32 0;
#X connect 7 0 32 4;
#X connect 8 0 32 5;
#X connect 9 0 32 7;
#X connect 10 0 32 6;
#X connect 20 0 1 0;
#X connect 20 0 14 0;
#X connect 21 0 20 0;
#X connect 22 0 0 0;
#X connect 22 0 15 0;
#X connect 23 0 22 0;
#X connect 24 0 2 0;
#X connect 24 0 16 0;
#X connect 25 0 24 0;
#X connect 27 0 26 0;
#X connect 28 0 30 0;
#X connect 29 0 31 0;
#X connect 32 0 21 0;
#X connect 32 1 23 0;
#X connect 32 2 25 0;
#X connect 32 3 11 0;
#X connect 32 3 17 0;
#X connect 32 3 21 1;
#X connect 32 4 12 0;
#X connect 32 4 18 0;
#X connect 32 4 23 1;
#X connect 32 5 13 0;
#X connect 32 5 19 0;
#X connect 32 5 25 1;
#X coords 0 -1 1 1 252 52 2 100 150;
