#N canvas 913 122 618 525 10;
#X obj 101 101 cnv 15 250 68 empty empty empty 20 12 0 14 -162280 -66577
0;
#X obj 102 103 nbx 4 35 -1e+37 1e+37 0 0 empty empty empty 0 -8 0 30
-262144 -1 -1 -0.445052 256;
#X obj 102 40 unpack;
#X obj 227 103 nbx 4 35 -1e+37 1e+37 0 0 empty empty empty 0 -8 0 30
-262144 -1 -1 0.14 256;
#X obj 152 142 nbx 5 25 -1e+37 1e+37 0 0 empty empty empty 0 -8 0 20
-262144 -1 -1 0 256;
#X obj 297 142 tgl 25 0 empty empty empty 17 7 0 10 -262144 -1 -1 0
1;
#X obj 297 189 s x_y_absolute-\$1-cartpol;
#X obj 297 70 r x_y_absolute-\$1-cartpol-rec;
#X obj 432 95 loadbang;
#X msg 432 124 0;
#X obj 152 189 s x_y_absolute-\$1-time;
#X obj 102 394 s x_y_absolute-\$1-out;
#X obj 102 365 pack;
#X msg 102 76 set \$1;
#X msg 227 74 set \$1;
#X obj 221 11 r x_y_absolute-\$1-receive;
#X obj 102 11 r x_y_absolute-\$1;
#X obj 221 40 unpack;
#X obj 186 260 t b f;
#X connect 1 0 12 0;
#X connect 2 0 13 0;
#X connect 2 1 14 0;
#X connect 2 1 12 1;
#X connect 3 0 18 0;
#X connect 4 0 10 0;
#X connect 5 0 6 0;
#X connect 7 0 5 0;
#X connect 8 0 9 0;
#X connect 9 0 5 0;
#X connect 12 0 11 0;
#X connect 13 0 1 0;
#X connect 14 0 3 0;
#X connect 15 0 17 0;
#X connect 16 0 2 0;
#X connect 17 0 1 0;
#X connect 17 1 3 0;
#X connect 18 0 1 0;
#X connect 18 1 12 1;
#X coords 0 -1 1 1 252 70 2 100 100;
