#N canvas 57 214 1027 737 10;
#X obj 141 222 pack;
#X obj 182 292 pack;
#X obj 222 358 pack;
#X obj 101 151 control_numbers_window 999 999 999 999 6;
#X obj 141 266 Tarer 0;
#X obj 182 336 Tarer 1;
#X obj 222 402 Tarer 2;
#X obj 732 67 loadbang;
#X obj 732 96 t b b b b;
#X msg 783 135 1000;
#X msg 776 164 100;
#X obj 469 29 r reset_values;
#X obj 469 58 del 1;
#X msg 722 164 0.4;
#X msg 732 135 0.6;
#X obj 141 246 liner_sfgem;
#X obj 182 316 liner_sfgem;
#X obj 222 382 liner_sfgem;
#X obj 101 62 r y_offset_master_set;
#X obj 135 82 r y_offset_0_set;
#X obj 170 102 r y_offset_1_set;
#X obj 205 122 r y_offset_2_set;
#X obj 239 62 r y_offset_speed_all;
#X obj 274 82 r y_offset_speed_0;
#X obj 309 102 r y_offset_speed_1;
#X obj 344 122 r y_offset_speed_2;
#X obj 373 153 value y_offset_random_max;
#X obj 373 182 value y_offset_random_min;
#X obj 530 153 value y_offset_time_random_max;
#X obj 530 182 value y_offset_time_random_min;
#X obj 347 437 r y_offset_liner_exponent;
#X obj 348 470 r y_offset_liner_function;
#X obj 263 519 s y_offset_0_speed_rec;
#X obj 263 539 s y_offset_3_speed_rec;
#X obj 303 559 s y_offset_1_speed_rec;
#X obj 303 579 s y_offset_4_speed_rec;
#X obj 344 599 s y_offset_2_speed_rec;
#X obj 344 619 s y_offset_5_speed_rec;
#X obj 223 614 value y_offset_2;
#X obj 182 594 value y_offset_1;
#X obj 141 574 value y_offset_0;
#X obj 101 554 value y_offset_master;
#X obj 141 409 s y_offset_0;
#X obj 182 429 s y_offset_1;
#X obj 141 449 s y_offset_3;
#X obj 223 449 s y_offset_2;
#X obj 182 469 s y_offset_4;
#X obj 223 489 s y_offset_5;
#X msg 458 79 0;
#X connect 0 0 15 0;
#X connect 1 0 16 0;
#X connect 2 0 17 0;
#X connect 3 0 41 0;
#X connect 3 1 0 0;
#X connect 3 1 40 0;
#X connect 3 2 1 0;
#X connect 3 2 39 0;
#X connect 3 3 2 0;
#X connect 3 3 38 0;
#X connect 3 4 0 1;
#X connect 3 4 32 0;
#X connect 3 4 33 0;
#X connect 3 5 1 1;
#X connect 3 5 34 0;
#X connect 3 5 35 0;
#X connect 3 6 2 1;
#X connect 3 6 36 0;
#X connect 3 6 37 0;
#X connect 4 0 42 0;
#X connect 4 0 44 0;
#X connect 5 0 43 0;
#X connect 5 0 46 0;
#X connect 6 0 45 0;
#X connect 6 0 47 0;
#X connect 7 0 8 0;
#X connect 8 0 13 0;
#X connect 8 1 14 0;
#X connect 8 2 10 0;
#X connect 8 3 9 0;
#X connect 9 0 28 0;
#X connect 10 0 29 0;
#X connect 11 0 12 0;
#X connect 12 0 48 0;
#X connect 13 0 27 0;
#X connect 14 0 26 0;
#X connect 15 0 4 0;
#X connect 15 0 4 0;
#X connect 16 0 5 0;
#X connect 17 0 6 0;
#X connect 18 0 3 0;
#X connect 19 0 3 1;
#X connect 20 0 3 2;
#X connect 21 0 3 3;
#X connect 22 0 3 4;
#X connect 23 0 3 5;
#X connect 24 0 3 6;
#X connect 25 0 3 7;
#X connect 30 0 15 3;
#X connect 30 0 16 3;
#X connect 30 0 17 3;
#X connect 31 0 15 2;
#X connect 31 0 16 2;
#X connect 31 0 17 2;
#X connect 48 0 3 0;
#X coords 0 -1 1 1 252 52 1 100 150;
