#N canvas 886 217 580 531 10;
#X obj 149 415 s y_absolute_1;
#X obj 101 395 s y_absolute_0;
#X obj 198 435 s y_absolute_2;
#X obj 135 82 r y_absolute_0_set;
#X obj 170 102 r y_absolute_1_set;
#X obj 205 122 r y_absolute_2_set;
#X obj 101 57 r y_absolute_master_set;
#X obj 239 57 r y_absolute_speed_all;
#X obj 274 81 r y_absolute_speed_0;
#X obj 309 102 r y_absolute_speed_1;
#X obj 344 122 r y_absolute_speed_2;
#X obj 246 415 s y_absolute_0_speed_rec;
#X obj 295 435 s y_absolute_1_speed_rec;
#X obj 344 495 s y_absolute_2_speed_rec;
#X obj 101 435 s y_absolute_3;
#X obj 149 455 s y_absolute_4;
#X obj 198 475 s y_absolute_5;
#X obj 246 455 s y_absolute_3_speed_rec;
#X obj 295 475 s y_absolute_4_speed_rec;
#X obj 344 515 s y_absolute_5_speed_rec;
#X obj 101 245 liner_sfgem;
#X obj 101 221 pack;
#X obj 149 298 liner_sfgem;
#X obj 149 274 pack;
#X obj 198 352 liner_sfgem;
#X obj 198 328 pack;
#X obj 101 151 control_numbers_window_absolutes;
#X connect 3 0 26 1;
#X connect 4 0 26 2;
#X connect 5 0 26 3;
#X connect 6 0 26 0;
#X connect 7 0 26 4;
#X connect 8 0 26 5;
#X connect 9 0 26 6;
#X connect 10 0 26 7;
#X connect 20 0 1 0;
#X connect 20 0 14 0;
#X connect 21 0 20 0;
#X connect 22 0 0 0;
#X connect 22 0 15 0;
#X connect 23 0 22 0;
#X connect 24 0 2 0;
#X connect 24 0 16 0;
#X connect 25 0 24 0;
#X connect 26 0 21 0;
#X connect 26 1 23 0;
#X connect 26 2 25 0;
#X connect 26 3 11 0;
#X connect 26 3 17 0;
#X connect 26 3 21 1;
#X connect 26 4 12 0;
#X connect 26 4 18 0;
#X connect 26 4 23 1;
#X connect 26 5 13 0;
#X connect 26 5 19 0;
#X connect 26 5 25 1;
#X coords 0 -1 1 1 252 52 2 100 150;
