#N canvas 67 313 866 651 10;
#X obj 141 213 pack;
#X obj 182 283 pack;
#X obj 222 361 pack;
#X obj 101 62 r y_add_master_set;
#X obj 135 82 r y_add_0_set;
#X obj 170 102 r y_add_1_set;
#X obj 205 122 r y_add_2_set;
#X obj 239 62 r y_add_speed_all;
#X obj 274 82 r y_add_speed_0;
#X obj 309 102 r y_add_speed_1;
#X obj 344 122 r y_add_speed_2;
#X obj 141 399 s y_add_0;
#X obj 141 419 s y_add_3;
#X obj 182 439 s y_add_1;
#X obj 222 479 s y_add_2;
#X obj 222 499 s y_add_5;
#X obj 182 459 s y_add_4;
#X obj 263 529 s y_add_0_speed_rec;
#X obj 263 549 s y_add_3_speed_rec;
#X obj 303 569 s y_add_1_speed_rec;
#X obj 303 589 s y_add_4_speed_rec;
#X obj 344 609 s y_add_2_speed_rec;
#X obj 344 629 s y_add_5_speed_rec;
#X obj 101 151 control_numbers_window 999 999 999 999 21;
#X obj 100 559 value y_add_master;
#X obj 141 579 value y_add_0;
#X obj 182 599 value y_add_1;
#X obj 222 619 value y_add_2;
#X obj 373 182 value y_add_random_min;
#X obj 373 153 value y_add_random_max;
#X obj 530 153 value y_add_time_random_max;
#X obj 530 182 value y_add_time_random_min;
#X obj 141 237 liner_sfgem;
#X obj 182 307 liner_sfgem;
#X obj 222 385 liner_sfgem;
#X obj 424 239 r y_add_tare_0;
#X obj 424 309 r y_add_tare_1;
#X obj 424 387 r y_add_tare_0;
#X obj 141 257 Tarer 0;
#X obj 182 327 Tarer 1;
#X obj 222 405 Tarer 2;
#X obj 731 67 loadbang;
#X obj 731 96 t b b b b;
#X msg 782 135 1000;
#X msg 765 164 100;
#X msg 731 135 5;
#X msg 731 164 -5;
#X connect 0 0 32 0;
#X connect 1 0 33 0;
#X connect 2 0 34 0;
#X connect 3 0 23 0;
#X connect 4 0 23 1;
#X connect 5 0 23 2;
#X connect 6 0 23 3;
#X connect 7 0 23 4;
#X connect 8 0 23 5;
#X connect 9 0 23 6;
#X connect 10 0 23 7;
#X connect 23 0 24 0;
#X connect 23 1 0 0;
#X connect 23 1 25 0;
#X connect 23 2 1 0;
#X connect 23 2 26 0;
#X connect 23 3 2 0;
#X connect 23 3 27 0;
#X connect 23 4 0 1;
#X connect 23 4 17 0;
#X connect 23 4 18 0;
#X connect 23 5 1 1;
#X connect 23 5 19 0;
#X connect 23 5 20 0;
#X connect 23 6 2 1;
#X connect 23 6 22 0;
#X connect 23 6 21 0;
#X connect 32 0 38 0;
#X connect 32 0 38 0;
#X connect 33 0 39 0;
#X connect 34 0 40 0;
#X connect 35 0 38 1;
#X connect 36 0 39 1;
#X connect 37 0 40 1;
#X connect 38 0 11 0;
#X connect 38 0 12 0;
#X connect 39 0 13 0;
#X connect 39 0 16 0;
#X connect 40 0 14 0;
#X connect 40 0 15 0;
#X connect 41 0 42 0;
#X connect 42 0 46 0;
#X connect 42 1 45 0;
#X connect 42 2 44 0;
#X connect 42 3 43 0;
#X connect 43 0 30 0;
#X connect 44 0 31 0;
#X connect 45 0 29 0;
#X connect 46 0 28 0;
#X coords 0 -1 1 1 252 52 2 100 150;
